<svg xmlns="http://www.w3.org/2000/svg" width="129.022" height="111.699" viewBox="0 0 129.022 111.699">
  <g id="Grupo_927032" data-name="Grupo 927032" transform="translate(-838.813 -1110.728)">
    <path id="Trazado_633645" data-name="Trazado 633645" d="M308.252-224.482c0,28.432-14.28,51.481-45.709,51.481s-83.313-20.294-83.313-48.726S234.219-284.7,265.648-284.7,308.252-252.914,308.252-224.482Z" transform="translate(659.583 1395.428)" fill="#ffe6a1"/>
    <g id="turista_1_" data-name="turista(1)" transform="translate(861.689 1119.028)">
      <path id="Trazado_633650" data-name="Trazado 633650" d="M82.726,106.588V80.509a8.679,8.679,0,0,0-6.23-8.326L59.251,67.112H45.533L28.29,72.183a8.679,8.679,0,0,0-6.231,8.326v26.078Z" transform="translate(-0.484 -17.312)" fill="#73e6ac"/>
      <path id="Trazado_633651" data-name="Trazado 633651" d="M40.695,39.906H39.281A3.014,3.014,0,0,0,36.3,43.353l.138.955a5.063,5.063,0,0,0,3.352,4.056l2.16.749H70.7l2.16-.749a5.063,5.063,0,0,0,3.352-4.056l.138-.955a3.014,3.014,0,0,0-2.983-3.447Z" transform="translate(-4.416 -9.783)" fill="#f1d0a4"/>
      <path id="Trazado_633652" data-name="Trazado 633652" d="M42.39,17.79v-5.7a5.786,5.786,0,0,1,5.786-5.786H67.863a5.786,5.786,0,0,1,5.786,5.786v5.7Z" transform="translate(-6.111 -0.484)" fill="#ffdd70"/>
      <path id="Trazado_633653" data-name="Trazado 633653" d="M64.808,99.726l-1.155-2.892H55.727l-1.156,2.892H48.426v15.087H70.954V99.726Z" transform="translate(-7.781 -25.538)" fill="#405580"/>
      <circle id="Elipse_4819" data-name="Elipse 4819" cx="3.963" cy="3.963" r="3.963" transform="translate(47.946 77.769)" fill="#e6f2ff"/>
      <path id="Trazado_633654" data-name="Trazado 633654" d="M67.156,31.509c-4.322,0-4.142,2.662-9.137,2.662s-4.815-2.662-9.137-2.662c-2.956,0-4.174,1.343-6.489,2.121l0,.006V38.6c0,9.739,4.572,15.461,8.771,18.66a11.312,11.312,0,0,0,13.718,0c4.2-3.2,8.771-8.925,8.771-18.66V33.636l-.009-.008c-2.312-.778-3.529-2.119-6.483-2.119Z" transform="translate(-6.111 -7.459)" fill="#ffe3c1"/>
      <path id="Trazado_633655" data-name="Trazado 633655" d="M70.014,22.184l9.5,6.015a7.173,7.173,0,0,1-5.949,3.395c-5.178,0-5.886-2.662-10.042-2.662-4.322,0-4.142,2.662-9.137,2.662s-4.815-2.662-9.137-2.662c-4.156,0-4.865,2.662-10.042,2.662A7.172,7.172,0,0,1,29.256,28.2l9.5-6.015Z" transform="translate(-2.476 -4.878)" fill="#f8c045"/>
      <g id="Grupo_926867" data-name="Grupo 926867" transform="translate(20.309 4.557)">
        <path id="Trazado_633656" data-name="Trazado 633656" d="M21.575,108.719a1.266,1.266,0,0,0-1.266,1.266V118.1a1.266,1.266,0,1,0,2.531,0v-8.118a1.266,1.266,0,0,0-1.266-1.266Z" transform="translate(-20.309 -33.384)"/>
        <path id="Trazado_633657" data-name="Trazado 633657" d="M21.575,94.982a1.266,1.266,0,0,0-1.266,1.266V99.5a1.266,1.266,0,1,0,2.531,0V96.248A1.266,1.266,0,0,0,21.575,94.982Z" transform="translate(-20.309 -29.582)"/>
        <path id="Trazado_633658" data-name="Trazado 633658" d="M76.369,53.657l-15-4.412a22.743,22.743,0,0,0,5.889-8.914l1.6-.555a6.306,6.306,0,0,0,4.188-5.07l.139-.954a4.28,4.28,0,0,0-4.235-4.9H68.8V27.79a13.4,13.4,0,0,0,2.285.188,8.418,8.418,0,0,0,7.051-4.039,1.264,1.264,0,0,0-.425-1.691L68.8,16.607v-5a7.06,7.06,0,0,0-7.052-7.052,1.266,1.266,0,0,0,0,2.531,4.525,4.525,0,0,1,4.52,4.52V16.04H37.545V11.609a4.525,4.525,0,0,1,4.52-4.52H54.981a1.266,1.266,0,1,0,0-2.531H42.065a7.06,7.06,0,0,0-7.052,7.052v5L26.1,22.25a1.264,1.264,0,0,0-.425,1.691,8.419,8.419,0,0,0,7.052,4.039,13.4,13.4,0,0,0,2.284-.188v1.067h-.149a4.279,4.279,0,0,0-4.235,4.9l.138.954a6.308,6.308,0,0,0,4.189,5.07l1.6.555a22.744,22.744,0,0,0,5.889,8.916l-15,4.412A10,10,0,0,0,20.309,63.2v1.041a1.266,1.266,0,0,0,2.531,0V63.2a7.455,7.455,0,0,1,5.322-7.115L38.885,52.93l3.268,19.99H40.645a1.265,1.265,0,0,0-1.266,1.266V89.273a1.265,1.265,0,0,0,1.266,1.266H63.172a1.265,1.265,0,0,0,1.266-1.266V74.188a1.265,1.265,0,0,0-1.266-1.266H61.664l3.268-19.99,10.723,3.151A7.454,7.454,0,0,1,80.976,63.2V89.273a1.266,1.266,0,1,0,2.531,0V63.2A10,10,0,0,0,76.369,53.657ZM70.275,31.993a1.727,1.727,0,0,1,.409,1.4l-.138.954a3.781,3.781,0,0,1-2.413,3,28.124,28.124,0,0,0,.665-5.954h.156a1.723,1.723,0,0,1,1.322.6ZM28.627,23.646l8.021-5.074H67.169l8.019,5.074a5.625,5.625,0,0,1-4.1,1.8,9.909,9.909,0,0,1-5.063-1.308,10.091,10.091,0,0,0-4.982-1.355A8.368,8.368,0,0,0,56.2,24.222a7.062,7.062,0,0,1-4.29,1.224,7.066,7.066,0,0,1-4.294-1.224,8.363,8.363,0,0,0-4.846-1.438,10.1,10.1,0,0,0-4.982,1.355,9.9,9.9,0,0,1-5.063,1.308,5.635,5.635,0,0,1-4.1-1.8Zm4.645,10.7-.139-.954a1.749,1.749,0,0,1,1.731-2h.156a28.123,28.123,0,0,0,.665,5.954,3.78,3.78,0,0,1-2.413-3Zm4.272-3.206V27.047c.491-.208.94-.429,1.374-.642a7.682,7.682,0,0,1,3.853-1.089A5.9,5.9,0,0,1,46.316,26.4a9.492,9.492,0,0,0,5.592,1.582A9.49,9.49,0,0,0,57.5,26.4a5.9,5.9,0,0,1,3.544-1.081A7.69,7.69,0,0,1,64.9,26.4c.43.217.882.434,1.374.642v4.089c0,9.379-4.5,14.779-8.272,17.657a10.068,10.068,0,0,1-12.182,0c-3.772-2.879-8.271-8.279-8.271-17.657ZM61.907,88.01h-20V75.453h4.88a1.264,1.264,0,0,0,1.175-.8l.838-2.1h6.211l.838,2.1a1.265,1.265,0,0,0,1.175.8h4.88ZM59.1,72.922H57.884l-.838-2.1a1.265,1.265,0,0,0-1.175-.8H47.946a1.266,1.266,0,0,0-1.175.8l-.837,2.1H44.719L41.332,52.213l3.492-1.027a12.553,12.553,0,0,0,14.168,0l3.491,1.027Z" transform="translate(-20.309 -4.557)"/>
        <path id="Trazado_633659" data-name="Trazado 633659" d="M38.516,93.811a1.266,1.266,0,0,0-1.266,1.266v18.9a1.266,1.266,0,1,0,2.531,0v-18.9a1.266,1.266,0,0,0-1.266-1.266Z" transform="translate(-24.997 -29.258)"/>
        <path id="Trazado_633660" data-name="Trazado 633660" d="M88.516,93.811a1.266,1.266,0,0,0-1.266,1.266v18.9a1.266,1.266,0,1,0,2.531,0v-18.9a1.266,1.266,0,0,0-1.266-1.266Z" transform="translate(-38.835 -29.258)"/>
        <path id="Trazado_633661" data-name="Trazado 633661" d="M71.36,43.252a1.674,1.674,0,1,0-1.674-1.674A1.674,1.674,0,0,0,71.36,43.252Z" transform="translate(-33.974 -14.34)"/>
        <path id="Trazado_633662" data-name="Trazado 633662" d="M55.36,43.252a1.674,1.674,0,1,0-1.674-1.674A1.674,1.674,0,0,0,55.36,43.252Z" transform="translate(-29.546 -14.34)"/>
        <path id="Trazado_633663" data-name="Trazado 633663" d="M55.835,54.648a1.266,1.266,0,0,0-.063,1.789,8.729,8.729,0,0,0,11.717,0A1.266,1.266,0,1,0,65.645,54.7a6.245,6.245,0,0,1-8.028,0,1.267,1.267,0,0,0-1.782-.054Z" transform="translate(-30.029 -18.324)"/>
        <path id="Trazado_633664" data-name="Trazado 633664" d="M62,104.034a5.228,5.228,0,1,0,5.228,5.228A5.229,5.229,0,0,0,62,104.034Zm0,7.925a2.7,2.7,0,1,1,2.7-2.7,2.7,2.7,0,0,1-2.7,2.7Z" transform="translate(-30.4 -32.088)"/>
      </g>
    </g>
  </g>
</svg>
