<svg xmlns="http://www.w3.org/2000/svg" width="129.022" height="111.699" viewBox="0 0 129.022 111.699">
  <g id="Grupo_927035" data-name="Grupo 927035" transform="translate(-218.768 -1531.854)">
    <path id="Trazado_633649" data-name="Trazado 633649" d="M308.252-224.482c0,28.432-14.28,51.481-45.709,51.481s-83.313-20.294-83.313-48.726S234.219-284.7,265.648-284.7,308.252-252.914,308.252-224.482Z" transform="translate(39.538 1816.554)" fill="#ffe6a1"/>
    <g id="contrato" transform="translate(234.996 1548.469)">
      <g id="Grupo_926936" data-name="Grupo 926936" transform="translate(26.225 4.026)">
        <g id="Grupo_926935" data-name="Grupo 926935" transform="translate(0)">
          <path id="Trazado_633728" data-name="Trazado 633728" d="M59.016,152.212H54v46.769a.805.805,0,0,0,.805.805h4.211V152.212Z" transform="translate(-54 -131.728)" fill="#a79ba7"/>
          <path id="Trazado_633729" data-name="Trazado 633729" d="M179.468,25h-39v5.2h39.8v-4.4A.805.805,0,0,0,179.468,25Z" transform="translate(-126.545 -25)" fill="#a79ba7"/>
        </g>
      </g>
      <path id="Trazado_633730" data-name="Trazado 633730" d="M138.076,56.3H94.06V70.943a.805.805,0,0,1-.805.805h-8.1v51.809a.805.805,0,0,0,.805.805h40.308a12.006,12.006,0,0,1,12.615-19.354V57.11A.805.805,0,0,0,138.076,56.3Z" transform="translate(-53.912 -47.239)" fill="#fff"/>
      <g id="Grupo_926937" data-name="Grupo 926937" transform="translate(31.241 24.509)">
        <path id="Trazado_633731" data-name="Trazado 633731" d="M91.891,204.022v-51.81H85.153v51.809a.805.805,0,0,0,.805.805H92.7A.8.8,0,0,1,91.891,204.022Z" transform="translate(-85.153 -152.212)" fill="#f3f0f3"/>
      </g>
      <g id="Grupo_926940" data-name="Grupo 926940" transform="translate(90.536 9.066)">
        <g id="Grupo_926939" data-name="Grupo 926939" transform="translate(0)">
          <path id="Trazado_633732" data-name="Trazado 633732" d="M453.4,259.728a4.026,4.026,0,0,0,.259,1.422l1.871,4.957a.322.322,0,0,0,.6,0L458,261.149a4.028,4.028,0,0,0,.259-1.422v-1.763H453.4v1.763Z" transform="translate(-453.396 -225.493)" fill="#fff"/>
          <g id="Grupo_926938" data-name="Grupo 926938">
            <path id="Trazado_633733" data-name="Trazado 633733" d="M458.26,88.776V58.736a2.432,2.432,0,1,0-4.864,0V88.776Z" transform="translate(-453.396 -56.304)" fill="#fed402"/>
          </g>
        </g>
      </g>
      <g id="Grupo_926943" data-name="Grupo 926943" transform="translate(69.39 57.228)">
        <g id="Grupo_926941" data-name="Grupo 926941">
          <circle id="Elipse_4827" data-name="Elipse 4827" cx="12.003" cy="12.003" r="12.003" fill="#00c27a"/>
        </g>
        <g id="Grupo_926942" data-name="Grupo 926942" transform="translate(0 0)">
          <path id="Trazado_633734" data-name="Trazado 633734" d="M328.649,367.412a12.006,12.006,0,0,1,8.716-11.544,12,12,0,1,0,0,23.088A12.006,12.006,0,0,1,328.649,367.412Z" transform="translate(-322.074 -355.409)" fill="#09a755"/>
        </g>
      </g>
      <g id="Grupo_926948" data-name="Grupo 926948" transform="translate(22.102 1.208)">
        <g id="Grupo_926944" data-name="Grupo 926944" transform="translate(0)">
          <path id="Trazado_633735" data-name="Trazado 633735" d="M45.635,30.8H29.2A.805.805,0,0,1,28.394,30V8.305A.805.805,0,0,1,29.2,7.5H45.635a.805.805,0,0,1,.805.805V30A.805.805,0,0,1,45.635,30.8Z" transform="translate(-28.394 -7.5)" fill="#d8ecfe"/>
        </g>
        <g id="Grupo_926945" data-name="Grupo 926945" transform="translate(0 0)">
          <path id="Trazado_633736" data-name="Trazado 633736" d="M33.471,22.965V20.573a4.9,4.9,0,0,1,0-5.828V8.305a.805.805,0,0,1,.805-.805H29.2a.805.805,0,0,0-.805.805V30a.8.8,0,0,0,.113.406A9.946,9.946,0,0,1,33.471,22.965Z" transform="translate(-28.394 -7.5)" fill="#c4e2ff"/>
        </g>
        <path id="Trazado_633737" data-name="Trazado 633737" d="M39.908,98.682a4.918,4.918,0,0,1-3.8,0A9.621,9.621,0,0,0,29.1,106.9a.8.8,0,0,0,.692.4H46.225a.8.8,0,0,0,.692-.4,9.62,9.62,0,0,0-7.009-8.22Z" transform="translate(-28.984 -84)" fill="#26a6fe"/>
        <g id="Grupo_926946" data-name="Grupo 926946" transform="translate(0.113 14.681)">
          <path id="Trazado_633738" data-name="Trazado 633738" d="M38.007,99.06a4.89,4.89,0,0,1-1.9-.382A9.621,9.621,0,0,0,29.1,106.9a.8.8,0,0,0,.692.4h5.03a.8.8,0,0,1-.692-.4,9.716,9.716,0,0,1,6.4-8.05q-.3-.1-.612-.171A4.889,4.889,0,0,1,38.007,99.06Z" transform="translate(-29.097 -98.677)" fill="#0593fc"/>
        </g>
        <g id="Grupo_926947" data-name="Grupo 926947" transform="translate(4.118 5.253)">
          <circle id="Elipse_4828" data-name="Elipse 4828" cx="4.905" cy="4.905" r="4.905" fill="#26a6fe"/>
        </g>
      </g>
      <g id="Grupo_926949" data-name="Grupo 926949" transform="translate(38.532 56.473)">
        <path id="Trazado_633739" data-name="Trazado 633739" d="M138.567,357.544h-7.653a.483.483,0,0,1-.483-.483V351.2a.483.483,0,0,1,.483-.483h7.653a.483.483,0,0,1,.483.483v5.858A.483.483,0,0,1,138.567,357.544Z" transform="translate(-130.431 -350.72)" fill="#f6a96c"/>
      </g>
      <g id="Grupo_926950" data-name="Grupo 926950" transform="translate(20.894 0)">
        <path id="Trazado_633740" data-name="Trazado 633740" d="M451.969,67.112a1.208,1.208,0,0,0,1.208-1.208V52.445a3.64,3.64,0,0,0-7.28,0v31.8a5.214,5.214,0,0,0,.337,1.848l1.872,4.957a1.53,1.53,0,0,0,2.862,0l1.871-4.957a5.215,5.215,0,0,0,.337-1.848V71.54a1.208,1.208,0,0,0-2.415,0v9.736h-2.449V52.445a1.224,1.224,0,0,1,2.449,0V65.9A1.207,1.207,0,0,0,451.969,67.112Zm-1.208,16.58v.555a2.806,2.806,0,0,1-.182,1L449.537,88l-1.043-2.762a2.807,2.807,0,0,1-.182-1v-.555Z" transform="translate(-377.463 -40.946)"/>
        <path id="Trazado_633741" data-name="Trazado 633741" d="M93.395,70.471a1.208,1.208,0,0,0-1.426.941,10.8,10.8,0,1,1-.175-5.071,1.208,1.208,0,1,0,2.328-.645,13.242,13.242,0,0,0-7.946-8.773V9.871a2.015,2.015,0,0,0-2.013-2.013h-3V4.831a2.015,2.015,0,0,0-2.013-2.013H41.356V2.013A2.015,2.015,0,0,0,39.343,0H22.907a2.015,2.015,0,0,0-2.013,2.013V23.7a2.015,2.015,0,0,0,2.013,2.013h2.11V71.278a2.015,2.015,0,0,0,2.013,2.013h3v3.028a2.015,2.015,0,0,0,2.013,2.013H71.83A13.2,13.2,0,0,0,94.335,71.9,1.208,1.208,0,0,0,93.395,70.471ZM23.309,2.415H38.94V18.435a10.728,10.728,0,0,0-1.083-1.212,10.141,10.141,0,0,0-2.3-1.655,6.113,6.113,0,1,0-8.869,0,10.141,10.141,0,0,0-2.3,1.655,10.742,10.742,0,0,0-1.083,1.212Zm11.513,8.951a3.7,3.7,0,1,1-3.7-3.7A3.7,3.7,0,0,1,34.823,11.367ZM30.033,70.876h-2.6V25.717h2.6ZM23.6,23.3a8.412,8.412,0,0,1,5.571-6.144,6.086,6.086,0,0,0,3.906,0A8.412,8.412,0,0,1,38.648,23.3Zm8.848,52.614v-50.2h6.894A2.015,2.015,0,0,0,41.355,23.7V10.274H44.9a1.208,1.208,0,0,0,0-2.415H41.356V5.233H78.745V7.859H50.539a1.208,1.208,0,1,0,0,2.415H83.761V56.238A13.2,13.2,0,0,0,70.005,75.916Z" transform="translate(-20.894 0)"/>
        <path id="Trazado_633742" data-name="Trazado 633742" d="M364.292,400.492l-6.562,6.563-3.692-3.692a1.208,1.208,0,0,0-1.708,1.708l4.545,4.545a1.208,1.208,0,0,0,1.708,0L366,402.2a1.208,1.208,0,1,0-1.708-1.708Z" transform="translate(-298.665 -335.708)"/>
        <path id="Trazado_633743" data-name="Trazado 633743" d="M139.941,419.054h-15.8a1.208,1.208,0,1,0,0,2.415h15.8a1.208,1.208,0,1,0,0-2.415Z" transform="translate(-106.501 -351.578)"/>
        <path id="Trazado_633744" data-name="Trazado 633744" d="M124.622,352.459h7.653a1.693,1.693,0,0,0,1.691-1.691v-5.858a1.693,1.693,0,0,0-1.691-1.691h-7.653a1.693,1.693,0,0,0-1.691,1.691v5.858A1.693,1.693,0,0,0,124.622,352.459Zm.725-6.824h6.2v4.408h-6.2Z" transform="translate(-106.501 -287.954)"/>
        <path id="Trazado_633745" data-name="Trazado 633745" d="M208.895,109.211h11.852a1.208,1.208,0,0,0,0-2.415H208.895a1.208,1.208,0,0,0,0,2.415Z" transform="translate(-177.609 -89.6)"/>
        <path id="Trazado_633746" data-name="Trazado 633746" d="M183.245,147.128h20.112a1.208,1.208,0,1,0,0-2.415H183.245a1.208,1.208,0,1,0,0,2.415Z" transform="translate(-156.09 -121.411)"/>
        <path id="Trazado_633747" data-name="Trazado 633747" d="M124.139,211.81h39.147a1.208,1.208,0,1,0,0-2.415H124.139a1.208,1.208,0,1,0,0,2.415Z" transform="translate(-106.501 -175.678)"/>
        <path id="Trazado_633748" data-name="Trazado 633748" d="M124.139,249.727h39.147a1.208,1.208,0,1,0,0-2.415H124.139a1.208,1.208,0,1,0,0,2.415Z" transform="translate(-106.501 -207.49)"/>
        <path id="Trazado_633749" data-name="Trazado 633749" d="M124.139,287.644h39.147a1.208,1.208,0,1,0,0-2.415H124.139a1.208,1.208,0,1,0,0,2.415Z" transform="translate(-106.501 -239.301)"/>
      </g>
    </g>
  </g>
</svg>
