<svg id="Layer_49" xmlns="http://www.w3.org/2000/svg" width="93.476" height="93.476" viewBox="0 0 93.476 93.476">
  <g id="Grupo_926754" data-name="Grupo 926754" transform="translate(0 0)">
    <g id="Grupo_926690" data-name="Grupo 926690" transform="translate(0.913 12.262)">
      <path id="Trazado_633248" data-name="Trazado 633248" d="M46.023,74.284a1.1,1.1,0,0,1-.938-1.665l7.049-11.625H50.467a1.1,1.1,0,0,1-.938-1.665L56,48.663H53.772A1.1,1.1,0,0,1,52.834,47L54.4,44.41l-6.073-8.876a4.487,4.487,0,0,0-7.547.218L30.017,53.622a4.993,4.993,0,0,1,3.195,2.255.964.964,0,0,0,.734.449,3.591,3.591,0,0,1,3.242,3.638,3.643,3.643,0,0,1-3.67,3.528H13.995a9.25,9.25,0,0,0-3.665,2.326l-6.277,6.5A5.533,5.533,0,0,0,2.5,76.163v8.873H12.854V80.7a6.664,6.664,0,0,1,5.69-6.571h0a6.87,6.87,0,0,1,.958-.077H36.687a6.912,6.912,0,0,1,.958.077h0a6.264,6.264,0,0,1,2.2.728A6.665,6.665,0,0,1,43.335,80.7v1.525h0v2.809h13.9V74.284H46.023Z" transform="translate(-2.5 -33.581)" fill="#818182"/>
    </g>
    <g id="Grupo_926691" data-name="Grupo 926691" transform="translate(75.01 26.056)">
      <path id="Trazado_633249" data-name="Trazado 633249" d="M210.351,71.781l-4.792,7.9a.878.878,0,0,0,.751,1.334h9.585a.878.878,0,0,0,.751-1.334l-4.792-7.9a.879.879,0,0,0-1.5,0Z" transform="translate(-205.43 -71.358)" fill="#b2e26d"/>
    </g>
    <g id="Grupo_926692" data-name="Grupo 926692" transform="translate(68.803 45.594)">
      <path id="Trazado_633250" data-name="Trazado 633250" d="M212.061,134.18l-5.646-9.312H194.2l-5.646,9.312a.878.878,0,0,0,.751,1.334h22A.878.878,0,0,0,212.061,134.18Z" transform="translate(-188.43 -124.868)" fill="#57af12"/>
    </g>
    <g id="Grupo_926693" data-name="Grupo 926693" transform="translate(72.363 35.716)">
      <path id="Trazado_633251" data-name="Trazado 633251" d="M214.69,106.359l-5.181-8.544h-6.021l-5.181,8.544a.878.878,0,0,0,.751,1.334h14.881A.878.878,0,0,0,214.69,106.359Z" transform="translate(-198.179 -97.815)" fill="#87d147"/>
    </g>
    <g id="Grupo_926694" data-name="Grupo 926694" transform="translate(51.087 15.285)">
      <path id="Trazado_633252" data-name="Trazado 633252" d="M146.053,42.388l-5.983,9.866a1.1,1.1,0,0,0,.938,1.665h11.966a1.1,1.1,0,0,0,.938-1.665l-5.983-9.866a1.1,1.1,0,0,0-1.875,0Z" transform="translate(-139.91 -41.86)" fill="#b2e26d"/>
    </g>
    <g id="Grupo_926695" data-name="Grupo 926695" transform="translate(47.782 27.345)">
      <path id="Trazado_633253" data-name="Trazado 633253" d="M151.471,85.554,145,74.888h-7.516L131.02,85.554a1.1,1.1,0,0,0,.938,1.665h18.576A1.1,1.1,0,0,0,151.471,85.554Z" transform="translate(-130.859 -74.888)" fill="#87d147"/>
    </g>
    <g id="Grupo_926696" data-name="Grupo 926696" transform="translate(43.338 39.676)">
      <path id="Trazado_633254" data-name="Trazado 633254" d="M147.328,118.866l-6.189-10.207H125.9l-7.049,11.625a1.1,1.1,0,0,0,.938,1.665h25.673Z" transform="translate(-118.688 -108.659)" fill="#57af12"/>
    </g>
    <g id="Grupo_926698" data-name="Grupo 926698" transform="translate(44.194 69.194)">
      <g id="Grupo_926697" data-name="Grupo 926697">
        <path id="Trazado_633255" data-name="Trazado 633255" d="M159.287,189.5a7.686,7.686,0,0,0-6.068,2.968l-.5.638a7.686,7.686,0,0,1-6.067,2.967H136.367a7.686,7.686,0,0,0-6.149,3.075l-.865,1.153a7.685,7.685,0,0,1-5.887,3.067v7.07a2.438,2.438,0,0,1-2.431,2.431h46.913a1.455,1.455,0,0,0,1.455-1.455V189.5Z" transform="translate(-121.034 -189.5)" fill="#c18e6b"/>
      </g>
    </g>
    <g id="Grupo_926699" data-name="Grupo 926699" transform="translate(78.667 56.24)">
      <path id="Trazado_633256" data-name="Trazado 633256" d="M219.225,166.978h.251V154.024h-4.031v13.948A7.686,7.686,0,0,1,219.225,166.978Z" transform="translate(-215.445 -154.024)" fill="#a57453"/>
    </g>
    <g id="Grupo_926700" data-name="Grupo 926700" transform="translate(55.652 52.965)">
      <path id="Trazado_633257" data-name="Trazado 633257" d="M156.288,167.856h1.156v-22.8h-5.032v23.851A7.682,7.682,0,0,1,156.288,167.856Z" transform="translate(-152.413 -145.055)" fill="#a57453"/>
    </g>
    <g id="Grupo_926701" data-name="Grupo 926701" transform="translate(60.684 63.717)">
      <path id="Trazado_633258" data-name="Trazado 633258" d="M166.193,174.5v12.05h9.132a7.686,7.686,0,0,0,6.067-2.967l.5-.638a7.677,7.677,0,0,1,2.288-1.974V174.5Z" transform="translate(-166.193 -174.5)" fill="#87d147"/>
    </g>
    <g id="Grupo_926702" data-name="Grupo 926702" transform="translate(41.748 63.717)">
      <path id="Trazado_633259" data-name="Trazado 633259" d="M114.335,174.5v16.247h2.446a2.438,2.438,0,0,1,2.431,2.431v.662a7.806,7.806,0,0,0,5.887-3.062l.865-1.153a7.672,7.672,0,0,1,2.274-2.025V174.5Z" transform="translate(-114.335 -174.5)" fill="#87d147"/>
    </g>
    <g id="Grupo_926703" data-name="Grupo 926703" transform="translate(41.261 62.804)">
      <path id="Trazado_633260" data-name="Trazado 633260" d="M126.967,173.826H113.913a.913.913,0,0,1,0-1.826h13.054a.913.913,0,0,1,0,1.826Z" transform="translate(-113 -172)"/>
    </g>
    <g id="Grupo_926704" data-name="Grupo 926704" transform="translate(0.913 63.717)">
      <path id="Trazado_633261" data-name="Trazado 633261" d="M2.5,174.5v27.391a1.455,1.455,0,0,0,1.455,1.455h6.453a2.438,2.438,0,0,1-2.431-2.431v-7.737a2.438,2.438,0,0,1,2.431-2.431h2.446V174.5Z" transform="translate(-2.5 -174.5)" fill="#87d147"/>
    </g>
    <g id="Grupo_926705" data-name="Grupo 926705" transform="translate(82.698 63.717)">
      <path id="Trazado_633262" data-name="Trazado 633262" d="M226.484,174.5v5.477h9.865v-4.022a1.455,1.455,0,0,0-1.455-1.455Z" transform="translate(-226.484 -174.5)" fill="#87d147"/>
    </g>
    <g id="Grupo_926706" data-name="Grupo 926706" transform="translate(11.267 52.734)">
      <path id="Trazado_633263" data-name="Trazado 633263" d="M56.1,184.251h-20a5.254,5.254,0,0,1-5.239-5.239V151.07a6.668,6.668,0,0,1,6.648-6.648H54.69a6.668,6.668,0,0,1,6.648,6.648v27.942A5.254,5.254,0,0,1,56.1,184.251Z" transform="translate(-30.857 -144.422)" fill="#f5c84c"/>
    </g>
    <g id="Grupo_926707" data-name="Grupo 926707" transform="translate(6.39 79.964)">
      <path id="Trazado_633264" data-name="Trazado 633264" d="M22.377,226.356V219H19.931a2.438,2.438,0,0,0-2.431,2.431v7.737a2.438,2.438,0,0,0,2.431,2.431h7.685a5.254,5.254,0,0,1-5.239-5.239Z" transform="translate(-17.5 -218.996)" fill="#fc657e"/>
    </g>
    <g id="Grupo_926708" data-name="Grupo 926708" transform="translate(36.51 79.964)">
      <path id="Trazado_633265" data-name="Trazado 633265" d="M107.673,219h-2.446v7.36a5.254,5.254,0,0,1-5.239,5.239h7.685a2.438,2.438,0,0,0,2.431-2.431v-7.737A2.439,2.439,0,0,0,107.673,219Z" transform="translate(-99.988 -218.996)" fill="#fc657e"/>
    </g>
    <g id="Grupo_926709" data-name="Grupo 926709" transform="translate(60.683 52.965)">
      <path id="Trazado_633266" data-name="Trazado 633266" d="M184.176,148.33h-8.985A.878.878,0,0,1,174.44,147l1.177-1.941h-9.425v10.751h17.984V148.33Z" transform="translate(-166.192 -145.055)" fill="#818182"/>
    </g>
    <g id="Grupo_926710" data-name="Grupo 926710" transform="translate(7.153 27.95)">
      <path id="Trazado_633267" data-name="Trazado 633267" d="M44.062,83.154a4.994,4.994,0,0,0-4.821-2.338.953.953,0,0,1-.948-.508,7.112,7.112,0,0,0-13.017,1.085.937.937,0,0,1-.973.622,4.387,4.387,0,0,0-4.713,4.316,4.462,4.462,0,0,0,4.473,4.437h20.3a3.643,3.643,0,0,0,3.67-3.528A3.591,3.591,0,0,0,44.8,83.6.965.965,0,0,1,44.062,83.154Z" transform="translate(-19.591 -76.546)" fill="#9be5f9"/>
    </g>
    <g id="Grupo_926711" data-name="Grupo 926711" transform="translate(11.267 52.734)">
      <path id="Trazado_633268" data-name="Trazado 633268" d="M54.69,144.422H37.505a6.668,6.668,0,0,0-6.648,6.648v1.525a5.254,5.254,0,0,0,5.239,5.239h20a5.254,5.254,0,0,0,5.239-5.239V151.07A6.668,6.668,0,0,0,54.69,144.422Z" transform="translate(-30.857 -144.422)" fill="#fcdd86"/>
    </g>
    <g id="Grupo_926712" data-name="Grupo 926712" transform="translate(17.643 75.494)">
      <path id="Trazado_633269" data-name="Trazado 633269" d="M63.8,219.352H50.566a2.254,2.254,0,0,1-2.247-2.247V209a2.254,2.254,0,0,1,2.247-2.247H63.8A2.253,2.253,0,0,1,66.048,209v8.1A2.254,2.254,0,0,1,63.8,219.352Z" transform="translate(-48.319 -206.753)" fill="#fc657e"/>
    </g>
    <g id="Grupo_926713" data-name="Grupo 926713" transform="translate(31.587 52.734)">
      <path id="Trazado_633270" data-name="Trazado 633270" d="M90.979,144.5a6.589,6.589,0,0,0-.958-.078H86.508v13.412h4.47V144.5Z" transform="translate(-86.508 -144.422)" fill="#fc657e"/>
    </g>
    <g id="Grupo_926714" data-name="Grupo 926714" transform="translate(16.957 52.734)">
      <path id="Trazado_633271" data-name="Trazado 633271" d="M46.439,144.5v13.334h4.47V144.423H47.4a6.535,6.535,0,0,0-.958.077Z" transform="translate(-46.439 -144.423)" fill="#fc657e"/>
    </g>
    <g id="Grupo_926715" data-name="Grupo 926715" transform="translate(17.643 75.493)">
      <path id="Trazado_633272" data-name="Trazado 633272" d="M63.8,206.752H50.566A2.254,2.254,0,0,0,48.319,209v2.223H66.048V209A2.254,2.254,0,0,0,63.8,206.752Z" transform="translate(-48.319 -206.752)" fill="#f98fa6"/>
    </g>
    <g id="Grupo_926716" data-name="Grupo 926716" transform="translate(33.043 12.262)">
      <path id="Trazado_633273" data-name="Trazado 633273" d="M108.7,47l1.569-2.588-6.073-8.876a4.487,4.487,0,0,0-7.547.218L90.493,45.966h4.632a2.523,2.523,0,0,1,1.97.947L98.5,48.671a2.522,2.522,0,0,0,1.97.947H103.2a2.523,2.523,0,0,1,1.922.889l3.278,3.857,3.456-5.7h-2.225A1.1,1.1,0,0,1,108.7,47Z" transform="translate(-90.493 -33.581)" fill="#dae6f1"/>
    </g>
    <g id="Grupo_926717" data-name="Grupo 926717" transform="translate(48.65)">
      <path id="Trazado_633274" data-name="Trazado 633274" d="M137.9,2.255A2.846,2.846,0,0,1,135.639.027c0-.037-.11-.037-.11,0a2.846,2.846,0,0,1-2.264,2.227c-.036,0-.036.073,0,.11a2.846,2.846,0,0,1,2.264,2.227c0,.037.11.037.11,0A2.846,2.846,0,0,1,137.9,2.364c.037-.037.037-.11,0-.11Z" transform="translate(-133.238 0)" fill="#fc657e"/>
    </g>
    <g id="Grupo_926718" data-name="Grupo 926718" transform="translate(75.514 10.443)">
      <path id="Trazado_633275" data-name="Trazado 633275" d="M207.978,32.945h.84v.84a1.154,1.154,0,0,0,1.168,1.168,1.17,1.17,0,0,0,1.168-1.132v-.876h.84a1.154,1.154,0,0,0,1.168-1.168,1.17,1.17,0,0,0-1.132-1.168h-.876v-.84a1.153,1.153,0,0,0-1.168-1.168,1.17,1.17,0,0,0-1.168,1.132v.876h-.84a1.153,1.153,0,0,0-1.168,1.168,1.131,1.131,0,0,0,1.168,1.168Z" transform="translate(-206.808 -28.6)" fill="#70d6f9"/>
    </g>
    <g id="Grupo_926719" data-name="Grupo 926719" transform="translate(16.436 12.232)">
      <circle id="Elipse_4809" data-name="Elipse 4809" cx="1.241" cy="1.241" r="1.241" fill="#87d147"/>
    </g>
    <g id="Grupo_926720" data-name="Grupo 926720" transform="translate(86.543 21.543)">
      <circle id="Elipse_4810" data-name="Elipse 4810" cx="1.241" cy="1.241" r="1.241" fill="#f5c84c"/>
    </g>
    <g id="Grupo_926721" data-name="Grupo 926721" transform="translate(3.893 20.576)">
      <path id="Trazado_633276" data-name="Trazado 633276" d="M10.718,59.581a4.052,4.052,0,0,0,3.25-3.177c0-.073.146-.073.146,0a4.052,4.052,0,0,0,3.25,3.177c.073,0,.073.11,0,.146a4.052,4.052,0,0,0-3.25,3.177c0,.073-.146.073-.146,0a4.052,4.052,0,0,0-3.25-3.177C10.645,59.691,10.645,59.581,10.718,59.581Z" transform="translate(-10.663 -56.35)" fill="#f5c84c"/>
    </g>
    <g id="Grupo_926722" data-name="Grupo 926722" transform="translate(74.099 25.143)">
      <path id="Trazado_633277" data-name="Trazado 633277" d="M214.311,80.344h-9.585a1.791,1.791,0,0,1-1.531-2.72l4.792-7.9a1.791,1.791,0,0,1,3.063,0l4.792,7.9a1.791,1.791,0,0,1-1.531,2.72Zm-9.524-1.826h9.463l-4.731-7.8Zm3.98-8.324h0Z" transform="translate(-202.935 -68.858)"/>
    </g>
    <g id="Grupo_926723" data-name="Grupo 926723" transform="translate(67.892 45.035)">
      <path id="Trazado_633278" data-name="Trazado 633278" d="M209.725,135.455h-22a1.791,1.791,0,0,1-1.531-2.72l5.432-8.958a.913.913,0,0,1,1.561.947l-5.4,8.906h21.878l-5.387-8.883a.913.913,0,0,1,1.561-.947l5.418,8.935a1.792,1.792,0,0,1-1.532,2.72Z" transform="translate(-185.934 -123.337)"/>
    </g>
    <g id="Grupo_926724" data-name="Grupo 926724" transform="translate(71.452 35.073)">
      <path id="Trazado_633279" data-name="Trazado 633279" d="M212.355,107.488h-14.88a1.792,1.792,0,0,1-1.532-2.72l5.017-8.275a.913.913,0,0,1,1.561.947l-4.986,8.222h14.759l-4.976-8.205a.913.913,0,0,1,1.561-.947l5.008,8.258a1.791,1.791,0,0,1-1.533,2.72Z" transform="translate(-195.684 -96.054)"/>
    </g>
    <g id="Grupo_926725" data-name="Grupo 926725" transform="translate(50.172 14.373)">
      <path id="Trazado_633280" data-name="Trazado 633280" d="M151.384,53.247H139.418A2.009,2.009,0,0,1,137.7,50.2l5.983-9.866a2,2,0,0,1,1.718-.967h0a1.994,1.994,0,0,1,1.718.968L153.1,50.2a2.009,2.009,0,0,1-1.718,3.051Zm-6.14-11.971-5.983,9.866a.184.184,0,0,0,.157.279h11.966a.184.184,0,0,0,.157-.279l-5.983-9.866a.183.183,0,0,0-.314,0Z" transform="translate(-137.405 -39.362)"/>
    </g>
    <g id="Grupo_926726" data-name="Grupo 926726" transform="translate(46.866 26.745)">
      <path id="Trazado_633281" data-name="Trazado 633281" d="M148.941,87.089H130.366a2.009,2.009,0,0,1-1.718-3.051l6.278-10.353a.913.913,0,0,1,1.561.947l-6.278,10.353a.184.184,0,0,0,.157.279h18.576a.184.184,0,0,0,.157-.279l-6.245-10.3a.913.913,0,0,1,1.561-.947l6.245,10.3a2.009,2.009,0,0,1-1.718,3.051Z" transform="translate(-128.352 -73.245)"/>
    </g>
    <g id="Grupo_926727" data-name="Grupo 926727" transform="translate(65.052 39.055)">
      <path id="Trazado_633282" data-name="Trazado 633282" d="M184.966,118.506a.913.913,0,0,1-.781-.44l-5.9-9.721a.913.913,0,0,1,1.561-.947l5.9,9.721a.913.913,0,0,1-.78,1.386Z" transform="translate(-178.157 -106.958)"/>
    </g>
    <g id="Grupo_926728" data-name="Grupo 926728" transform="translate(42.423 39.061)">
      <path id="Trazado_633283" data-name="Trazado 633283" d="M143.622,121.793H118.195a2.009,2.009,0,0,1-1.718-3.051l6.868-11.327a.913.913,0,0,1,1.561.947l-6.868,11.327a.184.184,0,0,0,.157.279h25.428a.913.913,0,1,1,0,1.825Z" transform="translate(-116.182 -106.976)"/>
    </g>
    <g id="Grupo_926730" data-name="Grupo 926730" transform="translate(43.281 68.281)">
      <g id="Grupo_926729" data-name="Grupo 926729">
        <path id="Trazado_633284" data-name="Trazado 633284" d="M166.36,212.194H119.446a.913.913,0,1,1,0-1.826H166.36a.543.543,0,0,0,.542-.542v-21h-9.2a6.729,6.729,0,0,0-5.347,2.615l-.5.638a8.545,8.545,0,0,1-6.788,3.32H134.778a6.805,6.805,0,0,0-5.419,2.71l-.865,1.153a8.588,8.588,0,0,1-6.317,3.418.913.913,0,1,1-.119-1.822,6.763,6.763,0,0,0,4.975-2.692l.865-1.153a8.64,8.64,0,0,1,6.88-3.44h10.289a6.73,6.73,0,0,0,5.347-2.615l.5-.638A8.544,8.544,0,0,1,157.7,187h10.116a.913.913,0,0,1,.913.913v21.914A2.371,2.371,0,0,1,166.36,212.194Z" transform="translate(-118.533 -186.999)"/>
      </g>
    </g>
    <g id="Grupo_926731" data-name="Grupo 926731" transform="translate(77.755 55.844)">
      <path id="Trazado_633285" data-name="Trazado 633285" d="M213.858,167.9a.913.913,0,0,1-.913-.913V153.851a.913.913,0,0,1,1.826,0v13.133A.913.913,0,0,1,213.858,167.9Z" transform="translate(-212.945 -152.938)"/>
    </g>
    <g id="Grupo_926732" data-name="Grupo 926732" transform="translate(81.785 55.844)">
      <path id="Trazado_633286" data-name="Trazado 633286" d="M224.9,166.859a.913.913,0,0,1-.913-.913v-12.1a.913.913,0,1,1,1.826,0v12.1A.913.913,0,0,1,224.9,166.859Z" transform="translate(-223.983 -152.938)"/>
    </g>
    <g id="Grupo_926733" data-name="Grupo 926733" transform="translate(59.771 52.55)">
      <path id="Trazado_633287" data-name="Trazado 633287" d="M164.606,167.773a.913.913,0,0,1-.913-.913v-22.03a.913.913,0,1,1,1.826,0v22.03A.913.913,0,0,1,164.606,167.773Z" transform="translate(-163.693 -143.918)"/>
    </g>
    <g id="Grupo_926734" data-name="Grupo 926734" transform="translate(54.739 52.489)">
      <path id="Trazado_633288" data-name="Trazado 633288" d="M150.826,168.777a.913.913,0,0,1-.913-.913v-23.2a.913.913,0,0,1,1.826,0v23.2a.913.913,0,0,1-.913.913Z" transform="translate(-149.913 -143.75)"/>
    </g>
    <g id="Grupo_926735" data-name="Grupo 926735" transform="translate(0 62.804)">
      <path id="Trazado_633289" data-name="Trazado 633289" d="M8.821,202.672H2.368A2.37,2.37,0,0,1,0,200.3V172.913A.913.913,0,0,1,.913,172H10.939a.913.913,0,0,1,0,1.826H1.826V200.3a.543.543,0,0,0,.542.542H8.821a.913.913,0,0,1,0,1.826Z" transform="translate(0 -172)"/>
    </g>
    <g id="Grupo_926736" data-name="Grupo 926736" transform="translate(82.278 62.804)">
      <path id="Trazado_633290" data-name="Trazado 633290" d="M235.618,179.3a.913.913,0,0,1-.913-.913v-4.022a.543.543,0,0,0-.542-.542h-7.917a.913.913,0,0,1,0-1.826h7.917a2.37,2.37,0,0,1,2.368,2.368v4.022A.913.913,0,0,1,235.618,179.3Z" transform="translate(-225.333 -172)"/>
    </g>
    <g id="Grupo_926737" data-name="Grupo 926737" transform="translate(10.354 51.821)">
      <path id="Trazado_633291" data-name="Trazado 633291" d="M54.511,183.576h-20a6.159,6.159,0,0,1-6.152-6.152V149.483a7.569,7.569,0,0,1,7.561-7.561H53.1a7.569,7.569,0,0,1,7.561,7.561v27.942A6.158,6.158,0,0,1,54.511,183.576ZM35.917,143.748a5.742,5.742,0,0,0-5.735,5.735v27.942a4.331,4.331,0,0,0,4.326,4.326h20a4.331,4.331,0,0,0,4.326-4.326V149.483a5.742,5.742,0,0,0-5.735-5.735Z" transform="translate(-28.356 -141.922)"/>
    </g>
    <g id="Grupo_926738" data-name="Grupo 926738" transform="translate(21.325 70.11)">
      <path id="Trazado_633292" data-name="Trazado 633292" d="M67.855,193.835H59.316a.913.913,0,1,1,0-1.826h8.539a.913.913,0,1,1,0,1.826Z" transform="translate(-58.403 -192.009)"/>
    </g>
    <g id="Grupo_926739" data-name="Grupo 926739" transform="translate(5.477 79.051)">
      <path id="Trazado_633293" data-name="Trazado 633293" d="M26.029,230.92H18.344A3.348,3.348,0,0,1,15,227.576v-7.737a3.348,3.348,0,0,1,3.344-3.344h2.179a.913.913,0,1,1,0,1.826H18.344a1.52,1.52,0,0,0-1.518,1.518v7.737a1.52,1.52,0,0,0,1.518,1.518h7.685a.913.913,0,0,1,0,1.826Z" transform="translate(-15 -216.495)"/>
    </g>
    <g id="Grupo_926740" data-name="Grupo 926740" transform="translate(35.596 79.051)">
      <path id="Trazado_633294" data-name="Trazado 633294" d="M106.085,230.92H98.4a.913.913,0,0,1,0-1.826h7.685a1.52,1.52,0,0,0,1.518-1.518v-7.737a1.52,1.52,0,0,0-1.518-1.518h-2.051a.913.913,0,1,1,0-1.826h2.051a3.348,3.348,0,0,1,3.344,3.344v7.737A3.348,3.348,0,0,1,106.085,230.92Z" transform="translate(-97.487 -216.495)"/>
    </g>
    <g id="Grupo_926741" data-name="Grupo 926741" transform="translate(20.461 46.944)">
      <path id="Trazado_633295" data-name="Trazado 633295" d="M67.217,135.268H56.95a.913.913,0,0,1-.911-.961,6.053,6.053,0,0,1,12.09,0,.913.913,0,0,1-.912.961Zm-9.193-1.826h8.12a4.227,4.227,0,0,0-8.12,0Z" transform="translate(-56.038 -128.565)"/>
    </g>
    <g id="Grupo_926742" data-name="Grupo 926742" transform="translate(60.248 62.804)">
      <path id="Trazado_633296" data-name="Trazado 633296" d="M182.953,173.826h-17.04a.913.913,0,0,1,0-1.826h17.04a.913.913,0,0,1,0,1.826Z" transform="translate(-165 -172)"/>
    </g>
    <g id="Grupo_926743" data-name="Grupo 926743" transform="translate(0 41.297)">
      <path id="Trazado_633297" data-name="Trazado 633297" d="M.913,136.432A.913.913,0,0,1,0,135.519v-8.873a6.415,6.415,0,0,1,1.808-4.477l6.277-6.5A10.22,10.22,0,0,1,12,113.152a.913.913,0,0,1,.611,1.721A8.385,8.385,0,0,0,9.4,116.936l-6.277,6.5a4.6,4.6,0,0,0-1.3,3.208v8.873a.913.913,0,0,1-.913.913Z" transform="translate(0 -113.099)"/>
    </g>
    <g id="Grupo_926744" data-name="Grupo 926744" transform="translate(27.608 11.349)">
      <path id="Trazado_633298" data-name="Trazado 633298" d="M76.521,52.8a.913.913,0,0,1-.781-1.384L86.416,33.7a5.4,5.4,0,0,1,9.082-.263L101.43,42.1a.913.913,0,1,1-1.507,1.031l-5.932-8.669a3.575,3.575,0,0,0-6.012.173L77.3,52.355a.913.913,0,0,1-.783.442Z" transform="translate(-75.609 -31.082)"/>
    </g>
    <g id="Grupo_926745" data-name="Grupo 926745" transform="translate(6.241 27.037)">
      <path id="Trazado_633299" data-name="Trazado 633299" d="M42.781,90.095h-20.3a5.46,5.46,0,0,1-3.857-1.619,5.24,5.24,0,0,1,.191-7.582,5.31,5.31,0,0,1,3.976-1.376.063.063,0,0,0,.04-.008A8.024,8.024,0,0,1,37.511,78.29a.059.059,0,0,0,.037.031,5.925,5.925,0,0,1,5.7,2.765.059.059,0,0,0,.044.02,4.505,4.505,0,0,1-.514,8.989Zm-20.4-8.767a3.485,3.485,0,0,0-2.341.913,3.43,3.43,0,0,0-1.126,2.514,3.392,3.392,0,0,0,1,2.437,3.621,3.621,0,0,0,2.557,1.076h20.3a2.732,2.732,0,0,0,2.756-2.631,2.689,2.689,0,0,0-2.416-2.714,1.863,1.863,0,0,1-1.423-.878h0a4.092,4.092,0,0,0-3.939-1.91,1.857,1.857,0,0,1-1.857-.984,6.2,6.2,0,0,0-11.347.945,1.847,1.847,0,0,1-1.909,1.242c-.087-.007-.175-.01-.261-.01Z" transform="translate(-17.091 -74.045)"/>
    </g>
    <g id="Grupo_926746" data-name="Grupo 926746" transform="translate(10.354 59.994)">
      <path id="Trazado_633300" data-name="Trazado 633300" d="M54.511,171.369h-20a6.159,6.159,0,0,1-6.152-6.152.913.913,0,1,1,1.826,0,4.331,4.331,0,0,0,4.326,4.326h20a4.331,4.331,0,0,0,4.326-4.326.913.913,0,1,1,1.826,0A6.159,6.159,0,0,1,54.511,171.369Z" transform="translate(-28.356 -164.304)"/>
    </g>
    <g id="Grupo_926747" data-name="Grupo 926747" transform="translate(16.73 74.58)">
      <path id="Trazado_633301" data-name="Trazado 633301" d="M62.214,218.676H48.979a3.163,3.163,0,0,1-3.16-3.16v-8.1a3.163,3.163,0,0,1,3.16-3.16H62.214a3.163,3.163,0,0,1,3.16,3.16v8.1A3.163,3.163,0,0,1,62.214,218.676Zm-13.235-12.6a1.336,1.336,0,0,0-1.334,1.334v8.1a1.336,1.336,0,0,0,1.334,1.334H62.214a1.335,1.335,0,0,0,1.334-1.334v-8.1a1.336,1.336,0,0,0-1.334-1.334Z" transform="translate(-45.819 -204.252)"/>
    </g>
    <g id="Grupo_926748" data-name="Grupo 926748" transform="translate(35.145 52.336)">
      <path id="Trazado_633302" data-name="Trazado 633302" d="M97.165,157.665a.913.913,0,0,1-.913-.913V144.246a.913.913,0,1,1,1.826,0v12.506A.913.913,0,0,1,97.165,157.665Z" transform="translate(-96.252 -143.333)"/>
    </g>
    <g id="Grupo_926749" data-name="Grupo 926749" transform="translate(30.675 52.336)">
      <path id="Trazado_633303" data-name="Trazado 633303" d="M84.922,157.665a.913.913,0,0,1-.913-.913V144.246a.913.913,0,1,1,1.826,0v12.506A.913.913,0,0,1,84.922,157.665Z" transform="translate(-84.009 -143.333)"/>
    </g>
    <g id="Grupo_926750" data-name="Grupo 926750" transform="translate(20.515 52.367)">
      <path id="Trazado_633304" data-name="Trazado 633304" d="M57.1,157.718a.913.913,0,0,1-.913-.913V144.33a.913.913,0,0,1,1.826,0v12.475A.913.913,0,0,1,57.1,157.718Z" transform="translate(-56.183 -143.417)"/>
    </g>
    <g id="Grupo_926751" data-name="Grupo 926751" transform="translate(16.044 52.336)">
      <path id="Trazado_633305" data-name="Trazado 633305" d="M44.852,157.665a.913.913,0,0,1-.913-.913V144.246a.913.913,0,1,1,1.826,0v12.506A.913.913,0,0,1,44.852,157.665Z" transform="translate(-43.939 -143.333)"/>
    </g>
    <g id="Grupo_926752" data-name="Grupo 926752" transform="translate(17.177 79.051)">
      <path id="Trazado_633306" data-name="Trazado 633306" d="M64.8,218.322H47.955a.913.913,0,1,1,0-1.826H64.8a.913.913,0,0,1,0,1.826Z" transform="translate(-47.042 -216.496)"/>
    </g>
    <g id="Grupo_926753" data-name="Grupo 926753" transform="translate(32.269 23.734)">
      <path id="Trazado_633307" data-name="Trazado 633307" d="M106.93,75.069a.911.911,0,0,1-.7-.322l-3.147-3.7a1.607,1.607,0,0,0-1.226-.567H99.127a3.418,3.418,0,0,1-2.683-1.289L95.038,67.43a1.6,1.6,0,0,0-1.257-.6H89.288a.913.913,0,1,1,0-1.826h4.493a3.418,3.418,0,0,1,2.683,1.289l1.407,1.758a1.6,1.6,0,0,0,1.257.6h2.733a3.429,3.429,0,0,1,2.617,1.21l3.148,3.7a.913.913,0,0,1-.7,1.5Z" transform="translate(-88.375 -65)"/>
    </g>
  </g>
</svg>
