<svg xmlns="http://www.w3.org/2000/svg" width="692.135" height="429.173" viewBox="0 0 692.135 429.173">
  <g id="Grupo_926864" data-name="Grupo 926864" transform="translate(0 0)">
    <path id="Trazado_633550" data-name="Trazado 633550" d="M800.529,866.523c2.806,21.364-3.647,42.81-11.218,62.984-1.233,3.285-2.5,6.928-1.251,10.2,1.1,2.87,3.887,4.722,6.674,6.015,8.005,3.711,17.081,4.334,25.9,4.2a53.614,53.614,0,0,0,13.243-1.483,22.81,22.81,0,0,0,11.354-6.67c3.962-4.551,5.313-10.77,6.182-16.741,2.3-15.8,2.071-32.525-4.754-46.956a35,35,0,0,0-9.9-13.027c-4.366-3.353-10.029-5.248-15.458-4.333" transform="translate(-474.392 -707.511)" fill="#923616"/>
    <path id="Trazado_633551" data-name="Trazado 633551" d="M859.132,907.67c-.52,2.168-1.03,4.5-.2,6.57,1.157,2.867,4.415,4.164,7.341,5.16a39.374,39.374,0,0,0,10.279,2.495c3.53.2,7.272-.652,9.853-3.07,3.087-2.893,3.983-7.437,4.029-11.668.079-7.395-2.149-15.1-7.465-20.244-3.6-3.479-14.8-8.874-18.357-2.708-1.4,2.423-1.336,6.106-1.965,8.792C861.506,897.894,860.3,902.78,859.132,907.67Z" transform="translate(-474.392 -707.511)" fill="#923616"/>
    <path id="Trazado_633552" data-name="Trazado 633552" d="M871.312,900.924c-.668-10.809-1.142-17.57-1.142-17.57l-45.453,22.608s2.993,16.041-.366,17.979c-1.442.818-12.811.818-26.053.3-17.785-.71-38.907-2.39-43.816-4.306-8.527-3.337-81.325-24.653-98.593-36.582C638.6,871.4,527.6,814.712,519.1,816.52c-2.153.474-5.017,2.067-8.1,4.242-10.292-1.141-23.082-2.67-25.579-3.359-4.307-1.227-10.1-3.1-10.637-2.971-.538.151-2,7.407,8.2,11.045a169.326,169.326,0,0,0,16.837,4.759c-5.038,4.888-8.957,9.6-9.237,11.282-.6,3.811-1.808,31.63-1.808,31.63s6.739-2.562,7.945-4.543c.667-1.077,1.292-5.943,1.722-10.12a4.587,4.587,0,0,0,.517,1.787c.3.3,25.041,2.261,34.192.883a63.292,63.292,0,0,0,16.407-4.909s74.2,64.271,98.787,74.327c24.567,10.055,91.315,37.508,96.16,41.986s-3.768,86.04-3.768,86.04,123.806,2.541,132.074-8.289C879.343,1041.74,873.874,942.049,871.312,900.924ZM498.666,856.311c.237-2.412.366-4.221.366-4.221a15.439,15.439,0,0,0,1.529,1.7A5.058,5.058,0,0,0,498.666,856.311Zm16.665-6.008c-.129-.107-.237-.215-.323-.28a17.294,17.294,0,0,0-4.155-2.411s.215-5.685,3.918-6.137c2.455-.279,5.706,3.252,7.644,5.706.991,1.314,1.615,2.2,1.615,2.2C521.166,849.571,518.259,849.894,515.331,850.3Z" transform="translate(-474.392 -707.511)" fill="#f9cabb"/>
    <path id="Trazado_633553" data-name="Trazado 633553" d="M499.032,852.09s1.008-6.974,2.143-9.184,6.069-5.078,5.782-5.5-7.38,2.868-7.925,5.974A43.156,43.156,0,0,0,499.032,852.09Z" transform="translate(-474.392 -707.511)" fill="#f5af91"/>
    <path id="Trazado_633554" data-name="Trazado 633554" d="M511,820.762s11.326-.419,13.363.8,5.295,4.005,4.208,4.141-7.67-3.191-9.706-3.6-8.215-1.385-8.215-1.385" transform="translate(-474.392 -707.511)" fill="#f5af91"/>
    <path id="Trazado_633555" data-name="Trazado 633555" d="M499.828,830.236s11.933,4.116,11.567,4.758-12.1-4.241-12.1-4.241Z" transform="translate(-474.392 -707.511)" fill="#f5af91"/>
    <path id="Trazado_633556" data-name="Trazado 633556" d="M515.008,850.023c.086.065.194.173.323.28l-14.77,3.488-1.4-2.5s-1.313-6.826,1.852-9.84a26.75,26.75,0,0,1,10.335-5.9c1.895-.452,8.117,7.6,11.067,11.627-1.938-2.454-5.189-5.985-7.644-5.706-3.7.452-3.918,6.137-3.918,6.137A17.294,17.294,0,0,1,515.008,850.023Z" transform="translate(-474.392 -707.511)" fill="#f5af91"/>
    <path id="Trazado_633557" data-name="Trazado 633557" d="M524.03,849.377l-8.7.926C518.259,849.894,521.166,849.571,524.03,849.377Z" transform="translate(-474.392 -707.511)" fill="#f5af91"/>
    <path id="Trazado_633558" data-name="Trazado 633558" d="M515.331,850.3s-16.427,8.253-16.665,7.477-.239-3.465,4.062-5.2S515.331,850.3,515.331,850.3Z" transform="translate(-474.392 -707.511)" fill="#f5af91"/>
    <path id="Trazado_633559" data-name="Trazado 633559" d="M871.312,900.924a128.2,128.2,0,0,1-71.636,32.3,73.921,73.921,0,0,0-1.378-8.979c13.242.517,24.611.517,26.053-.3,3.359-1.938.366-17.979.366-17.979l45.453-22.608S870.644,890.115,871.312,900.924Z" transform="translate(-474.392 -707.511)" fill="#f5af91"/>
    <path id="Trazado_633560" data-name="Trazado 633560" d="M865.267,1136.685c.928-4.852,1.791-9.305,1.975-10.068.409-1.787,4.931-4.78,7.019-14.6,1.421-6.7,28.357-89.119,45.475-141.182,8.031-24.525,13.909-42.331,13.909-42.331l-47.5-13.07s-19.917,57.188-48.683,50.922C808.7,960.114,809.739,925.7,809.739,925.7c-8.333-5.06-25.94-.692-25.94-.692s-6.645,44.318-13.621,53.533c-7,9.216-24.276,12.369-24.276,12.369s-9.851,75.824-11.918,80.539c-2.089,4.716-7.45,10.766-11.929,15.245-4.457,4.457-2.368,11.907-4.758,17.2-1.478,3.262-9.323,20.27-15.1,32.784Z" transform="translate(-474.392 -707.511)" fill="#019199"/>
    <path id="Trazado_633561" data-name="Trazado 633561" d="M733.553,1130.773c4.306.861,55.659-20.95,64.831-22.092,6.486-.82-27.429,16.412-53.311,28H865.267c.928-4.852,1.791-9.305,1.975-10.068.409-1.787,4.931-4.78,7.019-14.6,1.421-6.7,28.357-89.119,45.475-141.182l-89.507,30.273c-3.143,21.51-85.48,85.975-81.453,88.6,4.005,2.6,33.05-14.469,46.917-18.259C809.581,1067.664,729.268,1129.911,733.553,1130.773Z" transform="translate(-474.392 -707.511)" fill="#007a7d"/>
    <g id="Grupo_926851" data-name="Grupo 926851" transform="translate(300.008 72.522)">
      <path id="Trazado_633562" data-name="Trazado 633562" d="M826.591,809.837c-8.59,4.1-21.786,50.5-18.062,67.452s11.008,32.012,22.694,32.48c14.636.585,39.709-11.7,49.13-26.488s5.849-56.565-.2-63.332S844.82,801.131,826.591,809.837Z" transform="translate(-774.4 -780.033)" fill="#f9cabb"/>
      <path id="Trazado_633563" data-name="Trazado 633563" d="M833.428,851.578c-3.391-1.112-12.761,15.5-8.979,18.966s10.612,3.072,12.537,1.107-2.571-7.176-3.283-11.191S836.962,852.738,833.428,851.578Z" transform="translate(-774.4 -780.033)" fill="#ec726e"/>
      <path id="Trazado_633564" data-name="Trazado 633564" d="M831.293,891.188a17.6,17.6,0,0,1-5.593-.859,12.525,12.525,0,0,1-7.428-6.106,2.116,2.116,0,0,1,3.855-1.744,8.39,8.39,0,0,0,5.038,3.876c3.508,1.122,9.955,1.186,20.79-4.849a2.114,2.114,0,0,1,2.058,3.694C842.862,889.186,836.593,891.188,831.293,891.188Z" transform="translate(-774.4 -780.033)" fill="#923616"/>
      <path id="Trazado_633565" data-name="Trazado 633565" d="M909.985,850.107l-5.11-2.392L824.23,809.921s24.173-33.012,39.964-29.647c8.3,1.76,17.436,9.442,25.1,18.046,6.907,7.783,12.632,16.344,15.408,21.994C910.563,832.2,909.985,850.107,909.985,850.107Z" transform="translate(-774.4 -780.033)" fill="#edc394"/>
      <path id="Trazado_633566" data-name="Trazado 633566" d="M909.985,850.107l-5.11-2.392-27.451-29.754s4.769-5.69,4.94-7.29c.146-1.618-20.521-9.4-20.754-10.583-.237-1.208,23.394,7.636,23.47,6.144.095-1.518-9.765-6.457-10.184-7.793-.4-1.34,11.617,4.969,13.17,4.876.854-.061,1.215-2.126,1.23-4.995,6.907,7.783,12.632,16.344,15.408,21.994C910.563,832.2,909.985,850.107,909.985,850.107Z" transform="translate(-774.4 -780.033)" fill="#e2b67e"/>
      <path id="Trazado_633567" data-name="Trazado 633567" d="M915.218,863.851c-.73,5.633-4.6,12.028-8.793,17.5a115.3,115.3,0,0,1-12.133,13.295s.669-36.648-5.1-45.588c-5.748-8.943-34.156-36.525-49.755-36.627-15.58-.127-29.208,17.051-30.939,22.043-1.7,5.01-.574,33.72-.574,33.72a15.372,15.372,0,0,1-1.543-.75c-3.13-1.743-10.507-6.918-16.89-19.707-8.406-16.752-3.318-34.372,22.27-42.205,25.61-7.838,61.891-1.667,79.343,12.481C908.574,832.138,916.974,850.529,915.218,863.851Z" transform="translate(-774.4 -780.033)" fill="#d8ab78"/>
      <path id="Trazado_633568" data-name="Trazado 633568" d="M906.425,881.354a115.3,115.3,0,0,1-12.133,13.295s.669-36.648-5.1-45.588c-5.748-8.943-34.156-36.525-49.755-36.627-15.58-.127-29.208,17.051-30.939,22.043-1.7,5.01-.574,33.72-.574,33.72a15.372,15.372,0,0,1-1.543-.75l.023-2.052s-10.025-17.807-8.888-28.585c1.108-10.432,7.391-19.643,7.79-20.214-.506.226-7.732,3.6-9.222,3.022-.76-.3,12.351-9.795,13.474-10.371,15.84-8.132,34.471-2.942,50.445,1.937,13.567,4.144,30.279,10.785,37,24.324C904.894,851.419,906.279,871.167,906.425,881.354Z" transform="translate(-774.4 -780.033)" fill="#c49263"/>
      <path id="Trazado_633569" data-name="Trazado 633569" d="M801.489,842.9a137.891,137.891,0,0,1,4.19-13.772c2.711-7.329,7.178-15.048,14.719-18.192,14.566-6.072,51.03,11.02,60.2,20.567s17.066,25.957,17.791,30.048l21.588,121.8s-36.111-5.456-44.241-29.423c-3.877-11.428-4.938-23.785-5.2-35.782-.222-10.014.431-20.129,3.071-29.829,2.558-9.4,8.261-18.35,6.113-28.456-2.285-10.751-23.452-18.321-29.225-26.611s-6.394-14.908-6.394-14.908-22.678,4.953-25.565,12.532-10.921,42.881-9.345,49.363-2.578,76.2-22.611,91.5c0,0-15.594-32.3-11.488-49.8S791.58,908,793,888.183a201.709,201.709,0,0,1,5-30.346C799.133,852.863,800.225,847.856,801.489,842.9Z" transform="translate(-774.4 -780.033)" fill="#923616"/>
      <g id="Grupo_926850" data-name="Grupo 926850" transform="translate(23.081 60.203)">
        <path id="Trazado_633570" data-name="Trazado 633570" d="M815.73,844.292s20.861-7.076,36.317,1.383l-.47.929s-20.132-5.348-33.087-.65" transform="translate(-797.481 -840.237)" fill="#261718"/>
        <path id="Trazado_633571" data-name="Trazado 633571" d="M821.405,847.414a24.109,24.109,0,0,1,24.6,2.012l-.207.906s-14.484-5.792-22.337-1.233" transform="translate(-797.481 -840.237)" fill="#261718"/>
        <path id="Trazado_633572" data-name="Trazado 633572" d="M822.176,842.3a11.093,11.093,0,0,1,6.126,6.029,8.83,8.83,0,0,1,.329,1.38,12.193,12.193,0,0,1-1.394,7.5c-3.675,7.415-13.88,18.876-22.913,12.772a16.4,16.4,0,0,1-6.765-11.876,15.008,15.008,0,0,1,1.956-9.16,15.638,15.638,0,0,1,6.433-5.786,20.7,20.7,0,0,1,12.31-2.032A15.6,15.6,0,0,1,822.176,842.3Z" transform="translate(-797.481 -840.237)" fill="#261718"/>
        <path id="Trazado_633573" data-name="Trazado 633573" d="M811.709,863.751a12.043,12.043,0,0,0,3.914,3.919,18.263,18.263,0,0,0,2.846-2.045,18.869,18.869,0,0,0-3.34-6.83,16.213,16.213,0,0,0-3.549,4.827C811.621,863.672,811.67,863.692,811.709,863.751Z" transform="translate(-797.481 -840.237)" fill="#4f3d3f"/>
        <path id="Trazado_633574" data-name="Trazado 633574" d="M818.3,843.622c-.263-.059-.529-.139-.787-.18a16.037,16.037,0,0,0-3.819-.083c-1.687,2.458-2.656,4.642-2.171,7.751a1.449,1.449,0,0,1-.015.332,22.252,22.252,0,0,1,4.193,3.283,39.905,39.905,0,0,1,5.658-6.022c.1-.081.2-.162.292-.245A10.456,10.456,0,0,0,818.3,843.622Z" transform="translate(-797.481 -840.237)" fill="#4f3d3f"/>
        <path id="Trazado_633575" data-name="Trazado 633575" d="M823.932,850.57c-.006-.03,0-.051,0-.08-.428.372-.85.75-1.258,1.1a34.389,34.389,0,0,0-4.988,5.54A24.351,24.351,0,0,1,820.9,863.2a29.486,29.486,0,0,0,4.2-6.164,14.583,14.583,0,0,0,.689-1.654A33.541,33.541,0,0,1,823.932,850.57Z" transform="translate(-797.481 -840.237)" fill="#4f3d3f"/>
        <path id="Trazado_633576" data-name="Trazado 633576" d="M839.892,844.4c-2.566,2.007-4.6,4.764-4.876,7.894a8.977,8.977,0,0,0,.045,1.5,12.5,12.5,0,0,0,3.679,7.25c6.123,6.518,20.475,15.3,28.471,6.506a16.813,16.813,0,0,0,3.872-14.039,15.436,15.436,0,0,0-4.769-8.787,17.682,17.682,0,0,0-8.632-4.071,24.447,24.447,0,0,0-13.9,1.431A17.973,17.973,0,0,0,839.892,844.4Z" transform="translate(-797.481 -840.237)" fill="#261718"/>
        <path id="Trazado_633577" data-name="Trazado 633577" d="M854.568,864.941a12.047,12.047,0,0,0,3.914,3.92,18.256,18.256,0,0,0,2.847-2.046,18.894,18.894,0,0,0-3.341-6.83,16.218,16.218,0,0,0-3.549,4.828C854.48,864.862,854.529,864.883,854.568,864.941Z" transform="translate(-797.481 -840.237)" fill="#4f3d3f"/>
        <path id="Trazado_633578" data-name="Trazado 633578" d="M861.159,844.813c-.262-.059-.529-.139-.787-.18a15.986,15.986,0,0,0-3.819-.083c-1.687,2.458-2.655,4.642-2.171,7.751a1.451,1.451,0,0,1-.015.332,22.186,22.186,0,0,1,4.193,3.283,39.856,39.856,0,0,1,5.658-6.022c.1-.081.2-.163.292-.245A10.456,10.456,0,0,0,861.159,844.813Z" transform="translate(-797.481 -840.237)" fill="#4f3d3f"/>
        <path id="Trazado_633579" data-name="Trazado 633579" d="M866.792,851.76c-.007-.029,0-.051,0-.079-.428.372-.85.749-1.258,1.1a34.431,34.431,0,0,0-4.988,5.539,24.376,24.376,0,0,1,3.215,6.066,29.5,29.5,0,0,0,4.2-6.165,14.431,14.431,0,0,0,.689-1.654A33.415,33.415,0,0,1,866.792,851.76Z" transform="translate(-797.481 -840.237)" fill="#4f3d3f"/>
      </g>
    </g>
    <g id="Grupo_926863" data-name="Grupo 926863" transform="translate(280.092 0)">
      <g id="Grupo_926859" data-name="Grupo 926859" transform="translate(0 91.969)">
        <path id="Trazado_633580" data-name="Trazado 633580" d="M907.334,1093.329c3.789-1.765,11.39-12.143,11.39-12.143s-1.27,21.9-2.11,23.6c-.84,1.68-3.381,1.249-6.33,8.01-2.95,6.739,0,17.7,0,20.239a10.386,10.386,0,0,1-1.647,3.652h198.409c-12.439-52.479-14.972-153.791-14.972-153.791l2.455,1.809,60.374,44.161s7.6-13.069,6.33-25.321c-1.27-12.23-26.569-73.788-40.91-106.689s-26.569-37.551-47.649-39.661c-21.1-2.088-73.4-19.809-73.4-19.809L942.538,853.6l-29.886,41.555S901,904.024,893.834,915.415c-7.171,11.368-28.25,130.308-28.25,130.308l39.209,44.721Z" transform="translate(-754.484 -799.481)" fill="#d33532"/>
        <path id="Trazado_633581" data-name="Trazado 633581" d="M918.724,1081.186s-1.27,21.9-2.11,23.6c-.84,1.68-3.381,1.249-6.33,8.01-2.95,6.739,0,17.7,0,20.239a10.386,10.386,0,0,1-1.647,3.652h9.282c1.285-1.948,2.461-3.307,3.367-3.587,4.22-1.313,24.352-2.95,22.156-5.254s-24.438.668-26.29-2.949c-1.83-3.618,38.5-11.5,36.884-15.761s-25.9-1.314-30.188-2.95c-4.263-1.637,4.953-60.4,6.589-63.195s125.055-15.912,127.359-17.893c2.282-1.959-140.235-49.243-140.235-49.243s-7.3,75.167-12.768,114.591l2.541,2.885C911.123,1091.564,918.724,1081.186,918.724,1081.186Z" transform="translate(-754.484 -799.481)" fill="#c02020"/>
        <path id="Trazado_633582" data-name="Trazado 633582" d="M1008.876,1055.2c6.977,4.716,61.387,9.581,64.014,11.412s-29.865,8.526-24.956,13.22c4.931,4.694,21.683,5.448,21.683,7.213,0,1.744,6.545,10.594-5.6,15.2-7.33,2.762-54.7,19.856-87.1,34.442h130.13c-12.439-52.479-14.972-153.791-14.972-153.791l2.455,1.809-6.546-50.534s3.94-4.264,7.235-7.881c3.273-3.617-8.548-2.95-8.548-2.95s14.77-3.94,16.751-8.2c1.809-3.962-13.844-1.7-16.127-1.357,2.455-.6,20.24-4.995,22.694-10.787,2.627-6.244-27.581,6.223-27.581,6.223-2.627-11.821-9.194-34.795-9.194-30.855s7.88,105.375,7.88,105.375l1.636,58.415S1001.922,1050.46,1008.876,1055.2Z" transform="translate(-754.484 -799.481)" fill="#c02020"/>
        <path id="Trazado_633583" data-name="Trazado 633583" d="M1112.841,979.162s.508-10.155,13.709-11.932,29.026,7.349,34.527,13.709c8.123,9.393,8.433,41.08-7.843,51.512,0,0,5.613-26.875-3.147-38.811S1112.841,979.162,1112.841,979.162Z" transform="translate(-754.484 -799.481)" fill="#e64a41"/>
        <path id="Trazado_633584" data-name="Trazado 633584" d="M1016,875c-.667,7.471-33.567,23.728-49.5,22.307-3.165-.259-5.684-1.228-7.105-3.1-8.7-11.3-2.778-17.1-8.5-26.85-5.706-9.732-8.957-17.031-20.455-26.591,0,0,32.9-45.991,59.75-40.889,0,0,3.682,17.678,5.857,24.568,3.1,9.861,3.832,12.94,3.832,12.94s3.7,6.266,7.558,13.867C1011.826,859.885,1016.412,870.242,1016,875Z" transform="translate(-754.484 -799.481)" fill="#f9cabb"/>
        <path id="Trazado_633585" data-name="Trazado 633585" d="M1007.434,851.251a112.417,112.417,0,0,1-10.12,14.727c-7.881,9.862-17.075,18.582-26.29,27.216-1.486,1.4-2.971,2.8-4.522,4.113-3.165-.259-5.684-1.228-7.105-3.1-8.7-11.3-2.778-17.1-8.5-26.85-5.706-9.732-8.957-17.031-20.455-26.591,0,0,32.9-45.991,59.75-40.889,0,0,3.682,17.678,5.857,24.568,3.1,9.861,3.832,12.94,3.832,12.94S1003.58,843.65,1007.434,851.251Z" transform="translate(-754.484 -799.481)" fill="#f5af91"/>
        <path id="Trazado_633586" data-name="Trazado 633586" d="M1066.064,853.6a45.076,45.076,0,0,1-26.031,5.016l-.883,5.922s-15.266,6.933-19.572,17.742c-.323.8-.668,1.851-1.077,3.122-.194.646-.388,1.335-.6,2.088-4.672,16.3-12.983,56.327-14.4,63.367a.068.068,0,0,0-.022.044c-.065.236-.086.452-.129.6-.065.28-.086.431-.086.431l-.065-.065-.065-.064c-1.916-2.132-26.1-29.089-37.723-41.47-.021-.021-.043-.043-.043-.064a67.736,67.736,0,0,0-6.072-6.072c-1.787-.711-7.708,7.17-7.708,7.17s-20.455-24.03-22.436-24.03c-1.959,0-23.082,13.522-22.134,12.683.926-.862,17.16-34.429,35.527-46.422,0,0,9.409,10.938,11.024,17.052.667,2.584.237,7.063,1.206,11.391,1.292,6.007,5.253,11.734,18.452,11.8,22.8.108,32.986-12.962,36.5-20.5,1.507-3.251.538-9.129-1.292-15.266a155.419,155.419,0,0,0-8.871-21.94Z" transform="translate(-754.484 -799.481)" fill="#e64a41"/>
        <path id="Trazado_633587" data-name="Trazado 633587" d="M1018.5,885.4c-.194.646-.388,1.335-.6,2.088-1.959,7.644-12.66,55.573-14.4,63.367a.068.068,0,0,0-.022.044c-.043.236-.086.452-.129.6-.065.28-.086.431-.086.431l-.065-.065-.065-.064c-1.916-1.938-24.8-24.977-37.723-41.47-.021-.021-.043-.043-.043-.064-13.478-17.183-11.007-30.678-11.007-30.678l.414,2.45c1.292,6.007,5.253,11.734,18.452,11.8,22.8.108,32.986-12.962,36.5-20.5,1.507-3.251.538-9.129-1.292-15.266C1021.214,868.928,1019.728,880.663,1018.5,885.4Z" transform="translate(-754.484 -799.481)" fill="#ffc043"/>
        <g id="Grupo_926857" data-name="Grupo 926857" transform="translate(163.071 28.22)">
          <g id="Grupo_926856" data-name="Grupo 926856" transform="translate(25.897 205.356)">
            <g id="Grupo_926855" data-name="Grupo 926855">
              <g id="Grupo_926854" data-name="Grupo 926854">
                <path id="Trazado_633588" data-name="Trazado 633588" d="M951.609,1046.314a4.013,4.013,0,0,0-.069-.847,4.1,4.1,0,0,0-2.308-2.954,4.155,4.155,0,0,0-1.607-.372,3.8,3.8,0,0,0-.732.05,4.194,4.194,0,0,0-1.386.477,4.075,4.075,0,0,0-2.055,3.457,4.064,4.064,0,0,0,3.981,4.187,3.941,3.941,0,0,0,1.63-.3A4.071,4.071,0,0,0,951.609,1046.314Zm-4.114,1.357a1.438,1.438,0,0,1-1.4-1.484.088.088,0,0,1,0-.057,1.5,1.5,0,0,1,.292-.776,1.444,1.444,0,0,1,1.183-.572,1.443,1.443,0,0,1,1.4,1.471A1.442,1.442,0,0,1,947.495,1047.671Z" transform="translate(-943.451 -1033.057)" fill="#666"/>
                <path id="Trazado_633589" data-name="Trazado 633589" d="M1041.659,1048.355a4.042,4.042,0,0,0-1.9-3.541,3.86,3.86,0,0,0-1.352-.544,3.364,3.364,0,0,0-.732-.089,4.267,4.267,0,0,0-1.138.137,3.585,3.585,0,0,0-1,.415c-.093.051-.189.116-.285.18a4.062,4.062,0,0,0-1.754,3.266,4.084,4.084,0,0,0,1.571,3.31c.11.077.193.149.305.213l.014,0a3.919,3.919,0,0,0,2.094.649A4.083,4.083,0,0,0,1041.659,1048.355Zm-4.114,1.357a1.445,1.445,0,1,1,1.473-1.419A1.446,1.446,0,0,1,1037.545,1049.712Z" transform="translate(-943.451 -1033.057)" fill="#666"/>
                <g id="Grupo_926853" data-name="Grupo 926853" transform="translate(3.69)">
                  <rect id="Rectángulo_335081" data-name="Rectángulo 335081" width="55.956" height="86.336" transform="matrix(0.023, -1, 1, 0.023, 0.927, 60.54)" fill="#a86a30"/>
                  <path id="Trazado_633590" data-name="Trazado 633590" d="M966.967,1038.057,965.7,1094l-17.628-.4.072-3.181-1-.023.87-38.3,1,.023.328-14.46Z" transform="translate(-947.141 -1033.057)" fill="#bf7e46"/>
                  <rect id="Rectángulo_335082" data-name="Rectángulo 335082" width="32.325" height="8.052" transform="translate(48.255 9.335) rotate(1.301)" fill="#969696"/>
                  <rect id="Rectángulo_335083" data-name="Rectángulo 335083" width="13.887" height="8.052" transform="translate(66.688 9.754) rotate(1.301)" fill="#636363"/>
                  <rect id="Rectángulo_335084" data-name="Rectángulo 335084" width="38.311" height="88.336" transform="matrix(0.023, -1, 1, 0.023, 0, 57.337)" fill="#666"/>
                  <circle id="Elipse_4814" data-name="Elipse 4814" cx="20.488" cy="20.488" r="20.488" transform="translate(27.409 48.72) rotate(-70.695)" fill="#3c4243"/>
                  <path id="Trazado_633591" data-name="Trazado 633591" d="M1018.474,1069.619a17.819,17.819,0,1,1-17.41-18.219A17.818,17.818,0,0,1,1018.474,1069.619Z" transform="translate(-947.141 -1033.057)" fill="#fcfcfa"/>
                  <path id="Trazado_633592" data-name="Trazado 633592" d="M1014.683,1069.533a14.027,14.027,0,1,1-13.7-14.342A14.027,14.027,0,0,1,1014.683,1069.533Z" transform="translate(-947.141 -1033.057)" fill="#bf7e46"/>
                  <circle id="Elipse_4815" data-name="Elipse 4815" cx="10.614" cy="10.614" r="10.614" transform="translate(38.757 38.883) rotate(-55.461)" fill="#969696"/>
                  <path id="Trazado_633593" data-name="Trazado 633593" d="M1005.421,1069.323a4.762,4.762,0,1,1-4.653-4.87A4.763,4.763,0,0,1,1005.421,1069.323Z" transform="translate(-947.141 -1033.057)" fill="#fcfcfa"/>
                  <path id="Trazado_633594" data-name="Trazado 633594" d="M997.759,1075.282a1.862,1.862,0,1,1-1.82-1.9A1.863,1.863,0,0,1,997.759,1075.282Z" transform="translate(-947.141 -1033.057)" fill="#fcfcfa"/>
                  <path id="Trazado_633595" data-name="Trazado 633595" d="M1007.025,1063.226a1.1,1.1,0,1,1-1.078-1.129A1.1,1.1,0,0,1,1007.025,1063.226Z" transform="translate(-947.141 -1033.057)" fill="#fcfcfa"/>
                  <g id="Grupo_926852" data-name="Grupo 926852" transform="translate(34.088 9.932)">
                    <path id="Trazado_633596" data-name="Trazado 633596" d="M988.943,1046.934a3.857,3.857,0,1,1-3.769-3.943A3.858,3.858,0,0,1,988.943,1046.934Z" transform="translate(-981.229 -1042.99)" fill="#636363"/>
                    <path id="Trazado_633597" data-name="Trazado 633597" d="M986.809,1046.886a1.722,1.722,0,1,1-1.683-1.761A1.723,1.723,0,0,1,986.809,1046.886Z" transform="translate(-981.229 -1042.99)" fill="#fcfcfa"/>
                    <path id="Trazado_633598" data-name="Trazado 633598" d="M987.544,1044.935a.446.446,0,1,1-.436-.456A.446.446,0,0,1,987.544,1044.935Z" transform="translate(-981.229 -1042.99)" fill="#fcfcfa"/>
                  </g>
                  <path id="Trazado_633599" data-name="Trazado 633599" d="M986.227,1038.495l-16.949-.386.056-2.456a2.655,2.655,0,0,1,2.715-2.595l11.639.265a2.657,2.657,0,0,1,2.6,2.715Z" transform="translate(-947.141 -1033.057)" fill="#969696"/>
                  <path id="Trazado_633600" data-name="Trazado 633600" d="M962.932,1035.351l-3.544-.08.021-.94a1.019,1.019,0,0,1,1.04-.994l1.511.035a1.016,1.016,0,0,1,.993,1.039Z" transform="translate(-947.141 -1033.057)" fill="#ea5a2f"/>
                  <path id="Trazado_633601" data-name="Trazado 633601" d="M964.3,1038l-6.393-.145.038-1.7a1.833,1.833,0,0,1,1.875-1.792l2.727.062a1.833,1.833,0,0,1,1.792,1.875Z" transform="translate(-947.141 -1033.057)" fill="#636363"/>
                </g>
              </g>
              <rect id="Rectángulo_335085" data-name="Rectángulo 335085" width="38.311" height="18.633" transform="matrix(0.023, -1, 1, 0.023, 3.69, 57.337)" fill="#969696"/>
            </g>
          </g>
          <path id="Trazado_633602" data-name="Trazado 633602" d="M946.092,1046.187q-5.5-22.8-10.752-45.653c-5.779-25.038-11.591-50.111-16.324-75.372-2.763-14.75-1.378-29.842,2.226-44.318,2.764-11.107,7.168-25.616,17.934-31.574l8.78,11.272s-16.425,2.027-19.947,19.432,20.465,165.158,20.465,165.158S948.268,1046.54,946.092,1046.187Z" transform="translate(-917.555 -827.701)" fill="#304550"/>
          <path id="Trazado_633603" data-name="Trazado 633603" d="M1036.57,1047.237s-10.64-127.5-17.344-156.318S1003.948,851,1003.948,851l-6.9-23.3s17.513,9.748,32.585,52.811c0,0,13.388,142.138,9.385,167.781A1.989,1.989,0,0,1,1036.57,1047.237Z" transform="translate(-917.555 -827.701)" fill="#304550"/>
        </g>
        <path id="Trazado_633604" data-name="Trazado 633604" d="M866.547,1040.343s29.553,15.1,36.956,24.109a223.576,223.576,0,0,1,13.659,18.79s-11.182,20.379-25.308,20.653-96.155-53.581-96.155-53.581l17.87-14.135S847.135,1029.438,866.547,1040.343Z" transform="translate(-754.484 -799.481)" fill="#f5af91"/>
        <path id="Trazado_633605" data-name="Trazado 633605" d="M864.927,1042.139s12.244-8.566,17.267-6.788,20.8,11.918,30.767,23.249c8.32,9.454,8.32,22.168,8.32,22.168l-6.75,8.935s-7.692-12.859-18.052-22.12S864.927,1042.139,864.927,1042.139Z" transform="translate(-754.484 -799.481)" fill="#e64a41"/>
        <g id="Grupo_926858" data-name="Grupo 926858" transform="translate(0 76.582)">
          <path id="Trazado_633606" data-name="Trazado 633606" d="M757.61,928.55l109.622-5.984L899.007,905l30.981,3.04,105.156-30.16,32.567,139.407-114.455,21.2-30.328-2.465-28.177,16.064L787.357,1058.6Z" transform="translate(-754.484 -876.063)" fill="#00c5e9"/>
          <path id="Trazado_633607" data-name="Trazado 633607" d="M929.989,908.044l23.268,130.45,114.455-21.2-32.567-139.407Z" transform="translate(-754.484 -876.063)" fill="#00b7cf"/>
          <path id="Trazado_633608" data-name="Trazado 633608" d="M899.007,905l23.921,131.025-28.177,16.064-27.52-129.527Z" transform="translate(-754.484 -876.063)" fill="#00b7cf"/>
          <path id="Trazado_633609" data-name="Trazado 633609" d="M1037.614,876.063,930.338,906.831l-31.606-3.1-32.416,17.916-111.832,6.1,30.347,132.673,109.559-6.638,28.746-16.388,30.939,2.515,116.762-21.631Zm-84.1,152.784-32.869-2.672-29.471,16.8-97.713,5.92L768.1,938.005l101.329-5.532,31.632-17.48,30.294,2.973,98.194-28.165,27.98,119.777Z" transform="translate(-754.484 -876.063)" fill="#fff"/>
        </g>
        <path id="Trazado_633610" data-name="Trazado 633610" d="M1150.812,1034.355c-7.708,4.327-40.974-4.608-53.161-17.592-12.166-12.983-18.259-22.715-21.3-22.931-3.057-.194-21.1,4.07-24.567,3.058-.582-.172-1.12-.345-1.572-.474-2.2-.689-2.885-.947-2.885-.947-1.228.021-2.455.021-3.682-.022-1.637-.043-3.747.581-4.995-.753a5.22,5.22,0,0,1-1.142-2.347c-.581-2.369-.323-5.319,1.443-7.149a10.33,10.33,0,0,1,2.282-1.7c.409-.258.84-.474,1.249-.71-.883.452-1.808.882-2.713,1.292l-.194.064a18.542,18.542,0,0,1-3.036.991c-3.143.689-7.837.215-8.7-3.467-.6-2.648,2.174-5.77,2.174-5.77s-.172-.991-.3-2.5v-.021c-.3-3.1-.517-8.333.969-11.606,2.239-4.866,9.947-21.273,14.017-23.728,4.048-2.454,20.282-2.821,24.955,0,4.672,2.842,6.481,6.7,6.481,7.3s5.081,2.024,6.7,4.458c1.637,2.432,1.012,6.911,1.012,6.911s5.9,3.854,6.912,6.481l1.012,2.648s38.95,11.972,41,11.757c2.024-.194,6.072-.8,6.072-.8s16.04,9.129,17.871,24.331C1158.542,1016.354,1158.542,1030.048,1150.812,1034.355Z" transform="translate(-754.484 -799.481)" fill="#f9cabb"/>
        <path id="Trazado_633611" data-name="Trazado 633611" d="M1039.766,984.07s28.664-11.374,25.243-13.4-28.458,14.47-28.458,14.47Z" transform="translate(-754.484 -799.481)" fill="#f5af91"/>
        <path id="Trazado_633612" data-name="Trazado 633612" d="M1073.772,985.758c.194.818-15.761,7.471-23.555,10.658-2.2-.689-2.885-.947-2.885-.947S1073.514,984.7,1073.772,985.758Z" transform="translate(-754.484 -799.481)" fill="#f5af91"/>
        <path id="Trazado_633613" data-name="Trazado 633613" d="M1030.02,975.9s-.172-.991-.3-2.5v-.021c7.213-5.879,24.847-20.025,27.431-19.508C1060.4,954.537,1030.02,975.9,1030.02,975.9Z" transform="translate(-754.484 -799.481)" fill="#f5af91"/>
        <path id="Trazado_633614" data-name="Trazado 633614" d="M1054.589,954.8s-9.526,2.931-11.725,5.374-4.231,7.244-4.231,7.244Z" transform="translate(-754.484 -799.481)" fill="#f5af91"/>
        <path id="Trazado_633615" data-name="Trazado 633615" d="M782.387,998.849c-1.99.237-3.925-.069-5.908.409-2.141.516-3.134,2.985-2.683,5.027a29.132,29.132,0,0,1,10.492-1.812c2.125-.029,4.248.071,6.369.178a26.029,26.029,0,0,1,5.811.589c1.36.38,4.328,1.035,4.694,2.736a5.26,5.26,0,0,1-4.113,6.287c-2.583.409-17.53,5.162-17.53,5.162s22.719-2.664,23.731-1.48c1.012,1.163,1.766,7.278-1.679,8.29-3.423,1.012-8.2,2.261-8.2,2.261a7.005,7.005,0,0,1,.409,1.012c.387,1.162.732,3.079-.668,4.2-2.089,1.658-9.8,7.536-10.464,9.13s.581,12.574.581,12.574-19.852-5.124-22.371-8.634c-2.519-3.531-2.519-7.708-1.421-9.646,0,0-4.2-4.264-3.531-7.127a11.392,11.392,0,0,1,2.433-4.694s-7.536-11.649,3.359-16.17c0,0-7.342-17.1-5.9-20.52,1.464-3.445,2.39-6.373,8.247-6.782,0,0,20.024,8.117,21.122,11.218C786.241,994.155,785.831,998.44,782.387,998.849Z" transform="translate(-754.484 -799.481)" fill="#f9cabb"/>
        <path id="Trazado_633616" data-name="Trazado 633616" d="M784.863,1038.422s-10.906,4.875-11.068,5.441,8.714-2.318,8.714-2.318Z" transform="translate(-754.484 -799.481)" fill="#f5af91"/>
        <path id="Trazado_633617" data-name="Trazado 633617" d="M793.777,1027.508c-5.383,1.335-24.5,6.072-25.214,5.426-.84-.754,24.8-6.438,24.8-6.438A7.005,7.005,0,0,1,793.777,1027.508Z" transform="translate(-754.484 -799.481)" fill="#f5af91"/>
        <path id="Trazado_633618" data-name="Trazado 633618" d="M780.147,1017.352s-13.9,5.68-14.246,5.026c-1.143-2.163,18.962-6.627,18.962-6.627Z" transform="translate(-754.484 -799.481)" fill="#f5af91"/>
        <path id="Trazado_633619" data-name="Trazado 633619" d="M774.209,1001.119s-8.961-7.685-9.434-6.454,9.021,9.62,9.021,9.62Z" transform="translate(-754.484 -799.481)" fill="#f5af91"/>
      </g>
      <g id="Grupo_926862" data-name="Grupo 926862" transform="translate(130.005)">
        <path id="Trazado_633620" data-name="Trazado 633620" d="M1002.035,801.05c-.144-6.272,9.733-9.529,14.079-5.71,2.934,2.578,3.728,7.734,4.011,11.449a26.02,26.02,0,0,1-2.661,14.1c-2.442,4.5-7.4,8.125-12.736,7.133Z" transform="translate(-884.489 -707.512)" fill="#f5af91"/>
        <path id="Trazado_633621" data-name="Trazado 633621" d="M914.995,771.269s3.745,62.84,10.818,77.58,21.446,26.3,33.353,28.886c10.511,2.279,39.363-18.2,44.4-34.795,4.781-15.747,1.6-70.906,1.075-74.761s-42.006-23.4-62.334-20.236S914.995,771.269,914.995,771.269Z" transform="translate(-884.489 -707.512)" fill="#f9cabb"/>
        <g id="Grupo_926861" data-name="Grupo 926861" transform="translate(25.429 82.912)">
          <g id="Grupo_926860" data-name="Grupo 926860">
            <path id="Trazado_633622" data-name="Trazado 633622" d="M909.921,813.143s-.493,17.935,11.135,20.1,19.512-3.744,21.68-9.46-.1-15.176-.1-15.176a37.609,37.609,0,0,0-20.99-1.675C913.479,808.542,909.921,813.143,909.921,813.143Z" transform="translate(-909.918 -790.424)" fill="#261718"/>
            <path id="Trazado_633623" data-name="Trazado 633623" d="M933.241,817.594a23.657,23.657,0,0,1,5.772.926,20.1,20.1,0,0,0-1.025-6.85,15.978,15.978,0,0,0-5.51-1.07A21.6,21.6,0,0,1,933.241,817.594Z" transform="translate(-909.918 -790.424)" fill="#4f3d3f"/>
            <path id="Trazado_633624" data-name="Trazado 633624" d="M929.1,820.208c.1.005.194.026.292.034,1.362-2.521.515-7.355-.2-9.562,0-.014,0-.025,0-.038a38.163,38.163,0,0,0-4.661.572,23.587,23.587,0,0,0,.7,9.017C926.523,820.183,927.818,820.136,929.1,820.208Z" transform="translate(-909.918 -790.424)" fill="#4f3d3f"/>
            <path id="Trazado_633625" data-name="Trazado 633625" d="M927.825,824.771a9.893,9.893,0,0,0,7.945,2.575,7.319,7.319,0,0,0,.659-.93A41.406,41.406,0,0,0,927.825,824.771Z" transform="translate(-909.918 -790.424)" fill="#4f3d3f"/>
            <path id="Trazado_633626" data-name="Trazado 633626" d="M983.249,804.413s4.9,17.259-5.832,22.229-19.832,1.184-23.343-3.82-3.649-14.731-3.649-14.731a37.611,37.611,0,0,1,19.928-6.8C978.666,800.832,983.249,804.413,983.249,804.413Z" transform="translate(-909.918 -790.424)" fill="#261718"/>
            <path id="Trazado_633627" data-name="Trazado 633627" d="M974.8,812.748a23.73,23.73,0,0,1,5.792.785,20.1,20.1,0,0,0-1.192-6.823,15.98,15.98,0,0,0-5.534-.935A21.6,21.6,0,0,1,974.8,812.748Z" transform="translate(-909.918 -790.424)" fill="#4f3d3f"/>
            <path id="Trazado_633628" data-name="Trazado 633628" d="M970.724,815.463c.1,0,.2.021.294.026,1.3-2.553.335-7.365-.436-9.554,0-.013,0-.024,0-.037a37.972,37.972,0,0,0-4.646.686,23.546,23.546,0,0,0,.924,9C968.144,815.5,969.437,815.422,970.724,815.463Z" transform="translate(-909.918 -790.424)" fill="#4f3d3f"/>
            <path id="Trazado_633629" data-name="Trazado 633629" d="M969.557,820.055a9.89,9.89,0,0,0,8.006,2.38,7.282,7.282,0,0,0,.636-.945A41.447,41.447,0,0,0,969.557,820.055Z" transform="translate(-909.918 -790.424)" fill="#4f3d3f"/>
            <path id="Trazado_633630" data-name="Trazado 633630" d="M942.638,808.61s4.44-2.023,7.787-.519l1.87,7.02s-3.942-1.574-5.716-1.278a11.31,11.31,0,0,0-3.941,1.971Z" transform="translate(-909.918 -790.424)" fill="#261718"/>
            <path id="Trazado_633631" data-name="Trazado 633631" d="M979.833,802.648s5.671-.148,9.515-2.119,15.865-10.051,15.865-10.051,6.988-.468,8.816,1.343l-29.812,18.151S979.482,806.343,979.833,802.648Z" transform="translate(-909.918 -790.424)" fill="#261718"/>
            <path id="Trazado_633632" data-name="Trazado 633632" d="M909.921,813.143c.2-.237,6.468-12.626,6.468-12.626l1.327,8.445s-6.154,4.971-6.3,4.971A14.426,14.426,0,0,1,909.921,813.143Z" transform="translate(-909.918 -790.424)" fill="#261718"/>
          </g>
        </g>
        <path id="Trazado_633633" data-name="Trazado 633633" d="M940.359,835.208a15.261,15.261,0,0,0-.04,5.816,9.1,9.1,0,0,0,6.492,6.2,13.714,13.714,0,0,0,9.16-1.029,8.357,8.357,0,0,0,4.19-3.553c1.174-2.332.508-5.127-.2-7.641-2.088-7.436-4.327-15.375-8.942-21.7-1.522-2.086-4.086-4.273-6.493-1.984-1.113,1.059-1.259,2.494-1.455,3.936q-.422,3.109-.845,6.221Z" transform="translate(-884.489 -707.512)" fill="#ec726e"/>
        <path id="Trazado_633634" data-name="Trazado 633634" d="M977.139,829.589c.3,2.766,5.737,4.436,12.131,3.729s11.33-3.522,11.025-6.289-5.738-4.435-12.132-3.728S976.833,826.823,977.139,829.589Z" transform="translate(-884.489 -707.512)" fill="#ec726e"/>
        <path id="Trazado_633635" data-name="Trazado 633635" d="M920.277,840.127c.41,2.2,4.122,3.354,8.291,2.577s7.216-3.191,6.8-5.391-4.122-3.355-8.291-2.578S919.866,837.926,920.277,840.127Z" transform="translate(-884.489 -707.512)" fill="#ec726e"/>
        <path id="Trazado_633636" data-name="Trazado 633636" d="M953.916,863.067a20.029,20.029,0,0,1-13.087-4.787,2.117,2.117,0,0,1,2.765-3.207,15.948,15.948,0,0,0,12.5,3.62,16.656,16.656,0,0,0,11.664-7.356,2.117,2.117,0,1,1,3.5,2.381,20.75,20.75,0,0,1-17.342,9.349Z" transform="translate(-884.489 -707.512)" fill="#923616"/>
        <path id="Trazado_633637" data-name="Trazado 633637" d="M1011.116,756.318l-27.13-3.552-59.578-7.773s19.422-34,27.884-36.324c5.9-1.636,19.12-2.218,31.845,2.95a46.177,46.177,0,0,1,15.739,10.464C1015.443,738.038,1011.116,756.318,1011.116,756.318Z" transform="translate(-884.489 -707.512)" fill="#edc394"/>
        <path id="Trazado_633638" data-name="Trazado 633638" d="M1011.116,756.318l-27.13-3.552-.064-.13c-.9-2.863,4.5-13.5,4.047-15.588s-12.445-2.541-14.383-3.446c-1.959-.9,13.479-1.937,13.479-3.746,0-1.787-15.438-5.534-15.137-8.376.3-2.863,21.123,6.438,19.185,0-.84-2.777-3.833-6.5-6.976-9.861a46.177,46.177,0,0,1,15.739,10.464C1015.443,738.038,1011.116,756.318,1011.116,756.318Z" transform="translate(-884.489 -707.512)" fill="#e2b67e"/>
        <path id="Trazado_633639" data-name="Trazado 633639" d="M944.055,772.253a13.007,13.007,0,0,0,1.311,0c3.558-.177,6.814-1.944,10.222-2.98a26,26,0,0,1,21.307,3.161,31.836,31.836,0,0,1,8.259,8.258c2.063,2.79,4.333,6.312,7.637,7.759,6.427,2.816,12.219,17.149,13.1,35.3,0,0,1.654-30.432,5.779-30.032,0,0,5.019-1.638,7.62,6.477,0,0,5.3-21.445-5.977-34.414s-51.873-27.741-72.51-20.975-31.236,11.39-32.59,13.871c-.773,1.419-.212,4.154-.129,5.664.194,3.489.536,6.972.891,10.448a72.422,72.422,0,0,0,2.016,9.574c.484,2.08.888,4.182,1.332,6.272.321,1.511,1.322,3.855,1.142,5.374.679-5.844,1.793-11.8,4.854-16.823s8.435-8.99,14.318-8.919C936.506,770.317,940.221,772.054,944.055,772.253Z" transform="translate(-884.489 -707.512)" fill="#923616"/>
        <path id="Trazado_633640" data-name="Trazado 633640" d="M1008.394,828.966l.046-.046a.728.728,0,0,1,.14-.164c1.378-1.914,11.44-16.506,7.541-33.409-.14-.583-.3-1.144-.467-1.7-5.556-17.58-33.853-35-56.756-37.332-22.6-2.287-33.759.164-42.677,13.121-.421.584-.841,1.191-1.238,1.845l2.241,28.062-4.085,7.728-3.222,6.07s-26.732-9.758-25.378-38.358c1.331-28.6,49.589-34.273,84.025-31.308s70.6,23.813,72.235,50.779C1042.409,821.192,1008.394,828.966,1008.394,828.966Z" transform="translate(-884.489 -707.512)" fill="#d8ab78"/>
        <path id="Trazado_633641" data-name="Trazado 633641" d="M1008.58,828.756c1.378-1.914,11.44-16.506,7.541-33.409-.14-.583-.3-1.144-.467-1.7-5.556-17.58-33.853-35-56.756-37.332-22.6-2.287-33.759.164-42.677,13.121-.421.584-.841,1.191-1.238,1.845l2.241,28.062-4.085,7.728a58.48,58.48,0,0,1-6.537-16.646,143.982,143.982,0,0,1-2.218-16.9s-12.841-.98-12.351-3.082c.491-2.124,13.308.327,14.616,0s-7.635-2.288-7.8-3.9c-.164-1.634,11.066.654,11.066.654s8.031-18.724,39.176-19.191c31.121-.467,58.81,12.841,72.748,31.845C1035.1,797.915,1010.961,826.048,1008.58,828.756Z" transform="translate(-884.489 -707.512)" fill="#c49263"/>
      </g>
    </g>
  </g>
</svg>
