<svg xmlns="http://www.w3.org/2000/svg" width="129.022" height="111.699" viewBox="0 0 129.022 111.699">
  <g id="Grupo_927034" data-name="Grupo 927034" transform="translate(-838.813 -1318.042)">
    <path id="Trazado_633646" data-name="Trazado 633646" d="M308.252-224.482c0,28.432-14.28,51.481-45.709,51.481s-83.313-20.294-83.313-48.726S234.219-284.7,265.648-284.7,308.252-252.914,308.252-224.482Z" transform="translate(659.583 1602.742)" fill="#ffe6a1"/>
    <g id="impuestos" transform="translate(875.26 1336.324)">
      <g id="Grupo_926933" data-name="Grupo 926933" transform="translate(1.237 1.237)">
        <g id="Grupo_926918" data-name="Grupo 926918" transform="translate(0 4.947)">
          <path id="Trazado_633703" data-name="Trazado 633703" d="M50.468,74.256H1V7.473A2.473,2.473,0,0,1,3.473,5H50.468Z" transform="translate(-1 -5)" fill="#f0d0b4"/>
        </g>
        <g id="Grupo_926919" data-name="Grupo 926919" transform="translate(4.947 44.521)">
          <path id="Trazado_633704" data-name="Trazado 633704" d="M44.575,37v7.42H42.1a2.481,2.481,0,0,0-2.473,2.473v2.473A2.481,2.481,0,0,0,42.1,51.84a2.481,2.481,0,0,0-2.473,2.473v2.473A2.481,2.481,0,0,0,42.1,59.261a2.481,2.481,0,0,0-2.473,2.473H5V37H44.575Z" transform="translate(-5 -37)" fill="#e6e9ed"/>
        </g>
        <g id="Grupo_926920" data-name="Grupo 926920" transform="translate(39.575 59.362)">
          <path id="Trazado_633705" data-name="Trazado 633705" d="M47.84,49h2.473a2.481,2.481,0,0,1,2.473,2.473v2.473a2.481,2.481,0,0,1-2.473,2.473H35.473A2.481,2.481,0,0,1,33,53.947V51.473A2.481,2.481,0,0,1,35.473,49H47.84Z" transform="translate(-33 -49)" fill="#ffc729"/>
        </g>
        <g id="Grupo_926921" data-name="Grupo 926921" transform="translate(56.888 61.835)">
          <path id="Trazado_633706" data-name="Trazado 633706" d="M59.367,51H61.84a2.481,2.481,0,0,1,2.473,2.473v2.473A2.481,2.481,0,0,1,61.84,58.42H49.473A2.481,2.481,0,0,0,47,55.947a2.481,2.481,0,0,0,2.473-2.473V51h9.894Z" transform="translate(-47 -51)" fill="#ffc729"/>
        </g>
        <g id="Grupo_926922" data-name="Grupo 926922" transform="translate(49.468 46.995)">
          <path id="Trazado_633707" data-name="Trazado 633707" d="M45.947,39H63.261a2.481,2.481,0,0,1,2.473,2.473v2.473a2.481,2.481,0,0,1-2.473,2.473H50.894a2.481,2.481,0,0,0-2.473-2.473H41V41.473A2.481,2.481,0,0,1,43.473,39Z" transform="translate(-41 -39)" fill="#ffc729"/>
        </g>
        <g id="Grupo_926923" data-name="Grupo 926923" transform="translate(56.888 54.415)">
          <path id="Trazado_633708" data-name="Trazado 633708" d="M59.367,45H61.84a2.481,2.481,0,0,1,2.473,2.473v2.473A2.481,2.481,0,0,1,61.84,52.42H49.473A2.481,2.481,0,0,0,47,49.947a2.481,2.481,0,0,0,2.473-2.473V45h9.894Z" transform="translate(-47 -45)" fill="#fcd770"/>
        </g>
        <g id="Grupo_926924" data-name="Grupo 926924" transform="translate(49.468 39.575)">
          <path id="Trazado_633709" data-name="Trazado 633709" d="M45.947,33H63.261a2.481,2.481,0,0,1,2.473,2.473v2.473a2.481,2.481,0,0,1-2.473,2.473H43.473A2.481,2.481,0,0,1,41,37.947V35.473A2.481,2.481,0,0,1,43.473,33Z" transform="translate(-41 -33)" fill="#fcd770"/>
        </g>
        <g id="Grupo_926925" data-name="Grupo 926925" transform="translate(42.048)">
          <path id="Trazado_633710" data-name="Trazado 633710" d="M67.154,3.473V23.261a2.481,2.481,0,0,1-2.473,2.473H54.787L52.87,29.58a2.011,2.011,0,0,1-3.586,0l-1.917-3.846H37.473A2.481,2.481,0,0,1,35,23.261V3.473A2.481,2.481,0,0,1,37.473,1H64.681A2.481,2.481,0,0,1,67.154,3.473Z" transform="translate(-35 -1)" fill="#e6e9ed"/>
        </g>
        <g id="Grupo_926926" data-name="Grupo 926926" transform="translate(61.835 14.84)">
          <circle id="Elipse_4825" data-name="Elipse 4825" cx="2.5" cy="2.5" r="2.5" transform="translate(-0.396 -0.401)" fill="#ff826e"/>
        </g>
        <g id="Grupo_926927" data-name="Grupo 926927" transform="translate(39.575 66.782)">
          <path id="Trazado_633711" data-name="Trazado 633711" d="M47.84,55h2.473a2.481,2.481,0,0,1,2.473,2.473v2.473a2.481,2.481,0,0,1-2.473,2.473H35.473A2.481,2.481,0,0,1,33,59.947V57.473A2.481,2.481,0,0,1,35.473,55H47.84Z" transform="translate(-33 -55)" fill="#fcd770"/>
        </g>
        <g id="Grupo_926928" data-name="Grupo 926928" transform="translate(39.575 51.942)">
          <path id="Trazado_633712" data-name="Trazado 633712" d="M47.84,43h2.473a2.481,2.481,0,0,1,2.473,2.473v2.473a2.481,2.481,0,0,1-2.473,2.473H35.473A2.481,2.481,0,0,1,33,47.947V45.473A2.481,2.481,0,0,1,35.473,43H47.84Z" transform="translate(-33 -43)" fill="#fcd770"/>
        </g>
        <g id="Grupo_926929" data-name="Grupo 926929" transform="translate(49.468 4.947)">
          <ellipse id="Elipse_4826" data-name="Elipse 4826" cx="2.5" cy="2" rx="2.5" ry="2" transform="translate(-0.029 0.492)" fill="#ff826e"/>
        </g>
        <g id="Grupo_926930" data-name="Grupo 926930" transform="translate(34.628 39.575)">
          <path id="Trazado_633713" data-name="Trazado 633713" d="M29,33h9.894v4.947H29Z" transform="translate(-29 -33)" fill="#b4dd7f"/>
        </g>
        <g id="Grupo_926931" data-name="Grupo 926931" transform="translate(14.84 39.575)">
          <path id="Trazado_633714" data-name="Trazado 633714" d="M13,33H32.787v4.947H13Z" transform="translate(-13 -33)" fill="#fcd770"/>
        </g>
        <g id="Grupo_926932" data-name="Grupo 926932" transform="translate(4.947 39.575)">
          <path id="Trazado_633715" data-name="Trazado 633715" d="M5,33h9.894v4.947H5Z" transform="translate(-5 -33)" fill="#ff826e"/>
        </g>
      </g>
      <g id="Grupo_926934" data-name="Grupo 926934">
        <path id="Trazado_633716" data-name="Trazado 633716" d="M54.887,27.208l1.578,3.157a3.239,3.239,0,0,0,5.793,0l1.578-3.157h9.129a3.715,3.715,0,0,0,3.71-3.71V3.71A3.715,3.715,0,0,0,72.966,0H45.758a3.715,3.715,0,0,0-3.71,3.71V4.947H3.71A3.715,3.715,0,0,0,0,8.657V72.966a3.715,3.715,0,0,0,3.71,3.71H58.125a3.715,3.715,0,0,0,3.71-3.71V71.729h11.13a3.715,3.715,0,0,0,3.71-3.71V65.545a3.686,3.686,0,0,0-.965-2.473,3.68,3.68,0,0,0,.965-2.473V58.125a3.686,3.686,0,0,0-.965-2.473,3.68,3.68,0,0,0,.965-2.473V50.7a3.686,3.686,0,0,0-.965-2.473,3.68,3.68,0,0,0,.965-2.473V43.285a3.715,3.715,0,0,0-3.71-3.71H53.178a3.668,3.668,0,0,0-1.237.228V27.208ZM44.521,3.71a1.238,1.238,0,0,1,1.237-1.237H72.966A1.238,1.238,0,0,1,74.2,3.71V23.5a1.238,1.238,0,0,1-1.237,1.237H62.308l-2.262,4.524a.792.792,0,0,1-1.367,0l-2.263-4.524H45.758A1.238,1.238,0,0,1,44.521,23.5ZM51.942,50.7a1.238,1.238,0,0,1,1.237-1.237h1.237v2.473H51.942Zm9.894,1.237V49.468h2.473v2.473h2.473V49.468h2.482c-.009.628-.009,1.427-.009,2.473h2.473s0-1.4,0-2.473h1.238A1.238,1.238,0,0,1,74.2,50.7v2.473a1.238,1.238,0,0,1-1.237,1.237H61.608a3.705,3.705,0,0,0-3.483-2.473H56.888V49.468h2.473v2.473ZM74.2,58.125V60.6a1.238,1.238,0,0,1-1.237,1.237H61.608a3.676,3.676,0,0,0-.737-1.237,3.68,3.68,0,0,0,.965-2.473V56.888h2.473v2.473h2.473V56.888h2.482c-.009.628-.009,1.427-.009,2.473h2.473s0-1.4,0-2.473h1.238A1.238,1.238,0,0,1,74.2,58.125ZM43.285,66.782a1.238,1.238,0,0,1-1.237-1.237V63.072a1.238,1.238,0,0,1,1.237-1.237h1.237v2.473h2.473V61.835h2.473v2.473h2.473V61.835h2.473v2.473h2.473V61.835h1.237a1.238,1.238,0,0,1,1.237,1.237v2.473a1.238,1.238,0,0,1-1.237,1.237Zm8.657-9.894V54.415h2.473v2.473h2.473V54.415h1.237a1.238,1.238,0,0,1,1.237,1.237v2.473a1.238,1.238,0,0,1-1.237,1.237H43.285a1.238,1.238,0,0,1-1.237-1.237V55.652a1.238,1.238,0,0,1,1.237-1.237h1.237v2.473h2.473V54.415h2.473v2.473Zm-7.42-12.367H37.1V42.048h7.42Zm-9.894,0H17.314V42.048H34.628Zm0,14.84h-7.42V56.888h7.42ZM17.314,56.888h7.42v2.473h-7.42Zm17.314-2.473h-7.42V51.942h7.42Zm-9.894,0h-7.42V51.942h7.42Zm-7.42-4.947V46.995h7.42v2.473Zm0,12.367h7.42v2.473h-7.42Zm9.894,0h7.42v2.473h-7.42Zm7.42-12.367h-7.42V46.995h7.42ZM14.84,44.521H7.42V42.048h7.42ZM7.42,46.995h7.42V69.256H7.42Zm9.894,19.787h7.42v2.473h-7.42Zm9.894,0h7.42v2.473h-7.42ZM37.1,46.995h7.42v4.947H43.285a3.715,3.715,0,0,0-3.71,3.71v2.473a3.686,3.686,0,0,0,.965,2.473,3.68,3.68,0,0,0-.965,2.473v2.473a3.686,3.686,0,0,0,.965,2.473,3.676,3.676,0,0,0-.737,1.237H37.1ZM59.362,72.966A1.238,1.238,0,0,1,58.125,74.2H43.285a1.238,1.238,0,0,1-1.237-1.237V70.492a1.238,1.238,0,0,1,1.237-1.237h1.237v2.473h2.473V69.256h2.473v2.473h2.473V69.256h2.473v2.473h2.473V69.256h1.237a1.238,1.238,0,0,1,1.237,1.237ZM74.2,68.019a1.238,1.238,0,0,1-1.237,1.237H61.608a3.676,3.676,0,0,0-.737-1.237,3.68,3.68,0,0,0,.965-2.473V64.309h2.473v2.473h2.473V64.309h2.482c-.009.628-.009,1.427-.009,2.473h2.473s0-1.4,0-2.473h1.238A1.238,1.238,0,0,1,74.2,65.545ZM53.178,42.048h1.237v2.473h2.473V42.048h2.473v2.473h2.473V42.048h2.473v2.473h2.473V42.048h2.482c-.009.628-.009,1.427-.009,2.473h2.473s0-1.4,0-2.473h1.238A1.238,1.238,0,0,1,74.2,43.285v2.473a1.238,1.238,0,0,1-1.237,1.237H53.178a1.238,1.238,0,0,1-1.237-1.237V43.285A1.238,1.238,0,0,1,53.178,42.048Zm-3.71,1.237v2.473a3.686,3.686,0,0,0,.965,2.473,3.68,3.68,0,0,0-.965,2.473v1.237H46.995V39.575H4.947V71.729H39.575v1.237A3.668,3.668,0,0,0,39.8,74.2H3.71a1.238,1.238,0,0,1-1.237-1.237V8.657A1.238,1.238,0,0,1,3.71,7.42H42.048V23.5a3.715,3.715,0,0,0,3.71,3.71h3.71Z"/>
        <path id="Trazado_633717" data-name="Trazado 633717" d="M8.947,27.787v2.473H11.42V27.787a4.947,4.947,0,1,0,0-9.894H8.947a2.473,2.473,0,1,1,0-4.947H11.42a2.476,2.476,0,0,1,2.473,2.473h2.473a4.952,4.952,0,0,0-4.947-4.947V8H8.947v2.473a4.947,4.947,0,1,0,0,9.894H11.42a2.473,2.473,0,0,1,0,4.947H8.947A2.476,2.476,0,0,1,6.473,22.84V21.6H4V22.84A4.952,4.952,0,0,0,8.947,27.787Z" transform="translate(0.947 1.894)"/>
        <path id="Trazado_633718" data-name="Trazado 633718" d="M0,0H20.988V2.473H0Z" transform="translate(51.061 20.153) rotate(-45)"/>
        <path id="Trazado_633719" data-name="Trazado 633719" d="M50,15.71A3.71,3.71,0,1,0,53.71,12,3.715,3.715,0,0,0,50,15.71Zm4.947,0a1.237,1.237,0,1,1-1.237-1.237A1.238,1.238,0,0,1,54.947,15.71Z" transform="translate(11.835 2.84)"/>
        <path id="Trazado_633720" data-name="Trazado 633720" d="M43.71,11.42A3.71,3.71,0,1,0,40,7.71,3.715,3.715,0,0,0,43.71,11.42Zm0-4.947A1.237,1.237,0,1,1,42.473,7.71,1.238,1.238,0,0,1,43.71,6.473Z" transform="translate(9.468 0.947)"/>
        <path id="Trazado_633721" data-name="Trazado 633721" d="M4,28H46.048v2.473H4Z" transform="translate(0.947 6.628)"/>
        <path id="Trazado_633722" data-name="Trazado 633722" d="M16,8h2.473v2.473H16Z" transform="translate(3.787 1.894)"/>
        <path id="Trazado_633723" data-name="Trazado 633723" d="M20,8H34.84v2.473H20Z" transform="translate(4.734 1.894)"/>
        <path id="Trazado_633724" data-name="Trazado 633724" d="M16,12H35.787v2.473H16Z" transform="translate(3.787 2.84)"/>
        <path id="Trazado_633725" data-name="Trazado 633725" d="M16,16H35.787v2.473H16Z" transform="translate(3.787 3.787)"/>
        <path id="Trazado_633726" data-name="Trazado 633726" d="M16,20H35.787v2.473H16Z" transform="translate(3.787 4.734)"/>
        <path id="Trazado_633727" data-name="Trazado 633727" d="M16,24H35.787v2.473H16Z" transform="translate(3.787 5.681)"/>
      </g>
    </g>
  </g>
</svg>
