<svg xmlns="http://www.w3.org/2000/svg" width="129.022" height="111.699" viewBox="0 0 129.022 111.699">
  <g id="Grupo_927033" data-name="Grupo 927033" transform="translate(-218.768 -1318.042)">
    <path id="Trazado_633647" data-name="Trazado 633647" d="M308.252-224.482c0,28.432-14.28,51.481-45.709,51.481s-83.313-20.294-83.313-48.726S234.219-284.7,265.648-284.7,308.252-252.914,308.252-224.482Z" transform="translate(39.538 1602.742)" fill="#ffe6a1"/>
    <g id="expediente" transform="translate(229.576 1333.005)">
      <g id="Grupo_926899" data-name="Grupo 926899" transform="translate(28.906 1.554)">
        <g id="Grupo_926895" data-name="Grupo 926895" transform="translate(10.587 28.169)">
          <path id="Trazado_633693" data-name="Trazado 633693" d="M148.079,192.632a14.763,14.763,0,0,1-4.353-.652v35.106a4.1,4.1,0,0,1-4.1,4.1H105.476v4.258a4.1,4.1,0,0,0,4.1,4.1h40.634a4.1,4.1,0,0,0,4.1-4.1V191.256A14.711,14.711,0,0,1,148.079,192.632Z" transform="translate(-105.476 -191.256)" fill="#ccf5fc"/>
        </g>
        <g id="Grupo_926896" data-name="Grupo 926896" transform="translate(0 3.364)">
          <path id="Trazado_633694" data-name="Trazado 633694" d="M80.848,31.646H41.454a4.1,4.1,0,0,0-4.1,4.1V92.281a4.1,4.1,0,0,0,4.1,4.1H82.087a4.1,4.1,0,0,0,4.1-4.1v-34.8" transform="translate(-37.352 -31.646)" fill="#faf7f5"/>
        </g>
        <g id="Grupo_926897" data-name="Grupo 926897" transform="translate(38.421)">
          <ellipse id="Elipse_4823" data-name="Elipse 4823" cx="14.77" cy="14.773" rx="14.77" ry="14.773" fill="#ff7d97"/>
        </g>
        <g id="Grupo_926898" data-name="Grupo 926898" transform="translate(10.416 15.637)">
          <path id="Trazado_633695" data-name="Trazado 633695" d="M104.377,110.62h28v6.564h-28Z" transform="translate(-104.377 -110.62)" fill="#ffe6b4"/>
        </g>
      </g>
      <g id="Grupo_926917" data-name="Grupo 926917" transform="translate(27.352)">
        <g id="Grupo_926901" data-name="Grupo 926901" transform="translate(53.197 12.737)">
          <g id="Grupo_926900" data-name="Grupo 926900">
            <path id="Trazado_633696" data-name="Trazado 633696" d="M371.209,95.691a1.554,1.554,0,0,1-1.554-1.554V83.51a1.554,1.554,0,1,1,3.108,0V94.137A1.554,1.554,0,0,1,371.209,95.691Z" transform="translate(-369.655 -81.956)"/>
          </g>
        </g>
        <g id="Grupo_926903" data-name="Grupo 926903" transform="translate(53.19 7.736)">
          <g id="Grupo_926902" data-name="Grupo 926902">
            <circle id="Elipse_4824" data-name="Elipse 4824" cx="1.554" cy="1.554" r="1.554"/>
          </g>
        </g>
        <g id="Grupo_926906" data-name="Grupo 926906">
          <path id="Trazado_633697" data-name="Trazado 633697" d="M98.42,16.327A16.315,16.315,0,0,0,72.182,3.364H33.008A5.662,5.662,0,0,0,27.352,9.02V65.553a5.662,5.662,0,0,0,5.656,5.656h4.931v2.7a5.662,5.662,0,0,0,5.656,5.656H84.228a5.662,5.662,0,0,0,5.656-5.656V52.358a1.554,1.554,0,1,0-3.108,0V73.913a2.551,2.551,0,0,1-2.548,2.548H43.595a2.551,2.551,0,0,1-2.548-2.548v-2.7H73.641A5.662,5.662,0,0,0,79.3,65.553V32.413a16.383,16.383,0,0,0,7.479-.443v6.337a1.554,1.554,0,1,0,3.108,0V30.673A16.341,16.341,0,0,0,98.42,16.327ZM76.189,65.553A2.551,2.551,0,0,1,73.641,68.1H33.008a2.551,2.551,0,0,1-2.548-2.548V9.02a2.551,2.551,0,0,1,2.548-2.548H69.089a16.241,16.241,0,0,0-3.3,9.165H39.322a1.554,1.554,0,0,0-1.554,1.554v6.564a1.554,1.554,0,0,0,1.554,1.554h28a1.547,1.547,0,0,0,.94-.317,16.419,16.419,0,0,0,7.922,6.555ZM65.773,18.745V22.2h-24.9V18.745ZM82.1,29.545A13.219,13.219,0,1,1,95.312,16.327,13.232,13.232,0,0,1,82.1,29.545Z" transform="translate(-27.352)"/>
          <g id="Grupo_926905" data-name="Grupo 926905" transform="translate(59.427 43.754)">
            <g id="Grupo_926904" data-name="Grupo 926904">
              <path id="Trazado_633698" data-name="Trazado 633698" d="M411.293,284.646a1.554,1.554,0,1,1,1.514-1.2A1.569,1.569,0,0,1,411.293,284.646Z" transform="translate(-409.742 -281.541)"/>
            </g>
          </g>
        </g>
        <g id="Grupo_926916" data-name="Grupo 926916" transform="translate(10.416 30.714)">
          <g id="Grupo_926915" data-name="Grupo 926915">
            <g id="Grupo_926908" data-name="Grupo 926908">
              <g id="Grupo_926907" data-name="Grupo 926907">
                <path id="Trazado_633699" data-name="Trazado 633699" d="M123.935,200.741h-28a1.554,1.554,0,0,1,0-3.108h28a1.554,1.554,0,0,1,0,3.108Z" transform="translate(-94.377 -197.633)"/>
              </g>
            </g>
            <g id="Grupo_926910" data-name="Grupo 926910" transform="translate(0 7.371)">
              <g id="Grupo_926909" data-name="Grupo 926909">
                <path id="Trazado_633700" data-name="Trazado 633700" d="M123.935,248.171h-28a1.554,1.554,0,1,1,0-3.108h28a1.554,1.554,0,1,1,0,3.108Z" transform="translate(-94.377 -245.063)"/>
              </g>
            </g>
            <g id="Grupo_926912" data-name="Grupo 926912" transform="translate(0 14.742)">
              <g id="Grupo_926911" data-name="Grupo 926911">
                <path id="Trazado_633701" data-name="Trazado 633701" d="M123.935,295.6h-28a1.554,1.554,0,1,1,0-3.108h28a1.554,1.554,0,1,1,0,3.108Z" transform="translate(-94.377 -292.493)"/>
              </g>
            </g>
            <g id="Grupo_926914" data-name="Grupo 926914" transform="translate(0 22.113)">
              <g id="Grupo_926913" data-name="Grupo 926913">
                <path id="Trazado_633702" data-name="Trazado 633702" d="M123.935,343.031h-28a1.554,1.554,0,1,1,0-3.108h28a1.554,1.554,0,1,1,0,3.108Z" transform="translate(-94.377 -339.923)"/>
              </g>
            </g>
          </g>
        </g>
      </g>
    </g>
  </g>
</svg>
