<svg xmlns="http://www.w3.org/2000/svg" width="59.042" height="78.775" viewBox="0 0 59.042 78.775">
  <g id="mujer-policia" transform="translate(-64.128 0)">
    <path id="Trazado_633383" data-name="Trazado 633383" d="M132.062,12.434,113.562,7.5l-18.5,4.933-7.4,12.333,7.4,7.4h37l7.4-7.4Z" transform="translate(-19.913 -6.347)" fill="#8cb4eb"/>
    <path id="Trazado_633384" data-name="Trazado 633384" d="M103.719,267.1v-5.118c0-11.655,4.93-14.245,4.93-22.015h12.333V267.1Z" transform="translate(-33.5 -203.048)" fill="#5a4650"/>
    <path id="Trazado_633385" data-name="Trazado 633385" d="M123.424,341.2l-12.738-4.5a4.933,4.933,0,0,1-3.291-4.652v-3.9h-14.8v3.9A4.933,4.933,0,0,1,89.3,336.7l-12.738,4.5a7.4,7.4,0,0,0-4.937,6.978v7.1h56.733v-7.1A7.4,7.4,0,0,0,123.424,341.2Z" transform="translate(-6.346 -277.658)" fill="#e3aa75"/>
    <path id="Trazado_633386" data-name="Trazado 633386" d="M123.424,386.988l-12.738-4.5a4.887,4.887,0,0,1-.519-.23l-10.173,6.474-10.173-6.474a4.909,4.909,0,0,1-.519.23l-12.738,4.5a7.4,7.4,0,0,0-4.937,6.978v7.1h56.733v-7.1A7.4,7.4,0,0,0,123.424,386.988Z" transform="translate(-6.346 -323.449)" fill="#8cb4eb"/>
    <path id="Trazado_633387" data-name="Trazado 633387" d="M215.3,334.313a18.259,18.259,0,0,0,7.4-1.578v-4.589H207.9v4.589A18.262,18.262,0,0,0,215.3,334.313Z" transform="translate(-121.654 -277.659)" fill="#d29b6e"/>
    <path id="Trazado_633388" data-name="Trazado 633388" d="M158.577,140.075h-1.85v-4.933a7.4,7.4,0,0,0-7.4-7.4H132.06a7.4,7.4,0,0,0-7.4,7.4v4.933h-1.85a3.083,3.083,0,1,0,0,6.167h1.912a16.017,16.017,0,0,0,31.942,0h1.912a3.083,3.083,0,1,0,0-6.167Z" transform="translate(-47.045 -108.089)" fill="#f5b97d"/>
    <path id="Trazado_633389" data-name="Trazado 633389" d="M140.692,148.447c5.842,0,11.929-.911,16.033-2.822v-3.7a7.391,7.391,0,0,0-3.313-6.167H127.971a7.39,7.39,0,0,0-3.313,6.167v4.933h-1.674a3.2,3.2,0,0,0-3.243,2.765,3.084,3.084,0,0,0,3.067,3.4h1.912a15.919,15.919,0,0,0,18.446,14.592,16.023,16.023,0,0,1-13.574-15.826h0a3.813,3.813,0,0,1,4.326-3.766A53.989,53.989,0,0,0,140.692,148.447Z" transform="translate(-47.043 -114.871)" fill="#e3aa75"/>
    <g id="Grupo_926794" data-name="Grupo 926794" transform="translate(75.149 23.353)">
      <path id="Trazado_633390" data-name="Trazado 633390" d="M346.35,160.684l2.76.331V151.79h-4.933v6.445A2.467,2.467,0,0,0,346.35,160.684Z" transform="translate(-312.111 -151.79)" fill="#5a4650"/>
      <path id="Trazado_633391" data-name="Trazado 633391" d="M138.519,160.684l-2.76.331V151.79h4.933v6.445A2.467,2.467,0,0,1,138.519,160.684Z" transform="translate(-135.759 -151.79)" fill="#5a4650"/>
    </g>
    <path id="Trazado_633392" data-name="Trazado 633392" d="M154.258,157.958c-10.217,0-18.5-2.761-18.5-6.167h37C172.758,155.2,164.475,157.958,154.258,157.958Z" transform="translate(-60.609 -128.437)" fill="#6e5a64"/>
    <path id="Trazado_633393" data-name="Trazado 633393" d="M241.281,456.4l-3.722.1-1.142,7.3h6.026Z" transform="translate(-145.781 -386.184)" fill="#64505a"/>
    <path id="Trazado_633394" data-name="Trazado 633394" d="M171.525,103.695H136.992a1.233,1.233,0,0,0-1.233,1.233V111.1h37v-6.167A1.233,1.233,0,0,0,171.525,103.695Z" transform="translate(-60.61 -87.741)" fill="#739bd7"/>
    <path id="Trazado_633395" data-name="Trazado 633395" d="M235.653,64.23h0a3.7,3.7,0,0,1-3.7-3.7V55.6h7.4V60.53A3.7,3.7,0,0,1,235.653,64.23Z" transform="translate(-142.004 -47.043)" fill="#ffe17d"/>
    <path id="Trazado_633396" data-name="Trazado 633396" d="M154.884,384.846l3.927,8.835a4.933,4.933,0,0,0,7.666,1.786l3.777-3.148,3.778,3.148a4.933,4.933,0,0,0,7.666-1.786l3.926-8.835a4.891,4.891,0,0,0,.221-.624l-4.9-1.729a4.9,4.9,0,0,1-.518-.23l-10.173,6.474-10.173-6.474a4.91,4.91,0,0,1-.518.23l-4.9,1.729A4.924,4.924,0,0,0,154.884,384.846Z" transform="translate(-76.606 -323.45)" fill="#739bd7"/>
    <path id="Trazado_633397" data-name="Trazado 633397" d="M231.4,423.158h-1.273a2.466,2.466,0,0,1-2.354-1.73l-1.6-5.1h9.177l-1.6,5.1A2.466,2.466,0,0,1,231.4,423.158Z" transform="translate(-137.117 -352.27)" fill="#5a4650"/>
    <g id="Grupo_926795" data-name="Grupo 926795" transform="translate(81.553 55.931)">
      <path id="Trazado_633398" data-name="Trazado 633398" d="M181.718,363.891l7.761,7.761-6.146,5.122a1.233,1.233,0,0,1-1.917-.446l-3.926-8.835a1.234,1.234,0,0,1,.255-1.373l2.229-2.229A1.233,1.233,0,0,1,181.718,363.891Z" transform="translate(-177.384 -363.53)" fill="#8cb4eb"/>
      <path id="Trazado_633399" data-name="Trazado 633399" d="M263.761,363.891,256,371.652l6.146,5.122a1.233,1.233,0,0,0,1.917-.446l3.926-8.835a1.234,1.234,0,0,0-.255-1.373l-2.229-2.229A1.233,1.233,0,0,0,263.761,363.891Z" transform="translate(-243.904 -363.53)" fill="#8cb4eb"/>
    </g>
    <path id="Trazado_633400" data-name="Trazado 633400" d="M235.652,64.23h0a3.7,3.7,0,0,1-3.7-3.7V55.6h3.7Z" transform="translate(-142.003 -47.043)" fill="#ffd164"/>
    <path id="Trazado_633401" data-name="Trazado 633401" d="M229.306,276.09a6.522,6.522,0,0,0,4.51-1.566,1.154,1.154,0,0,0-1.621-1.643,5.085,5.085,0,0,1-5.779,0,1.154,1.154,0,1,0-1.621,1.643A6.522,6.522,0,0,0,229.306,276.09Z" transform="translate(-135.657 -230.616)"/>
    <path id="Trazado_633402" data-name="Trazado 633402" d="M201.558,211.962a1.154,1.154,0,0,0,1.154-1.154v-1.233a1.154,1.154,0,1,0-2.308,0v1.233A1.154,1.154,0,0,0,201.558,211.962Z" transform="translate(-115.309 -176.355)"/>
    <path id="Trazado_633403" data-name="Trazado 633403" d="M297.751,211.962a1.154,1.154,0,0,0,1.154-1.154v-1.233a1.154,1.154,0,1,0-2.308,0v1.233A1.154,1.154,0,0,0,297.751,211.962Z" transform="translate(-196.702 -176.355)"/>
    <path id="Trazado_633404" data-name="Trazado 633404" d="M117.462,62.456l-10.376-3.662a1.148,1.148,0,0,0-.288-.49l-2.828-2.828a2.379,2.379,0,0,0-1.768-.694V51.824a17.225,17.225,0,0,0,8.467-12.516h.863a4.236,4.236,0,0,0,1.771-8.085V26.3l7.062-7.062a1.154,1.154,0,0,0,.174-1.41l-7.4-12.333a1.154,1.154,0,0,0-.692-.521L93.946.039a1.153,1.153,0,0,0-.595,0l-18.5,4.934a1.154,1.154,0,0,0-.692.521l-7.4,12.333a1.154,1.154,0,0,0,.174,1.41L73.995,26.3v4.924a4.235,4.235,0,0,0-.021,7.687,19.349,19.349,0,0,1-1.978,7.012,29.856,29.856,0,0,0-2.93,13.2v3.652a8.568,8.568,0,0,0-4.937,7.75v7.1a1.154,1.154,0,0,0,2.308,0v-7.1a6.223,6.223,0,0,1,.4-2.2l5.835,5a3.775,3.775,0,0,1,1.32,2.87V77.62a1.154,1.154,0,0,0,2.308,0V76.189a6.081,6.081,0,0,0-2.126-4.622L68.06,66.325A6.229,6.229,0,0,1,70.6,64.632L80.889,61l3.642,8.2a2.368,2.368,0,0,0,1.64,1.355,2.416,2.416,0,0,0,.549.064,2.367,2.367,0,0,0,1.521-.554l1.121-.934.163.49a3.612,3.612,0,0,0,1.012,1.543l-1.04,6.27a1.154,1.154,0,1,0,2.277.378l.949-5.725c.078.005.157.009.236.009h1.378c.078,0,.156,0,.233-.009l.953,5.725a1.154,1.154,0,1,0,2.276-.379l-1.043-6.266a3.613,3.613,0,0,0,1.015-1.547l.163-.49,1.121.934a2.366,2.366,0,0,0,1.521.554,2.416,2.416,0,0,0,.549-.064,2.367,2.367,0,0,0,1.64-1.355l1.749-3.935a1.154,1.154,0,1,0-2.109-.937l-1.749,3.935a.073.073,0,0,1-.054.045.074.074,0,0,1-.069-.016l-5.175-4.313,6.868-6.868a.079.079,0,0,1,.112,0l2.268,2.268-.227.51A1.153,1.153,0,0,0,106.392,61l10.3,3.636a6.23,6.23,0,0,1,2.543,1.692l-6.117,5.243A6.08,6.08,0,0,0,111,76.189V77.62a1.154,1.154,0,1,0,2.308,0V76.189a3.775,3.775,0,0,1,1.32-2.87l5.835-5a6.219,6.219,0,0,1,.4,2.2v7.1a1.154,1.154,0,1,0,2.308,0v-7.1A8.568,8.568,0,0,0,117.462,62.456ZM78.928,28.341V29.52a1.315,1.315,0,0,1-1.313,1.313H76.3V26.969A13.359,13.359,0,0,0,78.928,28.341Zm2-1.722a11.529,11.529,0,0,1-4.01-2.112h33.454a11.529,11.529,0,0,1-4.01,2.112,41.871,41.871,0,0,1-12.717,1.747A41.87,41.87,0,0,1,80.932,26.619Zm27.437,1.722a13.352,13.352,0,0,0,2.625-1.372v3.864h-1.312a1.313,1.313,0,0,1-1.313-1.313ZM75.9,7.081,93.649,2.348,111.4,7.081l6.7,11.16L113.3,23.034V17.187a2.39,2.39,0,0,0-2.387-2.387h-1.233a1.154,1.154,0,1,0,0,2.308h1.233a.079.079,0,0,1,.079.079V22.2H76.3V17.187a.079.079,0,0,1,.079-.079H90.42a4.842,4.842,0,0,0,6.457,0h7.872a1.154,1.154,0,1,0,0-2.308H98.321a4.84,4.84,0,0,0,.182-1.313V8.554A1.154,1.154,0,0,0,97.349,7.4h-7.4a1.154,1.154,0,0,0-1.154,1.154v4.933a4.84,4.84,0,0,0,.182,1.313H76.382a2.39,2.39,0,0,0-2.387,2.387v5.848L69.2,18.241Zm20.3,6.406a2.546,2.546,0,1,1-5.092,0V9.707H96.2v3.779ZM75.765,33.141h1.85a3.625,3.625,0,0,0,3.621-3.621v-.393a46.116,46.116,0,0,0,12.413,1.547,46.123,46.123,0,0,0,12.413-1.547v.393a3.621,3.621,0,0,0,3.621,3.621h1.85a1.929,1.929,0,1,1,0,3.859h-.7c0-.026,0-.053,0-.079a1.154,1.154,0,1,0-2.308,0,14.879,14.879,0,0,1-29.759,0,1.154,1.154,0,0,0-2.308,0c0,.027,0,.053,0,.079h-.7a1.929,1.929,0,0,1,0-3.859ZM74.117,46.828a21.825,21.825,0,0,0,2.145-7.52h.366a17.225,17.225,0,0,0,8.467,12.516v2.958a2.379,2.379,0,0,0-1.767.694L80.5,58.3a1.148,1.148,0,0,0-.288.49l-8.838,3.119V59.12A27.527,27.527,0,0,1,74.117,46.828ZM86.764,68.289a.075.075,0,0,1-.069.016.073.073,0,0,1-.054-.045l-3.949-8.884,2.267-2.268a.079.079,0,0,1,.112,0l6.868,6.868Zm9.268-.748-.449,1.347a1.311,1.311,0,0,1-1.245.9H92.96a1.311,1.311,0,0,1-1.245-.9l-.449-1.347,2.383-1.986Zm-2.383-5.12L87.4,56.175V52.932a17.187,17.187,0,0,0,12.492,0v3.243Z" transform="translate(0 0)"/>
  </g>
</svg>
