<svg id="Bellboy" xmlns="http://www.w3.org/2000/svg" width="85.106" height="85.093" viewBox="0 0 85.106 85.093">
  <path id="Trazado_633405" data-name="Trazado 633405" d="M87.522,90.385H29.18l3.235-18.853a20.059,20.059,0,0,1,9.21-13.668,21.175,21.175,0,0,1,6.01-2.757,20.511,20.511,0,0,1,5.318-.727h11.94a20.094,20.094,0,0,1,9.369,2.961A20.1,20.1,0,0,1,84.269,71.523Z" transform="translate(-3.315 -6.179)" fill="#fb5968"/>
  <path id="Trazado_633406" data-name="Trazado 633406" d="M76.409,68.859c0,3.546-.106,1.56,1.923,21.557H52.92v-19.5a3.944,3.944,0,0,1,1.143-2.774l6.985-6.976a9.431,9.431,0,0,0,7.259-3.253,4.946,4.946,0,0,0,1.3-3.262,22.248,22.248,0,0,1,10.637,5.017A12.852,12.852,0,0,0,76.409,68.859Z" transform="translate(-6.013 -6.209)" fill="#d33159"/>
  <path id="Trazado_633407" data-name="Trazado 633407" d="M75.946,83.021c-.656-6.3-1.01-9.67-1.01-12.2a4.778,4.778,0,0,0-.647-2.5,1.533,1.533,0,0,0-2.836.629,70.442,70.442,0,0,0,.815,16.052,1.773,1.773,0,0,0,3.3.461A4.822,4.822,0,0,0,75.946,83.021Z" transform="translate(-8.102 -7.679)" fill="#fb5968"/>
  <path id="Trazado_633408" data-name="Trazado 633408" d="M68.289,67.521a2.056,2.056,0,0,0-2.659-2.234c-1.321.434-2.473.425-3.7,1.684l-3.678,3.776a4.8,4.8,0,0,0-1.365,3.359v9.147a4.813,4.813,0,0,0,4.84,4.813h5.008A2.384,2.384,0,0,0,69.1,85.32a69.935,69.935,0,0,1-.807-17.8Z" transform="translate(-6.464 -7.407)" fill="#fb5968"/>
  <path id="Trazado_633409" data-name="Trazado 633409" d="M84.286,71.531a20.121,20.121,0,0,0-9.174-13.668A20.538,20.538,0,0,0,63.775,54.38H51.818c-8.616.488-17.728,7.162-19.359,17.107l-3.28,18.9H87.522Zm-50.9,15.308,2.526-14.705a16.469,16.469,0,0,1,6.958-10.84l.337-.16c.257-.257.062-.115,1.073-.718A16.46,16.46,0,0,1,52,57.952c1.019-.053-.284,0,11.753,0a16.541,16.541,0,0,1,4.334.594,17.728,17.728,0,0,1,5.168,2.376,16.6,16.6,0,0,1,7.561,11.239l1.356,7.9a5.832,5.832,0,0,1-5.77,6.781Z" transform="translate(-3.315 -6.179)" fill="#d33159"/>
  <path id="Trazado_633410" data-name="Trazado 633410" d="M41.568,61.737a1.773,1.773,0,0,0,2.048,0,6.461,6.461,0,0,1,.9-.6c1.268-1.268,5.646-3.218,9.795-3.218h11.7a16.69,16.69,0,0,1,7.729,2.429l.833.505A16.6,16.6,0,0,1,82.138,72.09l.5,2.925a1.762,1.762,0,0,0,3.475-.585L85.6,71.5A20.121,20.121,0,0,0,76.43,57.863,20.537,20.537,0,0,0,65.093,54.38H53.136a21.6,21.6,0,0,0-11.612,4.432,1.773,1.773,0,0,0,.044,2.925Z" transform="translate(-4.633 -6.179)" fill="#ff9086"/>
  <path id="Trazado_633411" data-name="Trazado 633411" d="M47.253,65.174c0,25.359.151,24.287-.346,25.705H29.18l3.235-18.853a20.006,20.006,0,0,1,8.66-13.3,6.5,6.5,0,0,1,6.178,6.444Z" transform="translate(-3.315 -6.673)" fill="#d33159"/>
  <path id="Trazado_633412" data-name="Trazado 633412" d="M87.406,91.158H29.065a.886.886,0,0,1-.886-1.037l3.244-18.853A20.963,20.963,0,0,1,41.031,57a22.159,22.159,0,0,1,6.258-2.863,21.273,21.273,0,0,1,5.549-.753h12a20.883,20.883,0,0,1,9.75,3.093l.789.479A20.945,20.945,0,0,1,85,71.223l3.288,18.9a.886.886,0,0,1-.886,1.037ZM30.12,89.385H86.352L83.294,71.569a19.155,19.155,0,0,0-8.811-13.056,19.873,19.873,0,0,0-5.788-2.659,19.048,19.048,0,0,0-5.079-.691h-11.9a19.164,19.164,0,0,0-8.944,2.828l-.807.488a19.155,19.155,0,0,0-8.793,13.048Z" transform="translate(-3.2 -6.065)" fill="#302d3d"/>
  <path id="Trazado_633413" data-name="Trazado 633413" d="M76.8,91.834H42.233a.886.886,0,0,1-.886-.975c1.906-18.782,1.906-17.967,1.906-21.468a11.957,11.957,0,0,0-3.546-8.536A.89.89,0,1,1,40.965,59.6a13.765,13.765,0,0,1,4.051,9.795c0,3.652,0,3.156-1.773,20.67H75.818c-1.95-19.164-1.826-17.125-1.826-20.67a13.774,13.774,0,0,1,4.06-9.795.89.89,0,0,1,1.259,1.259,11.966,11.966,0,0,0-3.546,8.536c0,3.457-.177.886,1.915,21.468a.886.886,0,0,1-.878.975Z" transform="translate(-4.482 -6.742)" fill="#302d3d"/>
  <path id="Trazado_633414" data-name="Trazado 633414" d="M76.8,91.834H42.234a.886.886,0,0,1-.886-.975c1.906-18.827,1.915-18.02,1.915-21.468a12.161,12.161,0,0,0-3.546-8.536A.89.89,0,1,1,40.975,59.6a13.969,13.969,0,0,1,4.06,9.795c0,3.546,0,3-1.826,20.67h32.61c-1.338-13.2-2.012-18.472-1.773-21.069a13.721,13.721,0,0,1,3.98-9.307.891.891,0,1,1,1.321,1.188A12.01,12.01,0,0,0,75.8,69.391c0,3.546-.124,1.374,1.915,21.468a.886.886,0,0,1-.913.975Z" transform="translate(-4.483 -6.742)" fill="#302d3d"/>
  <path id="Trazado_633415" data-name="Trazado 633415" d="M67.243,53.9a7.242,7.242,0,0,1-11.833,0V45.31H67.243Z" transform="translate(-6.296 -5.148)" fill="#f4978e"/>
  <path id="Trazado_633416" data-name="Trazado 633416" d="M54.568,54.255c-.23-.328-.16.2-.16-9.059a.886.886,0,0,1,.886-.886H67.128a.886.886,0,0,1,.886.886c0,9.227.071,8.731-.16,9.059a8.128,8.128,0,0,1-13.287,0Zm1.613-.807a6.355,6.355,0,0,0,10.06,0V46.083H56.181Z" transform="translate(-6.181 -5.034)" fill="#302d3d"/>
  <path id="Trazado_633417" data-name="Trazado 633417" d="M76.166,31.831H42.971a3.2,3.2,0,0,1,0-6.391H76.166a3.2,3.2,0,0,1,0,6.391Z" transform="translate(-4.538 -2.89)" fill="#f4978e"/>
  <path id="Trazado_633418" data-name="Trazado 633418" d="M76.056,32.6H42.861a4.086,4.086,0,0,1,0-8.164H76.056a4.086,4.086,0,0,1,0,8.164ZM42.861,26.213a2.313,2.313,0,0,0,0,4.618h33.2a2.313,2.313,0,0,0,0-4.618Z" transform="translate(-4.427 -2.777)" fill="#302d3d"/>
  <path id="Trazado_633419" data-name="Trazado 633419" d="M75.024,22.923v6.807a14.847,14.847,0,1,1-29.685,0V22.923a14.847,14.847,0,0,1,29.685,0Z" transform="translate(-5.151 -0.959)" fill="#fbc4ab"/>
  <path id="Trazado_633420" data-name="Trazado 633420" d="M68.5,10.92H51.855A14.838,14.838,0,0,0,45.34,23.205v3.244h.505l1.941-.886a25.767,25.767,0,0,0,12-10.814c7.818,4.334,8.341,4.157,11.523,9.431a4.654,4.654,0,0,0,3.732,2.225v-3.2A14.794,14.794,0,0,0,68.5,10.92Z" transform="translate(-5.151 -1.241)" fill="#f4978e"/>
  <g id="Grupo_926796" data-name="Grupo 926796" transform="translate(39.302 6.605)">
    <path id="Trazado_633421" data-name="Trazado 633421" d="M60.064,45.352A15.742,15.742,0,0,1,44.34,29.619V22.811a15.733,15.733,0,0,1,31.458,0v6.807A15.751,15.751,0,0,1,60.064,45.352Zm0-36.528A13.952,13.952,0,0,0,46.113,22.811v6.807a13.961,13.961,0,1,0,27.912,0V22.811A13.96,13.96,0,0,0,60.064,8.824Z" transform="translate(-44.34 -7.451)" fill="#302d3d"/>
    <path id="Trazado_633422" data-name="Trazado 633422" d="M56.961,40.328a.9.9,0,0,1,1.188-1.356,5.052,5.052,0,0,0,6.639,0,.886.886,0,0,1,1.161,1.338,6.834,6.834,0,0,1-8.988.018Z" transform="translate(-45.739 -11.007)" fill="#302d3d"/>
    <path id="Trazado_633423" data-name="Trazado 633423" d="M68.606,29.739a.886.886,0,0,1-.886-.886V28.2a.886.886,0,1,1,1.773,0v.656A.886.886,0,0,1,68.606,29.739Z" transform="translate(-46.996 -9.708)" fill="#302d3d"/>
    <path id="Trazado_633424" data-name="Trazado 633424" d="M69.909,25.073H66.886a.886.886,0,0,1,0-1.773h3a.886.886,0,1,1,0,1.773Z" transform="translate(-46.801 -9.252)" fill="#302d3d"/>
    <path id="Trazado_633425" data-name="Trazado 633425" d="M55.336,29.739a.886.886,0,0,1-.886-.886V28.2a.886.886,0,1,1,1.773,0v.656A.886.886,0,0,1,55.336,29.739Z" transform="translate(-45.489 -9.708)" fill="#302d3d"/>
    <path id="Trazado_633426" data-name="Trazado 633426" d="M56.642,25.073h-3a.886.886,0,0,1,0-1.773h3a.886.886,0,0,1,0,1.773Z" transform="translate(-45.297 -9.252)" fill="#302d3d"/>
  </g>
  <path id="Trazado_633427" data-name="Trazado 633427" d="M74.975,8.428v4.024H45.29V8.428A7.428,7.428,0,0,1,52.709,1H67.547a7.428,7.428,0,0,1,7.428,7.428Z" transform="translate(-5.146 -0.114)" fill="#d33159"/>
  <path id="Trazado_633428" data-name="Trazado 633428" d="M76.129,8.428v4.024H55.45V8.428A7.428,7.428,0,0,1,62.878,1H68.7a7.428,7.428,0,0,1,7.428,7.428Z" transform="translate(-6.3 -0.114)" fill="#fb5968"/>
  <path id="Trazado_633429" data-name="Trazado 633429" d="M71.039,6.352a.957.957,0,0,0,.576-1.7,3.838,3.838,0,0,0-2.322-.78H63.487a3.856,3.856,0,0,0-2.322.78.957.957,0,0,0,.594,1.7Z" transform="translate(-6.909 -0.44)" fill="#fff"/>
  <path id="Trazado_633430" data-name="Trazado 633430" d="M74.861,13.225H45.176a.886.886,0,0,1-.886-.886V8.314A8.314,8.314,0,0,1,52.6,0H67.433a8.323,8.323,0,0,1,8.314,8.314v4.024a.886.886,0,0,1-.886.886Zm-28.8-1.773H73.975V8.314a6.55,6.55,0,0,0-6.541-6.541H52.6a6.541,6.541,0,0,0-6.533,6.541Z" transform="translate(-5.032)" fill="#302d3d"/>
  <path id="Trazado_633431" data-name="Trazado 633431" d="M45.29,9.38H74.975V13.4H45.29Z" transform="translate(-5.146 -1.066)" fill="#eec34b"/>
  <path id="Trazado_633432" data-name="Trazado 633432" d="M74.861,14.177H45.176a.886.886,0,0,1-.886-.886V9.266a.886.886,0,0,1,.886-.886H74.861a.886.886,0,0,1,.886.886v4.024A.886.886,0,0,1,74.861,14.177ZM46.063,12.4H73.975V10.153H46.063Z" transform="translate(-5.032 -0.952)" fill="#302d3d"/>
  <path id="Trazado_633433" data-name="Trazado 633433" d="M69.561,53.141a5.684,5.684,0,0,1-1.312,4.432,9.75,9.75,0,0,1-14.528,0,5.044,5.044,0,0,1-1.312-3.421v-1.01a1.773,1.773,0,0,1,2.367-1.6,17.479,17.479,0,0,0,12.409,0,1.773,1.773,0,0,1,2.376,1.6Z" transform="translate(-5.955 -5.843)" fill="#fb5968"/>
  <path id="Trazado_633434" data-name="Trazado 633434" d="M60.877,61.574a10.335,10.335,0,0,1-7.915-3.546A5.886,5.886,0,0,1,51.41,54v-.975A2.659,2.659,0,0,1,54.956,50.6a16.788,16.788,0,0,0,11.8,0A2.659,2.659,0,0,1,70.3,53.029v1.028a5.841,5.841,0,0,1-1.525,3.971,10.282,10.282,0,0,1-7.9,3.546ZM54.025,52.2a.833.833,0,0,0-.886.833c0,1.365-.089,2.579,1.081,3.838a8.864,8.864,0,0,0,13.225,0,4.937,4.937,0,0,0,1.073-3.838.833.833,0,0,0-1.161-.771A19.243,19.243,0,0,1,54.025,52.2Z" transform="translate(-5.841 -5.732)" fill="#302d3d"/>
  <path id="Trazado_633435" data-name="Trazado 633435" d="M60.991,52.68a17.415,17.415,0,0,1-6.2-1.143,1.773,1.773,0,0,0-2.369,1.6v1.019a5.043,5.043,0,0,0,1.312,3.421A9.467,9.467,0,0,0,60.991,60.8Z" transform="translate(-5.956 -5.844)" fill="#d33159"/>
  <path id="Trazado_633436" data-name="Trazado 633436" d="M60.877,61.574a10.335,10.335,0,0,1-7.915-3.546A5.886,5.886,0,0,1,51.41,54v-.975A2.659,2.659,0,0,1,54.956,50.6a16.7,16.7,0,0,0,5.9,1.073.886.886,0,0,1,.886.886v8.128a.886.886,0,0,1-.869.886ZM54.025,52.2a.833.833,0,0,0-.886.833c0,1.365-.089,2.579,1.081,3.838A8.465,8.465,0,0,0,59.99,59.8V53.428A22.807,22.807,0,0,1,54.025,52.2Z" transform="translate(-5.841 -5.732)" fill="#302d3d"/>
  <path id="Trazado_633437" data-name="Trazado 633437" d="M52.806,92.023a.886.886,0,0,1-.886-.886v-19.5a4.778,4.778,0,0,1,1.409-3.4l6.976-6.976a.887.887,0,0,1,1.259,1.25l-6.985,6.985a3.014,3.014,0,0,0-.886,2.145v19.5A.886.886,0,0,1,52.806,92.023Z" transform="translate(-5.899 -6.93)" fill="#302d3d"/>
  <circle id="Elipse_4811" data-name="Elipse 4811" cx="1.87" cy="1.87" r="1.87" transform="translate(50.453 63.181)" fill="#eec34b"/>
  <path id="Trazado_633438" data-name="Trazado 633438" d="M58.644,75.8A2.766,2.766,0,1,1,61.4,73.044,2.766,2.766,0,0,1,58.644,75.8Zm0-3.749a.993.993,0,1,0,.984.993.993.993,0,0,0-.984-.993Z" transform="translate(-6.348 -7.984)" fill="#302d3d"/>
  <circle id="Elipse_4812" data-name="Elipse 4812" cx="1.87" cy="1.87" r="1.87" transform="translate(50.453 70.193)" fill="#eec34b"/>
  <path id="Trazado_633439" data-name="Trazado 633439" d="M58.644,83.7A2.766,2.766,0,1,1,61.4,80.944,2.766,2.766,0,0,1,58.644,83.7Zm0-3.749a.993.993,0,1,0,.984.993.993.993,0,0,0-.984-.993Z" transform="translate(-6.348 -8.882)" fill="#302d3d"/>
  <circle id="Elipse_4813" data-name="Elipse 4813" cx="1.87" cy="1.87" r="1.87" transform="translate(50.453 77.195)" fill="#eec34b"/>
  <path id="Trazado_633440" data-name="Trazado 633440" d="M58.647,91.6A2.757,2.757,0,1,1,61.4,88.847,2.757,2.757,0,0,1,58.647,91.6Zm0-3.741a.984.984,0,1,0,.984.984A.984.984,0,0,0,58.647,87.863Z" transform="translate(-6.35 -9.781)" fill="#302d3d"/>
  <path id="Trazado_633441" data-name="Trazado 633441" d="M67.38,72.29h6.94v3.546H67.38Z" transform="translate(-7.656 -8.213)" fill="#6184a8"/>
  <path id="Trazado_633442" data-name="Trazado 633442" d="M74.207,76.608h-6.94a.886.886,0,0,1-.886-.886V72.176a.886.886,0,0,1,.886-.886h6.94a.886.886,0,0,1,.886.886v3.546A.886.886,0,0,1,74.207,76.608Zm-6.054-1.773H73.32V73.063H68.153Z" transform="translate(-7.542 -8.1)" fill="#302d3d"/>
  <path id="Trazado_633443" data-name="Trazado 633443" d="M57,13.92a22.957,22.957,0,0,1-10.725,9.591l-1.427.62H43.359a1.711,1.711,0,0,1-1.613-1.179,7.029,7.029,0,0,1,1.073-6.391l1.188-1.569a2.739,2.739,0,0,1,2.172-1.073Z" transform="translate(-4.704 -1.582)" fill="#52527b"/>
  <path id="Trazado_633444" data-name="Trazado 633444" d="M47.963,16.44h1.888a.94.94,0,0,1,.629,1.64c-4.662,4.219-8.208,4.707-4.6-.558a2.517,2.517,0,0,1,2.083-1.081Z" transform="translate(-5.045 -1.868)" fill="#6b7aa4"/>
  <path id="Trazado_633445" data-name="Trazado 633445" d="M43.246,24.906a2.562,2.562,0,0,1-2.455-1.773,7.9,7.9,0,0,1,1.223-7.2l1.2-1.569a3.608,3.608,0,0,1,2.872-1.427h10.8a.886.886,0,0,1,.771,1.321,23.932,23.932,0,0,1-11.142,9.945C44.549,25.066,45.294,24.906,43.246,24.906ZM46.083,14.7a1.835,1.835,0,0,0-1.463.727l-1.188,1.569a6.116,6.116,0,0,0-.957,5.584.8.8,0,0,0,.771.558h1.3l1.259-.55A22.009,22.009,0,0,0,55.266,14.7Z" transform="translate(-4.591 -1.47)" fill="#302d3d"/>
  <path id="Trazado_633446" data-name="Trazado 633446" d="M65.37,13.919c4.077,2.251,7.011,3.546,9.546,7.712l.886,1.551a1.977,1.977,0,0,0,3.6-.514,9.13,9.13,0,0,0-1.436-7.791c-.39-.541-.638-.966-1.294-.966Z" transform="translate(-7.427 -1.58)" fill="#52527b"/>
  <path id="Trazado_633447" data-name="Trazado 633447" d="M74.978,23.521l-.886-1.551c-2.42-4.015-5.389-5.274-9.21-7.392a.886.886,0,0,1,.425-1.658H76.565a2.065,2.065,0,0,1,1.649.833l.363.488a9.972,9.972,0,0,1,1.613,8.545,2.863,2.863,0,0,1-5.212.736Zm-6.284-8.864c4.379,2.42,5.726,4.432,7.809,7.915a1.081,1.081,0,0,0,1.977-.284,8.19,8.19,0,0,0-1.33-7.029c-.417-.567-.417-.6-.585-.6Z" transform="translate(-7.321 -1.468)" fill="#302d3d"/>
  <path id="Trazado_633448" data-name="Trazado 633448" d="M41.33,65.739v23.64a2.065,2.065,0,0,1-2.065,2.065H3.065A2.065,2.065,0,0,1,1,89.378V65.739A2.065,2.065,0,0,1,3.065,63.7h36.2a2.065,2.065,0,0,1,2.065,2.039Z" transform="translate(-0.114 -7.237)" fill="#f47048"/>
  <path id="Trazado_633449" data-name="Trazado 633449" d="M1,82.88v8.678a2.065,2.065,0,0,0,2.065,2.065h36.2a2.065,2.065,0,0,0,2.065-2.065V82.88Z" transform="translate(-0.114 -9.417)" fill="#db4848"/>
  <path id="Trazado_633450" data-name="Trazado 633450" d="M42.495,65.734v23.64a2.065,2.065,0,0,1-2.065,2.065H13.315a2.065,2.065,0,0,1-2.065-2.065V65.734a2.065,2.065,0,0,1,2.065-2.074H40.43a2.065,2.065,0,0,1,2.065,2.074Z" transform="translate(-1.278 -7.233)" fill="#f4a261"/>
  <path id="Trazado_633451" data-name="Trazado 633451" d="M11.25,86.92v5.1a2.065,2.065,0,0,0,2.065,2.065H40.43a2.065,2.065,0,0,0,2.065-2.065v-5.1Z" transform="translate(-1.278 -9.876)" fill="#ef894d"/>
  <path id="Trazado_633452" data-name="Trazado 633452" d="M23.82,69.7H20.975a2.234,2.234,0,0,0-2.225,2.225V74.5a.94.94,0,0,0,1.533.736A43.954,43.954,0,0,0,24.5,71.287.94.94,0,0,0,23.82,69.7Z" transform="translate(-2.13 -7.919)" fill="#ffca89"/>
  <path id="Trazado_633453" data-name="Trazado 633453" d="M27.65,70.147A43.858,43.858,0,0,1,19.673,77.8a2.11,2.11,0,0,0-.762,2.243c.408,1.321,1.861,1.135,6.568,1.081a3.3,3.3,0,0,0,2.836-1.693c1.214-2.2,3.2-5.841,4.379-7.977a1.161,1.161,0,0,0-1.028-1.72h-3.1a1.179,1.179,0,0,0-.913.417Z" transform="translate(-2.14 -7.923)" fill="#ffca89"/>
  <path id="Trazado_633454" data-name="Trazado 633454" d="M36.839,69.966c-.638,1.161-3.359,6.054-4.973,8.961a1.471,1.471,0,0,0,1.294,2.189h4.122a2.225,2.225,0,0,0,2.225-2.225V71.924C39.5,70.019,37.282,69.239,36.839,69.966Z" transform="translate(-3.599 -7.919)" fill="#ffca89"/>
  <path id="Trazado_633455" data-name="Trazado 633455" d="M39.151,92.213H2.952A2.961,2.961,0,0,1,0,89.261V65.622A2.961,2.961,0,0,1,2.952,62.67h36.2A2.961,2.961,0,0,1,42.1,65.622v23.64A2.961,2.961,0,0,1,39.151,92.213ZM2.952,64.478a1.179,1.179,0,0,0-1.179,1.143v23.64A1.188,1.188,0,0,0,2.952,90.44h36.2a1.188,1.188,0,0,0,1.179-1.179V65.622a1.179,1.179,0,0,0-1.179-1.179Z" transform="translate(0 -7.12)" fill="#302d3d"/>
  <path id="Trazado_633456" data-name="Trazado 633456" d="M31.728,62.843H27.9L26.409,59H19.318l-1.48,3.847H14l1.773-4.68a3.271,3.271,0,0,1,3.04-2.083h8.048a3.271,3.271,0,0,1,3.093,2.083Z" transform="translate(-1.591 -6.372)" fill="#6184a8"/>
  <rect id="Rectángulo_335023" data-name="Rectángulo 335023" width="6.019" height="2.916" rx="1.458" transform="translate(18.135 49.708)" fill="#93b1d5"/>
  <path id="Trazado_633457" data-name="Trazado 633457" d="M14.7,61.67,14,63.478h3.829l.7-1.808Z" transform="translate(-1.591 -7.007)" fill="#48578f"/>
  <path id="Trazado_633458" data-name="Trazado 633458" d="M28.89,61.67l.7,1.808h3.829l-.7-1.808Z" transform="translate(-3.282 -7.007)" fill="#48578f"/>
  <path id="Trazado_633459" data-name="Trazado 633459" d="M31.614,63.615H27.785a.886.886,0,0,1-.824-.567l-1.268-3.28H19.808l-1.268,3.28a.886.886,0,0,1-.824.567H13.887a.886.886,0,0,1-.824-1.205l1.773-4.68A4.166,4.166,0,0,1,18.7,55.07h8.048a4.166,4.166,0,0,1,3.865,2.659l1.773,4.68a.886.886,0,0,1-.771,1.205ZM28.4,61.842H30.32l-1.365-3.475a2.376,2.376,0,0,0-2.207-1.516H18.726a2.376,2.376,0,0,0-2.18,1.516l-1.338,3.475h1.923l1.241-3.288a.886.886,0,0,1,.824-.567h7.091a.886.886,0,0,1,.824.567Z" transform="translate(-1.477 -6.257)" fill="#302d3d"/>
  <path id="Trazado_633460" data-name="Trazado 633460" d="M11.076,69.712a.886.886,0,0,1-.886-.886V63.6a.886.886,0,0,1,1.773,0v5.23A.886.886,0,0,1,11.076,69.712Z" transform="translate(-1.158 -7.125)" fill="#302d3d"/>
  <path id="Trazado_633461" data-name="Trazado 633461" d="M11.811,77.508H10.039a1.17,1.17,0,0,1-1.17-1.17c0-4.122-.089-4.1.257-4.529l1.773-2.2c1.915,2.349,2.056,2.384,2.056,2.934v3.794a1.17,1.17,0,0,1-1.143,1.17Z" transform="translate(-1.006 -7.909)" fill="#b2d4f4"/>
  <path id="Trazado_633462" data-name="Trazado 633462" d="M11.7,78.277H9.926A2.056,2.056,0,0,1,7.87,76.221V72.427a2.03,2.03,0,0,1,.461-1.294l1.773-2.2a.886.886,0,0,1,1.427.018l1.773,2.2a2.083,2.083,0,0,1,.461,1.294v3.776A2.056,2.056,0,0,1,11.7,78.277Zm-.886-7.384c-1.188,1.454-1.17,1.392-1.17,1.533v3.794a.275.275,0,0,0,.275.284H11.69a.284.284,0,0,0,.284-.284c0-4.139,0-3.865-.062-3.971Z" transform="translate(-0.894 -7.792)" fill="#302d3d"/>
  <path id="Trazado_633463" data-name="Trazado 633463" d="M34,86.38h7.224v3.749H34Z" transform="translate(-3.863 -9.814)" fill="#b2d4f4"/>
  <path id="Trazado_633464" data-name="Trazado 633464" d="M41.11,90.893H33.886A.886.886,0,0,1,33,90.007V86.266a.886.886,0,0,1,.886-.886H41.11a.886.886,0,0,1,.886.886v3.741A.886.886,0,0,1,41.11,90.893Zm-6.338-1.773h5.451V87.153H34.773Z" transform="translate(-3.749 -9.701)" fill="#302d3d"/>
  <path id="Trazado_633465" data-name="Trazado 633465" d="M3.33,59.89h6.958v3.377H3.33Z" transform="translate(-0.378 -6.805)" fill="#6184a8"/>
  <path id="Trazado_633466" data-name="Trazado 633466" d="M10.183,64.05H3.216a.886.886,0,0,1-.886-.886V59.786a.886.886,0,0,1,.886-.886h6.967a.886.886,0,0,1,.886.886v3.377A.886.886,0,0,1,10.183,64.05ZM4.1,62.277H9.3v-1.6H4.1Z" transform="translate(-0.265 -6.692)" fill="#302d3d"/>
  <path id="Trazado_633467" data-name="Trazado 633467" d="M36.31,59.89h6.958v3.377H36.31Z" transform="translate(-4.125 -6.805)" fill="#6184a8"/>
  <path id="Trazado_633468" data-name="Trazado 633468" d="M43.163,64.05H36.2a.886.886,0,0,1-.886-.886V59.786A.886.886,0,0,1,36.2,58.9h6.967a.886.886,0,0,1,.886.886v3.377A.886.886,0,0,1,43.163,64.05Zm-6.081-1.773h5.194v-1.6H37.083Z" transform="translate(-4.012 -6.692)" fill="#302d3d"/>
</svg>
