<svg xmlns="http://www.w3.org/2000/svg" xmlns:xlink="http://www.w3.org/1999/xlink" width="295" height="452" viewBox="0 0 295 452">
  <defs>
    <clipPath id="clip-path">
      <rect id="Rectángulo_41607" data-name="Rectángulo 41607" width="287.163" height="286.009" fill="none"/>
    </clipPath>
    <clipPath id="clip-path-2">
      <rect id="Rectángulo_41589" data-name="Rectángulo 41589" width="346.455" height="286.009" fill="none"/>
    </clipPath>
    <clipPath id="clip-path-3">
      <rect id="Rectángulo_41582" data-name="Rectángulo 41582" width="236.034" height="22.425" fill="none"/>
    </clipPath>
    <clipPath id="clip-path-4">
      <rect id="Rectángulo_41583" data-name="Rectángulo 41583" width="78.508" height="68.825" fill="none"/>
    </clipPath>
    <clipPath id="clip-path-5">
      <rect id="Rectángulo_41584" data-name="Rectángulo 41584" width="25.501" height="61.603" fill="none"/>
    </clipPath>
    <clipPath id="clip-path-6">
      <rect id="Rectángulo_41585" data-name="Rectángulo 41585" width="37.264" height="33.547" fill="none"/>
    </clipPath>
    <clipPath id="clip-path-7">
      <rect id="Rectángulo_41586" data-name="Rectángulo 41586" width="35.459" height="93.546" fill="none"/>
    </clipPath>
    <clipPath id="clip-path-8">
      <rect id="Rectángulo_41587" data-name="Rectángulo 41587" width="44.123" height="61.649" fill="none"/>
    </clipPath>
    <clipPath id="clip-path-11">
      <rect id="Rectángulo_41592" data-name="Rectángulo 41592" width="48.523" height="37.414" fill="none"/>
    </clipPath>
    <clipPath id="clip-path-12">
      <rect id="Rectángulo_41604" data-name="Rectángulo 41604" width="3.3" height="31.01" fill="none"/>
    </clipPath>
    <clipPath id="clip-path-13">
      <rect id="Rectángulo_41605" data-name="Rectángulo 41605" width="6.991" height="35.773" fill="none"/>
    </clipPath>
  </defs>
  <g id="Grupo_212496" data-name="Grupo 212496" transform="translate(-810.333 -3145)">
    <rect id="Rectángulo_40397" data-name="Rectángulo 40397" width="295" height="452" rx="19" transform="translate(810.333 3145)" fill="#ffad9a"/>
    <g id="Grupo_212476" data-name="Grupo 212476" transform="translate(800.17 3268.135)">
      <g id="Grupo_212475" data-name="Grupo 212475" transform="translate(15)" clip-path="url(#clip-path)">
        <g id="Grupo_212461" data-name="Grupo 212461" transform="translate(-17.787)">
          <g id="Grupo_212460" data-name="Grupo 212460" clip-path="url(#clip-path-2)">
            <path id="Trazado_149624" data-name="Trazado 149624" d="M306.878,164.128A121.349,121.349,0,1,1,185.528,42.779,121.349,121.349,0,0,1,306.878,164.128" transform="translate(-11.331 -7.553)" fill="#81d2ff"/>
            <g id="Grupo_212444" data-name="Grupo 212444" transform="translate(67.492 263.583)" style="mix-blend-mode: multiply;isolation: isolate">
              <g id="Grupo_212443" data-name="Grupo 212443">
                <g id="Grupo_212442" data-name="Grupo 212442" clip-path="url(#clip-path-3)">
                  <path id="Trazado_149625" data-name="Trazado 149625" d="M115.15,321.656l-33.187,8.693,73.543,4.724-4.088,4.408,26.786.558-2.548,2.483H225.37c3.7,0,4.325-4.637,4.325-4.637h17.817l8.554-6.576,15.977,2.125,25.5-6.219L318,329.371l-16.05-9.275Z" transform="translate(-81.963 -320.096)" fill="#d3d3d3"/>
                </g>
              </g>
            </g>
            <path id="Trazado_149626" data-name="Trazado 149626" d="M94.732,254.653v11.509c7.719,1.41,20.2,2.672,38.8,2.672h79.077V226.392c-64.036,2.581-101.539,18.14-117.879,28.261" transform="translate(-16.725 -39.97)" fill="#eec957"/>
            <path id="Trazado_149627" data-name="Trazado 149627" d="M215.883,226.391v21.227l-79.631,2.424c-9.334,0-21.919-1.56-22.995-3.256,20.352-8.9,53.761-18.423,102.626-20.4" transform="translate(-19.996 -39.97)" fill="#6eb444"/>
            <path id="Trazado_149628" data-name="Trazado 149628" d="M163.521,213.2a10.764,10.764,0,0,1,18.47-8.232c.038-.105.069-.212.112-.316a6.482,6.482,0,0,1,10.965-1.708,11.815,11.815,0,1,1,16.292,15.293,16.328,16.328,0,0,1-20.642,18.888c-4.408,3.118-15.386,5.724-20.755,3.52-6.923-2.838-5.724-11.623-4.9-18.708a4.572,4.572,0,0,1-.583-.189,4.465,4.465,0,0,1,1.045-8.549" transform="translate(-28.196 -34.599)" fill="#589b43"/>
            <path id="Trazado_149629" data-name="Trazado 149629" d="M187.056,225.011A9.593,9.593,0,0,1,199.5,211.977c-.007-.1-.016-.2-.016-.3a5.777,5.777,0,0,1,8.463-5.114A10.489,10.489,0,0,1,221,196.7v38.033a14.4,14.4,0,0,1-5.081,1.482,14.547,14.547,0,0,1-26.291-3.844,4.234,4.234,0,0,1-.543.043,3.979,3.979,0,0,1-2.029-7.4" transform="translate(-32.68 -34.671)" fill="#99ca3c"/>
            <path id="Trazado_149630" data-name="Trazado 149630" d="M124.086,246.81a8.047,8.047,0,0,1,10.441-10.934c0-.085-.013-.166-.013-.252a4.844,4.844,0,0,1,7.1-4.292,8.834,8.834,0,1,1,15.608,5.959,12.2,12.2,0,0,1-8.922,18.919,12.2,12.2,0,0,1-22.056-3.225,3.968,3.968,0,0,1-.457.035,3.337,3.337,0,0,1-1.7-6.21" transform="translate(-21.618 -39.334)" fill="#589b43"/>
            <path id="Trazado_149631" data-name="Trazado 149631" d="M138.356,232.188s-.38-.45-1.01-1.28c-.324-.41-.715-.93-1.165-1.57s-.992-1.341-1.546-2.176l-1.849-2.759c-.66-1.014-1.337-2.139-2.081-3.322-.366-.6-.758-1.207-1.137-1.845s-.75-1.31-1.14-1.994c-.77-1.369-1.63-2.783-2.432-4.314s-1.637-3.122-2.5-4.771c-.217-.413-.436-.827-.656-1.246-.2-.428-.41-.856-.618-1.29q-.62-1.3-1.258-2.645t-1.3-2.717q-.327-.688-.659-1.385c-.2-.47-.407-.948-.612-1.425q-1.234-2.868-2.514-5.85c-.892-1.97-1.613-4.051-2.427-6.121-.79-2.083-1.623-4.176-2.4-6.312-.727-2.15-1.46-4.322-2.194-6.5s-1.515-4.35-2.123-6.578q-.972-3.328-1.94-6.641-.489-1.655-.968-3.3c-.307-1.1-.558-2.216-.839-3.319q-.821-3.309-1.626-6.559c-.53-2.165-1.1-4.292-1.5-6.423-.867-4.246-1.7-8.35-2.5-12.241-.671-3.915-1.236-7.628-1.8-11.05q-.414-2.569-.79-4.913c-.238-1.563-.374-3.055-.551-4.453-.331-2.8-.617-5.24-.854-7.248-.473-4.02-.744-6.316-.744-6.316l-1.183.108s.249,2.307.685,6.341c.218,2.017.483,4.467.786,7.278.163,1.4.286,2.9.511,4.472s.485,3.216.743,4.938c.529,3.44,1.062,7.173,1.7,11.108.759,3.917,1.56,8.044,2.39,12.317.375,2.143.93,4.288,1.439,6.468s1.045,4.386,1.573,6.608c.273,1.111.515,2.233.814,3.343s.625,2.221.94,3.333q.942,3.339,1.888,6.695c.593,2.25,1.364,4.442,2.073,6.647l2.148,6.564c.759,2.157,1.579,4.275,2.354,6.381.8,2.094,1.507,4.2,2.388,6.192l2.479,5.926c.2.483.4.966.6,1.442q.326.708.651,1.406.648,1.4,1.281,2.757t1.247,2.683c.207.439.409.877.613,1.311s.433.848.65,1.266c.857,1.675,1.686,3.3,2.483,4.852s1.656,2.994,2.422,4.391q.584,1.044,1.139,2.031c.379.654.769,1.275,1.137,1.885.743,1.21,1.417,2.359,2.082,3.4s1.3,1.975,1.86,2.833,1.112,1.593,1.565,2.249.857,1.2,1.2,1.651c.677.9,1.039,1.339,1.039,1.339Z" transform="translate(-16.147 -16.529)" fill="#a4663c"/>
            <path id="Trazado_149632" data-name="Trazado 149632" d="M135.759,235.662l-.991-1.192c-.016-.019-.4-.475-1.086-1.4-.39-.506-.809-1.084-1.237-1.7-.149-.215-.31-.439-.478-.674-.341-.476-.725-1.017-1.112-1.614L129,226.259c-.441-.689-.872-1.406-1.324-2.152q-.38-.629-.783-1.287l-.377-.618c-.259-.422-.522-.854-.78-1.3l-1.152-2.052c-.273-.5-.553-.994-.837-1.5-.533-.94-1.081-1.914-1.611-2.945l-2.483-4.853c-.215-.415-.432-.841-.651-1.27l-3.817-8.207-3.107-7.423c-.617-1.4-1.164-2.88-1.691-4.317-.235-.638-.471-1.279-.716-1.92-.279-.761-.557-1.5-.838-2.25-.507-1.358-1.034-2.761-1.529-4.17l-2.159-6.6c-.181-.564-.364-1.119-.547-1.675-.54-1.639-1.1-3.336-1.552-5.06l-2.822-10c-.2-.744-.371-1.476-.543-2.207-.092-.4-.184-.792-.283-1.187l-1.574-6.619c-.118-.5-.236-.995-.353-1.487-.4-1.658-.809-3.372-1.106-5.074L93.978,127.8c-.421-2.6-.787-5.05-1.141-7.419q-.288-1.926-.567-3.749l-.744-4.944c-.152-1.057-.256-2.062-.357-3.032-.053-.508-.1-1.005-.162-1.49l-.786-7.292c-.437-4.035-.685-6.342-.685-6.342l-.17-1.579,4.279-.389,1.775,15.073c.061.487.119,1,.179,1.52.106.933.216,1.9.366,2.88l.787,4.9c.2,1.2.394,2.444.6,3.718.374,2.353.762,4.788,1.194,7.317l2.488,12.19c.3,1.632.7,3.218,1.118,4.9.123.487.245.977.365,1.468l1.626,6.554c.095.379.191.767.286,1.154.171.708.346,1.418.541,2.123l2.9,9.925c.451,1.654,1.011,3.3,1.553,4.888q.278.818.553,1.635l2.192,6.494c.487,1.346,1.022,2.731,1.54,4.07q.422,1.1.838,2.188c.249.631.495,1.281.74,1.929.542,1.434,1.054,2.787,1.649,4.1l3.772,8.635,3.391,7.067,2.909,5.547c.512.976,1.056,1.915,1.581,2.824.283.49.562.972.83,1.449l1.134,1.984c.228.384.474.777.714,1.163l.4.639c.273.433.544.874.809,1.3.433.7.843,1.364,1.25,1.987l1.84,2.744c.347.525.686.991,1,1.419.186.253.361.5.525.728.389.55.763,1.055,1.114,1.5.605.8.966,1.224.98,1.243l1.02,1.211Z" transform="translate(-15.778 -16.166)" fill="#a4663c"/>
            <path id="Trazado_149633" data-name="Trazado 149633" d="M87.082,82.488s3.063,11.2,1.558,18.864c-.94-1.751-4.044-4.837-5.717-5.221,2.8,2.979,5.692,6.183,5.422,12.72a16.481,16.481,0,0,0-6.531-4.794c3.009,3.009,5.954,8.916,4.7,14.02-1.03-1.868-6.219-5.613-6.73-5.036,4.613,3.984,6.915,7.543,6.488,10.607s-1.406,4.653-1.2,8.561c-2.6-2.2-5.368-5.278-6.1-7.857.306,3.058,5.155,9.235,5.642,11.133s-1.547,8.73-2.431,11.193c-5.869-5.027-7.437-9.987-6.956-15.741-1.17,2.208-.348,10.189-.348,10.189s-3.485-9.548-.833-17.9c-3.134,2.362-4.083,7.619-4.083,7.619s-3.225-15.432,2.144-22.222c-1.541.213-3.936,4.245-3.936,4.245s2.359-12.981,8.221-16.361c-1.392-.842-5.85,2.518-6.614,4.892.279-2.763,3.979-8.4,8.183-11.481-1.014-.463-5.064,1.945-5.777,2.763,1.315-4.772,8.335-10.253,14.9-10.2" transform="translate(-12.035 -14.563)" fill="#6eb444"/>
            <path id="Trazado_149634" data-name="Trazado 149634" d="M88.408,82.5c.089,0,.178-.012.267-.012,0,0,3.063,11.2,1.558,18.864-.94-1.751-4.044-4.837-5.717-5.221,2.8,2.978,5.692,6.183,5.422,12.72a16.459,16.459,0,0,0-6.532-4.794c3.01,3.009,5.955,8.916,4.7,14.02-1.03-1.868-6.219-5.613-6.73-5.037,4.613,3.985,6.915,7.544,6.488,10.608s-1.406,4.653-1.2,8.561c-2.6-2.2-5.369-5.278-6.1-7.857.306,3.058,5.155,9.235,5.642,11.133.469,1.826-1.383,8.174-2.316,10.861-2.795-6.76-7.979-21.9-6.406-35.9C78.885,97.993,85,87.512,88.408,82.5" transform="translate(-13.628 -14.563)" fill="#589b43"/>
            <path id="Trazado_149635" data-name="Trazado 149635" d="M78.389,81.393S71.061,72.176,61.6,72.035c1.072.8,4.3,3.941,4.3,3.941C58,71.53,50.438,70.146,44.359,71.234a14.3,14.3,0,0,1,2.742,3.51s-6.283-2.838-11.259-.4a11.92,11.92,0,0,1,3.232,1.54s-8.964.145-12.252,6.69a45.762,45.762,0,0,0,5.325-1.086A15.789,15.789,0,0,0,21.824,92.861a35.221,35.221,0,0,1,7.31-3.717c-4.878,4.812-6.123,7.545-5.58,15.974,4.968-1.62,7.9-7.135,7.9-7.135l-1.9,7.383c2.889-3.69,8.225-11.023,8.027-18.057.46,3.623-.789,10.235-1.315,10.916a31.672,31.672,0,0,0,8.234-13.4c.593,1.163-1.812,7.921-1.812,7.921s6.955-3.856,9.233-9.359c-.021,2.474-2.333,7.432-2.333,7.432s9.679-4.1,11.561-8.116c-.8,2.838-4.05,6.8-4.05,6.8s17.5-3.368,21.289-8.116" transform="translate(-3.853 -12.514)" fill="#99ca3c"/>
            <path id="Trazado_149636" data-name="Trazado 149636" d="M23.972,106.731c1.574-8.975,9.785-23.758,24.769-25.942,13.17-1.92,23.863.595,29.7,1.835.216.251.331.4.331.4-3.79,4.748-21.289,8.116-21.289,8.116s3.252-3.963,4.051-6.8c-1.883,4.013-11.562,8.116-11.562,8.116s2.311-4.956,2.334-7.432c-2.278,5.5-9.233,9.359-9.233,9.359s2.4-6.757,1.812-7.92a31.682,31.682,0,0,1-8.234,13.4c.526-.682,1.775-7.294,1.315-10.916.2,7.033-5.139,14.366-8.027,18.057l1.9-7.383s-2.915,5.484-7.86,7.122" transform="translate(-4.232 -14.14)" fill="#69a543"/>
            <path id="Trazado_149637" data-name="Trazado 149637" d="M79.646,76.976S81.628,65.13,74.463,60.14a27.722,27.722,0,0,1,1.069,5.429s-1.868-8.97-6.809-12.152a22.309,22.309,0,0,1,.072,4.1s.473-3.38-3.126-6.149c-5.4-3.02-10.487-5.133-13.052-5.277a22.912,22.912,0,0,1,1.2,5.243s-3.189-6.534-9.082-6.369a12.1,12.1,0,0,1,2.674,2.874,15.393,15.393,0,0,0-12.319-2.049c.665.632,3.22,2.391,3.22,2.391-5.435-1.192-9.565,1.363-11.927,9.755,8.873-.269,11.842-2.224,11.842-2.224s-2.717,4.792-4.6,5.172c2.673.16,9.792-1.427,12.665-4.257a20.948,20.948,0,0,1-3.773,4.211s7.343,2.647,11.357.515a6.216,6.216,0,0,1-3.123,3.444s10.354,2.957,13.4,1.23A11.266,11.266,0,0,1,57.7,68.243S68.753,73.667,72,72.562c-2.241,1.14-6.514.993-6.514.993s11.35,4.264,14.162,3.421" transform="translate(-4.659 -7.937)" fill="#99ca3c"/>
            <path id="Trazado_149638" data-name="Trazado 149638" d="M72,74.115c-3.247,1.1-14.3-4.319-14.3-4.319a11.269,11.269,0,0,0,6.451-2.22c-3.045,1.727-13.4-1.23-13.4-1.23A6.22,6.22,0,0,0,53.877,62.9c-4.015,2.132-11.358-.515-11.358-.515a20.9,20.9,0,0,0,3.774-4.211c-2.874,2.831-9.993,4.417-12.665,4.257,1.888-.38,4.6-5.171,4.6-5.171s-2.964,1.951-11.821,2.224c3.681-3.331,13-8.68,28.463-3.707a40.028,40.028,0,0,1,24.8,22.561c-.019.12-.029.19-.029.19-2.812.844-14.162-3.42-14.162-3.42s4.274.147,6.514-.994" transform="translate(-4.663 -9.49)" fill="#6eb444"/>
            <path id="Trazado_149639" data-name="Trazado 149639" d="M90.468,83.209s-.711,11.594,2.323,18.784c.563-1.9,2.973-5.558,4.533-6.279-2.133,3.491-4.307,7.218-2.712,13.564a16.436,16.436,0,0,1,5.415-6.028c-2.333,3.558-4.007,9.941-1.736,14.683.627-2.04,4.938-6.763,5.557-6.307-3.7,4.847-5.231,8.8-4.185,11.711s2.325,4.267,2.921,8.135c2.1-2.68,4.179-6.263,4.37-8.938.323,3.058-3.16,10.091-3.252,12.051s3.3,8.229,4.666,10.459c4.718-6.119,5.241-11.294,3.594-16.827,1.6,1.92,2.424,9.9,2.424,9.9s1.459-10.06-2.838-17.692c3.548,1.672,5.553,6.623,5.553,6.623s.007-15.767-6.636-21.315c1.551-.1,4.719,3.35,4.719,3.35S110.226,96.864,103.8,94.751c1.189-1.108,6.24,1.273,7.473,3.438-.838-2.647-5.611-7.414-10.354-9.567.9-.662,5.353.871,6.218,1.528-2.261-4.4-10.252-8.337-16.667-6.941" transform="translate(-15.96 -14.64)" fill="#6eb444"/>
            <path id="Trazado_149640" data-name="Trazado 149640" d="M90.732,83.219c-.088.018-.178.025-.264.043,0,0-.711,11.593,2.323,18.783.563-1.9,2.973-5.557,4.532-6.278-2.132,3.491-4.307,7.217-2.711,13.564a16.436,16.436,0,0,1,5.415-6.028c-2.333,3.558-4.007,9.941-1.737,14.682.627-2.039,4.939-6.763,5.557-6.306-3.7,4.847-5.231,8.8-4.186,11.711s2.326,4.267,2.922,8.135c2.1-2.68,4.179-6.263,4.369-8.938.323,3.057-3.16,10.091-3.251,12.05-.087,1.881,3.024,7.717,4.484,10.159,1.355-7.187,3.34-23.068-1.057-36.451-3.914-11.9-12.036-20.916-16.4-25.127" transform="translate(-15.96 -14.692)" fill="#589b43"/>
            <path id="Trazado_149641" data-name="Trazado 149641" d="M91.191,82.727s4.643-6.656,15.82-5.285c-1.371.208-4.3,1.374-5.1,2.285,6.539-1.838,12.8-1.929,16.042.306-2.238-.386-5.534,1.644-5.534,1.644,3.473-.9,8.736-1.1,11.621,1.9s5.928,5.92,8.034,5.787c-.581.436-5.286.546-6.656,1.2A11.117,11.117,0,0,1,137.061,98.6a19.842,19.842,0,0,0-3.45-1.313s4.27,1.7,5.414,10.812a45.493,45.493,0,0,0-2.773-3.935c2.1,4.432.646,12.7.524,14.013a144.778,144.778,0,0,1-8.5-16.336,28.557,28.557,0,0,0,1.489,7.46s-5.808-8.118-7.358-13.858c-.3,2.236,1.262,7.543,1.262,7.543s-6.2-6.135-7.824-12.554c-.448,1.831.739,6.082,1.907,8.386-1.2-.5-9.381-5.987-10.9-10.459.189,1.718,3.333,7.392,3.333,7.392-3.482-1.641-9.035-7.045-10.329-9.641.279,2.025,3.685,7.012,3.685,7.012S93.217,87.5,91.191,82.727" transform="translate(-16.1 -13.64)" fill="#6eb444"/>
            <path id="Trazado_149642" data-name="Trazado 149642" d="M123.758,91.251c-12.309-9.827-27.985-8.134-32.517-7.38,2.109,4.755,12.307,10.309,12.307,10.309s-3.406-4.987-3.685-7.012c1.294,2.595,6.847,8,10.329,9.64,0,0-3.144-5.674-3.333-7.391,1.519,4.471,9.7,9.955,10.9,10.459-1.168-2.3-2.355-6.555-1.906-8.386,1.624,6.42,7.824,12.554,7.824,12.554s-1.565-5.306-1.262-7.542c1.551,5.739,7.358,13.858,7.358,13.858a28.557,28.557,0,0,1-1.489-7.46,145.047,145.047,0,0,0,8.481,16.3c-.216-6.794-1.611-18.852-13.006-27.949" transform="translate(-16.109 -14.701)" fill="#589b43"/>
            <path id="Trazado_149643" data-name="Trazado 149643" d="M91.327,80.655s5.294-10.517,14.53-12.588c-.889,1-3.4,4.74-3.4,4.74,6.82-5.966,13.941-8.864,20.115-9.039a14.239,14.239,0,0,0-1.967,3.993s5.571-4.06,10.939-2.693a11.929,11.929,0,0,0-2.851,2.169s8.806-1.687,13.361,4.045a45.419,45.419,0,0,1-5.435.025,15.8,15.8,0,0,1,12.429,9.03,35.453,35.453,0,0,0-7.917-2.148c5.758,3.719,7.536,6.14,8.724,14.5-5.194-.574-9.187-5.374-9.187-5.374l3.364,6.843c-3.581-3.025-10.3-9.112-11.543-16.042.286,3.64,2.861,9.857,3.514,10.417A31.64,31.64,0,0,1,125.2,77.106c-.341,1.258,3.389,7.383,3.389,7.383s-7.6-2.355-10.948-7.275c.527,2.417,3.8,6.8,3.8,6.8s-10.313-2.043-12.973-5.583c1.361,2.611,5.351,5.828,5.351,5.828s-17.817.275-22.5-3.6" transform="translate(-16.124 -11.258)" fill="#99ca3c"/>
            <path id="Trazado_149644" data-name="Trazado 149644" d="M149.812,94.514c-3.377-8.466-14.43-21.261-29.544-20.339-13.286.807-23.24,5.454-28.7,7.856-.164.292-.245.454-.245.454,4.682,3.877,22.5,3.6,22.5,3.6s-3.989-3.217-5.351-5.828c2.661,3.54,12.974,5.582,12.974,5.582s-3.276-4.38-3.8-6.8c3.352,4.919,10.948,7.275,10.948,7.275s-3.73-6.125-3.389-7.383A31.645,31.645,0,0,0,136,90.364c-.651-.558-3.228-6.776-3.514-10.417,1.24,6.93,7.963,13.018,11.542,16.042l-3.363-6.843s3.972,4.776,9.148,5.368" transform="translate(-16.124 -13.087)" fill="#69a543"/>
            <path id="Trazado_149645" data-name="Trazado 149645" d="M90.5,76.08s-4.359-11.189,1.638-17.542a27.657,27.657,0,0,0,.06,5.537s0-9.162,4.186-13.287a22.169,22.169,0,0,0,.764,4.026S96,51.6,98.956,48.156c4.666-4.058,9.219-7.166,11.7-7.83a22.87,22.87,0,0,0-.109,5.377s1.789-7.048,7.59-8.089a12.152,12.152,0,0,0-2.031,3.361,15.4,15.4,0,0,1,11.644-4.522c-.522.754-2.666,3-2.666,3,5.079-2.276,9.643-.618,13.669,7.116-8.743,1.547-12.049.24-12.049.24s3.641,4.135,5.567,4.125c-2.584.7-9.876.6-13.27-1.584a20.842,20.842,0,0,0,4.555,3.352s-6.649,4.091-11.014,2.823a6.234,6.234,0,0,0,3.762,2.734s-9.534,5.006-12.869,3.939a11.268,11.268,0,0,0,6.77.858s-9.713,7.564-13.118,7.143c2.426.664,6.581-.355,6.581-.355S93.429,76.334,90.5,76.08" transform="translate(-15.708 -6.434)" fill="#99ca3c"/>
            <path id="Trazado_149646" data-name="Trazado 149646" d="M97.4,71.752c3.4.421,13.118-7.143,13.118-7.143a11.262,11.262,0,0,1-6.769-.859c3.334,1.068,12.868-3.938,12.868-3.938a6.231,6.231,0,0,1-3.762-2.735c4.365,1.268,11.014-2.822,11.014-2.822a20.83,20.83,0,0,1-4.554-3.352c3.393,2.182,10.685,2.285,13.269,1.584-1.925.011-5.566-4.125-5.566-4.125s3.3,1.306,12.026-.235c-4.283-2.509-14.5-5.846-28.617,2.179A40.014,40.014,0,0,0,90.75,77.457c.041.114.067.179.067.179,2.926.254,13.165-6.239,13.165-6.239s-4.155,1.019-6.581.356" transform="translate(-16.022 -7.99)" fill="#6eb444"/>
            <path id="Trazado_149647" data-name="Trazado 149647" d="M84.8,71.268s5.193-22.063,3.279-30.9a35.546,35.546,0,0,1-2.991,6.53S88.177,33.6,81.916,27.384c.6,4.773-2.061,6.338-2.061,6.338s1.449-9.039-5.132-13.99a16.163,16.163,0,0,1,.807,5.786S73.54,17.8,67.579,15.353a7.685,7.685,0,0,1,.487,3.447s-6.607-4.789-12.554-2.714c5.155,4.763,9.373,8.1,11.937,9.432-5.66.015-7.835-.613-7.835-.613s9.1,8.873,13.727,11.621a17.368,17.368,0,0,1-5.722-1.285s6.192,8.3,9.142,10.333c-2.038-.448-6.1-3.036-6.1-3.036s4.254,8.434,7.549,11.321a14.055,14.055,0,0,1-4.79-2.887s8.271,17.113,11.381,20.3" transform="translate(-9.801 -2.711)" fill="#99ca3c"/>
            <path id="Trazado_149648" data-name="Trazado 149648" d="M84.807,71.434c-3.11-3.183-11.381-20.3-11.381-20.3a14.055,14.055,0,0,0,4.79,2.887C74.921,51.138,70.667,42.7,70.667,42.7s4.064,2.588,6.1,3.036c-2.95-2.03-9.142-10.333-9.142-10.333a17.368,17.368,0,0,0,5.722,1.285c-4.626-2.748-13.727-11.621-13.727-11.621s2.176.627,7.835.613C64.9,24.358,60.7,21.036,55.567,16.3c24.36,5.144,28.651,42.886,29.395,54.458-.1.432-.155.681-.155.681" transform="translate(-9.81 -2.877)" fill="#6eb444"/>
            <path id="Trazado_149649" data-name="Trazado 149649" d="M81.624,82.568S75.72,77,65.057,80.623c1.385-.073,4.489.467,5.463,1.2-6.776-.464-12.924.721-15.641,3.573,2.112-.837,5.753.485,5.753.485-3.586-.181-8.774.709-10.992,4.223s-4.592,7.008-6.681,7.309c.658.307,5.284-.546,6.761-.187a11.115,11.115,0,0,0-9.76,10.245,19.94,19.94,0,0,1,3.109-1.987s-3.832,2.533-3.1,11.689a45.014,45.014,0,0,1,1.913-4.42c-1.153,4.769,1.957,12.558,2.346,13.824a144.684,144.684,0,0,0,4.991-17.726,28.688,28.688,0,0,1,.064,7.607s4.027-9.137,4.373-15.067c.754,2.123.3,7.637.3,7.637s4.818-7.273,5.1-13.885c.811,1.7.516,6.107-.155,8.6,1.072-.739,7.959-7.776,8.537-12.463.161,1.722-1.756,7.917-1.756,7.917,3.071-2.316,7.4-8.741,8.143-11.544.139,2.036-2.178,7.613-2.178,7.613s8.96-7.608,9.969-12.693" transform="translate(-7.041 -14.018)" fill="#6eb444"/>
            <path id="Trazado_149650" data-name="Trazado 149650" d="M52.044,97.22C62.088,85.086,77.781,83.544,82.372,83.357c-1.094,5.085-9.946,12.6-9.946,12.6s2.317-5.576,2.178-7.613c-.739,2.8-5.072,9.229-8.143,11.545,0,0,1.918-6.2,1.756-7.917-.577,4.687-7.465,11.723-8.537,12.462.671-2.49.966-6.895.155-8.6-.281,6.612-5.1,13.884-5.1,13.884s.45-5.515-.3-7.637c-.347,5.929-4.373,15.066-4.373,15.066a28.682,28.682,0,0,0-.064-7.606,144.222,144.222,0,0,1-4.977,17.686c-1.176-6.692-2.268-18.784,7.026-30.014" transform="translate(-7.813 -14.717)" fill="#589b43"/>
            <path id="Trazado_149651" data-name="Trazado 149651" d="M180.9,221.124s-.147-.319-.377-.9c-.119-.286-.262-.644-.42-1.084s-.356-.926-.54-1.493-.4-1.194-.624-1.875-.427-1.438-.667-2.235c-.114-.4-.242-.812-.358-1.239s-.223-.87-.338-1.323c-.225-.908-.493-1.854-.711-2.859s-.444-2.049-.679-3.132c-.059-.272-.119-.543-.178-.819s-.1-.557-.15-.837q-.149-.847-.3-1.717t-.311-1.765c-.053-.3-.106-.6-.158-.9s-.083-.607-.126-.916q-.251-1.838-.515-3.752c-.2-1.271-.282-2.577-.42-3.894s-.27-2.651-.375-4c-.076-1.349-.152-2.71-.228-4.076s-.18-2.735-.175-4.109q-.03-2.061-.061-4.115-.016-1.028-.03-2.049c0-.68.03-1.359.044-2.036q.054-2.029.107-4.02c.04-1.324.048-2.636.161-3.92.175-2.572.347-5.058.507-7.415.237-2.35.5-4.569.723-6.621.113-1.025.223-2.008.326-2.941s.27-1.812.389-2.642c.254-1.658.477-3.1.66-4.291.366-2.381.574-3.74.574-3.74l-.7-.126s-.224,1.363-.612,3.745c-.2,1.192-.433,2.638-.7,4.3-.128.831-.3,1.711-.416,2.646s-.232,1.922-.356,2.95c-.242,2.056-.529,4.282-.788,6.639-.185,2.367-.38,4.861-.582,7.442-.124,1.289-.146,2.606-.2,3.938s-.1,2.68-.147,4.038c-.019.68-.058,1.362-.063,2.045s.007,1.373.012,2.061q.01,2.064.021,4.139c-.018,1.383.078,2.763.135,4.139s.128,2.745.191,4.106c.093,1.355.228,2.7.338,4.032.127,1.328.2,2.644.388,3.928q.245,1.932.482,3.792c.04.309.078.618.119.924s.1.609.151.909c.1.6.2,1.2.3,1.783s.194,1.166.288,1.736c.049.284.1.567.145.849s.114.555.172.829c.226,1.1.443,2.158.653,3.177s.476,1.979.694,2.9q.169.692.33,1.346c.113.435.239.851.353,1.261.235.812.439,1.577.655,2.279s.432,1.338.618,1.918.385,1.09.541,1.537.3.828.427,1.139c.245.625.385.932.385.932Z" transform="translate(-30.382 -23.709)" fill="#a4663c"/>
            <path id="Trazado_149652" data-name="Trazado 149652" d="M178.811,222.739l-.379-.841c-.006-.013-.151-.335-.4-.975-.143-.351-.292-.75-.438-1.171q-.079-.221-.168-.463c-.12-.328-.255-.7-.382-1.1l-.616-1.914c-.144-.464-.279-.944-.42-1.445-.079-.279-.159-.568-.245-.861l-.118-.414c-.081-.284-.163-.572-.241-.87l-.333-1.359c-.078-.331-.161-.657-.244-.991-.156-.623-.318-1.27-.457-1.943l-.655-3.177c-.058-.273-.116-.552-.172-.833l-.889-5.31-.605-4.749c-.132-.9-.209-1.836-.286-2.743q-.048-.605-.105-1.215c-.04-.48-.082-.952-.124-1.425-.076-.859-.155-1.747-.217-2.633l-.193-4.125c-.014-.352-.031-.7-.048-1.047-.049-1.026-.1-2.087-.089-3.149l-.031-6.182c0-.459.021-.906.039-1.351.009-.242.018-.484.025-.726l.147-4.045c.013-.306.022-.609.033-.909.035-1.013.071-2.062.17-3.085l.58-7.425c.171-1.558.35-3.02.522-4.435q.14-1.15.269-2.24l.357-2.953c.08-.631.179-1.223.275-1.8q.078-.45.145-.881l.7-4.307c.389-2.382.613-3.745.613-3.745l.152-.932,2.517.456-1.372,8.925c-.043.288-.091.591-.14.9-.086.553-.177,1.122-.245,1.71l-.325,2.935c-.079.721-.161,1.465-.248,2.227-.158,1.41-.321,2.866-.474,4.386l-.506,7.386c-.086.983-.11,1.956-.135,2.984-.008.3-.016.6-.023.9l-.107,4.017c0,.231-.012.469-.02.707-.013.433-.026.868-.026,1.3l.093,6.153c0,1.019.056,2.051.114,3.048q.032.513.058,1.025l.227,4.071c.067.849.155,1.727.238,2.578.046.464.092.926.135,1.387.042.4.08.814.118,1.224.085.908.163,1.766.3,2.614l.795,5.549.825,4.59.788,3.641c.14.641.3,1.267.459,1.87.086.328.169.648.247.964l.335,1.317c.07.256.15.52.226.78l.127.429c.087.293.173.587.258.875.137.468.268.916.4,1.338l.62,1.864c.116.356.237.676.348.972.067.175.129.342.186.5.136.377.269.725.4,1.037.222.553.36.856.365.869l.394.856Z" transform="translate(-30.182 -23.477)" fill="#a4663c"/>
            <path id="Trazado_149653" data-name="Trazado 149653" d="M174.632,127.719s-.02,6.911-2.1,11.064c-.261-1.154-1.552-3.415-2.451-3.9,1.134,2.152,2.283,4.448,1.093,8.154a9.8,9.8,0,0,0-2.986-3.785c1.25,2.2,2,6.057.473,8.785-.294-1.234-2.676-4.2-3.061-3.954,2.015,3.016,2.77,5.422,2.039,7.111s-1.544,2.445-2.045,4.718c-1.144-1.672-2.242-3.878-2.253-5.473-.309,1.8,1.492,6.113,1.472,7.279s-2.273,4.76-3.169,6.033c-2.569-3.813-2.681-6.905-1.493-10.129-1.022,1.081-1.816,5.788-1.816,5.788s-.485-6.028,2.359-10.4c-2.171.858-3.549,3.722-3.549,3.722s.6-9.361,4.752-12.4c-.917-.121-2.93,1.811-2.93,1.811s3.41-7.07,7.307-8.079c-.665-.7-3.753.517-4.568,1.757.6-1.541,3.615-4.189,6.513-5.287-.507-.427-3.212.312-3.752.669,1.513-2.528,6.406-4.559,10.162-3.484" transform="translate(-27.745 -22.497)" fill="#6eb444"/>
            <path id="Trazado_149654" data-name="Trazado 149654" d="M175.377,127.739c.052.012.1.021.156.035,0,0-.02,6.911-2.1,11.064-.261-1.154-1.552-3.415-2.451-3.9,1.133,2.152,2.283,4.448,1.093,8.154a9.8,9.8,0,0,0-2.986-3.785c1.25,2.2,2,6.057.473,8.785-.294-1.234-2.676-4.2-3.061-3.954,2.015,3.016,2.77,5.422,2.039,7.111s-1.544,2.445-2.045,4.718c-1.144-1.672-2.242-3.878-2.253-5.473-.309,1.8,1.491,6.113,1.472,7.279-.022,1.121-2.09,4.468-3.051,5.861-.53-4.32-1.1-13.823,2.017-21.6a38.593,38.593,0,0,1,10.695-14.3" transform="translate(-28.645 -22.552)" fill="#589b43"/>
            <path id="Trazado_149655" data-name="Trazado 149655" d="M170.294,125.943s-2.74-6.447-8.146-8.028c.488.627,1.839,2.941,1.839,2.941-3.82-3.8-7.938-5.793-11.6-6.132a8.5,8.5,0,0,1,1.016,2.447s-3.154-2.624-6.392-2.016a7.1,7.1,0,0,1,1.61,1.395s-5.165-1.337-8.086,1.894a27.039,27.039,0,0,0,3.225.222,9.392,9.392,0,0,0-7.722,4.887,20.949,20.949,0,0,1,4.781-.972c-3.561,1.987-4.708,3.356-5.732,8.276,3.105-.142,5.66-2.839,5.66-2.839l-2.258,3.933c2.241-1.658,6.464-5.017,7.465-9.082a17.543,17.543,0,0,1-2.484,6.052,18.837,18.837,0,0,0,6.845-6.376c.156.76-2.294,4.255-2.294,4.255s4.6-1.109,6.778-3.9a15.885,15.885,0,0,1-2.517,3.892s6.2-.818,7.917-2.82a15.177,15.177,0,0,1-3.4,3.258s10.569.842,13.495-1.28" transform="translate(-23.85 -20.254)" fill="#99ca3c"/>
            <path id="Trazado_149656" data-name="Trazado 149656" d="M135.118,131.94c2.325-4.9,9.377-12.073,18.314-10.95a47.544,47.544,0,0,1,16.739,5.759c.084.179.128.279.128.279-2.926,2.122-13.495,1.28-13.495,1.28a15.142,15.142,0,0,0,3.4-3.258c-1.716,2-7.917,2.821-7.917,2.821a15.9,15.9,0,0,0,2.517-3.892c-2.18,2.794-6.779,3.9-6.779,3.9s2.451-3.494,2.294-4.255A18.835,18.835,0,0,1,143.477,130a17.535,17.535,0,0,0,2.484-6.052c-1,4.065-5.225,7.423-7.466,9.083l2.258-3.934s-2.54,2.684-5.635,2.838" transform="translate(-23.855 -21.34)" fill="#69a543"/>
            <path id="Trazado_149657" data-name="Trazado 149657" d="M172.224,123.2s3.015-6.479-.3-10.476a16.525,16.525,0,0,1-.247,3.283s.351-5.44-1.977-8.048a13.212,13.212,0,0,1-.609,2.359,4.189,4.189,0,0,0-.818-4.021c-2.616-2.586-5.2-4.606-6.649-5.095a13.556,13.556,0,0,1-.142,3.2s-.793-4.253-4.2-5.091a7.2,7.2,0,0,1,1.077,2.071,9.156,9.156,0,0,0-6.739-3.127c.281.468,1.468,1.882,1.468,1.882-2.928-1.545-5.7-.735-8.387,3.7,5.133,1.252,7.143.6,7.143.6s-2.317,2.316-3.461,2.236c1.509.515,5.842.734,7.938-.434a12.4,12.4,0,0,1-2.831,1.816s3.79,2.682,6.431,2.1a3.7,3.7,0,0,1-2.337,1.481s5.468,3.336,7.488,2.829a6.7,6.7,0,0,1-4.051.251s5.478,4.862,7.516,4.744a10.211,10.211,0,0,1-3.893-.464s5.832,4.245,7.578,4.206" transform="translate(-25.547 -17.346)" fill="#99ca3c"/>
            <path id="Trazado_149658" data-name="Trazado 149658" d="M168.541,120.372c-2.037.119-7.516-4.744-7.516-4.744a6.7,6.7,0,0,0,4.051-.25c-2.02.507-7.488-2.829-7.488-2.829a3.7,3.7,0,0,0,2.337-1.481c-2.641.586-6.431-2.1-6.431-2.1a12.428,12.428,0,0,0,2.831-1.817c-2.1,1.168-6.43.949-7.938.435,1.143.08,3.46-2.236,3.46-2.236s-2.009.648-7.131-.6c2.638-1.327,8.831-2.918,16.91,2.386a23.811,23.811,0,0,1,10.648,16.869c-.03.065-.048.1-.048.1-1.746.039-7.578-4.205-7.578-4.205a10.2,10.2,0,0,0,3.893.463" transform="translate(-25.55 -18.265)" fill="#6eb444"/>
            <path id="Trazado_149659" data-name="Trazado 149659" d="M177.506,128.127s-2.245,6.536-1.646,11.139c.626-1,2.587-2.715,3.6-2.881-1.776,1.663-3.614,3.456-3.7,7.348a9.776,9.776,0,0,1,4.06-2.6c-1.9,1.671-3.874,5.065-3.324,8.144.684-1.07,3.906-3.1,4.187-2.735-2.892,2.193-4.395,4.216-4.257,6.052s.658,2.815.387,5.128c1.629-1.2,3.389-2.929,3.922-4.432-.3,1.8-3.412,5.286-3.775,6.395s.585,5.241,1.017,6.737c3.677-2.76,4.8-5.646,4.729-9.079.611,1.355-.18,6.064-.18,6.064s2.432-5.538,1.177-10.6c1.77,1.522,2.134,4.678,2.134,4.678s2.5-9.04-.427-13.275c.907.186,2.176,2.669,2.176,2.669s-.9-7.795-4.256-10.025c.859-.447,3.377,1.719,3.741,3.155-.063-1.65-2.043-5.14-4.421-7.126.618-.238,2.931,1.348,3.323,1.86-.6-2.884-4.558-6.4-8.458-6.621" transform="translate(-31.029 -22.621)" fill="#6eb444"/>
            <path id="Trazado_149660" data-name="Trazado 149660" d="M177.665,128.144c-.054,0-.107-.014-.159-.017,0,0-2.245,6.536-1.645,11.139.625-1,2.587-2.715,3.6-2.881-1.776,1.663-3.614,3.456-3.7,7.348a9.776,9.776,0,0,1,4.06-2.6c-1.9,1.671-3.874,5.065-3.324,8.145.684-1.071,3.906-3.1,4.187-2.736-2.892,2.193-4.395,4.216-4.257,6.052s.659,2.815.388,5.128c1.628-1.2,3.388-2.929,3.921-4.432-.3,1.8-3.412,5.286-3.775,6.395-.348,1.064.511,4.9.961,6.536,1.915-3.906,5.572-12.7,5.173-21.07a38.591,38.591,0,0,0-5.421-17.008" transform="translate(-31.029 -22.621)" fill="#589b43"/>
            <path id="Trazado_149661" data-name="Trazado 149661" d="M178.189,128.27s3.716-3.081,9.91-.522a7.2,7.2,0,0,0-3.289.5c4.041-.016,7.645.922,9.149,2.719-1.223-.576-3.434.065-3.434.065,2.135.032,5.183.758,6.364,2.93s2.461,4.335,3.69,4.592c-.4.157-3.118-.525-4.008-.367a6.612,6.612,0,0,1,5.405,6.454,11.82,11.82,0,0,0-1.77-1.3s2.178,1.652,1.391,7.059a27.124,27.124,0,0,0-.967-2.7c.5,2.874-1.642,7.381-1.921,8.118a86.016,86.016,0,0,1-2.286-10.715,17,17,0,0,0-.329,4.513s-2.043-5.576-2.023-9.113a16.708,16.708,0,0,0-.471,4.525s-2.583-4.5-2.5-8.439c-.546.978-.54,3.605-.235,5.111-.61-.479-4.43-4.921-4.593-7.726a23.934,23.934,0,0,0,.739,4.767,18.286,18.286,0,0,1-4.395-7.166c-.161,1.206,1,4.606,1,4.606s-5.028-4.86-5.433-7.917" transform="translate(-31.459 -22.375)" fill="#6eb444"/>
            <path id="Trazado_149662" data-name="Trazado 149662" d="M195.678,138.051c-5.5-7.586-14.759-9.1-17.477-9.387.455,3.061,5.423,7.863,5.423,7.863s-1.163-3.4-1-4.606a18.274,18.274,0,0,0,4.394,7.166,23.933,23.933,0,0,1-.739-4.767c.163,2.8,3.983,7.246,4.593,7.726-.3-1.507-.311-4.133.235-5.111-.086,3.939,2.5,8.439,2.5,8.439a16.709,16.709,0,0,1,.471-4.525c-.02,3.537,2.023,9.112,2.023,9.112a16.992,16.992,0,0,1,.329-4.513,86.282,86.282,0,0,0,2.28,10.691c.954-3.93,2.064-11.066-3.028-18.089" transform="translate(-31.462 -22.716)" fill="#589b43"/>
            <path id="Trazado_149663" data-name="Trazado 149663" d="M178.207,127.737s4.7-5.193,10.326-4.915c-.667.433-2.7,2.178-2.7,2.178,4.856-2.34,9.4-2.873,12.969-1.994a8.488,8.488,0,0,0-1.762,1.978s3.839-1.446,6.7.189a7.111,7.111,0,0,0-1.978.791s5.316.428,7.021,4.438a26.815,26.815,0,0,1-3.121-.846,9.4,9.4,0,0,1,5.7,7.148,21.065,21.065,0,0,0-4.2-2.486c2.712,3.044,3.348,4.716,2.7,9.7-2.889-1.153-4.417-4.538-4.417-4.538l.845,4.457c-1.575-2.3-4.464-6.858-4.077-11.028a17.457,17.457,0,0,0,.365,6.53,18.822,18.822,0,0,1-4.379-8.265c-.394.667.773,4.771.773,4.771s-3.981-2.554-5.124-5.907a15.912,15.912,0,0,0,1.1,4.5s-5.59-2.806-6.555-5.257a15.188,15.188,0,0,0,2.146,4.19s-10.263-2.666-12.331-5.632" transform="translate(-31.463 -21.646)" fill="#99ca3c"/>
            <path id="Trazado_149664" data-name="Trazado 149664" d="M209.837,144.781c-.594-5.389-4.9-14.48-13.719-16.346a47.54,47.54,0,0,0-17.7-.044c-.14.142-.212.222-.212.222,2.068,2.965,12.331,5.632,12.331,5.632a15.187,15.187,0,0,1-2.146-4.19c.964,2.451,6.554,5.257,6.554,5.257a15.919,15.919,0,0,1-1.1-4.5c1.143,3.353,5.124,5.907,5.124,5.907s-1.168-4.1-.773-4.771a18.814,18.814,0,0,0,4.379,8.265,17.438,17.438,0,0,1-.365-6.53c-.387,4.17,2.5,8.726,4.077,11.028l-.845-4.457s1.522,3.369,4.4,4.528" transform="translate(-31.463 -22.521)" fill="#69a543"/>
            <path id="Trazado_149665" data-name="Trazado 149665" d="M177.864,125.138s-.726-7.107,3.721-9.8a16.474,16.474,0,0,0-.844,3.184s1.452-5.254,4.508-6.956a13.138,13.138,0,0,0-.2,2.429,4.188,4.188,0,0,1,2.091-3.531c3.319-1.588,6.423-2.649,7.95-2.636a13.651,13.651,0,0,0-.915,3.067s2.143-3.757,5.635-3.435a7.247,7.247,0,0,0-1.7,1.606,9.167,9.167,0,0,1,7.395-.748c-.419.35-2,1.3-2,1.3,3.273-.5,5.627,1.174,6.71,6.247-5.259-.5-6.947-1.772-6.947-1.772s1.432,2.949,2.538,3.248c-1.593-.007-5.758-1.223-7.358-3.012a12.4,12.4,0,0,0,2.082,2.645s-4.461,1.291-6.764-.128a3.7,3.7,0,0,0,1.723,2.164s-6.262,1.36-8,.218a6.705,6.705,0,0,0,3.747,1.565s-6.769,2.8-8.654,2.017a10.155,10.155,0,0,0,3.83.839s-6.9,2.1-8.539,1.49" transform="translate(-31.394 -18.969)" fill="#99ca3c"/>
            <path id="Trazado_149666" data-name="Trazado 149666" d="M182.58,123.74c1.887.781,8.654-2.017,8.654-2.017a6.707,6.707,0,0,1-3.747-1.565c1.744,1.141,8.006-.218,8.006-.218a3.7,3.7,0,0,1-1.724-2.163c2.3,1.418,6.764.128,6.764.128a12.38,12.38,0,0,1-2.081-2.646c1.6,1.79,5.764,3.006,7.358,3.013-1.106-.3-2.538-3.248-2.538-3.248s1.687,1.272,6.935,1.771c-2.06-2.117-7.387-5.651-16.757-3.286a23.811,23.811,0,0,0-15.588,12.449l.009.114c1.639.61,8.539-1.49,8.539-1.49a10.165,10.165,0,0,1-3.83-.84" transform="translate(-31.402 -19.901)" fill="#6eb444"/>
            <path id="Trazado_149667" data-name="Trazado 149667" d="M176.5,120.43s6.476-11.828,6.778-17.2a21.114,21.114,0,0,1-2.75,3.27s3.883-7.139,1.276-11.695c-.411,2.833-2.185,3.308-2.185,3.308s2.263-4.953-.725-8.836a9.619,9.619,0,0,1-.454,3.446s.081-4.74-2.949-7.09a4.579,4.579,0,0,1-.268,2.054s-3.03-3.793-6.77-3.546a40.529,40.529,0,0,0,5.35,7.3,19.166,19.166,0,0,1-4.395-1.593s3.812,6.53,6.028,8.839a10.337,10.337,0,0,1-3.077-1.644s2.236,5.743,3.6,7.375a17.36,17.36,0,0,1-3.018-2.709s1.1,5.511,2.535,7.689a8.381,8.381,0,0,1-2.29-2.415s2.031,11.124,3.309,13.443" transform="translate(-29.74 -14.854)" fill="#99ca3c"/>
            <path id="Trazado_149668" data-name="Trazado 149668" d="M176.5,120.439C175.225,118.12,173.194,107,173.194,107a8.381,8.381,0,0,0,2.29,2.415c-1.432-2.178-2.535-7.689-2.535-7.689a17.359,17.359,0,0,0,3.018,2.709c-1.369-1.632-3.6-7.375-3.6-7.375A10.338,10.338,0,0,0,175.44,98.7c-2.217-2.309-6.029-8.839-6.029-8.839a19.167,19.167,0,0,0,4.395,1.593,40.329,40.329,0,0,1-5.329-7.269c13.154,6.811,9.632,29.134,8.224,35.888-.124.233-.2.366-.2.366" transform="translate(-29.745 -14.863)" fill="#6eb444"/>
            <path id="Trazado_149669" data-name="Trazado 149669" d="M171.64,127.321s-2.5-4.13-9.191-3.742a7.217,7.217,0,0,1,2.942,1.552c-3.813-1.34-7.526-1.635-9.536-.431,1.342-.145,3.222,1.19,3.222,1.19-2.028-.672-5.143-.985-6.973.68s-3.744,3.29-4.99,3.132c.329.279,3.116.525,3.906.964a6.612,6.612,0,0,0-7.22,4.326,11.872,11.872,0,0,1,2.1-.646s-2.6.846-3.628,6.212a26.9,26.9,0,0,1,1.8-2.231c-1.416,2.551-.868,7.511-.846,8.3a85.9,85.9,0,0,0,5.672-9.374,17.035,17.035,0,0,1-1.169,4.373s3.758-4.6,4.9-7.946a16.667,16.667,0,0,1-1.038,4.428s3.916-3.407,5.126-7.154c.2,1.105-.672,3.584-1.452,4.905.732-.254,5.8-3.2,6.871-5.792a24.148,24.148,0,0,1-2.262,4.261,18.3,18.3,0,0,0,6.5-5.329c-.243,1.19-2.456,4.021-2.456,4.021s6.343-2.942,7.728-5.7" transform="translate(-25.118 -21.814)" fill="#6eb444"/>
            <path id="Trazado_149670" data-name="Trazado 149670" d="M152.232,131.175c7.683-5.366,16.927-3.762,19.588-3.142-1.434,2.743-7.7,5.65-7.7,5.65s2.213-2.83,2.456-4.02a18.3,18.3,0,0,1-6.5,5.329,24.106,24.106,0,0,0,2.262-4.261c-1.074,2.6-6.139,5.539-6.87,5.793.779-1.322,1.646-3.8,1.451-4.905-1.209,3.747-5.126,7.154-5.126,7.154a16.668,16.668,0,0,0,1.038-4.428c-1.139,3.345-4.9,7.946-4.9,7.946a17.052,17.052,0,0,0,1.168-4.373,85.872,85.872,0,0,1-5.658,9.354c.387-4.024,1.678-11.131,8.788-16.1" transform="translate(-25.325 -22.478)" fill="#589b43"/>
            <path id="Trazado_149671" data-name="Trazado 149671" d="M94.732,275.234V285.3a89.207,89.207,0,0,0,14.217,2.759H212.611V237.714c-67.406,3.426-104.475,25.526-117.879,37.52" transform="translate(-16.725 -41.969)" fill="#f9e063"/>
            <path id="Trazado_149672" data-name="Trazado 149672" d="M127.263,258.247c20.052-9.438,49.852-18.447,90.9-20.532v31.8l-46.416-.868c-26.13-1.065-51.117-7.282-44.485-10.4" transform="translate(-22.277 -41.969)" fill="#99ca3c"/>
            <path id="Trazado_149673" data-name="Trazado 149673" d="M249.9,319.5c0,3.791,2.564,6.866,5.726,6.866s5.725-3.075,5.725-6.866-2.563-6.866-5.725-6.866S249.9,315.71,249.9,319.5" transform="translate(-44.12 -55.196)" fill="#0f0c0a"/>
            <path id="Trazado_149674" data-name="Trazado 149674" d="M253.261,309.858v2.365c0,.686,1.343,2.288,2.686,4.12s1.564,3.852,0,4.92-2.456.19-3.71-1.336-3.238-3.662-4.36-3.7-1.816-.152-2.213-1.373,0-4.844,0-4.844Z" transform="translate(-43.341 -54.706)" fill="#934c16"/>
            <path id="Trazado_149675" data-name="Trazado 149675" d="M255.811,320.761a.867.867,0,1,0,.857-.991.931.931,0,0,0-.857.991" transform="translate(-45.164 -56.456)" fill="#b2b2b2"/>
            <path id="Trazado_149676" data-name="Trazado 149676" d="M222.367,313.286c0,3.437,2.324,6.224,5.191,6.224s5.19-2.787,5.19-6.224-2.325-6.224-5.19-6.224-5.191,2.785-5.191,6.224" transform="translate(-39.259 -54.212)" fill="#0f0c0a"/>
            <path id="Trazado_149677" data-name="Trazado 149677" d="M225.415,304.541v2.145c0,.622,1.218,2.074,2.435,3.734s1.417,3.493,0,4.461-2.226.172-3.364-1.211-2.935-3.319-3.953-3.353-1.647-.138-2.005-1.245a17.253,17.253,0,0,1,0-4.391Z" transform="translate(-38.553 -53.767)" fill="#934c16"/>
            <path id="Trazado_149678" data-name="Trazado 149678" d="M227.725,314.428a.787.787,0,1,0,.777-.9.843.843,0,0,0-.777.9" transform="translate(-40.205 -55.353)" fill="#b2b2b2"/>
            <path id="Trazado_149679" data-name="Trazado 149679" d="M323.672,311.1c0,3.791-2.563,6.865-5.725,6.865s-5.725-3.074-5.725-6.865,2.563-6.866,5.725-6.866,5.725,3.074,5.725,6.866" transform="translate(-55.123 -53.713)" fill="#0f0c0a"/>
            <path id="Trazado_149680" data-name="Trazado 149680" d="M320.29,301.458v2.364c0,.687-1.343,2.288-2.686,4.12s-1.563,3.851,0,4.919,2.456.192,3.71-1.333,3.237-3.663,4.36-3.7,1.817-.152,2.213-1.373,0-4.844,0-4.844Z" transform="translate(-55.881 -53.223)" fill="#934c16"/>
            <path id="Trazado_149681" data-name="Trazado 149681" d="M319.85,312.361a.868.868,0,1,1-.859-.991.932.932,0,0,1,.859.991" transform="translate(-56.166 -54.973)" fill="#b2b2b2"/>
            <path id="Trazado_149682" data-name="Trazado 149682" d="M305.044,307.5c0,3.437-2.325,6.224-5.192,6.224s-5.19-2.787-5.19-6.224,2.325-6.225,5.19-6.225,5.192,2.787,5.192,6.225" transform="translate(-52.023 -53.191)" fill="#0f0c0a"/>
            <path id="Trazado_149683" data-name="Trazado 149683" d="M301.978,298.759V300.9c0,.622-1.218,2.074-2.435,3.734s-1.418,3.493,0,4.461,2.225.173,3.364-1.21,2.933-3.319,3.952-3.353,1.648-.139,2.007-1.247a17.343,17.343,0,0,0,0-4.391Z" transform="translate(-52.71 -52.746)" fill="#934c16"/>
            <path id="Trazado_149684" data-name="Trazado 149684" d="M301.578,308.644a.787.787,0,1,1-.778-.9.844.844,0,0,1,.778.9" transform="translate(-52.969 -54.333)" fill="#b2b2b2"/>
            <path id="Trazado_149685" data-name="Trazado 149685" d="M256.133,211.838V82.706c0-5.086,3.288-9.069,7.487-9.069.23,0,.464.012.673.033l18.84,1.642c4.33.453,7.852,4.7,7.852,9.468V199.3c0,4.767-3.522,9.014-7.852,9.466-6.747.707-7.94,1.847-8.121,2.09a6.482,6.482,0,0,0,.287,1.108,5.886,5.886,0,0,1-.049,4.823c-1.22,2.218-4.387,3.4-10.931,4.087a6.457,6.457,0,0,1-.7.037c-4.2,0-7.488-3.983-7.488-9.069m15.688,1.58a5.874,5.874,0,0,1,.047-4.822c1.22-2.218,4.387-3.4,10.93-4.088a5.329,5.329,0,0,0,4.487-5.212V84.78a5.325,5.325,0,0,0-4.46-5.211l-18.841-1.642c-2.334-.241-4.153,1.89-4.153,4.779V211.838c0,2.887,1.821,5.011,4.153,4.778,6.746-.706,7.939-1.845,8.12-2.089a6.565,6.565,0,0,0-.284-1.108" transform="translate(-45.22 -13.001)" fill="#0f0c0a"/>
            <path id="Trazado_149686" data-name="Trazado 149686" d="M286,84.518a4.121,4.121,0,0,0-3.482-3.995l-18.857-1.643c-1.7-.18-3,1.374-3,3.563v6.667l-5.813-.5V82.444c0-5.77,3.753-10.291,8.545-10.291a7.258,7.258,0,0,1,.75.038L283,73.834c4.942.517,8.814,5.211,8.814,10.684v7.291l-5.814-.5Z" transform="translate(-44.994 -12.739)" fill="#665446"/>
            <path id="Trazado_149687" data-name="Trazado 149687" d="M218.069,132.615l21.933-3.6-.722,150.006-21.21-3.457c-3.958-.792-6.481-3.349-6.481-7.482V140.1a7.254,7.254,0,0,1,6.481-7.484" transform="translate(-37.356 -22.778)" fill="#493a30"/>
            <path id="Trazado_149688" data-name="Trazado 149688" d="M225.251,137.1V272.017a5.55,5.55,0,0,0,3.468,5.447l-5.653-.921a10.3,10.3,0,0,1-.987-4.526V137.1a10.367,10.367,0,0,1,1-4.54l5.574-.914a5.708,5.708,0,0,0-3.4,5.454" transform="translate(-39.208 -23.242)" fill="#0f0c0a"/>
            <path id="Trazado_149689" data-name="Trazado 149689" d="M211.588,175.278l23.143-1.044V166.04l-23.143,1.686Z" transform="translate(-37.356 -29.315)" fill="#302620"/>
            <path id="Trazado_149690" data-name="Trazado 149690" d="M211.588,259.691l23.143,1.044v8.194l-23.143-1.686Z" transform="translate(-37.356 -45.849)" fill="#302620"/>
            <path id="Trazado_149691" data-name="Trazado 149691" d="M239.692,271.912c0,4.381,2.9,7.628,6.481,7.255q34.512-3.606,69.021-7.22c3.58-.375,6.482-3.827,6.482-7.711V143.928c0-3.886-2.9-7.339-6.482-7.713l-69.021-7.221c-3.58-.375-6.481,2.875-6.481,7.255Z" transform="translate(-42.318 -22.769)" fill="#665446"/>
            <path id="Trazado_149692" data-name="Trazado 149692" d="M239.692,174.234q40.992,2.065,81.984,4.121V171.09q-40.992-2.53-81.984-5.049Z" transform="translate(-42.318 -29.315)" fill="#493a30"/>
            <path id="Trazado_149693" data-name="Trazado 149693" d="M239.692,268.338l81.984-4.728v-7.267l-81.984,3.8Z" transform="translate(-42.318 -45.258)" fill="#493a30"/>
            <path id="Trazado_149694" data-name="Trazado 149694" d="M253.668,262.169c0,7.088,2.129,12.688,4.755,12.5s4.757-6,4.757-13-2.129-12.6-4.757-12.507-4.755,5.91-4.755,13" transform="translate(-44.785 -43.991)" fill="#934c16"/>
            <path id="Trazado_149695" data-name="Trazado 149695" d="M320.625,258.917c0,6.541,2.129,11.694,4.755,11.511s4.757-5.557,4.757-12-2.129-11.6-4.757-11.514-4.755,5.465-4.755,12.007" transform="translate(-56.607 -43.592)" fill="#934c16"/>
            <path id="Trazado_149696" data-name="Trazado 149696" d="M253.668,169.12c0,7.09,2.129,12.918,4.755,13.018s4.757-5.491,4.757-12.485-2.129-12.824-4.757-13.019-4.755,5.4-4.755,12.486" transform="translate(-44.785 -27.653)" fill="#934c16"/>
            <path id="Trazado_149697" data-name="Trazado 149697" d="M320.625,173.075c0,6.541,2.129,11.925,4.755,12.026s4.757-5.048,4.757-11.494-2.129-11.83-4.757-12.026-4.755,4.952-4.755,11.494" transform="translate(-56.607 -28.526)" fill="#934c16"/>
            <path id="Trazado_149698" data-name="Trazado 149698" d="M324.475,165.939a1.814,1.814,0,0,0,1.586,1.856,1.545,1.545,0,0,0,1.584-1.641,1.821,1.821,0,0,0-1.584-1.858,1.543,1.543,0,0,0-1.586,1.643" transform="translate(-57.286 -29.006)" fill="#d3d3d3"/>
            <path id="Trazado_149699" data-name="Trazado 149699" d="M324.475,184.121a1.764,1.764,0,0,0,1.586,1.82,1.588,1.588,0,0,0,1.584-1.677,1.771,1.771,0,0,0-1.584-1.821,1.585,1.585,0,0,0-1.586,1.679" transform="translate(-57.286 -32.21)" fill="#d3d3d3"/>
            <path id="Trazado_149700" data-name="Trazado 149700" d="M257.517,161.367a1.908,1.908,0,0,0,1.586,2,1.628,1.628,0,0,0,1.586-1.789,1.918,1.918,0,0,0-1.586-2.005,1.624,1.624,0,0,0-1.586,1.79" transform="translate(-45.465 -28.173)" fill="#d3d3d3"/>
            <path id="Trazado_149701" data-name="Trazado 149701" d="M257.517,181.081a1.858,1.858,0,0,0,1.586,1.969,1.674,1.674,0,0,0,1.586-1.826,1.866,1.866,0,0,0-1.586-1.97,1.668,1.668,0,0,0-1.586,1.826" transform="translate(-45.465 -31.647)" fill="#d3d3d3"/>
            <path id="Trazado_149702" data-name="Trazado 149702" d="M324.475,251.809a1.593,1.593,0,0,0,1.586,1.686,1.759,1.759,0,0,0,1.584-1.812,1.6,1.6,0,0,0-1.584-1.687,1.755,1.755,0,0,0-1.586,1.814" transform="translate(-57.286 -44.137)" fill="#d3d3d3"/>
            <path id="Trazado_149703" data-name="Trazado 149703" d="M324.475,269.99a1.55,1.55,0,0,0,1.586,1.649,1.808,1.808,0,0,0,1.584-1.848,1.554,1.554,0,0,0-1.584-1.649,1.8,1.8,0,0,0-1.586,1.848" transform="translate(-57.286 -47.34)" fill="#d3d3d3"/>
            <path id="Trazado_149704" data-name="Trazado 149704" d="M257.517,254.473a1.678,1.678,0,0,0,1.586,1.832,1.853,1.853,0,0,0,1.586-1.959,1.684,1.684,0,0,0-1.586-1.834,1.845,1.845,0,0,0-1.586,1.961" transform="translate(-45.465 -44.581)" fill="#d3d3d3"/>
            <path id="Trazado_149705" data-name="Trazado 149705" d="M257.517,274.188a1.633,1.633,0,0,0,1.586,1.8,1.907,1.907,0,0,0,1.586-2,1.638,1.638,0,0,0-1.586-1.8,1.9,1.9,0,0,0-1.586,2" transform="translate(-45.465 -48.055)" fill="#d3d3d3"/>
            <g id="Grupo_212447" data-name="Grupo 212447" transform="translate(221.585 193.602)" style="mix-blend-mode: multiply;isolation: isolate">
              <g id="Grupo_212446" data-name="Grupo 212446">
                <g id="Grupo_212445" data-name="Grupo 212445" clip-path="url(#clip-path-4)">
                  <path id="Trazado_149706" data-name="Trazado 149706" d="M269.094,303.936H347.6v-45.05l-21.123-2.994a13.73,13.73,0,0,0,.537-3.413c0-9.592-8.357-17.367-18.668-17.367s-18.668,7.776-18.668,17.367c0,2.068.869,4.966,2.231,8.239l-22.818-4.967Z" transform="translate(-269.094 -235.111)" fill="#d3d3d3"/>
                </g>
              </g>
            </g>
            <path id="Trazado_149707" data-name="Trazado 149707" d="M353.041,318.819l-20.627-3.114L307.1,321.935l-26.653-6.229V260.332l26.636,6.229,25.5-6.229,20.454,3.115Z" transform="translate(-49.514 -45.962)" fill="#307ca0"/>
            <path id="Trazado_149708" data-name="Trazado 149708" d="M350.388,315.928l-17.176-2.987L307.893,318.9,285.111,313.5V266.249L307.96,271.7l25.48-5.783,16.948,2.754Z" transform="translate(-50.336 -46.948)" fill="#f4f4f4"/>
            <path id="Trazado_149709" data-name="Trazado 149709" d="M346.081,283.933a12.329,12.329,0,0,0-1.737,5.212c-2.6,0-2.6-3.474-4.343-3.474-.869,0-.869,1.736-.869,2.605-4.342-2.605-6.948.869-10.421,4.344s-3.473-6.081-6.947-7.816-8.685,1.735-10.422,6.078c5.212,0,2.6,6.079,4.343,8.685-1.738.869-4.343-.868-6.079.869-3.475.869-.869,3.473-1.737,4.341-3.474,0-7.817-1.737-11.29.869,6.079,3.473,13.027,2.605,19.106,3.473,1.737.871,2.6-3.473,3.474-3.473,6.08-1.737,9.553,3.473,14.763-4.341.869-2.605,4.344,9.552,8.685,6.078,4.2-2.8,6.7-7.28,9.787-11.188-3.289-3.387-2.67-9.346-6.312-12.26" transform="translate(-52.361 -50.129)" fill="#d0d63e"/>
            <path id="Trazado_149710" data-name="Trazado 149710" d="M307.633,282.733c-1.737-.87-4.342,3.473-4.342,2.605-.777-6.973-7.77-7.036-12.969-8.2a17.435,17.435,0,0,0,5.152,11.676c1.737.868,1.737-3.475,2.605-3.475,3.473.868,4.343,13.028,7.817,6.949.868-1.738,5.21-6.081,1.737-9.554" transform="translate(-51.257 -48.929)" fill="#d0d63e"/>
            <path id="Trazado_149711" data-name="Trazado 149711" d="M293.794,296.608c-.479.328-.956.853-1.435.853,1.737,3.475,5.212,3.475,8.687,3.475-1.853-2.47-4.581-3.186-7.251-4.328" transform="translate(-51.616 -52.366)" fill="#d0d63e"/>
            <path id="Trazado_149712" data-name="Trazado 149712" d="M325.478,319.234c0-.868,0-2.605-.869-2.605a29.5,29.5,0,0,1-7,.852c2.329,2.325,5.1,4.522,7.865,1.753" transform="translate(-56.075 -55.901)" fill="#d0d63e"/>
            <path id="Trazado_149713" data-name="Trazado 149713" d="M357.44,315.281c-2.982,1.848-8.511,1.346-6.141,3.715,2.94,3.675,4.636.5,6.141-3.715" transform="translate(-61.921 -55.663)" fill="#d0d63e"/>
            <path id="Trazado_149714" data-name="Trazado 149714" d="M364.36,298.816a.2.2,0,0,1,.019.02v-.046a.317.317,0,0,1-.019.026" transform="translate(-64.328 -52.752)" fill="#d0d63e"/>
            <g id="Grupo_212450" data-name="Grupo 212450" transform="translate(257.572 214.37)" style="mix-blend-mode: multiply;isolation: isolate">
              <g id="Grupo_212449" data-name="Grupo 212449">
                <g id="Grupo_212448" data-name="Grupo 212448" clip-path="url(#clip-path-5)">
                  <path id="Trazado_149715" data-name="Trazado 149715" d="M338.125,315.7l-25.311,6.229-.017-55.373,25.5-6.229Z" transform="translate(-312.797 -260.332)" fill="#e2e2e2"/>
                </g>
              </g>
            </g>
            <g id="Grupo_212453" data-name="Grupo 212453" transform="translate(252.034 214.37)" style="mix-blend-mode: multiply;isolation: isolate">
              <g id="Grupo_212452" data-name="Grupo 212452">
                <g id="Grupo_212451" data-name="Grupo 212451" clip-path="url(#clip-path-6)">
                  <path id="Trazado_149716" data-name="Trazado 149716" d="M311.61,266.561l-5.539-1.3c4.578,11.836,15.2,28.613,15.2,28.613s17.737-21.019,22.064-32.6l-6.224-.948Z" transform="translate(-306.071 -260.332)" fill="#cecece"/>
                </g>
              </g>
            </g>
            <path id="Trazado_149717" data-name="Trazado 149717" d="M338.087,252.681c0,9.532-17.26,36.8-17.26,36.8s-17.261-27.268-17.261-36.8a17.261,17.261,0,1,1,34.521,0" transform="translate(-53.595 -41.564)" fill="#ef2946"/>
            <path id="Trazado_149718" data-name="Trazado 149718" d="M332.92,255.409a10.683,10.683,0,1,0-10.683,10.683,10.683,10.683,0,0,0,10.683-10.683" transform="translate(-55.005 -43.207)" fill="#fff"/>
            <g id="Grupo_212456" data-name="Grupo 212456" transform="translate(174.31 180.913)" style="mix-blend-mode: multiply;isolation: isolate">
              <g id="Grupo_212455" data-name="Grupo 212455">
                <g id="Grupo_212454" data-name="Grupo 212454" clip-path="url(#clip-path-7)">
                  <path id="Trazado_149719" data-name="Trazado 149719" d="M247.141,230.489v-2.414a4.687,4.687,0,0,0-4.382-4.7c-.908-.129-1.875-.2-2.661-.232.082.022.161.049.24.073-.348-.068-.708-.138-1.083-.213-1.264-.249-1.892-.36-3.422-.64-1.091-.2-2.2-.4-3.293-.591a6.7,6.7,0,0,0-3.4-1.455c-2-.285-3.985-.6-4.626-.6v0a4.493,4.493,0,0,0-.623-.006l-5.238.338v.529l-6.97.45v90.895q3.484.224,6.97.449v.53l5.238.338a4.621,4.621,0,0,0,.623,0v0c.641,0,2.622-.317,4.626-.6a6.364,6.364,0,0,0,4.058-2.116c.662-.206,1.3-.419,1.927-.632,2.253-.765,3.444-1.217,5.021-1.883h0c.6-.245,1.153-.479,1.646-.693a6.1,6.1,0,0,1-1.695.748c.786-.035,1.752-.1,2.661-.231,2.4-.342,4.382-1.947,4.382-4.7v-2.049l-.333.037V230.5Z" transform="translate(-211.683 -219.702)" fill="#d3d3d3"/>
                </g>
              </g>
            </g>
            <path id="Trazado_149720" data-name="Trazado 149720" d="M113.293,326.324a3.852,3.852,0,1,1-7.7,0v-3.35a3.852,3.852,0,0,1,7.7,0Z" transform="translate(-18.642 -56.341)" fill="#665446"/>
            <path id="Trazado_149721" data-name="Trazado 149721" d="M137.821,323.942a3.852,3.852,0,1,1-7.7,0v-3.349a3.852,3.852,0,1,1,7.7,0Z" transform="translate(-22.972 -55.921)" fill="#665446"/>
            <path id="Trazado_149722" data-name="Trazado 149722" d="M166.73,243.4c-.173,0-.347-.007-.522-.019l-16.018-1.2a7.476,7.476,0,0,1-7.068-7.245V220.361a7.476,7.476,0,0,1,7.068-7.245l16.018-1.2a7.006,7.006,0,0,1,7.44,7.251v16.964a7.023,7.023,0,0,1-6.918,7.269m0-26.505c-.049,0-.1,0-.149.006l-16.016,1.2a2.572,2.572,0,0,0-2.444,2.261v14.577a2.572,2.572,0,0,0,2.444,2.262l16.016,1.2a2.049,2.049,0,0,0,2.071-2.266V219.168a2.072,2.072,0,0,0-1.922-2.273" transform="translate(-25.268 -37.411)" fill="#665446"/>
            <path id="Trazado_149723" data-name="Trazado 149723" d="M221.286,225.368l0,0c-3.932-1.03-18.5-3.539-18.5-3.539s-.1,1.685-.268,4.588q-37.589,2.522-75.178,5.04a4.783,4.783,0,0,0-4.439,4.67v60.108a4.784,4.784,0,0,0,4.439,4.672q36.96,2.469,73.92,4.952c.353,3.437.848,5.965,1.526,7.2,8.1-1.213,16.206-4.913,18.757-6.152a4.844,4.844,0,0,0,2.951-4.731V230.183a4.787,4.787,0,0,0-3.2-4.815" transform="translate(-21.697 -39.164)" fill="#934c16"/>
            <path id="Trazado_149724" data-name="Trazado 149724" d="M233.842,310.217l-.129.054c-.273.134-.633.306-1.054.5,2.2-.777,3.345-1.224,4.868-1.891a3.49,3.49,0,0,0,1.136-2.556V229.171c0-1.3-.346-3.3-1.931-4.233-1.243-.255-1.832-.363-3.312-.644,1.234.427,2.744,2.742,2.744,4.876v77.154a3.976,3.976,0,0,1-2.321,3.892" transform="translate(-41.076 -39.599)" fill="#5b2c0c"/>
            <path id="Trazado_149725" data-name="Trazado 149725" d="M200.734,307.538c0,3.225-2.215,5.688-4.948,5.506q-51.662-3.454-103.323-6.923a5.331,5.331,0,0,1-4.949-5.206V233.93a5.328,5.328,0,0,1,4.949-5.2q51.66-3.467,103.323-6.926c2.733-.184,4.948,2.281,4.948,5.506Z" transform="translate(-15.451 -39.157)" fill="#ba651e"/>
            <path id="Trazado_149726" data-name="Trazado 149726" d="M219.205,320.852v.192c0,2.906-2.086,5.122-4.661,4.958-.273-.018-.546-.036-.819-.052v4.815l4.984.333c2.768.186,5.01-2.306,5.01-5.572v-4.418Z" transform="translate(-37.733 -56.647)" fill="#665446"/>
            <path id="Trazado_149727" data-name="Trazado 149727" d="M94.766,318.441a4.9,4.9,0,0,1-4.662-4.69v-.219l-3.442-.194v4.156a5.4,5.4,0,0,0,5.009,5.269l3.283.221v-4.531c-.064,0-.125-.01-.189-.013" transform="translate(-15.3 -55.32)" fill="#665446"/>
            <path id="Trazado_149728" data-name="Trazado 149728" d="M91.671,229.583a5.4,5.4,0,0,0-5.009,5.267v3.934l3.442-.171v-.021a4.9,4.9,0,0,1,4.662-4.685c.063-.006.125-.009.189-.013v-4.531l-3.283.221" transform="translate(-15.3 -40.494)" fill="#665446"/>
            <path id="Trazado_149729" data-name="Trazado 149729" d="M229.788,227.287a5.478,5.478,0,0,0-5.009-5.576c-1.91-.282-3.794-.6-4.4-.595l-.581,5.743.82-.051c2.554-.164,4.146,1.977,4.178,4.848l5-.113Z" transform="translate(-38.805 -39.038)" fill="#4f4137"/>
            <path id="Trazado_149730" data-name="Trazado 149730" d="M245.22,230.1a4.562,4.562,0,0,0-4.172-4.643c-.865-.128-1.785-.194-2.533-.229a5,5,0,0,1,3.817,4.928v2.4l2.888-.077Z" transform="translate(-42.11 -39.764)" fill="#4f4137"/>
            <path id="Trazado_149731" data-name="Trazado 149731" d="M242.332,319.03v1.642a5,5,0,0,1-3.817,4.929c.748-.034,1.668-.1,2.533-.23a4.563,4.563,0,0,0,4.172-4.643V318.7Z" transform="translate(-42.11 -56.268)" fill="#4f4137"/>
            <path id="Trazado_149732" data-name="Trazado 149732" d="M218.709,221.112l-4.985.333v4.816l.82-.053c2.574-.165,4.661,2.057,4.661,4.96v.708l4.514-.221v-4.967c0-3.264-2.243-5.762-5.01-5.576" transform="translate(-37.733 -39.036)" fill="#665446"/>
            <path id="Trazado_149733" data-name="Trazado 149733" d="M229.788,324.815a5.478,5.478,0,0,1-5.009,5.576c-1.91.282-3.794.6-4.4.6l-.581-5.743c.273.015.547.033.82.051,2.554.163,4.146-1.978,4.178-4.848l5-.222Z" transform="translate(-38.805 -56.536)" fill="#4f4137"/>
            <path id="Trazado_149734" data-name="Trazado 149734" d="M218.709,330.987l-4.985-.334V325.84q.41.023.82.051c2.574.166,4.661-2.058,4.661-4.96v-.707l4.514.222v4.966c0,3.265-2.243,5.761-5.01,5.576" transform="translate(-37.733 -56.536)" fill="#665446"/>
            <path id="Trazado_149735" data-name="Trazado 149735" d="M194.972,312.087l-1.027.189V222.994l1.027.133Z" transform="translate(-34.241 -39.37)" fill="#6d2e03"/>
            <path id="Trazado_149736" data-name="Trazado 149736" d="M178.882,311.443l12.4.832V222.994q-6.2.418-12.4.832Z" transform="translate(-31.582 -39.37)" fill="#8e4209"/>
            <path id="Trazado_149737" data-name="Trazado 149737" d="M122.266,309.183l.8-.207V227.9l-.8-.124Z" transform="translate(-21.586 -40.214)" fill="#6d2e03"/>
            <path id="Trazado_149738" data-name="Trazado 149738" d="M110.268,308.521q4.938.333,9.879.663V227.774l-9.879.664Z" transform="translate(-19.468 -40.214)" fill="#8e4209"/>
            <path id="Trazado_149739" data-name="Trazado 149739" d="M189.943,288.051H179.332A3.053,3.053,0,0,1,176.283,285v-10.61a3.053,3.053,0,0,1,3.049-3.05h10.611a3.053,3.053,0,0,1,3.049,3.05V285a3.053,3.053,0,0,1-3.049,3.049m-10.611-14.835a1.178,1.178,0,0,0-1.176,1.176V285a1.178,1.178,0,0,0,1.176,1.176h10.611A1.177,1.177,0,0,0,191.118,285v-10.61a1.177,1.177,0,0,0-1.175-1.176Z" transform="translate(-31.123 -47.906)" fill="#9e9e9e"/>
            <path id="Trazado_149740" data-name="Trazado 149740" d="M119.189,287.127h-8.925a2.718,2.718,0,0,1-2.715-2.715v-8.925a2.718,2.718,0,0,1,2.715-2.714h8.925a2.717,2.717,0,0,1,2.715,2.714v8.925a2.718,2.718,0,0,1-2.715,2.715m-8.925-12.479a.84.84,0,0,0-.84.84v8.925a.842.842,0,0,0,.84.842h8.925a.842.842,0,0,0,.841-.842v-8.925a.841.841,0,0,0-.841-.84Z" transform="translate(-18.988 -48.158)" fill="#9e9e9e"/>
            <g id="Grupo_212459" data-name="Grupo 212459" transform="translate(138.628 219.723)" style="mix-blend-mode: multiply;isolation: isolate">
              <g id="Grupo_212458" data-name="Grupo 212458">
                <g id="Grupo_212457" data-name="Grupo 212457" clip-path="url(#clip-path-8)">
                  <path id="Trazado_149741" data-name="Trazado 149741" d="M210.656,270.8v-1.582l-2.251.178v-1.118l-2.512.268v-1.713l-37.542,5.737v55.912l44.123-5.121V270.721Z" transform="translate(-168.351 -266.832)" fill="#d3d3d3"/>
                </g>
              </g>
            </g>
            <path id="Trazado_149742" data-name="Trazado 149742" d="M202.2,321.918l-33.854,5.987V269.554l33.854-5.987Z" transform="translate(-29.723 -46.533)" fill="#2b6b28"/>
            <path id="Trazado_149743" data-name="Trazado 149743" d="M204.469,320.332l-36.118,7.9V269.877l36.118-4.48Z" transform="translate(-29.723 -46.856)" fill="#d3d3d3"/>
            <path id="Trazado_149744" data-name="Trazado 149744" d="M206.5,321.523l-38.148,6.915V270.088l38.148-3.5Z" transform="translate(-29.723 -47.066)" fill="#e5e5e5"/>
            <path id="Trazado_149745" data-name="Trazado 149745" d="M208.139,323.432l-39.788,5.343v-58.35l39.788-1.928Z" transform="translate(-29.722 -47.403)" fill="#f2f2f2"/>
            <rect id="Rectángulo_41588" data-name="Rectángulo 41588" width="40.603" height="58.35" transform="translate(138.628 223.021)" fill="#398937"/>
          </g>
        </g>
        <text id="PASSPORT" transform="translate(116.704 233.326)" fill="#ffdc48" font-size="7" font-family="BebasNeueRegular, Bebas Neue"><tspan x="0" y="0" letter-spacing="-0.083em">P</tspan><tspan y="0">ASSPO</tspan><tspan y="0" letter-spacing="0.009em">R</tspan><tspan y="0">T</tspan></text>
        <g id="Grupo_212463" data-name="Grupo 212463" transform="translate(-17.787)">
          <g id="Grupo_212462" data-name="Grupo 212462" clip-path="url(#clip-path-2)">
            <path id="Trazado_149746" data-name="Trazado 149746" d="M200.339,302.512a12.4,12.4,0,0,0-9.993-5.073,12.36,12.36,0,0,0-9.972,19.646,12.406,12.406,0,0,0,9.992,5.073,12.359,12.359,0,0,0,9.973-19.646m-7.829-1.415c.014-.1.1-.272-.043-.316.072-.124.182-.143.128-.307.148-.01.211-.148.352-.175,0-.03.01-.071.007-.1a2.757,2.757,0,0,1,.31,0c.018.034-.016.022-.017.037l.021.126c.133.243-.357.327-.321.534.05.292.481.3.717.313a.2.2,0,0,0,.1.229c-.275.147.178.3.3.3,0,.03.011.07.007.1.11,0,.2-.073.309-.015-.058.267.266.161.091.436a.31.31,0,0,1,.253.129c-.3.3-.923.1-1.242-.046-.231-.11-.171-.193-.214-.416s-.291-.254-.277-.461c-.13-.012-.269-.05-.231-.212-.157.036-.184-.065-.247-.154m-2.336.633a.482.482,0,0,0-.007-.1c-.126-.015-.374.133-.4-.022a4.137,4.137,0,0,1-.417-.007c.061-.254.306-.26.525-.292.194-.026.427-.089.61-.121.057-.01.222-.066.25-.064.1.008.158.078.25.106.113.036.142.017.242-.042.044-.027.1-.223.184-.068l.106.042c.025.028.052.026.045.08.025,0,.052,0,.077.006a.95.95,0,0,0,.023.1c-.034.021-.035.041-.06.064.052,0,.078.032.123.043-.024.133-.467.119-.186.254.175.085.424-.026.608,0-.009.024-.01.055-.016.077.091-.009.124.009.148.084l.035.007c.039.429-.655-.041-.712.289-.216-.24-.156.144-.277.208s-.194-.061-.292-.081-.189.024-.273,0c-.166-.053-.242-.2-.377-.3-.114-.079-.142-.01-.2-.125-.022-.046.166-.108-.012-.145m6.875,17.236q-.368.269-.753.506a.136.136,0,0,0-.136-.049c-.03.063-.109.063-.169.094-.06-.1-.14-.054-.224-.037a.65.65,0,0,1-.4.344c-.138.032-.115-.02-.238-.039a.373.373,0,0,0-.156.031c-.057.04-.039.078-.084.109-.076.054-.158.057-.238.11a1.231,1.231,0,0,1-.242.166c-.125.048-.24.039-.363.092a1.955,1.955,0,0,0-.321.108.231.231,0,0,0-.152-.053c0,.023-.008.056-.006.08-.073,0-.107.061-.166.1-.034.023-.068.01-.1.038a.185.185,0,0,0-.066.085c.089.018.051.051.036.112l0,.006c-.135.035-.273.069-.411.1a.107.107,0,0,1-.033-.046.753.753,0,0,1-.14.084c-.041.008-.082.018-.123.026a.7.7,0,0,0-.156-.056c-.136-.021-.165.048-.265.083-.159.054-.324-.051-.476-.014-.012-.128-.137-.11-.117.014a.335.335,0,0,0-.184.028.208.208,0,0,0-.207,0c-.1-.1-.333.029-.5.15-.1,0-.193,0-.29,0a11.4,11.4,0,0,1-8.088-3.386.3.3,0,0,0-.189-.221c.024-.159-.119-.23-.091-.393a.561.561,0,0,1-.25-.171.678.678,0,0,1-.11-.291c-.012-.04-.081-.065-.1-.128,0,0,.034-.122.036-.129.035-.128.01-.148.147-.212s.171.056.231-.1c.021-.055-.04-.205-.068-.271-.09-.2-.091-.333-.333-.35-.1-.068-.054-.129-.087-.224a3.7,3.7,0,0,1-.144-.42c-.018-.074.006-.212-.04-.275s-.128-.046-.175-.1c-.168-.184-.054-.191.048-.3a.346.346,0,0,0,.1-.165s-.045-.055-.034-.088.084-.042.1-.067a1.1,1.1,0,0,0,.178-.434c.012-.167-.094-.267-.11-.426-.02-.185.069-.245-.132-.395-.1-.072-.353-.1-.376-.212-.147-.032-.355.172-.358-.084-.234-.071-.212.23-.415.183-.047-.129-.193-.449-.337-.484-.026-.137.156-.5-.126-.442,0-.074,0-.151-.007-.225-.058-.037-.045-.016-.06-.087-.049-.257.126-.67-.164-.848-.122-.075-.26.037-.391-.057a11.393,11.393,0,0,1,2.006-7.012,2.892,2.892,0,0,0,.486-.62c.1-.13.4-.54.588-.419-.007.061-.1.227-.044.286s.2-.047.254-.058a1.317,1.317,0,0,0,.019.4c.188.024.189-.193.207-.321a1.027,1.027,0,0,1,.13-.407,1.187,1.187,0,0,0,.161-.309,1.586,1.586,0,0,1,.1-.38,4.336,4.336,0,0,1,.48-.6c.087-.109.207-.182.3-.281.018-.02.032-.04.049-.061.16-.114.32-.222.485-.328-.032.081,0,.1-.1.178s-.231.1-.21.236c.063,0,.124-.012.155.043.122-.009.218-.182.306-.082.111.124-.106.224-.084.324.03.134.222-.11.25-.17a1.911,1.911,0,0,1,.128-.35,3.3,3.3,0,0,1,.356-.32.941.941,0,0,1,.3-.213,4.058,4.058,0,0,0,.419-.2c.084-.051.176-.162.281-.15,0,0,.014.026.016.03.063-.052.149-.1.212-.144s.133-.121.185-.153a5.856,5.856,0,0,1,.629-.281.616.616,0,0,0,.144-.1,11.289,11.289,0,0,1,3.113-.434c.033,0,.067,0,.1,0,.147.217-.256.139-.194.31-.074.033-.368-.041-.174.158-.015.009-.041.01-.053.019.026.21.191.141.355.166.2.03.306.161.1.294.074.1.105.272-.057.292-.066-.191-.121.025-.187.009s-.142-.073-.056-.175a.581.581,0,0,1-.29-.041c.021-.011.065-.048.086-.059-.068-.007-.211.044-.256,0-.084-.079.018-.135.087-.15a.8.8,0,0,1-.254-.067c.063-.063.161-.09.217-.17-.072-.086-.275-.061-.376-.068a2.071,2.071,0,0,0-.405-.059,1.011,1.011,0,0,0-.737.359c-.187.254-.456.25-.717.427-.172.116-.466.385-.438.6.014.021.035-.012.04-.011-.061.25.323.1.212-.109.044.021.076,0,.125.04.047-.062.245-.428.3-.132.113-.009.123-.119.247-.1a3.682,3.682,0,0,0-.015.52c.185.049.458-.186.378-.371.222-.052.037-.268.1-.411a1.048,1.048,0,0,1,.152-.184c.068-.053.077-.126.208-.1.021.142-.122.208-.1.352.236.022.21.161.461.049.148-.067.305-.147.3.118.142.052.306-.02.441.025.056.019.069.084.11.1.026.013.17.04.18.05.31.362-.421.179-.455.205-.076-.152-.37-.035-.427.081-.083.167.134.238-.13.242-.077,0-.1-.05-.21-.011-.071.027-.107.1-.184.133s-.182.022-.253.043a2.66,2.66,0,0,1-.253.1c-.137,0-.243-.151-.421-.1-.129.036-.115.094-.212.164-.082.059-.175.026-.246.073-.169.108-.087.309-.188.443-.044.058-.131.057-.18.115s-.045.151-.1.213a.7.7,0,0,1-.245-.037c-.106.151-.394-.047-.486.184.025,0,.054.006.08.008-.031.031-.039.09-.058.118.365-.012.175.4-.024.511-.072-.075-.238.056-.337.081-.04.01-.051.063-.084.068s-.052-.05-.085-.047c-.1.013-.174.046-.245-.024a.742.742,0,0,0-.175.278,1.137,1.137,0,0,0-.089.374c-.03.211-.379.67.083.59a1.906,1.906,0,0,0,.32-.168c.042-.02.049-.082.084-.1s.091.013.126,0a.7.7,0,0,0,.212-.106c.086-.081.142-.172.226-.259a.866.866,0,0,0,.2-.307c.445.021.1-.313.381-.419.145-.056.222.082.368-.009.068-.042.049-.129.105-.17s.109-.016.17-.04c.144-.063.148-.109.319-.059.044.012.077.063.127.083s.114,0,.175.016c.124.04.545.373.581.03-.175-.009-.528-.068-.457-.315.406-.172.637.133.922.313a.846.846,0,0,1,.343.31c.074.163-.008.377.266.319a1.306,1.306,0,0,0,.037-.141c0-.012-.026-.03-.031-.041.175-.08.009-.117,0-.194-.007-.043-.072-.019-.05-.111.009-.037.134-.031.15-.083.038-.124-.173-.129.026-.212.111-.044.253-.009.193.127a.141.141,0,0,1,.084.17c.026,0,.053,0,.078.007.031.135-.052.377.1.442a.672.672,0,0,0,.007.1c.185.026.294-.07.46-.124a1.2,1.2,0,0,1,.442-.1c.091.019.069.109.168.1.065,0,.131-.124.184-.149.263-.128.137.057.229.218a.506.506,0,0,1-.086-.021c.063.053.142.095.2.141a2.171,2.171,0,0,1-.317-.017c.078.021.29.078.281.228a.777.777,0,0,0,.124,0c0,.021,0,.043,0,.061a.659.659,0,0,0-.042.063c-.032,0-.068.007-.1.007,0,.093-.062.126-.146.119-.011-.017-.02-.038-.03-.057-.1.069-.562.272-.588.106-.068,0-.1-.035-.16-.006a.2.2,0,0,0-.2-.121c-.06.078-.014.173-.056.235-.053.079-.148.082-.193.179a.136.136,0,0,1-.007.19c-.16-.008-.11-.163-.211-.224-.042-.026-.1.013-.144,0a1.455,1.455,0,0,0-.206-.09c-.414-.058-.015.431-.315.467-.041-.034-.778.333-.7.049-.221-.027-.021-.131-.076-.217-.07-.107-.2-.046-.3-.04-.12.006-.651.026-.465-.27-.026-.007-.051-.022-.08-.03.038-.17-.04-.224-.111-.35-.115-.055-.168.046-.27.079a1.27,1.27,0,0,1-.342.028c-.143,0-.5-.025-.589.159a1.024,1.024,0,0,0-.564.3c-.144.105-.12.115-.278.068-.1-.03-.233-.175-.295-.008-.123-.025-.155.044-.228.109a1.929,1.929,0,0,0-.2.2c-.088.142-.1.447-.276.523.013.118-.133.233-.194.313a.693.693,0,0,1-.333.258c.009.111-.17.276-.254.348.026.007.051.024.079.03-.029.165-.273.31-.331.478.035-.007.086.012.121.007-.013.12.083.217.021.329-.156-.011-.2.149-.33.175.026.069-.016.063.056.106a.756.756,0,0,0-.1.375c.031.175.117.166.049.357-.09.25-.289.413-.3.67.025,0,.053.007.077.007a.255.255,0,0,1,.069.2c.03,0,.07.01.1.007a.236.236,0,0,1-.014.243.282.282,0,0,0,.1.15c.009-.022.034-.055.046-.078.21-.031.277.3.38.438a2.049,2.049,0,0,1,.164.254c.049.082.064.2.1.273.06.1.154.107.229.189.1.111.05.2.236.233.169.026.493-.059.487-.272.124-.031.158.08.25.082s.131-.04.231-.042c.145,0,.333.163.38-.124.131,0,.185-.114.272-.186s.249-.089.333-.158c.142-.121.168-.581.379-.308.007.02,0,.037.007.057.217-.027.3.269.37.408.026.053.053.282.068.292.112.071.254-.055.256-.166.093-.026.122.056.2.034s.1-.1.194-.12a.464.464,0,0,1,.236.015c.136.062.049.05.121.153a.831.831,0,0,1,.191.4c.017.188-.119.344-.128.526a.4.4,0,0,0,.2.352c.112.1.162.184.289.284.145.116.848.184.571.432.291.011.065.191.139.325a.145.145,0,0,0,.017.03c-.074.137-.086.315.132.349a1.9,1.9,0,0,0,0,.228c0,.034-.072.058-.066.081.011.05.1.084.1.113a.507.507,0,0,1-.149.367c-.112.146-.207.187-.263.363-.032.1-.044.086-.044.185,0-.01.038.259.038.257.052.119.3.189.417.237.175.07.217.189.337.252.07.036.158,0,.236.016s.133.068.211.084c.206.042.357-.013.168.19-.057.063-.167.043-.164.165.218.1-.245.333-.05.514.074.071.223.025.295.1s.006.247.148.321a.654.654,0,0,1,.006.1c.069.042.038.021.085.084a.513.513,0,0,1,.3.239c.044.017.022.043.053.1.01.018-.029.068-.017.1s.072.016.081.041a.84.84,0,0,1,.044.341c.166.02.341.049.336.251.167.022.133-.165.182-.27a1.115,1.115,0,0,1,.189-.259c.122-.145.041-.109.237-.163.124-.034.25-.039.256-.207a1.743,1.743,0,0,0,.7-.25.607.607,0,0,0,.306-.221c.1-.163.016-.178.039-.328-.2-.074.033-.322-.205-.366.071-.244.5-.086.527-.307a.714.714,0,0,0,.35-.2.294.294,0,0,0,.068-.354c-.033-.068-.092-.119-.126-.188s.026-.062-.058-.152c-.1-.109-.271-.068-.3-.226-.044-.207.2-.186.343-.229.231-.074.184-.177.331-.338.053-.06.158-.06.2-.11.052-.069.018-.191.061-.266s.113-.074.149-.172a.656.656,0,0,0,.037-.185c-.035-.036.02-.24,0-.34-.023-.154-.116-.268-.068-.417-.029-.007-.049-.021-.077-.03.086-.231-.148-.248-.3-.291l-.008,0a.225.225,0,0,0-.018-.035,1.184,1.184,0,0,0-.185-.232c-.078-.08-.185-.1-.214-.211-.113-.037-.631.062-.413-.231.073-.1.222-.045.312-.089.139-.068.1-.063.151-.228.044.019.115,0,.161.013.058-.125-.009-.3.049-.418.028-.055.14-.1.185-.147a.456.456,0,0,0,.107-.189.853.853,0,0,1,.226-.337.379.379,0,0,0,.171-.355c-.03,0-.069-.009-.1-.006-.013-.114.095-.159.1-.267.277-.055.119-.272.207-.426.043-.077.175-.084.207-.151.042-.087-.063-.2-.034-.308a.505.505,0,0,0,.436-.468c-.017-.008-.039-.015-.058-.023-.007-.211.171-.393.215-.608.037-.187.168-.5.074-.67-.208-.033-.127.221-.211.309-.1.106-.332-.03-.336.169-.188.021-.231.275-.4.336-.153.054-.437-.068-.44.231-.2-.024-.739.3-.815-.013.1-.042.528-.276.167-.3a.231.231,0,0,0-.027-.224c-.242-.035-.3.292-.441-.045-.082,0-.145.013-.225.016.012-.2-.037-.206-.151-.33-.073-.08-.056-.007-.105-.133a2.311,2.311,0,0,1-.045-.308.569.569,0,0,1-.317-.125c-.043-.049-.009-.142-.04-.175-.051-.055-.129-.035-.187-.063-.2-.1-.4-.133-.607-.236.084-.216-.262-.151-.357-.209-.209-.13-.113-.25.04-.312.118-.05.374.022.31-.1-.1-.183-.268-.038-.413-.073-.084-.152.117-.246.318-.339.108.053.191.213.247.28s.231.158.213.291a.235.235,0,0,1,.254.147,1.684,1.684,0,0,1,.776.277c.13.058.741.272.739.353.275.03.211.253.169.443.212.011-.063.331.208.424a.866.866,0,0,0,.61-.085,2.578,2.578,0,0,1,.358-.1c.06-.016.136-.007.189-.048.1-.077.021-.086.063-.142.114-.155.321-.246.466-.4-.128-.128.1-.285.142-.422-.234,0-.189-.262-.147-.416-.035.012-.108,0-.142.015,0-.076.2-.663-.1-.38.01-.189-.1-.1-.2-.124-.159-.039-.1.035-.165-.146-.047-.134-.105-.434-.315-.375-.061.151-.028.431-.3.4-.091-.012-.086-.11-.168-.128-.109-.024-.132.051-.237,0-.123-.058-.208-.275-.289-.36-.108-.108-.352-.136-.255-.353-.216-.029-.1-.4.13-.321.152.051.119.315.375.215.01.16,0,.188.088.272.069.063.158.007.214.143.157.047.236-.128.392-.119a1,1,0,0,0,.282.23,1.289,1.289,0,0,0,.435-.006c.076-.031.046-.125.113-.161s.125.011.184,0c.13-.026.354-.132.3.142a1.333,1.333,0,0,1,.318.053c.194.011.15-.041.286.1-.024.215.6.256.756.231.094.1.273.069.241.247.143.061.016.138.054.235s.1.08.212.175c.026.023.037.094.044.1a.7.7,0,0,0,.128.061.388.388,0,0,1,.087.291.441.441,0,0,1,.333.447c0,.095-.065.177-.026.259.062.127.146.059.231.126.2.156.083.333.322.437a.714.714,0,0,1,.4.3.135.135,0,0,0,.026-.259.4.4,0,0,0-.061-.271c-.057-.069-.166-.007-.2-.123-.017-.06.077-.174.081-.25s-.044-.128-.023-.22c.049-.21.21-.229.006-.412-.054-.048-.161-.069-.205-.136s-.023-.2-.05-.264c-.241-.048.007-.262-.106-.4-.075-.09-.338-.1-.433-.178a.628.628,0,0,1-.109-.184c-.04-.068-.158-.077-.1-.206.03-.072.143-.038.184-.109s-.007-.184.025-.272c.03,0,.068-.01.1-.006.007-.124-.045-.324.147-.268-.022.156.024.412.212.4.083.168-.114.257.039.4.062.059.168.006.222.073.037.046.017.176.019.234.186.079.218.309.408.319a11.368,11.368,0,0,1-3.429,14.307" transform="translate(-31.426 -52.513)" fill="#ffdc48"/>
            <path id="Trazado_149747" data-name="Trazado 149747" d="M187.046,302.312c.076.044.332-.175.385-.245.067-.087.053-.161.142-.217.026-.016.158,0,.207-.016-.039.165-.321.289-.34.439-.024.18.105.084.175.042.036-.021.055-.255.152-.066.124-.043.316-.137.353-.27a.183.183,0,0,0,.186.08c.03-.117.175-.134.154-.288.017.012.058.019.082.042a.152.152,0,0,0-.018-.208c.137-.029.166-.163.183-.276-.142-.044-.18.083-.287.12,0-.026,0-.053-.007-.079a1.871,1.871,0,0,0-.206.014.564.564,0,0,1,0-.138c.008-.01.042-.02.056-.03s-.022-.035-.016-.055c.066-.05.05-.073.057-.147a.532.532,0,0,0-.042-.044c-.054.019-.182.071-.2.082-.045.026-.137-.024-.134.094a1.132,1.132,0,0,0-.292.095c-.1.174.159.1.081.249a.325.325,0,0,0-.29-.03.6.6,0,0,1-.207.058c.046.162.01.142-.061.255-.019.03-.078.023-.106.061s.021.12-.008.161c-.1.138-.487.158-.351.4.119-.108.251.052.354-.085" transform="translate(-32.955 -53.136)" fill="#ffdc48"/>
            <path id="Trazado_149748" data-name="Trazado 149748" d="M194.612,320.692a.3.3,0,0,0-.031-.059l-.012-.006Z" transform="translate(-34.351 -56.607)" fill="#ffdc48"/>
            <path id="Trazado_149749" data-name="Trazado 149749" d="M200.665,316.842c.025-.191.074-.215-.168-.254a.2.2,0,0,1,.205-.232c-.027-.054,0-.107-.016-.161.212,0,.166-.282.185-.4.013-.079.056-.138.065-.232s-.034-.17-.027-.226c.016-.151.139-.79-.16-.872a.845.845,0,0,0-.109-.124l-.127.021c.18.23.082.241-.02.444-.069.131.011.345-.079.468-.053.069-.176.083-.239.142a1.024,1.024,0,0,0-.152.231c-.032.064-.049.185-.082.233-.068.1-.171.105-.249.178-.173.161-.11.278-.069.46a1.132,1.132,0,0,1,.007.478c-.017.081-.063.171-.086.252,0,.007-.055.137-.059.109.007.045.082.1.082.118a1.588,1.588,0,0,1-.086.488c-.037.141-.009.367-.1.485a.29.29,0,0,0,.344-.085c.04-.041.049-.121.082-.153s.137-.038.171-.082,0-.141.04-.187.141-.026.2-.078c.119-.108.052-.206.079-.357.043-.251.3-.269.525-.391.1-.051.244-.1.175-.226s-.212-.014-.333-.044" transform="translate(-35.202 -55.497)" fill="#ffdc48"/>
            <path id="Trazado_149750" data-name="Trazado 149750" d="M187.255,300.909s.276-.128.294-.142c.093-.072.026-.222.207-.194.1-.182.208-.283.3-.456.052-.009.068-.044.1-.067l.1-.105a2.336,2.336,0,0,1-.525.249c-.092.021-.162,0-.251.026-.209.055-.105.066-.191.211-.054.091-.333.446-.041.48" transform="translate(-33.037 -52.955)" fill="#ffdc48"/>
            <path id="Trazado_149751" data-name="Trazado 149751" d="M204.114,309.641c0-.029.107-.031.118-.072a.518.518,0,0,0,.011-.148,2.059,2.059,0,0,0-.115-.515c-.041-.122-.221-.338-.371-.324-.007-.021,0-.04-.007-.058a.781.781,0,0,0-.14-.029c-.04-.031.007,0,.017-.016l-.085-.021c.044.082.041.17.084.254.032.064.13.119.165.188a2.414,2.414,0,0,1,.088.466c.049.182.072.341.13.5a1.048,1.048,0,0,1,.043.523.191.191,0,0,0,.142.021.787.787,0,0,0,.023-.523c-.026-.072-.112-.169-.1-.249" transform="translate(-35.935 -54.459)" fill="#ffdc48"/>
            <path id="Trazado_149752" data-name="Trazado 149752" d="M215.791,323.82,209.8,289.966h58.35l5.987,33.854Z" transform="translate(-37.041 -51.194)" fill="#511818"/>
            <path id="Trazado_149753" data-name="Trazado 149753" d="M217.7,326.084l-7.9-36.118h58.35l4.48,36.118Z" transform="translate(-37.041 -51.194)" fill="#d3d3d3"/>
            <path id="Trazado_149754" data-name="Trazado 149754" d="M216.719,328.114,209.8,289.966h58.35l3.5,38.148Z" transform="translate(-37.041 -51.194)" fill="#e5e5e5"/>
            <path id="Trazado_149755" data-name="Trazado 149755" d="M215.147,329.754,209.8,289.966h58.35l1.928,39.787Z" transform="translate(-37.041 -51.194)" fill="#f2f2f2"/>
            <rect id="Rectángulo_41590" data-name="Rectángulo 41590" width="58.35" height="40.603" transform="translate(172.763 238.772)" fill="#892c2c"/>
          </g>
        </g>
        <text id="PASSPORT-2" data-name="PASSPORT" transform="translate(203.019 234.635) rotate(90)" fill="#ffdc48" font-size="7" font-family="BebasNeueRegular, Bebas Neue"><tspan x="0" y="0" letter-spacing="-0.083em">P</tspan><tspan y="0">ASSPO</tspan><tspan y="0" letter-spacing="0.009em">R</tspan><tspan y="0">T</tspan></text>
        <g id="Grupo_212474" data-name="Grupo 212474" transform="translate(-17.787)">
          <g id="Grupo_212473" data-name="Grupo 212473" clip-path="url(#clip-path-2)">
            <path id="Trazado_149756" data-name="Trazado 149756" d="M243.692,321.952a12.405,12.405,0,0,0,5.073-9.991,12.36,12.36,0,0,0-19.647-9.973,12.406,12.406,0,0,0-5.072,9.992,12.358,12.358,0,0,0,19.646,9.972m1.413-7.829c.1.014.273.1.317-.043.123.072.143.182.308.127.01.148.149.212.175.352.03,0,.069.01.1.007a2.414,2.414,0,0,1,0,.309c-.035.019-.023-.014-.038-.016l-.126.02c-.242.133-.327-.357-.533-.321-.292.051-.3.482-.313.719a.2.2,0,0,0-.229.1c-.147-.275-.3.178-.3.3-.03,0-.07.011-.1.007,0,.109.073.2.014.308-.267-.058-.162.265-.435.091a.3.3,0,0,1-.131.252c-.3-.3-.1-.922.048-1.241.109-.231.193-.171.416-.215s.253-.292.46-.277c.012-.131.05-.269.211-.232-.035-.156.067-.184.154-.246m-.632-2.336a.509.509,0,0,0,.1-.007c.014-.127-.134-.374.021-.4a3.887,3.887,0,0,1,.007-.417c.254.06.26.305.291.525.026.193.088.427.121.61.011.058.067.222.063.25-.007.1-.078.158-.106.25-.036.112-.017.142.043.242.026.044.223.1.068.183l-.043.105c-.028.025-.027.054-.08.046,0,.025,0,.052-.007.077-.032,0-.071.016-.1.022-.022-.034-.042-.034-.064-.058,0,.049-.034.076-.044.122-.133-.026-.119-.467-.254-.188-.085.176.026.425,0,.609-.024-.009-.056-.01-.077-.017.008.091-.01.124-.084.148a.263.263,0,0,0-.007.035c-.43.039.041-.655-.29-.711.241-.217-.143-.157-.208-.277s.06-.2.081-.292-.024-.189,0-.274c.052-.166.2-.242.3-.376.08-.113.011-.142.126-.2.045-.022.107.166.144-.012m-17.235,6.875q-.271-.369-.506-.752a.14.14,0,0,0,.049-.138c-.063-.028-.063-.109-.095-.168.1-.06.055-.139.039-.225a.649.649,0,0,1-.347-.4c-.03-.138.021-.115.04-.239a.356.356,0,0,0-.031-.154c-.039-.059-.077-.04-.11-.084-.054-.077-.057-.16-.109-.238a1.378,1.378,0,0,1-.167-.242c-.047-.127-.038-.24-.091-.363-.042-.091-.051-.25-.107-.321a.241.241,0,0,0,.052-.153c-.023.005-.058-.007-.081,0,0-.073-.061-.108-.1-.166-.022-.035-.011-.067-.038-.1a.186.186,0,0,0-.085-.064c-.018.088-.051.05-.112.036l-.006,0c-.036-.136-.07-.274-.1-.413a.112.112,0,0,1,.045-.032.707.707,0,0,1-.083-.141c-.009-.041-.018-.081-.026-.122a.6.6,0,0,0,.056-.156c.021-.137-.047-.163-.082-.266-.055-.158.051-.323.014-.475.127-.013.109-.136-.015-.117a.314.314,0,0,0-.028-.184.208.208,0,0,0,0-.208c.1-.1-.029-.333-.15-.5,0-.1,0-.193,0-.289a11.406,11.406,0,0,1,3.386-8.088.3.3,0,0,0,.221-.189c.159.025.23-.12.392-.091a.577.577,0,0,1,.171-.25.732.732,0,0,1,.291-.11c.038-.012.065-.081.126-.1,0,0,.123.036.131.037.128.037.148.012.212.149s-.056.171.1.231a.569.569,0,0,0,.268-.068c.2-.09.334-.09.352-.332.068-.1.129-.054.223-.087a3.948,3.948,0,0,1,.42-.144c.074-.018.213.006.276-.04s.045-.128.1-.176c.184-.167.191-.054.3.048a.335.335,0,0,0,.165.1s.055-.046.089-.035.041.086.066.1a1.1,1.1,0,0,0,.433.178c.169.012.269-.092.426-.11.186-.019.248.069.4-.132.071-.1.1-.354.212-.377.032-.147-.171-.355.084-.357.071-.234-.229-.212-.183-.413.128-.049.45-.2.484-.338.137-.026.5.154.441-.128l.226-.006c.037-.059.016-.045.087-.06.257-.049.67.127.847-.163.077-.123-.037-.263.058-.393a11.407,11.407,0,0,1,7.013,2.008,2.943,2.943,0,0,0,.62.485c.129.1.539.4.418.589-.059-.008-.226-.1-.285-.045s.048.2.058.254a1.336,1.336,0,0,0-.4.021c-.025.187.193.189.321.208a1.011,1.011,0,0,1,.406.128,1.179,1.179,0,0,0,.309.161,1.529,1.529,0,0,1,.38.1,4.4,4.4,0,0,1,.6.478c.106.088.181.208.28.3l.06.048c.114.16.223.321.327.485-.08-.032-.1,0-.177-.1s-.1-.23-.236-.209c0,.063.013.126-.041.156.008.121.181.217.082.306-.124.11-.225-.106-.323-.086-.135.03.11.224.169.25a1.78,1.78,0,0,1,.35.129,3.13,3.13,0,0,1,.32.356.9.9,0,0,1,.213.3,4.542,4.542,0,0,0,.2.419c.052.083.162.176.149.282l-.028.014c.051.063.1.15.142.213s.123.132.155.184a6.111,6.111,0,0,1,.28.629.572.572,0,0,0,.1.145,11.292,11.292,0,0,1,.434,3.113c0,.033,0,.066,0,.1-.216.145-.138-.257-.31-.194-.031-.075.042-.368-.158-.175-.009-.014-.01-.041-.019-.053-.21.027-.141.191-.164.355-.03.2-.161.306-.295.1-.1.072-.273.1-.294-.057.194-.068-.022-.121-.007-.188s.072-.142.175-.055a.585.585,0,0,1,.041-.291c.012.021.049.066.059.086.007-.067-.044-.211,0-.256.078-.084.135.019.149.088a.779.779,0,0,1,.067-.254c.062.063.089.161.17.217.086-.073.059-.276.068-.378a1.939,1.939,0,0,0,.058-.405,1.007,1.007,0,0,0-.358-.736c-.254-.188-.249-.456-.426-.718-.117-.172-.385-.466-.6-.437-.02.015.013.035.012.041-.251-.063-.1.321.109.211-.021.044,0,.076-.04.124.06.049.427.246.131.3.009.113.119.122.1.246a3.7,3.7,0,0,0-.52-.014c-.048.184.187.458.371.378.051.222.268.036.409.1a1.027,1.027,0,0,1,.185.151c.054.067.125.078.1.208-.14.021-.207-.122-.352-.1-.022.236-.162.212-.05.46.067.149.149.307-.116.3-.052.143.02.3-.025.441-.02.057-.085.069-.1.11s-.039.172-.049.18c-.364.309-.18-.422-.205-.455.152-.077.034-.369-.081-.427-.167-.082-.238.135-.243-.131,0-.077.051-.1.011-.21-.026-.07-.1-.106-.132-.183a2.563,2.563,0,0,1-.043-.253,2.459,2.459,0,0,1-.1-.254c0-.137.15-.243.1-.421-.036-.13-.094-.115-.163-.212s-.027-.175-.074-.248c-.106-.169-.307-.086-.442-.187-.057-.044-.057-.132-.115-.18s-.151-.044-.213-.1a.69.69,0,0,1,.037-.245c-.151-.105.046-.394-.184-.486a.654.654,0,0,1-.008.081c-.031-.031-.089-.039-.118-.058.012.366-.4.175-.511-.026.076-.071-.056-.236-.081-.335-.01-.04-.063-.051-.066-.084s.049-.053.046-.085c-.014-.1-.046-.174.022-.245a.747.747,0,0,0-.278-.175,1.2,1.2,0,0,0-.374-.091c-.212-.03-.669-.377-.59.085a1.948,1.948,0,0,0,.167.319c.02.044.083.05.1.086s-.012.092,0,.126a.66.66,0,0,0,.106.211c.08.085.171.144.258.226a.857.857,0,0,0,.307.2c-.02.445.313.1.42.38.056.146-.082.224.009.369.042.068.128.049.17.1s.014.111.04.17c.063.144.11.148.059.319-.012.045-.064.078-.084.128s0,.114-.015.174c-.041.124-.374.545-.03.581.009-.175.069-.527.315-.457.173.406-.133.638-.312.924a.861.861,0,0,1-.31.341c-.163.075-.375-.009-.319.266a1.178,1.178,0,0,0,.141.035c.012,0,.03-.024.04-.029.081.174.119.009.194,0,.045-.007.021-.073.112-.049.038.008.031.133.083.149.125.037.128-.173.211.026.045.11.01.253-.125.194a.143.143,0,0,1-.171.083c0,.026-.006.052-.007.078-.135.032-.377-.052-.442.105a.5.5,0,0,0-.1.006c-.026.184.071.294.124.459a1.212,1.212,0,0,1,.1.445c-.018.091-.109.068-.1.167,0,.064.124.131.148.184.128.263-.055.136-.217.229a.334.334,0,0,1,.021-.086c-.054.063-.1.142-.142.2a2.366,2.366,0,0,1,.016-.315c-.02.077-.077.288-.227.279a.9.9,0,0,0,0,.124.372.372,0,0,0-.059,0c-.025-.02-.033-.021-.064-.042,0-.032-.007-.068-.007-.1-.093,0-.125-.063-.119-.147.016-.011.037-.018.056-.03-.069-.1-.271-.561-.106-.587,0-.068.036-.1.007-.161a.2.2,0,0,0,.12-.2c-.079-.061-.174-.014-.236-.056-.078-.052-.082-.148-.179-.193a.136.136,0,0,1-.191-.007c.009-.159.164-.11.224-.21.026-.042-.012-.1,0-.144a1.5,1.5,0,0,0,.09-.206c.057-.414-.431-.014-.465-.314.033-.043-.335-.778-.051-.7.027-.222.131-.021.217-.075.109-.071.046-.2.041-.3-.007-.121-.026-.652.269-.467.007-.026.023-.05.029-.078.17.038.224-.041.352-.112.054-.115-.046-.168-.081-.27a1.336,1.336,0,0,1-.027-.342c0-.143.025-.5-.159-.589a1.022,1.022,0,0,0-.3-.565c-.106-.142-.115-.12-.068-.277.03-.1.175-.231.008-.295.025-.124-.044-.155-.109-.228a2.231,2.231,0,0,0-.2-.205c-.143-.087-.448-.1-.525-.275-.116.014-.231-.133-.313-.193a.687.687,0,0,1-.255-.334c-.112.01-.278-.17-.349-.254-.007.026-.026.049-.031.078-.163-.029-.308-.273-.476-.331.007.036-.012.086-.007.122-.121-.014-.217.082-.329.019.01-.156-.15-.2-.175-.329-.069.026-.065-.016-.107.056a.74.74,0,0,0-.375-.1c-.175.031-.167.117-.359.049-.25-.089-.413-.287-.669-.3,0,.026-.006.054-.006.078a.265.265,0,0,1-.2.069c0,.03-.012.071-.007.1a.236.236,0,0,1-.244-.016.3.3,0,0,0-.15.1c.023.011.054.035.079.048.03.21-.3.277-.439.38a1.9,1.9,0,0,1-.254.164c-.082.048-.2.064-.273.1-.1.061-.106.154-.188.228-.111.1-.2.052-.233.236s.058.494.27.487c.034.125-.077.159-.081.251s.041.131.042.231c0,.145-.163.334.124.38,0,.131.114.184.186.272s.09.248.159.331c.121.145.581.169.308.381-.02.007-.037,0-.058.006.026.217-.268.306-.408.372-.053.024-.282.051-.292.067-.07.111.056.254.168.255.024.092-.057.122-.035.2s.1.1.12.194a.467.467,0,0,1-.014.237c-.062.136-.051.049-.153.119a.841.841,0,0,1-.4.193c-.189.016-.344-.119-.526-.129s-.253.081-.352.2-.184.162-.284.288c-.116.146-.184.849-.432.572-.011.291-.192.065-.327.139a.122.122,0,0,0-.029.017c-.137-.074-.315-.086-.348.132a1.9,1.9,0,0,0-.229,0c-.033,0-.056-.071-.082-.065-.049.012-.085.1-.112.1a.5.5,0,0,1-.367-.148c-.147-.112-.188-.208-.365-.263-.1-.032-.086-.044-.183-.044.009,0-.26.038-.259.038-.118.053-.189.3-.237.417-.068.174-.188.218-.252.337-.036.07,0,.159-.016.236s-.068.132-.085.211c-.042.206.014.357-.19.168-.062-.058-.041-.167-.164-.164-.1.219-.333-.245-.515-.051-.07.075-.025.224-.1.3s-.248,0-.321.147a.571.571,0,0,1-.1.006c-.043.068-.021.039-.085.084a.512.512,0,0,1-.238.3c-.016.044-.043.023-.1.053-.018.01-.069-.03-.1-.019s-.017.073-.04.082a.844.844,0,0,1-.341.044c-.021.168-.051.342-.252.337-.022.168.165.133.271.182a1.09,1.09,0,0,1,.259.189c.145.121.109.041.163.236.033.124.04.25.207.256a1.744,1.744,0,0,0,.25.7.6.6,0,0,0,.221.305c.164.105.178.017.328.04.074-.2.323.033.367-.2.243.069.085.495.307.527a.7.7,0,0,0,.2.349.294.294,0,0,0,.354.067c.068-.032.119-.091.187-.126s.063.026.152-.058c.11-.1.068-.269.227-.3.208-.045.185.2.23.343.072.232.176.184.338.331.059.053.059.157.11.194.068.053.191.019.267.062s.073.113.17.149a.719.719,0,0,0,.186.037c.036-.035.24.02.34,0,.154-.022.268-.115.417-.067.007-.029.022-.049.03-.077.23.086.248-.148.291-.3l0-.009a.185.185,0,0,0,.034-.016,1.225,1.225,0,0,0,.232-.185c.08-.08.095-.187.212-.214.037-.113-.062-.632.231-.413.1.073.046.222.089.311.069.139.063.1.229.15-.018.045,0,.115-.014.162.126.058.3-.009.419.049.054.027.1.14.147.184a.441.441,0,0,0,.189.107.836.836,0,0,1,.338.226.382.382,0,0,0,.353.17c0-.03.011-.068.007-.1.114-.012.16.094.267.105.055.278.27.119.426.206.077.044.083.176.15.207.087.043.2-.062.308-.032a.5.5,0,0,0,.468.434c.009-.017.016-.038.025-.056.209-.009.391.17.607.213.186.035.5.168.669.076.033-.211-.22-.129-.308-.213-.107-.1.03-.331-.169-.335-.021-.189-.277-.231-.337-.4-.054-.154.068-.438-.232-.441.026-.2-.294-.739.015-.815.041.1.274.528.3.166a.224.224,0,0,0,.223-.026c.035-.242-.292-.3.044-.441,0-.082-.012-.145-.015-.226.2.012.206-.037.329-.151.081-.072.007-.055.134-.1a2.411,2.411,0,0,1,.309-.045.576.576,0,0,1,.124-.318c.049-.041.142-.007.176-.04.055-.052.033-.129.061-.187.1-.2.133-.4.236-.607.217.084.151-.26.212-.357.128-.21.248-.111.311.039.049.119-.022.374.1.31.182-.1.037-.267.071-.412.153-.084.246.117.341.319-.053.107-.214.19-.28.246s-.158.23-.291.213a.237.237,0,0,1-.147.254,1.7,1.7,0,0,1-.278.776c-.058.129-.271.74-.352.74-.03.274-.253.209-.443.169-.012.211-.332-.065-.424.207a.861.861,0,0,0,.084.61,2.6,2.6,0,0,1,.1.358c.015.059.007.136.048.189.076.1.086.021.142.063.154.113.245.321.4.465.13-.126.287.1.423.144,0-.236.261-.191.416-.148-.012-.036,0-.108-.015-.142.075,0,.664.2.379-.1.19.01.1-.1.125-.194.04-.16-.035-.105.146-.166.134-.047.433-.1.375-.313-.151-.061-.431-.029-.4-.3.012-.091.111-.086.128-.168.024-.108-.052-.133,0-.237.059-.123.275-.207.359-.288.108-.109.136-.353.353-.257.029-.216.4-.1.321.131-.05.152-.315.119-.215.374-.16.01-.188,0-.272.089-.063.071-.007.158-.142.214-.048.157.128.236.119.392a1.008,1.008,0,0,0-.229.282,1.267,1.267,0,0,0,0,.435c.032.076.126.047.161.113s-.011.125,0,.185c.026.128.132.352-.142.3a1.393,1.393,0,0,1-.052.317c-.011.194.04.151-.1.287-.215-.024-.254.6-.231.756-.1.093-.068.273-.246.24-.061.145-.136.016-.235.055s-.08.1-.174.212c-.024.026-.094.037-.1.044a.767.767,0,0,0-.062.128.39.39,0,0,1-.291.088.44.44,0,0,1-.445.333c-.095,0-.178-.066-.259-.027-.127.062-.06.147-.127.232-.156.2-.332.085-.436.321a.725.725,0,0,1-.3.4.135.135,0,0,0,.259.025.394.394,0,0,0,.271-.06c.07-.057.007-.167.124-.2.059-.016.172.077.249.081s.128-.044.221-.023c.21.049.229.21.411,0,.048-.052.07-.16.136-.2s.2-.024.266-.051c.046-.24.261.008.4-.106.09-.076.1-.338.179-.432a.623.623,0,0,1,.184-.108c.067-.043.077-.158.206-.1.07.03.037.143.108.185s.184-.007.272.023c0,.031.009.069.006.1.124.007.325-.045.268.147-.156-.021-.411.024-.4.21-.169.084-.259-.112-.4.041-.058.06,0,.166-.073.222-.045.037-.175.017-.232.019-.081.186-.309.219-.321.408a11.367,11.367,0,0,1-14.3-3.429" transform="translate(-39.555 -52.897)" fill="#ffdc48"/>
            <path id="Trazado_149757" data-name="Trazado 149757" d="M248.885,308.66c-.044.076.175.331.245.385.086.066.161.052.215.141.017.028,0,.16.017.207-.165-.038-.287-.32-.437-.339-.181-.024-.086.105-.043.175.021.035.255.054.064.149.044.125.138.318.27.355a.185.185,0,0,0-.078.185c.116.03.134.175.288.156-.012.015-.021.057-.042.081a.152.152,0,0,0,.208-.018c.029.138.162.167.275.184.044-.142-.083-.181-.119-.289.024,0,.052,0,.077-.006a1.687,1.687,0,0,0-.013-.207.1.1,0,0,1,.168.059c.021,0,.035-.022.054-.016.052.066.074.049.148.056.011-.009.034-.031.043-.04-.018-.055-.069-.184-.081-.2-.026-.044.023-.137-.093-.133a1.165,1.165,0,0,0-.1-.292c-.175-.1-.1.158-.251.081a.32.32,0,0,0,.03-.291.643.643,0,0,1-.057-.207c-.162.046-.142.01-.255-.062-.029-.018-.023-.077-.062-.106s-.119.021-.161-.007c-.136-.1-.156-.488-.4-.351.107.119-.054.25.085.354" transform="translate(-43.926 -54.427)" fill="#ffdc48"/>
            <path id="Trazado_149758" data-name="Trazado 149758" d="M230.8,316.225a.27.27,0,0,0,.059-.031.027.027,0,0,0,0-.012Z" transform="translate(-40.747 -55.822)" fill="#ffdc48"/>
            <path id="Trazado_149759" data-name="Trazado 149759" d="M233.776,322.28c.191.025.215.075.253-.168a.2.2,0,0,1,.231.205c.055-.027.109,0,.163-.016,0,.212.28.166.4.185a2.283,2.283,0,0,0,.23.065c.082.006.17-.034.227-.027.151.016.789.139.872-.16a.8.8,0,0,0,.122-.109l-.02-.127c-.23.18-.242.082-.443-.02-.132-.069-.346.011-.469-.08-.07-.051-.084-.176-.142-.238a.979.979,0,0,0-.232-.151c-.063-.033-.182-.049-.231-.084-.1-.067-.106-.17-.178-.248-.161-.174-.279-.109-.46-.069a1.12,1.12,0,0,1-.478.006c-.082-.017-.17-.062-.253-.084-.007,0-.137-.057-.11-.06-.044.007-.1.082-.115.082a1.583,1.583,0,0,1-.489-.086c-.142-.037-.368-.009-.485-.1a.293.293,0,0,0,.083.345c.043.041.122.05.154.083s.039.137.082.171.141,0,.187.04.027.139.078.194c.108.119.205.053.357.08.251.042.27.305.39.524.053.1.1.244.225.175s.015-.212.046-.334" transform="translate(-40.986 -56.673)" fill="#ffdc48"/>
            <path id="Trazado_149760" data-name="Trazado 149760" d="M250.388,308.869s.128.276.143.294c.071.093.221.026.193.206.182.1.283.208.456.3.009.051.044.068.067.1l.106.105a2.379,2.379,0,0,1-.249-.526c-.021-.093,0-.162-.027-.253-.054-.209-.065-.105-.208-.189-.092-.055-.449-.333-.481-.041" transform="translate(-44.206 -54.508)" fill="#ffdc48"/>
            <path id="Trazado_149761" data-name="Trazado 149761" d="M241.44,325.728c.03,0,.034.107.072.118a.586.586,0,0,0,.148.011,2.082,2.082,0,0,0,.516-.114c.123-.041.338-.222.324-.372.019-.006.04,0,.058-.006a.87.87,0,0,0,.029-.141c.032-.04,0,.007.016.016l.02-.083c-.082.041-.169.04-.253.083-.064.032-.119.131-.189.165a2.44,2.44,0,0,1-.464.088c-.183.049-.34.072-.5.131a1.048,1.048,0,0,1-.523.041.2.2,0,0,0-.021.142.8.8,0,0,0,.523.024c.073-.026.169-.113.248-.1" transform="translate(-42.489 -57.407)" fill="#ffdc48"/>
            <g id="Grupo_212466" data-name="Grupo 212466" transform="translate(163.733 243.958)" style="mix-blend-mode: multiply;isolation: isolate">
              <g id="Grupo_212465" data-name="Grupo 212465">
                <g id="Grupo_212464" data-name="Grupo 212464" clip-path="url(#clip-path-11)">
                  <path id="Trazado_149762" data-name="Trazado 149762" d="M236.606,331.56h10.754V300.043a1.6,1.6,0,0,0-1.63-1.559h-1.966v-.894a.253.253,0,0,0-.259-.247h-.194v-.875a.211.211,0,0,0-.214-.2h-3.747a.209.209,0,0,0-.213.2v.875h-.2a.254.254,0,0,0-.259.247v.894h-5.15v-.758a.124.124,0,0,0-.128-.12h-.1v-.431a.1.1,0,0,0-.1-.1h-1.845a.1.1,0,0,0-.1.1v.431h-.1a.124.124,0,0,0-.127.12v.758h-6.451a1.6,1.6,0,0,0-1.63,1.559v1.91a1.452,1.452,0,0,1-.242.939c-.25.307-1.053.28-1.053.28H207.862v-.477a.253.253,0,0,0-.259-.247h-.2v-.875a.207.207,0,0,0-.214-.2h-3.747a.206.206,0,0,0-.212.2v.875h-.2a.253.253,0,0,0-.259.247v.477h-2.311a1.6,1.6,0,0,0-1.63,1.558v27.6h.022a1.6,1.6,0,0,0,1.608,1.352h36.138Z" transform="translate(-198.838 -296.264)" fill="#cecece"/>
                </g>
              </g>
            </g>
            <path id="Rectángulo_41593" data-name="Rectángulo 41593" d="M.25,0H3.8a.251.251,0,0,1,.251.251v2.3A.251.251,0,0,1,3.8,2.8H.252A.252.252,0,0,1,0,2.55V.25A.25.25,0,0,1,.25,0Z" transform="translate(168.008 252.061)" fill="#307ca0"/>
            <path id="Trazado_149763" data-name="Trazado 149763" d="M208.564,306.1h-.646v2.8h.646a.207.207,0,0,0,.208-.206v-2.39a.206.206,0,0,0-.208-.207" transform="translate(-36.708 -54.043)" fill="#1f3b51"/>
            <path id="Rectángulo_41594" data-name="Rectángulo 41594" d="M.305,0h4.33a.307.307,0,0,1,.307.307v2.8a.3.3,0,0,1-.3.3H.305A.305.305,0,0,1,0,3.11V.305A.305.305,0,0,1,.305,0Z" transform="translate(167.563 253.157)" fill="#1f3b51"/>
            <path id="Rectángulo_41595" data-name="Rectángulo 41595" d="M.251,0H3.805a.251.251,0,0,1,.251.251v2.3a.25.25,0,0,1-.25.25H.251A.251.251,0,0,1,0,2.551V.251A.251.251,0,0,1,.251,0Z" transform="translate(202.904 246.873)" fill="#307ca0"/>
            <path id="Trazado_149764" data-name="Trazado 149764" d="M250.943,299.8H250.3v2.8h.647a.206.206,0,0,0,.207-.207v-2.39a.207.207,0,0,0-.207-.206" transform="translate(-44.19 -52.93)" fill="#1f3b51"/>
            <path id="Rectángulo_41596" data-name="Rectángulo 41596" d="M.306,0H4.635a.307.307,0,0,1,.307.307v2.8a.308.308,0,0,1-.308.308H.307A.307.307,0,0,1,0,3.109V.306A.306.306,0,0,1,.306,0Z" transform="translate(202.461 247.966)" fill="#1f3b51"/>
            <path id="Rectángulo_41597" data-name="Rectángulo 41597" d="M.123,0H1.872a.122.122,0,0,1,.122.122V1.255a.124.124,0,0,1-.124.124H.123A.123.123,0,0,1,0,1.256V.123A.123.123,0,0,1,.123,0Z" transform="translate(195.242 247.695)" fill="#307ca0"/>
            <path id="Trazado_149765" data-name="Trazado 149765" d="M239.334,300.8h-.319v1.379h.319a.1.1,0,0,0,.1-.1v-1.176a.1.1,0,0,0-.1-.1" transform="translate(-42.198 -53.107)" fill="#1f3b51"/>
            <path id="Rectángulo_41598" data-name="Rectángulo 41598" d="M.15,0H2.281a.15.15,0,0,1,.15.15V1.528a.151.151,0,0,1-.151.151H.151A.151.151,0,0,1,0,1.528V.15A.15.15,0,0,1,.15,0Z" transform="translate(195.024 248.235)" fill="#1f3b51"/>
            <path id="Trazado_149766" data-name="Trazado 149766" d="M244.418,302.542H223.859a1.583,1.583,0,0,0-1.584,1.584v1.941a1.53,1.53,0,0,1-.235.955c-.244.312-1.025.283-1.025.283H200.423a1.586,1.586,0,0,0-1.586,1.584v27.839a1.587,1.587,0,0,0,1.586,1.586h44A1.587,1.587,0,0,0,246,336.729v-32.6a1.585,1.585,0,0,0-1.585-1.584" transform="translate(-35.105 -53.414)" fill="#307ca0"/>
            <path id="Trazado_149767" data-name="Trazado 149767" d="M198.838,316.74v22.495a1.587,1.587,0,0,0,1.585,1.587h44A1.586,1.586,0,0,0,246,339.235V316.74Z" transform="translate(-35.105 -55.921)" fill="#ea7628"/>
            <rect id="Rectángulo_41599" data-name="Rectángulo 41599" width="47.166" height="1.116" transform="translate(163.733 282.411)" fill="#307ca0"/>
            <path id="Trazado_149768" data-name="Trazado 149768" d="M226.074,328.132a9.594,9.594,0,1,1-9.593-9.594,9.594,9.594,0,0,1,9.593,9.594" transform="translate(-36.526 -56.238)" fill="#1f3b51"/>
            <path id="Trazado_149769" data-name="Trazado 149769" d="M225.066,328.407a8.31,8.31,0,1,1-8.31-8.311,8.309,8.309,0,0,1,8.31,8.311" transform="translate(-36.801 -56.513)" fill="#bcbcbc"/>
            <path id="Trazado_149770" data-name="Trazado 149770" d="M223.709,328.778a6.582,6.582,0,1,1-6.582-6.583,6.582,6.582,0,0,1,6.582,6.583" transform="translate(-37.172 -56.884)" fill="#fff"/>
            <path id="Trazado_149771" data-name="Trazado 149771" d="M223.709,328.778a6.582,6.582,0,1,1-6.582-6.583,6.582,6.582,0,0,1,6.582,6.583" transform="translate(-37.172 -56.884)" fill="#e2e2e2"/>
            <rect id="Rectángulo_41600" data-name="Rectángulo 41600" width="10.108" height="4.571" transform="translate(194.293 250.903)" fill="#1f3b51"/>
            <rect id="Rectángulo_41601" data-name="Rectángulo 41601" width="7.403" height="3.346" transform="translate(195.644 251.517)" fill="#fff"/>
            <rect id="Rectángulo_41602" data-name="Rectángulo 41602" width="1.933" height="3.346" transform="translate(196.448 251.517)" fill="#efefef"/>
            <path id="Trazado_149772" data-name="Trazado 149772" d="M223.6,325.614a1.352,1.352,0,1,1-1.353-1.353,1.355,1.355,0,0,1,1.353,1.353" transform="translate(-39 -57.249)" fill="#fff"/>
            <path id="Trazado_149773" data-name="Trazado 149773" d="M215.547,333.434a1.352,1.352,0,1,1-1.352-1.353,1.352,1.352,0,0,1,1.352,1.353" transform="translate(-37.578 -58.629)" fill="#fff"/>
            <g id="Grupo_212469" data-name="Grupo 212469" transform="translate(165.963 253.892)" opacity="0.4">
              <g id="Grupo_212468" data-name="Grupo 212468">
                <g id="Grupo_212467" data-name="Grupo 212467" clip-path="url(#clip-path-12)">
                  <rect id="Rectángulo_41603" data-name="Rectángulo 41603" width="3.3" height="31.009" transform="translate(0 0)" fill="#fff"/>
                </g>
              </g>
            </g>
            <g id="Grupo_212472" data-name="Grupo 212472" transform="translate(203.907 249.128)" style="mix-blend-mode: multiply;isolation: isolate">
              <g id="Grupo_212471" data-name="Grupo 212471">
                <g id="Grupo_212470" data-name="Grupo 212470" clip-path="url(#clip-path-13)">
                  <path id="Trazado_149774" data-name="Trazado 149774" d="M253.032,302.542h-5.407v35.773h5.407a1.587,1.587,0,0,0,1.585-1.586v-32.6a1.585,1.585,0,0,0-1.585-1.584" transform="translate(-247.626 -302.542)" fill="#cecece"/>
                </g>
              </g>
            </g>
            <path id="Trazado_149777" data-name="Trazado 149777" d="M227.728,48.964a4.811,4.811,0,0,0-.947.051c0-.033.006-.063.007-.095A6.661,6.661,0,0,0,216.5,43.012a17.041,17.041,0,0,0-32.068-2.088,11.721,11.721,0,0,0-3.891.995,6.661,6.661,0,0,0-13.055.03,4.284,4.284,0,1,0-2.176,8.278,6.666,6.666,0,0,0,10.026,8.527,11.726,11.726,0,0,0,16.381,3.742,16.99,16.99,0,0,0,21.672-4.187,5.432,5.432,0,0,0,10.551-1.542c0-.049,0-.1,0-.147a4.663,4.663,0,1,0,3.788-7.655" transform="translate(-28.587 -5.401)" fill="#fff"/>
            <path id="Trazado_149779" data-name="Trazado 149779" d="M73.522,245.718a2.473,2.473,0,0,0-.483.025c0-.016,0-.031,0-.047a3.386,3.386,0,0,0-5.231-3A8.667,8.667,0,0,0,51.5,241.629a5.976,5.976,0,0,0-1.979.506,3.387,3.387,0,0,0-6.639.015,2.26,2.26,0,0,0-.543-.1,2.182,2.182,0,0,0-.564,4.313,3.39,3.39,0,0,0,5.1,4.336,5.962,5.962,0,0,0,8.331,1.9A8.639,8.639,0,0,0,66.23,250.47a2.763,2.763,0,0,0,5.366-.784c0-.026,0-.05,0-.074a2.372,2.372,0,1,0,1.927-3.893" transform="translate(-7.072 -41.732)" fill="#fff"/>
            <path id="Trazado_149780" data-name="Trazado 149780" d="M315.338,24.7a2.466,2.466,0,0,0-.483.026c0-.016,0-.031,0-.048a3.387,3.387,0,0,0-5.232-3,8.666,8.666,0,0,0-16.308-1.062,5.976,5.976,0,0,0-1.979.506,3.387,3.387,0,0,0-6.639.015,2.222,2.222,0,0,0-.543-.1,2.182,2.182,0,0,0-.564,4.313,3.389,3.389,0,0,0,5.1,4.335,5.962,5.962,0,0,0,8.331,1.9,8.639,8.639,0,0,0,11.021-2.129,2.763,2.763,0,0,0,5.366-.784c0-.025,0-.05,0-.074a2.372,2.372,0,1,0,1.927-3.893" transform="translate(-49.764 -2.71)" fill="#fff"/>
            <path id="Trazado_149781" data-name="Trazado 149781" d="M137.953,9.344a2.457,2.457,0,0,0-.482.026c0-.016,0-.031,0-.048a3.388,3.388,0,0,0-5.232-3,8.667,8.667,0,0,0-16.308-1.062,5.976,5.976,0,0,0-1.979.506,3.387,3.387,0,0,0-6.639.015,2.221,2.221,0,0,0-.543-.1,2.182,2.182,0,0,0-.563,4.313,3.389,3.389,0,0,0,5.1,4.335,5.961,5.961,0,0,0,8.33,1.9,8.64,8.64,0,0,0,11.022-2.129,2.762,2.762,0,0,0,5.366-.784c0-.025,0-.05,0-.074a2.372,2.372,0,1,0,1.927-3.893" transform="translate(-18.447 0)" fill="#fff"/>
          </g>
        </g>
      </g>
    </g>
  </g>
</svg>
