<svg xmlns="http://www.w3.org/2000/svg" xmlns:xlink="http://www.w3.org/1999/xlink" width="72.546" height="72.426" viewBox="0 0 72.546 72.426">
  <defs>
    <clipPath id="clip-path">
      <rect id="Rectángulo_40212" data-name="Rectángulo 40212" width="72.546" height="72.426" fill="none"/>
    </clipPath>
  </defs>
  <g id="Grupo_212498" data-name="Grupo 212498" transform="translate(-428.98 -4635.463)">
    <g id="Grupo_211671" data-name="Grupo 211671" transform="translate(125.98 -6066.066)">
      <circle id="Elipse_4803" data-name="Elipse 4803" cx="35" cy="35" r="35" transform="translate(304.273 10702.719)" fill="#fff"/>
      <g id="Grupo_211670" data-name="Grupo 211670" transform="translate(303 10701.529)">
        <g id="Grupo_211669" data-name="Grupo 211669" clip-path="url(#clip-path)">
          <path id="Trazado_146009" data-name="Trazado 146009" d="M36.063,0A36.213,36.213,0,1,0,72.546,36.12,36.274,36.274,0,0,0,36.063,0M36.04,71A34.788,34.788,0,1,1,71.113,36.266,34.8,34.8,0,0,1,36.04,71" transform="translate(0 -0.001)" fill="#eb6f2d"/>
        </g>
      </g>
    </g>
    <g id="_022-judge" data-name="022-judge" transform="translate(436.799 4584.215)">
      <g id="Grupo_212478" data-name="Grupo 212478" transform="translate(0 63.203)">
        <path id="Trazado_149783" data-name="Trazado 149783" d="M251.521,190.709l2.394-2.391,3.5,3.5-2.391,2.394Z" transform="translate(-223.756 -174.507)" fill="#eb6f2d" fill-rule="evenodd"/>
        <path id="Trazado_149784" data-name="Trazado 149784" d="M156.853,93.622a17.439,17.439,0,0,1,6.878-4.375l3.229,2.4,2.575,3.4a18.795,18.795,0,0,1-11.249,11.253l-3.489-2.528-2.319-3.279A17.4,17.4,0,0,1,156.853,93.622Z" transform="translate(-135.646 -86.372)" fill="#eb6f2d" fill-rule="evenodd"/>
        <path id="Trazado_149785" data-name="Trazado 149785" d="M202.16,90.042a13.423,13.423,0,0,1,1.968-.795l5.8,5.808a18.795,18.795,0,0,1-11.249,11.253l-.795-.795a18.823,18.823,0,0,0,4.91-3.583,18.365,18.365,0,0,0,3.78-5.329,1.82,1.82,0,0,0-.4-2.541Z" transform="translate(-176.044 -86.372)" fill="#bc5824" fill-rule="evenodd"/>
        <path id="Trazado_149786" data-name="Trazado 149786" d="M140.562,63.693a1.69,1.69,0,0,1,2.381,0l5.808,5.808a1.686,1.686,0,0,1-2.385,2.384l-5.8-5.808A1.689,1.689,0,0,1,140.562,63.693ZM126.924,77.331a1.688,1.688,0,0,1,2.384,0l5.808,5.808a1.685,1.685,0,1,1-2.385,2.381l-5.808-5.808A1.69,1.69,0,0,1,126.924,77.331Z" transform="translate(-112.477 -63.203)" fill="#eb6f2d" fill-rule="evenodd"/>
        <path id="Trazado_149787" data-name="Trazado 149787" d="M143.126,63.693a1.69,1.69,0,0,1,2.381,0l5.808,5.808a1.686,1.686,0,0,1-2.385,2.384l-.2-.2a1.693,1.693,0,0,0-.175-2.181l-5.6-5.6A1.745,1.745,0,0,1,143.126,63.693ZM129.489,77.331a1.688,1.688,0,0,1,2.384,0l5.808,5.808A1.685,1.685,0,0,1,135.3,85.52l-.2-.2a1.689,1.689,0,0,0-.172-2.178l-5.6-5.6A1.523,1.523,0,0,1,129.489,77.331Z" transform="translate(-115.042 -63.203)" fill="#bc5824" fill-rule="evenodd"/>
        <path id="Trazado_149788" data-name="Trazado 149788" d="M274.839,214.23l2.622-2.622a.811.811,0,0,1,1.249,0c7.319,7.266,13.959,13.959,21.25,21.253a2.736,2.736,0,0,1-3.871,3.868l-21.25-21.25A.811.811,0,0,1,274.839,214.23Z" transform="translate(-244.239 -194.964)" fill="#eb6f2d" fill-rule="evenodd"/>
        <path id="Trazado_149789" data-name="Trazado 149789" d="M294.126,212.361l.754-.754a.811.811,0,0,1,1.249,0c7.319,7.266,13.959,13.959,21.25,21.253a2.736,2.736,0,0,1-3.314,4.3,2.659,2.659,0,0,0,.554-.429,2.742,2.742,0,0,0,0-3.868C307.582,225.82,301.148,219.336,294.126,212.361Z" transform="translate(-261.658 -194.964)" fill="#bc5824" fill-rule="evenodd"/>
        <path id="Trazado_149790" data-name="Trazado 149790" d="M105.043,345.977V340.7a3,3,0,0,0-2.992-2.995H88.518a3,3,0,0,0-2.995,2.995v5.276Z" transform="translate(-76.082 -307.405)" fill="#4d793f" fill-rule="evenodd"/>
        <path id="Trazado_149791" data-name="Trazado 149791" d="M38.4,411.3v-1.4a2.261,2.261,0,0,0-2.256-2.256H2.256A2.263,2.263,0,0,0,0,409.893v1.4a.886.886,0,0,0,.882.886H37.519a.886.886,0,0,0,.882-.886Z" transform="translate(0 -369.615)" fill="#4d793f" fill-rule="evenodd"/>
        <path id="Trazado_149792" data-name="Trazado 149792" d="M307.448,411.3v-1.4a2.261,2.261,0,0,0-2.256-2.256h-2.76a2.261,2.261,0,0,1,2.256,2.256v1.4a.886.886,0,0,1-.882.886h2.76A.886.886,0,0,0,307.448,411.3Z" transform="translate(-269.047 -369.615)" fill="#818e7d" fill-rule="evenodd"/>
        <path id="Trazado_149793" data-name="Trazado 149793" d="M216,345.427V340.7a3,3,0,0,0-2.992-2.995h-2.76a3,3,0,0,1,2.992,2.995v4.725Z" transform="translate(-187.039 -307.405)" fill="#818e7d" fill-rule="evenodd"/>
      </g>
      <path id="Trazado_149794" data-name="Trazado 149794" d="M9.985,268.806a.829.829,0,0,1,0-1.659h1.693a.829.829,0,0,1,0,1.659Zm3.035-5.019a.824.824,0,0,1-.826,1.427l-1.464-.845a.826.826,0,1,1,.826-1.43Zm9.215-3.708a.826.826,0,1,1,1.43.826l-.848,1.464a.824.824,0,1,1-1.427-.826Zm2.826,5.135a.824.824,0,1,1-.823-1.427l1.464-.848a.825.825,0,0,1,.823,1.43ZM13.593,260.9a.823.823,0,1,1,1.427-.82l.848,1.465a.824.824,0,0,1-1.43.82Zm5.864.122a.828.828,0,1,1-1.655,0v-1.69a.828.828,0,1,1,1.655,0Z" transform="translate(-8.145 -173.743)" fill="#eb6f2d"/>
    </g>
  </g>
</svg>
