<svg xmlns="http://www.w3.org/2000/svg" width="72.034" height="101.503" viewBox="0 0 72.034 101.503">
  <g id="fotografo" transform="translate(-10 -1)">
    <g id="Grupo_926679" data-name="Grupo 926679" transform="translate(11.637 2.637)">
      <g id="Grupo_926655" data-name="Grupo 926655" transform="translate(58.937 45.84)">
        <path id="Trazado_632713" data-name="Trazado 632713" d="M56.823,49.646v6.549H47V30a25,25,0,0,1,2.619,2.292c.213.213.442.442.638.671A24.368,24.368,0,0,1,56.823,49.646Z" transform="translate(-47 -30)" fill="#b4dd7f"/>
      </g>
      <g id="Grupo_926656" data-name="Grupo 926656" transform="translate(29.469 42.566)">
        <path id="Trazado_632714" data-name="Trazado 632714" d="M51.92,28V83.663H29a3.284,3.284,0,0,0,3.274-3.274v-13.1a3.279,3.279,0,0,0-1.392-2.669,57.449,57.449,0,0,0,7.776-8.955c1.6-2.21,3.127-4.551,4.551-6.909C48.269,40.344,51.92,31.684,51.92,28Z" transform="translate(-29 -28)" fill="#b4dd7f"/>
      </g>
      <g id="Grupo_926657" data-name="Grupo 926657" transform="translate(22.92 40.929)">
        <path id="Trazado_632715" data-name="Trazado 632715" d="M46.2,27.246,46.283,27c.36,0,.72,0,1.081.033-1.146,4.158-3.946,10.3-7.547,16.437-1.392,2.357-2.9,4.731-4.486,6.974C32.04,55.143,28.438,59.317,25,61.9v-33.5A24.293,24.293,0,0,1,33.186,27l.082.246a6.83,6.83,0,0,0,6.467,4.666,6.758,6.758,0,0,0,3.978-1.293A6.914,6.914,0,0,0,46.2,27.246Z" transform="translate(-25 -27)" fill="#b4dd7f"/>
      </g>
      <g id="Grupo_926658" data-name="Grupo 926658" transform="translate(6.549 45.84)">
        <path id="Trazado_632716" data-name="Trazado 632716" d="M24.823,30V56.194H15V49.646a24.368,24.368,0,0,1,6.565-16.682c.2-.229.426-.458.638-.671A25,25,0,0,1,24.823,30Z" transform="translate(-15 -30)" fill="#b4dd7f"/>
      </g>
      <g id="Grupo_926659" data-name="Grupo 926659" transform="translate(48.443 14.734)">
        <path id="Trazado_632717" data-name="Trazado 632717" d="M46.369,22.656a4.9,4.9,0,0,0-.065-7.007l.491-.982A9.339,9.339,0,0,0,47.777,11h9.856a3.284,3.284,0,0,1,3.274,3.274V24.1a3.284,3.284,0,0,1-3.274,3.274H40.59a8.36,8.36,0,0,0,.671-3.274H42.9A4.9,4.9,0,0,0,46.369,22.656Z" transform="translate(-40.59 -11)" fill="#ffc729"/>
      </g>
      <g id="Grupo_926660" data-name="Grupo 926660" transform="translate(6.549 14.734)">
        <path id="Trazado_632718" data-name="Trazado 632718" d="M33.009,24.1h1.637a8.36,8.36,0,0,0,.671,3.274H18.274A3.284,3.284,0,0,1,15,24.1V14.274A3.284,3.284,0,0,1,18.274,11H28.1v.262a8.391,8.391,0,0,0,.442,2.685l.688,2.1A4.919,4.919,0,0,0,33.009,24.1Z" transform="translate(-15 -11)" fill="#ffc729"/>
      </g>
      <g id="Grupo_926661" data-name="Grupo 926661" transform="translate(19.646 0)">
        <path id="Trazado_632719" data-name="Trazado 632719" d="M52.452,6.911l1.261.622a9.572,9.572,0,0,1,5.3,8.579,3.962,3.962,0,0,1-.033.622A9.339,9.339,0,0,1,58,20.4l-.491.982a4.886,4.886,0,0,0-3.405-1.375H52.469V16.734H46.689A30.9,30.9,0,0,1,32.823,13.46a5.916,5.916,0,0,0-3.274,5.3v1.244H27.911a4.908,4.908,0,0,0-3.782,1.768l-.688-2.1A8.391,8.391,0,0,1,23,17v-.262a8.219,8.219,0,0,1,2.39-5.665l.884-.884A8.161,8.161,0,0,1,34.46,2H47.7a4.758,4.758,0,0,1,4.764,4.764.453.453,0,0,1-.016.147Z" transform="translate(-23 -2)" fill="#656d78"/>
      </g>
      <g id="Grupo_926662" data-name="Grupo 926662" transform="translate(42.91 31.106)">
        <path id="Trazado_632720" data-name="Trazado 632720" d="M53.238,35.734l-6.549-3.5a23.8,23.8,0,0,0-7.105-1.375c-.36-.033-.72-.033-1.081-.033L37.21,25.666A8.117,8.117,0,0,0,42.727,21H56.512V38.681L56.5,38.7c-.2-.229-.426-.458-.638-.671A25,25,0,0,0,53.238,35.734Z" transform="translate(-37.21 -21)" fill="#fcd770"/>
      </g>
      <g id="Grupo_926663" data-name="Grupo 926663" transform="translate(13.097 31.106)">
        <path id="Trazado_632721" data-name="Trazado 632721" d="M28.823,32.231a24.709,24.709,0,0,0-6.549,3.5,25,25,0,0,0-2.619,2.292c-.213.213-.442.442-.638.671L19,38.681V21H32.785A8.117,8.117,0,0,0,38.3,25.666l-1.293,5.157A24.293,24.293,0,0,0,28.823,32.231Z" transform="translate(-19 -21)" fill="#fcd770"/>
      </g>
      <g id="Grupo_926664" data-name="Grupo 926664" transform="translate(52.389 42.337)">
        <path id="Trazado_632722" data-name="Trazado 632722" d="M43,27.86l6.549,3.5V83.752H43V27.86Z" transform="translate(-43 -27.86)" fill="#969faa"/>
      </g>
      <g id="Grupo_926665" data-name="Grupo 926665" transform="translate(16.371 42.337)">
        <path id="Trazado_632723" data-name="Trazado 632723" d="M27.549,61.356c-2.308,1.735-4.519,2.75-6.549,2.75V31.363a24.709,24.709,0,0,1,6.549-3.5Z" transform="translate(-21 -27.86)" fill="#969faa"/>
      </g>
      <g id="Grupo_926666" data-name="Grupo 926666" transform="translate(58.937 72.034)">
        <path id="Trazado_632724" data-name="Trazado 632724" d="M47,46h9.823V72.194H47Z" transform="translate(-47 -46)" fill="#f0d0b4"/>
      </g>
      <g id="Grupo_926667" data-name="Grupo 926667" transform="translate(6.549 72.034)">
        <path id="Trazado_632725" data-name="Trazado 632725" d="M24.823,46v6.549H15V46Z" transform="translate(-15 -46)" fill="#f0d0b4"/>
      </g>
      <g id="Grupo_926668" data-name="Grupo 926668" transform="translate(37.736 40.961)">
        <path id="Trazado_632726" data-name="Trazado 632726" d="M48.7,28.4v.229c0,3.684-3.651,12.344-8.71,20.759l-5.91-5.91-.033-.016c3.6-6.139,6.4-12.279,7.547-16.437A23.8,23.8,0,0,1,48.7,28.4Z" transform="translate(-34.05 -27.02)" fill="#cf9e76"/>
      </g>
      <g id="Grupo_926669" data-name="Grupo 926669" transform="translate(16.371 64.372)">
        <path id="Trazado_632727" data-name="Trazado 632727" d="M21,55.53c2.03,0,4.24-1.015,6.549-2.75,3.438-2.587,7.04-6.761,10.33-11.46H37.9l5.861,5.861a57.45,57.45,0,0,1-7.776,8.955A3.153,3.153,0,0,0,34.1,55.53H21Z" transform="translate(-21 -41.32)" fill="#cf9e76"/>
      </g>
      <g id="Grupo_926670" data-name="Grupo 926670" transform="translate(33.25 57.398)">
        <path id="Trazado_632728" data-name="Trazado 632728" d="M35.829,37.076l5.91,5.91c-1.424,2.357-2.947,4.7-4.551,6.909l-5.861-5.861H31.31C32.9,41.791,34.4,39.417,35.8,37.06Z" transform="translate(-31.31 -37.06)" fill="#ffeaa7"/>
      </g>
      <g id="Grupo_926671" data-name="Grupo 926671" transform="translate(22.92 78.583)">
        <path id="Trazado_632729" data-name="Trazado 632729" d="M25,50h6.549a3.153,3.153,0,0,1,1.883.606,3.279,3.279,0,0,1,1.392,2.669v13.1a3.284,3.284,0,0,1-3.274,3.274H25a3.284,3.284,0,0,0,3.274-3.274v-13.1A3.284,3.284,0,0,0,25,50Z" transform="translate(-25 -50)" fill="#aab2bd"/>
      </g>
      <g id="Grupo_926672" data-name="Grupo 926672" transform="translate(6.549 78.583)">
        <path id="Trazado_632730" data-name="Trazado 632730" d="M24.823,50h6.549a3.284,3.284,0,0,1,3.274,3.274v13.1a3.284,3.284,0,0,1-3.274,3.274h-13.1A3.284,3.284,0,0,1,15,66.371V63.1h6.549a6.549,6.549,0,1,0,0-13.1Z" transform="translate(-15 -50)" fill="#ccd1d9"/>
      </g>
      <g id="Grupo_926673" data-name="Grupo 926673" transform="translate(6.549 78.583)">
        <path id="Trazado_632731" data-name="Trazado 632731" d="M15,63.1A6.549,6.549,0,0,0,15,50h6.549a6.549,6.549,0,1,1,0,13.1Z" transform="translate(-15 -50)" fill="#4fc1e9"/>
      </g>
      <g id="Grupo_926674" data-name="Grupo 926674" transform="translate(0 78.583)">
        <circle id="Elipse_4805" data-name="Elipse 4805" cx="6.5" cy="6.5" r="6.5" transform="translate(0.363 -0.22)" fill="#69d6f4"/>
      </g>
      <g id="Grupo_926675" data-name="Grupo 926675" transform="translate(49.114 18.009)">
        <path id="Trazado_632732" data-name="Trazado 632732" d="M46.042,14.375a4.912,4.912,0,0,1-3.405,8.448H41V13h1.637a4.886,4.886,0,0,1,3.405,1.375Z" transform="translate(-41 -13)" fill="#f0d0b4"/>
      </g>
      <g id="Grupo_926676" data-name="Grupo 926676" transform="translate(31.106 35.772)">
        <path id="Trazado_632733" data-name="Trazado 632733" d="M41.8,23.85,43.1,29.007l-.082.246a6.914,6.914,0,0,1-2.488,3.373,6.758,6.758,0,0,1-3.978,1.293,6.83,6.83,0,0,1-6.467-4.666L30,29.007l1.293-5.157a7.912,7.912,0,0,0,1.981.246h6.549A7.912,7.912,0,0,0,41.8,23.85Z" transform="translate(-30 -23.85)" fill="#f0d0b4"/>
      </g>
      <g id="Grupo_926677" data-name="Grupo 926677" transform="translate(26.194 11.46)">
        <path id="Trazado_632734" data-name="Trazado 632734" d="M43.715,33.312a7.912,7.912,0,0,1-1.981.246H35.186a7.912,7.912,0,0,1-1.981-.246,8.117,8.117,0,0,1-5.517-4.666h-.016A8.36,8.36,0,0,1,27,25.371V14.3A5.916,5.916,0,0,1,30.274,9a30.9,30.9,0,0,0,13.867,3.274H49.92v13.1a8.36,8.36,0,0,1-.671,3.274h-.016a8.117,8.117,0,0,1-5.517,4.666Z" transform="translate(-27 -9)" fill="#f0d0b4"/>
      </g>
      <g id="Grupo_926678" data-name="Grupo 926678" transform="translate(19.646 18.009)">
        <path id="Trazado_632735" data-name="Trazado 632735" d="M29.549,13v9.823H27.911a4.911,4.911,0,1,1,0-9.823Z" transform="translate(-23 -13)" fill="#f0d0b4"/>
      </g>
    </g>
    <g id="Grupo_926680" data-name="Grupo 926680" transform="translate(10 1)">
      <circle id="Elipse_4806" data-name="Elipse 4806" cx="1.5" cy="1.5" r="1.5" transform="translate(33 20)"/>
      <circle id="Elipse_4807" data-name="Elipse 4807" cx="1.5" cy="1.5" r="1.5" transform="translate(43 20)"/>
      <path id="Trazado_632736" data-name="Trazado 632736" d="M37.549,19.637H31v3.274h6.549A4.917,4.917,0,0,0,42.46,18H39.186A1.638,1.638,0,0,1,37.549,19.637Z" transform="translate(3.38 9.831)"/>
      <circle id="Elipse_4808" data-name="Elipse 4808" cx="1.5" cy="1.5" r="1.5" transform="translate(7 85)"/>
      <path id="Trazado_632737" data-name="Trazado 632737" d="M77.123,35.38a4.917,4.917,0,0,0,4.911-4.911V20.646a4.917,4.917,0,0,0-4.911-4.911H68.867a11.142,11.142,0,0,0-6.133-9.026L62.3,6.491A6.382,6.382,0,0,0,56,1H42.743a9.834,9.834,0,0,0-9.8,9.119l-.422.422a9.7,9.7,0,0,0-2.706,5.193H21.46a4.917,4.917,0,0,0-4.911,4.911v9.823A4.917,4.917,0,0,0,21.46,35.38H23.1V50.856a26.056,26.056,0,0,0-6.549,17.267V79.748a8.186,8.186,0,0,0,0,16.041v1.8A4.917,4.917,0,0,0,21.46,102.5H82.034V68.123a26.059,26.059,0,0,0-6.549-17.267V35.38ZM78.76,20.646v9.823a1.638,1.638,0,0,1-1.637,1.637H62.389A6.532,6.532,0,0,0,67.736,21.8l.016-.034a11.213,11.213,0,0,0,.938-2.757h8.433a1.64,1.64,0,0,1,1.637,1.639ZM62.389,22.283a3.274,3.274,0,0,1,0,6.549Zm-27.55-9.427L36.194,11.5v-.678a6.555,6.555,0,0,1,6.549-6.549H56a3.12,3.12,0,0,1,.984,6.08l-1.658.553,1.036,3.1,1.658-.553a6.371,6.371,0,0,0,3.815-3.49,7.887,7.887,0,0,1,3.833,6.778,7.971,7.971,0,0,1-.548,2.875,6.5,6.5,0,0,0-2.726-.612V15.734H54.976a29.5,29.5,0,0,1-13.136-3.1l-.733-.365-.732.367a7.508,7.508,0,0,0-4.153,6.375h-.026a6.466,6.466,0,0,0-2.939.729,7.153,7.153,0,0,1-.336-2.249,6.508,6.508,0,0,1,1.919-4.631Zm34.1,86.372H65.663V47.446a23.014,23.014,0,0,1,3.274,1.894ZM41.666,45.257A8.429,8.429,0,0,0,53.114,49.2C49.4,57.693,42.568,68.768,36.194,74.93V46.169A22.777,22.777,0,0,1,41.666,45.257Zm8.872,25.071-3.52-3.52c.927-1.359,1.824-2.745,2.683-4.147l3.526,3.526q-1.292,2.1-2.69,4.14ZM32.92,77.664a11.7,11.7,0,0,1-3.274,1.66V49.34a22.859,22.859,0,0,1,3.274-1.894Zm-6.549,1.919H19.823V76.309h6.549Zm-1.637,3.274a4.911,4.911,0,0,1,0,9.823h-.043a8.02,8.02,0,0,0,0-9.823Zm10.984-3.274A51.182,51.182,0,0,0,45.1,69.518l3.508,3.508a54.915,54.915,0,0,1-5.936,6.835,4.851,4.851,0,0,0-1.563-.278Zm9.545,2.325c6.406-6.287,13.217-17.165,17.126-25.887V99.229H45.716a4.856,4.856,0,0,0,.3-1.637v-13.1a4.857,4.857,0,0,0-.755-2.587ZM54.949,63.28l-3.525-3.525a81.837,81.837,0,0,0,6.681-14.438,22.685,22.685,0,0,1,4.188.827C61.8,49.509,58.944,56.291,54.949,63.28Zm-.82-19.806a5.159,5.159,0,0,1-9.676,0l.8-3.219c.252.018.5.038.76.038h6.549c.255,0,.508-.02.76-.038Zm-1.563-6.457H46.017a6.555,6.555,0,0,1-6.549-6.549V19.395a4.266,4.266,0,0,1,1.726-3.44,32.826,32.826,0,0,0,13.781,3.053h4.139v11.46A6.555,6.555,0,0,1,52.566,37.017ZM36.194,22.283v6.549a3.274,3.274,0,1,1,0-6.549ZM19.823,30.469V20.646a1.638,1.638,0,0,1,1.637-1.637h8.3a10.148,10.148,0,0,0,.409,1.829l.447,1.339a6.513,6.513,0,0,0,5.581,9.929H21.46A1.638,1.638,0,0,1,19.823,30.469Zm17.7,4.911a9.878,9.878,0,0,0,4.558,4.083l-.624,2.5a26.039,26.039,0,0,0-15.086,5.764V35.38ZM26.371,52.113V73.034H19.823V68.123A22.833,22.833,0,0,1,26.371,52.113Zm-13.1,35.655a4.911,4.911,0,1,1,4.911,4.911A4.917,4.917,0,0,1,13.274,87.769ZM32.92,99.229H21.46a1.638,1.638,0,0,1-1.637-1.637V95.954h4.911a8.2,8.2,0,0,0,8.186-8.186,8.1,8.1,0,0,0-1.68-4.911h3.317a1.638,1.638,0,0,1,1.637,1.637v13.1a1.638,1.638,0,0,1-1.637,1.637Zm6.549,0h-.3a4.856,4.856,0,0,0,.3-1.637v-13.1a4.856,4.856,0,0,0-.3-1.637h1.938a1.638,1.638,0,0,1,1.637,1.637v13.1a1.638,1.638,0,0,1-1.637,1.637Zm32.743,0V76.309H78.76v22.92ZM78.76,73.034H72.211V52.113a22.839,22.839,0,0,1,6.549,16.01Zm-6.549-25.31A26.039,26.039,0,0,0,57.125,41.96l-.624-2.5a9.869,9.869,0,0,0,4.558-4.083H72.211Z" transform="translate(-10 -1)"/>
    </g>
  </g>
</svg>
