<svg xmlns="http://www.w3.org/2000/svg" width="95" height="95" viewBox="0 0 95 95">
  <g id="Grupo_926831" data-name="Grupo 926831" transform="translate(8340 7255)">
    <rect id="Rectángulo_335052" data-name="Rectángulo 335052" width="95" height="95" transform="translate(-8340 -7255)" fill="none"/>
    <g id="colaborar" transform="translate(-8327.982 -7243.869)">
      <path id="Trazado_633501" data-name="Trazado 633501" d="M70.677,35.437,59.234,8.049,48.193,12.662a8.276,8.276,0,0,0-.568-4.475,6.071,6.071,0,1,0-8.3,8.173l-11.8,4.918a8.187,8.187,0,0,0-1.178-2.327,1.71,1.71,0,0,0,.4-.3,1.554,1.554,0,0,0,.471-1.094h0l-.055-4.572h.942a.83.83,0,0,0,.582-.249.806.806,0,0,0,.249-.6L28.771,0,27.108.028l.152,11.29-22.207.166L4.9,0,3.239.028l.152,12.316a.84.84,0,0,0,.831.817h.97c0,.042.055,4.572.055,4.572a1.6,1.6,0,0,0,.665,1.247l-.61.97a9.01,9.01,0,0,0-.554,1.3H4.735L2.311,30.3l.637,1.967-.9.4A3.415,3.415,0,0,0,.233,34.578,3.465,3.465,0,0,0,.316,37.21L12.632,64.723l11.54-5.167a1.246,1.246,0,0,0,.208-2.175,7.343,7.343,0,0,1-2.812-3.075,4.407,4.407,0,1,1,8.132.526,1.166,1.166,0,0,0,1.51,1.579L40.8,52.116a2.559,2.559,0,0,0,1.122-.942l1.455-.6a8.09,8.09,0,0,0,1.5,3.8,1.77,1.77,0,0,0-.4.319A1.53,1.53,0,0,0,44,55.8l.069,4.558h-.942a.83.83,0,0,0-.582.249.745.745,0,0,0-.236.6l.152,10.459H44.12l-.152-9.628,22.207-.18.152,9.822H67.99l-.152-10.653a.852.852,0,0,0-.831-.831h-.97c0-.028.014-.069.014-.1l-.069-4.461a1.5,1.5,0,0,0-.665-1.247c.319-.513.568-.9.61-.984a4.008,4.008,0,0,0,.526-1.191l.028-.1h.014l2.424-9.06-.887-2.8.8-.332a3.4,3.4,0,0,0,1.856-4.447c0-.014-.014-.028-.014-.042ZM12.645,27.928l-.139.236a6.122,6.122,0,0,1-2.66,2.4l-.61.249s.956,5.777,1.219,7.453a4.479,4.479,0,0,1-.526,2.9,1.912,1.912,0,0,1-1.565.817.745.745,0,0,1-.679-.36l-2.7-8.437-.513-1.593-.429-1.33,2.341-8.714a2.7,2.7,0,0,1,.319-.707s.429-.693.914-1.441h0l16.846-.139h0A6.579,6.579,0,0,1,26,21.958ZM25.252,17.608h-.028V17.58l-17.968.139a.473.473,0,0,1-.332-.1v-.166h0l-.055-4.184a.659.659,0,0,1,.319-.1l18-.139a.473.473,0,0,1,.332.1l.069,4.378a.711.711,0,0,1-.332.1ZM40.117,50.592,31.625,54.4a6.071,6.071,0,1,0-11.651.443,8.325,8.325,0,0,0,2.881,3.477l-9.406,4.211-11.637-26a1.712,1.712,0,0,1-.028-1.358,1.749,1.749,0,0,1,.928-.984l.734-.332,2.715,8.464a2.44,2.44,0,0,0,2.12,1.316,3.6,3.6,0,0,0,3.048-1.607V42a6.157,6.157,0,0,0,.734-4.017c-.208-1.33-.776-4.807-1.011-6.206A7.805,7.805,0,0,0,13.8,29.231l14.061-6.3a1.177,1.177,0,0,1,.693-.152.922.922,0,0,1,.429.457l4.35,9.947a1.131,1.131,0,0,0,1.122.707,1.192,1.192,0,0,0,1.053-.817,4.35,4.35,0,1,1,6.47,4.835c-1.205.679-3.311.513-4.156.416a1.278,1.278,0,0,0-1.164.5,1.344,1.344,0,0,0-.139,1.261l4.114,9.171a1.033,1.033,0,0,1-.139,1.053A.788.788,0,0,1,40.117,50.592Zm24.2,5.278h0l.069,4.184a.473.473,0,0,1-.332.1l-18,.139a.473.473,0,0,1-.332-.1l-.069-4.308Zm.526-4.087a2.7,2.7,0,0,1-.319.707v.028s-.416.679-.9,1.427h0l-.166.263H46.9l-.139-.139h0a6.63,6.63,0,0,1-1.787-4.184l12-5c-.263.471-.513.97-.748,1.468l1.51.707c.3-.651.637-1.288.984-1.9a5.707,5.707,0,0,1,1.358-1.579h0a6.054,6.054,0,0,1,1.3-.817l.61-.249-.1-.651c-.014-.014-.055-.319-.139-.776-.249-1.5-.776-4.738-.984-6.012a4.479,4.479,0,0,1,.526-2.9,1.925,1.925,0,0,1,1.565-.831.724.724,0,0,1,.679.374l2.438,7.592.513,1.593.693,2.175Zm4.308-14.352a1.793,1.793,0,0,1-.956.956l-.679.291L65.053,31a2.463,2.463,0,0,0-2.106-1.316,3.74,3.74,0,0,0-3.062,1.621,6.157,6.157,0,0,0-.734,4.017c.208,1.344.776,4.807,1.011,6.206a8.068,8.068,0,0,0-.914.61h0l-16.9,7.065c-.042-.222-3.893-8.894-3.893-8.894a7.967,7.967,0,0,0,4.128-.6l.526-.319a5.964,5.964,0,0,0,1.621-1.607l.18-.277a6.245,6.245,0,0,0,.707-1.69.176.176,0,0,0,.014-.083h.014a6.089,6.089,0,0,0,.222-1.662,6.2,6.2,0,0,0-.277-1.815,6.066,6.066,0,0,0-11.18-.97l-.984-2.2c-.319-.79-2.438-5.444-2.909-6.525a3.382,3.382,0,0,0-.388-.6l10.958-4.516a1.161,1.161,0,0,0,.707-1.136,1.128,1.128,0,0,0-.8-1.039,4.406,4.406,0,0,1-2.937-5.5,5.066,5.066,0,0,1,.249-.637,4.322,4.322,0,0,1,2.757-2.327,4.409,4.409,0,0,1,5.1,2.147c.651,1.219.429,3.311.3,4.156a1.279,1.279,0,0,0,.485,1.178,1.232,1.232,0,0,0,1.247.166l10.141-4.239,10.806,25.85A1.713,1.713,0,0,1,69.153,37.432Z" transform="translate(0)" fill="#263e1f"/>
      <rect id="Rectángulo_335053" data-name="Rectángulo 335053" width="1.662" height="4.184" transform="translate(17.137 65.86) rotate(-27.298)" fill="#263e1f"/>
      <rect id="Rectángulo_335054" data-name="Rectángulo 335054" width="4.184" height="1.662" transform="translate(5.145 68.882) rotate(-62.702)" fill="#263e1f"/>
      <rect id="Rectángulo_335055" data-name="Rectángulo 335055" width="4.184" height="1.662" transform="matrix(0.024, -1, 1, 0.024, 11.924, 71.728)" fill="#263e1f"/>
      <rect id="Rectángulo_335056" data-name="Rectángulo 335056" width="1.662" height="4.184" transform="translate(52.284 3.109) rotate(-27.298)" fill="#263e1f"/>
      <rect id="Rectángulo_335057" data-name="Rectángulo 335057" width="4.184" height="1.662" transform="translate(64.28 6.12) rotate(-62.702)" fill="#263e1f"/>
      <rect id="Rectángulo_335058" data-name="Rectángulo 335058" width="4.184" height="1.662" transform="matrix(0.024, -1, 1, 0.024, 59.036, 4.362)" fill="#263e1f"/>
    </g>
  </g>
</svg>
