<svg xmlns="http://www.w3.org/2000/svg" width="95" height="95" viewBox="0 0 95 95">
  <g id="Grupo_926828" data-name="Grupo 926828" transform="translate(8340 7255)">
    <rect id="Rectángulo_335052" data-name="Rectángulo 335052" width="95" height="95" transform="translate(-8340 -7255)" fill="none"/>
    <g id="amigo" transform="translate(-8326.056 -7276.752)">
      <g id="Grupo_926829" data-name="Grupo 926829" transform="translate(0 41.081)">
        <path id="Trazado_633487" data-name="Trazado 633487" d="M67.094,96.255,64.578,83.122A9.189,9.189,0,0,0,58.369,76.1l-7.032-2.265V71.085a10.88,10.88,0,0,0,2.413-1.648A6.654,6.654,0,0,0,60.1,62.8V61.779a3.547,3.547,0,0,0,0-4.388V54.472a13.338,13.338,0,0,0-2.126-7.241A.983.983,0,1,0,56.324,48.3a11.375,11.375,0,0,1,1.813,6.176v1.654a3.551,3.551,0,0,0-.833-.1h-.021a.981.981,0,0,0-.925-1.314H52.2a5.3,5.3,0,0,1-5.291-5.291V47.933A.983.983,0,0,0,45,47.606a10.6,10.6,0,0,0-8.705,8.42h-.164a3.552,3.552,0,0,0-.833.1V54.472A11.418,11.418,0,0,1,53.379,45.2a.983.983,0,0,0,1.148-1.6A13.384,13.384,0,0,0,33.336,54.472v2.443a3.544,3.544,0,0,0-2.357-.9h-.064c-.007-.048-.014-.1-.021-.144a2.182,2.182,0,0,0,1.432-2.148l-.111-2.469A2.188,2.188,0,0,0,31.2,49.513a10.985,10.985,0,0,0-3.793-5.971,11.223,11.223,0,0,0-14.027,0,10.985,10.985,0,0,0-3.793,5.971,2.189,2.189,0,0,0-1.014,1.744l-.111,2.469a2.173,2.173,0,0,0,1.432,2.146q-.011.073-.021.147H9.808a3.559,3.559,0,0,0,0,7.117h.076a10.173,10.173,0,0,0,.858,2.783.983.983,0,0,0,1.779-.837,7.972,7.972,0,0,1-.785-3.41V57.484a8.725,8.725,0,0,1,.16-1.65,64.559,64.559,0,0,1,16.993,0,8.721,8.721,0,0,1,.16,1.65v4.188a8.82,8.82,0,0,1-8.657,8.533,8.466,8.466,0,0,1-5.237-1.837.983.983,0,0,0-1.208,1.551,10.954,10.954,0,0,0,1.827,1.155V73.83l-1.432.461a2.778,2.778,0,0,0-2.474-.555l-5.9,1.532a2.9,2.9,0,0,0-2.073,3.525l.186.716a9.246,9.246,0,0,0-1.543,3.605L.018,96.248a.983.983,0,1,0,1.931.37L4.465,83.484a7.223,7.223,0,0,1,.423-1.4,2.829,2.829,0,0,0,2.379,1.309,2.848,2.848,0,0,0,.715-.092l3.126-.811a2.821,2.821,0,0,0,2.115-2.746l.389-.1a2.588,2.588,0,0,0,.643-.265,7.5,7.5,0,0,0,6.139,3.163,7.576,7.576,0,0,0,7.328-5.774l3.719,1.2a7.223,7.223,0,0,1,4.881,5.517l2.516,13.134a.983.983,0,0,0,1.931-.37l-1.282-6.693H55.5a.983.983,0,0,0,0-1.966H39.109l-.857-4.474a9.185,9.185,0,0,0-2.831-5.059l3.971-1.279a7.537,7.537,0,0,0,14.656,0l3.719,1.2a7.223,7.223,0,0,1,4.881,5.517l.785,4.1H60.137a.983.983,0,1,0,0,1.966h3.671l1.355,7.07a.983.983,0,0,0,1.931-.37Zm-8.2-36.67a1.594,1.594,0,0,1-1.555,1.591V58.091c0-.032,0-.064,0-.1A1.593,1.593,0,0,1,58.9,59.585Zm-2.974,7.188a10.42,10.42,0,0,0,1.3-3.629H57.3a3.552,3.552,0,0,0,.826-.1,4.683,4.683,0,0,1-2.207,3.727Zm-17.86-8.683a8.642,8.642,0,0,1,6.889-8.476A7.264,7.264,0,0,0,52.2,56.679h3.057a8.753,8.753,0,0,1,.115,1.412v3.59a8.657,8.657,0,0,1-17.313,0v-3.59Zm-1.929,5.053h.077a10.414,10.414,0,0,0,1.3,3.629,4.683,4.683,0,0,1-2.207-3.727,3.552,3.552,0,0,0,.826.1ZM36.1,58.091v3.085a1.591,1.591,0,0,1,0-3.181c0,.032,0,.064,0,.1ZM32.57,59.578a1.594,1.594,0,0,1-1.555,1.591V57.987A1.593,1.593,0,0,1,32.57,59.578Zm-4.58-8.2a.983.983,0,0,0-.983.983v1.269c-.59-.058-1.2-.109-1.823-.152V51.9a.983.983,0,0,0-1.966,0v1.47c-.617-.026-1.234-.044-1.842-.054v-1.5a.983.983,0,1,0-1.966,0v1.5c-.608.01-1.225.028-1.842.054V51.9a.983.983,0,1,0-1.966,0v1.58c-.622.044-1.233.094-1.823.152V52.362a.983.983,0,1,0-1.966,0v1.5c-.4.055-.785.114-1.142.176a.2.2,0,0,1-.172-.049.21.21,0,0,1-.073-.172l.111-2.469a.215.215,0,0,1,.165-.2,42.673,42.673,0,0,1,9.692-.971,42.663,42.663,0,0,1,9.691.971.215.215,0,0,1,.165.2l.111,2.469a.211.211,0,0,1-.073.172.2.2,0,0,1-.172.049c-.357-.062-.741-.12-1.142-.176v-1.5a.983.983,0,0,0-.983-.983Zm-7.6-8.332a9.193,9.193,0,0,1,8.566,5.859,47.441,47.441,0,0,0-8.567-.7,47.433,47.433,0,0,0-8.567.7,9.194,9.194,0,0,1,8.568-5.859ZM8.215,59.578A1.594,1.594,0,0,1,9.77,57.987v3.181a1.593,1.593,0,0,1-1.555-1.591Zm2.924,20.614a.854.854,0,0,1-.526.4L7.487,81.4a.86.86,0,0,1-1.049-.617L5.794,78.3a.926.926,0,0,1,.663-1.128l3.9-1.011.876,3.378a.856.856,0,0,1-.091.652Zm1.978-2.45-.3.078-.558-2.152.105-.027a.814.814,0,0,1,.991.583l.2.775a.61.61,0,0,1-.437.743Zm7.276,2.835a5.546,5.546,0,0,1-4.9-2.931,2.563,2.563,0,0,0-.033-1.142l-.121-.467.439-.141v.182a.983.983,0,1,0,1.966,0V71.822a10.252,10.252,0,0,0,5.3,0v4.255a.983.983,0,1,0,1.966,0V75.9l.83.267a5.6,5.6,0,0,1-5.448,4.413ZM32.043,76.1,25.011,73.83V71.077a10.969,10.969,0,0,0,2.9-2.106A10.716,10.716,0,0,0,30.9,63.136h.077a3.543,3.543,0,0,0,2.357-.9V62.8a6.654,6.654,0,0,0,6.352,6.639A10.88,10.88,0,0,0,42.1,71.085v2.753L33.38,76.647a9.184,9.184,0,0,0-1.338-.552Zm14.676,4.489a5.6,5.6,0,0,1-5.448-4.413l.83-.267v.182a.983.983,0,1,0,1.966,0V71.83a10.255,10.255,0,0,0,5.3,0v4.255a.983.983,0,1,0,1.966,0V75.9l.83.267a5.6,5.6,0,0,1-5.448,4.413Z" transform="translate(0 -41.081)" fill="#263e1f"/>
        <path id="Trazado_633488" data-name="Trazado 633488" d="M320.415,172.466a.983.983,0,0,0,.983-.983v-.752a.983.983,0,1,0-1.966,0v.752A.983.983,0,0,0,320.415,172.466Z" transform="translate(-277.561 -152.883)" fill="#263e1f"/>
        <path id="Trazado_633489" data-name="Trazado 633489" d="M379.4,172.466a.983.983,0,0,0,.983-.983v-.752a.983.983,0,1,0-1.966,0v.752A.983.983,0,0,0,379.4,172.466Z" transform="translate(-328.81 -152.883)" fill="#263e1f"/>
        <path id="Trazado_633490" data-name="Trazado 633490" d="M120.554,171.426v-.752a.983.983,0,1,0-1.966,0v.752a.983.983,0,0,0,1.966,0Z" transform="translate(-103.044 -152.833)" fill="#263e1f"/>
        <path id="Trazado_633491" data-name="Trazado 633491" d="M179.533,171.426v-.752a.983.983,0,1,0-1.966,0v.752a.983.983,0,0,0,1.966,0Z" transform="translate(-154.292 -152.833)" fill="#263e1f"/>
        <path id="Trazado_633492" data-name="Trazado 633492" d="M121.251,383.083H111.37a.983.983,0,0,0-.983.983v9.5a.983.983,0,0,0,1.966,0v-4.843h7.915v4.843a.983.983,0,1,0,1.966,0v-9.5A.983.983,0,0,0,121.251,383.083Zm-8.9,3.675v-1.708h7.915v1.708Z" transform="translate(-95.918 -338.254)" fill="#263e1f"/>
      </g>
    </g>
  </g>
</svg>
