<svg xmlns="http://www.w3.org/2000/svg" width="95" height="95" viewBox="0 0 95 95">
  <g id="Grupo_926830" data-name="Grupo 926830" transform="translate(8340 7255)">
    <rect id="Rectángulo_335052" data-name="Rectángulo 335052" width="95" height="95" transform="translate(-8340 -7255)" fill="none"/>
    <g id="confianza_1_" data-name="confianza(1)" transform="translate(-8395.157 -7246.299)">
      <path id="Trazado_633493" data-name="Trazado 633493" d="M220.525,203.394v-1.735a1.086,1.086,0,0,0-2.173,0v1.735a1.086,1.086,0,1,0,2.173,0Z" transform="translate(-121.148 -171.52)" fill="#263e1f"/>
      <path id="Trazado_633494" data-name="Trazado 633494" d="M279.532,200.573a1.086,1.086,0,0,0-1.086,1.086v1.735a1.086,1.086,0,1,0,2.173,0v-1.735A1.086,1.086,0,0,0,279.532,200.573Z" transform="translate(-172.537 -171.52)" fill="#263e1f"/>
      <path id="Trazado_633495" data-name="Trazado 633495" d="M231.334,248.72h-5.869a1.725,1.725,0,0,0-1.724,1.723,4.658,4.658,0,1,0,9.316,0A1.725,1.725,0,0,0,231.334,248.72Zm-2.935,4.233a2.5,2.5,0,0,1-2.446-2.06h4.891A2.5,2.5,0,0,1,228.4,252.953Z" transform="translate(-125.756 -212.692)" fill="#263e1f"/>
      <path id="Trazado_633496" data-name="Trazado 633496" d="M245.94,213.5h1.134a1.086,1.086,0,1,0,0-2.173h-.483v-1.448a1.086,1.086,0,1,0-2.173,0v2.1A1.523,1.523,0,0,0,245.94,213.5Z" transform="translate(-143.439 -178.552)" fill="#263e1f"/>
      <path id="Trazado_633497" data-name="Trazado 633497" d="M218.6,384.355l2.13-2.057a1.591,1.591,0,0,0-.882-2.721l-2.954-.425-1.32-2.648a1.6,1.6,0,0,0-2.861,0l-1.319,2.647-2.954.425a1.591,1.591,0,0,0-.883,2.72l2.131,2.058-.5,2.9a1.6,1.6,0,0,0,2.314,1.683l2.645-1.377,2.645,1.377a1.606,1.606,0,0,0,.739.181,1.6,1.6,0,0,0,1.574-1.864Zm-1.923-1.163a1.087,1.087,0,0,0-.316.967l.4,2.319-2.117-1.1a1.086,1.086,0,0,0-1,0l-2.116,1.1.4-2.318a1.086,1.086,0,0,0-.316-.967l-1.691-1.633,2.347-.338a1.087,1.087,0,0,0,.818-.591l1.059-2.126,1.059,2.126a1.087,1.087,0,0,0,.818.591l2.347.337Z" transform="translate(-111.502 -321.211)" fill="#263e1f"/>
      <path id="Trazado_633498" data-name="Trazado 633498" d="M126.4,55.564l-11.268-8.09a3.611,3.611,0,0,0-1.046-.519,3.245,3.245,0,0,0-1.009-.161H106.43V46a7.386,7.386,0,0,0,6.551-7.351v-.315a3.367,3.367,0,0,0,3.353-3.373V33.478a3.368,3.368,0,0,0-3.353-3.373v-.415c0-.059,0-.117,0-.176,0-.074,0-.149,0-.224V23.7a5.8,5.8,0,0,0-5.779-5.817h-1.3V11.549h1.764a1.311,1.311,0,0,0,1.164-2L103.8.7a1.306,1.306,0,0,0-2.318,0L96.452,9.548a1.311,1.311,0,0,0,1.164,2H99.38v4.417h-1.3A5.8,5.8,0,0,0,92.3,21.783V30.1a3.368,3.368,0,0,0-3.353,3.373v1.487A3.368,3.368,0,0,0,92.3,38.337v.315A7.385,7.385,0,0,0,98.855,46v.791H92.214a3.237,3.237,0,0,0-1.49.362,3.669,3.669,0,0,0-.537.318l-11.269,8.09a5.073,5.073,0,0,0,.01,8.418L85.252,68.5a2.5,2.5,0,0,0-.137.811v2.318a2.538,2.538,0,0,0,2.535,2.535H104.18a1.086,1.086,0,1,0,0-2.173H91.128V50.053a1.088,1.088,0,0,1,1.086-1.086h6.649a3.283,3.283,0,0,0,3.263,3.075h1.033a3.283,3.283,0,0,0,3.263-3.075h6.649a1.088,1.088,0,0,1,1.086,1.086V71.991h-4.908a1.086,1.086,0,0,0,0,2.173h8.385a2.538,2.538,0,0,0,2.535-2.535V69.311a2.5,2.5,0,0,0-.131-.795l6.346-4.535a5.073,5.073,0,0,0,.01-8.418ZM112.981,32.277a1.193,1.193,0,0,1,1.18,1.2v1.487a1.192,1.192,0,0,1-1.18,1.2ZM92.3,36.164a1.193,1.193,0,0,1-1.18-1.2V33.478a1.193,1.193,0,0,1,1.18-1.2Zm-3.35,35.827h-1.3a.362.362,0,0,1-.362-.362V69.955l1.666,1.191Zm0-9.747-3.469-2.479,3.469-2.491Zm0-7.644-5.968,4.285a1.087,1.087,0,0,0,0,1.767l5.966,4.263v3.561l-8.763-6.261a2.9,2.9,0,0,1-.006-4.885l8.768-6.3ZM107.2,20.06a3.629,3.629,0,0,1,3.606,3.644v1.04a7.416,7.416,0,0,0-4.047-1.761v-1.2a5.832,5.832,0,0,0-.259-1.723h.7ZM99.049,9.376l3.593-6.315,3.594,6.315h-.982a1.523,1.523,0,0,0-1.521,1.521v5.771a5.71,5.71,0,0,0-2.181-.674V10.9a1.523,1.523,0,0,0-1.521-1.521ZM94.477,21.783a3.629,3.629,0,0,1,3.606-3.644h2.9a3.63,3.63,0,0,1,3.606,3.644v1.13H99.647a7.692,7.692,0,0,0-5.17,1.831V21.783Zm9.78,26.969a1.109,1.109,0,0,1-1.1,1.117h-1.033a1.109,1.109,0,0,1-1.1-1.117V46.046h3.229Zm1.381-4.878H99.647a5.2,5.2,0,0,1-5.17-5.221V29.689c0-2.71,2.126-4.6,5.17-4.6h5.991c3.044,0,5.17,1.893,5.17,4.6v8.963A5.2,5.2,0,0,1,105.639,43.874Zm10.692,13.38,3.5,2.512-3.5,2.5ZM118,71.629a.362.362,0,0,1-.362.362h-1.3v-.825L118,69.976Zm7.125-9.415L116.331,68.5V64.935l6-4.284a1.087,1.087,0,0,0,0-1.767l-6-4.306V51.013l8.8,6.316a2.9,2.9,0,0,1-.006,4.886Z" transform="translate(0)" fill="#263e1f"/>
      <path id="Trazado_633499" data-name="Trazado 633499" d="M346.933,79H348.7v23.135a1.523,1.523,0,0,0,1.521,1.521H353.7a1.523,1.523,0,0,0,1.521-1.521v-9.1a1.086,1.086,0,1,0-2.173,0v8.45H350.87V78.345a1.523,1.523,0,0,0-1.521-1.521h-.982l3.593-6.315,3.594,6.315h-.982a1.523,1.523,0,0,0-1.521,1.521V87.96a1.086,1.086,0,1,0,2.173,0V79h1.764a1.311,1.311,0,0,0,1.164-2l-5.032-8.842a1.305,1.305,0,0,0-2.318,0L345.769,77a1.311,1.311,0,0,0,1.164,2Z" transform="translate(-229.945 -57.678)" fill="#263e1f"/>
      <path id="Trazado_633500" data-name="Trazado 633500" d="M79.447,79h1.764v23.135a1.523,1.523,0,0,0,1.521,1.521h3.484a1.523,1.523,0,0,0,1.521-1.521V86.946a1.086,1.086,0,0,0-2.173,0V101.48H83.384V78.345a1.523,1.523,0,0,0-1.521-1.521h-.982l3.593-6.315,3.594,6.315h-.982a1.523,1.523,0,0,0-1.521,1.521v3.531a1.086,1.086,0,1,0,2.173,0V79H89.5a1.311,1.311,0,0,0,1.164-2l-5.032-8.842a1.306,1.306,0,0,0-2.318,0L78.283,77a1.311,1.311,0,0,0,1.164,2Z" transform="translate(-1.205 -57.678)" fill="#263e1f"/>
    </g>
  </g>
</svg>
