<svg xmlns="http://www.w3.org/2000/svg" width="95" height="95" viewBox="0 0 95 95">
  <g id="Grupo_926832" data-name="Grupo 926832" transform="translate(8340 7255)">
    <rect id="Rectángulo_335052" data-name="Rectángulo 335052" width="95" height="95" transform="translate(-8340 -7255)" fill="none"/>
    <g id="honesto" transform="translate(-8387.611 -7244.541)">
      <path id="Trazado_633502" data-name="Trazado 633502" d="M116.326,45.184l-13.968-2.846a.356.356,0,0,1-.284-.348V36.708l2.1-1.389a8.14,8.14,0,0,0,3.658-6.806v-.258a5.48,5.48,0,0,0,4.665-5.412,4.137,4.137,0,0,0-.309-1.525v-8.9A12.432,12.432,0,0,0,99.769,0H97.026a12.671,12.671,0,0,0-7.362,2.373,9.5,9.5,0,0,0-7.57,2.14,1.064,1.064,0,1,0,1.371,1.628A7.377,7.377,0,0,1,88.153,4.4a5.191,5.191,0,0,0,.814,4.029v1.6a4.5,4.5,0,0,1-2.511,4.018l-1.581.771a4.643,4.643,0,0,0-2.484,4.058v.217h-.956a3.693,3.693,0,0,0-1.129.176V13.6a10.683,10.683,0,0,1,.706-3.825,1.064,1.064,0,1,0-1.989-.759,12.8,12.8,0,0,0-.846,4.585v7.43a4.09,4.09,0,0,0-.451,1.816,5.48,5.48,0,0,0,4.665,5.412v.259a8.141,8.141,0,0,0,3.658,6.806l2.1,1.389v5.282a.356.356,0,0,1-.284.348L73.9,45.184a6.764,6.764,0,0,0-5.4,6.605v3.86a1.064,1.064,0,1,0,2.129,0V51.79a4.628,4.628,0,0,1,3.692-4.52l13.968-2.846a2.463,2.463,0,0,0,.77-.3,10.206,10.206,0,0,0,3.383,1.614,1.064,1.064,0,0,0,.55-2.057,8.1,8.1,0,0,1-2.743-1.324,2.449,2.449,0,0,0,.03-.368V38.116l1.114.737a6.731,6.731,0,0,0,7.439,0l1.115-.738V41.99a2.462,2.462,0,0,0,.03.368,8.106,8.106,0,0,1-2.631,1.294,1.064,1.064,0,1,0,.579,2.049,10.217,10.217,0,0,0,3.242-1.575,2.464,2.464,0,0,0,.769.3L115.9,47.27a4.628,4.628,0,0,1,3.692,4.52V65h-7.806V61.017a2.92,2.92,0,0,0-.331-3.263,3.3,3.3,0,0,0-.563-.524,3.088,3.088,0,0,0,1.026-1.968,3.009,3.009,0,0,0-.686-2.185,2.857,2.857,0,0,0-.8-.66A2.9,2.9,0,0,0,110,49.4a2.868,2.868,0,0,0-2.911-.938,2.944,2.944,0,0,0-.541-.97,2.915,2.915,0,0,0-4.107-.359l-8.317,6.98.053-.715a4.262,4.262,0,0,0-3.607-4.513l-.041-.006a1.73,1.73,0,0,0-1.914,1.233L87.3,54.7a12.561,12.561,0,0,0-.276,5.66,3.382,3.382,0,0,1-1.045,3.116l-5.42,4.86V57.905a1.064,1.064,0,1,0-2.129,0V65H70.629V60.614a1.064,1.064,0,1,0-2.129,0V71.6a1.064,1.064,0,0,0,2.129,0V67.131h7.806v3.119l-.624.559a1.064,1.064,0,1,0,1.421,1.585l8.18-7.335a5.5,5.5,0,0,0,1.71-5.075,10.419,10.419,0,0,1,.229-4.7l1.206-4.231a2.126,2.126,0,0,1,1.495,2.18l-.24,3.232a1.064,1.064,0,0,0,1.746.894l10.249-8.6a.786.786,0,0,1,1.107.1.8.8,0,0,1,.188.588.783.783,0,0,1-.272.53L98.8,55.031a1.064,1.064,0,1,0,1.368,1.631l7.136-5.988a.749.749,0,0,1,1.055.092.767.767,0,0,1,.18.561.744.744,0,0,1-.261.508c-.663.533-6.378,5.352-7.138,5.989a1.064,1.064,0,1,0,1.37,1.629l6.059-5.1a.728.728,0,0,1,1.026.09.867.867,0,0,1,.2.629.749.749,0,0,1-.257.51l-6.031,5.055a1.064,1.064,0,0,0,1.369,1.631l3.9-3.272a.722.722,0,0,1,1.018.089l.03.035a.784.784,0,0,1-.089,1.1l-7.978,6.7a9.447,9.447,0,0,1-4.2,2.022c-.3.06-.615.106-.951.155a9.692,9.692,0,0,0-4.572,1.621,1.064,1.064,0,1,0,1.219,1.745,7.572,7.572,0,0,1,3.659-1.259c.349-.051.711-.1,1.067-.175a11.582,11.582,0,0,0,5.144-2.479l6.53-5.487V71.6a1.064,1.064,0,0,0,2.129,0V67.131h7.806V71.6a1.064,1.064,0,1,0,2.129,0V51.79a6.764,6.764,0,0,0-5.4-6.606Zm-5.958-22.342a3.349,3.349,0,0,1-2.536,3.244V21.218h.956A1.657,1.657,0,0,1,110.368,22.842Zm-30.514,0a1.654,1.654,0,0,1,1.58-1.624h.956v4.868a3.349,3.349,0,0,1-2.536-3.244Zm17.8,14.236a4.605,4.605,0,0,1-5.09,0l-5.343-3.535a6.017,6.017,0,0,1-2.7-5.031V18.871a2.42,2.42,0,0,1,1.3-2.151l1.569-.765a6.645,6.645,0,0,0,3.682-5.368,12.189,12.189,0,0,0,7.647,2.677h1.161a5.823,5.823,0,0,1,1.559.212,1.064,1.064,0,0,0,.57-2.051,7.953,7.953,0,0,0-2.129-.29H98.718a10.074,10.074,0,0,1-7.86-3.747c-.374-.458-1.252-2.227-.234-3.076a10.017,10.017,0,0,1,6.4-2.185h2.743a10.3,10.3,0,0,1,10.29,10.29v6.895a3.692,3.692,0,0,0-1.271-.224h-.956v0a7.929,7.929,0,0,0-1.273-4.314,1.064,1.064,0,1,0-1.788,1.156,5.8,5.8,0,0,1,.932,3.158v9.426a6.017,6.017,0,0,1-2.7,5.031Z" fill="#263e1f"/>
      <path id="Trazado_633503" data-name="Trazado 633503" d="M280.39,161.222a4.2,4.2,0,0,0-3.8,0,1.064,1.064,0,1,0,.966,1.9,2.066,2.066,0,0,1,1.87,0,1.064,1.064,0,0,0,.966-1.9Z" transform="translate(-178.055 -137.951)" fill="#263e1f"/>
      <path id="Trazado_633504" data-name="Trazado 633504" d="M205.855,162.654a1.064,1.064,0,0,0-.465-1.432,4.2,4.2,0,0,0-3.8,0,1.064,1.064,0,1,0,.966,1.9,2.066,2.066,0,0,1,1.87,0,1.064,1.064,0,0,0,1.432-.465Z" transform="translate(-113.7 -137.951)" fill="#263e1f"/>
      <path id="Trazado_633505" data-name="Trazado 633505" d="M239.086,192.683a4.2,4.2,0,0,0,3.8,0,1.064,1.064,0,0,0-.967-1.9,2.065,2.065,0,0,1-1.87,0,1.064,1.064,0,1,0-.967,1.9Z" transform="translate(-145.877 -163.609)" fill="#263e1f"/>
      <path id="Trazado_633506" data-name="Trazado 633506" d="M200.022,134.277a3.09,3.09,0,0,1,2.64,0,1.064,1.064,0,1,0,.907-1.926,5.213,5.213,0,0,0-4.453,0,1.064,1.064,0,1,0,.906,1.926Z" transform="translate(-111.554 -113.139)" fill="#263e1f"/>
      <path id="Trazado_633507" data-name="Trazado 633507" d="M278.569,132.351a5.213,5.213,0,0,0-4.453,0,1.064,1.064,0,1,0,.906,1.926,3.09,3.09,0,0,1,2.64,0,1.064,1.064,0,1,0,.907-1.926Z" transform="translate(-175.909 -113.139)" fill="#263e1f"/>
      <path id="Trazado_633508" data-name="Trazado 633508" d="M235.532,217.616a5.2,5.2,0,0,1-4.709,0,1.064,1.064,0,0,0-.966,1.9,7.336,7.336,0,0,0,6.642,0,1.064,1.064,0,0,0-.966-1.9Z" transform="translate(-137.957 -186.631)" fill="#263e1f"/>
    </g>
  </g>
</svg>
