<svg xmlns="http://www.w3.org/2000/svg" xmlns:xlink="http://www.w3.org/1999/xlink" width="608.826" height="319.416" viewBox="0 0 608.826 319.416">
  <defs>
    <clipPath id="clip-path">
      <rect id="Rectángulo_37582" data-name="Rectángulo 37582" width="565.174" height="296.714" fill="none"/>
    </clipPath>
  </defs>
  <g id="Grupo_212500" data-name="Grupo 212500" transform="translate(-810 -2385)">
    <rect id="BG" width="608.826" height="319.416" transform="translate(810 2385)" fill="#e8e8e8" opacity="0.949"/>
    <g id="Grupo_85751" data-name="Grupo 85751" transform="translate(832 2396)">
      <g id="Grupo_85747" data-name="Grupo 85747" clip-path="url(#clip-path)">
        <path id="Trazado_141206" data-name="Trazado 141206" d="M351.646,116.465c-2.246-5.027-11.143-5.941-19.871-2.042s-13.982,11.138-11.736,16.165,11.143,5.941,19.871,2.041,13.982-11.137,11.736-16.164" transform="translate(-27.635 -9.687)" fill="#7a6565"/>
        <path id="Trazado_141207" data-name="Trazado 141207" d="M321.165,61.818s3.692-1.293.923-10.339-7.569-6.093-7.569-6.093,1.662-7.385-8.493-8.493-7.939,9.232-7.939,9.232-7.385-2.77-12.37,1.476-3.877,14.217-3.877,14.217a12.256,12.256,0,0,0-3.878,13.293c2.585,8.493,12,7.016,12,7.016s2.4,7.569,11.631,5.539l13.847-5.723a14.028,14.028,0,0,0,8.678-10.894c1.662-8.677-2.954-9.231-2.954-9.231" transform="translate(-23.987 -3.184)" fill="#eddccc"/>
        <path id="Trazado_141208" data-name="Trazado 141208" d="M332.979,120.1c4.61,11.3,22.771.97,19.14-7.98s-20.191-30.039-20.191-30.039l-6.645,3.464s1.194,18.61,7.7,34.555" transform="translate(-28.133 -7.099)" fill="#edb984"/>
        <path id="Trazado_141209" data-name="Trazado 141209" d="M338.974,111.473c-6-9.24-13.691-25.6-13.691-25.6s1.194,18.61,7.7,34.555c4.559,11.179,22.366,1.192,19.237-7.688-4.215,3.068-9.923,3.848-13.242-1.266" transform="translate(-28.133 -7.427)" fill="#e79b69"/>
        <path id="Trazado_141210" data-name="Trazado 141210" d="M315.981,95.888,343.892,215c15.878-61.667-3.692-99.7-27.911-119.113" transform="translate(-27.328 -8.293)" fill="#6b5b5b"/>
        <path id="Trazado_141211" data-name="Trazado 141211" d="M314.162,95.888,342.073,215c15.878-61.667-3.692-99.7-27.911-119.113" transform="translate(-27.171 -8.293)" fill="#564747"/>
        <path id="Trazado_141212" data-name="Trazado 141212" d="M294.794,231.382l10.339,83.452,19.94-97.854Z" transform="translate(-25.496 -18.766)" fill="#edb984"/>
        <path id="Trazado_141213" data-name="Trazado 141213" d="M309.415,293.824l15.659-76.844-30.279,14.4,8.177,65.995Z" transform="translate(-25.496 -18.766)" fill="#e79b69"/>
        <path id="Trazado_141214" data-name="Trazado 141214" d="M313.71,229.282l16.323,85.342,12.924-100.07Z" transform="translate(-27.132 -18.556)" fill="#edb984"/>
        <path id="Trazado_141215" data-name="Trazado 141215" d="M334.433,280.551l8.524-66L313.71,229.282l11.032,57.68Z" transform="translate(-27.132 -18.556)" fill="#e79b69"/>
        <path id="Trazado_141216" data-name="Trazado 141216" d="M287.525,279.644c40.618-4.431,62.4-35.449,62.4-35.449s-9.649-77.088-12.924-87.515c-19.94-4.431-52.435,12.186-52.435,12.186-2.6,31.319-.9,69.371,2.954,110.777" transform="translate(-24.504 -13.486)" fill="#b54b66"/>
        <path id="Trazado_141217" data-name="Trazado 141217" d="M305.157,246c0-36.326,10.32-77.406,22.71-77.406,5.8,0,11.678,13.553,15.4,25.511-2.422-17.116-4.9-33.069-6.264-37.418-19.94-4.431-52.435,12.185-52.435,12.185-2.6,31.319-.9,69.371,2.954,110.776a86.978,86.978,0,0,0,19.937-4.6,176.8,176.8,0,0,1-2.3-29.047" transform="translate(-24.504 -13.486)" fill="#aa3a5a"/>
        <path id="Trazado_141218" data-name="Trazado 141218" d="M314.9,97.181c20.339,22.425,26.218,49.111,22.155,53.912-4.917,5.811-46.157,4.8-46.157,4.8l-7.016-53.174S300.5,81.3,314.9,97.181" transform="translate(-24.552 -7.898)" fill="#e8dec5"/>
        <path id="Trazado_141219" data-name="Trazado 141219" d="M316.106,100.975c.8-3.312-2.3-6.66-7.622-7.947-6.393-1.547-14.692.132-17.622,4.6-3.413,5.207,2.6,10.172,11.605,10.237,7.152.051,12.748-3.211,13.639-6.891" transform="translate(-25.072 -7.997)" fill="#d8c8ab"/>
        <path id="Trazado_141220" data-name="Trazado 141220" d="M323.821,108.57c8.085,17.216,13.672,35.093,12.887,38.442-1.2,5.136-23.236,3.243-23.236,3.243-.5-20.627-12.06-42.9-16.387-53.749a22.808,22.808,0,0,1,3.459-4.924c-9.229,1.6-16.662,11.162-16.662,11.162l7.016,53.173s41.794,1.473,46.712-4.338c3.389-4.007-.706-23.715-13.788-43.008" transform="translate(-24.552 -7.921)" fill="#d8c8ab"/>
        <path id="Trazado_141221" data-name="Trazado 141221" d="M290.42,96.113c28.433,36.187,23.263,98.223-7.755,146.6,0,0-18.49-82.213-11.077-118.163,6.451-31.287,18.832-28.433,18.832-28.433" transform="translate(-23.337 -8.307)" fill="#7a6565"/>
        <path id="Trazado_141222" data-name="Trazado 141222" d="M291.389,126.163c-3.257-8.764-10.109-22.017-14.169-18.219a72.36,72.36,0,0,0-5.632,17.574c-7.412,35.948,11.077,118.161,11.077,118.161,14.774-23.04,23.668-49.177,25.876-74.145-9.121,4.679-7.737-18.03-17.152-43.371" transform="translate(-23.337 -9.278)" fill="#6b5b5b"/>
        <path id="Trazado_141223" data-name="Trazado 141223" d="M296.5,146.519c-4.847-5.123-8.863-46.665-18-38.08s-7.061,51.511,5.4,58.712c0,0,17.447-15.509,12.6-20.633" transform="translate(-23.598 -9.278)" fill="#7a6565"/>
        <path id="Trazado_141224" data-name="Trazado 141224" d="M296.269,91.424c-2.012-11.343,1.927-22.145,1.927-22.145l10.524,7.533,3.934,15.5s-4.118,12.011-16.384-.887" transform="translate(-25.574 -5.992)" fill="#d27558"/>
        <path id="Trazado_141225" data-name="Trazado 141225" d="M326.293,76.733c-.408,1.373.485,7.824,1.311,11.375l8.234-.113c1.315-6-1.876-12.238-3.13-12.243s-6.007-.393-6.416.981" transform="translate(-28.211 -6.547)" fill="#edb984"/>
        <path id="Trazado_141226" data-name="Trazado 141226" d="M320.5,81.917c.21.526,3.771,2.312,6.59,7.165l1.389-4.967c-.775-1.326-5.855-4.546-6.822-4.463-1.077.092-1.465,1.5-1.157,2.266" transform="translate(-27.71 -6.889)" fill="#edb984"/>
        <path id="Trazado_141227" data-name="Trazado 141227" d="M322.825,72.776a63.025,63.025,0,0,0,3.9,8.361l1.819-2.965s-3.277-6.3-4.123-6.669a1.212,1.212,0,0,0-1.6,1.273" transform="translate(-27.919 -6.177)" fill="#edb984"/>
        <path id="Trazado_141228" data-name="Trazado 141228" d="M326.787,69.488c-.2.517,1.361,5.156,2.887,9.445l2.158-2.752s-2.292-6.9-3.056-7.406a1.507,1.507,0,0,0-1.989.713" transform="translate(-28.261 -5.933)" fill="#edb984"/>
        <path id="Trazado_141229" data-name="Trazado 141229" d="M336.439,82.51c.6-6-3.123-13.22-3.7-13.477s-2.174-.406-1.979.527,1.991,5.266,1.861,6.358-1.6,7.59-1.468,7.683,5.285-1.091,5.285-1.091" transform="translate(-28.605 -5.954)" fill="#edb984"/>
        <path id="Trazado_141230" data-name="Trazado 141230" d="M294.829,74.582c.291,11.782,13.812,18.456,19.026,13.882s4.5-26.734-.312-29.31-19.061,1.385-18.714,15.428" transform="translate(-25.499 -5.052)" fill="#edb984"/>
        <path id="Trazado_141231" data-name="Trazado 141231" d="M307.96,181.644c-.7-20.456-5.825-34.043-13.388-35.457l-.233,2.212c6.184,1.156,10.766,14.476,11.4,33.144Z" transform="translate(-25.457 -12.643)" fill="#443737"/>
        <path id="Trazado_141232" data-name="Trazado 141232" d="M291.192,172.917c-13.015.587-13.795-24.143-3.5-24.628s40,5.117,40,5.117l1.7,7.043s-19.833,11.64-38.2,12.469" transform="translate(-24.271 -12.823)" fill="#edb984"/>
        <path id="Trazado_141233" data-name="Trazado 141233" d="M304.346,162.671c-7.294.329-10.743-7.293-10.556-14.143a46.891,46.891,0,0,0-6.1-.238c-10.294.485-9.514,25.216,3.5,24.628,18.362-.828,36.722-11.646,36.722-11.646s-15.111,1.019-23.568,1.4" transform="translate(-24.271 -12.823)" fill="#e79b69"/>
        <path id="Trazado_141234" data-name="Trazado 141234" d="M277.11,222.865c20.6,4.126,39.049-3.3,39.049-3.3l-4.025-36.587-34.85,1.926Z" transform="translate(-23.967 -15.825)" fill="#594b4b"/>
        <path id="Trazado_141235" data-name="Trazado 141235" d="M305.275,220.348l-2.4-36.813-25.59,1.414-.174,37.963c15.072,3.019,28.985-.146,35.37-2.063a63.253,63.253,0,0,1-7.206-.5" transform="translate(-23.967 -15.873)" fill="#443737"/>
        <path id="Trazado_141236" data-name="Trazado 141236" d="M283.556,181.642c-1.235-20.469,2.613-34.065,10.042-35.48l.441,2.213c-6.075,1.156-9.4,14.484-8.272,33.165Z" transform="translate(-24.504 -12.641)" fill="#443737"/>
        <path id="Trazado_141237" data-name="Trazado 141237" d="M338.96,324.531h-8.493s.205-2.086,1.292-2.672c2.211-1.191,7.2,2.672,7.2,2.672" transform="translate(-28.581 -27.817)" fill="#eae3d3"/>
        <path id="Trazado_141238" data-name="Trazado 141238" d="M302.879,324.531h4.893a6.846,6.846,0,0,0-1.308-2.672c-1.525-1.191-3.585,2.672-3.585,2.672" transform="translate(-26.195 -27.817)" fill="#eae3d3"/>
        <path id="Trazado_141239" data-name="Trazado 141239" d="M293.681,106.027a21.812,21.812,0,0,0,4.662.322,77.737,77.737,0,0,0-6.774-10.236s-3.894-.894-8.453,3.835c1.489,2.751,5.371,5.16,10.565,6.079" transform="translate(-24.486 -8.307)" fill="#6b5b5b"/>
        <path id="Trazado_141240" data-name="Trazado 141240" d="M295.087,78.125c5.076-11.582,19.024-19.655,14.94-24.5-2.481-2.947-9.807-7.962-17.066,3.269-6.6,10.208,2.126,21.236,2.126,21.236" transform="translate(-25.124 -4.317)" fill="#eddccc"/>
        <path id="Trazado_141241" data-name="Trazado 141241" d="M294.068,74.6c-.674-2.059-2.065-3.451-3.106-3.111s-1.341,2.286-.667,4.346,2.065,3.453,3.106,3.112,1.34-2.287.667-4.347" transform="translate(-25.076 -6.179)" fill="#edb984"/>
        <path id="Trazado_141242" data-name="Trazado 141242" d="M293.332,75.057c-.388-1.188-1.19-1.991-1.79-1.793s-.771,1.32-.383,2.509,1.19,1.991,1.79,1.793.772-1.321.383-2.508" transform="translate(-25.164 -6.334)" fill="#d27558"/>
        <path id="Trazado_141243" data-name="Trazado 141243" d="M293.547,76.716c-.265-.809-.811-1.357-1.22-1.221s-.526.9-.261,1.71.811,1.357,1.22,1.221.525-.9.26-1.71" transform="translate(-25.248 -6.528)" fill="#edb984"/>
        <path id="Trazado_141244" data-name="Trazado 141244" d="M288.065,208.694h-1.939l-.831,5.262h3.6Z" transform="translate(-24.674 -18.049)" fill="#6b5b5b"/>
        <path id="Trazado_141245" data-name="Trazado 141245" d="M335.67,149.911c-1.492-.248-8.135,1.529-11.749,2.857l1.192,8.613c6.453.595,12.579-3.56,12.421-4.874s-.373-6.345-1.864-6.6" transform="translate(-28.015 -12.963)" fill="#edb984"/>
        <path id="Trazado_141246" data-name="Trazado 141246" d="M329.843,144.514c-.525.289-1.933,4.252-6.649,7.839l5.385.808c1.288-.985,4-6.726,3.788-7.729-.237-1.117-1.758-1.341-2.524-.918" transform="translate(-27.952 -12.481)" fill="#edb984"/>
        <path id="Trazado_141247" data-name="Trazado 141247" d="M339.662,145.754a66.586,66.586,0,0,0-8.253,5.18l3.343,1.519s6.174-4.254,6.451-5.188a1.28,1.28,0,0,0-1.542-1.511" transform="translate(-28.663 -12.602)" fill="#edb984"/>
        <path id="Trazado_141248" data-name="Trazado 141248" d="M343.551,149.475c-.568-.145-5.225,2.1-9.52,4.257l3.164,1.9s6.935-3.3,7.361-4.167a1.592,1.592,0,0,0-1-1.992" transform="translate(-28.89 -12.927)" fill="#edb984"/>
        <path id="Trazado_141249" data-name="Trazado 141249" d="M330.693,161.28c6.366-.151,13.446-5,13.64-5.632s.142-2.331-.81-2.005-5.258,2.773-6.419,2.779-8.163-.692-8.241-.538,1.831,5.4,1.831,5.4" transform="translate(-28.442 -13.285)" fill="#edb984"/>
        <path id="Trazado_141250" data-name="Trazado 141250" d="M310.6,75.206c-.054-1.079-.6-1.961-1.215-1.97s-1.072.86-1.019,1.938.6,1.961,1.215,1.97,1.073-.859,1.019-1.938" transform="translate(-26.67 -6.334)" fill="#5a4949"/>
        <path id="Trazado_141251" data-name="Trazado 141251" d="M308.9,68.636l-3.917.838a.637.637,0,0,0-.477.749l.248,1.3a.608.608,0,0,0,.716.5l3.918-.838a.64.64,0,0,0,.477-.75l-.249-1.294a.606.606,0,0,0-.716-.5" transform="translate(-26.335 -5.935)" fill="#eddccc"/>
        <path id="Trazado_141252" data-name="Trazado 141252" d="M316.49,74.584c-.088-1.078-.658-1.942-1.273-1.928s-1.043.9-.956,1.977.657,1.942,1.273,1.928,1.044-.9.956-1.977" transform="translate(-27.179 -6.284)" fill="#5a4949"/>
        <path id="Trazado_141253" data-name="Trazado 141253" d="M317.959,68.842l-3.807-.55a.578.578,0,0,0-.639.555l-.121,1.329a.656.656,0,0,0,.522.723l3.807.549a.576.576,0,0,0,.638-.554l.122-1.33a.656.656,0,0,0-.522-.722" transform="translate(-27.104 -5.906)" fill="#eddccc"/>
        <path id="Trazado_141254" data-name="Trazado 141254" d="M312.809,79.242c.984,1.6,1.255,2.611.179,2.976a5.264,5.264,0,0,1-2.327.037l-.021.031a8.446,8.446,0,0,0,3.38.273c1.155-.334.429-1.476-1.211-3.318" transform="translate(-26.867 -6.853)" fill="#d27558"/>
        <path id="Trazado_141255" data-name="Trazado 141255" d="M310.686,86.394c.157-.683-.023-1.308-.4-1.395s-.815.4-.972,1.079.023,1.308.4,1.4.815-.4.972-1.08" transform="translate(-26.747 -7.35)" fill="#35252c"/>
        <path id="Trazado_141256" data-name="Trazado 141256" d="M236.16,139.095c0-5.736-6.385-10.386-14.263-10.386s-14.263,4.65-14.263,10.386S214.02,149.48,221.9,149.48s14.263-4.649,14.263-10.385" transform="translate(-17.958 -11.132)" fill="#e79b69"/>
        <path id="Trazado_141257" data-name="Trazado 141257" d="M236.23,136.315c-6.4,12.11-23.922-7.026-18.878-16.617S240.89,86.952,240.89,86.952l.347.206a10.538,10.538,0,0,1,5.115,10.287c-1.1,9.56-3.85,27.008-10.123,38.87" transform="translate(-18.72 -7.52)" fill="#edb984"/>
        <path id="Trazado_141258" data-name="Trazado 141258" d="M237.827,123.484c-4.341,8.21-13.881.919-18.008-7.617-.991,1.555-1.834,2.969-2.466,4.17-5.045,9.591,12.686,31.2,19.089,19.094C245.476,122.047,247,90.894,247,90.894s-4.317,23.412-9.171,32.59" transform="translate(-18.721 -7.861)" fill="#e79b69"/>
        <path id="Trazado_141259" data-name="Trazado 141259" d="M192.37,216.779l11.591,97.74,18.832-101.177Z" transform="translate(-16.638 -18.451)" fill="#edb984"/>
        <path id="Trazado_141260" data-name="Trazado 141260" d="M211.492,274.054l11.3-60.712-30.423,3.437L199.5,276.9Z" transform="translate(-16.638 -18.451)" fill="#e79b69"/>
        <path id="Trazado_141261" data-name="Trazado 141261" d="M189.228,259.133l32.495-.739,2.954-77.544-23.962-1.641L180,212.976Z" transform="translate(-15.567 -15.499)" fill="#e8dec5"/>
        <path id="Trazado_141262" data-name="Trazado 141262" d="M224.08,196.5l.6-15.65-23.962-1.641L180,212.975l9.232,46.158,8.607-.2c-.235-3.3,3.056-37.639,9.01-40.408-8.308-2.215-13.782-8-12.955-9.431,3.481-6.029,23.7-11.647,30.191-12.6" transform="translate(-15.567 -15.499)" fill="#d8caa9"/>
        <path id="Trazado_141263" data-name="Trazado 141263" d="M165.04,220.3l5.17,94.53,25.479-97.854Z" transform="translate(-14.274 -18.766)" fill="#edb984"/>
        <path id="Trazado_141264" data-name="Trazado 141264" d="M179.079,280.773l16.609-63.792L165.04,220.3l3.44,62.914Z" transform="translate(-14.274 -18.766)" fill="#e79b69"/>
        <path id="Trazado_141265" data-name="Trazado 141265" d="M152.226,263.161l36.93-.355,7.016-41.357,7.016-3.323-4.061-39.141-49.85,9.6Z" transform="translate(-12.91 -15.48)" fill="#e8dec5"/>
        <path id="Trazado_141266" data-name="Trazado 141266" d="M158.046,251.359c.1-25.084,19.109-40.48,46.113-49.754l-5.126-22.62-50.819,9.6,3.919,74.576,7-.067a60.876,60.876,0,0,1-1.084-11.735" transform="translate(-12.819 -15.48)" fill="#d8caa9"/>
        <path id="Trazado_141267" data-name="Trazado 141267" d="M146.671,190.4c17.724,2.954,61.3-3.323,76.436-9.97,0,0,0-71.636-31.017-90.838s-46.927,22.112-47.265,45.788c-.369,25.849,1.846,55.02,1.846,55.02" transform="translate(-12.522 -7.321)" fill="#c44b4b"/>
        <path id="Trazado_141268" data-name="Trazado 141268" d="M219.406,162.092l-20.745-10.837-1.687,5.021,1.2,13.831,19.171-2.808Z" transform="translate(-17.036 -13.082)" fill="#b23939"/>
        <path id="Trazado_141269" data-name="Trazado 141269" d="M161.371,92.764c10.789,16.9,33.893,27.016,36.584,27.427A76.742,76.742,0,0,0,199.113,93.9a35.757,35.757,0,0,0-5.588-4.309c-13.663-8.458-24.394-5.17-32.154,3.175" transform="translate(-13.957 -7.321)" fill="#b23939"/>
        <path id="Trazado_141270" data-name="Trazado 141270" d="M186.77,190.748c.144-6.218-10.083-53.634-23.666-79.724-.734-1.41-9.478-5.633-10.909-4.676a78.16,78.16,0,0,0-7.369,30.893c-.369,25.849,1.846,55.02,1.846,55.02,9.042,1.507,24.809.608,40.1-1.513" transform="translate(-12.522 -9.186)" fill="#b23939"/>
        <path id="Trazado_141271" data-name="Trazado 141271" d="M204.95,152.779l-.751-.718c-.228-.217-22.774-21.984-42.655-58.734-.284-.526.524-1.3.757-.867,17.81,33.045,37.757,53.927,41.872,58.067.853-6.959,4.977-47.862-12.289-65.639l.787-.883c19.32,19.894,12.5,67.3,12.429,67.756Z" transform="translate(-13.966 -7.265)" fill="#b23939"/>
        <path id="Trazado_141272" data-name="Trazado 141272" d="M207.82,150.173l-.8-.692c-.244-.21-24.283-21.211-45.472-56.786-.3-.5.549-1.244.792-.834,18.936,31.88,40.2,52.054,44.589,56.051.581-7.106,2.97-46.915-14.6-63.249l.755-.811c19.639,18.255,14.9,64.8,14.851,65.27Z" transform="translate(-13.966 -7.252)" fill="#594b4b"/>
        <path id="Trazado_141273" data-name="Trazado 141273" d="M156.187,180.248c-10.8-3.06-16.914-23.54-11.929-32.125s19.109-2.77,19.109-2.77l4.154,14.125Z" transform="translate(-12.324 -12.405)" fill="#e79b69"/>
        <path id="Trazado_141274" data-name="Trazado 141274" d="M160.625,180.52c-13.377-2.948-8.7-28.1,1.892-25.793S202.5,170.849,202.5,170.849l-.45,7.587s-22.554,6.242-41.428,2.084" transform="translate(-13.182 -13.369)" fill="#edb984"/>
        <path id="Trazado_141275" data-name="Trazado 141275" d="M170.217,177.145c-8.731-1.851-4.333-14.026,1.78-19.35a47.968,47.968,0,0,0-9.59-3.068c-10.589-2.309-17.127,24.306-3.749,27.254,18.873,4.158,43.284-3.544,43.284-3.544s-21.719.83-31.725-1.291" transform="translate(-13.072 -13.37)" fill="#e79b69"/>
        <path id="Trazado_141276" data-name="Trazado 141276" d="M159.506,62.545c-5.793,30.5,36.734,49.926,40.493,50.5,0,0,11.042-38.832-16.052-59.792-26.131-20.215-24.441,9.292-24.441,9.292" transform="translate(-13.748 -3.993)" fill="#eddccc"/>
        <path id="Trazado_141277" data-name="Trazado 141277" d="M172.241,72.129a13.3,13.3,0,0,0,7.332,6.3c6.21,2.4,15.071.513,17.017-3.121,2.952-5.512-7.836-21.825-13.347-22.175s-17.088,7.89-11,19" transform="translate(-14.748 -4.594)" fill="#edb984"/>
        <path id="Trazado_141278" data-name="Trazado 141278" d="M175.4,83.576c-18.832.554-21.907-14.66-21.907-14.66l8.89-11.1Z" transform="translate(-13.275 -5.001)" fill="#eddccc"/>
        <path id="Trazado_141279" data-name="Trazado 141279" d="M182.606,48.451,153.5,67.406s-2.353-20.217,11.217-26.31,17.885,7.355,17.885,7.355" transform="translate(-13.263 -3.417)" fill="#c92749"/>
        <path id="Trazado_141280" data-name="Trazado 141280" d="M166.445,40.766a8.08,8.08,0,0,0-2.416,5.593c0,4.137,3.547,7.685,8.6,9.195l10.9-7.1s-4.149-12.9-17.085-7.685" transform="translate(-14.186 -3.418)" fill="#db334f"/>
        <path id="Trazado_141281" data-name="Trazado 141281" d="M157.729,64.753c23.871-23.7,34.2-27.679,39.508-26.853s-9.545,17.452-9.545,17.452c-7.547-2.977-16.592,1.626-29.962,9.4" transform="translate(-13.642 -3.269)" fill="#594b4b"/>
        <path id="Trazado_141282" data-name="Trazado 141282" d="M157.089,98.2c-7.314,5.273-19.94,31.294-19.94,56.773l34.342-2.769c.7-11.45-7.2-59.2-14.4-54" transform="translate(-11.862 -8.46)" fill="#c44b4b"/>
        <path id="Trazado_141283" data-name="Trazado 141283" d="M146.066,128.141c1.087-11.661,4.6-21.8,9.184-28.088-7.406,7.767-18.1,31.666-18.1,55.119l11.437-.923c-2.422-6.862-3.453-16.1-2.52-26.108" transform="translate(-11.862 -8.653)" fill="#b23939"/>
        <path id="Trazado_141284" data-name="Trazado 141284" d="M218.025,147.777,199.2,149.939l1.847,14.512,18.824-2.161Z" transform="translate(-17.228 -12.781)" fill="#594b4b"/>
        <path id="Trazado_141285" data-name="Trazado 141285" d="M213.893,324.4H203.138s.26-3.056,1.636-3.913c2.8-1.744,9.119,3.913,9.119,3.913" transform="translate(-17.569 -27.69)" fill="#eae3d3"/>
        <path id="Trazado_141286" data-name="Trazado 141286" d="M166.253,324.4h6.923s-.79-3.056-1.851-3.913c-2.158-1.744-5.073,3.913-5.073,3.913" transform="translate(-14.379 -27.69)" fill="#eae3d3"/>
        <path id="Trazado_141287" data-name="Trazado 141287" d="M167.492,71.773c-1.476-1.887-3.633-2.667-4.818-1.74s-.948,3.207.528,5.1,3.633,2.667,4.818,1.74.948-3.208-.528-5.1" transform="translate(-14.004 -6.023)" fill="#edb984"/>
        <path id="Trazado_141288" data-name="Trazado 141288" d="M167,72.586c-1.034-1.323-2.546-1.869-3.376-1.22s-.665,2.248.37,3.571,2.546,1.869,3.376,1.22.664-2.248-.37-3.571" transform="translate(-14.106 -6.149)" fill="#d27558"/>
        <path id="Trazado_141289" data-name="Trazado 141289" d="M167.8,74.414c-.662-.846-1.627-1.2-2.159-.779s-.423,1.438.237,2.284,1.628,1.2,2.158.78.426-1.439-.236-2.285" transform="translate(-14.297 -6.353)" fill="#edb984"/>
        <path id="Trazado_141290" data-name="Trazado 141290" d="M218.827,147.73l-14.852,1.72,1.457,14.556,14.852-1.72Z" transform="translate(-17.641 -12.777)" fill="#6b5656"/>
        <path id="Trazado_141291" data-name="Trazado 141291" d="M219,147.506l-15.021,1.925.44,4.395,14.877-1.469Z" transform="translate(-17.641 -12.757)" fill="#b5a599"/>
        <path id="Trazado_141292" data-name="Trazado 141292" d="M217.445,155.706c-.238-2.9-2.047-5.112-4.041-4.948s-3.419,2.644-3.181,5.54,2.047,5.111,4.041,4.948,3.418-2.645,3.181-5.54" transform="translate(-18.179 -13.038)" fill="#594b4b"/>
        <path id="Trazado_141293" data-name="Trazado 141293" d="M216.261,159.559l-2.342.327.6,2.123,2.342-.327Z" transform="translate(-18.501 -13.8)" fill="#594b4b"/>
        <path id="Trazado_141294" data-name="Trazado 141294" d="M215.853,150.338l-2.389.442.6,2.123,2.389-.442Z" transform="translate(-18.462 -13.002)" fill="#594b4b"/>
        <path id="Trazado_141295" data-name="Trazado 141295" d="M219.971,155.3c-.238-2.9-2.047-5.112-4.041-4.948s-3.419,2.645-3.181,5.541,2.047,5.111,4.041,4.948,3.418-2.645,3.181-5.54" transform="translate(-18.398 -13.003)" fill="#7c6565"/>
        <path id="Trazado_141296" data-name="Trazado 141296" d="M218.607,155.634c-.138-1.687-1.192-2.978-2.354-2.882s-1.991,1.54-1.854,3.227,1.193,2.977,2.355,2.882,1.991-1.54,1.853-3.227" transform="translate(-18.542 -13.211)" fill="#594b4b"/>
        <path id="Trazado_141297" data-name="Trazado 141297" d="M217.856,155.894c-.106-1.289-.911-2.276-1.8-2.2s-1.522,1.177-1.416,2.466.912,2.276,1.8,2.2,1.522-1.177,1.416-2.466" transform="translate(-18.563 -13.292)" fill="#b5a599"/>
        <path id="Trazado_141298" data-name="Trazado 141298" d="M207.263,150.613l-2.319.416v1.211l2.561-.242Z" transform="translate(-17.725 -13.026)" fill="#594b4b"/>
        <path id="Trazado_141299" data-name="Trazado 141299" d="M212.992,168.372c-1.716-.674-10.084-.235-14.727.435l-.756,10.568c7.542,2.342,15.9-1.064,16.039-2.671s1.16-7.658-.555-8.332" transform="translate(-17.082 -14.533)" fill="#edb984"/>
        <path id="Trazado_141300" data-name="Trazado 141300" d="M207.358,160.388c-.7.212-3.377,4.581-9.907,7.664l6.216,2.325c1.784-.848,6.469-7.008,6.469-8.256,0-1.391-1.758-2.043-2.778-1.733" transform="translate(-17.077 -13.865)" fill="#edb984"/>
        <path id="Trazado_141301" data-name="Trazado 141301" d="M218.817,164.376a81.018,81.018,0,0,0-11.147,4.089l3.6,2.656s8.435-3.511,9-4.554a1.559,1.559,0,0,0-1.456-2.191" transform="translate(-17.961 -14.216)" fill="#edb984"/>
        <path id="Trazado_141302" data-name="Trazado 141302" d="M222.535,169.817c-.641-.316-6.759,1.18-12.425,2.668l3.291,3.067s9.1-2.181,9.828-3.106a1.94,1.94,0,0,0-.7-2.629" transform="translate(-18.172 -14.683)" fill="#edb984"/>
        <path id="Trazado_141303" data-name="Trazado 141303" d="M204.27,180.671c7.627,1.429,17.291-2.556,17.684-3.267s.757-2.742-.46-2.594-6.969,1.976-8.354,1.69-9.556-2.888-9.689-2.724.819,6.9.819,6.9" transform="translate(-17.595 -15.029)" fill="#edb984"/>
        <path id="Trazado_141304" data-name="Trazado 141304" d="M248.744,75.821c-1.47,1.113-5.456,8.484-7.3,12.8l6.438,7.709c5.93-5.217,7.177-15.48,5.881-16.44s-3.544-5.176-5.014-4.064" transform="translate(-20.882 -6.542)" fill="#edb984"/>
        <path id="Trazado_141305" data-name="Trazado 141305" d="M246.786,77.513c-1.137.861-4.223,6.568-5.654,9.905l2.05,1.357a4.74,4.74,0,0,0,7.245-2.879c.6-2.681.814-4.811.24-5.236-1-.743-2.744-4.008-3.882-3.146" transform="translate(-20.855 -6.692)" fill="#e79b69"/>
        <path id="Trazado_141306" data-name="Trazado 141306" d="M236.683,73.479c-.147.948,3.913,7.747,3.845,15.469l5.143-3.829c.1-1.884-3.476-10.82-4.929-12.2-1.783-1.7-3.84-.839-4.059.564" transform="translate(-20.47 -6.225)" fill="#edb984"/>
        <path id="Trazado_141307" data-name="Trazado 141307" d="M246.982,66.97a80.914,80.914,0,0,0,1.113,11.808l3.487-2.8s-1.245-9.041-2.11-9.853a1.56,1.56,0,0,0-2.489.85" transform="translate(-21.36 -5.688)" fill="#edb984"/>
        <path id="Trazado_141308" data-name="Trazado 141308" d="M247.6,60.832l-2.6-1.077A2.215,2.215,0,0,0,241.93,61.8l-.017,19.3a2.215,2.215,0,0,0,1.368,2.049l2.605,1.076a2.214,2.214,0,0,0,3.06-2.044l.017-19.3a2.214,2.214,0,0,0-1.368-2.049" transform="translate(-20.922 -5.153)" fill="#e8dec5"/>
        <path id="Trazado_141309" data-name="Trazado 141309" d="M246.282,60.529l-2.605-1.077a2.214,2.214,0,0,0-3.06,2.045l-.017,19.3a2.215,2.215,0,0,0,1.368,2.049l2.6,1.077a2.215,2.215,0,0,0,3.061-2.045l.017-19.3a2.215,2.215,0,0,0-1.368-2.049" transform="translate(-20.809 -5.127)" fill="#f2eada"/>
        <path id="Trazado_141310" data-name="Trazado 141310" d="M245.55,63.554l-1.981-.819a1.685,1.685,0,0,0-2.328,1.556l-.014,14.676a1.684,1.684,0,0,0,1.041,1.558l1.98.819a1.685,1.685,0,0,0,2.329-1.556l.013-14.676a1.684,1.684,0,0,0-1.04-1.558" transform="translate(-20.863 -5.415)" fill="#99c0dd"/>
        <path id="Trazado_141311" data-name="Trazado 141311" d="M245.1,75.883c2.213-1.669,5.88-1.989,7.017-.608a12,12,0,0,1,2.2,5.106c-.009.889-2.865,2.7-3.2,2.315s-.735-4.024-1.537-4.274-2.873,1.072-3.675.685-1.4-2.769-.8-3.223" transform="translate(-21.177 -6.435)" fill="#edb984"/>
        <path id="Trazado_141312" data-name="Trazado 141312" d="M244.549,82.891c2.236-1.988,5.944-2.837,7.093-1.621a10.215,10.215,0,0,1,2.22,4.79c-.009.89-2.9,2.1-3.233,1.763s-.743-2.9-1.554-3.04-2.9,1.486-3.715,1.216-1.418-2.566-.81-3.107" transform="translate(-21.129 -6.98)" fill="#edb984"/>
        <path id="Trazado_141313" data-name="Trazado 141313" d="M186.121,73.166c-.314-1.617-1.325-2.831-2.256-2.71s-1.434,1.527-1.12,3.144,1.325,2.83,2.256,2.71,1.434-1.527,1.12-3.144" transform="translate(-15.797 -6.093)" fill="#5a4949"/>
        <path id="Trazado_141314" data-name="Trazado 141314" d="M182.936,63.861l-5.6,2.334a.686.686,0,0,0-.324,1.082l1.1,1.514a1.213,1.213,0,0,0,1.382.372l5.6-2.334a.686.686,0,0,0,.323-1.082l-1.1-1.514a1.211,1.211,0,0,0-1.382-.372" transform="translate(-15.296 -5.516)" fill="#eddccc"/>
        <path id="Trazado_141315" data-name="Trazado 141315" d="M197.664,70.328c-.364-1.608-1.41-2.788-2.336-2.635s-1.381,1.579-1.018,3.187,1.41,2.789,2.337,2.636,1.381-1.579,1.017-3.188" transform="translate(-16.795 -5.853)" fill="#5a4949"/>
        <path id="Trazado_141316" data-name="Trazado 141316" d="M196.062,61.684l-5.862.046a.88.88,0,0,0-.834.981l.121,2.03a1,1,0,0,0,.952.967l5.861-.046a.88.88,0,0,0,.834-.981l-.121-2.03a1,1,0,0,0-.951-.967" transform="translate(-16.378 -5.335)" fill="#eddccc"/>
        <path id="Trazado_141317" data-name="Trazado 141317" d="M186.005,83.835l-.8,1.576c.121.088,3.057,2.137,8.848.227l-.088-.684c-5.312,1.751-7.931-1.1-7.959-1.119" transform="translate(-16.018 -7.251)" fill="#d27558"/>
        <path id="Trazado_141318" data-name="Trazado 141318" d="M193.42,88.556c-.058-.452-1.048-.7-2.211-.548s-2.059.637-2,1.089,1.048.7,2.211.547,2.059-.637,2-1.088" transform="translate(-16.364 -7.608)" fill="#d27558"/>
        <rect id="Rectángulo_37580" data-name="Rectángulo 37580" width="6.145" height="3.97" transform="matrix(0.991, -0.134, 0.134, 0.991, 165.815, 68.308)" fill="#edb984"/>
        <rect id="Rectángulo_37581" data-name="Rectángulo 37581" width="4.804" height="4.52" transform="translate(177.072 65.594) rotate(-7.947)" fill="#edb984"/>
        <path id="Trazado_141319" data-name="Trazado 141319" d="M190.889,72.2c3.153,3.563,4.68,5.963,3.649,7.275-.643.819-1.977.993-3.091.981l.006.083s3.682.661,4.866-.617-1.114-3.807-5.431-7.723" transform="translate(-16.51 -6.245)" fill="#d27558"/>
        <path id="Trazado_141320" data-name="Trazado 141320" d="M123.121,183.291,119,184.642c.033.061.064.125.1.19,1.491,3.2-.412,10.158.648,10.82a2.391,2.391,0,0,0,3.242-1.485c.406-1.351,1.554-9.052.135-10.875" transform="translate(-10.292 -15.852)" fill="#edb984"/>
        <path id="Trazado_141321" data-name="Trazado 141321" d="M77.809,58.861c-4.531-2.881-19.044,1.786-32.414,10.426S25.344,89.942,29.876,92.824s18.559-4.463,31.928-13.1,20.537-17.98,16-20.861" transform="translate(-2.462 -5.017)" fill="#6b5b5b"/>
        <path id="Trazado_141322" data-name="Trazado 141322" d="M37.322,98.468c6.462-5.631,15.509-3.692,15.509-3.692l-15.14,14.032Z" transform="translate(-3.228 -8.169)" fill="#993451"/>
        <path id="Trazado_141323" data-name="Trazado 141323" d="M76.41,60.256c-4.348-2.745-18.325,1.78-31.217,10.105S25.832,90.225,30.18,92.97,48.048,88.627,60.94,80.3,80.759,63,76.41,60.256" transform="translate(-2.494 -5.142)" fill="#4f3b3b"/>
        <path id="Trazado_141324" data-name="Trazado 141324" d="M112.69,189.55l-3.215,122.7h.83l7.644-122.981s-5.119-5.1-5.26.283" transform="translate(-9.468 -16.18)" fill="#6b5b5b"/>
        <path id="Trazado_141325" data-name="Trazado 141325" d="M118.2,190.672c-1.923-.279-9.762-4.971-13.935-7.956l3.642-9.846c8.2,1.78,14.794,9.12,14.268,10.631s-2.053,7.45-3.976,7.171" transform="translate(-9.018 -14.951)" fill="#edb984"/>
        <path id="Trazado_141326" data-name="Trazado 141326" d="M109.71,195.226c-.581-.548-1.344-5.835-6.328-11.948l6.917,1.113c1.36,1.675,3.305,9.594,2.789,10.712-.575,1.245-2.528.925-3.378.123" transform="translate(-8.941 -15.851)" fill="#edb984"/>
        <path id="Trazado_141327" data-name="Trazado 141327" d="M63.9,186.1c-12.771-4.834-3.307-27.387,7.473-27.748,10.427-.349,37.863,12.668,37.863,12.668L102.909,191.5s-20.993,1.418-39.01-5.4" transform="translate(-4.996 -13.695)" fill="#af3f5f"/>
        <path id="Trazado_141328" data-name="Trazado 141328" d="M58.71,222.547c15.232-.554,40.975-10.186,40.975-10.186S96.929,98.754,56.5,94.555C41.015,112.081,39.151,135.03,58.71,222.547" transform="translate(-3.846 -8.178)" fill="#b54b66"/>
        <path id="Trazado_141329" data-name="Trazado 141329" d="M56.487,221.335c15.232-.554,40.974-10.186,40.974-10.186S94.706,97.541,54.281,93.343c-15.489,17.526-17.353,40.475,2.206,127.992" transform="translate(-3.653 -8.073)" fill="#993451"/>
        <path id="Trazado_141330" data-name="Trazado 141330" d="M51.766,189.975C53.13,225.318,63.132,267.4,75.128,311.041,83.14,268.551,92.89,212.7,88.975,173.123Z" transform="translate(-4.477 -14.973)" fill="#594b4b"/>
        <path id="Trazado_141331" data-name="Trazado 141331" d="M73,197.679l16.749-7.4c-.062-5.971-.333-11.72-.871-17.155L50.661,191.032c1.363,35.344,12.374,76.369,24.371,120.009l.481-2.557C70.358,269.3,71.377,226.315,73,197.679" transform="translate(-4.382 -14.973)" fill="#493a3a"/>
        <path id="Trazado_141332" data-name="Trazado 141332" d="M79.843,175.548l-50.4,11.632c1.578,33.634,15.988,82.543,28.249,124.07,4.124-30.481,9.407-68.7,12.411-97.58L79.013,211Z" transform="translate(-2.546 -15.183)" fill="#594b4b"/>
        <path id="Trazado_141333" data-name="Trazado 141333" d="M73.31,222.128l9.97-9.139-9.416,3.461-7.893,1.8Z" transform="translate(-5.706 -18.421)" fill="#493a3a"/>
        <path id="Trazado_141334" data-name="Trazado 141334" d="M49.379,236.615l14.263-7.2-.969-26.54,21-10.511-3.827-16.815-50.4,11.632C31,220.458,45.123,268.686,57.3,309.927c-3.761-22.065-7.917-73.312-7.917-73.312" transform="translate(-2.546 -15.183)" fill="#493a3a"/>
        <path id="Trazado_141335" data-name="Trazado 141335" d="M28.026,191.763c29.079,3.6,60.1-17.448,60.1-17.448s-3.6-62.589-26.31-76.713-35.726,17.725-38.5,29.357,4.708,64.8,4.708,64.8" transform="translate(-1.964 -8.135)" fill="#ffb048"/>
        <path id="Trazado_141336" data-name="Trazado 141336" d="M61.813,97.6c-22.71-14.124-35.726,17.724-38.5,29.356s4.708,64.806,4.708,64.806c15.3,1.895,31.14-3.038,42.714-8.137-3.134-35.315-14.809-71-22.682-79.562a37.181,37.181,0,0,0,19.293.738s15.811,28.6,20.388,69.767c.249-.163.384-.254.384-.254s-3.6-62.589-26.31-76.713" transform="translate(-1.964 -8.135)" fill="#ff8a3b"/>
        <path id="Trazado_141337" data-name="Trazado 141337" d="M59.453,97.7c-6.3-.046-12.092-.443-16.441-1.818l-.637-14.614,13.293.092Z" transform="translate(-3.665 -7.028)" fill="#d27558"/>
        <path id="Trazado_141338" data-name="Trazado 141338" d="M26.98,227.073c15.232-.554,40.974-10.186,40.974-10.186S61.321,109.649,35.565,98.848C20.077,116.374,7.42,139.556,26.98,227.073" transform="translate(-1.471 -8.549)" fill="#b54b66"/>
        <path id="Trazado_141339" data-name="Trazado 141339" d="M26.98,228.375a75.867,75.867,0,0,0,12.528-1.763c6.79-10.3,11.381-29.956,11.381-52.518,0-33.242-9.961-60.19-22.248-60.19a8.812,8.812,0,0,0-3.343.678c-9.443,17.954-13.178,47.307,1.681,113.793" transform="translate(-1.471 -9.851)" fill="#993451"/>
        <path id="Trazado_141340" data-name="Trazado 141340" d="M32.936,100.335C12.795,120.854.863,156.27.309,163.471s21.979,6.751,32.426-4.674c17.724-19.387.2-58.461.2-58.461" transform="translate(-0.026 -8.678)" fill="#b54b66"/>
        <path id="Trazado_141341" data-name="Trazado 141341" d="M17.78,163.968c-8.312-.679-8.547-16.68-2.552-34.518a80.531,80.531,0,0,1,3.551-8.8C7.3,139.332.716,159.926.309,165.227c-.555,7.2,21.979,6.751,32.426-4.674,4.251-4.651,6.46-10.438,7.384-16.543-6.2,11.61-16.038,20.473-22.339,19.958" transform="translate(-0.026 -10.434)" fill="#a53c5a"/>
        <path id="Trazado_141342" data-name="Trazado 141342" d="M79.883,171.761l-17.461-7.684-6.534,13.139,17.46,7.684Z" transform="translate(-4.834 -14.191)" fill="#6d5757"/>
        <path id="Trazado_141343" data-name="Trazado 141343" d="M70.236,168.771l-3.008-1.324L66.1,169.711l3.008,1.324Z" transform="translate(-5.717 -14.482)" fill="#846f6f"/>
        <path id="Trazado_141344" data-name="Trazado 141344" d="M65.9,165.6l-3.474-1.528-6.534,13.138,3.473,1.529Z" transform="translate(-4.834 -14.191)" fill="#5b4545"/>
        <path id="Trazado_141345" data-name="Trazado 141345" d="M73.549,179.227c1.42-2.673,1.171-5.456-.555-6.217s-4.276.789-5.7,3.461-1.17,5.456.555,6.217,4.276-.788,5.7-3.461" transform="translate(-5.741 -14.946)" fill="#493c3c"/>
        <path id="Trazado_141346" data-name="Trazado 141346" d="M74.8,178c1.088-2.468.571-5.086-1.156-5.847s-4.008.623-5.1,3.092-.571,5.086,1.156,5.847,4.008-.623,5.1-3.092" transform="translate(-5.879 -14.871)" fill="#5b4545"/>
        <path id="Trazado_141347" data-name="Trazado 141347" d="M76.816,178.6c1.088-2.469.571-5.087-1.156-5.848s-4.008.624-5.1,3.093-.571,5.086,1.156,5.847,4.008-.623,5.1-3.092" transform="translate(-6.054 -14.923)" fill="#846f6f"/>
        <path id="Trazado_141348" data-name="Trazado 141348" d="M76.079,178.456c.681-1.544.357-3.182-.723-3.658s-2.507.39-3.187,1.934-.357,3.182.723,3.658,2.507-.39,3.187-1.934" transform="translate(-6.211 -15.107)" fill="#5b4545"/>
        <path id="Trazado_141349" data-name="Trazado 141349" d="M75.488,178.069c.538-1.22.282-2.515-.571-2.891s-1.981.309-2.519,1.529-.282,2.515.571,2.891,1.981-.309,2.519-1.529" transform="translate(-6.237 -15.142)" fill="#aa8d8d"/>
        <path id="Trazado_141350" data-name="Trazado 141350" d="M61.811,177.973c-1.612-1.216-10.574-3.211-15.671-3.869l-3.9,10.932c7.272,4.688,17.088,3.548,17.712,1.894s3.476-7.741,1.863-8.957" transform="translate(-3.653 -15.058)" fill="#edb984"/>
        <path id="Trazado_141351" data-name="Trazado 141351" d="M58.311,168.076c-.8.018-4.911,3.842-12.708,5.177l5.876,4.281c2.132-.371,8.887-5.495,9.255-6.813.409-1.468-1.254-2.672-2.423-2.645" transform="translate(-3.944 -14.536)" fill="#edb984"/>
        <path id="Trazado_141352" data-name="Trazado 141352" d="M69.333,175.678a88.683,88.683,0,0,0-12.965,1.04l3.02,3.861s9.934-1.226,10.839-2.161a1.708,1.708,0,0,0-.893-2.74" transform="translate(-4.875 -15.192)" fill="#edb984"/>
        <path id="Trazado_141353" data-name="Trazado 141353" d="M71.7,182.475c-.584-.523-7.48-.741-13.9-.835l2.572,4.2s10.248.373,11.286-.389.623-2.456.039-2.979" transform="translate(-4.999 -15.71)" fill="#edb984"/>
        <path id="Trazado_141354" data-name="Trazado 141354" d="M49.2,188.293c7.63,3.749,19,2.383,19.623,1.749s1.606-2.672.278-2.873-7.937.037-9.314-.671-9.237-5.857-9.425-5.723-1.162,7.518-1.162,7.518" transform="translate(-4.255 -15.635)" fill="#edb984"/>
        <path id="Trazado_141355" data-name="Trazado 141355" d="M8.2,182.65C-4.932,177.5.794,155.247,11.28,155.2c10.142-.048,35.914,13.736,35.914,13.736l-2.385,21.128s-19.67-.775-36.6-7.411" transform="translate(-0.051 -13.423)" fill="#b54b66"/>
        <path id="Trazado_141356" data-name="Trazado 141356" d="M19.693,174.624c-7.614-2.983-8.98-14.018-8.493-21.51-10.061,1.052-17.079,24.875-4.244,29.9,16.936,6.637,37.8,6.863,37.8,6.863l1.066-9.445a91.505,91.505,0,0,1-26.131-5.813" transform="translate(0 -13.242)" fill="#a53c5a"/>
        <path id="Trazado_141357" data-name="Trazado 141357" d="M39.334,68.751c-1.164,14.354,8.124,26.4,17.539,29.54a29.722,29.722,0,0,0,17.725.185S68.32,68.935,63.151,63.95s-23.264-2.031-23.817,4.8" transform="translate(-3.393 -5.315)" fill="#eddccc"/>
        <path id="Trazado_141358" data-name="Trazado 141358" d="M50.762,69.717c.331,8.858,3.692,15,5.17,16.478s13.563-.555,13.747-3.325-2.208-15-5.347-16.292-13.639,1.305-13.57,3.139" transform="translate(-4.39 -5.728)" fill="#edb984"/>
        <path id="Trazado_141359" data-name="Trazado 141359" d="M45.363,78.578c-1.382-2.176-3.719-3.166-5.22-2.213s-1.6,3.491-.214,5.667,3.72,3.166,5.22,2.213,1.6-3.491.214-5.667" transform="translate(-3.369 -6.573)" fill="#edb984"/>
        <path id="Trazado_141360" data-name="Trazado 141360" d="M44.56,79.753c-.872-1.374-2.347-2-3.294-1.4s-1.007,2.2-.134,3.576,2.347,2,3.294,1.4,1.007-2.2.134-3.576" transform="translate(-3.504 -6.757)" fill="#d27558"/>
        <path id="Trazado_141361" data-name="Trazado 141361" d="M44.957,80.962c-.6-.948-1.621-1.381-2.275-.966s-.7,1.522-.093,2.47,1.621,1.381,2.275.966.7-1.521.093-2.47" transform="translate(-3.647 -6.905)" fill="#edb984"/>
        <path id="Trazado_141362" data-name="Trazado 141362" d="M36.511,75.611c-3.99-6.146-4.864-12.828-4.647-15.124.341-3.626,10.733-13,18.4-11.657,6.051,1.063,7.693,9.059,12.463,12.927Z" transform="translate(-2.753 -4.212)" fill="#6b5b5b"/>
        <path id="Trazado_141363" data-name="Trazado 141363" d="M45,61.2a19.892,19.892,0,0,1-4.033-9.884c-4.856,2.747-8.889,7.163-9.1,9.4-.216,2.3.658,8.978,4.648,15.124l15.983-8.445A20.229,20.229,0,0,1,45,61.2" transform="translate(-2.753 -4.438)" fill="#5b4b4b"/>
        <path id="Trazado_141364" data-name="Trazado 141364" d="M47.049,72.588A88.957,88.957,0,0,1,78.475,59.419a3.111,3.111,0,0,0-.67-.568c-4.531-2.882-19.712.731-33.084,9.37C32.264,76.27,26.289,88.3,29.105,92.1c3.239-5.3,9.288-13.649,17.944-19.507" transform="translate(-2.458 -5.005)" fill="#6b5b5b"/>
        <path id="Trazado_141365" data-name="Trazado 141365" d="M39.706,75.732c-.392-.93.106-2.171,1.282-3.581-9.878,7.827-14.4,17.791-11.882,21.179A68.8,68.8,0,0,1,42.561,77.258c-1.5-.2-2.509-.7-2.856-1.526" transform="translate(-2.458 -6.24)" fill="#5b4b4b"/>
        <path id="Trazado_141366" data-name="Trazado 141366" d="M85.265,324.4H74.51s.26-3.056,1.636-3.913c2.8-1.744,9.119,3.913,9.119,3.913" transform="translate(-6.444 -27.69)" fill="#eae3d3"/>
        <path id="Trazado_141367" data-name="Trazado 141367" d="M56.269,324.4h6.924s-.79-3.056-1.851-3.913c-2.158-1.744-5.073,3.913-5.073,3.913" transform="translate(-4.867 -27.69)" fill="#eae3d3"/>
        <path id="Trazado_141368" data-name="Trazado 141368" d="M44.762,182a1.8,1.8,0,1,0-1.8,1.8,1.8,1.8,0,0,0,1.8-1.8" transform="translate(-3.56 -15.585)" fill="#d8caa9"/>
        <path id="Trazado_141369" data-name="Trazado 141369" d="M106.86,181.037a1.8,1.8,0,1,0-1.8,1.8,1.8,1.8,0,0,0,1.8-1.8" transform="translate(-8.931 -15.502)" fill="#d8caa9"/>
        <path id="Trazado_141370" data-name="Trazado 141370" d="M120.385,187.283l-4.121,1.351c.034.063.065.126.1.191,1.492,3.2-.411,10.157.649,10.82a2.392,2.392,0,0,0,3.242-1.486c.406-1.351,1.554-9.05.135-10.875" transform="translate(-10.055 -16.198)" fill="#edb984"/>
        <path id="Trazado_141371" data-name="Trazado 141371" d="M60.7,79.076c-.239-1.23-1.009-2.155-1.718-2.064s-1.091,1.163-.852,2.394,1.009,2.154,1.718,2.064,1.092-1.163.852-2.394" transform="translate(-5.021 -6.66)" fill="#5a4949"/>
        <path id="Trazado_141372" data-name="Trazado 141372" d="M57.744,71.55l-4.267,1.844a.741.741,0,0,0-.372.961l.579,1.419a.7.7,0,0,0,.928.4l4.266-1.844a.739.739,0,0,0,.372-.961l-.578-1.419a.705.705,0,0,0-.928-.4" transform="translate(-4.588 -6.183)" fill="#eddccc"/>
        <path id="Trazado_141373" data-name="Trazado 141373" d="M69.487,76.916c-.277-1.224-1.073-2.123-1.779-2.007s-1.051,1.2-.775,2.427,1.074,2.123,1.779,2.008,1.052-1.2.775-2.428" transform="translate(-5.781 -6.478)" fill="#5a4949"/>
        <path id="Trazado_141374" data-name="Trazado 141374" d="M69.128,71.068l-4.387-.82a.671.671,0,0,0-.766.612l-.2,1.535a.759.759,0,0,0,.57.862l4.387.82a.669.669,0,0,0,.766-.612L69.7,71.93a.76.76,0,0,0-.57-.861" transform="translate(-5.515 -6.075)" fill="#eddccc"/>
        <path id="Trazado_141375" data-name="Trazado 141375" d="M64.093,78.894c2.4,2.712,3.563,4.54,2.778,5.539a2.981,2.981,0,0,1-2.353.747l.005.063s2.8.5,3.7-.47-.848-2.9-4.135-5.879" transform="translate(-5.543 -6.823)" fill="#d27558"/>
        <path id="Trazado_141376" data-name="Trazado 141376" d="M58.85,92.034l-.819-1.015c.124-.1,3.123-2.479,9.039-2.533l-.09.555c-5.426.051-8.1,2.97-8.13,2.993" transform="translate(-5.019 -7.653)" fill="#d27558"/>
        <path id="Trazado_141377" data-name="Trazado 141377" d="M66.02,91.029c-.044-.344-.8-.531-1.683-.417s-1.568.484-1.524.829.8.53,1.684.417,1.567-.485,1.523-.829" transform="translate(-5.432 -7.834)" fill="#d27558"/>
        <path id="Trazado_141378" data-name="Trazado 141378" d="M397.023,65.522c1.789,1.206,6.922,9.564,9.36,14.486L396.7,87.753c-7.265-5.715-7.427-15.981-6.776-17.753,1.215-3.31,5.312-5.685,7.1-4.478" transform="translate(-33.702 -5.639)" fill="#edb984"/>
        <path id="Trazado_141379" data-name="Trazado 141379" d="M410.744,66.089c.139.842-3.058,5.919-2.911,14.37l-5.661-5.319c-.034-2.312,4-10.42,5.315-11.068,1.46-.721,3.054.786,3.258,2.018" transform="translate(-34.783 -5.525)" fill="#edb984"/>
        <path id="Trazado_141380" data-name="Trazado 141380" d="M402.01,54.429a94.974,94.974,0,0,1,.74,13.878l-4.518-2.649s-.111-10.694.751-11.785a1.824,1.824,0,0,1,3.027.556" transform="translate(-34.442 -4.608)" fill="#edb984"/>
        <path id="Trazado_141381" data-name="Trazado 141381" d="M395.042,56.752a94.9,94.9,0,0,1,4.452,13.166l-5.065-1.334s-2.99-10.269-2.454-11.551a1.825,1.825,0,0,1,3.066-.28" transform="translate(-33.895 -4.847)" fill="#edb984"/>
        <path id="Trazado_141382" data-name="Trazado 141382" d="M606.53,35c-1.779-.622-10.317.151-15.038,1.015l-.364,10.832c7.8,2.1,16.208-1.7,16.292-3.351s.89-7.874-.891-8.5" transform="translate(-51.125 -3.008)" fill="#edb984"/>
        <path id="Trazado_141383" data-name="Trazado 141383" d="M600.448,27.066c-.705.244-3.276,4.813-9.831,8.218l6.444,2.137c1.791-.936,6.342-7.414,6.294-8.691-.054-1.422-1.875-2.02-2.907-1.664" transform="translate(-51.081 -2.332)" fill="#edb984"/>
        <path id="Trazado_141384" data-name="Trazado 141384" d="M612.3,30.7a83.1,83.1,0,0,0-11.238,4.61l3.785,2.577s8.488-3.915,9.026-5A1.6,1.6,0,0,0,612.3,30.7" transform="translate(-51.985 -2.654)" fill="#edb984"/>
        <path id="Trazado_141385" data-name="Trazado 141385" d="M616.309,36.112c-.668-.3-6.863,1.468-12.6,3.208l3.482,3.007s9.22-2.582,9.927-3.555a1.984,1.984,0,0,0-.812-2.66" transform="translate(-52.214 -3.12)" fill="#edb984"/>
        <path id="Trazado_141386" data-name="Trazado 141386" d="M598.049,47.96c7.852,1.166,17.577-3.282,17.951-4.023s.669-2.833-.57-2.635-7.049,2.29-8.476,2.051-9.881-2.583-10.009-2.41,1.1,7.017,1.1,7.017" transform="translate(-51.627 -3.54)" fill="#edb984"/>
        <path id="Trazado_141387" data-name="Trazado 141387" d="M527.271,167.965c.093-2.007-.916-3.684-2.255-3.746s-2.5,1.515-2.592,3.522.917,3.685,2.255,3.746,2.5-1.515,2.591-3.522" transform="translate(-45.183 -14.203)" fill="#594b4b"/>
        <path id="Trazado_141388" data-name="Trazado 141388" d="M449.488,25.217a7.33,7.33,0,0,1-4.154-9.139s-2.493-5.263-.831-8.032,6.647-3.323,6.647-3.323A4.42,4.42,0,0,1,455.581.015c4.707-.277,8.585,3.323,8.585,3.323s4.985-3.6,8.032.555.277,11.354.277,11.354,3.877,0,3.323,5.816a14.638,14.638,0,0,1-4.431,9.139l.935,8.45Z" transform="translate(-38.395 0)" fill="#663423"/>
        <path id="Trazado_141389" data-name="Trazado 141389" d="M409.188,133.141c0,8.493,11.078,18.463,27.694,11.816l6.754-81.884c-20.047,23.171-34.448,61.574-34.448,70.067" transform="translate(-35.39 -5.455)" fill="#ffb048"/>
        <path id="Trazado_141390" data-name="Trazado 141390" d="M436.392,92.456c-8.31,14.572-18.05,25.938-23.686,28.12-2.266,6.518-3.518,11.609-3.518,14.1,0,8.493,11.078,18.463,27.695,11.816l5.412-65.624c-1.628,3.649-3.607,7.557-5.9,11.583" transform="translate(-35.39 -6.995)" fill="#ff9a3e"/>
        <path id="Trazado_141391" data-name="Trazado 141391" d="M407.222,137.121c1.135,7.081,4.93,11.573,11.258,12.088s18.4-27.27,7.378-40.935-21.543,10.707-18.636,28.847" transform="translate(-35.177 -9.019)" fill="#db334f"/>
        <path id="Trazado_141392" data-name="Trazado 141392" d="M391.807,82.221c2.215,32.864,13.4,56.488,19.566,60.6s18.457-17.857,16.621-32.532c-.738-5.909-24-33.972-24-33.972Z" transform="translate(-33.886 -6.6)" fill="#edb984"/>
        <path id="Trazado_141393" data-name="Trazado 141393" d="M428,110.871c-.206-1.642-2.153-5-4.856-8.986,2.456,11.525-6.282,20.824-9.73,19.418-4.817-1.965-17.032-17.032-21.58-38.213,2.261,32.717,13.4,56.218,19.545,60.315,6.163,4.108,18.456-17.858,16.621-32.533" transform="translate(-33.888 -7.186)" fill="#e79b69"/>
        <path id="Trazado_141394" data-name="Trazado 141394" d="M424.548,123.171S436,133.879,443.011,134.618l1.954-71.546c-18.94,27.974-20.417,60.1-20.417,60.1" transform="translate(-36.718 -5.455)" fill="#db334f"/>
        <path id="Trazado_141395" data-name="Trazado 141395" d="M426.367,122.969s11.447,10.708,18.463,11.447l1.954-71.546c-18.94,27.974-20.417,60.1-20.417,60.1" transform="translate(-36.875 -5.437)" fill="#af1932"/>
        <path id="Trazado_141396" data-name="Trazado 141396" d="M434.873,160.295c1.485,51.3,12.723,148.5,12.723,148.5l26.411-99.359,3.131-2.372L532.9,308.792l-25.11-155.273Z" transform="translate(-37.611 -13.277)" fill="#6b5b5b"/>
        <path id="Trazado_141397" data-name="Trazado 141397" d="M492.739,175.028l38.88,125.867L507.786,153.518l-72.913,6.775c.14,4.827.366,10.061.661,15.581a407.183,407.183,0,0,0,57.2-.847" transform="translate(-37.611 -13.277)" fill="#605151"/>
        <path id="Trazado_141398" data-name="Trazado 141398" d="M479.03,212.923l4.868-6.731c-6.438,3.228-11.516,3.029-15.929,1.155l-19.493,103.39c.192,1.691.3,2.61.3,2.61l26.41-99.358,3.131-2.372Z" transform="translate(-38.788 -17.833)" fill="#605151"/>
        <path id="Trazado_141399" data-name="Trazado 141399" d="M433.48,159.326c22.155,6.278,76.4-9.07,76.4-9.07s-12.555-90.469-18.094-95.268S452.274,48.34,442.3,66.8s-8.824,92.522-8.824,92.522" transform="translate(-37.487 -4.475)" fill="#ffb048"/>
        <path id="Trazado_141400" data-name="Trazado 141400" d="M484.956,51.111c-1.756-2-10.951-1.369-20.54,1.4s-15.939,6.63-14.183,8.625,10.952,1.369,20.54-1.4,15.939-6.63,14.183-8.626" transform="translate(-38.914 -4.32)" fill="#ff953e"/>
        <path id="Trazado_141401" data-name="Trazado 141401" d="M494.909,54.987c-2.381-2.063-10.015-3.575-18.735-3.169a19.888,19.888,0,0,0-1.207,2.38c-8.048,19.307-4.706,89.042-4.706,89.042,9.2,2.646,28.756,9.325,42.245,7.154.321-.088.5-.138.5-.138s-12.555-90.468-18.094-95.268" transform="translate(-40.612 -4.476)" fill="#ff953e"/>
        <path id="Trazado_141402" data-name="Trazado 141402" d="M479.807,49.628c-5.539,31.386-5.539,67.943-5.539,67.943s22.155,13.662,40.618,15.14c0,0-11.222-70.828-17.129-77.474s-17.951-5.609-17.951-5.609" transform="translate(-41.018 -4.287)" fill="#db334f"/>
        <path id="Trazado_141403" data-name="Trazado 141403" d="M488.52,50.158c-4.71,11.964-3.707,34.235,3.579,58.177a157.922,157.922,0,0,0,7.974,20.892,67.067,67.067,0,0,0,15.8,3.535s-11.222-70.827-17.129-77.474c-2.7-3.041-6.691-4.472-10.221-5.13" transform="translate(-42.002 -4.338)" fill="#c62246"/>
        <path id="Trazado_141404" data-name="Trazado 141404" d="M511.119,101.6c-17.971-11.1-23.361-40.934-16.05-50.018l43.5-7.609,15.14,25.848Z" transform="translate(-42.544 -3.803)" fill="#ffb048"/>
        <path id="Trazado_141405" data-name="Trazado 141405" d="M524.026,66.2c-12.574,2.638-24.182,2.963-32.015,1.331.8,12.335,7.176,27.979,19.117,35.355l42.587-31.778-7.2-12.289A99.921,99.921,0,0,1,524.026,66.2" transform="translate(-42.553 -5.087)" fill="#ff953e"/>
        <path id="Trazado_141406" data-name="Trazado 141406" d="M455.512,54.472l-.874-14.142,14.784-8.076,6.792,16.4c-8.006,8.36-18.316,10.738-20.7,5.815" transform="translate(-39.32 -2.79)" fill="#d27558"/>
        <path id="Trazado_141407" data-name="Trazado 141407" d="M449.847,84.675h-10.8l-.139,9.185h10.8Z" transform="translate(-37.96 -7.323)" fill="#ff953e"/>
        <path id="Trazado_141408" data-name="Trazado 141408" d="M445.352,82.325h-1.715l-.132,1.639h1.715Z" transform="translate(-38.358 -7.12)" fill="#e8dec5"/>
        <path id="Trazado_141409" data-name="Trazado 141409" d="M449.63,84.3h-10.8L438,91.958h10.8Z" transform="translate(-37.881 -7.291)" fill="#e8dec5"/>
        <path id="Trazado_141410" data-name="Trazado 141410" d="M511.527,161.308a139.351,139.351,0,0,1-39.653-32.673c-15.789-19.073-24.551-40.755-26.083-64.51-.1-1.516,2.055-3.158,2.087-2.429,2.744,61.237,54.285,92.053,64.7,97.661Z" transform="translate(-38.555 -5.321)" fill="#594b4b"/>
        <path id="Trazado_141411" data-name="Trazado 141411" d="M520.316,160.157l-14.947-10.044-2.1,31.41,17.089-8.816a6.965,6.965,0,0,0,3.62-4.279,6.656,6.656,0,0,0-.267-4.238,8.853,8.853,0,0,0-3.4-4.033" transform="translate(-43.527 -12.983)" fill="#db334f"/>
        <path id="Trazado_141412" data-name="Trazado 141412" d="M510.564,165.888c.424-9.167-4.187-16.828-10.3-17.111s-11.41,6.92-11.834,16.087,4.187,16.829,10.3,17.111,11.41-6.92,11.834-16.087" transform="translate(-42.241 -12.867)" fill="#e8dec5"/>
        <path id="Trazado_141413" data-name="Trazado 141413" d="M509.477,166.885c.161-3.479-1.589-6.386-3.908-6.493s-4.33,2.625-4.491,6.105,1.589,6.385,3.908,6.493,4.33-2.626,4.491-6.1" transform="translate(-43.336 -13.872)" fill="#db334f"/>
        <path id="Trazado_141414" data-name="Trazado 141414" d="M503.705,169.742c-.328-.835-.919-1.287-1.32-1.01s-.46,1.179-.132,2.014.92,1.287,1.321,1.01.459-1.179.132-2.014" transform="translate(-43.42 -14.586)" fill="#ff9797"/>
        <path id="Trazado_141415" data-name="Trazado 141415" d="M504.889,164.616c.406-1.456.1-2.655-.676-2.677s-1.741,1.14-2.148,2.6-.1,2.655.676,2.677,1.741-1.14,2.148-2.6" transform="translate(-43.407 -14.006)" fill="#ff9797"/>
        <path id="Trazado_141416" data-name="Trazado 141416" d="M520.8,173.28l-5.017.787,1.525,9.711a2.539,2.539,0,1,0,5.017-.787Z" transform="translate(-44.609 -14.987)" fill="#db334f"/>
        <path id="Trazado_141417" data-name="Trazado 141417" d="M447.863,18.571c-1.966,8.272.145,24.141,3.287,31.539,2.5.265,18.154-2.835,18.511-7.43s-1.859-24.109-5.273-26.229-15.927-.4-16.525,2.119" transform="translate(-38.669 -1.34)" fill="#edb984"/>
        <path id="Trazado_141418" data-name="Trazado 141418" d="M438.09,324.427h11.519s.262-2.883-1.061-3.692c-2.689-1.646-10.458,3.692-10.458,3.692" transform="translate(-37.889 -27.712)" fill="#eae3d3"/>
        <path id="Trazado_141419" data-name="Trazado 141419" d="M549.008,324.427H540.07s-.2-2.883.822-3.692c2.087-1.646,8.116,3.692,8.116,3.692" transform="translate(-46.708 -27.712)" fill="#eae3d3"/>
        <path id="Trazado_141420" data-name="Trazado 141420" d="M466.132,175.686h-4.846l.455,3.071h4.846Z" transform="translate(-39.895 -15.195)" fill="#afa797"/>
        <path id="Trazado_141421" data-name="Trazado 141421" d="M558.744,68.814,552.436,74.3S539.7,76.145,534.2,61.789c-4.917-12.839,4.021-18.323,4.021-18.323l10.524-1.108Z" transform="translate(-46.074 -3.663)" fill="#db334f"/>
        <path id="Trazado_141422" data-name="Trazado 141422" d="M557.7,69.054c-12.513,7.167-27.116-21.323-15.14-25.848,16.617-6.277,48-8.123,48-8.123l2.954,12.185S570.784,61.563,557.7,69.054" transform="translate(-46.54 -3.034)" fill="#edb984"/>
        <path id="Trazado_141423" data-name="Trazado 141423" d="M552.188,56.745c-4.989.969-9.978-1.45-14.069-5.286-.206,9.587,10.264,24.025,19.584,18.689,13.083-7.493,35.819-21.786,35.819-21.786l-.157-.646c-9.465,2.2-28.7,6.607-41.177,9.03" transform="translate(-46.54 -4.127)" fill="#e79b69"/>
        <path id="Trazado_141424" data-name="Trazado 141424" d="M471.789,34.554l-1.746-2.39-6.378.544s-8.954-17.817-.646-18.648,8.77,20.494,8.77,20.494" transform="translate(-39.74 -1.214)" fill="#663423"/>
        <path id="Trazado_141425" data-name="Trazado 141425" d="M471.923,30.6c.589-2.773-.206-5.292-1.777-5.626s-3.322,1.644-3.912,4.418.206,5.291,1.777,5.625,3.322-1.643,3.912-4.417" transform="translate(-40.307 -2.157)" fill="#edb984"/>
        <path id="Trazado_141426" data-name="Trazado 141426" d="M471.1,31.385c.339-1.6-.223-3.071-1.254-3.291s-2.143.9-2.482,2.5.222,3.073,1.254,3.293,2.143-.9,2.482-2.5" transform="translate(-40.413 -2.427)" fill="#d27558"/>
        <path id="Trazado_141427" data-name="Trazado 141427" d="M470.19,33.022c.225-1.062-.171-2.044-.883-2.2s-1.474.586-1.7,1.647.17,2.044.883,2.2,1.474-.586,1.7-1.647" transform="translate(-40.437 -2.664)" fill="#edb984"/>
        <path id="Trazado_141428" data-name="Trazado 141428" d="M427.823,171.928a8.2,8.2,0,0,1-3.528-.808c-14.36-6.759-20.935-55.84-23.923-95.823l1.078-.08c2.965,39.7,9.416,88.389,23.3,94.926,2.749,1.294,5.628.829,8.8-1.419l.625.882a11.073,11.073,0,0,1-6.357,2.322" transform="translate(-34.627 -6.505)" fill="#6b5b5b"/>
        <path id="Trazado_141429" data-name="Trazado 141429" d="M404.91,66.065c-1.2-5.719-3.558-6.54-6.369-5.912s-5.008,2.466-3.813,8.184,4.324,7.951,7.135,7.324,4.242-3.877,3.047-9.6" transform="translate(-34.11 -5.187)" fill="#594b4b"/>
        <path id="Trazado_141430" data-name="Trazado 141430" d="M404.522,65.494c-.742-3.547-2.207-4.057-3.95-3.668s-3.106,1.529-2.364,5.076,2.682,4.932,4.426,4.543,2.63-2.4,1.888-5.952" transform="translate(-34.422 -5.338)" fill="#8c7676"/>
        <path id="Trazado_141431" data-name="Trazado 141431" d="M390.082,71.395c-.541-3.445,1.081-6.957,2.432-7.228s4.946,2.427,5.209,3.781-.076,2.839-.954,2.771a11.515,11.515,0,0,1-3.107-1.621Z" transform="translate(-33.728 -5.548)" fill="#edb984"/>
        <path id="Trazado_141432" data-name="Trazado 141432" d="M456.161,31.536c-.055-.983.456-1.78,1.144-1.782s1.3.8,1.358,1.786-.458,1.8-1.152,1.79-1.294-.808-1.349-1.794" transform="translate(-39.452 -2.573)" fill="#5a4949"/>
        <path id="Trazado_141433" data-name="Trazado 141433" d="M448.759,32.506c-.039-.991.44-1.8,1.072-1.8s1.185.8,1.228,1.8-.443,1.811-1.081,1.806-1.18-.815-1.22-1.81" transform="translate(-38.812 -2.656)" fill="#5a4949"/>
        <path id="Trazado_141434" data-name="Trazado 141434" d="M453.657,33.6s.19.209.453.545c-.716,2.107-1.37,5.579,1.749,4.353-.006.087.008.176-.006.261-5.2,2.894-2.874-3.794-2.2-5.16" transform="translate(-39.14 -2.906)" fill="#d27558"/>
        <path id="Trazado_141435" data-name="Trazado 141435" d="M458.874,44.124c0-.82-.917-1.621-2.466-1.621s-2.06.868-2.06,1.689.512,1.283,2.06,1.283,2.466-.531,2.466-1.351" transform="translate(-39.295 -3.676)" fill="#4c252a"/>
        <path id="Trazado_141436" data-name="Trazado 141436" d="M458,28.638,447.6,30.4l.1,2.16L458.1,30.8Z" transform="translate(-38.712 -2.477)" fill="#edb984"/>
        <path id="Trazado_141437" data-name="Trazado 141437" d="M458.341,43.66a2,2,0,0,0-1.762-.766c-1.143,0-1.552.61-1.59,1.218Z" transform="translate(-39.351 -3.71)" fill="#fffde9"/>
        <path id="Trazado_141438" data-name="Trazado 141438" d="M454.962,26.62l4.962.21a1.147,1.147,0,0,1,1.083,1.2l-.047,1.264a1.123,1.123,0,0,1-1.173,1.094l-4.97-.27a1.123,1.123,0,0,1-1.035-1.187l.052-1.233a1.1,1.1,0,0,1,1.129-1.079" transform="translate(-39.246 -2.302)" fill="#663423"/>
        <path id="Trazado_141439" data-name="Trazado 141439" d="M445.666,28.508l3.8-.882a.867.867,0,0,1,1,.823l.158,1.125a1.07,1.07,0,0,1-.717,1.222l-3.827.856a.857.857,0,0,1-.975-.829l-.146-1.111a1.067,1.067,0,0,1,.7-1.2" transform="translate(-38.483 -2.388)" fill="#663423"/>
      </g>
    </g>
  </g>
</svg>
