<svg xmlns="http://www.w3.org/2000/svg" width="95" height="95" viewBox="0 0 95 95">
  <g id="Grupo_926833" data-name="Grupo 926833" transform="translate(8340 7255)">
    <rect id="Rectángulo_335052" data-name="Rectángulo 335052" width="95" height="95" transform="translate(-8340 -7255)" fill="none"/>
    <g id="caracteristica" transform="translate(-8331.248 -7246.248)">
      <path id="Trazado_633509" data-name="Trazado 633509" d="M60.539,65.255a1.233,1.233,0,0,0,.871-.361L64.9,61.406a1.233,1.233,0,0,0,0-1.743L54.438,49.2a1.268,1.268,0,0,0-1.743,0l-.871.873-3.53-3.532a17.257,17.257,0,1,0-1.742,1.745l3.529,3.529-.872.873a1.233,1.233,0,0,0,0,1.743l10.46,10.459A1.233,1.233,0,0,0,60.539,65.255ZM45.721,45.717A14.69,14.69,0,1,1,50.1,35.257,14.792,14.792,0,0,1,45.721,45.717Zm7.845,6.1,8.716,8.716-1.743,1.744-8.716-8.716Z" transform="translate(3.486 3.49)" fill="#263e1f"/>
      <path id="Trazado_633510" data-name="Trazado 633510" d="M65.114,11.505a2.125,2.125,0,0,0-.237-1.665L63.29,7.213a2.262,2.262,0,0,0-3.005-.791l-.462.256a9.768,9.768,0,0,0-1.917-1.07V5.181A2.2,2.2,0,0,0,55.683,3H52.505a2.2,2.2,0,0,0-2.219,2.181v.428a9.8,9.8,0,0,0-1.917,1.07l-.461-.255a2.262,2.262,0,0,0-3.005.788L43.311,9.841a2.121,2.121,0,0,0-.237,1.664,2.192,2.192,0,0,0,1.059,1.346l.407.224a8.613,8.613,0,0,0,0,2.036l-.407.224a2.192,2.192,0,0,0-1.059,1.346,2.125,2.125,0,0,0,.237,1.665L44.9,20.975a2.262,2.262,0,0,0,3.005.791l.462-.256a9.768,9.768,0,0,0,1.917,1.07v.428a2.2,2.2,0,0,0,2.223,2.181h3.178A2.2,2.2,0,0,0,57.9,23.008V22.58a9.8,9.8,0,0,0,1.917-1.07l.461.255a2.258,2.258,0,0,0,3.005-.788l1.589-2.631a2.121,2.121,0,0,0,.237-1.664,2.192,2.192,0,0,0-1.059-1.346l-.407-.224a8.613,8.613,0,0,0,0-2.036l.407-.224A2.192,2.192,0,0,0,65.114,11.505Zm-3.871,2.589a6.5,6.5,0,0,1-.065.908,2.165,2.165,0,0,0,1.109,2.177l.309.17-1.3,2.158-.4-.222a2.3,2.3,0,0,0-2.451.178,7.214,7.214,0,0,1-1.583.879,2.2,2.2,0,0,0-1.421,2.031v.349h-2.69v-.349a2.2,2.2,0,0,0-1.42-2.03,7.2,7.2,0,0,1-1.584-.881,2.305,2.305,0,0,0-2.453-.176l-.4.222-1.3-2.158.311-.171A2.163,2.163,0,0,0,47.009,15a6.35,6.35,0,0,1,0-1.817A2.165,2.165,0,0,0,45.9,11.009l-.311-.17,1.3-2.158.4.222a2.292,2.292,0,0,0,2.451-.178,7.214,7.214,0,0,1,1.583-.879,2.2,2.2,0,0,0,1.421-2.031V5.465H55.44v.349a2.2,2.2,0,0,0,1.42,2.03,7.2,7.2,0,0,1,1.584.881A2.3,2.3,0,0,0,60.9,8.9l.4-.222,1.3,2.158-.311.171a2.163,2.163,0,0,0-1.109,2.176,6.5,6.5,0,0,1,.064.908Z" transform="translate(9.307 0)" fill="#263e1f"/>
      <path id="Trazado_633511" data-name="Trazado 633511" d="M52.931,8a4.931,4.931,0,1,0,4.931,4.931A4.931,4.931,0,0,0,52.931,8Zm0,7.4A2.465,2.465,0,1,1,55.4,12.931,2.465,2.465,0,0,1,52.931,15.4Z" transform="translate(10.471 1.163)" fill="#263e1f"/>
      <path id="Trazado_633512" data-name="Trazado 633512" d="M7.9,61.766l.462-.256a9.768,9.768,0,0,0,1.917,1.07v.428a2.2,2.2,0,0,0,2.223,2.181h3.178A2.2,2.2,0,0,0,17.9,63.008V62.58a9.8,9.8,0,0,0,1.917-1.07l.461.255a2.258,2.258,0,0,0,3.005-.788l1.589-2.631a2.121,2.121,0,0,0,.237-1.664,2.192,2.192,0,0,0-1.059-1.346l-.407-.224a8.611,8.611,0,0,0,0-2.036l.407-.224a2.192,2.192,0,0,0,1.063-1.346,2.125,2.125,0,0,0-.237-1.665L23.29,47.213a2.262,2.262,0,0,0-3.005-.791l-.462.256a9.768,9.768,0,0,0-1.917-1.07v-.428A2.2,2.2,0,0,0,15.683,43H12.505a2.2,2.2,0,0,0-2.219,2.181v.428a9.8,9.8,0,0,0-1.917,1.07l-.461-.255a2.262,2.262,0,0,0-3.005.788L3.311,49.841a2.121,2.121,0,0,0-.237,1.664,2.192,2.192,0,0,0,1.059,1.346l.407.224a8.612,8.612,0,0,0,0,2.036l-.407.224a2.192,2.192,0,0,0-1.059,1.346,2.125,2.125,0,0,0,.237,1.665L4.9,60.975A2.262,2.262,0,0,0,7.9,61.766Zm-.959-7.672a6.5,6.5,0,0,1,.065-.908A2.165,2.165,0,0,0,5.9,51.009l-.312-.17,1.3-2.158.4.222a2.289,2.289,0,0,0,2.451-.178,7.213,7.213,0,0,1,1.583-.879,2.2,2.2,0,0,0,1.421-2.031v-.349H15.44v.349a2.2,2.2,0,0,0,1.42,2.03,7.2,7.2,0,0,1,1.584.881A2.3,2.3,0,0,0,20.9,48.9l.4-.222,1.3,2.158-.311.171a2.163,2.163,0,0,0-1.109,2.176,6.35,6.35,0,0,1,0,1.817,2.165,2.165,0,0,0,1.109,2.177l.309.17-1.3,2.158-.4-.222a2.3,2.3,0,0,0-2.451.178,7.213,7.213,0,0,1-1.583.879,2.2,2.2,0,0,0-1.421,2.031v.349H12.748v-.349a2.2,2.2,0,0,0-1.42-2.03,7.2,7.2,0,0,1-1.584-.881,2.3,2.3,0,0,0-2.453-.176l-.4.222-1.3-2.158.311-.171A2.163,2.163,0,0,0,7.009,55a6.5,6.5,0,0,1-.064-.908Z" transform="translate(0 9.307)" fill="#263e1f"/>
      <path id="Trazado_633513" data-name="Trazado 633513" d="M12.931,57.861A4.931,4.931,0,1,0,8,52.931,4.931,4.931,0,0,0,12.931,57.861Zm0-7.4a2.465,2.465,0,1,1-2.465,2.465A2.465,2.465,0,0,1,12.931,50.465Z" transform="translate(1.164 10.47)" fill="#263e1f"/>
      <path id="Trazado_633514" data-name="Trazado 633514" d="M37.094,30.634h-.471a4.931,4.931,0,1,0-6.454,0H29.7a3.7,3.7,0,0,0-3.7,3.7v8.629a1.233,1.233,0,0,0,1.233,1.233H39.559a1.233,1.233,0,0,0,1.233-1.233V34.332A3.7,3.7,0,0,0,37.094,30.634Zm-3.7-6.163a2.465,2.465,0,1,1-2.465,2.465A2.465,2.465,0,0,1,33.4,24.471Zm4.931,17.257H28.465v-7.4A1.233,1.233,0,0,1,29.7,33.1h7.4a1.233,1.233,0,0,1,1.233,1.233Z" transform="translate(5.352 4.415)" fill="#263e1f"/>
      <path id="Trazado_633515" data-name="Trazado 633515" d="M32.029,61.529a35.972,35.972,0,0,0,5.084-.362l-.35-2.441a33.431,33.431,0,0,1-4.733.338Z" transform="translate(6.754 12.966)" fill="#263e1f"/>
      <path id="Trazado_633516" data-name="Trazado 633516" d="M28.847,61.362l.346-2.442a32.973,32.973,0,0,1-4.639-1l-.692,2.367a35.54,35.54,0,0,0,4.984,1.074Z" transform="translate(4.854 12.779)" fill="#263e1f"/>
      <path id="Trazado_633517" data-name="Trazado 633517" d="M39.63,58.222l.7,2.364A35.6,35.6,0,0,0,45.1,58.8l-1.028-2.241a32.986,32.986,0,0,1-4.444,1.663Z" transform="translate(8.523 12.462)" fill="#263e1f"/>
      <path id="Trazado_633518" data-name="Trazado 633518" d="M58.811,45.079A35.687,35.687,0,0,0,60.594,40.3l-2.366-.7a33.175,33.175,0,0,1-1.659,4.449Z" transform="translate(12.464 8.516)" fill="#263e1f"/>
      <path id="Trazado_633519" data-name="Trazado 633519" d="M3.3,36.248A35.659,35.659,0,0,0,4.39,41.23l2.362-.7A33.036,33.036,0,0,1,5.739,35.9Z" transform="translate(0.07 7.655)" fill="#263e1f"/>
      <path id="Trazado_633520" data-name="Trazado 633520" d="M59.063,31.885v.142a33.635,33.635,0,0,1-.335,4.74l2.44.342a36.01,36.01,0,0,0,.36-5.1v-.123Z" transform="translate(12.967 6.721)" fill="#263e1f"/>
      <path id="Trazado_633521" data-name="Trazado 633521" d="M5.79,28.277l-2.441-.341A36.149,36.149,0,0,0,3,32.946v.07l2.465-.07a33.731,33.731,0,0,1,.325-4.672Z" transform="translate(0 5.802)" fill="#263e1f"/>
      <path id="Trazado_633522" data-name="Trazado 633522" d="M60.246,23.72l-2.363.7a33.048,33.048,0,0,1,1.023,4.634l2.439-.359a35.781,35.781,0,0,0-1.1-4.978Z" transform="translate(12.77 4.821)" fill="#263e1f"/>
      <path id="Trazado_633523" data-name="Trazado 633523" d="M5.922,20.009a35.918,35.918,0,0,0-1.773,4.785l2.368.688A33.3,33.3,0,0,1,8.166,21.03Z" transform="translate(0.267 3.958)" fill="#263e1f"/>
      <path id="Trazado_633524" data-name="Trazado 633524" d="M9.642,18.476a33.55,33.55,0,0,1,2.835-3.8l-1.868-1.61a35.915,35.915,0,0,0-3.047,4.085Z" transform="translate(1.062 2.341)" fill="#263e1f"/>
      <path id="Trazado_633525" data-name="Trazado 633525" d="M14.575,12.568a33.194,33.194,0,0,1,3.788-2.856l-1.339-2.07a36.065,36.065,0,0,0-4.068,3.067Z" transform="translate(2.317 1.08)" fill="#263e1f"/>
      <path id="Trazado_633526" data-name="Trazado 633526" d="M24.649,4.189a36.08,36.08,0,0,0-4.772,1.8l1.032,2.24a33.423,33.423,0,0,1,4.438-1.673Z" transform="translate(3.927 0.277)" fill="#263e1f"/>
      <path id="Trazado_633527" data-name="Trazado 633527" d="M36.1,3.279l-.34,2.442a33.2,33.2,0,0,1,4.64.986l.688-2.366A35.455,35.455,0,0,0,36.1,3.279Z" transform="translate(7.622 0.065)" fill="#263e1f"/>
      <path id="Trazado_633528" data-name="Trazado 633528" d="M32.872,3a35.681,35.681,0,0,0-5.084.37l.355,2.438a33.672,33.672,0,0,1,4.733-.343Z" transform="translate(5.768 0)" fill="#263e1f"/>
    </g>
  </g>
</svg>
