<svg xmlns="http://www.w3.org/2000/svg" xmlns:xlink="http://www.w3.org/1999/xlink" width="608.826" height="319.416" viewBox="0 0 608.826 319.416">
  <defs>
    <clipPath id="clip-path">
      <rect id="Rectángulo_37687" data-name="Rectángulo 37687" width="586.9" height="260.954" fill="none"/>
    </clipPath>
  </defs>
  <g id="Grupo_212502" data-name="Grupo 212502" transform="translate(-810 -7939)">
    <rect id="BG" width="608.826" height="319.416" transform="translate(810 7939)" fill="#e8e8e8" opacity="0.949"/>
    <g id="Grupo_85777" data-name="Grupo 85777" transform="translate(821 7968)">
      <g id="Grupo_85776" data-name="Grupo 85776" transform="translate(0)" clip-path="url(#clip-path)">
        <path id="Trazado_141448" data-name="Trazado 141448" d="M555.842,88.466c1.969,2.707,8.087,11.038,17.615,13.328a7.463,7.463,0,0,1-.408-2.048,19.569,19.569,0,0,1,3.141-6.994c.373-.538,1.146-1.779,2.187-3.488,5.085-8.3,16.747-27.751,21.242-31.967A22.811,22.811,0,0,1,613.5,51.431c1.527,0,2.716-5.2,2.716-5.206a29.439,29.439,0,0,0,.754,7.263c.07.235.156.477.261.738l3.253-3.844,4.755-18.709,1.458-5.735c.3-2.89.937-9.607-10.3-12.956s-24.548-2.6-33.374,6.482a93.764,93.764,0,0,0-8.66,10.76l-.26.364c-.355.5-.711,1.007-1.067,1.528-.425.615-.842,1.241-1.267,1.865-.078.121-.156.243-.244.364-6.543,9.866-12.912,21.616-15.688,30.206a57.056,57.056,0,0,0-2.082,8.47c-1.336,8.408.407,13.146,2.082,15.446" transform="translate(-500.069 -1.877)" fill="#f8b348"/>
        <path id="Trazado_141449" data-name="Trazado 141449" d="M617.963,71.941c-.145-3.362.868-15.15,5.64-21.477s11.715-13.631,16.193-14.1c-7.057,10.272-14.219,23.184-17.2,32.436a56.434,56.434,0,0,0-2.08,8.472l-.015.027a7.9,7.9,0,0,1-2.536-5.354" transform="translate(-566.821 -6.121)" fill="#d07528"/>
        <path id="Trazado_141450" data-name="Trazado 141450" d="M590.423,38.966c2.907,2.3,9.12,3.662,15.282,3.662a33.419,33.419,0,0,0,8.964-1.119.224.224,0,0,0,.156-.269.217.217,0,0,0-.269-.156c-7.844,2.247-19.646.946-23.889-2.482-.078.121-.157.243-.244.364" transform="translate(-518.962 -6.498)" fill="#1d3927"/>
        <path id="Trazado_141451" data-name="Trazado 141451" d="M588.5,34.448c3.826,2.048,11.333,3.7,17.9,3.7a29.666,29.666,0,0,0,5.354-.442.234.234,0,0,0,.173-.261.212.212,0,0,0-.251-.166c-7.038,1.312-18.066-.641-22.917-3.192l-.26.363" transform="translate(-514.459 -5.738)" fill="#1d3927"/>
        <path id="Trazado_141452" data-name="Trazado 141452" d="M.924,287.007c1.914-3.762.178-9.762,7.771-11.209s10.318-2.784,18.657,0,27.116,15.136,27.116,15.136l-4.122,6.194s-21.043,3.633-23.863,4.854L0,290.934Z" transform="translate(532.432 -46.154)" fill="#5c4435"/>
        <path id="Trazado_141453" data-name="Trazado 141453" d="M485.847,256.733a.236.236,0,0,0,.047,0,.218.218,0,0,0,.165-.259L459.393,136.828a.217.217,0,0,0-.424.094l26.666,119.642a.218.218,0,0,0,.212.17" transform="translate(-280.865 -23.005)" fill="#1d3927"/>
        <path id="Trazado_141454" data-name="Trazado 141454" d="M167.17,273.778c-3.211-3.867-13.623-18.259-7.838-23.755s11-11.136,10.416-6.291-6.656,7.159-5.354,11.208-1.822,9.545,2.777,10.7,3.586,6,6.985,6.617,7.39-2.856,4.382-6.617.408-10.106,4.051-6.933.337,7.369,6.329,11.2,9.173,1.953,6.281,0-2.314-9.05,1.736-7.093,4.049,5.511,8.388,8.073,11.242,4.38,11.242,0,2.879-10.888,5.943-9.659,2.195,7.014,3.93,10.051,7.939-3.181,5.416-10.051-5-19.862,0-21.754,10.777,6.207,12.225,12.281,2.013,12.067,4.053,15.545,4.408,1.95,4.373,0-1.038-6.731,1.922-4.486,3.213,14.493,6.413,14.878,1.754-3.882,5.515-3.918,6.635,9.681,11.272,9.595,18.741-.037,25.428-3.352,27.174-11,41.4-9.131,14.034-6.094,24.661-6.973,11.2,2.094,8.023,4.368-7.681-1.114-9.77,2.6,1.672,8.352,10.349,9.651,15.374.228,20.7-3.865,8.175-9.371,21.214-4.418,16.756,12.248,26.865,7.762,17.083-5.843,20.574-10.111,1.178-11.788,3.491-12.512,2.893,9.77,6.942,10.886,4.483-1.465,4.7-4.368,5.713,4.545,9.328,8.342c3.149,3.307,8.6,5.712,10.145,7.518a15.861,15.861,0,0,0-3.637.764c-1.08.547-6.508,8.1-6.508,8.1H164.393s5.987-10.993,2.777-14.86" transform="translate(-45.856 -40.266)" fill="#c3dbd3"/>
        <path id="Trazado_141455" data-name="Trazado 141455" d="M138.5,288.694a15.892,15.892,0,0,1,3.636-.765,31.87,31.87,0,0,1,12.706.765c6.8,2.1,8.605,4.505,8.605,4.505v3.591l-26.9,2.6-4.555-2.6s5.427-7.549,6.508-8.1" transform="translate(313.688 -48.419)" fill="#5c4435"/>
        <path id="Trazado_141456" data-name="Trazado 141456" d="M374.6,285.312c2.061,1.047,9.762,6.657,9.762,6.657H365.487L364.4,284.3Z" transform="translate(-100.519 -47.858)" fill="#1d3927"/>
        <path id="Trazado_141457" data-name="Trazado 141457" d="M124.063,90.248c-.512.72,5.137,3.748,5.605,4-.417-.19-4.425-2-4.738-1.171-.329.867.651.963,3.471,2.377s8.895,4.556,19.307,9.225,22.127,6.829,28.089,2.5a16.519,16.519,0,0,0,3.618-3.671C182.7,99.022,184.258,93.043,186,88.4c0,0-3.905-2.17-7.272-3.575a45.5,45.5,0,0,0-8.46-2.213s-4.556,9.372-5.423,10.466a1.281,1.281,0,0,1-.625.46c-.807.216-2.143-.5-5.988-1.336-5-1.085-18.2-3.413-19.5-4.167s-5.667-5.916-6.647-5.378c-.946.521.946,3.678,1.076,3.9-.312-.2-6.644-3.94-7.15-2.594-.573,1.522,4.017,3.9,4.425,4.113-.434-.139-6.482-2.126-6.413-1.18s5.476,4.192,5.866,4.434c-.382-.131-5.31-1.8-5.831-1.076" transform="translate(297.75 -13.907)" fill="#f9b88c"/>
        <path id="Trazado_141458" data-name="Trazado 141458" d="M124.027,93.537a125.918,125.918,0,0,0,15.194,9.97c3.288-4.486,4.842-10.465,6.586-15.107,0,0-3.9-2.169-7.272-3.574a45.423,45.423,0,0,0-8.46-2.213s-4.556,9.371-5.424,10.465a1.277,1.277,0,0,1-.625.46" transform="translate(337.945 -13.907)" fill="#eaa475"/>
        <path id="Trazado_141459" data-name="Trazado 141459" d="M306.111,74.819c1.736-5.423,6.834-22.019-6.237-27.876s-24.656-6.133-34.7.459-25.735,62.124-18.431,73.624a28.055,28.055,0,0,0,19.79,12.529Z" transform="translate(74.7 -7.155)" fill="#1d3927"/>
        <path id="Trazado_141460" data-name="Trazado 141460" d="M64.382,75.516C71.324,77.1,80.114,81.3,80.114,81.3V96.169l2.925,22.881a12.374,12.374,0,0,0,5.093,1.632,84.553,84.553,0,0,0,22.353,0,49.409,49.409,0,0,0,14.066-3.8,26.308,26.308,0,0,0,3.5-1.84s-1.3-7.48-2.378-11.931a33.2,33.2,0,0,1-.113-15.4c1.3-5.745,2.6-15.836,2.6-15.836s.294-1.129.633-2.838a.065.065,0,0,0,.009-.026c.711-3.653,1.588-9.936.112-13.623-2.169-5.424-9.753-8.678-16.07-10.413a57.229,57.229,0,0,1-7.611-2.482,14.219,14.219,0,0,1-3.358-2.031L94.64,43.453a8.868,8.868,0,0,1-1.233,1.2,7.625,7.625,0,0,1-1.84.546c-1.84.391-4.695.868-7.116,1.293-3.7.65-10.96,4.234-13.884,9.649-2.932,5.432-6.187,19.377-6.187,19.377" transform="translate(403.638 -6.811)" fill="#f8b348"/>
        <path id="Trazado_141461" data-name="Trazado 141461" d="M120.407,88.125V89.86l2.907.39s.235-5.484,0-9.276Z" transform="translate(363.345 -13.631)" fill="#d57c29"/>
        <path id="Trazado_141462" data-name="Trazado 141462" d="M566.584,212.064a11.23,11.23,0,0,0,1.632,4.746,24.912,24.912,0,0,0,3.722,4.8s19.376-9.25,27.62-14.023,13.884-9.979,16.2-15.481,10.551-42.085,10.551-42.52c0,.009.009.017.009.027.286.772,9.536,39.612,9.4,40.185a38.579,38.579,0,0,0-7.236,19.585c-1.3,12.79,3.619,27.56,3.619,27.56a6.268,6.268,0,0,0,2.586,1.094,12.008,12.008,0,0,0,2.343.216,17.779,17.779,0,0,0,3.9-.442s10.7-43.24,11.532-47.44c.3-1.519.278-8.686.087-17.415-.139-6.448-.373-13.737-.634-20.228-.356-8.989-.755-16.434-1.033-17.962-.963.755-5.224,2.282-11.94,2.057a36.709,36.709,0,0,1-19.853-5.848,19.669,19.669,0,0,1-6.109-5.867,20.687,20.687,0,0,1-2.594-5.38,7.431,7.431,0,0,1-.408-2.048c-4.269,6.031-6.742,14.032-8.13,21.685v.009a111.276,111.276,0,0,0-1.7,20.921c.017.877.035,1.83.052,2.846.156,8.382.417,20.791.052,23.03v.017c-.035.182-.061.287-.1.321-.581.477-10.413,5.6-17.936,10.664s-15.619,14.891-15.619,14.891" transform="translate(-536.991 -19.81)" fill="#f26453"/>
        <path id="Trazado_141463" data-name="Trazado 141463" d="M584.63,215.847c-1.3,12.79,3.619,27.56,3.619,27.56a6.273,6.273,0,0,0,2.586,1.094c-.486-4.66-3.149-14.544-1.787-25.061,1.8-13.988,6.578-21.945,6.578-21.945s-9.528-32.557-13.155-41.417c.286.772,9.537,39.612,9.4,40.185a38.567,38.567,0,0,0-7.237,19.585" transform="translate(-493.14 -26.274)" fill="#bf5649"/>
        <path id="Trazado_141464" data-name="Trazado 141464" d="M614.4,163.141c.156,8.382.417,20.792.052,23.03,1.631-5.224,1.657-14.413,2.785-26.023,1.024-10.525,5.016-25.815,9.944-35.039a20.744,20.744,0,0,1-2.595-5.38,7.453,7.453,0,0,1-.408-2.048c-4.269,6.031-6.742,14.032-8.13,21.685v.009a111.358,111.358,0,0,0-1.7,20.921c.017.877.035,1.83.052,2.846" transform="translate(-551.198 -19.81)" fill="#bf5649"/>
        <path id="Trazado_141465" data-name="Trazado 141465" d="M629.766,226a11.23,11.23,0,0,0,1.632,4.746,109.593,109.593,0,0,1,9.363-10.091c9.128-8.678,20.826-15.047,22.561-20.21-.581.477-10.413,5.6-17.936,10.664S629.766,226,629.766,226" transform="translate(-600.173 -33.742)" fill="#bf5649"/>
        <path id="Trazado_141466" data-name="Trazado 141466" d="M387.111,125.48c.008.373.026.7.043.981.035.607.061.946.061.946s.026-.017.061-.034a18.153,18.153,0,0,1,3.237-1.467,46.014,46.014,0,0,1,6.942-1.857c1.2-.234,2.507-.451,3.94-.65a147.639,147.639,0,0,1,18.631-1.145c1.727,0,2.768.026,2.768.026l6.864.434A92.172,92.172,0,0,0,436.4,94.788q.247-2.994.278-6.161a121.524,121.524,0,0,0-2.881-25.816c-1.449-6.734-2.9-11.116-2.9-11.116l.217-.391.408-.737,4.859-8.747a16.19,16.19,0,0,1-2.134.955,21.318,21.318,0,0,1-7.984,1.406,19.1,19.1,0,0,1-5.961-1.059,11.113,11.113,0,0,1-2.785-1.406s.078-.329.278-.928.529-1.458,1.006-2.526a41.741,41.741,0,0,1,7.758-11.3c7.376-7.81,8.895-8.027,10.482-7.159a4.545,4.545,0,0,1,.972.746c0-.017.008-.035.008-.052l.642.825a3.594,3.594,0,0,1,.669,1.067c.139.26.217.434.217.434,1.613-2.8.165-8.46-8.947-9.684-8.625-1.146-17.242,3.974-21.2,10.152-.226.356-.443.712-.634,1.067-3.619,6.656-3.184,10.517-.868,14.735a26.742,26.742,0,0,1,2.231,6.231c.3,1.232.521,2.36.677,3.237.078.459.139.85.182,1.145.061.373.086.581.086.581a25.821,25.821,0,0,0-4.2,4.772,82.741,82.741,0,0,0-8.816,16.019c-6.942,16.054-8.555,31.812-10.066,39.769a50.568,50.568,0,0,0-.7,5.353,75.424,75.424,0,0,0-.182,9.276" transform="translate(-175.109 -2.185)" fill="#d07528"/>
        <path id="Trazado_141467" data-name="Trazado 141467" d="M412.393,41.184a26.8,26.8,0,0,1,2.231,6.231c.3,1.232.521,2.359.676,3.237.078.459.14.85.182,1.145,2.959.529,8.93,1.6,9.311,1.6.5,0,.026-7.835,0-8.183V45.2l-2.785-1.4a14.206,14.206,0,0,1-3.931-4.226c-1.319-2.187-4.66-6.968-4.182-14.2-.225.356-.442.711-.634,1.067-3.618,6.656-3.184,10.517-.867,14.735" transform="translate(-179.6 -4.273)" fill="#ad5e35"/>
        <path id="Trazado_141468" data-name="Trazado 141468" d="M369.037,249.679l7.593,5.64s26.032-24.3,32.306-29.72a6.423,6.423,0,0,0,.832-.885c2.569-3.141,6.161-11.064,9.6-19.62,5.5-13.676,10.63-28.957,10.63-28.957s6.447,7.7,13.1,15.758c6.95,8.4,14.118,17.2,14.448,18.084.3.816-.156,2.881-.842,5.788a106.06,106.06,0,0,0-2.412,12.434c-1.085,9.112,5.639,32.54,5.639,32.54a7.9,7.9,0,0,0,2.89.99,1.962,1.962,0,0,0,.243.034c.148.027.3.044.442.062a30.305,30.305,0,0,0,6.621-.07s1.953-13.164,3.471-25.1c.772-6.04,1.7-13.181,2.161-19.472.442-6.143.434-11.472-.642-14.153-.321-.807-1.015-2.517-1.97-4.859-5.467-13.424-19.593-47.726-22.552-53.21l-9.632-.6c-1.215,0-2.759.017-4.538.069-.147,0-.3.009-.442.009-2.629.086-5.7.243-8.877.529-.147.017-.294.027-.442.043-1.44.139-2.9.3-4.33.495s-2.742.417-3.94.651a45.786,45.786,0,0,0-6.942,1.857,18.082,18.082,0,0,0-3.237,1.466.59.59,0,0,0-.061.035s-.026-.338-.061-.946c-.017-.278-.035-.607-.043-.981,0,0-7.706,41.21-11.133,55.44a40.071,40.071,0,0,1-1.2,4.339c-1.067,2.673-3.141,4.92-5.848,7.688a107.036,107.036,0,0,0-9.988,11.186c-7.375,9.762-10.846,23.429-10.846,23.429" transform="translate(-196.049 -24.303)" fill="#89453c"/>
        <path id="Trazado_141469" data-name="Trazado 141469" d="M384.873,257.924s26.032-24.3,32.306-29.72a6.472,6.472,0,0,0,.833-.885c2.568-3.141,6.161-11.064,9.6-19.62,5.5-13.676,10.629-28.957,10.629-28.957s6.448,7.7,13.1,15.758c6.951,8.4,14.118,17.2,14.448,18.084.3.816-.156,2.881-.842,5.788a106.1,106.1,0,0,0-2.413,12.435c-1.084,9.112,5.64,32.54,5.64,32.54a7.885,7.885,0,0,0,2.889.99c-1.188-7.454-3.818-25.191-3.253-33.964.719-11.28,3.184-15.688,3.3-22.63s-9.224-12.729-19.767-19.888-22.2-18.206-28.063-28.011a114.222,114.222,0,0,0,4.8,13.268c-2.768,14.291-6.5,33.8-11.854,44.679-5.753,11.715-14.43,15.038-22.674,23.794a36.644,36.644,0,0,0-8.678,16.34" transform="translate(-204.292 -26.908)" fill="#423f2f"/>
        <path id="Trazado_141470" data-name="Trazado 141470" d="M427.111,122.916a28.682,28.682,0,0,0,7.871,7.167c3.9,2.213,7.983,2.56,13.094,1.736l.061-.182c-.034.017-.061.035-.061.035s-.026-.338-.061-.946a76.69,76.69,0,0,1,.139-10.256,50.547,50.547,0,0,1,.7-5.354c1.51-7.957,3.125-23.716,10.066-39.768a82.706,82.706,0,0,1,8.816-16.019,25.813,25.813,0,0,1,4.2-4.773s-.043-.329-.13-.877c-.035-.243-.086-.529-.139-.85-.156-.877-.373-2-.677-3.237l-.521-1.787s-5.909-9.2-19.5-9.485c-11.107-.235-17.19,11.489-21.962,24.453-1.076,2.916-2.082,5.892-3.063,8.807a69.194,69.194,0,0,0-2.386,9.493c-2.838,15.541-2.031,34.952,3.549,41.843" transform="translate(-235.97 -6.45)" fill="#489e99"/>
        <path id="Trazado_141471" data-name="Trazado 141471" d="M421.965,133.193c3.9,2.213,7.983,2.56,13.095,1.736l.061-.182c-.035.017-.061.034-.061.034s-.026-.338-.061-.946a76.4,76.4,0,0,1,.139-10.257,50.568,50.568,0,0,1,.7-5.353c1.509-7.957,3.124-23.716,10.066-39.769a82.742,82.742,0,0,1,8.816-16.019,25.782,25.782,0,0,1,4.2-4.772s-.043-.33-.131-.877c-13.684,13.51-19.5,24.088-23.906,34.206-3.341,7.689-9.623,30.076-12.921,42.2" transform="translate(-222.954 -9.56)" fill="#386a5d"/>
        <path id="Trazado_141472" data-name="Trazado 141472" d="M93.821,45.2c1.346,1.536,3.662,4,4.7,4,1.44,0,3.184,0,8.964-6.707a14.219,14.219,0,0,1-3.358-2.031l-7.237,2.994a8.839,8.839,0,0,1-1.232,1.2,7.636,7.636,0,0,1-1.84.546" transform="translate(401.385 -6.811)" fill="#d57c29"/>
        <path id="Trazado_141473" data-name="Trazado 141473" d="M65.493,105.866c13.12.1,17.893-2.5,22.457-5.536,0,0,1.735,16.3,5.822,22.336a26.5,26.5,0,0,0,3.5-1.84s-1.3-7.48-2.378-11.932a33.215,33.215,0,0,1-.113-15.4c1.3-5.744,2.6-15.837,2.6-15.837s.3-1.128.634-2.837c-.165.529-2.246,9.1-6.351,14.4-4.234,5.476-13.92,13.216-18.145,14.769a34.691,34.691,0,0,1-8.026,1.883" transform="translate(434.417 -12.595)" fill="#d57c29"/>
        <path id="Trazado_141474" data-name="Trazado 141474" d="M578.075,261.951c2.315,1.591,9.545,6.8,9.545,6.8l-18.368-1.158v-6.508c3.031,2.312,8.8.874,8.823.868" transform="translate(-474.144 -43.95)" fill="#f8b348"/>
        <path id="Trazado_141475" data-name="Trazado 141475" d="M487.463,106.847a19.561,19.561,0,0,1,3.141-6.993c.373-.538,1.146-1.779,2.187-3.489,2.325-3.792,6.03-9.936,9.8-15.871a.009.009,0,0,0,.009-.009c1.822-2.889,3.679-5.744,5.388-8.243,0-.008.009-.008.009-.008a54.953,54.953,0,0,1,6.04-7.836,23.008,23.008,0,0,1,13.415-5.848c.191-.009.348-.017.469-.017,1.527,0,2.716-5.2,2.716-5.206a29.4,29.4,0,0,0,.754,7.263c.07.234.156.477.26.737.92,2.283,3.28,5.4,6.942,5.97h.035a8.526,8.526,0,0,0,3.9-.391.583.583,0,0,0,.078-.017c.2-.07.407-.139.616-.226a15.434,15.434,0,0,0,5-3.445c.182.131.364.269.529.408.729.59,1.44,1.241,2.135,1.927,4.217,4.217,7.627,9.918,9.58,13.371a164.412,164.412,0,0,0,14.864,21.694c6.187,7.263,18.657,16.591,20.661,18a11.984,11.984,0,0,0-3.419,2.828,14.271,14.271,0,0,0-1.432,1.91,19.378,19.378,0,0,0-1.605,3.071s-1.736-.538-9.979-3.358-19.09-11.393-23.967-16.218a29.106,29.106,0,0,1-5.163-8.113,20.519,20.519,0,0,0-.694,3.7l-.008.009c-.209,2-.209,3.705-.209,3.705-3.575,2.282-13.884,4.339-13.884,4.339l-.008.009c-.191.382-6.3,12.694-7.246,13.441-.963.754-5.224,2.282-11.94,2.056a36.709,36.709,0,0,1-19.853-5.848,20.364,20.364,0,0,1-8.7-11.246,7.467,7.467,0,0,1-.408-2.048m62.261-9.666c-.789-1.83-1.406-3.514-1.831-4.746s-.659-2.022-.659-2.022l-.07.121-3.948,6.282Z" transform="translate(-414.483 -8.977)" fill="#1d3927"/>
        <path id="Trazado_141476" data-name="Trazado 141476" d="M95.579,27.237a28.746,28.746,0,0,0,1.3,6.734c.121.321.243.615.373.885,1.814,3.688,5.284,5.562,11.428,3.392.182-.06.338-.138.512-.208,5.719-2.343,7.367-8.469,7.367-8.469a1.783,1.783,0,0,0,.816.165,3.584,3.584,0,0,0,2.855-1.536c-.7-.989-1.3-2.048-1.857-2.881a29.306,29.306,0,0,1-2.343-4.712l-.043-.069-.165-.452-.7-1.934s-2.681.72-5.857,1.215a104.128,104.128,0,0,1-13.233,1.171c-.139,0-.26-.008-.391-.008a26.472,26.472,0,0,0-.061,6.707" transform="translate(387.322 -3.056)" fill="#f9b88c"/>
        <path id="Trazado_141477" data-name="Trazado 141477" d="M193.624,280.777c1.7,1.554,13.7,9.654,13.7,9.654H184.766l.723-7.7Z" transform="translate(225.91 -47.266)" fill="#1d3927"/>
        <path id="Trazado_141478" data-name="Trazado 141478" d="M328.588,271.251c.289.654,3.471,13.816,3.471,13.816s-10.124-8.829-12.872-13.816l5.781-8.6Z" transform="translate(-10.615 -44.214)" fill="#1d3927"/>
        <path id="Trazado_141479" data-name="Trazado 141479" d="M303.235,39.7c.23-2.829,1.3-13.559-6.942-15.836s-13.016,3.362-14.969,6.726S275.575,38.077,272,39.7s-10.412,5.442-11.5,10.2c-1.187,5.2,1.193,10.412-1.193,12.582s-6.726,7.159-8.569,11.5-2.494,17.351.434,22.126,11.5,10.523,23.972,9.873,22.018-6.509,26.466-16.054-1.193-20.066-2.278-26.141,1.084-12.017,1.952-15.174a57.614,57.614,0,0,0,1.953-8.906" transform="translate(76.275 -3.929)" fill="#f8b348"/>
        <path id="Trazado_141480" data-name="Trazado 141480" d="M24.081,256.828l8.678-.867S48.091,238.753,52,227.759s2.6-22.848,2.6-22.848,2.169-4.486,4.746-9.84,14.2-30.509,14.925-30.371,14.6,28.635,22.267,42.667,26.327,48.594,26.327,48.594l8.243-7.02a81.177,81.177,0,0,0-6.222-27.837,78.546,78.546,0,0,0-13.45-21.694c-.434-.72-2.6-20.244-4.626-28.488-1.1-4.486-3.54-15.142-5.909-24.487-.035-.156-.078-.313-.121-.469-1.137-4.486-2.256-8.634-3.194-11.6a20.461,20.461,0,0,0-1.666-4.226s-6.282,4.235-17.563,5.64a84.551,84.551,0,0,1-22.353,0,12.382,12.382,0,0,1-5.094-1.632s-.312,1.45-.85,3.931c-2.855,13.354-12.122,56.5-13.832,63.935-2.022,8.826-12.148,54.816-12.148,54.816" transform="translate(435.765 -21.907)" fill="#1d3927"/>
        <path id="Trazado_141481" data-name="Trazado 141481" d="M141.558,88.643c-2.711,3.688-9.979,14.318-21.151,17.138s-25.925-4.122-32-7.051S79.081,93.958,78,93.416s-6.183-1.953-5.857-3.037,5.1.542,4.773.542-4.881-2.6-4.339-3.145,4.339.65,4.339.65-4.664-2.711-4.122-3.688,4.989,1.41,4.989,1.41-3.253-2.386-2.494-3.253,5.64,2.711,5.64,2.711-1.41-2.44-.651-2.848,3.471,3.173,3.8,3.5,5.857,1.952,13.559,3.037,14.209,1.952,20.066-1.519a26.728,26.728,0,0,0,9-9.546,22.652,22.652,0,0,1,8.678,3.9,20.266,20.266,0,0,1,6.183,6.509" transform="translate(385.359 -13.169)" fill="#f9b88c"/>
        <path id="Trazado_141482" data-name="Trazado 141482" d="M105.011,31.886a1.871,1.871,0,0,0,.814.165c.128,2.515.927,7.685.994,8.151a11.728,11.728,0,0,1-3.182,5.351c-1.736,1.446-2.169,1.157-2.748.434-.444-.555-2.373-4.039-3.249-5.635,5.722-2.342,7.371-8.466,7.371-8.466" transform="translate(398.876 -5.368)" fill="#eaa475"/>
        <path id="Trazado_141483" data-name="Trazado 141483" d="M250.781,47.477c.538,1.849,2.933,2.4,2.933,2.4a17.209,17.209,0,0,0,2.073,7.167c1.536,2.907,3.766,5.294,6.17,5.415a9.451,9.451,0,0,0,3.852-.6,12.464,12.464,0,0,0,5.163-4c.338-.4.651-.824.963-1.267a21.625,21.625,0,0,0,2.422-4.877A31.418,31.418,0,0,0,276.38,40.76a53.8,53.8,0,0,1-7.272.539c-2.707-.1-6.717-1.2-9.649-.539-2.933.643-5.536,4.01-5.536,4.01s-.434-1.954-1.3-2.5-2.378,3.367-1.84,5.205" transform="translate(102.046 -6.826)" fill="#f9b88c"/>
        <path id="Trazado_141484" data-name="Trazado 141484" d="M340.742,151.451c.325,1.736,1.084,6.617,0,7.159s-1.519-3.579-1.519-3.579-2.169,6.4-3.145,5.857.867-6.074.867-6.074-3.688,6.248-4.772,6.107,2.061-7.626,2.061-7.626-3.579,6.183-4.339,5.749,2.061-6.539,2.061-6.539-1.771,3.176-2.929,2.308,6.139-8.895,6.139-8.895Z" transform="translate(-27.939 -24.564)" fill="#f9b88c"/>
        <path id="Trazado_141485" data-name="Trazado 141485" d="M346.683,122.326c.867-.109,5.857-.434,7.267-1.844s3.579-2.061,2.6,0-1.193,2.711-.759,2.82,5.1-1.193,5.315,0-3.579,1.952-3.579,1.952,4.918-.325,4.918.868-4.918,2.386-4.918,2.386,3.037-1.084,3.146,0-4.773,1.844-4.773,1.844,2.82-.217,2.6,1.085-6.508,1.518-9.762,1.735-3.688,0-3.688,0,.542-3.8.867-6.508a7.355,7.355,0,0,0-.867-4.556Z" transform="translate(-62.516 -20.061)" fill="#f9b88c"/>
        <path id="Trazado_141486" data-name="Trazado 141486" d="M110.327,21.867a10.219,10.219,0,0,0-4.65-1.374c-1.063-.145-1.425,1.012-.7,1.374s5.351,0,5.351,0" transform="translate(389.582 -3.448)" fill="#89453c"/>
        <path id="Trazado_141487" data-name="Trazado 141487" d="M84.675,20.335s.078.2.208.521a29.41,29.41,0,0,0,2.343,4.712c.261.39.53.832.816,1.292.33.521.669,1.068,1.041,1.588a6.515,6.515,0,0,0,3.489,2.889c2.464.581,5.137-.286,5.423-2.959s-4.261-8.539-4.261-8.539a1.951,1.951,0,0,0-1.458-.165,4.4,4.4,0,0,0-.642.165,7.4,7.4,0,0,1-2.187.243,24.014,24.014,0,0,0-4.772.252" transform="translate(418.472 -3.303)" fill="#489e99"/>
        <path id="Trazado_141488" data-name="Trazado 141488" d="M35.184,272.992c.724,2.389,1.736,7.884,1.736,7.884s-14.463,10.863-14.9,10.863,4.918-11.731,4.918-11.731Z" transform="translate(531.686 -45.955)" fill="#f26453"/>
        <path id="Trazado_141489" data-name="Trazado 141489" d="M164.173,281.429s-2.6,6.942-3.182,6.8-18.656,0-18.656,0L155.5,282.3Z" transform="translate(304.353 -47.375)" fill="#f26453"/>
        <path id="Trazado_141490" data-name="Trazado 141490" d="M257.4,45.08a4.089,4.089,0,0,0-3.688-1.356c-.868.108-1.139,1.193-.651,1.356s.573-.271,2.048-.271a7.941,7.941,0,0,1,2.29.271" transform="translate(119.231 -7.354)" fill="#d57c29"/>
        <path id="Trazado_141491" data-name="Trazado 141491" d="M265.419,43.476a6.012,6.012,0,0,1,4.5-.881c1.3.325,1.029,1.514.324,1.6a42.092,42.092,0,0,1-4.826-.717" transform="translate(95.326 -7.147)" fill="#d57c29"/>
        <path id="Trazado_141492" data-name="Trazado 141492" d="M267.8,46.4c1.139.217-.054,3.471-.651,3.308s-.488-3.525.651-3.308" transform="translate(96.737 -7.81)" fill="#1d3927"/>
        <path id="Trazado_141493" data-name="Trazado 141493" d="M256.06,47.838c.813.271.054,3.2-.813,3.145s0-3.416.813-3.145" transform="translate(118.515 -8.05)" fill="#1d3927"/>
        <path id="Trazado_141494" data-name="Trazado 141494" d="M317.383,208.617c-1,3.155-9.677,17.763-16.186,25.717s-22.272,19.519-31.239,24.946c0,0-3.76-4.988-3.615-7.591s2.458-17.21,15.475-27.334,15.33-9.979,16.632-13.016c1-2.325,3.009-14.306,3.9-19.8a49.043,49.043,0,0,0,3.876,5.662,114.28,114.28,0,0,0,11.16,11.415" transform="translate(48.014 -32.244)" fill="#386a5d"/>
        <path id="Trazado_141495" data-name="Trazado 141495" d="M202.021,161.548c.061.329.131.66.2.989A76.182,76.182,0,0,0,211,184.673a50.331,50.331,0,0,0,3.871,5.667,81.81,81.81,0,0,0,5.709,6.222.121.121,0,0,1,.035.034c1.77,1.761,3.636,3.523,5.423,5.155,5.241,4.79,9.883,8.547,9.883,8.547.321,3.905,3.792,15.29,12.357,27.334,7.853,11.02,19.9,21.511,23.108,23.012a1.3,1.3,0,0,0,.651.191c1.631-.208,8.139-1.944,8.139-1.944S259.127,218.541,254.9,210.3c-2.863-5.58-9.754-19.611-13.9-28.089-.1-.209-.2-.408-.3-.607-1.484-3.029-2.568-5.259-2.924-5.988a.656.656,0,0,1-.069-.139c-.035-.078-.052-.112-.052-.112.225-.651.434-1.354.625-2.092,1.918-7.2,2.525-17.936,2.092-21.789-1.8.746-7.576,2.6-19.533,1.84-6.118-.391-10.482-.9-13.5-1.363-.174-.026-.339-.043-.495-.077a35.248,35.248,0,0,1-5.423-1.137,35.73,35.73,0,0,0,.6,10.8" transform="translate(139.361 -25.376)" fill="#489e99"/>
        <path id="Trazado_141496" data-name="Trazado 141496" d="M193.287,132.412c.816,1.8,3.809,4.191,5.042,5.137.33.251.538.4.538.4s7.914-15.29,14.2-23.534c5.779-7.566,12.556-15.333,13.623-16.548.1-.1.148-.165.148-.165-.07.537-.113,1.848-.148,3.688-.008.538-.017,1.119-.017,1.736-.008,1.241-.017,2.638-.017,4.139v2.664c0,11.4.182,26.5.182,26.5.095.034,4.711,1.631,19.42,2.577.494.034.981.061,1.458.086.147,0,.294.008.433.017,10.682.46,15.94-1.241,17.641-1.944a6.064,6.064,0,0,0,.642-.3c.113-2.6,0-28.089,0-28.089s.209.33.573.911c2.447,3.818,11.975,18.4,16.027,19.914,4.66,1.736,9,1.3,15.29-3.037,3-2.073,6.308-6.23,8.946-10,2.873-4.122,4.938-7.784,4.938-7.784l-5.423-7.705s-17.9,13.45-18.544,13.45c-.659,0-2.6-3.141-4.451-6.508-1.579-2.873-8.53-16.175-14.171-25.139-.963-1.536-1.891-2.942-2.75-4.147q-.4-.56-.807-1.068a18.374,18.374,0,0,0-3.107-3.063,15.03,15.03,0,0,0-3.124-1.918,13.776,13.776,0,0,0-5.944-1.353c-.3.008-.468.026-.468.026l.976-3.471s-2.876.251-4.56.259H249.4a13.312,13.312,0,0,1-2.6-.234,17.464,17.464,0,0,1-4.547-2.2l.1,4.773s-1.883.468-4.686,1.336a100.745,100.745,0,0,0-11.289,4.165,29.128,29.128,0,0,0-9.043,7.054c-8.148,8.92-11.757,13.259-16.1,22.909s-7.957,26.466-7.957,26.466" transform="translate(113.94 -11.061)" fill="#f26453"/>
        <path id="Trazado_141497" data-name="Trazado 141497" d="M283.208,104.363c-.008,1.241-.017,2.638-.017,4.139,1.129-2.464,2.751-6.352,4.417-11.116,3.037-8.678,6.508-20.965,6.6-24.331a100.814,100.814,0,0,0-11.29,4.165c.3,2.985.7,7.063.937,10.482a78.849,78.849,0,0,1-.625,11.4c.1-.1.147-.165.147-.165-.069.538-.112,1.848-.147,3.688-.009.538-.017,1.119-.017,1.736" transform="translate(57.41 -12.298)" fill="#c3dad2"/>
        <path id="Trazado_141498" data-name="Trazado 141498" d="M407.864,21.118a4.345,4.345,0,0,1,.972.749c.03,2.747-13.074,13.771-19.259,17.959a1.713,1.713,0,0,1,.046-.247,41.751,41.751,0,0,1,7.759-11.3c7.376-7.81,8.895-8.026,10.482-7.159" transform="translate(-145.933 -3.496)" fill="#89453c"/>
        <path id="Trazado_141499" data-name="Trazado 141499" d="M385.009,43.252a13.268,13.268,0,0,0,4.972,2.03,20.905,20.905,0,0,0,3.774.434,20.465,20.465,0,0,0,3.827-.278,21.8,21.8,0,0,0,4.157-1.128c.494-.66,1.423-2.265,1.605-2.542.208-.321,5.961-1.623,5.961-1.623s-3.15-5.962-2.491-8.565c.547-2.195.929-5.527.009-7.653a7.882,7.882,0,0,0-1.319-1.831c0,2.769-13.086,13.762-19.255,17.954a1.2,1.2,0,0,1,.043-.252,22.106,22.106,0,0,0-1.284,3.454" transform="translate(-142.602 -3.72)" fill="#f9b88c"/>
        <path id="Trazado_141500" data-name="Trazado 141500" d="M388,22.018l.651.828a3.789,3.789,0,0,1,.665,1.065,7.925,7.925,0,0,0-1.321-1.833c0-.019.006-.042,0-.06" transform="translate(-125.088 -3.706)" fill="#d07528"/>
        <path id="Trazado_141501" data-name="Trazado 141501" d="M366.591,102.606c2.456,10.048,11.862,16.123,24.3,20.166s26.032,1.554,26.032,1.554a20.256,20.256,0,0,0,.955-4.209c.46-3.774-.208-6.751-.955-6.846a121.066,121.066,0,0,1-11.862-4.339c-5.493-2.429-13.016-6.837-14.89-9.441s-.729-14.031-1.007-19.082-3.48-10.708-8.052-12.972c-3.323-1.64-8.035-.694-11.419,2.29a12.213,12.213,0,0,0-3.1,4.166c-2.751,6.074-2.456,18.656,0,28.713" transform="translate(-134.38 -11.218)" fill="#d07528"/>
        <path id="Trazado_141502" data-name="Trazado 141502" d="M405.923,144.941c.348-.043,1.545-.182,3.359-.556a60.52,60.52,0,0,0,6.942-1.857,67.127,67.127,0,0,0,7.913-3.219c10.2-4.92,16.7-7.375,19.142-9.8l-5.206-2.69a18.649,18.649,0,0,1-4.893-4.061s-10.847,7.723-17.936,10.187a29.1,29.1,0,0,1-9.181,1.736,76.73,76.73,0,0,0-.14,10.257" transform="translate(-193.878 -20.665)" fill="#489e99"/>
        <path id="Trazado_141503" data-name="Trazado 141503" d="M467.353,86.024l3.983,2.369,6.647-16.235a21.776,21.776,0,0,1-5.18-4.434c-1.076,2.916-2.082,5.892-3.063,8.807a69.251,69.251,0,0,0-2.386,9.493" transform="translate(-279.761 -11.4)" fill="#89453c"/>
        <path id="Trazado_141504" data-name="Trazado 141504" d="M488,276.635c4.989,2.82,8.678,12.09,8.678,12.09l-18.551-11.113,2.28-6.617Z" transform="translate(-307.424 -45.619)" fill="#1d3927"/>
        <path id="Trazado_141505" data-name="Trazado 141505" d="M437.178,226.94a20.954,20.954,0,0,0,4.478,4.538c.3.235.607.46.937.685a24.008,24.008,0,0,0,7.41,3.063,58.507,58.507,0,0,0,7.072,1.363c2.568-3.141,6.161-11.064,9.6-19.62-2.43.251-5.051.451-7.663.5a44.219,44.219,0,0,1-9.6-.694,16.7,16.7,0,0,1-5.19-1.865,40.083,40.083,0,0,1-1.2,4.339c-1.067,2.672-3.141,4.92-5.848,7.688" transform="translate(-243.356 -36.178)" fill="#f8b348"/>
        <path id="Trazado_141506" data-name="Trazado 141506" d="M564.943,92.463c5.085-8.3,16.747-27.751,21.242-31.967a21.286,21.286,0,0,1,5.406-3.653,22.352,22.352,0,0,1,8.478-2.213.248.248,0,0,0,.078-.008c.729-.086,1.38-1.336,1.848-2.595a22.061,22.061,0,0,0,.79-2.6,2.981,2.981,0,0,1-2.169-2.4c-.087-1.075-.72-2.169,2.351-3.67,0,0,.469-3.705,4.157-9.233.269-.4.546-.781.824-1.154-5.788-2.621-12.66-4.459-19.264-.65a22.917,22.917,0,0,0-4.191,3.106,33.455,33.455,0,0,0-5.485,6.742c-2.351,3.671-4.069,7.411-5.8,10.127-3.471,5.476-11.281,19.507-12.877,26.014-1.346,5.5-.087,10.274,4.607,14.153" transform="translate(-486.635 -5.075)" fill="#d07528"/>
        <path id="Trazado_141507" data-name="Trazado 141507" d="M536.15,49.3a2.552,2.552,0,0,0,1.137,1.893,3.81,3.81,0,0,0,1.032.5,29.415,29.415,0,0,0,.755,7.263c.07.235.156.478.26.738,1.258,3.125,5.25,7.844,11.567,5.337a11.119,11.119,0,0,0,1.3-.616,16.959,16.959,0,0,0,3.7-2.828,23.51,23.51,0,0,0,1.614-1.745c3.349-3.9,5.545-8.572,5.753-9.883,0,0-7.705-5.866-13.606-6.248a22.727,22.727,0,0,0-4.018.113,27.783,27.783,0,0,0-7.029,1.753c-3.2,1.527-2.551,2.629-2.464,3.722" transform="translate(-422.168 -7.352)" fill="#f9b88c"/>
        <path id="Trazado_141508" data-name="Trazado 141508" d="M538.23,33.277c.266-.4.543-.781.824-1.153,3.62-4.781,8.39-7.285,11.108-6.983,2.928.326,6.833,4.881,8.678,9.112s2.494,9.653,0,12.582c0,0-7.7-5.857-13.608-6.243a22.589,22.589,0,0,0-4.014.112,27.764,27.764,0,0,0-7.029,1.756l-.118.05s.472-3.7,4.159-9.233" transform="translate(-417.741 -4.228)" fill="#1d3927"/>
        <path id="Trazado_141509" data-name="Trazado 141509" d="M601.09,101.78c1.96,4.06,8.614,12.738,10.783,14.473s3.327,3.181,0,5.206-9.545,2.169-12.582.867-4.927-6.218-5.211-8.967,1.6-6.363,2.753-8.026a17.917,17.917,0,0,1,4.258-3.554" transform="translate(-521.103 -17.134)" fill="#f8b348"/>
        <path id="Trazado_141510" data-name="Trazado 141510" d="M671.771,240.718c1.736,2.6,2.893,12.872,2.893,12.872L660.2,236.234l6.219-5.061Z" transform="translate(-636.826 -38.915)" fill="#f8b348"/>
        <path id="Trazado_141511" data-name="Trazado 141511" d="M541.289,98.818a8.041,8.041,0,0,0,1.979,0l3.948-6.282c.538-1.493,1.207-3.237,2.005-5.145,2.056-4.912,2.429-13.529,1.709-19.837-.694-.685-1.406-1.336-2.135-1.926-.165-.139-.347-.278-.529-.408a15.434,15.434,0,0,1-5,3.445c-.208.087-.417.156-.616.226a80.242,80.242,0,0,1,1.415,13.875c-.139,6.943-2.777,16.054-2.777,16.054" transform="translate(-414.535 -10.979)" fill="#489e99"/>
        <path id="Trazado_141512" data-name="Trazado 141512" d="M122.706,21.107c.73-.33-1.374-1.645-3.543-1.492s-2.133,1.162-2.133,1.162,4.953.657,5.676.33" transform="translate(366.718 -3.3)" fill="#89453c"/>
        <path id="Trazado_141513" data-name="Trazado 141513" d="M391.291,33.188c1.084-.434,5.279-1.446,5.64-.434s-1.157,1.085-2.82.868-2.82-.434-2.82-.434" transform="translate(-135.507 -5.44)" fill="#89453c"/>
        <path id="Trazado_141514" data-name="Trazado 141514" d="M548.389,46.654c2.169-.145,4.773-.145,5.568,1.012s-.723,1.663-1.808.8a17.534,17.534,0,0,0-3.76-1.808" transform="translate(-423.351 -7.843)" fill="#89453c"/>
        <path id="Trazado_141515" data-name="Trazado 141515" d="M542.7,53.224c-.48-1.011-1.921-2.949-3.684-3.033s-1.521,1.179,0,1.516a18.184,18.184,0,0,1,3.684,1.517" transform="translate(-403.054 -8.448)" fill="#89453c"/>
        <path id="Trazado_141516" data-name="Trazado 141516" d="M91.541,11.695a20.039,20.039,0,0,1,11.359-.937c4.018.868,6.82,3.037,7.333,4.339l.7,1.935a24.014,24.014,0,0,1,4.772-.252,7.4,7.4,0,0,0,2.186-.243,4.309,4.309,0,0,1,.643-.165,18.444,18.444,0,0,0-2.265-9.641,10.606,10.606,0,0,0-1.485-1.979c-3.253-3.4-7.081-5.276-11.888-4.625S94.1,2.8,93.095,5.62a40.188,40.188,0,0,0-1.554,6.074" transform="translate(392.211 0)" fill="#489e99"/>
        <path id="Trazado_141517" data-name="Trazado 141517" d="M107.3,13.788a20.073,20.073,0,0,1,11.359-.94c4.02.867,6.828,3.036,7.334,4.338,0,0-2.675.724-5.857,1.222a105.069,105.069,0,0,1-13.233,1.165c-.134,0-.258,0-.386-.008-3.609-.08-4.965-1.261-4.965-2.379,0-1.157,2.964-2.169,5.748-3.4" transform="translate(376.443 -2.093)" fill="#c3dad2"/>
        <path id="Trazado_141518" data-name="Trazado 141518" d="M95.629,67.013C94.544,70.267,91.615,77.1,91.615,77.1s-3.285,5.042-5.927,6.914Z" transform="translate(420.008 -11.281)" fill="#d57c29"/>
        <path id="Trazado_141519" data-name="Trazado 141519" d="M199.224,113.741l.885,2.421c2.448,3.818,11.975,18.4,16.028,19.915,4.66,1.735,9,1.3,15.289-3.037,3-2.074,6.308-6.231,8.946-10-5.8,5.232-14.483,10.768-19.793,9.1-6.509-2.031-19.2-27.959-19.2-27.959Z" transform="translate(180.842 -17.537)" fill="#bf5649"/>
        <path id="Trazado_141520" data-name="Trazado 141520" d="M263.914,72.46c-.3.008-.468.026-.468.026s-.217.538.468-.026" transform="translate(103.916 -12.198)" fill="#bf5649"/>
        <path id="Trazado_141521" data-name="Trazado 141521" d="M266.317,67.012a5.644,5.644,0,0,1-2.3-1.212l-.637-5.425c1.536,2.91,3.768,5.292,6.169,5.412a9.455,9.455,0,0,0,3.861-.593c-.331.825-.62,1.445-.841,1.884a29.933,29.933,0,0,1-6.249-.067" transform="translate(94.453 -10.163)" fill="#eaa475"/>
        <path id="Trazado_141522" data-name="Trazado 141522" d="M267.349,67.9l.029,0a29.987,29.987,0,0,0,6.249.067c.789-.052,1.319-.1,1.319-.1l-.976,3.471a16.163,16.163,0,0,1-11.064-.867l-.1-4.773a17.449,17.449,0,0,0,4.547,2.2" transform="translate(93.392 -11.061)" fill="#bf5649"/>
        <path id="Trazado_141523" data-name="Trazado 141523" d="M295.393,142.612c.33.251.538.4.538.4s7.914-15.29,14.2-23.534c5.779-7.566,12.556-15.333,13.623-16.548.1-.1.148-.165.148-.165-.07.521-.113,1.761-.139,3.488l.59-10.474s-11.983,11.94-15.792,18.058c-3.489,5.589-9.988,19.794-13.173,28.775" transform="translate(16.876 -16.123)" fill="#bf5649"/>
        <path id="Trazado_141524" data-name="Trazado 141524" d="M244.176,74.088c.59,2.447,1.771,7.437,2.864,12.513,1.519,7.019,3.742,23.637,3.742,24.122.034-.234,1.1-4.211,1.878-8.387,1-5.383,2.085-9.479,1.3-18.052-.963-1.536-1.891-2.942-2.75-4.148q-.405-.559-.808-1.067L247.3,76.006a15.057,15.057,0,0,0-3.125-1.918" transform="translate(129.598 -12.472)" fill="#c3dad2"/>
        <path id="Trazado_141525" data-name="Trazado 141525" d="M258.45,177.866c.225-.651.434-1.354.625-2.092l-7.462-10.161Z" transform="translate(118.57 -27.879)" fill="#386a5d"/>
        <path id="Trazado_141526" data-name="Trazado 141526" d="M211.807,205.878c1.771,1.761,3.636,3.523,5.423,5.155,5.241,4.79,9.883,8.547,9.883,8.547.321,3.9,3.792,15.29,12.357,27.334,7.853,11.019,19.9,21.511,23.108,23.012-4.694-5.536-14.577-17.328-20.391-25.077-7.81-10.413-11.5-23.864-11.932-25.816s-10.473-5.718-18.448-13.155" transform="translate(148.171 -34.657)" fill="#386a5d"/>
        <path id="Trazado_141527" data-name="Trazado 141527" d="M612.04,164.686c.017.877.035,1.831.052,2.846a93.348,93.348,0,0,0,8.478,4.816l5.2-14.986.052-.147.113-.321.858-2.482s-9.336-6.464-13.05-10.647c-.312,1.718-.572,3.427-.781,5.085,0,.035-.008.061-.008.1-.07.512-.131,1.024-.191,1.527a111.924,111.924,0,0,0-.72,14.214" transform="translate(-548.892 -24.201)" fill="#89453c"/>
        <path id="Trazado_141528" data-name="Trazado 141528" d="M612.029,148.85a27.052,27.052,0,0,0,12.86,8.365l.971-2.8s-9.336-6.464-13.05-10.647c-.313,1.718-.573,3.427-.781,5.085" transform="translate(-547.96 -24.201)" fill="#423f2f"/>
        <path id="Trazado_141529" data-name="Trazado 141529" d="M566.756,161.02l.8,2.916.052.2.087.321,3.9,14.352,3.887,1.242c-.069-3.35-.165-6.925-.286-10.5,0-.183-.008-.356-.017-.538-.069-2.256-.147-4.5-.234-6.691-.027-.842-.062-1.675-.1-2.5-2.777.512-8.1,1.2-8.1,1.2" transform="translate(-459.933 -26.904)" fill="#89453c"/>
        <path id="Trazado_141530" data-name="Trazado 141530" d="M567.4,161.02l.85,3.115a63.916,63.916,0,0,0,7.342-1.814c-.027-.842-.062-1.675-.1-2.5-2.777.512-8.1,1.2-8.1,1.2" transform="translate(-460.579 -26.904)" fill="#423f2f"/>
        <path id="Trazado_141531" data-name="Trazado 141531" d="M437.178,235.643a58.34,58.34,0,0,0,7.072,1.362c2.568-3.141,6.161-11.064,9.6-19.62-2.429.252-5.05.452-7.662.5-1.683,5.467-3.826,12.374-9.007,17.754" transform="translate(-230.53 -36.595)" fill="#d57c29"/>
        <path id="Trazado_141532" data-name="Trazado 141532" d="M366.773,103.231c2.456,10.048,11.862,16.123,24.3,20.166s26.032,1.554,26.032,1.554a20.256,20.256,0,0,0,.955-4.209c-6.525,1.189-17.78-.234-24.861-2.742-7.333-2.594-15.68-8.79-18.509-13.554-2.812-4.765-7.333-27.516-4.816-34.094a12.213,12.213,0,0,0-3.1,4.166c-2.751,6.074-2.456,18.656,0,28.713" transform="translate(-134.562 -11.843)" fill="#ad5e35"/>
        <path id="Trazado_141533" data-name="Trazado 141533" d="M493.292,96.562l.729,1.892,1.831,4.755h1.491l-.8,1.554a29.1,29.1,0,0,0,5.163,8.114c4.877,4.824,15.723,13.4,23.967,16.218s9.979,3.357,9.979,3.357a19.378,19.378,0,0,1,1.605-3.071c-6.2-1.562-18.726-7.22-24.123-12.279-5.5-5.146-17.068-27.967-17.068-27.967Z" transform="translate(-360.611 -15.005)" fill="#1d3927"/>
        <path id="Trazado_141534" data-name="Trazado 141534" d="M543.126,102.381A13.022,13.022,0,0,0,553.1,114.9c6.7,1.623,24.072-.53,24.575-.581l.008-.008s10.308-2.057,13.884-4.339c0,0,0-1.7.209-3.706-.226.131-4.053,2.221-15.541,4.409-11.854,2.265-22.267-1.1-24.87-2.526s-5.788-9.241-4.052-19.8a121.092,121.092,0,0,1,2.733-12.278c-1.709,2.5-3.566,5.353-5.388,8.243,0,.008-.009.008-.009.008-1.509,6.031-1.648,14.222-1.527,18.058" transform="translate(-456.548 -12.806)" fill="#1d3927"/>
        <path id="Trazado_141535" data-name="Trazado 141535" d="M556.546,59.685a7.075,7.075,0,0,0,5.059,6.795,20.777,20.777,0,0,0,6,.816c-3.662-.573-6.022-3.688-6.942-5.97-.1-.26-.19-.5-.26-.738a29.415,29.415,0,0,1-.755-7.263c0,.008-1.188,5.206-2.715,5.206-.122,0-.278.009-.469.017.043.625.078,1.137.078,1.137" transform="translate(-443.502 -8.977)" fill="#8cbab5"/>
        <path id="Trazado_141536" data-name="Trazado 141536" d="M533.413,105.366c1.736-1.41,6.725-2.278,7.81,1.084s-.651,8.787-1.519,8.895-.759-3.9-.759-3.9.325,3.367-.651,3.907-1.519-3.148-1.519-3.148-2.6,3.471-5.64,2.494c0,0-.759-1.626,0-4.934s2.278-4.394,2.278-4.394" transform="translate(-396.111 -17.527)" fill="#f9b88c"/>
        <path id="Trazado_141537" data-name="Trazado 141537" d="M567.021,43.237c1.683,1.137,4.738,3.323,6.057,5.1a68.9,68.9,0,0,1,6.525,9.572c2.082,3.844,3.969,7.3,4.4,12.635a31.388,31.388,0,0,1-.57,6.772,71.183,71.183,0,0,1-3.983,13.472,52.544,52.544,0,0,0,5.927-5.823c2.75-3.236,6.074-14.127,3.9-25.112a31.817,31.817,0,0,0-1.119-4.165,36.933,36.933,0,0,0-15.654-19.195,33.43,33.43,0,0,0-5.484,6.742" transform="translate(-474.647 -6.144)" fill="#489e99"/>
        <path id="Trazado_141538" data-name="Trazado 141538" d="M84.675,24.919c.329.521.668,1.067,1.041,1.588A6.517,6.517,0,0,0,89.2,29.4c2.464.581,5.136-.287,5.423-2.959S90.366,17.9,90.366,17.9a1.948,1.948,0,0,0-1.457-.165,18.444,18.444,0,0,0-2.265-9.641,62.622,62.622,0,0,1-.565,10.048,52.124,52.124,0,0,1-1.406,6.777" transform="translate(421.838 -1.363)" fill="#386a5d"/>
        <path id="Trazado_141539" data-name="Trazado 141539" d="M114.99,31.434a.226.226,0,0,0,.08-.015l3.11-1.23a.217.217,0,0,0-.16-.4L115.3,30.86c.7-2.781,1.883-7.5,1.99-7.822a.217.217,0,1,0-.412-.136c-.146.44-2.022,7.943-2.1,8.263a.217.217,0,0,0,.21.269" transform="translate(373.133 -3.83)" fill="#cc6e24"/>
        <path id="Trazado_141540" data-name="Trazado 141540" d="M113.491,37.123a4.583,4.583,0,0,0,2.87-1.212.217.217,0,1,0-.3-.313c-.017.016-1.726,1.632-3.6.894a.217.217,0,0,0-.159.4,3.229,3.229,0,0,0,1.189.226" transform="translate(377.191 -5.983)" fill="#f25e4c"/>
        <path id="Trazado_141541" data-name="Trazado 141541" d="M85.644,86.314a.218.218,0,0,0,.091-.02c2.208-1.023,4.184-3.009,7.28-6.55,2.609-2.984,4.445-8.479,5.432-11.431.171-.513.316-.946.432-1.269a.217.217,0,1,0-.408-.147c-.118.325-.264.761-.437,1.279-.977,2.923-2.8,8.364-5.347,11.282-2.988,3.419-5.011,5.458-7.136,6.442a.217.217,0,0,0,.091.414" transform="translate(416.961 -11.237)" fill="#89453c"/>
        <path id="Trazado_141542" data-name="Trazado 141542" d="M120.487,89.929a.217.217,0,0,0,.2-.133c.035-.083,3.486-8.33,3.671-8.784a.217.217,0,0,0-.4-.163c-.184.451-3.635,8.7-3.669,8.779a.217.217,0,0,0,.116.284.229.229,0,0,0,.084.017" transform="translate(362.501 -13.587)" fill="#89453c"/>
        <path id="Trazado_141543" data-name="Trazado 141543" d="M60.438,136.989c3.194,5.12,6.309,9.467,11.341,10.543-.035-.156-.078-.313-.121-.468-4.755-1.137-7.775-5.363-10.856-10.3a.214.214,0,1,0-.364.225" transform="translate(464.887 -23.005)" fill="#f8b348"/>
        <path id="Trazado_141544" data-name="Trazado 141544" d="M64.387,138.078c4.182,1.18,14.031,3.6,23.3,3.055,10.335-.608,18.569-2.681,24.227-6.769a20.461,20.461,0,0,0-1.666-4.226s-6.282,4.235-17.563,5.64a84.551,84.551,0,0,1-22.353,0,12.374,12.374,0,0,1-5.093-1.632s-.313,1.45-.851,3.931" transform="translate(421.439 -21.907)" fill="#89453c"/>
        <path id="Trazado_141545" data-name="Trazado 141545" d="M256.052,141.906a.214.214,0,0,0,.1-.026.217.217,0,0,0,.091-.293,23.308,23.308,0,0,0-5.487-6.578.214.214,0,0,0-.3.038.217.217,0,0,0,.039.3,22.774,22.774,0,0,1,5.368,6.438.217.217,0,0,0,.192.116" transform="translate(122.378 -22.719)" fill="#89453c"/>
        <path id="Trazado_141546" data-name="Trazado 141546" d="M286.626,141.255a.217.217,0,0,0,.181-.1,46.492,46.492,0,0,1,4.639-5.826.217.217,0,1,0-.313-.3,46.848,46.848,0,0,0-4.689,5.889.217.217,0,0,0,.181.335" transform="translate(57.199 -22.72)" fill="#89453c"/>
        <path id="Trazado_141547" data-name="Trazado 141547" d="M268.285,139.586c.147,0,.3.008.434.017.182-5.129.842-23.646.971-31.317.043-3.037.148-7.922.252-13.294.208-10.152.434-21.58.46-26.362h-.434c-.026,4.773-.251,16.2-.46,26.354-.1,5.372-.208,10.257-.251,13.3-.131,7.662-.782,26.162-.972,31.3" transform="translate(93.376 -11.553)" fill="#89453c"/>
        <path id="Trazado_141548" data-name="Trazado 141548" d="M288.819,161.778c.061.329.131.66.2.989a27.16,27.16,0,0,1,5.12-10.578c-.174-.026-.339-.043-.495-.077a27.642,27.642,0,0,0-4.824,9.666" transform="translate(52.563 -25.606)" fill="#1d3927"/>
        <path id="Trazado_141549" data-name="Trazado 141549" d="M243.675,217.325a9.2,9.2,0,0,0,2.369-.324.216.216,0,0,0,.154-.265.213.213,0,0,0-.265-.153,6.838,6.838,0,0,1-5.353-.457.217.217,0,1,0-.245.358,6.211,6.211,0,0,0,3.342.842" transform="translate(140.898 -36.376)" fill="#1d3927"/>
        <path id="Trazado_141550" data-name="Trazado 141550" d="M257.856,184.9l.384-.2s-7.788-14.81-9.718-18.468a.217.217,0,0,0-.384.2c1.93,3.658,9.718,18.469,9.718,18.469" transform="translate(122.314 -27.963)" fill="#1d3927"/>
        <path id="Trazado_141551" data-name="Trazado 141551" d="M397.393,61.37a.235.235,0,0,0,.208.148.157.157,0,0,0,.07-.018,48.048,48.048,0,0,0,5.936-2.586l.408-.738a43.239,43.239,0,0,1-6.482,2.916.223.223,0,0,0-.139.278" transform="translate(-147.601 -9.793)" fill="#1d3927"/>
        <path id="Trazado_141552" data-name="Trazado 141552" d="M381.339,145.034c.72,2.621,3.523,12.834,4.538,14.014.356.408,3.28,4.486,6.985,9.641,7.914,11.02,19.872,27.664,21.242,28.783a15.08,15.08,0,0,1,5.822,14.127c-.329,2.863-.763,5.58-1.223,8.452a144.277,144.277,0,0,0-2.03,18.135,184.011,184.011,0,0,0,1.067,23.594c.147.026.3.043.442.061a183.986,183.986,0,0,1-1.076-23.637,143.836,143.836,0,0,1,2.022-18.084c.46-2.881.894-5.605,1.223-8.478a15.484,15.484,0,0,0-5.97-14.508c-1.327-1.084-13.268-17.7-21.164-28.7-3.6-5.016-6.274-8.729-6.907-9.545a34.107,34.107,0,0,0,4.79-14.439c-.147,0-.3.008-.442.008a33.821,33.821,0,0,1-4.617,14.058c-.963-1.735-3.228-9.719-4.261-13.528-.147.017-.3.026-.442.043" transform="translate(-150.725 -24.317)" fill="#c3dad2"/>
        <path id="Trazado_141553" data-name="Trazado 141553" d="M546.582,60.439h.016a.218.218,0,0,0,.19-.147c.632-1.88,2.31-6.834,2.482-7.179a.217.217,0,0,0-.1-.291.22.22,0,0,0-.291.1c-.189.378-1.811,5.175-2.342,6.748l-1.352-2.629a.217.217,0,0,0-.387.2l1.588,3.085a.217.217,0,0,0,.193.118" transform="translate(-415.463 -8.888)" fill="#cc6e24"/>
        <path id="Trazado_141554" data-name="Trazado 141554" d="M554.921,64.436a2.622,2.622,0,0,0,.772-.1.217.217,0,0,0-.144-.41c-.091.032-2.256.739-3.706-2.334a.217.217,0,0,0-.393.185c1.074,2.275,2.572,2.665,3.471,2.665" transform="translate(-427.539 -10.347)" fill="#f25e4c"/>
        <path id="Trazado_141555" data-name="Trazado 141555" d="M573.029,209.176a5.211,5.211,0,0,0,1.005-.1.217.217,0,0,0,.171-.255.214.214,0,0,0-.255-.17,3.54,3.54,0,0,1-3.958-1.6.217.217,0,0,0-.388.2,3.905,3.905,0,0,0,3.426,1.933" transform="translate(-461.007 -34.834)" fill="#1d3927"/>
        <path id="Trazado_141556" data-name="Trazado 141556" d="M619.2,208.71c.1,0,.207,0,.314-.013a.217.217,0,1,0-.036-.432c-2.8.23-3.668-3.167-3.676-3.2a.217.217,0,0,0-.422.1c.008.037.887,3.545,3.82,3.545" transform="translate(-544.599 -34.492)" fill="#1d3927"/>
        <path id="Trazado_141557" data-name="Trazado 141557" d="M613.061,151.521l1.9,10.335a.228.228,0,0,0,.121.156.176.176,0,0,0,.113.034.236.236,0,0,0,.077-.017,105.076,105.076,0,0,1,10.795-3.618l.052-.148.113-.321c-2.083.278-8.851,2.812-10.865,3.566l-2.117-11.515c-.069.512-.13,1.025-.19,1.528" transform="translate(-549.192 -25.25)" fill="#1d3927"/>
        <path id="Trazado_141558" data-name="Trazado 141558" d="M567.1,164.765l.052.2.087.321,7.506,5.094c0-.182-.008-.356-.017-.538l-7.453-5.059a.178.178,0,0,0-.174-.017" transform="translate(-459.481 -27.734)" fill="#1d3927"/>
        <path id="Trazado_141559" data-name="Trazado 141559" d="M562.453,124.992s2.309-1.089,2.057-2.231c0,0,14.6,4.7,26.3,3.395L588.67,130.3s-18.119-.252-26.217-5.313" transform="translate(-471.684 -20.665)" fill="#1d3927"/>
        <path id="Trazado_141560" data-name="Trazado 141560" d="M382.644,225.388A19.788,19.788,0,0,0,386.47,228a16.573,16.573,0,0,0,5.328,1.8c3.852.59,7.506-1.293,9.9-2.986.442-6.143.433-11.471-.642-14.152-.322-.808-1.015-2.517-1.97-4.859a73.9,73.9,0,0,1-15.333-1.71,72.266,72.266,0,0,1-14.717-4.572c6.951,8.4,14.119,17.2,14.448,18.084.3.815-.156,2.881-.842,5.788" transform="translate(-121.988 -33.923)" fill="#f8b348"/>
        <path id="Trazado_141561" data-name="Trazado 141561" d="M397.846,225.388A19.789,19.789,0,0,0,401.673,228a58.324,58.324,0,0,0,2.221-6.3c1.589-5.519.321-7.932-4.938-15.611a72.266,72.266,0,0,1-14.717-4.572c6.951,8.4,14.119,17.2,14.448,18.084.3.815-.156,2.881-.842,5.788" transform="translate(-137.191 -33.923)" fill="#d57c29"/>
        <path id="Trazado_141562" data-name="Trazado 141562" d="M261.015,55.171a.216.216,0,0,0,.216-.2l.579-8.243a.217.217,0,0,0-.432-.03l-.55,7.827-1.541-1.255a.217.217,0,0,0-.274.337l1.865,1.518a.217.217,0,0,0,.137.049" transform="translate(109.745 -7.827)" fill="#cc6e24"/>
        <path id="Trazado_141563" data-name="Trazado 141563" d="M264.209,60.9a3.429,3.429,0,0,0,1.7-.473c.027-.016.049-.028.062-.034a.219.219,0,0,0,.108-.288.215.215,0,0,0-.286-.108c-.02.009-.053.027-.1.052-1.314.738-2.646.5-3.965-.712a.217.217,0,1,0-.294.319,4.2,4.2,0,0,0,2.77,1.243" transform="translate(103.43 -9.978)" fill="#f25e4c"/>
        <path id="Trazado_141564" data-name="Trazado 141564" d="M278.92,48.129a.224.224,0,0,0,.091-.02.217.217,0,0,0,.106-.288,11.485,11.485,0,0,0-1.591-2.208.217.217,0,0,0-.33.282A11.536,11.536,0,0,1,278.723,48a.216.216,0,0,0,.2.125" transform="translate(77.274 -7.666)" fill="#cc6e24"/>
        <path id="Trazado_141565" data-name="Trazado 141565" d="M110.379,26.606c-1.157-.145-.132-2.893.4-2.893s.753,3.037-.4,2.893" transform="translate(384.324 -3.992)" fill="#1d3927"/>
        <path id="Trazado_141566" data-name="Trazado 141566" d="M121.319,26.135c-1.012-.083-.94-3.344,0-3.123s1.012,3.205,0,3.123" transform="translate(364.562 -3.872)" fill="#1d3927"/>
        <path id="Trazado_141567" data-name="Trazado 141567" d="M105.737,29.017c3.373.307,2.866,7.122-.956,6.774s-2.866-7.122.956-6.774" transform="translate(393.796 -4.883)" fill="#ff9d7b"/>
        <path id="Trazado_141568" data-name="Trazado 141568" d="M120.837,29.065a28.746,28.746,0,0,0,1.3,6.734c1.084-.044,2.092-.9,2.2-2.734.13-2.291-1.7-4.425-3.5-4" transform="translate(362.064 -4.884)" fill="#ff9d7b"/>
        <path id="Trazado_141569" data-name="Trazado 141569" d="M270.878,51.654c2.882-1.44,4.845,3.11,3.579,5.206s-3.841,1.374-4.868-.722-.3-3.688,1.288-4.484" transform="translate(88.241 -8.649)" fill="#ff9d7b"/>
        <path id="Trazado_141570" data-name="Trazado 141570" d="M253.62,60.1c.339-.4.651-.824.963-1.267A21.641,21.641,0,0,0,257,53.959c-.9-.33-2.221.807-3.141,2.039a3.668,3.668,0,0,0-.243,4.1" transform="translate(119.399 -9.074)" fill="#ff9d7b"/>
        <path id="Trazado_141571" data-name="Trazado 141571" d="M398.325,48.77a20.982,20.982,0,0,0,3.775.434,20.6,20.6,0,0,0,3.826-.278c1.5-2.291.99-5.753-2.742-6.092-3.627-.321-5.632,3.653-4.859,5.936" transform="translate(-150.946 -7.208)" fill="#ff9d7b"/>
        <path id="Trazado_141572" data-name="Trazado 141572" d="M550.951,53.074c-1.192-.576.482-3.037,1.494-2.675s-.747,3.037-1.494,2.675" transform="translate(-423.712 -8.478)" fill="#1d3927"/>
        <path id="Trazado_141573" data-name="Trazado 141573" d="M541.428,57.652c-1.338-.369.6-3.4,1.5-2.784s-.714,3-1.5,2.784" transform="translate(-406.196 -9.223)" fill="#1d3927"/>
        <path id="Trazado_141574" data-name="Trazado 141574" d="M566.637,50.676a.216.216,0,0,0,.217-.2,2.705,2.705,0,0,0-.922-1.825.217.217,0,1,0-.313.3,2.379,2.379,0,0,1,.8,1.5.218.218,0,0,0,.208.225Z" transform="translate(-450.308 -8.178)" fill="#cc6e24"/>
        <path id="Trazado_141575" data-name="Trazado 141575" d="M561.8,52.024c2.5.25,2.681,4.525.509,5.9s-3.89.17-4.224-1.833a3.88,3.88,0,0,1,3.715-4.063" transform="translate(-441.017 -8.756)" fill="#ff9d7b"/>
        <path id="Trazado_141576" data-name="Trazado 141576" d="M393.46,38.894c-1.084.072-.724-3.11.507-3.182s.578,3.11-.507,3.182" transform="translate(-134.421 -6.011)" fill="#1d3927"/>
        <path id="Trazado_141577" data-name="Trazado 141577" d="M535.546,270.311h.007a.217.217,0,0,0,.21-.224l-4.793-156.3a.215.215,0,0,0-.224-.21.217.217,0,0,0-.21.224l4.793,156.3a.217.217,0,0,0,.217.21" transform="translate(-390.088 -19.119)" fill="#1d3927"/>
        <path id="Trazado_141578" data-name="Trazado 141578" d="M76.923,107.224c6.86,0,13.272-2.836,19.41-8.549A48.168,48.168,0,0,0,108.775,80a.217.217,0,1,0-.406-.154A47.74,47.74,0,0,1,96.037,98.357c-8.893,8.276-18.363,10.431-28.954,6.583a.217.217,0,1,0-.148.408,29.15,29.15,0,0,0,9.987,1.876" transform="translate(422.563 -13.417)" fill="#89453c"/>
        <path id="Trazado_141579" data-name="Trazado 141579" d="M114.461,135.484a68.69,68.69,0,0,0-1.084,7.593l-2.386-1.29,1.077-6.954Z" transform="translate(380.134 -22.698)" fill="#1d3927"/>
        <path id="Trazado_141580" data-name="Trazado 141580" d="M75.054,132.877l2.82,7.484-2.061.542-3.037-7.267Z" transform="translate(448.501 -22.368)" fill="#1d3927"/>
        <path id="Trazado_141581" data-name="Trazado 141581" d="M391.182,62.217c8.582-1.77,18.431,3.836,21.512,10.517,3.132,6.8,1.345,19.958,1.926,23.2.442,2.447,4.261,4.954,6.083,6.013q.247-2.994.278-6.161A121.531,121.531,0,0,0,418.1,69.966c-5.857-12.322-17.772-15.446-22.986-14.248.182,1.05.269,1.727.269,1.727a25.852,25.852,0,0,0-4.2,4.773" transform="translate(-159.414 -9.34)" fill="#489e99"/>
        <path id="Trazado_141582" data-name="Trazado 141582" d="M486.746,131.942c3.063,1.125,5.857,3.362,5.857,6.508s-.434,6.074-1.084,5.966-.542-3.037-.542-2.712.108,3.579-.434,3.688-.868-3.362-.868-3.362.217,2.825-.759,3.365-2.061-1.412-3.47-3.907-3.145-2.928-2.386-1.844,1.627,3.8.976,4.122-4.013-1.736-4.338-4.122c0,0,.108-1.651,2.278-4.242s3.345-3.984,4.772-3.459" transform="translate(-304.647 -22.192)" fill="#f9b88c"/>
        <path id="Trazado_141583" data-name="Trazado 141583" d="M573.542,103.381a.217.217,0,0,0,0-.434c-.473-.007-1.509-.029-2.882-.059-4.4-.1-12.579-.275-16.4-.24a88.935,88.935,0,0,1-12.812-1.283c.17-1.237,2.805-9.4,3.8-12.2a.217.217,0,1,0-.408-.145c-.042.119-4.126,12.07-3.792,12.635a.25.25,0,0,0,.165.113,91.439,91.439,0,0,0,13.052,1.317c3.82-.036,12,.144,16.391.24,1.374.03,2.41.052,2.884.059Z" transform="translate(-436.809 -14.961)" fill="#89453c"/>
        <path id="Trazado_141584" data-name="Trazado 141584" d="M564.89,44.359c-1.015.619-3.33,3.8-3.4,3.512s-.727-2.144-1.2-2.122a14.193,14.193,0,0,1,2.063-.844,12.644,12.644,0,0,1,2.534-.546" transform="translate(-443.964 -7.467)" fill="#89453c"/>
        <path id="Trazado_141585" data-name="Trazado 141585" d="M543,67.649a16.96,16.96,0,0,0,3.7-2.828,23.709,23.709,0,0,0,1.614-1.745c-1.172-.711-3.489.373-4.521,1.745a3.918,3.918,0,0,0-.79,2.828" transform="translate(-412.961 -10.58)" fill="#ff9d7b"/>
        <path id="Trazado_141586" data-name="Trazado 141586" d="M180.86,107.546c.867-1.953,3.471-3.254,7.7-3.362s8.46,1.953,8.026,3.362-2.928.651-2.928.651a5.659,5.659,0,0,1-2.712,3.8c-2.494,1.628-4.664,3.254-4.664,3.254Z" transform="translate(239.868 -17.537)" fill="#f9b88c"/>
        <path id="Trazado_141587" data-name="Trazado 141587" d="M191.186,108.909c-1.41-.434-5.206-.867-6.291,0s-.186,2.616,1.371,1.9,4.92-1.9,4.92-1.9" transform="translate(242.342 -18.249)" fill="#eaa475"/>
        <path id="Trazado_141588" data-name="Trazado 141588" d="M98.082,136.658c.785.381.217,5.967,0,6.184s-7.169.621-7.918,0-.65-6.282,0-6.069,7.918-.115,7.918-.115" transform="translate(413.868 -23.005)" fill="#bf5649"/>
        <path id="Trazado_141589" data-name="Trazado 141589" d="M105.691,290.721l.924-3.927s-10.009-15.048-21-13.816-17.758,13.816-17.758,13.816l-3.471,6.217Z" transform="translate(426.742 -45.941)" fill="#6d4537"/>
        <path id="Trazado_141590" data-name="Trazado 141590" d="M128.453,289.383a25.454,25.454,0,0,0-9.87-.942,11.358,11.358,0,0,0-7.593,4.869l2.6,3.591,12.106-2.586Z" transform="translate(366.141 -48.529)" fill="#89453c"/>
        <path id="Trazado_141591" data-name="Trazado 141591" d="M345.144,294.591c.145-.669,0-7.255,0-7.255l-11.081-11.209-3.135,5.785-11.237,8.752-.579,4.238Z" transform="translate(-23.701 -46.483)" fill="#89453c"/>
        <path id="Trazado_141592" data-name="Trazado 141592" d="M207.421,291.917l3.11,5.206h-29.5l3.832-7.518Z" transform="translate(225.817 -48.752)" fill="#89453c"/>
        <path id="Trazado_141593" data-name="Trazado 141593" d="M510.888,295.377l.651-5.313-18.552-11.113-7.481,8.283-7.376,8.1Z" transform="translate(-322.281 -46.958)" fill="#5c4435"/>
        <path id="Trazado_141594" data-name="Trazado 141594" d="M617.811,281.261c5.64,1.31,5.64,2.394,5.206,5.54s-4.338,8.352-5.206,8.786-19.524,0-19.524,0,.317-5.482,3.3-6.538,6.409-6.411,9.145-7.2a27.254,27.254,0,0,1,7.075-.585" transform="translate(-533.856 -47.343)" fill="#6d4537"/>
        <path id="Trazado_141595" data-name="Trazado 141595" d="M599.215,274.691c3.9,2.892,4.122,3.108,4.556,6.8s-2.278,8.651-2.278,8.651l-1.844,3.28h-41.5s7.24-18.588,10.918-21.335a19.184,19.184,0,0,1,7.148-3.4s8.487-.868,11.715-1.084,11.281,7.087,11.281,7.087" transform="translate(-481.112 -45.047)" fill="#5c4435"/>
        <path id="Trazado_141596" data-name="Trazado 141596" d="M671.067,255.137c1.165-1.042,9.325,0,9.325,0s10.261,13.241,11.005,14.92c.5,1.129.327,5.412.161,8.09-.815.133-1.653.265-2.523.391-7.44,1.071-11.042,4.194-12.554,6.011l-3.468-4.3L658,278.333a17.338,17.338,0,0,0-9.4,3.572l-.017,0s20.708-25.18,22.479-26.765" transform="translate(-644.232 -42.872)" fill="#5c4435"/>
        <path id="Trazado_141597" data-name="Trazado 141597" d="M625.164,290.151l-.911-1.13c1.512-1.818,5.113-4.941,12.554-6.012.869-.125,1.707-.257,2.522-.391,9.24-1.513,15.072-3.186,20.409,3.3v8.554c-3.521,2.926-6.992,4.656-13.717,5.093a108.456,108.456,0,0,1-17.138-.867c-.324-.051-1.709-2.122-3.016-4.185l.413-2.979Z" transform="translate(-592.005 -47.343)" fill="#5c4435"/>
        <path id="Trazado_141598" data-name="Trazado 141598" d="M668.856,286.693a17.348,17.348,0,0,1,9.4-3.572l15.009,1.912,3.468,4.3.911,1.13,1.117,1.386-.413,2.979-.022.155c-4.339,1.664-8.243,5.328-13.667,3.055s-13.233-1.166-13.233-1.166l-6.942-4.948a15.348,15.348,0,0,1,4.373-5.234" transform="translate(-664.483 -47.66)" fill="#89453c"/>
        <path id="Trazado_141599" data-name="Trazado 141599" d="M382.119,293.464l2.387,4.308H363.1l1.45-4.261Z" transform="translate(-99.579 -49.401)" fill="#5c4435"/>
        <path id="Trazado_141600" data-name="Trazado 141600" d="M81.213,293.932,107.7,304.98l-23.429,5.126-50.618-8.086,6.973-7.082s8.13-1.318,18.512-2.62,22.079,1.615,22.079,1.615" transform="translate(451.22 -49.152)" fill="#513729"/>
        <path id="Trazado_141601" data-name="Trazado 141601" d="M126.307,302.413,114.3,298.331l4.27-4,14.71,1Z" transform="translate(358.561 -49.547)" fill="#6d4537"/>
        <path id="Trazado_141602" data-name="Trazado 141602" d="M114.643,277.718c-5.388-4.664-5.893-14.209-1.736-15.077s1.736,15.077,1.736,15.077" transform="translate(379.951 -44.207)" fill="#c3dbd3"/>
        <path id="Trazado_141603" data-name="Trazado 141603" d="M126.626,284.274c3.471-6.309,6.474-10.749,1.446-11.373s-1.446,11.373-1.446,11.373" transform="translate(351.879 -45.936)" fill="#c3dbd3"/>
        <path id="Trazado_141604" data-name="Trazado 141604" d="M617.538,276.115c-7.521-4.014-11.723-11.371-7.887-13.766s7.887,13.766,7.887,13.766" transform="translate(-536.458 -44.123)" fill="#c3dbd3"/>
        <path id="Trazado_141605" data-name="Trazado 141605" d="M642.5,272.822c-8.1-2.532-10.892-13.813-6.459-16.127s6.459,16.127,6.459,16.127" transform="translate(-582.826 -43.178)" fill="#c3dbd3"/>
        <path id="Trazado_141606" data-name="Trazado 141606" d="M563.349,119.3c4.473,0,8.974-.434,12.411-.766l1.4-.135a50.336,50.336,0,0,0,15.2-4.517.213.213,0,0,0-.217-.368,49.776,49.776,0,0,1-15.023,4.46l-1.4.133c-7.413.718-19.832,1.916-26.005-1.84-5.967-3.629-6.09-11.313-6.173-16.4-.008-.5-.015-.983-.028-1.434a.213.213,0,0,0-.214-.206h-.007a.214.214,0,0,0-.206.22c.013.447.02.924.028,1.426.083,5.177.209,13,6.376,16.752,3.4,2.069,8.611,2.668,13.86,2.668" transform="translate(-457.225 -16.537)" fill="#89453c"/>
      </g>
    </g>
  </g>
</svg>
