<svg xmlns="http://www.w3.org/2000/svg" xmlns:xlink="http://www.w3.org/1999/xlink" width="85" height="85" viewBox="0 0 85 85">
  <defs>
    <clipPath id="clip-path">
      <rect id="Rectángulo_37698" data-name="Rectángulo 37698" width="67.643" height="42.182" fill="#fff"/>
    </clipPath>
  </defs>
  <g id="Grupo_212503" data-name="Grupo 212503" transform="translate(-285 -8850)">
    <circle id="Elipse_4797" data-name="Elipse 4797" cx="42.5" cy="42.5" r="42.5" transform="translate(285 8850)" fill="#4d793f"/>
    <g id="Grupo_85793" data-name="Grupo 85793" transform="translate(294 8871)">
      <g id="Grupo_85792" data-name="Grupo 85792" transform="translate(0 0)" clip-path="url(#clip-path)">
        <path id="Trazado_141624" data-name="Trazado 141624" d="M67.435,17.964Q63.58,9.585,59.71,1.213A1.852,1.852,0,0,0,57.077.219c-1.792.813-3.575,1.646-5.363,2.469a1.745,1.745,0,0,0-.959.891c-.129.32-.293.38-.624.347A93.147,93.147,0,0,0,38.138,3.5a12.64,12.64,0,0,0-4.623.93.6.6,0,0,1-.475.075,19.083,19.083,0,0,0-6.184-.664,86.285,86.285,0,0,0-9.367.451c-.208.021-.422.1-.485-.252A1.936,1.936,0,0,0,15.737,2.6c-1.729-.771-3.446-1.572-5.169-2.356a1.854,1.854,0,0,0-2.711,1Q4.028,9.61.213,17.976a1.85,1.85,0,0,0,.962,2.6c1.8.837,3.611,1.655,5.419,2.479a1.785,1.785,0,0,0,1.81-.1A.428.428,0,0,1,8.985,23c1.126.791,2.254,1.58,3.391,2.354a.428.428,0,0,1,.2.547,3.476,3.476,0,0,0,2.818,4.453c.273.055.31.127.285.386a3.481,3.481,0,0,0,3.456,3.976c.236.012.348.027.367.322a3.443,3.443,0,0,0,3.858,3.52c.2,0,.3.006.3.247a3.567,3.567,0,0,0,5.865,2.538c1.232-.958,2.557-1.8,3.818-2.717a.58.58,0,0,1,.818.009c1.375.987,2.758,1.963,4.161,2.91a3.5,3.5,0,0,0,5.481-2.283c.1-.537.212-.78.683-.59A3.511,3.511,0,0,0,48.2,35.221c.009-.351.1-.407.429-.429a3.486,3.486,0,0,0,3.366-4.008c-.037-.333.108-.318.307-.364a3.478,3.478,0,0,0,2.75-4.539.379.379,0,0,1,.169-.5q1.751-1.2,3.48-2.424a.39.39,0,0,1,.531-.015,1.778,1.778,0,0,0,1.809.112c1.823-.833,3.646-1.668,5.461-2.52a1.842,1.842,0,0,0,.934-2.571M7.73,21.093c-.177.389-.323.461-.729.267-1.624-.776-3.263-1.519-4.91-2.247-.347-.153-.381-.29-.231-.617q3.751-8.18,7.475-16.371c.16-.354.308-.418.661-.252,1.647.772,3.306,1.517,4.959,2.276.14.064.33.092.349.305-.055.128-.1.248-.157.366Q11.436,12.954,7.73,21.093m6.72,6.777a1.781,1.781,0,0,1,.506-2.5c1.581-1.108,3.178-2.194,4.767-3.292.259-.179.5-.38.766-.556a1.7,1.7,0,0,1,1.845-.1,1.741,1.741,0,0,1,.962,1.557,1.805,1.805,0,0,1-.742,1.462c-1.6,1.141-3.214,2.271-4.822,3.4-.243.171-.484.347-.733.507a1.793,1.793,0,0,1-2.549-.478m5.778,4.781a1.812,1.812,0,0,1-2.561-.451,1.791,1.791,0,0,1,.49-2.51c1.893-1.347,3.8-2.674,5.7-4.009.228-.16.445-.34.684-.479a1.721,1.721,0,0,1,1.8-.019,1.664,1.664,0,0,1,.914,1.414,1.808,1.808,0,0,1-.743,1.626q-2.795,1.984-5.6,3.951c-.228.161-.453.325-.686.478M24,36.566a1.592,1.592,0,0,1-1,.292,1.791,1.791,0,0,1-1.7-1.218,1.753,1.753,0,0,1,.678-2.069c1.4-1.008,2.824-2,4.237-2.99.365-.257.72-.53,1.1-.766a1.8,1.8,0,0,1,2.471.477,1.767,1.767,0,0,1-.408,2.482C27.6,34.057,25.8,35.308,24,36.566m8.174.742c-1.357,1.033-2.777,1.986-4.18,2.958a1.193,1.193,0,0,1-.762.181A1.791,1.791,0,0,1,25.506,39.3a1.705,1.705,0,0,1,.513-2.016c1.326-.983,2.672-1.941,4.048-2.854a1.8,1.8,0,0,1,2.106,2.878M53.2,27.955a1.833,1.833,0,0,1-2.7.363q-3.7-2.553-7.387-5.112a2.983,2.983,0,0,0-.519-.321.789.789,0,0,0-1.03.3.8.8,0,0,0,.085,1.073,2.434,2.434,0,0,0,.441.337c2.457,1.712,4.919,3.416,7.37,5.137a1.808,1.808,0,0,1,.04,3.052,1.832,1.832,0,0,1-2.139-.1q-3.649-2.523-7.289-5.057a4.4,4.4,0,0,0-.466-.306.84.84,0,0,0-1.13.277.819.819,0,0,0,.152,1.11,3.085,3.085,0,0,0,.4.3c2.212,1.544,4.427,3.081,6.634,4.632a1.781,1.781,0,0,1,.7,2.16,1.8,1.8,0,0,1-1.846,1.163,2.171,2.171,0,0,1-1.065-.45q-3.2-2.241-6.4-4.474a2.486,2.486,0,0,0-.468-.3.812.812,0,0,0-1.073.32.8.8,0,0,0,.124,1.069,3.042,3.042,0,0,0,.444.336c1.722,1.205,3.448,2.4,5.167,3.614a1.815,1.815,0,1,1-2.079,2.957Q37.1,38.6,35.041,37.158a1.2,1.2,0,0,1-.577-1.108,3.427,3.427,0,0,0-2.36-3.368c-.33-.113-.462-.2-.368-.6a3.458,3.458,0,0,0-2.489-4.148c-.351-.1-.381-.218-.328-.528a3.484,3.484,0,0,0-3.5-4.172c-.354,0-.413-.1-.432-.432a3.307,3.307,0,0,0-2.013-2.982,3.416,3.416,0,0,0-3.589.365c-1.812,1.27-3.636,2.525-5.447,3.8a.389.389,0,0,1-.534.007q-1.8-1.275-3.616-2.519c-.222-.151-.224-.268-.121-.495Q13,13.7,16.3,6.418a.529.529,0,0,1,.5-.346,99.083,99.083,0,0,1,12.662-.49c.5.012.992.123,1.632.207-2.437,1.718-4.739,3.325-7.022,4.958a3.533,3.533,0,0,0-1.512,3.762,3.521,3.521,0,0,0,2.621,2.836,3.823,3.823,0,0,0,3.42-.715c1.112-.779,2.231-1.548,3.325-2.351a3.824,3.824,0,0,1,4.564-.017c5.34,3.721,10.716,7.392,16.076,11.086a1.818,1.818,0,0,1,.63,2.608m4.808-6.715c-.1.365-.708.593-1.1.871-.866.61-1.748,1.2-2.6,1.829a.552.552,0,0,1-.765-.007c-5.431-3.65-10.737-7.483-16.15-11.159a5.662,5.662,0,0,0-6.324.014c-1.1.8-2.216,1.567-3.33,2.343a2.913,2.913,0,0,1-1.241.6,1.988,1.988,0,0,1-2.157-1.223,1.963,1.963,0,0,1,.746-2.363c1.743-1.239,3.5-2.462,5.243-3.7.789-.558,1.553-1.149,2.372-1.666a10.747,10.747,0,0,1,5.51-1.562c1.134-.038,2.271-.007,3.859-.007,2.552-.105,5.532.258,8.521.458.371.025.449.249.565.5q3.172,6.882,6.346,13.763c.2.435.606.943.506,1.3m7.668-2.213c-1.751.806-3.507,1.6-5.256,2.418-.4.187-.387-.159-.47-.338q-1.691-3.635-3.364-7.28c-1.384-3-2.761-6-4.161-9-.175-.374-.136-.527.249-.7,1.643-.733,3.275-1.49,4.9-2.258.342-.162.489-.133.66.239q3.723,8.125,7.478,16.236l.181.392c.037.193-.107.232-.219.284" transform="translate(0 0)" fill="#fff"/>
      </g>
    </g>
  </g>
</svg>
