<svg xmlns="http://www.w3.org/2000/svg" xmlns:xlink="http://www.w3.org/1999/xlink" width="85" height="85" viewBox="0 0 85 85">
  <defs>
    <clipPath id="clip-path">
      <rect id="Rectángulo_37700" data-name="Rectángulo 37700" width="58.134" height="58.127" fill="#fff"/>
    </clipPath>
  </defs>
  <g id="Grupo_212506" data-name="Grupo 212506" transform="translate(-285 -9326)">
    <circle id="Elipse_4800" data-name="Elipse 4800" cx="42.5" cy="42.5" r="42.5" transform="translate(285 9326)" fill="#4d793f"/>
    <g id="Grupo_85797" data-name="Grupo 85797" transform="translate(298.06 9339.06)">
      <g id="Grupo_85796" data-name="Grupo 85796" clip-path="url(#clip-path)">
        <path id="Trazado_141628" data-name="Trazado 141628" d="M2.487,26.13q.123-1.147.347-2.278a27.785,27.785,0,0,1,1.047-3.807,25.973,25.973,0,0,1,2.81-5.7,27.714,27.714,0,0,1,4.791-5.484,25.8,25.8,0,0,1,10.48-5.668,28.928,28.928,0,0,1,4.659-.862,25.885,25.885,0,0,1,2.615-.135q1.171,0,2.337.1a25.416,25.416,0,0,1,2.674.38,27.453,27.453,0,0,1,5.188,1.576,26.028,26.028,0,0,1,5.663,3.2c.789.589,1.52,1.248,2.272,1.883.122.1.232.219.345.33a4.3,4.3,0,0,1,.5.689.471.471,0,0,1-.341.724.572.572,0,0,0-.143.034,3.029,3.029,0,0,1-1.189.23c-.192,0-.385-.011-.577-.012a13.757,13.757,0,0,0-1.5.088,4.343,4.343,0,0,0-.669.09,1.043,1.043,0,0,0-.526,1.7,1.337,1.337,0,0,0,1.113.43c.653-.029,1.3-.081,1.957-.115q1.6-.084,3.209-.155c.719-.032,1.438-.052,2.157-.08a2.466,2.466,0,0,0,.727-.131.948.948,0,0,0,.642-.693,2.138,2.138,0,0,0,.069-.538c0-.291-.02-.582-.031-.872-.039-1.07-.08-2.14-.134-3.209-.031-.609-.066-1.217-.121-1.824a11.147,11.147,0,0,1-.048-1.267,3.059,3.059,0,0,0-.036-.64,1.242,1.242,0,0,0-.38-.749A1.021,1.021,0,0,0,51.319,3.2a1.009,1.009,0,0,0-.679.892,6.522,6.522,0,0,0,.018,1.364,11.479,11.479,0,0,1,.082,1.315,3.576,3.576,0,0,0,.017.543,1.363,1.363,0,0,1-.012.361.825.825,0,0,1-1.007.7,1.171,1.171,0,0,1-.6-.354,21.126,21.126,0,0,0-1.655-1.487,29.391,29.391,0,0,0-5.944-3.762A27.75,27.75,0,0,0,36.264.882,29.769,29.769,0,0,0,32.637.217C31.649.1,30.657.03,29.663.006c-.45-.011-.9-.007-1.352.007-.6.02-1.207.053-1.809.106a27.393,27.393,0,0,0-2.9.412A29.349,29.349,0,0,0,19.663,1.6a28.236,28.236,0,0,0-6.45,3.179A29.773,29.773,0,0,0,8.189,9a28.986,28.986,0,0,0-5.224,7.56,27.954,27.954,0,0,0-1.694,4.422,28.425,28.425,0,0,0-.713,3.179,10.9,10.9,0,0,0-.215,1.813,1.075,1.075,0,0,1-.262.73A.328.328,0,0,0,0,26.946c0,.649,0,1.3,0,1.946S0,30.2,0,30.856a.294.294,0,0,0,.082.237.677.677,0,0,1,.171.368c.026.136.017.274.036.41.051.37.1.74.155,1.109.129.9.285,1.789.5,2.669a4.992,4.992,0,0,0,.254.868.97.97,0,0,0,1.006.623,1.06,1.06,0,0,0,1.023-.958,2.243,2.243,0,0,0-.093-.731,32.432,32.432,0,0,1-.718-4.534c-.06-.844-.1-1.688-.075-2.534.021-.752.064-1.5.145-2.251" transform="translate(0 0)" fill="#fff"/>
        <path id="Trazado_141629" data-name="Trazado 141629" d="M127.468,307.291c-.123-.9-.291-1.8-.49-2.688a6.076,6.076,0,0,0-.2-.781,1.116,1.116,0,0,0-.707-.751,1.084,1.084,0,0,0-1.38,1.263,40.451,40.451,0,0,1,.72,4.151c.09.875.138,1.751.153,2.63,0,.9-.038,1.789-.125,2.681q-.123,1.255-.365,2.492a27.236,27.236,0,0,1-2.59,7.351,26.218,26.218,0,0,1-5.181,6.883,27.265,27.265,0,0,1-3.873,3.09,26.136,26.136,0,0,1-6.589,3.111,28.427,28.427,0,0,1-3.793.9,25.15,25.15,0,0,1-6.026.293c-.877-.062-1.75-.16-2.618-.3a25.593,25.593,0,0,1-4.323-1.081,27.539,27.539,0,0,1-7.977-4.376,20.143,20.143,0,0,1-2.03-1.782,1.132,1.132,0,0,1-.243-.329.865.865,0,0,0-.117-.2.472.472,0,0,1,.2-.727c.144-.052.28-.121.425-.169a1.187,1.187,0,0,1,.223-.054,13.592,13.592,0,0,1,1.364-.09c.56-.014,1.121-.011,1.679-.075a1.707,1.707,0,0,0,.939-.36.96.96,0,0,0,.08-1.43,1.285,1.285,0,0,0-1.037-.414c-.675.033-1.348.079-2.023.114q-1.357.07-2.715.131c-.845.037-1.69.067-2.535.1a2.768,2.768,0,0,0-.858.143.943.943,0,0,0-.614.64,2.106,2.106,0,0,0-.077.436,9.529,9.529,0,0,0,.025,1.119c.03.927.076,1.854.118,2.781.031.675.072,1.348.127,2.021a8.851,8.851,0,0,1,.057,1.168,5.353,5.353,0,0,0,.014.69,2.128,2.128,0,0,0,.094.45,1.026,1.026,0,0,0,1.344.668,1.052,1.052,0,0,0,.737-.938c.015-.318.007-.638,0-.956a5,5,0,0,0-.064-.8,4.553,4.553,0,0,1-.059-.886c.007-.258.023-.516.02-.774a.922.922,0,0,1,.344-.767.526.526,0,0,1,.377-.133,1.122,1.122,0,0,1,.72.285c.176.158.35.317.524.477a29.1,29.1,0,0,0,9.016,5.664,28.082,28.082,0,0,0,5.054,1.458c1.052.2,2.117.32,3.178.463a.7.7,0,0,1,.4.165.266.266,0,0,0,.207.07q.907,0,1.815,0a.7.7,0,0,0,.195-.025,2.219,2.219,0,0,1,1.424.011.138.138,0,0,0,.163-.033.774.774,0,0,1,.54-.212c.44-.013.875-.079,1.311-.134a29.875,29.875,0,0,0,3.287-.606,27.99,27.99,0,0,0,6.734-2.607,29.427,29.427,0,0,0,12.2-12.544,28.16,28.16,0,0,0,1.743-4.279,28.572,28.572,0,0,0,.972-4.181c.1-.624.173-1.25.236-1.879.057-.58.1-1.16.114-1.742.019-.7.015-1.395-.017-2.092-.042-.906-.126-1.807-.249-2.7" transform="translate(-69.611 -282.193)" fill="#fff"/>
        <path id="Trazado_141630" data-name="Trazado 141630" d="M269.6,211.869a13.564,13.564,0,0,0-1.441.925,10.435,10.435,0,0,0-3.645,4.8,12.49,12.49,0,0,0-.65,2.58,7.629,7.629,0,0,0,0,2.395,5.923,5.923,0,0,0,1.875,3.487,6.182,6.182,0,0,0,3.949,1.637c.313.017.626-.008.939-.019.72-.026,1.439-.025,2.16-.016q1.748.022,3.5.025,1.666,0,3.331-.009a6.3,6.3,0,0,0,2.974-.735,6.016,6.016,0,0,0,3.19-5.41,12.11,12.11,0,0,0-.329-2.675,10.157,10.157,0,0,0-2.673-4.859,12.608,12.608,0,0,0-2.658-2.043,3.411,3.411,0,0,1-.306-.193.735.735,0,0,1-.2-1.069c.063-.1.135-.2.2-.3a5.949,5.949,0,0,0,1.1-3.529,6.529,6.529,0,0,0-.113-1.057,5.98,5.98,0,0,0-1.925-3.444,6.068,6.068,0,0,0-4.27-1.563,5.279,5.279,0,0,0-1.207.156,6.05,6.05,0,0,0-4.169,3.4,5.868,5.868,0,0,0-.451,3.776,6.072,6.072,0,0,0,1.074,2.4,1.766,1.766,0,0,1,.206.336.685.685,0,0,1-.163.8,1.429,1.429,0,0,1-.3.208m5.19-8.57a3.568,3.568,0,0,1,3.605,3.633,3.614,3.614,0,1,1-7.227-.078,3.584,3.584,0,0,1,3.622-3.555m-1.828,9.928a8.172,8.172,0,0,1,2.162-.156,8.846,8.846,0,0,1,3.455.877,8.113,8.113,0,0,1,2.074,1.444,8.657,8.657,0,0,1,2.51,4.667,6.213,6.213,0,0,1,.074,2.1,3.318,3.318,0,0,1-.87,1.831,3.52,3.52,0,0,1-2.664,1.17h-.387c-.745.021-1.465.03-2.185.017-1.023-.019-2.045,0-3.068-.011-.544,0-1.088-.008-1.632-.021-.7-.017-1.4.015-2.107.05a4.041,4.041,0,0,1-2.119-.442,3.478,3.478,0,0,1-1.829-2.432,5.273,5.273,0,0,1,.01-2.176,8.809,8.809,0,0,1,2.163-4.353,8.187,8.187,0,0,1,4.411-2.564" transform="translate(-245.639 -186.991)" fill="#fff"/>
      </g>
    </g>
  </g>
</svg>
