<svg id="Grupo_85801" data-name="Grupo 85801" xmlns="http://www.w3.org/2000/svg" xmlns:xlink="http://www.w3.org/1999/xlink" width="505" height="304.093" viewBox="0 0 505 304.093">
  <defs>
    <clipPath id="clip-path">
      <rect id="Rectángulo_37748" data-name="Rectángulo 37748" width="505" height="304.093" fill="none"/>
    </clipPath>
  </defs>
  <g id="Grupo_85800" data-name="Grupo 85800" clip-path="url(#clip-path)">
    <path id="Trazado_141631" data-name="Trazado 141631" d="M449.039,308.309c42.967,0,42.449-27.55,42.446-27.63C489.8,242.448,452.2,223.7,446.81,185.834c-2.067-14.5,2.009-29.109,2.974-43.734,2.25-34.071-15.151-67.678-41.5-87.772-12.715-9.7-28.672-17.835-44.728-17.839-19.339,0-36.867,12.892-56.376,11.3-12.458-1.018-23.538-8.1-35.209-12.683-42.534-16.711-95.787,4.415-116.361,46.159-6.638,13.471-11.337,29.883-24.567,36.468-10.493,5.22-22.84,2.328-34.45,1.311-19.19-1.681-39.244,2.428-55,13.821s-26.584,30.548-25.988,50.313c.84,27.621,22.119,57.1,7.287,80.171-4.51,7.014-11.653,11.687-17.626,17.432-.16.154-.32.309-.477.465l-.225.223c-9.761,9.8-2.829,26.84,10.828,26.84Z" transform="translate(0 -5.848)" fill="#c5dffa"/>
    <rect id="Rectángulo_37705" data-name="Rectángulo 37705" width="44.632" height="235.076" transform="translate(336.331 67.385)" fill="#7da6d3"/>
    <path id="Trazado_141632" data-name="Trazado 141632" d="M472.483,67.1l-2.97-6.3H409.929l-4.622,6.3Z" transform="translate(-80.709 -12.106)" fill="#7da6d3"/>
    <path id="Trazado_141633" data-name="Trazado 141633" d="M405.622,70.63l5.252,32.822h56.167l5.252-32.822Z" transform="translate(-80.772 -14.065)" fill="#7da6d3"/>
    <rect id="Rectángulo_37706" data-name="Rectángulo 37706" width="0.896" height="31.136" transform="translate(378.233 17.552)" fill="#7da6d3"/>
    <rect id="Rectángulo_37707" data-name="Rectángulo 37707" width="5.908" height="3.039" transform="translate(380.529 46.156)" fill="#7da6d3"/>
    <path id="Trazado_141634" data-name="Trazado 141634" d="M524.512,195.255H467.253c-1.651,0-2.278-1.291-1.392-2.87l6.117-10.9a5.962,5.962,0,0,1,4.613-2.869h26.79c-26.612-18.218-59.65-31.73-91.46-32.076l-93.968-.307c-7.209-.05,5.475,14.831-5.9,14.831H234.814V289.3l121.928.514,103.455.434c30.419,0,53.975-12.2,70.128-24.679l1.426-63.357q-3.444-3.511-7.239-6.959" transform="translate(-46.759 -29.12)" fill="#fff"/>
    <path id="Trazado_141635" data-name="Trazado 141635" d="M460.1,290.549,234.313,289.6V160.569h77.645c1.937,0,3.219-.432,3.917-1.321,1.207-1.537.513-4.376-.1-6.88-.574-2.348-1.116-4.567-.162-5.773a2.736,2.736,0,0,1,2.242-.857l93.967.307c29.309.319,61.869,11.734,91.684,32.145l1.068.731H476.492a5.6,5.6,0,0,0-4.265,2.665l-6.115,10.9a1.778,1.778,0,0,0-.21,1.719,1.368,1.368,0,0,0,1.253.553h57.414l.114.1c2.5,2.268,4.941,4.615,7.257,6.975l.118.122,0,.169-1.431,63.547-.151.117c-21.264,16.43-44.941,24.761-70.373,24.761M235.114,288.8l224.985.946c25.189,0,48.65-8.235,69.731-24.478l1.418-63c-2.234-2.273-4.584-4.532-6.99-6.719h-57.1a2.123,2.123,0,0,1-1.944-.949,2.533,2.533,0,0,1,.2-2.517l6.116-10.9a6.393,6.393,0,0,1,4.963-3.074H501.98c-29.393-19.866-61.364-30.962-90.163-31.275l-93.965-.307a1.927,1.927,0,0,0-1.611.553c-.712.9-.215,2.934.312,5.086.656,2.682,1.4,5.722-.049,7.565-.859,1.1-2.347,1.628-4.547,1.628H235.114Z" transform="translate(-46.659 -29.021)" fill="#a5abd3"/>
    <path id="Trazado_141636" data-name="Trazado 141636" d="M621.167,235.566a130.986,130.986,0,0,0-15.938-19.434L603.8,279.489a134.743,134.743,0,0,0,14.621-13.112,24.973,24.973,0,0,0,2.744-30.811" transform="translate(-120.236 -43.039)" fill="#eb6f2d"/>
    <path id="Trazado_141637" data-name="Trazado 141637" d="M529.326,189.541l-6.116,10.9c-.887,1.578-.259,2.87,1.392,2.87H581.86a198.086,198.086,0,0,0-21.131-16.636H533.94a5.963,5.963,0,0,0-4.614,2.87" transform="translate(-104.107 -37.172)" fill="#001443"/>
    <path id="Trazado_141638" data-name="Trazado 141638" d="M481.884,288.05H459.136a4.849,4.849,0,0,1-4.844-4.843V227.582a4.849,4.849,0,0,1,4.844-4.844h22.749a4.849,4.849,0,0,1,4.843,4.844v55.626a4.849,4.849,0,0,1-4.843,4.843m-22.749-64.512a4.048,4.048,0,0,0-4.043,4.043v55.626a4.047,4.047,0,0,0,4.043,4.042h22.749a4.046,4.046,0,0,0,4.042-4.042V227.582a4.047,4.047,0,0,0-4.042-4.043Z" transform="translate(-90.464 -44.354)" fill="#d7e9fc"/>
    <rect id="Rectángulo_37708" data-name="Rectángulo 37708" width="4.243" height="1.127" transform="translate(296.716 97.266)" fill="#ced8f4"/>
    <rect id="Rectángulo_37709" data-name="Rectángulo 37709" width="0.597" height="6.099" transform="translate(307.555 92.294)" fill="#ced8f4"/>
    <rect id="Rectángulo_37710" data-name="Rectángulo 37710" width="0.713" height="1.889" transform="translate(309.477 96.504)" fill="#ced8f4"/>
    <rect id="Rectángulo_37711" data-name="Rectángulo 37711" width="12.481" height="5.171" transform="translate(248.753 283.472)" fill="#748ebe"/>
    <path id="Trazado_141639" data-name="Trazado 141639" d="M92.289,284.436H57.584a11.626,11.626,0,0,1-11.613-11.613v-9.892a11.626,11.626,0,0,1,11.613-11.613H92.289A11.626,11.626,0,0,1,103.9,262.931v9.892a11.626,11.626,0,0,1-11.613,11.613M57.584,255.322a7.617,7.617,0,0,0-7.608,7.608v9.892a7.617,7.617,0,0,0,7.608,7.608H92.289a7.617,7.617,0,0,0,7.608-7.608v-9.892a7.617,7.617,0,0,0-7.608-7.608Z" transform="translate(-9.154 -50.045)" fill="#eb6f2d"/>
    <path id="Trazado_141640" data-name="Trazado 141640" d="M85.12,357.444H19.974a7.846,7.846,0,0,1-7.845-7.846V286.884a8.127,8.127,0,0,1,8.127-8.127H85.12Z" transform="translate(-2.415 -55.509)" fill="#eb6f2d"/>
    <path id="Trazado_141641" data-name="Trazado 141641" d="M217.534,326.274H139.95a9.639,9.639,0,0,1-9.61-9.61V130.234a9.639,9.639,0,0,1,9.61-9.61h87.194V316.663a9.639,9.639,0,0,1-9.61,9.61" transform="translate(-25.955 -24.02)" fill="#001443"/>
    <path id="Trazado_141642" data-name="Trazado 141642" d="M229.4,166.226H201.9a3.07,3.07,0,0,1-3.07-3.07V136.82a3.07,3.07,0,0,1,3.07-3.07h27.5a3.07,3.07,0,0,1,3.07,3.07v26.337a3.07,3.07,0,0,1-3.07,3.07" transform="translate(-39.593 -26.634)" fill="#6d72a0"/>
    <path id="Trazado_141643" data-name="Trazado 141643" d="M222.313,193.569H178.436a1,1,0,1,1,0-1.993h43.876a1,1,0,1,1,0,1.993" transform="translate(-35.334 -38.149)" fill="#6d72a0"/>
    <path id="Trazado_141644" data-name="Trazado 141644" d="M167.165,193.569H149.646a1,1,0,0,1,0-1.993h17.519a1,1,0,1,1,0,1.993" transform="translate(-29.601 -38.149)" fill="#6d72a0"/>
    <path id="Trazado_141645" data-name="Trazado 141645" d="M226.517,200.442H199.549a1,1,0,1,1,0-1.993h26.968a1,1,0,1,1,0,1.993" transform="translate(-39.538 -39.517)" fill="#6d72a0"/>
    <path id="Trazado_141646" data-name="Trazado 141646" d="M181.512,200.442H149.646a1,1,0,1,1,0-1.993h31.866a1,1,0,1,1,0,1.993" transform="translate(-29.601 -39.517)" fill="#6d72a0"/>
    <path id="Trazado_141647" data-name="Trazado 141647" d="M223.12,206.627h-40.63a1,1,0,0,1,0-1.993h40.63a1,1,0,1,1,0,1.993" transform="translate(-36.141 -40.749)" fill="#6d72a0"/>
    <path id="Trazado_141648" data-name="Trazado 141648" d="M170.191,206.627H149.646a1,1,0,0,1,0-1.993h20.545a1,1,0,1,1,0,1.993" transform="translate(-29.601 -40.749)" fill="#6d72a0"/>
    <path id="Trazado_141649" data-name="Trazado 141649" d="M225.362,212.411H193.748a1,1,0,0,1,0-1.993h31.614a1,1,0,0,1,0,1.993" transform="translate(-38.383 -41.901)" fill="#6d72a0"/>
    <path id="Trazado_141650" data-name="Trazado 141650" d="M177.12,212.411H149.646a1,1,0,0,1,0-1.993H177.12a1,1,0,0,1,0,1.993" transform="translate(-29.601 -41.901)" fill="#6d72a0"/>
    <path id="Trazado_141651" data-name="Trazado 141651" d="M212.194,219.284H187.973a1,1,0,1,1,0-1.993h24.221a1,1,0,0,1,0,1.993" transform="translate(-37.233 -43.269)" fill="#6d72a0"/>
    <path id="Trazado_141652" data-name="Trazado 141652" d="M172.7,219.284H149.646a1,1,0,0,1,0-1.993H172.7a1,1,0,0,1,0,1.993" transform="translate(-29.601 -43.269)" fill="#6d72a0"/>
    <rect id="Rectángulo_37712" data-name="Rectángulo 37712" width="2.803" height="0.801" transform="translate(104.385 146.713)" fill="#6d72a0"/>
    <path id="Trazado_141653" data-name="Trazado 141653" d="M221.007,183.993h-5.364v-.8h5.364Zm-10.728,0h-5.365v-.8h5.365Zm-10.729,0h-5.365v-.8h5.365Zm-10.729,0h-5.365v-.8h5.365Zm-10.729,0h-5.364v-.8h5.364Zm-10.729,0H162v-.8h5.364Zm-10.729,0h-5.364v-.8h5.364Zm-10.729,0h-5.364v-.8H145.9Z" transform="translate(-27.986 -36.479)" fill="#6d72a0"/>
    <rect id="Rectángulo_37713" data-name="Rectángulo 37713" width="2.803" height="0.801" transform="translate(198.386 146.713)" fill="#6d72a0"/>
    <path id="Trazado_141654" data-name="Trazado 141654" d="M143.839,140.875a3.4,3.4,0,1,1,3.4-3.4,3.406,3.406,0,0,1-3.4,3.4" transform="translate(-27.967 -26.7)" fill="#6d72a0"/>
    <path id="Trazado_141655" data-name="Trazado 141655" d="M158.747,140.875a3.4,3.4,0,1,1,3.4-3.4,3.406,3.406,0,0,1-3.4,3.4" transform="translate(-30.935 -26.7)" fill="#6d72a0"/>
    <path id="Trazado_141656" data-name="Trazado 141656" d="M173.656,140.875a3.4,3.4,0,1,1,3.4-3.4,3.406,3.406,0,0,1-3.4,3.4" transform="translate(-33.904 -26.7)" fill="#6d72a0"/>
    <path id="Trazado_141657" data-name="Trazado 141657" d="M188.564,140.875a3.4,3.4,0,1,1,3.4-3.4,3.406,3.406,0,0,1-3.4,3.4" transform="translate(-36.873 -26.7)" fill="#6d72a0"/>
    <path id="Trazado_141658" data-name="Trazado 141658" d="M214.1,336.377H152.5a4.358,4.358,0,0,1-4.354-4.354v-99.5a4.358,4.358,0,0,1,4.354-4.354h61.6a4.358,4.358,0,0,1,4.354,4.354v99.5a4.358,4.358,0,0,1-4.354,4.354m-61.6-107.41a3.557,3.557,0,0,0-3.553,3.553v99.5a3.557,3.557,0,0,0,3.553,3.553h61.6a3.557,3.557,0,0,0,3.553-3.553v-99.5a3.557,3.557,0,0,0-3.553-3.553Z" transform="translate(-29.501 -45.435)" fill="#6d72a0"/>
    <path id="Trazado_141659" data-name="Trazado 141659" d="M182.336,350.162H71.3a3.422,3.422,0,0,1-3.421-3.421V243.264a3.422,3.422,0,0,1,3.421-3.421H182.336a3.422,3.422,0,0,1,3.421,3.421V346.741a3.422,3.422,0,0,1-3.421,3.421" transform="translate(-13.517 -47.76)" fill="#fff"/>
    <rect id="Rectángulo_37714" data-name="Rectángulo 37714" width="110.168" height="102.913" transform="translate(58.751 196.798)" fill="#f9e4de"/>
    <path id="Trazado_141660" data-name="Trazado 141660" d="M168.442,348.643h2.72V301.005H95V245.73H92.277v58h76.165Z" transform="translate(-18.375 -48.932)" fill="#fff"/>
    <path id="Trazado_141661" data-name="Trazado 141661" d="M198,284.747H146.056v25.388h2.72V287.466H198Z" transform="translate(-29.084 -56.702)" fill="#fff"/>
    <path id="Trazado_141662" data-name="Trazado 141662" d="M73.359,334.421v6.12H134.64V366.3h6.12V334.421Z" transform="translate(-14.608 -66.594)" fill="#fff"/>
    <rect id="Rectángulo_37715" data-name="Rectángulo 37715" width="6.12" height="32.607" transform="translate(143.607 196.798)" fill="#fff"/>
    <rect id="Rectángulo_37716" data-name="Rectángulo 37716" width="28.336" height="1.36" transform="translate(123.092 276.328)" fill="#fff"/>
    <rect id="Rectángulo_37717" data-name="Rectángulo 37717" width="28.336" height="1.36" transform="translate(123.092 291.062)" fill="#fff"/>
    <rect id="Rectángulo_37718" data-name="Rectángulo 37718" width="1.36" height="17.454" transform="translate(88.07 253.433)" fill="#fff"/>
    <rect id="Rectángulo_37719" data-name="Rectángulo 37719" width="22.328" height="20.288" transform="translate(79.569 228.271)" fill="#fff"/>
    <rect id="Rectángulo_37720" data-name="Rectángulo 37720" width="10.548" height="11.88" transform="translate(104.391 236.602)" fill="#fff"/>
    <rect id="Rectángulo_37721" data-name="Rectángulo 37721" width="10.548" height="6.63" transform="translate(104.391 228.272)" fill="#fff"/>
    <rect id="Rectángulo_37722" data-name="Rectángulo 37722" width="35.419" height="27.167" transform="translate(104.391 196.798)" fill="#fff"/>
    <rect id="Rectángulo_37723" data-name="Rectángulo 37723" width="18.191" height="18.191" transform="translate(81.637 205.207)" fill="#fff"/>
    <rect id="Rectángulo_37724" data-name="Rectángulo 37724" width="13.261" height="13.261" transform="translate(124.678 234.902)" fill="#fff"/>
    <rect id="Rectángulo_37725" data-name="Rectángulo 37725" width="27.692" height="13.261" transform="translate(141.227 234.788)" fill="#fff"/>
    <rect id="Rectángulo_37726" data-name="Rectángulo 37726" width="12.504" height="25.842" transform="translate(156.415 253.433)" fill="#fff"/>
    <rect id="Rectángulo_37727" data-name="Rectángulo 37727" width="12.504" height="15.527" transform="translate(156.415 282.165)" fill="#fff"/>
    <rect id="Rectángulo_37728" data-name="Rectángulo 37728" width="19.381" height="9.747" transform="translate(128.462 279.274)" fill="#fff"/>
    <rect id="Rectángulo_37729" data-name="Rectángulo 37729" width="10.668" height="5.872" transform="translate(128.461 293.839)" fill="#fff"/>
    <rect id="Rectángulo_37730" data-name="Rectángulo 37730" width="7.084" height="5.872" transform="translate(140.759 293.839)" fill="#fff"/>
    <rect id="Rectángulo_37731" data-name="Rectángulo 37731" width="18.871" height="9.011" transform="translate(91.952 256.606)" fill="#fff"/>
    <rect id="Rectángulo_37732" data-name="Rectángulo 37732" width="8.5" height="9.011" transform="translate(117.538 256.606)" fill="#fff"/>
    <rect id="Rectángulo_37733" data-name="Rectángulo 37733" width="19.381" height="17.426" transform="translate(128.462 256.606)" fill="#fff"/>
    <rect id="Rectángulo_37734" data-name="Rectángulo 37734" width="50.906" height="22.703" transform="translate(62.455 277.008)" fill="#fff"/>
    <rect id="Rectángulo_37735" data-name="Rectángulo 37735" width="11.864" height="26.182" transform="translate(58.751 203.223)" fill="#fff"/>
    <rect id="Rectángulo_37736" data-name="Rectángulo 37736" width="11.864" height="17.087" transform="translate(58.751 244.026)" fill="#fff"/>
    <path id="Trazado_141663" data-name="Trazado 141663" d="M200.713,257.129a2.876,2.876,0,1,1-2.875-2.875,2.875,2.875,0,0,1,2.875,2.875" transform="translate(-38.823 -50.63)" fill="#eb6f2d"/>
    <path id="Trazado_141664" data-name="Trazado 141664" d="M194.654,189.97c-8.661,0-15.681,5.541-15.681,17.862s15.681,30.2,15.681,30.2,15.681-17.883,15.681-30.2-7.02-17.862-15.681-17.862m-.18,23.311a7.209,7.209,0,1,1,7.209-7.209,7.209,7.209,0,0,1-7.209,7.209" transform="translate(-35.639 -37.829)" fill="#eb6f2d"/>
    <path id="Trazado_141665" data-name="Trazado 141665" d="M397.118,358.882H291.265a9.382,9.382,0,0,1-9.382-9.382V292.717a9.382,9.382,0,0,1,9.382-9.382H397.118a9.382,9.382,0,0,1,9.382,9.382V349.5a9.382,9.382,0,0,1-9.382,9.382" transform="translate(-56.132 -56.421)" fill="#4a527c"/>
    <rect id="Rectángulo_37737" data-name="Rectángulo 37737" width="4.293" height="4.293" transform="translate(312.441 290.089)" fill="#f9e4de"/>
    <rect id="Rectángulo_37738" data-name="Rectángulo 37738" width="4.293" height="4.293" transform="translate(320.184 290.089)" fill="#f9e4de"/>
    <rect id="Rectángulo_37739" data-name="Rectángulo 37739" width="4.293" height="4.293" transform="translate(327.927 290.089)" fill="#f9e4de"/>
    <rect id="Rectángulo_37740" data-name="Rectángulo 37740" width="4.293" height="4.293" transform="translate(335.671 290.089)" fill="#f9e4de"/>
    <rect id="Rectángulo_37741" data-name="Rectángulo 37741" width="4.293" height="4.293" transform="translate(273.997 290.089)" fill="#f9e4de"/>
    <rect id="Rectángulo_37742" data-name="Rectángulo 37742" width="4.293" height="4.293" transform="translate(281.741 290.089)" fill="#f9e4de"/>
    <rect id="Rectángulo_37743" data-name="Rectángulo 37743" width="4.293" height="4.293" transform="translate(289.484 290.089)" fill="#f9e4de"/>
    <rect id="Rectángulo_37744" data-name="Rectángulo 37744" width="4.293" height="4.293" transform="translate(297.227 290.089)" fill="#f9e4de"/>
    <path id="Trazado_141666" data-name="Trazado 141666" d="M417.706,319.291H399.313a1.479,1.479,0,0,0-1.478,1.478v10.456a1.479,1.479,0,0,0,1.478,1.479h18.393a1.479,1.479,0,0,0,1.478-1.479V320.769a1.479,1.479,0,0,0-1.478-1.478" transform="translate(-79.221 -63.581)" fill="#ffd864"/>
    <path id="Trazado_141667" data-name="Trazado 141667" d="M419.185,331.271h-5.1v-9.184h-16.25v-.4h16.65v9.184h4.7Z" transform="translate(-79.221 -64.058)" fill="#fc5810"/>
    <path id="Trazado_141668" data-name="Trazado 141668" d="M134.481,273.953s-28.264,15.866-7.357,32.052Z" transform="translate(-23.78 -54.553)" fill="#fc5810"/>
    <path id="Trazado_141669" data-name="Trazado 141669" d="M157.745,368.008h16.846a2.523,2.523,0,0,0,1.892-2.439V331.7a2.529,2.529,0,0,0-2.529-2.529H158.382a2.529,2.529,0,0,0-2.529,2.529V365.57a2.523,2.523,0,0,0,1.892,2.439" transform="translate(-31.035 -65.547)" fill="#001443"/>
    <path id="Trazado_141670" data-name="Trazado 141670" d="M89.177,334.958l-.645-.476,16.733-22.67a.522.522,0,0,0-.42-.833h-4.028a1.481,1.481,0,0,0-1.177.587L84.225,332.058l-.64-.482L99,311.084a2.28,2.28,0,0,1,1.816-.906h4.028a1.323,1.323,0,0,1,1.065,2.109Z" transform="translate(-16.644 -61.766)" fill="#001443"/>
    <path id="Trazado_141671" data-name="Trazado 141671" d="M168.507,314.8a1.468,1.468,0,0,0,.5.629.883.883,0,0,0,.505.081,4.245,4.245,0,0,0,1.28-.283,1.26,1.26,0,0,0,.879-.979,2,2,0,0,0-.4-1.458c-.551-.742-.754-1-1.478-1.253-.906-.314-1.6.011-1.54,1.337a4.692,4.692,0,0,0,.25,1.925" transform="translate(-33.504 -62.014)" fill="#f48f7d"/>
    <path id="Trazado_141672" data-name="Trazado 141672" d="M171.342,314.546l.817,1.5a.342.342,0,0,0,.424.1.357.357,0,0,0,.13-.421l-.817-1.5c-.055-.1-.225-.111-.378-.022s-.231.246-.176.348" transform="translate(-34.116 -62.555)" fill="#f48f7d"/>
    <path id="Trazado_141673" data-name="Trazado 141673" d="M170.374,315.149l.811,1.5a.351.351,0,0,0,.448.092.424.424,0,0,0,.187-.463l-.813-1.5c-.055-.1-.242-.1-.417,0s-.271.269-.216.371" transform="translate(-33.924 -62.667)" fill="#f48f7d"/>
    <path id="Trazado_141674" data-name="Trazado 141674" d="M169.536,315.545l.816,1.5a.34.34,0,0,0,.424.093.352.352,0,0,0,.13-.418l-.817-1.5c-.055-.1-.224-.111-.378-.022s-.231.246-.175.348" transform="translate(-33.756 -62.754)" fill="#f48f7d"/>
    <path id="Trazado_141675" data-name="Trazado 141675" d="M168.841,315.807l.565,1.036a.236.236,0,0,0,.292.075.258.258,0,0,0,.091-.3l-.565-1.037c-.038-.07-.156-.077-.262-.015s-.16.17-.122.24" transform="translate(-33.619 -62.831)" fill="#f48f7d"/>
    <path id="Trazado_141676" data-name="Trazado 141676" d="M172.661,314.023a.346.346,0,0,1-.486-.038l-1.075-1.3c-.119-.143-.519-.85-.371-.972s.79.383.909.526l1.076,1.3a.346.346,0,0,1-.053.485" transform="translate(-33.991 -62.068)" fill="#f48f7d"/>
    <path id="Trazado_141677" data-name="Trazado 141677" d="M107.751,309.156a1.472,1.472,0,0,1-.608.527.882.882,0,0,1-.512-.012,4.241,4.241,0,0,1-1.208-.511,1.261,1.261,0,0,1-.686-1.122,2,2,0,0,1,.657-1.361,2.65,2.65,0,0,1,1.681-.964c.947-.144,1.571.3,1.272,1.595a4.691,4.691,0,0,1-.6,1.848" transform="translate(-20.856 -60.872)" fill="#f48f7d"/>
    <path id="Trazado_141678" data-name="Trazado 141678" d="M105.549,308.426l-1.076,1.325a.342.342,0,0,1-.435.017.357.357,0,0,1-.051-.437l1.076-1.325c.073-.09.242-.069.376.047s.183.284.111.373" transform="translate(-20.697 -61.322)" fill="#f48f7d"/>
    <path id="Trazado_141679" data-name="Trazado 141679" d="M106.376,309.19,105.3,310.52a.35.35,0,0,1-.457.009.424.424,0,0,1-.1-.489l1.071-1.329c.073-.09.257-.056.411.076s.219.314.146.4" transform="translate(-20.851 -61.464)" fill="#f48f7d"/>
    <path id="Trazado_141680" data-name="Trazado 141680" d="M107.144,309.737l-1.076,1.325a.339.339,0,0,1-.433.014.354.354,0,0,1-.053-.435l1.076-1.325c.073-.09.242-.069.376.047s.183.284.111.373" transform="translate(-21.014 -61.583)" fill="#f48f7d"/>
    <path id="Trazado_141681" data-name="Trazado 141681" d="M107.91,310.125l-.745.917a.236.236,0,0,1-.3.021.259.259,0,0,1-.034-.312l.743-.917c.05-.062.167-.047.26.033s.127.2.077.258" transform="translate(-21.266 -61.69)" fill="#f48f7d"/>
    <path id="Trazado_141682" data-name="Trazado 141682" d="M104.164,307.686a.345.345,0,0,0,.485.05l1.293-1.081c.143-.12.665-.742.541-.889s-.847.232-.99.352L104.2,307.2a.346.346,0,0,0-.036.486" transform="translate(-20.726 -60.881)" fill="#f48f7d"/>
    <path id="Trazado_141683" data-name="Trazado 141683" d="M169.661,310.612l-3.831-4.77-1.877,1.908,4.4,4.667Z" transform="translate(-32.648 -60.903)" fill="#f48f7d"/>
    <path id="Trazado_141684" data-name="Trazado 141684" d="M154.046,278.526c.3-.147.6-.3.9-.46.564,4.232,1.482,9.987,2.439,11.7a105.4,105.4,0,0,0,5.964,9.509c.113.159.755.993,1.432,1.881a2.355,2.355,0,0,1-.814,3.489,2.223,2.223,0,0,1-2.664-.443c-5.5-5.9-10.507-12.165-12.943-22.912,1.916-.884,3.822-1.788,5.689-2.767" transform="translate(-29.542 -55.372)" fill="#001443"/>
    <path id="Trazado_141685" data-name="Trazado 141685" d="M157.029,376.352l2.28-.685-.867-4.6-2.616.911.959,4.375Z" transform="translate(-31.03 -73.891)" fill="#f48f7d"/>
    <path id="Trazado_141686" data-name="Trazado 141686" d="M163,377.329l1.04-.264-.058-.216a.683.683,0,0,0-.586-.5l-3.6-.371a.507.507,0,0,0-.406.147,2.7,2.7,0,0,1-1.218.667l-1.343.34a.3.3,0,0,0-.209.2Z" transform="translate(-31.187 -74.868)" fill="#fc5810"/>
    <path id="Trazado_141687" data-name="Trazado 141687" d="M148.212,316.207c-.032-.091-.067-.183-.1-.275l-11.749,3.038a5.9,5.9,0,0,0,.848,2.441l9.177,16.25a19.469,19.469,0,0,1,2.371,7.209l1.373,15.823c.354,1.9,1.838,2.9,3.274,2.316.139-.042.842-.23,1.064-.32a2.539,2.539,0,0,0,1.783-2.444l.07-18.185a19.9,19.9,0,0,0-1.2-6.887Z" transform="translate(-27.153 -62.912)" fill="#6d72a0"/>
    <path id="Trazado_141688" data-name="Trazado 141688" d="M146.954,336.815a33.12,33.12,0,0,0-2.061-3.375c-2.293-3.368-5.035-8.345-7.83-11.169-.433-.437-.75.957-1.3.923-1.787-.107-.183,1.954.251,2.564.927,1.3,2.12,2.315,3,3.661.573.879,1,1.878,1.625,2.708.909,1.2,2.189,1.965,3.075,3.185.906,1.248,1.312,2.847,2.089,4.2a20.092,20.092,0,0,1,1.361,2.311c.666,1.619.37,3.419.469,5.151a41.713,41.713,0,0,0,.72,4.449c.686,4.086.062,7.371,1.683,11.187-.138-4.529.4-8.015.127-12.55a33.137,33.137,0,0,0-3.208-13.244" transform="translate(-26.87 -64.157)" fill="#6d72a0"/>
    <path id="Trazado_141689" data-name="Trazado 141689" d="M110.9,367.206l-2.146,4.011,2.4,1.059,2.329-4.06Z" transform="translate(-21.656 -73.122)" fill="#f48f7d"/>
    <path id="Trazado_141690" data-name="Trazado 141690" d="M114.207,376.286a.684.684,0,0,0-.12-.762l-2.5-2.627a.506.506,0,0,0-.4-.152,2.688,2.688,0,0,1-1.359-.286l-1.242-.614a.31.31,0,0,0-.416.143l-.62,1.254,6.562,3.247.1-.2" transform="translate(-21.416 -74.039)" fill="#fc5810"/>
    <path id="Trazado_141691" data-name="Trazado 141691" d="M107.62,374.336l5.094,2.52h1.353c.01-.012-6.552-3.258-6.552-3.258l-.085.171a.423.423,0,0,0,.189.567" transform="translate(-21.384 -74.395)" fill="#fc5810"/>
    <path id="Trazado_141692" data-name="Trazado 141692" d="M164.007,376.739a.683.683,0,0,0-.558-.533l-3.58-.571a.507.507,0,0,0-.413.123,2.692,2.692,0,0,1-1.253.6l-1.36.265a.312.312,0,0,0-.244.367l.269,1.373,7.185-1.4-.046-.219" transform="translate(-31.182 -74.799)" fill="#fc5810"/>
    <path id="Trazado_141693" data-name="Trazado 141693" d="M157.467,379.219l6.755-1.342-.1-.569c0-.016-7.185,1.387-7.185,1.387l.037.188a.423.423,0,0,0,.494.336" transform="translate(-31.251 -75.134)" fill="#fc5810"/>
    <path id="Trazado_141694" data-name="Trazado 141694" d="M125.663,316.8a5.885,5.885,0,0,0-.152.691l-3.577,18.32a19.476,19.476,0,0,1-2.879,7.02l-9.231,12.92c-.966,1.675-.489,3.4.983,3.889.133.058.789.373,1.017.449a2.534,2.534,0,0,0,2.942-.7l11.863-13.774a19.913,19.913,0,0,0,3.558-6.016l7.068-18.905a6.109,6.109,0,0,0,.336-1.259,5.789,5.789,0,0,0-.206-2.636Z" transform="translate(-21.769 -63.085)" fill="#6d72a0"/>
    <path id="Trazado_141695" data-name="Trazado 141695" d="M123.993,334.781a33.133,33.133,0,0,0,.625-3.906c.444-4.051,1.592-9.618,1.3-13.581-.045-.614-1.191.239-1.588-.143-1.288-1.245-1.408,1.365-1.473,2.112-.139,1.589.108,3.137-.1,4.732-.135,1.041-.463,2.076-.523,3.115-.088,1.5.388,2.917.268,4.421-.123,1.538-.851,3.018-1.139,4.551a20.313,20.313,0,0,1-.467,2.642c-.545,1.663-1.94,2.84-2.989,4.22a41.667,41.667,0,0,0-2.342,3.851c-2.133,3.55-4.74,5.641-5.985,9.6,2.837-3.531,5.51-5.83,8.246-9.456a33.114,33.114,0,0,0,6.163-12.152" transform="translate(-21.822 -63.089)" fill="#6d72a0"/>
    <path id="Trazado_141696" data-name="Trazado 141696" d="M130.683,294.69c-.4,1.194-1.444,2.1-1.787,3.316-.413,1.461.271,3.026.062,4.53a8.773,8.773,0,0,1-1.333,3.055c-1.095,1.9-2.018,4.088-1.6,6.244.111.571.515,1.245,1.083,1.122a1.2,1.2,0,0,0,.685-.646c2.034-3.453,2.8-7.483,4.2-11.241a35.371,35.371,0,0,1,2.7-5.678,6.643,6.643,0,0,0,1.068-2.457,2.027,2.027,0,0,0-1.149-2.209c-.515-.17-1.243-.153-1.386-.677a1.384,1.384,0,0,1,.183-.823c.337-.88-.523-.97-1.1-.578a3.321,3.321,0,0,0-1.1,1.624c-.426,1.414-.045,3-.525,4.419" transform="translate(-25.075 -57.434)" fill="#001443"/>
    <path id="Trazado_141697" data-name="Trazado 141697" d="M133.634,275.17a18.472,18.472,0,0,0-1.784,7.659c-.189,3.082.481,6.385-.723,9.262-1.356,3.24-1.76,6.743-2.4,10.141-.3,1.606-1.528,2.417-1.926,3.988a23.658,23.658,0,0,0-.5,3,1.874,1.874,0,0,0,.459.573h3.6l7.768-37.34a19.213,19.213,0,0,0-4.494,2.717" transform="translate(-25.15 -54.254)" fill="#001443"/>
    <path id="Trazado_141698" data-name="Trazado 141698" d="M139.138,272.2l-7.768,37.34h14.8l3.3-36.852a11.314,11.314,0,0,0-10.333-.488" transform="translate(-26.16 -54.001)" fill="#ffd864"/>
    <path id="Trazado_141699" data-name="Trazado 141699" d="M163.787,297.687A9.027,9.027,0,0,1,162.464,296a21.9,21.9,0,0,0-.811-2.487,17.675,17.675,0,0,0-1.2-1.305c-.874-1.108-.778-2.718-1.45-3.962a15.405,15.405,0,0,1-1.311-2.1c-.339-.981-.026-2.1-.341-3.089a7.047,7.047,0,0,1-.585-1.653,3.185,3.185,0,0,1,.227-1.136c.4-1.237-.647-3.889-.682-3.955a11.83,11.83,0,0,0-1.992-2.51,13.4,13.4,0,0,0-1.17-.74l-3.3,36.852h1.7c.464-.464.345-1.656.521-2.383.143-2.235-.184-6.971.089-9.105.457-3.858.5-7.246,1.623-11.44.055.272.12.542.2.81a13.383,13.383,0,0,0,1.684,3.357,40.653,40.653,0,0,0,4.469,5.713c.776.827,1.587,1.623,2.323,2.487a17.439,17.439,0,0,1,1.3,1.726c.317.484.754,1.053,1.327.947,1.5-.281-.859-3.81-1.292-4.34" transform="translate(-29.839 -54.375)" fill="#001443"/>
    <path id="Trazado_141700" data-name="Trazado 141700" d="M143.119,317.305a7.766,7.766,0,0,1-3.566-1.1c-.8-.465-1.571-1.06-2.395-1.438a4.52,4.52,0,0,0-4.072.044,6.732,6.732,0,0,0-1.219.889l-.532,2.555a6.307,6.307,0,0,1,.915.107,8.643,8.643,0,0,0,1.1.206c.61.038,1.077-.2,1.675-.2.748.007,1.629.4,2.389.435a16.987,16.987,0,0,0,2.136-.381,8.407,8.407,0,0,1,2.335.376,12.9,12.9,0,0,0,3.627.452c.184-.01.372-.03.558-.058l.165-1.841a12.027,12.027,0,0,0-3.112-.046" transform="translate(-26.153 -62.588)" fill="#ffd864"/>
    <path id="Trazado_141701" data-name="Trazado 141701" d="M151.472,318.552a5.812,5.812,0,0,0-.714-.157c-.241-.078-.483-.18-.725-.253-.048-.015-.094-.022-.141-.034l-.164,1.84a2.919,2.919,0,0,0,1.772-.763c.152-.171.328-.433-.029-.633" transform="translate(-29.816 -63.345)" fill="#001443"/>
    <path id="Trazado_141702" data-name="Trazado 141702" d="M129.54,317.288a4.576,4.576,0,0,1-2.6,1.1.059.059,0,0,0-.01.116,18.275,18.275,0,0,0,3.518.1l.531-2.555c-.477.417-.929.86-1.442,1.244" transform="translate(-25.267 -62.934)" fill="#001443"/>
    <path id="Trazado_141703" data-name="Trazado 141703" d="M143.532,273.612c0,1.294,1.543,2.343,3.448,2.343s3.448-1.049,3.448-2.343-1.544-2.343-3.448-2.343-3.448,1.049-3.448,2.343" transform="translate(-28.582 -54.018)" fill="#f48f7d"/>
    <path id="Trazado_141704" data-name="Trazado 141704" d="M152.581,253.023a3.705,3.705,0,0,0-1.66-2.073,2.772,2.772,0,0,0-1.672-.749,7.5,7.5,0,0,1-1.105.166,3.557,3.557,0,0,1-.792-.265,2.231,2.231,0,0,0-1.772.111,9.607,9.607,0,0,1-1.15.685,4.056,4.056,0,0,1-1.086.14,5.708,5.708,0,0,0-1.4.278,1.265,1.265,0,0,0-.774.543c-.309.594.213,1.39.021,2.042-.236.8-1.424,1.005-1.49,1.852-.068.87,1.139,1.43,1.148,2.307a4.329,4.329,0,0,1-.046.443,1.525,1.525,0,0,0,.753,1.421c.4.215.944.288,1.095.73a3.483,3.483,0,0,0,.123.531.583.583,0,0,0,.515.27,1.068,1.068,0,0,0,.916-1.41c-.085-.242-.249-.453-.312-.7s.033-.573.271-.6a.745.745,0,0,0,.18-.012c.155-.056.132-.294.078-.463a3.672,3.672,0,0,1-.287-1.352,1.842,1.842,0,0,1,1.229-1.5,6.525,6.525,0,0,1,1.981-.29,3.6,3.6,0,0,0,1.908-.528c.455-.327.776-.84,1.266-1.106a1.6,1.6,0,0,1,1.423-.034.562.562,0,0,1,.251.194.706.706,0,0,1,.077.34,7.259,7.259,0,0,0,.112,1.571,6.3,6.3,0,0,0,.2-2.543" transform="translate(-27.817 -49.776)" fill="#001443"/>
    <path id="Trazado_141705" data-name="Trazado 141705" d="M149.987,264.337a.842.842,0,0,0-.638-.987L146.376,263a.842.842,0,0,0-.848.815l-.777,6.693a2.245,2.245,0,1,0,4.459.518Z" transform="translate(-28.821 -52.371)" fill="#f48f7d"/>
    <path id="Trazado_141706" data-name="Trazado 141706" d="M141.586,255.823c.084-.762,1.008-1.206,1.257-1.917.078-.226.069-.465.133-.692a1.708,1.708,0,0,1,1.444-1.312,9.109,9.109,0,0,0,1.977-.657c1.109-.557,1.918-.907,3.118-.408.624.26,1.226.613,1.852.87a2.15,2.15,0,0,1,.731.5,2.058,2.058,0,0,1,.782,1.817c-.014.264-.109.521-.111.79a4.057,4.057,0,0,0,.262,1.12,3.3,3.3,0,0,1-.067,1.66,8.407,8.407,0,0,1-1.09,2.508,7.682,7.682,0,0,1-2.039,2.673c-1.324.949-2.242.23-3.406-.457a7.851,7.851,0,0,0-1.916-.85c-.271-.295-.534-.585-.789-.843-.025,0-.045,0-.07,0a2.091,2.091,0,0,1-1.359-.873c-.585-.752-.217-1.541-.481-2.252a8.46,8.46,0,0,1-.227-1.676" transform="translate(-28.192 -49.902)" fill="#001443"/>
    <path id="Trazado_141707" data-name="Trazado 141707" d="M150.806,255.194a2.032,2.032,0,0,1,2.037.338c.193.155.305.4.322.983l.124,3.974a6.917,6.917,0,0,1-.582,3.057,3.27,3.27,0,0,1-3.087,2.213,3.87,3.87,0,0,1-3.94-3.932L145.6,259.1a2.546,2.546,0,0,1,1.59-2.44Z" transform="translate(-28.992 -50.789)" fill="#f48f7d"/>
    <path id="Trazado_141708" data-name="Trazado 141708" d="M150.02,260.673c.008.239-.111.438-.267.443s-.288-.184-.3-.424.111-.437.267-.443.288.184.3.424" transform="translate(-29.761 -51.824)" fill="#001443"/>
    <path id="Trazado_141709" data-name="Trazado 141709" d="M154.6,260.515c.008.239-.111.437-.267.443s-.288-.184-.3-.424.111-.437.267-.443.288.184.3.424" transform="translate(-30.674 -51.792)" fill="#001443"/>
    <path id="Trazado_141710" data-name="Trazado 141710" d="M145.059,261.6a1.49,1.49,0,1,0,1.257,1.427,1.357,1.357,0,0,0-1.257-1.427" transform="translate(-28.653 -52.093)" fill="#f48f7d"/>
    <path id="Trazado_141711" data-name="Trazado 141711" d="M152.185,260.86a6.876,6.876,0,0,0,.389,1.292l.13.31.034.077a.094.094,0,0,1,.013.039.1.1,0,0,1-.026.074c-.006.015-.079.038-.125.061l-.154.071c-.1.05-.2.1-.3.159.115-.01.226-.03.337-.05l.165-.034a.564.564,0,0,0,.187-.06.275.275,0,0,0,.121-.215.313.313,0,0,0-.019-.124l-.027-.079-.119-.315a6.873,6.873,0,0,0-.605-1.205" transform="translate(-30.297 -51.945)" fill="#e56e5e"/>
    <path id="Trazado_141712" data-name="Trazado 141712" d="M150.94,267.558a2.271,2.271,0,0,1-.663.362,2.225,2.225,0,0,1-.768-.011,5.259,5.259,0,0,1-1.41-.474,6.313,6.313,0,0,1-1.249-.8l-.28-.245c-.087-.089-.179-.173-.263-.263-.068-.107-.137-.211-.2-.317s-.116-.222-.17-.332c.094.082.186.164.274.246l.281.23.252.251.268.235a6.089,6.089,0,0,0,1.2.769,5.009,5.009,0,0,0,1.341.453,1.869,1.869,0,0,0,.68.01,3.35,3.35,0,0,0,.71-.111" transform="translate(-29.06 -52.864)" fill="#e56e5e"/>
    <path id="Trazado_141713" data-name="Trazado 141713" d="M150.362,259.263a.117.117,0,0,0,.016-.212,2,2,0,0,0-1.986.234.117.117,0,0,0-.025.163.118.118,0,0,0,.163.025,1.8,1.8,0,0,1,1.736-.217.114.114,0,0,0,.1.007" transform="translate(-29.54 -51.548)" fill="#001443"/>
    <path id="Trazado_141714" data-name="Trazado 141714" d="M152.1,264.979a.117.117,0,0,0-.066-.223,1.544,1.544,0,0,1-1.333-.245.117.117,0,1,0-.147.181,1.765,1.765,0,0,0,1.531.292l.014,0" transform="translate(-29.971 -52.667)" fill="#fff"/>
    <path id="Trazado_141715" data-name="Trazado 141715" d="M154.972,258.957a.116.116,0,0,0,.076-.095.117.117,0,0,0-.1-.131,2.279,2.279,0,0,0-1.414.358.116.116,0,0,0-.032.162.118.118,0,0,0,.163.032,2.068,2.068,0,0,1,1.253-.32.113.113,0,0,0,.054-.006" transform="translate(-30.563 -51.519)" fill="#001443"/>
    <path id="Trazado_141716" data-name="Trazado 141716" d="M132.1,277.268s2.819-2.645,4.9-3.315l-2.451,7.163Z" transform="translate(-26.306 -54.553)" fill="#001443"/>
    <path id="Trazado_141717" data-name="Trazado 141717" d="M129.59,280.473c-.582-.662-1.135-1.348-1.651-2.065-.08-.1-.159-.211-.239-.316a9,9,0,0,0-1.608,3.888,3.192,3.192,0,0,1-.227,1.136c-.257.531-.8.851-1.176,1.3-.67.792-.812,1.945-1.5,2.721a15.343,15.343,0,0,1-2.016,1.431c-1.1.89-1.627,2.413-2.859,3.1a17.581,17.581,0,0,0-1.609.744c-.715.5-1.054,1.4-1.7,1.984a9.02,9.02,0,0,1-1.871,1.051c-.6.324-4.136,2.673-2.859,3.509.487.319,1.109-.039,1.588-.363a17.545,17.545,0,0,1,1.86-1.095c1.011-.515,2.065-.937,3.1-1.4a40.618,40.618,0,0,0,6.32-3.554,13.415,13.415,0,0,0,2.845-2.451,22.639,22.639,0,0,0,2.509-4.579,10.159,10.159,0,0,1,2.46-3.439q-.69-.793-1.362-1.6" transform="translate(-21.903 -55.377)" fill="#001443"/>
    <path id="Trazado_141718" data-name="Trazado 141718" d="M106.379,305.205l6.112-3.2,1,2.483-5.859,2.615Z" transform="translate(-21.183 -60.139)" fill="#f48f7d"/>
    <path id="Trazado_141719" data-name="Trazado 141719" d="M129.554,280.874q-.333-.378-.651-.77c-2.146,3.69-5.206,8.649-6.747,9.864A104.891,104.891,0,0,1,113,296.451c-.166.1-1.08.626-2.045,1.186a2.355,2.355,0,0,0-.589,3.534,2.223,2.223,0,0,0,2.629.616c6.1-2.769,11.983-5.9,17.457-12.026a5.882,5.882,0,0,0,.078-7.738q-.491-.571-.973-1.15" transform="translate(-21.867 -55.777)" fill="#001443"/>
    <path id="Trazado_141720" data-name="Trazado 141720" d="M66.887,370.433H79.2v5.729H67.287Z" transform="translate(-13.319 -73.765)" fill="#4db0f4"/>
    <path id="Trazado_141721" data-name="Trazado 141721" d="M85.747,328.21H98.06v5.729H86.147Z" transform="translate(-17.075 -65.357)" fill="#4db0f4"/>
    <path id="Trazado_141722" data-name="Trazado 141722" d="M101.775,332.117l-4.56-3.145c-2.19-1.51-5.391-.706-7.112,1.789L72.3,356.568c-1.72,2.495-1.336,5.772.855,7.283L77.72,367c2.19,1.51,5.391.706,7.111-1.789l17.8-25.806c1.721-2.495,1.337-5.772-.855-7.283" transform="translate(-14.184 -65.357)" fill="#4db0f4"/>
    <path id="Trazado_141723" data-name="Trazado 141723" d="M86.733,332.111l-4.56-3.145c-2.19-1.51-5.391-.706-7.111,1.789l-17.8,25.806c-1.72,2.495-1.336,5.772.855,7.283l4.56,3.145c2.19,1.51,5.391.706,7.111-1.789l17.8-25.806c1.721-2.495,1.337-5.772-.855-7.283" transform="translate(-11.189 -65.356)" fill="#336a9e"/>
    <path id="Trazado_141724" data-name="Trazado 141724" d="M174.579,338.384a1.628,1.628,0,1,1-1.628-1.628,1.628,1.628,0,0,1,1.628,1.628" transform="translate(-34.116 -67.059)" fill="#ffd864"/>
    <path id="Trazado_141725" data-name="Trazado 141725" d="M170.361,353.009l-4.332-2.954a1.739,1.739,0,0,1-.456-2.408l1.993-2.923a1.738,1.738,0,0,1,2.409-.456l4.331,2.953a1.738,1.738,0,0,1,.456,2.409l-1.993,2.923a1.738,1.738,0,0,1-2.409.456" transform="translate(-32.911 -68.495)" fill="#4db0f4"/>
    <path id="Trazado_141726" data-name="Trazado 141726" d="M176.619,359.307,176,357.87a.572.572,0,0,0-.752-.3l-6.719,2.888a.573.573,0,0,0-.3.752l.618,1.438a.572.572,0,0,0,.752.3l6.719-2.888a.572.572,0,0,0,.3-.752" transform="translate(-33.49 -71.194)" fill="#fc5810"/>
    <path id="Trazado_141727" data-name="Trazado 141727" d="M172.931,328.752H161.539V317.5A2.461,2.461,0,0,1,164,315.037h6.476a2.461,2.461,0,0,1,2.459,2.459Zm-10.792-.6h10.191V317.5a1.86,1.86,0,0,0-1.858-1.858H164a1.86,1.86,0,0,0-1.857,1.858Z" transform="translate(-32.167 -62.734)" fill="#001443"/>
    <path id="Trazado_141728" data-name="Trazado 141728" d="M127.457,299.684l-.391-.7c14.645-8.185,8.859-24.948,8.8-25.117l.754-.269c.062.174,6.068,17.574-9.162,26.085" transform="translate(-25.303 -54.482)" fill="#fc5810"/>
    <path id="Trazado_141729" data-name="Trazado 141729" d="M480.877,371.319h3.778a12.839,12.839,0,1,0-3.778,0" transform="translate(-93.577 -68.858)" fill="#001443"/>
    <path id="Trazado_141730" data-name="Trazado 141730" d="M484.106,365.228h1.378a4.683,4.683,0,1,0-1.378,0" transform="translate(-95.605 -70.874)" fill="#7da6d3"/>
    <path id="Trazado_141731" data-name="Trazado 141731" d="M432.276,208.178a6.4,6.4,0,0,0-6.382,6.381v7.953a6.382,6.382,0,0,0,12.764,0v-7.953a6.4,6.4,0,0,0-6.382-6.381" transform="translate(-84.809 -41.455)" fill="#001443"/>
    <path id="Trazado_141732" data-name="Trazado 141732" d="M403.286,208.178a6.4,6.4,0,0,0-6.382,6.381v7.953a6.382,6.382,0,1,0,12.763,0v-7.953a6.4,6.4,0,0,0-6.381-6.381" transform="translate(-79.036 -41.455)" fill="#001443"/>
    <path id="Trazado_141733" data-name="Trazado 141733" d="M374.919,208.83a6.4,6.4,0,0,0-6.381,6.381v7.953a6.382,6.382,0,1,0,12.763,0v-7.953a6.4,6.4,0,0,0-6.382-6.381" transform="translate(-73.387 -41.585)" fill="#001443"/>
    <path id="Trazado_141734" data-name="Trazado 141734" d="M283.338,348.648l16.927-67.927L223.1,231.939,185.233,348.648Z" transform="translate(-36.886 -46.186)" fill="#f48f7d"/>
    <path id="Trazado_141735" data-name="Trazado 141735" d="M365.806,229.381c4.376-10.144,7.823-20.879,6.331-29.745-1.156-6.863-5.166-11.976-9.372-16.64a154.2,154.2,0,0,0-37.7-30.39c-13.033-7.5-30.548-12.876-48.236-1.952-17.1,10.56-27.918,28.817-32.37,46.7-8.44,33.9-11.152,46.083-1.564,73.154,12,33.9,37.305,46.218,73.764,12.545,18.763-17.33,39.627-31.612,49.145-53.677" transform="translate(-47.159 -28.767)" fill="#f48f7d"/>
    <path id="Trazado_141736" data-name="Trazado 141736" d="M317.016,148.342,389,83.756a11.914,11.914,0,0,0-15.912-17.735L301.1,130.607a11.914,11.914,0,1,0,15.913,17.735" transform="translate(-59.173 -12.543)" fill="#f48f7d"/>
    <path id="Trazado_141737" data-name="Trazado 141737" d="M347.5,162.786,419.489,98.2a11.914,11.914,0,0,0-15.913-17.735l-71.984,64.587A11.914,11.914,0,0,0,347.5,162.786" transform="translate(-65.245 -15.419)" fill="#f48f7d"/>
    <path id="Trazado_141738" data-name="Trazado 141738" d="M330.843,285.021l45.594-43.214a67.336,67.336,0,0,0,21.072-50.972c-.447-13.827-2.591-26.306-4.854-28.829l-11.067,1.969c-4.376-4.876-20.02,3.011-24.9,7.387l-51.582,95.392a11.948,11.948,0,0,0-.911,16.823c4.376,4.877,21.768,5.821,26.646,1.445" transform="translate(-59.971 -32.26)" fill="#f48f7d"/>
    <path id="Trazado_141739" data-name="Trazado 141739" d="M364.124,5.389l-82.615.672a8.423,8.423,0,0,0-8.354,8.491l1.53,188.062a8.423,8.423,0,0,0,8.491,8.354l82.615-.673a8.423,8.423,0,0,0,8.354-8.491l-1.53-188.061a8.423,8.423,0,0,0-8.491-8.354" transform="translate(-54.394 -1.073)" fill="#0387d0"/>
    <path id="Trazado_141740" data-name="Trazado 141740" d="M282.711,212.156a10,10,0,0,1-10-9.924l-1.53-188.061A10.005,10.005,0,0,1,281.1,4.085l82.616-.673L363.73,5l-.013-1.583h.082a10.018,10.018,0,0,1,10,9.924l1.53,188.062a10.019,10.019,0,0,1-9.924,10.087l-82.616.672h-.084M363.8,6.578h-.055l-82.616.673a6.837,6.837,0,0,0-6.783,6.895l1.53,188.061a6.837,6.837,0,0,0,6.838,6.784h.057l82.615-.672a6.848,6.848,0,0,0,6.783-6.9l-1.53-188.061A6.848,6.848,0,0,0,363.8,6.578" transform="translate(-54 -0.679)" fill="#001443"/>
    <path id="Trazado_141741" data-name="Trazado 141741" d="M353.455,170.733a11.944,11.944,0,0,0-.075,17.668,12.167,12.167,0,0,0,16.266-.181L406.9,154.791a11.914,11.914,0,1,0-15.912-17.736Z" transform="translate(-69.598 -26.685)" fill="#f48f7d"/>
    <path id="Trazado_141742" data-name="Trazado 141742" d="M421.895,165.989c-4.444-4.658-11.181-4.362-15.973-.062l-1.327,1.192-.031-.034-23.434,21.026c-5.169,4.638-6.4,11.735-1.152,16.54,4.564,4.182,9.191,3.623,13.8-.511l26.819-21.687c5-4.49,5.942-11.6,1.3-16.464" transform="translate(-74.992 -32.378)" fill="#f48f7d"/>
    <path id="Trazado_141743" data-name="Trazado 141743" d="M261.385,109.284c8.073,1.426,11.42,11.392,10,19.464l-8.915,73.758c-1.425,8.072-18.531,61.448-26.6,60.024l-3.195-8.577c-3.375-25.3-3.437-34.367-2.013-42.439l18.133-90.743c1.426-8.073,4.526-12.912,12.6-11.487" transform="translate(-45.755 -21.713)" fill="#f48f7d"/>
    <path id="Trazado_141744" data-name="Trazado 141744" d="M256.93,117.551c.818.082,1.638.164,2.453.264a3.565,3.565,0,0,1,2.3,1.207,7.155,7.155,0,0,1,1.6,4.89,9.99,9.99,0,0,1-.111,1.3l-.188,1.221-.406,2.427q-.4,2.428-.854,4.844a10.988,10.988,0,0,1-2.093,4.8,7.324,7.324,0,0,1-2.04,1.828,4.575,4.575,0,0,1-2.818.6,3.94,3.94,0,0,1-2.544-1.386,6.02,6.02,0,0,1-1.192-2.447,10.722,10.722,0,0,1,.108-5.1c.251-1.55.523-3.128.834-4.7-.018,1.6-.075,3.2-.15,4.8a10.913,10.913,0,0,0,.324,4.68c.448,1.442,1.469,2.652,2.777,2.719a4.217,4.217,0,0,0,3.461-1.96,10.441,10.441,0,0,0,1.792-4.136q.467-2.416.983-4.82l.513-2.407.268-1.2a8.934,8.934,0,0,0,.175-1.138,6.647,6.647,0,0,0-.987-4.382,3.136,3.136,0,0,0-1.824-1.268c-.8-.207-1.587-.43-2.379-.654" transform="translate(-49.938 -23.408)" fill="#e56761"/>
    <path id="Trazado_141745" data-name="Trazado 141745" d="M358.208,193.67c-.642-.557-1.283-1.116-1.912-1.686a10.506,10.506,0,0,1-1.8-1.884,6.356,6.356,0,0,1-.983-5.232A5.7,5.7,0,0,1,354.9,182.4l1.789-1.808c1.208-1.216,2.352-2.379,3.651-3.6a7.008,7.008,0,0,1,5.293-1.681,7.759,7.759,0,0,1,2.7.75,8.5,8.5,0,0,1,2.242,1.641,7.025,7.025,0,0,1,2.062,5.035,6.606,6.606,0,0,1-2.283,4.795l.031-.036c-.911,1.021-1.838,2.031-2.794,3.018.725-1.168,1.48-2.311,2.25-3.443,0-.006.032-.036.032-.036a5.778,5.778,0,0,0-.3-8.319,6.737,6.737,0,0,0-4.066-1.843,5.753,5.753,0,0,0-4.139,1.308l-3.674,3.448-1.86,1.727a4.44,4.44,0,0,0-1.2,1.844,5.7,5.7,0,0,0,.472,4.52,11.431,11.431,0,0,0,1.479,1.98c.55.647,1.088,1.305,1.623,1.965" transform="translate(-70.355 -34.904)" fill="#e56761"/>
    <path id="Trazado_141746" data-name="Trazado 141746" d="M385.045,207.81c-.562-.474-1.123-.95-1.671-1.438a9.005,9.005,0,0,1-1.578-1.621,5.535,5.535,0,0,1-.884-4.571,5.01,5.01,0,0,1,1.211-2.173l1.542-1.567c1.041-1.057,2.022-2.057,3.153-3.119a6.143,6.143,0,0,1,4.652-1.478,6.838,6.838,0,0,1,4.332,2.1,6.142,6.142,0,0,1,1.792,4.419,5.747,5.747,0,0,1-2.019,4.177l.032-.035c-.8.875-1.61,1.738-2.451,2.579.61-1.021,1.252-2.018,1.906-3l.033-.035a4.934,4.934,0,0,0-.3-7.086,5.758,5.758,0,0,0-3.454-1.556,4.888,4.888,0,0,0-3.5,1.105l-3.177,2.969-1.612,1.488a3.756,3.756,0,0,0-1.024,1.551,4.876,4.876,0,0,0,.374,3.857,9.877,9.877,0,0,0,1.256,1.718c.47.564.927,1.14,1.383,1.717" transform="translate(-75.817 -38.196)" fill="#e56761"/>
    <path id="Trazado_141747" data-name="Trazado 141747" d="M362.831,104.966H287.11a3.277,3.277,0,0,1-3.277-3.276V21.161a3.277,3.277,0,0,1,3.277-3.277h75.721a3.276,3.276,0,0,1,3.276,3.277V101.69a3.276,3.276,0,0,1-3.276,3.276" transform="translate(-56.52 -3.561)" fill="#fff"/>
    <path id="Trazado_141748" data-name="Trazado 141748" d="M313.645,71.116a.264.264,0,0,0,.263.263h.713v.388h.528v-.652a.265.265,0,0,0-.264-.263h-.712V69.8a.265.265,0,0,0-.264-.264h-1.124a.264.264,0,0,0-.2-.1H311.9a.264.264,0,0,0-.2.1h-.589v-.628a.264.264,0,0,0-.263-.263h-.1a.264.264,0,0,0-.263.263v.41h-.063a.264.264,0,0,0-.259.218H309.5V64.323a.264.264,0,0,0-.168-.246l-8.515-3.332a.264.264,0,0,0-.36.246V73.739h-1.325V67.506a.264.264,0,0,0-.263-.263h-3.657v-.827a.264.264,0,0,0-.263-.264h-.16a.264.264,0,0,0-.263.264v.615a.263.263,0,0,0-.166-.058h-.748a.264.264,0,0,0-.264.263l-1.8.007V62.41a.264.264,0,0,0-.264-.263h-.875v-.469a.264.264,0,0,0-.264-.263h-1.37a.264.264,0,0,0-.263.263v.469h-2.1V59.618a.263.263,0,0,0-.263-.263h-.075a.264.264,0,0,0-.263.263v2.528h-1.941a.264.264,0,1,0,0,.528h4.906a.265.265,0,0,0,.264-.264v-.469h.842v.469a.264.264,0,0,0,.263.264h.875v4.832a.264.264,0,0,0,.263.264h2.326a.264.264,0,0,0,.263-.264l.22-.007a.266.266,0,0,0,.264.271h.429a.275.275,0,0,0,.081-.013.257.257,0,0,0,.079.013h3.657V74a.263.263,0,0,0,.263.263h1.852a.264.264,0,0,0,.264-.263V61.378l7.987,3.124v5.3a.264.264,0,0,0,.264.263h1.186a.227.227,0,0,0,.058-.006.221.221,0,0,0,.057.006h.212a.252.252,0,0,0,.049,0,.226.226,0,0,0,.047,0H311.9a.259.259,0,0,0,.2-.1h.273a.262.262,0,0,0,.2.1h1.064Z" transform="translate(-56.475 -11.819)" fill="#6d72a0"/>
    <path id="Trazado_141749" data-name="Trazado 141749" d="M375.657,73.264h-6.5v-.319a.264.264,0,0,0-.263-.263h-2.781a.264.264,0,0,0-.264.263v.319h-.393a.264.264,0,0,0-.264.263V83.639h-1.7V75.094a.265.265,0,0,0-.264-.264h-1.4V71.973a.264.264,0,0,0-.264-.264h-.533v-.42a.264.264,0,0,0-.263-.264H360.1a.265.265,0,0,0-.264.264v.42h-2.077V68.6a.264.264,0,0,0-.263-.264H357.4V66.956a.264.264,0,0,0-.264-.263h-.191a.264.264,0,0,0-.263.263v1.377H351.9v-.755a.264.264,0,0,0-.263-.264h-1.968v-.129a.264.264,0,0,0-.263-.263h-1.424a.264.264,0,0,0-.263.263v.129h-.207V65.092a.264.264,0,0,0-.263-.263H347a.264.264,0,0,0-.264.263v2.221h-7.252a.263.263,0,0,0-.228-.131h-.187a.261.261,0,0,0-.227.131H338.3a.264.264,0,0,0-.263.264v2.2h-2.47a.269.269,0,0,0-.263-.281h-.925a.264.264,0,0,0-.263.264l-.592.017a.264.264,0,0,0-.263.264V72.8h.528V70.3h.591a.264.264,0,0,0,.264-.263l.4-.018a.268.268,0,0,0,.264.281h3a.264.264,0,0,0,.263-.263v-2.2h.509a.269.269,0,0,1,.187,0H347a.26.26,0,0,0,.121-.03.257.257,0,0,0,.121.03h.734a.264.264,0,0,0,.264-.263v-.13h.9v.13a.264.264,0,0,0,.264.263h1.967V68.6a.264.264,0,0,0,.264.263h5.316a.262.262,0,0,0,.1-.018.269.269,0,0,0,.1.018h.087v3.112a.263.263,0,0,0,.263.263h2.6a.264.264,0,0,0,.263-.263v-.421h.149v.421a.264.264,0,0,0,.263.263h.533v2.858a.264.264,0,0,0,.264.263h1.4V83.9a.264.264,0,0,0,.263.263h2.229a.264.264,0,0,0,.264-.263V73.792h.394a.264.264,0,0,0,.264-.264v-.318h2.254v.318a.264.264,0,0,0,.264.264h6.759a.264.264,0,0,0,0-.528" transform="translate(-66.362 -12.909)" fill="#6d72a0"/>
    <path id="Trazado_141750" data-name="Trazado 141750" d="M379.217,119.012a.989.989,0,1,1,.989-.989.989.989,0,0,1-.989.989" transform="translate(-75.317 -23.305)" fill="#6d72a0"/>
    <path id="Trazado_141751" data-name="Trazado 141751" d="M372.649,119.012a.989.989,0,1,1,.989-.989.989.989,0,0,1-.989.989" transform="translate(-74.009 -23.305)" fill="#6d72a0"/>
    <path id="Trazado_141752" data-name="Trazado 141752" d="M366.081,119.012a.989.989,0,1,1,.989-.989.989.989,0,0,1-.989.989" transform="translate(-72.701 -23.305)" fill="#6d72a0"/>
    <path id="Trazado_141753" data-name="Trazado 141753" d="M359.949,54.29a10.5,10.5,0,0,0-7.846.505l-10.927,5.87L333.662,64.7l-24.07,1.187-4.411,2.37a.4.4,0,0,0,.131.746l15.973,2.346L301.669,81.888l-7.211-3.169a1.1,1.1,0,0,0-.966.038l-2.779,1.493a1.1,1.1,0,0,0-.289,1.718l6.67,7.249c.023.048.035.1.061.148a4.464,4.464,0,0,0,6.027,1.815l25.305-13.595-6.261,20.244a.917.917,0,0,0,1.309,1.079l3.5-1.882,15.467-26.972,6.219-3.34,8.946-4.806c2.753-1.478,7.556-5.432,2.278-7.618" transform="translate(-57.774 -10.703)" fill="#6d72a0"/>
    <path id="Trazado_141754" data-name="Trazado 141754" d="M369.649,17.885H356.8V38.622l6.533-3.543,6.316,3.425Z" transform="translate(-71.05 -3.561)" fill="#eb6f2d"/>
    <path id="Trazado_141755" data-name="Trazado 141755" d="M359.477,246.365H294.589a6.549,6.549,0,0,1-6.529-6.529v-13.18a6.548,6.548,0,0,1,6.529-6.529h64.888a6.548,6.548,0,0,1,6.53,6.529v13.18a6.549,6.549,0,0,1-6.53,6.529" transform="translate(-57.362 -43.834)" fill="#fff"/>
    <path id="Trazado_141756" data-name="Trazado 141756" d="M296.976,238.814h-1.894v-5.463h-1.712V231.8h5.314v1.55h-1.707Z" transform="translate(-58.419 -46.159)" fill="#4db0f4"/>
    <rect id="Rectángulo_37745" data-name="Rectángulo 37745" width="1.904" height="7.012" transform="translate(241.267 185.643)" fill="#4db0f4"/>
    <path id="Trazado_141757" data-name="Trazado 141757" d="M308.583,233.231a1.206,1.206,0,0,0-1.054.554,2.665,2.665,0,0,0-.38,1.528q0,2.023,1.541,2.024a3.17,3.17,0,0,0,.9-.13,8.786,8.786,0,0,0,.877-.312v1.6a4.856,4.856,0,0,1-1.985.388,3.139,3.139,0,0,1-2.434-.921,3.8,3.8,0,0,1-.847-2.661,4.254,4.254,0,0,1,.41-1.914,2.938,2.938,0,0,1,1.18-1.269,3.561,3.561,0,0,1,1.809-.443,4.982,4.982,0,0,1,2.173.493l-.58,1.491a6.694,6.694,0,0,0-.776-.307,2.743,2.743,0,0,0-.835-.125" transform="translate(-60.775 -46.134)" fill="#4db0f4"/>
    <path id="Trazado_141758" data-name="Trazado 141758" d="M319.475,238.814h-2.14l-1.385-2.681-.561.336v2.346h-1.9V231.8h1.9v3.046a8.37,8.37,0,0,1,.58-.9l1.474-2.15h2.071l-2.21,3.142Z" transform="translate(-62.425 -46.159)" fill="#4db0f4"/>
    <path id="Trazado_141759" data-name="Trazado 141759" d="M326.074,238.814H321.91V231.8h4.164v1.521H323.8v1.1h2.1v1.521h-2.1v1.323h2.27Z" transform="translate(-64.102 -46.159)" fill="#4db0f4"/>
    <path id="Trazado_141760" data-name="Trazado 141760" d="M331.607,238.814h-1.894v-5.463H328V231.8h5.314v1.55h-1.707Z" transform="translate(-65.315 -46.159)" fill="#4db0f4"/>
    <path id="Trazado_141761" data-name="Trazado 141761" d="M345.569,235.271a3.779,3.779,0,0,1-.868,2.69,3.946,3.946,0,0,1-5.073,0,4.55,4.55,0,0,1,0-5.37,3.968,3.968,0,0,1,5.082-.006,3.781,3.781,0,0,1,.863,2.69m-4.825,0q0,2.033,1.416,2.033a1.217,1.217,0,0,0,1.067-.494,3.594,3.594,0,0,0,0-3.091,1.206,1.206,0,0,0-1.053-.5q-1.424,0-1.425,2.053" transform="translate(-67.456 -46.131)" fill="#4db0f4"/>
    <path id="Trazado_141762" data-name="Trazado 141762" d="M350.74,236.262v2.552h-1.894V231.8h2.3q2.858,0,2.858,2.073a2.067,2.067,0,0,1-1.188,1.884l2.043,3.056h-2.15l-1.486-2.552Zm0-1.424h.355q.993,0,.994-.878c0-.482-.326-.724-.975-.724h-.374Z" transform="translate(-69.466 -46.159)" fill="#4db0f4"/>
    <path id="Trazado_141763" data-name="Trazado 141763" d="M363.1,235.16a3.619,3.619,0,0,1-.967,2.7,3.711,3.711,0,0,1-2.717.951h-2.268V231.8h2.427a3.663,3.663,0,0,1,2.608.863,3.263,3.263,0,0,1,.918,2.494m-1.966.067a2.231,2.231,0,0,0-.382-1.43,1.41,1.41,0,0,0-1.159-.465h-.55v3.927h.422a1.527,1.527,0,0,0,1.265-.5,2.417,2.417,0,0,0,.4-1.532" transform="translate(-71.119 -46.159)" fill="#4db0f4"/>
    <path id="Trazado_141764" data-name="Trazado 141764" d="M370.309,238.814h-4.162V231.8h4.162v1.521h-2.268v1.1h2.1v1.521h-2.1v1.323h2.268Z" transform="translate(-72.911 -46.159)" fill="#4db0f4"/>
    <path id="Trazado_141765" data-name="Trazado 141765" d="M374.771,236.262v2.552h-1.894V231.8h2.3q2.858,0,2.858,2.073a2.067,2.067,0,0,1-1.189,1.884l2.043,3.056h-2.15l-1.486-2.552Zm0-1.424h.355q.993,0,.994-.878c0-.482-.326-.724-.975-.724h-.374Z" transform="translate(-74.251 -46.159)" fill="#4db0f4"/>
    <path id="Trazado_141766" data-name="Trazado 141766" d="M366.13,135.718H324.274a.951.951,0,0,1,0-1.9H366.13a.951.951,0,0,1,0,1.9" transform="translate(-64.384 -26.647)" fill="#fff"/>
    <path id="Trazado_141767" data-name="Trazado 141767" d="M313.522,135.718H296.81a.951.951,0,0,1,0-1.9h16.713a.951.951,0,0,1,0,1.9" transform="translate(-58.915 -26.647)" fill="#fff"/>
    <path id="Trazado_141768" data-name="Trazado 141768" d="M370.14,142.275H344.415a.95.95,0,1,1,0-1.9H370.14a.95.95,0,1,1,0,1.9" transform="translate(-68.394 -27.953)" fill="#fff"/>
    <path id="Trazado_141769" data-name="Trazado 141769" d="M327.208,142.275h-30.4a.95.95,0,1,1,0-1.9h30.4a.95.95,0,1,1,0,1.9" transform="translate(-58.915 -27.953)" fill="#fff"/>
    <path id="Trazado_141770" data-name="Trazado 141770" d="M366.9,148.175H328.141a.951.951,0,1,1,0-1.9H366.9a.951.951,0,0,1,0,1.9" transform="translate(-65.154 -29.128)" fill="#fff"/>
    <path id="Trazado_141771" data-name="Trazado 141771" d="M316.409,148.175h-19.6a.951.951,0,1,1,0-1.9h19.6a.951.951,0,0,1,0,1.9" transform="translate(-58.915 -29.128)" fill="#fff"/>
    <path id="Trazado_141772" data-name="Trazado 141772" d="M369.038,153.692H338.881a.951.951,0,0,1,0-1.9h30.158a.951.951,0,0,1,0,1.9" transform="translate(-67.293 -30.226)" fill="#fff"/>
    <path id="Trazado_141773" data-name="Trazado 141773" d="M323.018,153.692H296.81a.951.951,0,0,1,0-1.9h26.208a.951.951,0,0,1,0,1.9" transform="translate(-58.915 -30.226)" fill="#fff"/>
    <path id="Trazado_141774" data-name="Trazado 141774" d="M356.477,160.249H333.371a.951.951,0,0,1,0-1.9h23.106a.951.951,0,0,1,0,1.9" transform="translate(-66.195 -31.532)" fill="#fff"/>
    <path id="Trazado_141775" data-name="Trazado 141775" d="M318.8,160.249h-22a.951.951,0,0,1,0-1.9h22a.951.951,0,1,1,0,1.9" transform="translate(-58.915 -31.532)" fill="#fff"/>
    <rect id="Rectángulo_37746" data-name="Rectángulo 37746" width="2.302" height="20.422" transform="translate(389.19 262.818)" fill="#001443"/>
    <path id="Trazado_141776" data-name="Trazado 141776" d="M482.229,336.294v-6.778h-3.6v7.662a3.27,3.27,0,0,0,3.27,3.27H486.8v-2.6h-3.02a1.551,1.551,0,0,1-1.551-1.551" transform="translate(-95.309 -65.617)" fill="#001443"/>
    <path id="Trazado_141777" data-name="Trazado 141777" d="M490.057,326.057a4.526,4.526,0,0,1-4.514,4.513H457.222a4.526,4.526,0,0,1-4.513-4.513Z" transform="translate(-90.148 -64.928)" fill="#fff"/>
    <path id="Trazado_141778" data-name="Trazado 141778" d="M485.444,330.97H457.123a4.919,4.919,0,0,1-4.914-4.913h.8a4.118,4.118,0,0,0,4.113,4.112h28.321a4.118,4.118,0,0,0,4.112-4.112h.8a4.919,4.919,0,0,1-4.913,4.913" transform="translate(-90.049 -64.928)" fill="#a5abd3"/>
    <rect id="Rectángulo_37747" data-name="Rectángulo 37747" width="1.335" height="49.044" transform="translate(369.101)" fill="#7da6d3"/>
    <path id="Trazado_141779" data-name="Trazado 141779" d="M531.132,130.378H496.094a11.067,11.067,0,0,1,0-22.134,10.661,10.661,0,0,1,1.591.123,17.751,17.751,0,0,1,31.578-6.244,13.577,13.577,0,0,1,1.758-.123,14.186,14.186,0,0,1,.51,28.364c0,.009-.4.014-.4.014m-35.037-21.333a10.266,10.266,0,0,0,0,20.532l35.034-.006a13.386,13.386,0,1,0-1.993-26.622l-.241.034-.141-.2a16.951,16.951,0,0,0-30.373,6.125l-.083.375-.378-.068a10.257,10.257,0,0,0-1.825-.171" transform="translate(-96.584 -18.885)" fill="#fff"/>
    <path id="Trazado_141780" data-name="Trazado 141780" d="M94.884,190.331H72.329a7.267,7.267,0,0,1,0-14.533,6.839,6.839,0,0,1,.917.062,11.57,11.57,0,0,1,20.5-4.012,8.653,8.653,0,0,1,1.066-.07,9.275,9.275,0,0,1,.472,18.538c0,.012-.4.015-.4.015M72.329,176.6a6.466,6.466,0,0,0,0,12.932l22.552,0a8.474,8.474,0,1,0-1.262-16.854l-.24.034-.142-.2a10.769,10.769,0,0,0-19.3,3.891l-.083.376-.378-.068a6.471,6.471,0,0,0-1.15-.108" transform="translate(-12.956 -33.288)" fill="#fff"/>
    <path id="Trazado_141781" data-name="Trazado 141781" d="M213.986,98.8H161.833a16.277,16.277,0,1,1,0-32.555,15.861,15.861,0,0,1,2.517.207,26.226,26.226,0,0,1,46.767-9.305,20.323,20.323,0,0,1,2.706-.2,20.921,20.921,0,0,1,.564,41.834c0,.007-.4.015-.4.015M161.833,67.048a15.476,15.476,0,1,0,0,30.953l52.15-.008a20.12,20.12,0,1,0-3-40.018l-.24.034-.142-.2A25.426,25.426,0,0,0,165.046,67l-.083.376-.378-.068a15.344,15.344,0,0,0-2.752-.259" transform="translate(-28.985 -9.218)" fill="#7da6d3"/>
    <path id="Trazado_141782" data-name="Trazado 141782" d="M488.378,327.014H454.53a1.312,1.312,0,1,1,0-2.624h33.849a1.312,1.312,0,1,1,0,2.624" transform="translate(-90.249 -64.596)" fill="#fff"/>
  </g>
</svg>
