<svg xmlns="http://www.w3.org/2000/svg" width="103" height="103" viewBox="0 0 103 103">
  <g id="Grupo_212508" data-name="Grupo 212508" transform="translate(-309 -1997)">
    <circle id="Elipse_4802" data-name="Elipse 4802" cx="51.5" cy="51.5" r="51.5" transform="translate(309 1997)" fill="#4d793f" opacity="0.25"/>
    <path id="Trazado_142110" data-name="Trazado 142110" d="M31.5,0A31.5,31.5,0,1,1,0,31.5,31.5,31.5,0,0,1,31.5,0Z" transform="translate(329 2017)" fill="red"/>
    <path id="Trazado_149810" data-name="Trazado 149810" d="M11,34.546h-5.6L4.524,14.141h7.362ZM4.319,40.9a3.183,3.183,0,0,1,1.1-2.492,3.972,3.972,0,0,1,2.738-.974,3.972,3.972,0,0,1,2.738.974,3.378,3.378,0,0,1,0,4.983,3.972,3.972,0,0,1-2.738.974A3.972,3.972,0,0,1,5.416,43.4,3.183,3.183,0,0,1,4.319,40.9Z" transform="translate(353 2024)" fill="#fff"/>
  </g>
</svg>
