<svg xmlns="http://www.w3.org/2000/svg" xmlns:xlink="http://www.w3.org/1999/xlink" width="504.745" height="525.588" viewBox="0 0 504.745 525.588">
  <defs>
    <clipPath id="clip-path">
      <rect id="Rectángulo_37825" data-name="Rectángulo 37825" width="504.745" height="525.588" fill="none"/>
    </clipPath>
  </defs>
  <g id="Grupo_212509" data-name="Grupo 212509" transform="translate(-180.255 -2805)">
    <g id="Grupo_85850" data-name="Grupo 85850" transform="translate(180.255 2805)">
      <g id="Grupo_85849" data-name="Grupo 85849" clip-path="url(#clip-path)">
        <path id="Trazado_142111" data-name="Trazado 142111" d="M217.317,363.11c-76.917,0-139.494-62.577-139.494-139.5S140.4,84.12,217.317,84.12,356.811,146.7,356.811,223.614s-62.576,139.5-139.494,139.5m0-268.73A129.235,129.235,0,1,0,346.551,223.614,129.38,129.38,0,0,0,217.317,94.38" transform="translate(36.246 39.179)" fill="#c1d0bc"/>
        <rect id="Rectángulo_37790" data-name="Rectángulo 37790" width="10.26" height="13.938" transform="translate(248.433 115.846)" fill="#c1d0bc"/>
        <path id="Trazado_142112" data-name="Trazado 142112" d="M166.709,85.941l9.209-15.947,9.208,15.947Z" transform="translate(77.645 32.6)" fill="#c1d0bc"/>
        <rect id="Rectángulo_37791" data-name="Rectángulo 37791" width="10.26" height="13.938" transform="translate(163.04 146.926) rotate(-35.999)" fill="#c1d0bc"/>
        <path id="Trazado_142113" data-name="Trazado 142113" d="M110.673,109.182,108.75,90.867l16.824,7.489Z" transform="translate(50.65 42.322)" fill="#c1d0bc"/>
        <rect id="Rectángulo_37792" data-name="Rectángulo 37792" width="10.26" height="13.938" transform="translate(112.223 222.262) rotate(-71.998)" fill="#c1d0bc"/>
        <path id="Trazado_142114" data-name="Trazado 142114" d="M81.367,160.419,69.045,146.733,87.058,142.9Z" transform="translate(32.158 66.557)" fill="#c1d0bc"/>
        <rect id="Rectángulo_37793" data-name="Rectángulo 37793" width="13.938" height="10.262" transform="matrix(0.951, -0.309, 0.309, 0.951, 112.223, 303.323)" fill="#c1d0bc"/>
        <path id="Trazado_142115" data-name="Trazado 142115" d="M87.058,221.243l-18.013-3.83,12.321-13.687Z" transform="translate(32.158 94.886)" fill="#c1d0bc"/>
        <rect id="Rectángulo_37794" data-name="Rectángulo 37794" width="13.938" height="10.261" transform="translate(163.039 378.661) rotate(-53.996)" fill="#c1d0bc"/>
        <path id="Trazado_142116" data-name="Trazado 142116" d="M125.573,266.042l-16.824,7.489,1.923-18.315Z" transform="translate(50.65 118.868)" fill="#c1d0bc"/>
        <rect id="Rectángulo_37795" data-name="Rectángulo 37795" width="10.26" height="13.938" transform="translate(248.433 395.803)" fill="#c1d0bc"/>
        <path id="Trazado_142117" data-name="Trazado 142117" d="M185.127,277.705l-9.209,15.947-9.208-15.947Z" transform="translate(77.645 129.342)" fill="#c1d0bc"/>
        <rect id="Rectángulo_37796" data-name="Rectángulo 37796" width="10.261" height="13.938" transform="translate(327.594 373.416) rotate(-35.999)" fill="#c1d0bc"/>
        <path id="Trazado_142118" data-name="Trazado 142118" d="M240.657,255.217l1.923,18.315-16.824-7.489Z" transform="translate(105.147 118.868)" fill="#c1d0bc"/>
        <rect id="Rectángulo_37797" data-name="Rectángulo 37797" width="10.262" height="13.938" transform="translate(378.478 308.777) rotate(-72.003)" fill="#c1d0bc"/>
        <path id="Trazado_142119" data-name="Trazado 142119" d="M270.341,203.726l12.321,13.686-18.013,3.831Z" transform="translate(123.261 94.886)" fill="#c1d0bc"/>
        <rect id="Rectángulo_37798" data-name="Rectángulo 37798" width="13.939" height="10.26" transform="translate(378.478 216.812) rotate(-18)" fill="#c1d0bc"/>
        <path id="Trazado_142120" data-name="Trazado 142120" d="M264.65,142.9l18.013,3.83-12.321,13.687Z" transform="translate(123.261 66.557)" fill="#c1d0bc"/>
        <rect id="Rectángulo_37799" data-name="Rectángulo 37799" width="13.938" height="10.26" transform="translate(327.595 152.171) rotate(-54.003)" fill="#c1d0bc"/>
        <path id="Trazado_142121" data-name="Trazado 142121" d="M225.757,98.356l16.824-7.488-1.923,18.315Z" transform="translate(105.147 42.322)" fill="#c1d0bc"/>
        <path id="Trazado_142122" data-name="Trazado 142122" d="M313.855,282.463a47.7,47.7,0,1,1,60.1-30.622,47.695,47.695,0,0,1-60.1,30.622" transform="translate(130.823 88.21)" fill="#c1d0bc"/>
        <path id="Trazado_142123" data-name="Trazado 142123" d="M311.375,271.517a8.541,8.541,0,0,1-8.532-8.531v-2.792h2.932v2.792a5.6,5.6,0,0,0,11.2,0V214.731h2.932v48.255a8.54,8.54,0,0,1-8.531,8.531" transform="translate(141.05 100.011)" fill="#845e40"/>
        <path id="Trazado_142124" data-name="Trazado 142124" d="M319.824,190.658a1.308,1.308,0,0,1-.016.251,44.41,44.41,0,0,0-9.586,0,1.3,1.3,0,0,1-.016-.251,4.809,4.809,0,1,1,9.618,0" transform="translate(144.479 86.554)" fill="#824737"/>
        <path id="Trazado_142125" data-name="Trazado 142125" d="M318.281,189.379a43.792,43.792,0,0,1,38.992,43.213,6.256,6.256,0,0,0-12.5.324c0-22.663-15.647-43.8-31.286-43.8a44.645,44.645,0,0,1,4.8.259" transform="translate(146.006 88.083)" fill="#69a6a5"/>
        <path id="Trazado_142126" data-name="Trazado 142126" d="M313.484,189.12c15.638,0,31.286,21.133,31.286,43.8a6.26,6.26,0,0,0-12.521,0c0-24.471-10.331-43.8-18.766-43.8" transform="translate(146.006 88.083)" fill="#ef8b46"/>
        <path id="Trazado_142127" data-name="Trazado 142127" d="M313.484,189.12c8.435,0,18.766,19.326,18.766,43.8a6.255,6.255,0,1,0-12.51,0c0-14.164-.422-37.533-6.256-43.8" transform="translate(146.006 88.083)" fill="#69a6a5"/>
        <path id="Trazado_142128" data-name="Trazado 142128" d="M315.472,189.12c5.834,6.263,6.256,29.633,6.256,43.8a6.256,6.256,0,0,0-12.512,0c0-14.164.422-37.533,6.256-43.8" transform="translate(144.018 88.083)" fill="#ef8b46"/>
        <path id="Trazado_142129" data-name="Trazado 142129" d="M322.609,189.379a44.48,44.48,0,0,1,4.789-.259c-15.638,0-31.285,21.133-31.285,43.8a6.256,6.256,0,0,0-12.5-.324,43.793,43.793,0,0,1,39-43.213" transform="translate(132.092 88.083)" fill="#69a6a5"/>
        <path id="Trazado_142130" data-name="Trazado 142130" d="M319.447,189.12c-5.834,6.263-6.256,29.633-6.256,43.8a6.255,6.255,0,1,0-12.51,0c0-24.471,10.331-43.8,18.766-43.8" transform="translate(140.043 88.083)" fill="#69a6a5"/>
        <path id="Trazado_142131" data-name="Trazado 142131" d="M292.14,232.917c0-22.665,15.647-43.8,31.285-43.8-8.434,0-18.766,19.326-18.766,43.8a6.259,6.259,0,0,0-12.519,0" transform="translate(136.065 88.083)" fill="#ef8b46"/>
        <path id="Trazado_142132" data-name="Trazado 142132" d="M373.127,221.454H370.2c0-.07,0-.147,0-.215a4.79,4.79,0,0,0-9.576.215h-2.931a4.794,4.794,0,0,0-9.588,0h-2.931a4.789,4.789,0,1,0-9.579,0h-2.931a4.79,4.79,0,1,0-9.58,0h-2.931a4.79,4.79,0,0,0-9.58,0h-2.931a4.794,4.794,0,0,0-9.587,0h-2.931a4.79,4.79,0,0,0-9.573-.251l-2.927-.148a7.719,7.719,0,0,1,13.967-4.122,7.72,7.72,0,0,1,12.517,0,7.715,7.715,0,0,1,12.512,0,7.715,7.715,0,0,1,12.512,0,7.714,7.714,0,0,1,12.512,0,7.72,7.72,0,0,1,12.518,0,7.719,7.719,0,0,1,13.967,4.122c.009.108.01.258.01.4" transform="translate(131.627 99.546)" fill="#845e40"/>
        <path id="Trazado_142133" data-name="Trazado 142133" d="M370.187,233.067A42.286,42.286,0,0,0,332.5,191.3a43.258,43.258,0,0,0-9.269,0,42.28,42.28,0,0,0-37.692,41.765l-2.932-.021a45.208,45.208,0,0,1,40.307-44.659,46.115,46.115,0,0,1,9.9,0,45.216,45.216,0,0,1,40.3,44.659Z" transform="translate(131.626 87.618)" fill="#845e40"/>
        <path id="Trazado_142134" data-name="Trazado 142134" d="M285.535,219.141H282.6c0-.145,0-.3.013-.444l2.923.237c-.006.067,0,.139,0,.207" transform="translate(131.623 101.859)" fill="#845e40"/>
        <path id="Trazado_142135" data-name="Trazado 142135" d="M321.71,191.666l-2.873-.583,1.436.292-1.45-.2a3.344,3.344,0,1,0-6.687-.056l-2.888.532a2.838,2.838,0,0,1-.044-.532,6.275,6.275,0,1,1,12.55,0,2.716,2.716,0,0,1-.045.544" transform="translate(144.013 86.088)" fill="#845e40"/>
        <path id="Trazado_142136" data-name="Trazado 142136" d="M294.072,233.382H291.14c0-23.266,15.917-45.262,32.752-45.262v2.932c-15.05,0-29.821,20.968-29.821,42.331" transform="translate(135.599 87.617)" fill="#845e40"/>
        <path id="Trazado_142137" data-name="Trazado 142137" d="M302.612,233.382h-2.931c0-23.266,9.832-45.262,20.233-45.262v2.932c-6.967,0-17.3,17.775-17.3,42.331" transform="translate(139.577 87.617)" fill="#845e40"/>
        <path id="Trazado_142138" data-name="Trazado 142138" d="M346.236,233.382H343.3c0-21.363-14.77-42.331-29.819-42.331V188.12c16.834,0,32.751,22,32.751,45.262" transform="translate(146.006 87.617)" fill="#845e40"/>
        <path id="Trazado_142139" data-name="Trazado 142139" d="M333.717,233.382h-2.931c0-24.556-10.334-42.331-17.3-42.331V188.12c10.4,0,20.232,22,20.232,45.262" transform="translate(146.006 87.617)" fill="#845e40"/>
        <path id="Trazado_142140" data-name="Trazado 142140" d="M311.148,233.234h-2.932c0-17.532.756-38.469,6.649-44.8l2.146,2c-5.863,6.294-5.863,33.769-5.863,42.8" transform="translate(143.553 87.765)" fill="#845e40"/>
        <path id="Trazado_142141" data-name="Trazado 142141" d="M321.546,233.234h-2.931c0-9.028,0-36.5-5.862-42.8l2.144-2c5.892,6.328,6.649,27.264,6.649,44.8" transform="translate(145.665 87.765)" fill="#845e40"/>
        <path id="Trazado_142142" data-name="Trazado 142142" d="M34.722,197.132A47.7,47.7,0,1,1,4.1,257.232a47.695,47.695,0,0,1,30.622-60.1" transform="translate(0.816 90.721)" fill="#c1d0bc"/>
        <rect id="Rectángulo_37800" data-name="Rectángulo 37800" width="89.538" height="48.807" transform="translate(5.508 308.259)" fill="#bfc1bf"/>
        <path id="Trazado_142143" data-name="Trazado 142143" d="M59.295,232.313A16.854,16.854,0,1,1,42.44,215.458a16.854,16.854,0,0,1,16.855,16.855" transform="translate(11.917 100.35)" fill="#f16935"/>
        <path id="Trazado_142144" data-name="Trazado 142144" d="M50.932,230.3a10.507,10.507,0,1,1-10.508-10.508A10.509,10.509,0,0,1,50.932,230.3" transform="translate(13.934 102.367)" fill="#845e40"/>
        <rect id="Rectángulo_37801" data-name="Rectángulo 37801" width="16.449" height="8.626" transform="translate(73.081 313.529)" fill="#e9e5d9"/>
        <rect id="Rectángulo_37802" data-name="Rectángulo 37802" width="14.449" height="4.35" transform="translate(14.021 303.909)" fill="#bfc1bf"/>
        <path id="Trazado_142145" data-name="Trazado 142145" d="M95.228,261.046H2.758V209.308h92.47ZM5.69,258.115H92.3V212.24H5.69Z" transform="translate(1.285 97.486)" fill="#845e40"/>
        <path id="Trazado_142146" data-name="Trazado 142146" d="M42.907,251.1a18.32,18.32,0,1,1,18.319-18.32A18.341,18.341,0,0,1,42.907,251.1m0-33.708a15.388,15.388,0,1,0,15.387,15.387A15.405,15.405,0,0,0,42.907,217.39" transform="translate(11.451 99.884)" fill="#845e40"/>
        <path id="Trazado_142147" data-name="Trazado 142147" d="M40.891,242.734A11.973,11.973,0,1,1,52.864,230.76a11.988,11.988,0,0,1-11.974,11.974m0-21.014a9.041,9.041,0,1,0,9.042,9.041,9.052,9.052,0,0,0-9.042-9.041" transform="translate(13.468 101.901)" fill="#845e40"/>
        <path id="Trazado_142148" data-name="Trazado 142148" d="M68.24,224.461H48.858V212.9H68.24Zm-16.449-2.932H65.31v-5.7H51.791Z" transform="translate(22.756 99.16)" fill="#845e40"/>
        <path id="Trazado_142149" data-name="Trazado 142149" d="M25.947,213.622H8.566V206.34H25.947ZM11.5,210.69H23.015v-1.419H11.5Z" transform="translate(3.99 96.103)" fill="#845e40"/>
        <rect id="Rectángulo_37803" data-name="Rectángulo 37803" width="2.932" height="37.104" transform="translate(22.262 313.527)" fill="#845e40"/>
        <path id="Trazado_142150" data-name="Trazado 142150" d="M143.286,341.2a47.7,47.7,0,1,1,47.7,47.7,47.7,47.7,0,0,1-47.7-47.7" transform="translate(66.736 136.697)" fill="#c1d0bc"/>
        <path id="Trazado_142151" data-name="Trazado 142151" d="M146.121,304.688v8.233c1.24-.957,1.923-2.484,4.1-2.484,3.169,0,3.169,3.241,6.339,3.241s3.17-3.241,6.339-3.241,3.17,3.241,6.341,3.241,3.17-3.241,6.341-3.241c2.185,0,2.866,1.538,4.114,2.495v-8.243Z" transform="translate(68.056 141.909)" fill="#f9f8f7"/>
        <path id="Trazado_142152" data-name="Trazado 142152" d="M160,330.463H157.07v-35.2l-8.553-1.8.6-2.869L160,292.887Z" transform="translate(69.172 135.348)" fill="#845e40"/>
        <path id="Trazado_142153" data-name="Trazado 142153" d="M175.583,308.609c-3.172,0-3.172,3.241-6.344,3.241s-3.169-3.241-6.339-3.241-3.169,3.241-6.339,3.241-3.17-3.241-6.341-3.241c-2.177,0-2.858,1.527-4.1,2.486v13.793a16.787,16.787,0,0,0,33.574,0V311.1c-1.249-.957-1.927-2.495-4.113-2.495" transform="translate(68.056 143.735)" fill="#69a6a5"/>
        <path id="Trazado_142154" data-name="Trazado 142154" d="M163.374,345.433a18.273,18.273,0,0,1-18.253-18.253V303.688h36.506V327.18a18.274,18.274,0,0,1-18.253,18.253m-15.322-38.813v20.56a15.322,15.322,0,1,0,30.643,0v-20.56Z" transform="translate(67.59 141.443)" fill="#845e40"/>
        <rect id="Rectángulo_37804" data-name="Rectángulo 37804" width="2.932" height="28.705" transform="translate(229.499 485.41)" fill="#845e40"/>
        <rect id="Rectángulo_37805" data-name="Rectángulo 37805" width="15.396" height="2.932" transform="translate(223.266 512.65)" fill="#845e40"/>
        <path id="Trazado_142155" data-name="Trazado 142155" d="M178.015,304.964l1.486,12.651c2.616-.361,2.805-3.2,5.775-3.2,3.17,0,3.17,3.241,6.339,3.241s3.17-3.241,6.341-3.241,3.169,3.241,6.339,3.241,3.17-3.241,6.342-3.241c2.975,0,3.16,2.851,5.788,3.2l1.488-12.652Z" transform="translate(82.911 142.038)" fill="#f9f8f7"/>
        <path id="Trazado_142156" data-name="Trazado 142156" d="M192.6,328.595h-2.932V293.4l-8.553-1.8.6-2.868,10.88,2.287Z" transform="translate(84.354 134.477)" fill="#845e40"/>
        <path id="Trazado_142157" data-name="Trazado 142157" d="M210.166,311.41c-3.17,0-3.17,3.241-6.342,3.241s-3.169-3.241-6.339-3.241-3.17,3.241-6.339,3.241-3.17-3.241-6.341-3.241c-2.97,0-3.157,2.842-5.775,3.2l6.4,54.464h24.128l6.4-54.461c-2.63-.355-2.814-3.206-5.79-3.206" transform="translate(83.383 145.04)" fill="#f16935"/>
        <path id="Trazado_142158" data-name="Trazado 142158" d="M209.092,296.685a12.136,12.136,0,0,0-12.135,12.135h12.135l-1.416,12.046a12.132,12.132,0,1,0,1.416-24.181" transform="translate(91.733 138.182)" fill="#f2b361"/>
        <path id="Trazado_142159" data-name="Trazado 142159" d="M211.855,374.009H185.122l-8.232-70.045h43.2Zm-24.128-2.932h21.522l7.54-64.182h-36.6Z" transform="translate(82.387 141.572)" fill="#845e40"/>
        <path id="Trazado_142160" data-name="Trazado 142160" d="M209.558,322.885a13.459,13.459,0,0,1-1.586-.1l-1.457-.17,1.394-11.865H195.957v-1.466a13.6,13.6,0,1,1,13.6,13.6m-10.57-15.065h12.217l-1.426,12.131a10.668,10.668,0,1,0-10.791-12.131" transform="translate(91.267 137.716)" fill="#845e40"/>
        <path id="Trazado_142161" data-name="Trazado 142161" d="M203.887,316.581a5.511,5.511,0,0,1-4.217-2.061c-.78-.8-1.2-1.18-2.122-1.18s-1.344.384-2.122,1.18a5.346,5.346,0,0,1-8.435,0c-.78-.8-1.2-1.18-2.122-1.18s-1.344.384-2.124,1.18a5.7,5.7,0,0,1-3.45,2.01l-.4-2.9c.69-.1,1.079-.462,1.757-1.157a5.346,5.346,0,0,1,8.435,0c.78.8,1.2,1.18,2.122,1.18s1.343-.383,2.122-1.18a5.346,5.346,0,0,1,8.435,0c.78.8,1.2,1.18,2.122,1.18s1.344-.384,2.124-1.18a5.348,5.348,0,0,1,8.437,0c.682.7,1.07,1.064,1.766,1.157l-.391,2.907a5.7,5.7,0,0,1-3.469-2.012c-.78-.8-1.2-1.18-2.124-1.18s-1.344.384-2.124,1.18a5.514,5.514,0,0,1-4.218,2.061" transform="translate(83.319 144.574)" fill="#845e40"/>
        <path id="Trazado_142162" data-name="Trazado 142162" d="M169.525,313.783a5.521,5.521,0,0,1-4.218-2.061c-.778-.8-1.195-1.181-2.122-1.181s-1.343.384-2.121,1.18a5.344,5.344,0,0,1-8.435,0c-.78-.8-1.2-1.18-2.122-1.18s-1.344.384-2.122,1.18a10.231,10.231,0,0,1-1.08,1L145.51,310.4a7.632,7.632,0,0,0,.777-.73,5.344,5.344,0,0,1,8.435,0c.78.8,1.2,1.18,2.122,1.18s1.343-.384,2.122-1.18a5.344,5.344,0,0,1,8.435,0c.78.8,1.2,1.18,2.122,1.18s1.344-.384,2.122-1.18a5.349,5.349,0,0,1,8.438,0,7.326,7.326,0,0,0,.786.737l-1.782,2.328a10.433,10.433,0,0,1-1.1-1.013c-.778-.8-1.195-1.18-2.122-1.18s-1.344.384-2.124,1.181a5.521,5.521,0,0,1-4.218,2.061" transform="translate(67.772 143.27)" fill="#845e40"/>
        <path id="Trazado_142163" data-name="Trazado 142163" d="M138.185,49.354A47.7,47.7,0,1,1,71.562,38.8a47.7,47.7,0,0,1,66.623,10.552" transform="translate(24.172 13.828)" fill="#c1d0bc"/>
        <path id="Trazado_142164" data-name="Trazado 142164" d="M182.225,53.157l-10.2,15.61L65.039,61.213l-18.253-1.1a12.436,12.436,0,0,0-8.164,2.43l-7.433,5.521-10.98,8.158a3.744,3.744,0,0,0,2.232,6.753H179.672l11.436-29.822Z" transform="translate(8.703 24.758)" fill="#f2b361"/>
        <path id="Trazado_142165" data-name="Trazado 142165" d="M181.147,84.912H22.907a5.21,5.21,0,0,1-3.106-9.4l18.413-13.68a13.916,13.916,0,0,1,9.129-2.718l18.266,1.1L171.733,67.71,181.9,52.157h11.808ZM46.5,62.024a10.993,10.993,0,0,0-6.539,2.166L21.55,77.869a2.279,2.279,0,0,0,1.357,4.111H179.132l10.312-26.892h-5.958L173.244,70.756,65.408,63.141l-18.243-1.1c-.223-.015-.444-.021-.665-.021" transform="translate(8.237 24.292)" fill="#845e40"/>
        <path id="Trazado_142166" data-name="Trazado 142166" d="M26.884,65.371H46.8a2.272,2.272,0,0,0,0-4.544H32.51L27.57,64.5l-1.118.831a2.218,2.218,0,0,0,.432.044" transform="translate(12.32 28.33)" fill="#824737"/>
        <path id="Trazado_142167" data-name="Trazado 142167" d="M95.984,69.194,54.635,67.876v5.813l59.331,18.949h21.463Z" transform="translate(25.446 31.614)" fill="#824737"/>
        <path id="Trazado_142168" data-name="Trazado 142168" d="M131.086,69.963H113.975v3.625l19,7.977h8.412Z" transform="translate(53.084 32.585)" fill="#824737"/>
        <path id="Trazado_142169" data-name="Trazado 142169" d="M58.167,64.846a1.958,1.958,0,1,1-1.958-1.958,1.958,1.958,0,0,1,1.958,1.958" transform="translate(25.268 29.29)" fill="#824737"/>
        <path id="Trazado_142170" data-name="Trazado 142170" d="M63.644,65.127a1.958,1.958,0,1,1-1.958-1.958,1.958,1.958,0,0,1,1.958,1.958" transform="translate(27.819 29.421)" fill="#824737"/>
        <path id="Trazado_142171" data-name="Trazado 142171" d="M69.121,65.407a1.958,1.958,0,1,1-1.958-1.958,1.958,1.958,0,0,1,1.958,1.958" transform="translate(30.37 29.552)" fill="#824737"/>
        <path id="Trazado_142172" data-name="Trazado 142172" d="M74.6,65.687a1.958,1.958,0,1,1-1.958-1.958A1.958,1.958,0,0,1,74.6,65.687" transform="translate(32.921 29.682)" fill="#824737"/>
        <path id="Trazado_142173" data-name="Trazado 142173" d="M80.075,65.968a1.958,1.958,0,1,1-1.958-1.958,1.958,1.958,0,0,1,1.958,1.958" transform="translate(35.472 29.813)" fill="#824737"/>
        <path id="Trazado_142174" data-name="Trazado 142174" d="M85.552,66.248a1.958,1.958,0,1,1-1.96-1.958,1.959,1.959,0,0,1,1.96,1.958" transform="translate(38.022 29.943)" fill="#824737"/>
        <path id="Trazado_142175" data-name="Trazado 142175" d="M91.028,66.528A1.958,1.958,0,1,1,89.07,64.57a1.958,1.958,0,0,1,1.958,1.958" transform="translate(40.573 30.074)" fill="#824737"/>
        <path id="Trazado_142176" data-name="Trazado 142176" d="M96.505,66.809a1.958,1.958,0,1,1-1.958-1.958,1.958,1.958,0,0,1,1.958,1.958" transform="translate(43.124 30.204)" fill="#824737"/>
        <path id="Trazado_142177" data-name="Trazado 142177" d="M341.581,191.767a47.7,47.7,0,1,1,30.622-60.1,47.695,47.695,0,0,1-30.622,60.1" transform="translate(130.007 45.968)" fill="#c1d0bc"/>
        <path id="Trazado_142178" data-name="Trazado 142178" d="M295.281,122.868v17.843l-21.042,1.831v-2.354l6.139-17.319Z" transform="translate(127.727 57.226)" fill="#845e40"/>
        <rect id="Rectángulo_37806" data-name="Rectángulo 37806" width="14.213" height="15.071" transform="translate(427.454 179.843)" fill="#845e40"/>
        <rect id="Rectángulo_37807" data-name="Rectángulo 37807" width="14.213" height="15.071" transform="translate(446.552 179.843)" fill="#845e40"/>
        <rect id="Rectángulo_37808" data-name="Rectángulo 37808" width="14.213" height="15.071" transform="translate(465.649 179.843)" fill="#845e40"/>
        <rect id="Rectángulo_37809" data-name="Rectángulo 37809" width="14.203" height="15.071" transform="translate(484.756 179.843)" fill="#845e40"/>
        <path id="Trazado_142179" data-name="Trazado 142179" d="M376.683,146.821H271.049v-3.65l7.969-23.071h97.665v26.721Zm-100.958-2.99L296.767,142V124.157h-14.9l-6.139,17.319Zm96.993-19.924h-14.2v15.071h14.2Zm-19.1,0H339.407v15.071h14.213Zm-19.1,0H320.31v15.071h14.213Zm-19.1,0H301.213v15.071h14.213Z" transform="translate(126.242 55.937)" fill="#f2b361"/>
        <path id="Trazado_142180" data-name="Trazado 142180" d="M376.681,138.331v12.456h-9.309a7.535,7.535,0,0,0-15.071,0H295.448a7.535,7.535,0,0,0-15.071,0h-6.766a2.566,2.566,0,0,1-2.562-2.562v-9.894Z" transform="translate(126.242 64.428)" fill="#f2b361"/>
        <path id="Trazado_142181" data-name="Trazado 142181" d="M332.869,144.174a3.9,3.9,0,1,1-3.9,3.89,3.9,3.9,0,0,1,3.9-3.89" transform="translate(153.217 67.149)" fill="#d8cda7"/>
        <path id="Trazado_142182" data-name="Trazado 142182" d="M334.025,141.692a7.535,7.535,0,1,1-7.541,7.53,7.524,7.524,0,0,1,7.541-7.53m3.89,7.53a3.9,3.9,0,1,0-3.89,3.9,3.9,3.9,0,0,0,3.89-3.9" transform="translate(152.061 65.993)" fill="#845e40"/>
        <path id="Trazado_142183" data-name="Trazado 142183" d="M283.8,144.174a3.9,3.9,0,1,1-3.9,3.89,3.9,3.9,0,0,1,3.9-3.89" transform="translate(130.363 67.149)" fill="#d8cda7"/>
        <path id="Trazado_142184" data-name="Trazado 142184" d="M292.485,149.222a7.535,7.535,0,1,1-7.53-7.53,7.534,7.534,0,0,1,7.53,7.53m-3.639,0a3.9,3.9,0,1,0-3.89,3.9,3.9,3.9,0,0,0,3.89-3.9" transform="translate(129.206 65.993)" fill="#845e40"/>
        <path id="Trazado_142185" data-name="Trazado 142185" d="M378.613,161.21H367.838v-2.932h7.843V122.031H280.528l-7.547,21.851v13.3a1.1,1.1,0,0,0,1.1,1.1h6.766v2.932h-6.766a4.033,4.033,0,0,1-4.028-4.028V143.39l8.39-24.29H378.613Z" transform="translate(125.776 55.471)" fill="#845e40"/>
        <rect id="Rectángulo_37810" data-name="Rectángulo 37810" width="56.854" height="2.932" transform="translate(421.691 213.749)" fill="#845e40"/>
        <path id="Trazado_142186" data-name="Trazado 142186" d="M285.42,158.693a9,9,0,1,1,9-9.006,9.017,9.017,0,0,1-9,9.006m0-15.071a6.07,6.07,0,1,0,6.065,6.065,6.078,6.078,0,0,0-6.065-6.065" transform="translate(128.74 65.527)" fill="#845e40"/>
        <path id="Trazado_142187" data-name="Trazado 142187" d="M334.491,158.693a9,9,0,1,1,9-9.006,9.017,9.017,0,0,1-9,9.006m0-15.071a6.07,6.07,0,1,0,6.064,6.065,6.077,6.077,0,0,0-6.064-6.065" transform="translate(151.595 65.527)" fill="#845e40"/>
        <rect id="Rectángulo_37811" data-name="Rectángulo 37811" width="105.632" height="2.932" transform="translate(397.292 201.292)" fill="#845e40"/>
        <path id="Trazado_142188" data-name="Trazado 142188" d="M273.239,144.6v-4.2l6.569-18.533h17.4V142.52Zm2.931-3.7v.5l18.111-1.576V124.8h-12.4Z" transform="translate(127.262 56.76)" fill="#845e40"/>
        <path id="Trazado_142189" data-name="Trazado 142189" d="M307.772,139.7H290.627v-18h17.145Zm-14.212-2.932h11.282V124.628H293.56Z" transform="translate(135.36 56.681)" fill="#845e40"/>
        <path id="Trazado_142190" data-name="Trazado 142190" d="M333.831,139.7H316.686v-18h17.145Zm-14.213-2.932H330.9V124.628H319.617Z" transform="translate(147.497 56.681)" fill="#845e40"/>
        <path id="Trazado_142191" data-name="Trazado 142191" d="M346.856,139.7H329.723v-18h17.133Zm-14.2-2.932h11.27V124.628h-11.27Z" transform="translate(153.569 56.681)" fill="#845e40"/>
        <path id="Trazado_142192" data-name="Trazado 142192" d="M320.8,139.7H303.657v-18H320.8Zm-14.213-2.932H317.87V124.628H306.589Z" transform="translate(141.429 56.681)" fill="#845e40"/>
        <path id="Trazado_142193" data-name="Trazado 142193" d="M233.01,47.7A47.7,47.7,0,1,1,185.314,0a47.7,47.7,0,0,1,47.7,47.7" transform="translate(64.095)" fill="#c1d0bc"/>
        <path id="Trazado_142194" data-name="Trazado 142194" d="M202.36,22.3l26.172,37.258H159.714L185.126,23.39l1.677,3.824,3.686-3.824,2.593,2.715,2.926-2.715,4,4.44Z" transform="translate(74.387 10.388)" fill="#7ac4c0"/>
        <path id="Trazado_142195" data-name="Trazado 142195" d="M194.285,26.03l-2.35,5.526-4-4.44-2.926,2.715-2.593-2.715-3.686,3.824-1.677-3.824,8.994-12.811Z" transform="translate(82.462 6.663)" fill="#f9f8f7"/>
        <path id="Trazado_142196" data-name="Trazado 142196" d="M232.251,65.564H157.789l37.226-53Zm-68.818-2.932h63.177L195.016,17.664Z" transform="translate(73.491 5.852)" fill="#845e40"/>
        <path id="Trazado_142197" data-name="Trazado 142197" d="M192.812,30.846,188.266,25.8l-2.895,2.685-2.536-2.654-4.144,4.3-2.558-5.829,2.685-1.178.8,1.822,3.228-3.349,2.65,2.775,2.956-2.744,3.461,3.839,1.45-3.412,2.7,1.148Z" transform="translate(82.035 10.06)" fill="#845e40"/>
        <path id="Trazado_142198" data-name="Trazado 142198" d="M180.125,19.342l23.426,44.049H134.732l25.419-47.776,2.552,6.279,4.271-7.811,2.876,7.811,3.606-4.343Z" transform="translate(62.752 6.559)" fill="#69a6a5"/>
        <path id="Trazado_142199" data-name="Trazado 142199" d="M172.048,24.229l-6.669-1.791-3.606,4.343L158.9,18.97l-4.271,7.811L152.074,20.5l8.994-16.91Z" transform="translate(70.829 1.673)" fill="#f9f8f7"/>
        <path id="Trazado_142200" data-name="Trazado 142200" d="M154.862,26.43l-3.714-9.14,2.715-1.1,1.391,3.42,4.336-7.931,3.112,8.45,2.581-3.109,7.576,2.033L172.1,21.88l-5.762-1.548-4.63,5.579-2.64-7.172Z" transform="translate(70.397 5.437)" fill="#845e40"/>
        <path id="Trazado_142201" data-name="Trazado 142201" d="M206.766,70.735h-73.7L169.921,1.462ZM137.947,67.8h63.939L169.921,7.7Z" transform="translate(61.977 0.681)" fill="#845e40"/>
        <path id="Trazado_142202" data-name="Trazado 142202" d="M62.448,106.436a47.7,47.7,0,1,1-60.1,30.622,47.695,47.695,0,0,1,60.1-30.622" transform="translate(0 48.479)" fill="#c1d0bc"/>
        <path id="Trazado_142203" data-name="Trazado 142203" d="M64.168,180.339h-51.2V110.081h51.2a6.2,6.2,0,0,1,6.2,6.2V174.14a6.2,6.2,0,0,1-6.2,6.2" transform="translate(6.041 51.27)" fill="#d8cda7"/>
        <path id="Trazado_142204" data-name="Trazado 142204" d="M64.634,182.27H11.97V109.081H64.634a7.674,7.674,0,0,1,7.664,7.664v57.861a7.674,7.674,0,0,1-7.664,7.664M14.9,179.339H64.634a4.739,4.739,0,0,0,4.733-4.733V116.745a4.739,4.739,0,0,0-4.733-4.733H14.9Z" transform="translate(5.575 50.805)" fill="#845e40"/>
        <path id="Trazado_142205" data-name="Trazado 142205" d="M64.168,177.631h-51.2V107.373h51.2a6.2,6.2,0,0,1,6.2,6.2v57.861a6.2,6.2,0,0,1-6.2,6.2" transform="translate(6.041 50.009)" fill="#f2b361"/>
        <path id="Trazado_142206" data-name="Trazado 142206" d="M64.634,179.562H11.97V106.373H64.634a7.674,7.674,0,0,1,7.664,7.664V171.9a7.674,7.674,0,0,1-7.664,7.664M14.9,176.631H64.634a4.739,4.739,0,0,0,4.733-4.733V114.037a4.739,4.739,0,0,0-4.733-4.733H14.9Z" transform="translate(5.575 49.543)" fill="#845e40"/>
        <path id="Trazado_142207" data-name="Trazado 142207" d="M36.669,149.819a12.964,12.964,0,1,1,12.965-12.965,12.98,12.98,0,0,1-12.965,12.965m0-24.7A11.736,11.736,0,1,0,48.4,136.854a11.75,11.75,0,0,0-11.736-11.736" transform="translate(11.04 57.702)" fill="#845e40"/>
        <path id="Trazado_142208" data-name="Trazado 142208" d="M36.669,144.63c-7.148,0-12.965-4.048-12.965-9.026s5.816-9.026,12.965-9.026,12.965,4.048,12.965,9.026-5.816,9.026-12.965,9.026m0-16.825c-6.471,0-11.736,3.5-11.736,7.8s5.265,7.8,11.736,7.8S48.4,139.9,48.4,135.6s-5.265-7.8-11.736-7.8" transform="translate(11.04 58.954)" fill="#845e40"/>
        <path id="Trazado_142209" data-name="Trazado 142209" d="M34.954,149.819c-4.245,0-7.569-5.694-7.569-12.965s3.324-12.963,7.569-12.963,7.568,5.694,7.568,12.963-3.323,12.965-7.568,12.965m0-24.7c-3.437,0-6.341,5.375-6.341,11.736s2.9,11.736,6.341,11.736,6.341-5.373,6.341-11.736-2.9-11.736-6.341-11.736" transform="translate(12.755 57.702)" fill="#845e40"/>
        <rect id="Rectángulo_37812" data-name="Rectángulo 37812" width="1.227" height="24.701" transform="translate(47.096 182.206)" fill="#845e40"/>
        <rect id="Rectángulo_37813" data-name="Rectángulo 37813" width="24.701" height="1.227" transform="translate(35.358 193.944)" fill="#845e40"/>
        <path id="Trazado_142210" data-name="Trazado 142210" d="M23.365,117.463v.953c0,1.171-.566,1.809-1.716,1.809h-.544v2.753H19.953v-7.324h1.7c1.151,0,1.716.638,1.716,1.81m-2.26-.764v2.48h.544c.366,0,.566-.169.566-.692v-1.1c0-.523-.2-.69-.566-.69Z" transform="translate(9.293 53.866)" fill="#845e40"/>
        <path id="Trazado_142211" data-name="Trazado 142211" d="M26.911,122.979H25.749l-.2-1.329H24.138l-.2,1.329H22.882l1.173-7.326h1.684Zm-2.627-2.323h1.11l-.556-3.705Z" transform="translate(10.657 53.866)" fill="#845e40"/>
        <path id="Trazado_142212" data-name="Trazado 142212" d="M28.138,115.6c1.12,0,1.694.67,1.694,1.842v.23H28.744v-.3c0-.523-.21-.721-.576-.721s-.575.2-.575.721c0,1.507,2.248,1.79,2.248,3.883,0,1.173-.585,1.842-1.715,1.842s-1.716-.67-1.716-1.842v-.45H27.5v.523c0,.523.23.711.6.711s.6-.188.6-.711c0-1.507-2.25-1.79-2.25-3.881,0-1.173.576-1.842,1.7-1.842" transform="translate(12.301 53.839)" fill="#845e40"/>
        <path id="Trazado_142213" data-name="Trazado 142213" d="M31.345,115.6c1.12,0,1.7.67,1.7,1.842v.23H31.951v-.3c0-.523-.21-.721-.576-.721s-.575.2-.575.721c0,1.507,2.25,1.79,2.25,3.883,0,1.173-.586,1.842-1.716,1.842s-1.716-.67-1.716-1.842v-.45h1.089v.523c0,.523.23.711.6.711s.6-.188.6-.711c0-1.507-2.251-1.79-2.251-3.881,0-1.173.576-1.842,1.7-1.842" transform="translate(13.795 53.839)" fill="#845e40"/>
        <path id="Trazado_142214" data-name="Trazado 142214" d="M36.358,117.463v.953c0,1.171-.566,1.809-1.716,1.809H34.1v2.753H32.947v-7.324h1.694c1.151,0,1.716.638,1.716,1.81M34.1,116.7v2.48h.544c.366,0,.566-.169.566-.692v-1.1c0-.523-.2-.69-.566-.69Z" transform="translate(15.345 53.866)" fill="#845e40"/>
        <path id="Trazado_142215" data-name="Trazado 142215" d="M36.111,117.438a1.75,1.75,0,1,1,3.494,0v3.808a1.75,1.75,0,1,1-3.494,0Zm1.151,3.881c0,.523.23.723.6.723s.6-.2.6-.723v-3.956c0-.523-.23-.721-.6-.721s-.6.2-.6.721Z" transform="translate(16.819 53.839)" fill="#845e40"/>
        <path id="Trazado_142216" data-name="Trazado 142216" d="M41.946,122.977a2.244,2.244,0,0,1-.106-.9v-1.151c0-.68-.23-.932-.753-.932h-.4v2.983H39.538v-7.324h1.738c1.193,0,1.7.554,1.7,1.684v.576a1.458,1.458,0,0,1-.753,1.485c.576.242.764.8.764,1.56v1.13a2.168,2.168,0,0,0,.126.89ZM40.69,116.7v2.25h.45c.429,0,.69-.189.69-.775v-.721c0-.525-.177-.753-.586-.753Z" transform="translate(18.415 53.866)" fill="#845e40"/>
        <path id="Trazado_142217" data-name="Trazado 142217" d="M42.718,115.653h3.559V116.7h-1.2v6.279H43.921V116.7h-1.2Z" transform="translate(19.896 53.865)" fill="#845e40"/>
        <path id="Trazado_142218" data-name="Trazado 142218" d="M310.7,102.092a47.7,47.7,0,1,1-10.552-66.623A47.7,47.7,0,0,1,310.7,102.092" transform="translate(104.52 12.276)" fill="#c1d0bc"/>
        <path id="Trazado_142219" data-name="Trazado 142219" d="M283.4,100.084H247.014a3.925,3.925,0,0,1-3.924-3.924V46.844a3.925,3.925,0,0,1,3.924-3.924H283.4a3.924,3.924,0,0,1,3.924,3.924V96.16a3.924,3.924,0,0,1-3.924,3.924" transform="translate(113.22 19.99)" fill="#b55232"/>
        <path id="Trazado_142220" data-name="Trazado 142220" d="M247.957,90.537V78.4a14.981,14.981,0,1,1,29.963,0V90.537Z" transform="translate(115.486 29.538)" fill="#d6562b"/>
        <path id="Trazado_142221" data-name="Trazado 142221" d="M283.861,102.017h-36.38a5.4,5.4,0,0,1-5.39-5.391V47.311a5.4,5.4,0,0,1,5.39-5.39h36.38a5.4,5.4,0,0,1,5.391,5.39V96.626a5.4,5.4,0,0,1-5.391,5.391m-36.38-57.164a2.46,2.46,0,0,0-2.458,2.458V96.626a2.462,2.462,0,0,0,2.458,2.46h36.38a2.463,2.463,0,0,0,2.459-2.46V47.311a2.462,2.462,0,0,0-2.459-2.458Z" transform="translate(112.754 19.525)" fill="#845e40"/>
        <path id="Trazado_142222" data-name="Trazado 142222" d="M279.851,53.974H276.92V23.208a1.088,1.088,0,0,0-1.086-1.086H250.975a1.088,1.088,0,0,0-1.086,1.086V53.974h-2.931V23.208a4.022,4.022,0,0,1,4.018-4.018h24.859a4.022,4.022,0,0,1,4.018,4.018Z" transform="translate(115.021 8.938)" fill="#845e40"/>
        <path id="Trazado_142223" data-name="Trazado 142223" d="M279.851,92.468H246.957v-13.6a16.447,16.447,0,0,1,32.894,0Zm-29.963-2.932H276.92V78.866a13.516,13.516,0,0,0-27.031,0Z" transform="translate(115.021 29.072)" fill="#845e40"/>
        <rect id="Rectángulo_37814" data-name="Rectángulo 37814" width="16.422" height="4.397" transform="translate(370.214 27.395)" fill="#845e40"/>
        <rect id="Rectángulo_37815" data-name="Rectángulo 37815" width="4.397" height="3.213" transform="translate(387.241 120.074)" fill="#845e40"/>
        <rect id="Rectángulo_37816" data-name="Rectángulo 37816" width="4.397" height="3.213" transform="translate(365.211 120.074)" fill="#845e40"/>
        <path id="Trazado_142224" data-name="Trazado 142224" d="M238.113,339.537a47.7,47.7,0,1,1,66.623,10.552,47.7,47.7,0,0,1-66.623-10.552" transform="translate(106.657 122.866)" fill="#c1d0bc"/>
        <path id="Trazado_142225" data-name="Trazado 142225" d="M236.874,296.791a2.5,2.5,0,1,1-2.512,2.5,2.509,2.509,0,0,1,2.512-2.5" transform="translate(109.155 138.231)" fill="#f16935"/>
        <path id="Trazado_142226" data-name="Trazado 142226" d="M237.341,303.725a3.967,3.967,0,1,1,3.966-3.968,3.977,3.977,0,0,1-3.966,3.968m0-5a1.036,1.036,0,1,0,1.035,1.035,1.04,1.04,0,0,0-1.035-1.035" transform="translate(108.689 137.765)" fill="#845e40"/>
        <path id="Trazado_142227" data-name="Trazado 142227" d="M244.794,296.791a2.5,2.5,0,1,1-2.5,2.5,2.511,2.511,0,0,1,2.5-2.5" transform="translate(112.848 138.231)" fill="#f16935"/>
        <path id="Trazado_142228" data-name="Trazado 142228" d="M245.26,303.725a3.967,3.967,0,1,1,3.978-3.968,3.973,3.973,0,0,1-3.978,3.968m0-5a1.036,1.036,0,1,0,1.047,1.035,1.036,1.036,0,0,0-1.047-1.035" transform="translate(112.382 137.765)" fill="#845e40"/>
        <path id="Trazado_142229" data-name="Trazado 142229" d="M252.723,296.791a2.5,2.5,0,1,1-2.5,2.5,2.5,2.5,0,0,1,2.5-2.5" transform="translate(116.541 138.231)" fill="#f16935"/>
        <path id="Trazado_142230" data-name="Trazado 142230" d="M253.189,303.725a3.967,3.967,0,1,1,3.968-3.968,3.974,3.974,0,0,1-3.968,3.968m0-5a1.036,1.036,0,1,0,0,2.071,1.025,1.025,0,0,0,1.036-1.036,1.036,1.036,0,0,0-1.036-1.035" transform="translate(116.075 137.765)" fill="#845e40"/>
        <path id="Trazado_142231" data-name="Trazado 142231" d="M260.653,296.791a2.5,2.5,0,1,1-2.5,2.5,2.5,2.5,0,0,1,2.5-2.5" transform="translate(120.234 138.231)" fill="#f16935"/>
        <path id="Trazado_142232" data-name="Trazado 142232" d="M261.119,303.725a3.967,3.967,0,1,1,3.968-3.968,3.973,3.973,0,0,1-3.968,3.968m0-5a1.036,1.036,0,1,0,0,2.071,1.025,1.025,0,0,0,1.036-1.036,1.036,1.036,0,0,0-1.036-1.035" transform="translate(119.769 137.765)" fill="#845e40"/>
        <rect id="Rectángulo_37817" data-name="Rectángulo 37817" width="10.924" height="12.016" transform="translate(377.927 397.335)" fill="#f2b361"/>
        <path id="Trazado_142233" data-name="Trazado 142233" d="M270.694,285.027H256.838V270.079h13.856ZM259.771,282.1h7.993V273.01h-7.993Z" transform="translate(119.623 125.79)" fill="#845e40"/>
        <rect id="Rectángulo_37818" data-name="Rectángulo 37818" width="10.924" height="12.016" transform="translate(397.962 397.335)" fill="#f2b361"/>
        <path id="Trazado_142234" data-name="Trazado 142234" d="M284.363,285.027H270.507V270.079h13.856ZM273.438,282.1h7.993V273.01h-7.993Z" transform="translate(125.989 125.79)" fill="#845e40"/>
        <path id="Trazado_142235" data-name="Trazado 142235" d="M317.858,289.469V299.3H237.1v-9.832h9.472l9.46-10.193h47.858v10.193Z" transform="translate(110.428 130.074)" fill="#f16935"/>
        <path id="Trazado_142236" data-name="Trazado 142236" d="M319.791,301.232H236.1V288.468h10.3l9.461-10.191h49.962v10.191h13.974ZM239.029,298.3h77.83v-6.9H302.885V281.208H257.133l-9.46,10.191h-8.643Z" transform="translate(109.963 129.608)" fill="#845e40"/>
        <path id="Trazado_142237" data-name="Trazado 142237" d="M336.994,292.938l-3.933,13.535a12.547,12.547,0,0,1-12.048,9.045h-72.5c-18.57,0-27.31-22.58-27.31-22.58H336.994Zm-56.629,8.15a2.5,2.5,0,1,0-2.5,2.5,2.5,2.5,0,0,0,2.5-2.5m-11.623,0a2.5,2.5,0,1,0-2.5,2.5,2.5,2.5,0,0,0,2.5-2.5m-11.612,0a2.507,2.507,0,1,0-2.512,2.5,2.511,2.511,0,0,0,2.512-2.5m-11.623,0a2.507,2.507,0,1,0-2.5,2.5,2.509,2.509,0,0,0,2.5-2.5" transform="translate(103.024 136.436)" fill="#f2b361"/>
        <path id="Trazado_142238" data-name="Trazado 142238" d="M321.692,317.45h-72.5c-8.056,0-15.582-4.1-21.765-11.842a49.244,49.244,0,0,1-6.912-11.675l-.771-2H339.627l-4.478,15.411a14.078,14.078,0,0,1-13.457,10.1m-97.546-22.581c2.606,5.359,10.889,19.65,25.044,19.65h72.5a11.129,11.129,0,0,0,10.64-7.987l3.389-11.663Zm54.4,10.652a3.967,3.967,0,1,1,3.966-3.968,3.973,3.973,0,0,1-3.966,3.968m0-5a1.036,1.036,0,1,0,0,2.071,1.024,1.024,0,0,0,1.035-1.036,1.036,1.036,0,0,0-1.035-1.035m-11.623,5a3.967,3.967,0,1,1,3.968-3.968,3.974,3.974,0,0,1-3.968,3.968m0-5a1.036,1.036,0,1,0,0,2.071,1.025,1.025,0,0,0,1.036-1.036,1.036,1.036,0,0,0-1.036-1.035m-11.622,5a3.967,3.967,0,1,1,3.977-3.968,3.974,3.974,0,0,1-3.977,3.968m0-5a1.036,1.036,0,1,0,1.045,1.035,1.036,1.036,0,0,0-1.045-1.035m-11.612,5a3.967,3.967,0,1,1,3.966-3.968,3.977,3.977,0,0,1-3.966,3.968m0-5a1.036,1.036,0,1,0,1.035,1.035,1.04,1.04,0,0,0-1.035-1.035" transform="translate(102.345 135.97)" fill="#845e40"/>
        <rect id="Rectángulo_37819" data-name="Rectángulo 37819" width="5.599" height="5.599" transform="translate(368.144 415.357)" fill="#f2b361"/>
        <path id="Trazado_142239" data-name="Trazado 142239" d="M258.695,290.906h-8.531v-8.529h8.531Zm-5.6-2.932h2.668v-2.666H253.1Z" transform="translate(116.514 131.518)" fill="#845e40"/>
        <rect id="Rectángulo_37820" data-name="Rectángulo 37820" width="5.599" height="5.599" transform="translate(379.858 415.357)" fill="#f2b361"/>
        <path id="Trazado_142240" data-name="Trazado 142240" d="M266.686,290.906h-8.529v-8.529h8.529Zm-5.6-2.932h2.666v-2.666h-2.666Z" transform="translate(120.237 131.518)" fill="#845e40"/>
        <rect id="Rectángulo_37821" data-name="Rectángulo 37821" width="5.598" height="5.599" transform="translate(391.574 415.357)" fill="#f2b361"/>
        <path id="Trazado_142241" data-name="Trazado 142241" d="M274.679,290.906h-8.531v-8.529h8.531Zm-5.6-2.932h2.668v-2.666H269.08Z" transform="translate(123.959 131.518)" fill="#845e40"/>
        <rect id="Rectángulo_37822" data-name="Rectángulo 37822" width="5.598" height="5.599" transform="translate(403.288 415.357)" fill="#f2b361"/>
        <path id="Trazado_142242" data-name="Trazado 142242" d="M282.67,290.906h-8.529v-8.529h8.529Zm-5.6-2.932h2.666v-2.666h-2.666Z" transform="translate(127.682 131.518)" fill="#845e40"/>
        <path id="Trazado_142243" data-name="Trazado 142243" d="M65.6,286.8A47.7,47.7,0,1,1,76.15,353.422,47.7,47.7,0,0,1,65.6,286.8" transform="translate(26.309 124.419)" fill="#c1d0bc"/>
        <rect id="Rectángulo_37823" data-name="Rectángulo 37823" width="46.042" height="100.147" transform="matrix(0.134, -0.991, 0.991, 0.134, 79.509, 451.403)" fill="#69a6a5"/>
        <path id="Trazado_142244" data-name="Trazado 142244" d="M57.117,313.4l3.98-29.339a5.081,5.081,0,0,0,5.719-4.353l82.953,11.254a5.083,5.083,0,0,0,4.353,5.719l-3.98,29.337a5.085,5.085,0,0,0-5.721,4.353L61.47,319.124a5.082,5.082,0,0,0-4.353-5.719" transform="translate(26.602 130.277)" fill="#8cc4c1"/>
        <path id="Trazado_142245" data-name="Trazado 142245" d="M110.96,304.166a15.856,15.856,0,1,1-13.582-17.844,15.858,15.858,0,0,1,13.582,17.844" transform="translate(36.976 133.287)" fill="#69a6a5"/>
        <path id="Trazado_142246" data-name="Trazado 142246" d="M118.07,302.433a6.034,6.034,0,1,1-5.168-6.789,6.034,6.034,0,0,1,5.168,6.789" transform="translate(49.396 137.671)" fill="#69a6a5"/>
        <path id="Trazado_142247" data-name="Trazado 142247" d="M66.18,295.394a6.034,6.034,0,1,0,6.789-5.168,6.032,6.032,0,0,0-6.789,5.168" transform="translate(30.797 135.147)" fill="#69a6a5"/>
        <path id="Trazado_142248" data-name="Trazado 142248" d="M93.707,299.667l1.735-4.465a3.808,3.808,0,0,1,.652,3.146l2.572.349.051-.378c.339-2.5-.406-4.4-2.367-5.458l1.225-3.172-2.093-.284-1.067,2.757c-.3-.066-.623-.135-.951-.18-3.581-.485-6.219.981-6.624,3.956l-.026.2c-.322,2.37.877,3.946,4.13,4.951l-1.82,4.711a3.294,3.294,0,0,1-.79-2.882l-2.572-.349-.021.151a5.043,5.043,0,0,0,2.5,5.4l-1.262,3.245,2.093.284,1.07-2.782c.375.076.75.152,1.154.207,3.833.52,6.281-1.048,6.694-4.1l.028-.2c.362-2.672-1.156-4.163-4.315-5.105m-4.239-3.4.018-.126c.208-1.538,1.765-2.225,3.606-1.976l.1.013a2.227,2.227,0,0,1,.4.081l-1.863,4.833c-1.889-.642-2.436-1.538-2.262-2.824m5.862,8.475c-.226,1.664-1.718,2.438-3.685,2.171l-.1-.013a5.263,5.263,0,0,1-.6-.107l1.979-5.126c1.866.639,2.621,1.511,2.426,2.949Z" transform="translate(39.904 134.79)" fill="#8cc4c1"/>
        <path id="Trazado_142249" data-name="Trazado 142249" d="M155.263,338.1,53.119,324.245l6.583-48.53,102.144,13.857ZM56.418,321.734,152.752,334.8l5.794-42.721L62.213,279.013Z" transform="translate(24.74 128.415)" fill="#845e40"/>
        <rect id="Rectángulo_37824" data-name="Rectángulo 37824" width="100.147" height="46.041" transform="translate(74.74 426.27) rotate(-2.666)" fill="#69a6a5"/>
        <path id="Trazado_142250" data-name="Trazado 142250" d="M54.766,328.821l-1.378-29.574a5.083,5.083,0,0,0,4.841-5.313l83.621-3.894a5.081,5.081,0,0,0,5.313,4.84l1.378,29.574a5.084,5.084,0,0,0-4.841,5.313l-83.621,3.895a5.082,5.082,0,0,0-5.313-4.84" transform="translate(24.866 135.086)" fill="#8cc4c1"/>
        <path id="Trazado_142251" data-name="Trazado 142251" d="M106.724,309.221a15.856,15.856,0,1,1-16.578-15.1,15.855,15.855,0,0,1,16.578,15.1" transform="translate(34.945 136.979)" fill="#69a6a5"/>
        <path id="Trazado_142252" data-name="Trazado 142252" d="M113.919,305.619a6.034,6.034,0,1,1-6.307-5.746,6.032,6.032,0,0,1,6.307,5.746" transform="translate(47.441 139.663)" fill="#69a6a5"/>
        <path id="Trazado_142253" data-name="Trazado 142253" d="M61.609,308.055a6.033,6.033,0,1,0,5.746-6.307,6.032,6.032,0,0,0-5.746,6.307" transform="translate(28.691 140.537)" fill="#69a6a5"/>
        <path id="Trazado_142254" data-name="Trazado 142254" d="M89.033,307.51l.9-4.705a3.806,3.806,0,0,1,1.208,2.975l2.593-.12-.018-.381c-.117-2.518-1.192-4.251-3.313-4.941L91.041,297l-2.111.1L88.378,300c-.306-.012-.638-.022-.969-.006-3.609.167-5.941,2.084-5.8,5.085l.009.2c.111,2.389,1.574,3.723,4.956,4.126l-.94,4.96a3.284,3.284,0,0,1-1.3-2.691l-2.593.122.006.151a5.048,5.048,0,0,0,3.437,4.86l-.657,3.418,2.111-.1.551-2.93c.383.007.765.016,1.171,0,3.865-.18,5.989-2.165,5.845-5.24l-.009-.2c-.126-2.7-1.888-3.887-5.167-4.243m-4.781-2.58-.006-.128c-.073-1.551,1.335-2.508,3.191-2.594l.1,0a2.231,2.231,0,0,1,.407.006l-.96,5.089c-1.974-.29-2.674-1.073-2.734-2.369m7.294,7.277c.078,1.678-1.25,2.707-3.232,2.8l-.1,0a4.991,4.991,0,0,1-.611,0l1.023-5.4c1.949.292,2.849,1.014,2.917,2.462Z" transform="translate(38.007 138.326)" fill="#8cc4c1"/>
        <path id="Trazado_142255" data-name="Trazado 142255" d="M52.224,340.313l-2.279-48.919,102.966-4.8,2.279,48.921Zm.786-46.129,2.007,43.062,97.11-4.52-2.008-43.064Z" transform="translate(23.262 133.483)" fill="#845e40"/>
      </g>
    </g>
    <path id="Trazado_149811" data-name="Trazado 149811" d="M26.023,15.117H31V17H23.68V5.625h2.344ZM37.094,17a2.507,2.507,0,0,1-.227-.758,2.732,2.732,0,0,1-2.133.914,3,3,0,0,1-2.059-.719,2.312,2.312,0,0,1-.816-1.812,2.389,2.389,0,0,1,1-2.062,4.915,4.915,0,0,1,2.879-.727h1.039v-.484a1.393,1.393,0,0,0-.3-.937,1.183,1.183,0,0,0-.949-.352,1.345,1.345,0,0,0-.895.273.929.929,0,0,0-.324.75H32.047A2.268,2.268,0,0,1,32.5,9.727a3,3,0,0,1,1.281-.98,4.669,4.669,0,0,1,1.859-.355,3.689,3.689,0,0,1,2.48.785,2.747,2.747,0,0,1,.918,2.207v3.664a4.041,4.041,0,0,0,.336,1.82V17Zm-1.867-1.57a1.945,1.945,0,0,0,.922-.223,1.462,1.462,0,0,0,.625-.6V13.156H35.93q-1.7,0-1.8,1.172l-.008.133a.9.9,0,0,0,.3.7A1.153,1.153,0,0,0,35.227,15.43Zm17.141-2.578a5.07,5.07,0,0,1-.887,3.129,2.843,2.843,0,0,1-2.395,1.176,2.633,2.633,0,0,1-2.07-.891V20.25H44.758V8.547h2.094l.078.828a2.654,2.654,0,0,1,2.141-.984A2.862,2.862,0,0,1,51.5,9.547a5.207,5.207,0,0,1,.867,3.188Zm-2.258-.164a3.327,3.327,0,0,0-.418-1.82,1.361,1.361,0,0,0-1.215-.641,1.479,1.479,0,0,0-1.461.813V14.5a1.5,1.5,0,0,0,1.477.836Q50.109,15.336,50.109,12.688Zm8.406-2.023A6.134,6.134,0,0,0,57.7,10.6a1.654,1.654,0,0,0-1.68.867V17H53.766V8.547H55.9l.063,1.008a2.092,2.092,0,0,1,1.883-1.164,2.366,2.366,0,0,1,.7.1Zm4.977,6.492a4.15,4.15,0,0,1-3.027-1.141A4.054,4.054,0,0,1,59.3,12.977v-.219a5.106,5.106,0,0,1,.492-2.277,3.612,3.612,0,0,1,1.395-1.547,3.914,3.914,0,0,1,2.059-.543,3.508,3.508,0,0,1,2.73,1.094,4.444,4.444,0,0,1,1,3.1v.922H61.586a2.1,2.1,0,0,0,.66,1.328,2,2,0,0,0,1.395.5,2.437,2.437,0,0,0,2.039-.945l1.109,1.242a3.389,3.389,0,0,1-1.375,1.121A4.511,4.511,0,0,1,63.492,17.156Zm-.258-6.945a1.411,1.411,0,0,0-1.09.455,2.357,2.357,0,0,0-.535,1.3H64.75v-.181a1.681,1.681,0,0,0-.406-1.165A1.456,1.456,0,0,0,63.234,10.211Zm9.594,4.453a.727.727,0,0,0-.41-.652,4.659,4.659,0,0,0-1.316-.426q-3.016-.633-3.016-2.562a2.323,2.323,0,0,1,.934-1.879,3.766,3.766,0,0,1,2.441-.754,4.053,4.053,0,0,1,2.574.758A2.388,2.388,0,0,1,75,11.117H72.742a1.092,1.092,0,0,0-.312-.8A1.322,1.322,0,0,0,71.453,10a1.351,1.351,0,0,0-.883.258.814.814,0,0,0-.312.656.7.7,0,0,0,.355.605,3.657,3.657,0,0,0,1.2.4,9.8,9.8,0,0,1,1.422.379,2.336,2.336,0,0,1,1.789,2.273,2.2,2.2,0,0,1-.992,1.871,4.28,4.28,0,0,1-2.562.715,4.47,4.47,0,0,1-1.887-.379,3.166,3.166,0,0,1-1.293-1.039,2.414,2.414,0,0,1-.469-1.426h2.141a1.179,1.179,0,0,0,.445.922,1.766,1.766,0,0,0,1.109.32,1.635,1.635,0,0,0,.98-.246A.766.766,0,0,0,72.828,14.664Zm6.352-8.2V8.547h1.445V10.2H79.18v4.219a1.007,1.007,0,0,0,.18.672.9.9,0,0,0,.688.2,3.6,3.6,0,0,0,.664-.055v1.711a4.648,4.648,0,0,1-1.367.2,2.156,2.156,0,0,1-2.422-2.4V10.2H75.688V8.547h1.234V6.469ZM86.781,17a2.507,2.507,0,0,1-.227-.758,2.732,2.732,0,0,1-2.133.914,3,3,0,0,1-2.059-.719,2.312,2.312,0,0,1-.816-1.812,2.389,2.389,0,0,1,1-2.062,4.915,4.915,0,0,1,2.879-.727h1.039v-.484a1.393,1.393,0,0,0-.3-.937,1.183,1.183,0,0,0-.949-.352,1.345,1.345,0,0,0-.895.273.929.929,0,0,0-.324.75H81.734a2.268,2.268,0,0,1,.453-1.359,3,3,0,0,1,1.281-.98,4.669,4.669,0,0,1,1.859-.355,3.689,3.689,0,0,1,2.48.785,2.747,2.747,0,0,1,.918,2.207v3.664a4.041,4.041,0,0,0,.336,1.82V17Zm-1.867-1.57a1.945,1.945,0,0,0,.922-.223,1.462,1.462,0,0,0,.625-.6V13.156h-.844q-1.7,0-1.8,1.172l-.008.133a.9.9,0,0,0,.3.7A1.153,1.153,0,0,0,84.914,15.43Zm9.063-.094a1.481,1.481,0,0,0,1.016-.344,1.2,1.2,0,0,0,.406-.914h2.117a2.9,2.9,0,0,1-.469,1.574,3.093,3.093,0,0,1-1.262,1.109,3.949,3.949,0,0,1-1.77.395A3.67,3.67,0,0,1,91.156,16a4.56,4.56,0,0,1-1.047-3.184v-.148a4.508,4.508,0,0,1,1.039-3.117A3.627,3.627,0,0,1,94,8.391a3.555,3.555,0,0,1,2.543.9,3.2,3.2,0,0,1,.973,2.4H95.4a1.551,1.551,0,0,0-.406-1.072,1.51,1.51,0,0,0-2.223.163,3.333,3.333,0,0,0-.4,1.866v.235a3.375,3.375,0,0,0,.4,1.878A1.377,1.377,0,0,0,93.977,15.336ZM101.188,17H98.922V8.547h2.266Zm-2.4-10.641a1.112,1.112,0,0,1,.34-.836,1.465,1.465,0,0,1,1.848,0,1.105,1.105,0,0,1,.344.836,1.108,1.108,0,0,1-.348.844,1.448,1.448,0,0,1-1.836,0A1.108,1.108,0,0,1,98.789,6.359ZM102.7,12.7a5.013,5.013,0,0,1,.484-2.242,3.546,3.546,0,0,1,1.395-1.523,4.069,4.069,0,0,1,2.113-.539,3.849,3.849,0,0,1,2.793,1.047,4.2,4.2,0,0,1,1.207,2.844l.016.578a4.418,4.418,0,0,1-1.086,3.121,4.209,4.209,0,0,1-5.832,0A4.5,4.5,0,0,1,102.7,12.8Zm2.258.16a3.16,3.16,0,0,0,.453,1.843,1.628,1.628,0,0,0,2.578.008,3.457,3.457,0,0,0,.461-2.015,3.128,3.128,0,0,0-.461-1.831,1.5,1.5,0,0,0-1.3-.649,1.474,1.474,0,0,0-1.281.646A3.516,3.516,0,0,0,104.953,12.856ZM107.133,5h2.461L107.43,7.422h-1.836Zm7.039,3.547.07.977a2.951,2.951,0,0,1,2.43-1.133,2.453,2.453,0,0,1,2,.789,3.682,3.682,0,0,1,.672,2.359V17h-2.258V11.594a1.465,1.465,0,0,0-.312-1.043,1.4,1.4,0,0,0-1.039-.324,1.553,1.553,0,0,0-1.43.813V17h-2.258V8.547Zm10.516,4.164a5.094,5.094,0,0,1,.887-3.148A2.877,2.877,0,0,1,128,8.391a2.589,2.589,0,0,1,2.039.922V5H132.3V17h-2.039l-.109-.9a2.657,2.657,0,0,1-2.172,1.055,2.869,2.869,0,0,1-2.395-1.176A5.258,5.258,0,0,1,124.688,12.711Zm2.258.168a3.337,3.337,0,0,0,.414,1.823,1.349,1.349,0,0,0,1.2.634,1.511,1.511,0,0,0,1.477-.884V11.111a1.489,1.489,0,0,0-1.461-.884Q126.945,10.227,126.945,12.879Zm11,4.277a4.15,4.15,0,0,1-3.027-1.141,4.054,4.054,0,0,1-1.168-3.039v-.219a5.106,5.106,0,0,1,.492-2.277,3.612,3.612,0,0,1,1.395-1.547,3.914,3.914,0,0,1,2.059-.543,3.508,3.508,0,0,1,2.73,1.094,4.444,4.444,0,0,1,1,3.1v.922h-5.383a2.1,2.1,0,0,0,.66,1.328,2,2,0,0,0,1.395.5,2.437,2.437,0,0,0,2.039-.945l1.109,1.242a3.389,3.389,0,0,1-1.375,1.121A4.511,4.511,0,0,1,137.945,17.156Zm-.258-6.945a1.411,1.411,0,0,0-1.09.455,2.357,2.357,0,0,0-.535,1.3H139.2v-.181a1.681,1.681,0,0,0-.406-1.165A1.456,1.456,0,0,0,137.688,10.211ZM149.07,17H146.8V5h2.266Zm1.508-4.3a5.013,5.013,0,0,1,.484-2.242,3.546,3.546,0,0,1,1.395-1.523,4.069,4.069,0,0,1,2.113-.539,3.849,3.849,0,0,1,2.793,1.047,4.2,4.2,0,0,1,1.207,2.844l.016.578A4.418,4.418,0,0,1,157.5,15.98a4.209,4.209,0,0,1-5.832,0,4.5,4.5,0,0,1-1.09-3.187Zm2.258.16a3.16,3.16,0,0,0,.453,1.843,1.628,1.628,0,0,0,2.578.008,3.457,3.457,0,0,0,.461-2.015,3.128,3.128,0,0,0-.461-1.831,1.5,1.5,0,0,0-1.3-.649,1.474,1.474,0,0,0-1.281.646A3.516,3.516,0,0,0,152.836,12.856Zm11.719,1.808a.727.727,0,0,0-.41-.652,4.659,4.659,0,0,0-1.316-.426q-3.016-.633-3.016-2.562a2.323,2.323,0,0,1,.934-1.879,3.766,3.766,0,0,1,2.441-.754,4.053,4.053,0,0,1,2.574.758,2.388,2.388,0,0,1,.965,1.969h-2.258a1.092,1.092,0,0,0-.312-.8A1.322,1.322,0,0,0,163.18,10a1.351,1.351,0,0,0-.883.258.814.814,0,0,0-.312.656.7.7,0,0,0,.355.605,3.657,3.657,0,0,0,1.2.4,9.8,9.8,0,0,1,1.422.379,2.336,2.336,0,0,1,1.789,2.273,2.205,2.205,0,0,1-.992,1.871,4.28,4.28,0,0,1-2.562.715,4.47,4.47,0,0,1-1.887-.379,3.166,3.166,0,0,1-1.293-1.039,2.414,2.414,0,0,1-.469-1.426h2.141a1.179,1.179,0,0,0,.445.922,1.766,1.766,0,0,0,1.109.32,1.635,1.635,0,0,0,.98-.246A.766.766,0,0,0,164.555,14.664Zm-157.863,24a.727.727,0,0,0-.41-.652,4.659,4.659,0,0,0-1.316-.426q-3.016-.633-3.016-2.562a2.323,2.323,0,0,1,.934-1.879,3.766,3.766,0,0,1,2.441-.754,4.053,4.053,0,0,1,2.574.758,2.388,2.388,0,0,1,.965,1.969H6.605a1.092,1.092,0,0,0-.312-.8A1.322,1.322,0,0,0,5.316,34a1.351,1.351,0,0,0-.883.258.814.814,0,0,0-.312.656.7.7,0,0,0,.355.605,3.657,3.657,0,0,0,1.2.4A9.8,9.8,0,0,1,7.1,36.3,2.336,2.336,0,0,1,8.887,38.57a2.205,2.205,0,0,1-.992,1.871,4.28,4.28,0,0,1-2.562.715,4.47,4.47,0,0,1-1.887-.379,3.166,3.166,0,0,1-1.293-1.039,2.414,2.414,0,0,1-.469-1.426H3.824a1.179,1.179,0,0,0,.445.922,1.766,1.766,0,0,0,1.109.32,1.635,1.635,0,0,0,.98-.246A.766.766,0,0,0,6.691,38.664ZM12.723,41H10.457V32.547h2.266Zm-2.4-10.641a1.112,1.112,0,0,1,.34-.836,1.277,1.277,0,0,1,.926-.328,1.28,1.28,0,0,1,.922.328,1.193,1.193,0,0,1,0,1.68,1.283,1.283,0,0,1-.918.328,1.283,1.283,0,0,1-.918-.328A1.108,1.108,0,0,1,10.324,30.359Zm3.93,6.352a4.954,4.954,0,0,1,.926-3.133,3,3,0,0,1,2.5-1.187,2.631,2.631,0,0,1,2.164.953l.094-.8H21.98v8.172a3.613,3.613,0,0,1-.5,1.93,3.236,3.236,0,0,1-1.418,1.25,4.985,4.985,0,0,1-2.141.43,4.635,4.635,0,0,1-1.812-.371A3.217,3.217,0,0,1,14.77,43l1-1.375a2.645,2.645,0,0,0,2.047.945,1.936,1.936,0,0,0,1.4-.48,1.8,1.8,0,0,0,.5-1.363v-.453a2.612,2.612,0,0,1-2.055.883A2.992,2.992,0,0,1,15.2,39.965a4.953,4.953,0,0,1-.941-3.16Zm2.258.168a3.085,3.085,0,0,0,.461,1.8,1.466,1.466,0,0,0,1.266.653,1.568,1.568,0,0,0,1.477-.775V35a1.564,1.564,0,0,0-1.461-.775,1.476,1.476,0,0,0-1.277.665A3.477,3.477,0,0,0,16.512,36.879Zm12.266,3.262a2.831,2.831,0,0,1-2.312,1.016,2.67,2.67,0,0,1-2.074-.781,3.335,3.335,0,0,1-.73-2.289V32.547h2.258v5.467q0,1.322,1.2,1.322a1.63,1.63,0,0,0,1.578-.8V32.547h2.266V41H28.84ZM35.051,41H32.785V32.547h2.266Zm-2.4-10.641a1.112,1.112,0,0,1,.34-.836,1.465,1.465,0,0,1,1.848,0,1.193,1.193,0,0,1,0,1.68A1.448,1.448,0,0,1,33,31.2,1.108,1.108,0,0,1,32.652,30.359Zm8.148,10.8a4.15,4.15,0,0,1-3.027-1.141,4.054,4.054,0,0,1-1.168-3.039v-.219A5.106,5.106,0,0,1,37.1,34.48a3.612,3.612,0,0,1,1.395-1.547,3.914,3.914,0,0,1,2.059-.543,3.508,3.508,0,0,1,2.73,1.094,4.444,4.444,0,0,1,1,3.1v.922H38.895a2.1,2.1,0,0,0,.66,1.328,2,2,0,0,0,1.395.5,2.437,2.437,0,0,0,2.039-.945L44.1,39.633a3.389,3.389,0,0,1-1.375,1.121A4.511,4.511,0,0,1,40.8,41.156Zm-.258-6.945a1.411,1.411,0,0,0-1.09.455,2.357,2.357,0,0,0-.535,1.3h3.141v-.181a1.681,1.681,0,0,0-.406-1.165A1.456,1.456,0,0,0,40.543,34.211Zm7.094-1.664.07.977a2.951,2.951,0,0,1,2.43-1.133,2.453,2.453,0,0,1,2,.789,3.682,3.682,0,0,1,.672,2.359V41H50.551V35.594a1.465,1.465,0,0,0-.312-1.043,1.4,1.4,0,0,0-1.039-.324,1.553,1.553,0,0,0-1.43.813V41H45.512V32.547Zm9.586-2.078v2.078h1.445V34.2H57.223v4.219a1.007,1.007,0,0,0,.18.672.9.9,0,0,0,.688.2,3.6,3.6,0,0,0,.664-.055v1.711a4.648,4.648,0,0,1-1.367.2,2.156,2.156,0,0,1-2.422-2.4V34.2H53.73V32.547h1.234V30.469Zm6.594,10.688a4.15,4.15,0,0,1-3.027-1.141,4.054,4.054,0,0,1-1.168-3.039v-.219a5.106,5.106,0,0,1,.492-2.277,3.612,3.612,0,0,1,1.395-1.547,3.914,3.914,0,0,1,2.059-.543,3.508,3.508,0,0,1,2.73,1.094,4.444,4.444,0,0,1,1,3.1v.922H61.91a2.1,2.1,0,0,0,.66,1.328,2,2,0,0,0,1.395.5A2.437,2.437,0,0,0,66,38.391l1.109,1.242a3.389,3.389,0,0,1-1.375,1.121A4.511,4.511,0,0,1,63.816,41.156Zm-.258-6.945a1.411,1.411,0,0,0-1.09.455,2.357,2.357,0,0,0-.535,1.3h3.141v-.181a1.681,1.681,0,0,0-.406-1.165A1.456,1.456,0,0,0,63.559,34.211Zm9.594,4.453a.727.727,0,0,0-.41-.652,4.659,4.659,0,0,0-1.316-.426q-3.016-.633-3.016-2.562a2.323,2.323,0,0,1,.934-1.879,3.766,3.766,0,0,1,2.441-.754,4.053,4.053,0,0,1,2.574.758,2.388,2.388,0,0,1,.965,1.969H73.066a1.092,1.092,0,0,0-.312-.8A1.322,1.322,0,0,0,71.777,34a1.351,1.351,0,0,0-.883.258.814.814,0,0,0-.312.656.7.7,0,0,0,.355.605,3.657,3.657,0,0,0,1.2.4,9.8,9.8,0,0,1,1.422.379,2.336,2.336,0,0,1,1.789,2.273,2.2,2.2,0,0,1-.992,1.871,4.28,4.28,0,0,1-2.562.715,4.47,4.47,0,0,1-1.887-.379,3.166,3.166,0,0,1-1.293-1.039,2.414,2.414,0,0,1-.469-1.426h2.141a1.179,1.179,0,0,0,.445.922,1.766,1.766,0,0,0,1.109.32,1.635,1.635,0,0,0,.98-.246A.766.766,0,0,0,73.152,38.664Zm12.211,0a.727.727,0,0,0-.41-.652,4.659,4.659,0,0,0-1.316-.426q-3.016-.633-3.016-2.562a2.323,2.323,0,0,1,.934-1.879A3.766,3.766,0,0,1,84,32.391a4.053,4.053,0,0,1,2.574.758,2.388,2.388,0,0,1,.965,1.969H85.277a1.092,1.092,0,0,0-.312-.8A1.322,1.322,0,0,0,83.988,34a1.351,1.351,0,0,0-.883.258.814.814,0,0,0-.312.656.7.7,0,0,0,.355.605,3.657,3.657,0,0,0,1.2.4,9.8,9.8,0,0,1,1.422.379,2.336,2.336,0,0,1,1.789,2.273,2.2,2.2,0,0,1-.992,1.871A4.28,4.28,0,0,1,84,41.156a4.47,4.47,0,0,1-1.887-.379,3.166,3.166,0,0,1-1.293-1.039,2.414,2.414,0,0,1-.469-1.426H82.5a1.179,1.179,0,0,0,.445.922,1.766,1.766,0,0,0,1.109.32,1.635,1.635,0,0,0,.98-.246A.766.766,0,0,0,85.363,38.664ZM92.9,41.156a4.15,4.15,0,0,1-3.027-1.141,4.054,4.054,0,0,1-1.168-3.039v-.219A5.106,5.106,0,0,1,89.2,34.48a3.612,3.612,0,0,1,1.395-1.547,3.914,3.914,0,0,1,2.059-.543,3.508,3.508,0,0,1,2.73,1.094,4.444,4.444,0,0,1,1,3.1v.922H91a2.1,2.1,0,0,0,.66,1.328,2,2,0,0,0,1.395.5,2.437,2.437,0,0,0,2.039-.945L96.2,39.633a3.389,3.389,0,0,1-1.375,1.121A4.511,4.511,0,0,1,92.9,41.156Zm-.258-6.945a1.411,1.411,0,0,0-1.09.455,2.357,2.357,0,0,0-.535,1.3H94.16v-.181a1.681,1.681,0,0,0-.406-1.165A1.456,1.456,0,0,0,92.645,34.211Zm9.766.453a6.134,6.134,0,0,0-.812-.062,1.654,1.654,0,0,0-1.68.867V41H97.66V32.547h2.133l.063,1.008a2.092,2.092,0,0,1,1.883-1.164,2.366,2.366,0,0,1,.7.1Zm4.391,3.578,1.57-5.7h2.359L107.879,41h-2.156l-2.852-8.453h2.359Zm7.3,2.758H111.84V32.547h2.266Zm-2.4-10.641a1.112,1.112,0,0,1,.34-.836,1.465,1.465,0,0,1,1.848,0,1.193,1.193,0,0,1,0,1.68,1.448,1.448,0,0,1-1.836,0A1.108,1.108,0,0,1,111.707,30.359Zm7.773,8.977a1.481,1.481,0,0,0,1.016-.344,1.2,1.2,0,0,0,.406-.914h2.117a2.9,2.9,0,0,1-.469,1.574,3.093,3.093,0,0,1-1.262,1.109,3.949,3.949,0,0,1-1.77.395A3.67,3.67,0,0,1,116.66,40a4.56,4.56,0,0,1-1.047-3.184v-.148a4.508,4.508,0,0,1,1.039-3.117,3.627,3.627,0,0,1,2.852-1.164,3.555,3.555,0,0,1,2.543.9,3.2,3.2,0,0,1,.973,2.4H120.9a1.551,1.551,0,0,0-.406-1.072,1.51,1.51,0,0,0-2.223.163,3.333,3.333,0,0,0-.4,1.866v.235a3.375,3.375,0,0,0,.4,1.878A1.377,1.377,0,0,0,119.48,39.336ZM126.691,41h-2.266V32.547h2.266Zm-2.4-10.641a1.112,1.112,0,0,1,.34-.836,1.465,1.465,0,0,1,1.848,0,1.193,1.193,0,0,1,0,1.68,1.448,1.448,0,0,1-1.836,0A1.108,1.108,0,0,1,124.293,30.359ZM128.2,36.7a5.013,5.013,0,0,1,.484-2.242,3.546,3.546,0,0,1,1.395-1.523,4.069,4.069,0,0,1,2.113-.539,3.849,3.849,0,0,1,2.793,1.047,4.2,4.2,0,0,1,1.207,2.844l.016.578a4.418,4.418,0,0,1-1.086,3.121,4.209,4.209,0,0,1-5.832,0A4.5,4.5,0,0,1,128.2,36.8Zm2.258.16a3.16,3.16,0,0,0,.453,1.843,1.628,1.628,0,0,0,2.578.008,3.457,3.457,0,0,0,.461-2.015,3.128,3.128,0,0,0-.461-1.831,1.5,1.5,0,0,0-1.3-.649,1.474,1.474,0,0,0-1.281.646A3.516,3.516,0,0,0,130.457,36.856Zm11.719,1.808a.727.727,0,0,0-.41-.652,4.659,4.659,0,0,0-1.316-.426q-3.016-.633-3.016-2.562a2.323,2.323,0,0,1,.934-1.879,3.766,3.766,0,0,1,2.441-.754,4.053,4.053,0,0,1,2.574.758,2.388,2.388,0,0,1,.965,1.969H142.09a1.092,1.092,0,0,0-.312-.8A1.322,1.322,0,0,0,140.8,34a1.351,1.351,0,0,0-.883.258.814.814,0,0,0-.312.656.7.7,0,0,0,.355.605,3.657,3.657,0,0,0,1.2.4,9.8,9.8,0,0,1,1.422.379,2.336,2.336,0,0,1,1.789,2.273,2.205,2.205,0,0,1-.992,1.871,4.28,4.28,0,0,1-2.562.715,4.47,4.47,0,0,1-1.887-.379,3.166,3.166,0,0,1-1.293-1.039,2.414,2.414,0,0,1-.469-1.426h2.141a1.179,1.179,0,0,0,.445.922,1.766,1.766,0,0,0,1.109.32,1.635,1.635,0,0,0,.98-.246A.766.766,0,0,0,142.176,38.664Zm4.234,5.188-1.18-.617.281-.508a4.059,4.059,0,0,0,.539-1.9v-1.75h1.906l-.008,1.563a4.059,4.059,0,0,1-.437,1.75A4.486,4.486,0,0,1,146.41,43.852Zm10.008-13.383v2.078h1.445V34.2h-1.445v4.219a1.007,1.007,0,0,0,.18.672.9.9,0,0,0,.688.2,3.6,3.6,0,0,0,.664-.055v1.711a4.648,4.648,0,0,1-1.367.2,2.156,2.156,0,0,1-2.422-2.4V34.2h-1.234V32.547h1.234V30.469ZM161.5,41h-2.266V32.547H161.5Zm-2.4-10.641a1.112,1.112,0,0,1,.34-.836,1.465,1.465,0,0,1,1.848,0,1.193,1.193,0,0,1,0,1.68,1.448,1.448,0,0,1-1.836,0A1.109,1.109,0,0,1,159.105,30.359Zm8.148,10.8a4.15,4.15,0,0,1-3.027-1.141,4.054,4.054,0,0,1-1.168-3.039v-.219a5.106,5.106,0,0,1,.492-2.277,3.612,3.612,0,0,1,1.395-1.547A3.914,3.914,0,0,1,167,32.391a3.508,3.508,0,0,1,2.73,1.094,4.444,4.444,0,0,1,1,3.1v.922h-5.383a2.1,2.1,0,0,0,.66,1.328,2,2,0,0,0,1.395.5,2.437,2.437,0,0,0,2.039-.945l1.109,1.242a3.389,3.389,0,0,1-1.375,1.121A4.511,4.511,0,0,1,167.254,41.156ZM167,34.211a1.411,1.411,0,0,0-1.09.455,2.357,2.357,0,0,0-.535,1.3h3.141v-.181a1.681,1.681,0,0,0-.406-1.165A1.456,1.456,0,0,0,167,34.211Zm7.094-1.664.07.977a2.951,2.951,0,0,1,2.43-1.133,2.453,2.453,0,0,1,2,.789,3.682,3.682,0,0,1,.672,2.359V41H177V35.594a1.465,1.465,0,0,0-.312-1.043,1.4,1.4,0,0,0-1.039-.324,1.553,1.553,0,0,0-1.43.813V41h-2.258V32.547Zm10.773,8.609a4.15,4.15,0,0,1-3.027-1.141,4.054,4.054,0,0,1-1.168-3.039v-.219a5.106,5.106,0,0,1,.492-2.277,3.612,3.612,0,0,1,1.395-1.547,3.914,3.914,0,0,1,2.059-.543,3.508,3.508,0,0,1,2.73,1.094,4.444,4.444,0,0,1,1,3.1v.922h-5.383a2.1,2.1,0,0,0,.66,1.328,2,2,0,0,0,1.395.5,2.437,2.437,0,0,0,2.039-.945l1.109,1.242a3.389,3.389,0,0,1-1.375,1.121A4.511,4.511,0,0,1,184.863,41.156Zm-.258-6.945a1.411,1.411,0,0,0-1.09.455,2.357,2.357,0,0,0-.535,1.3h3.141v-.181a1.681,1.681,0,0,0-.406-1.165A1.456,1.456,0,0,0,184.605,34.211ZM28.395,65H26.129V53h2.266Zm6.758,0a2.507,2.507,0,0,1-.227-.758,2.732,2.732,0,0,1-2.133.914,3,3,0,0,1-2.059-.719,2.312,2.312,0,0,1-.816-1.812,2.389,2.389,0,0,1,1-2.062,4.915,4.915,0,0,1,2.879-.727h1.039v-.484a1.393,1.393,0,0,0-.3-.937,1.183,1.183,0,0,0-.949-.352,1.345,1.345,0,0,0-.895.273.929.929,0,0,0-.324.75H30.105a2.268,2.268,0,0,1,.453-1.359,3,3,0,0,1,1.281-.98,4.669,4.669,0,0,1,1.859-.355,3.689,3.689,0,0,1,2.48.785,2.747,2.747,0,0,1,.918,2.207v3.664a4.041,4.041,0,0,0,.336,1.82V65Zm-1.867-1.57a1.945,1.945,0,0,0,.922-.223,1.462,1.462,0,0,0,.625-.6V61.156h-.844q-1.7,0-1.8,1.172l-.008.133a.9.9,0,0,0,.3.7A1.153,1.153,0,0,0,33.285,63.43Zm13.047-.094a1.481,1.481,0,0,0,1.016-.344,1.2,1.2,0,0,0,.406-.914h2.117a2.9,2.9,0,0,1-.469,1.574,3.093,3.093,0,0,1-1.262,1.109,3.949,3.949,0,0,1-1.77.395A3.67,3.67,0,0,1,43.512,64a4.56,4.56,0,0,1-1.047-3.184v-.148A4.508,4.508,0,0,1,43.5,57.555a3.627,3.627,0,0,1,2.852-1.164,3.555,3.555,0,0,1,2.543.9,3.2,3.2,0,0,1,.973,2.4H47.754a1.551,1.551,0,0,0-.406-1.072,1.51,1.51,0,0,0-2.223.163,3.333,3.333,0,0,0-.4,1.866v.235a3.375,3.375,0,0,0,.4,1.878A1.377,1.377,0,0,0,46.332,63.336ZM50.809,60.7a5.013,5.013,0,0,1,.484-2.242,3.546,3.546,0,0,1,1.395-1.523,4.069,4.069,0,0,1,2.113-.539,3.849,3.849,0,0,1,2.793,1.047A4.2,4.2,0,0,1,58.8,60.281l.016.578A4.418,4.418,0,0,1,57.73,63.98a4.209,4.209,0,0,1-5.832,0,4.5,4.5,0,0,1-1.09-3.187Zm2.258.16A3.16,3.16,0,0,0,53.52,62.7a1.628,1.628,0,0,0,2.578.008,3.457,3.457,0,0,0,.461-2.015A3.128,3.128,0,0,0,56.1,58.86a1.5,1.5,0,0,0-1.3-.649,1.474,1.474,0,0,0-1.281.646A3.516,3.516,0,0,0,53.066,60.856Zm9.219-4.309.07.977a2.951,2.951,0,0,1,2.43-1.133,2.453,2.453,0,0,1,2,.789,3.682,3.682,0,0,1,.672,2.359V65H65.2V59.594a1.465,1.465,0,0,0-.312-1.043,1.4,1.4,0,0,0-1.039-.324,1.553,1.553,0,0,0-1.43.813V65H60.16V56.547Zm11.461,6.117a.727.727,0,0,0-.41-.652,4.659,4.659,0,0,0-1.316-.426Q69,60.953,69,59.023a2.323,2.323,0,0,1,.934-1.879,3.766,3.766,0,0,1,2.441-.754,4.053,4.053,0,0,1,2.574.758,2.388,2.388,0,0,1,.965,1.969H73.66a1.092,1.092,0,0,0-.312-.8A1.322,1.322,0,0,0,72.371,58a1.351,1.351,0,0,0-.883.258.814.814,0,0,0-.312.656.7.7,0,0,0,.355.605,3.657,3.657,0,0,0,1.2.4,9.8,9.8,0,0,1,1.422.379,2.336,2.336,0,0,1,1.789,2.273,2.2,2.2,0,0,1-.992,1.871,4.28,4.28,0,0,1-2.562.715,4.47,4.47,0,0,1-1.887-.379,3.166,3.166,0,0,1-1.293-1.039,2.414,2.414,0,0,1-.469-1.426h2.141a1.179,1.179,0,0,0,.445.922,1.766,1.766,0,0,0,1.109.32,1.635,1.635,0,0,0,.98-.246A.766.766,0,0,0,73.746,62.664ZM79.777,65H77.512V56.547h2.266Zm-2.4-10.641a1.112,1.112,0,0,1,.34-.836,1.465,1.465,0,0,1,1.848,0,1.193,1.193,0,0,1,0,1.68,1.448,1.448,0,0,1-1.836,0A1.108,1.108,0,0,1,77.379,54.359Zm3.906,6.352a5.094,5.094,0,0,1,.887-3.148A2.877,2.877,0,0,1,84.6,56.391a2.589,2.589,0,0,1,2.039.922V53H88.9V65H86.863l-.109-.9a2.657,2.657,0,0,1-2.172,1.055,2.869,2.869,0,0,1-2.395-1.176A5.258,5.258,0,0,1,81.285,60.711Zm2.258.168a3.337,3.337,0,0,0,.414,1.823,1.349,1.349,0,0,0,1.2.634,1.511,1.511,0,0,0,1.477-.884V59.111a1.489,1.489,0,0,0-1.461-.884Q83.543,58.227,83.543,60.879Zm11,4.277a4.15,4.15,0,0,1-3.027-1.141,4.054,4.054,0,0,1-1.168-3.039v-.219a5.106,5.106,0,0,1,.492-2.277,3.612,3.612,0,0,1,1.395-1.547,3.914,3.914,0,0,1,2.059-.543,3.508,3.508,0,0,1,2.73,1.094,4.444,4.444,0,0,1,1,3.1v.922H92.637a2.1,2.1,0,0,0,.66,1.328,2,2,0,0,0,1.395.5,2.437,2.437,0,0,0,2.039-.945l1.109,1.242a3.389,3.389,0,0,1-1.375,1.121A4.511,4.511,0,0,1,94.543,65.156Zm-.258-6.945a1.411,1.411,0,0,0-1.09.455,2.357,2.357,0,0,0-.535,1.3H95.8v-.181a1.681,1.681,0,0,0-.406-1.165A1.456,1.456,0,0,0,94.285,58.211Zm9.766.453a6.134,6.134,0,0,0-.812-.062,1.654,1.654,0,0,0-1.68.867V65H99.3V56.547h2.133l.063,1.008a2.092,2.092,0,0,1,1.883-1.164,2.366,2.366,0,0,1,.7.1ZM109.8,65a2.507,2.507,0,0,1-.227-.758,2.732,2.732,0,0,1-2.133.914,3,3,0,0,1-2.059-.719,2.312,2.312,0,0,1-.816-1.812,2.389,2.389,0,0,1,1-2.062,4.915,4.915,0,0,1,2.879-.727h1.039v-.484a1.393,1.393,0,0,0-.3-.937,1.183,1.183,0,0,0-.949-.352,1.345,1.345,0,0,0-.895.273.929.929,0,0,0-.324.75h-2.258a2.268,2.268,0,0,1,.453-1.359,3,3,0,0,1,1.281-.98,4.669,4.669,0,0,1,1.859-.355,3.689,3.689,0,0,1,2.48.785,2.747,2.747,0,0,1,.918,2.207v3.664a4.041,4.041,0,0,0,.336,1.82V65Zm-1.867-1.57a1.945,1.945,0,0,0,.922-.223,1.462,1.462,0,0,0,.625-.6V61.156h-.844q-1.7,0-1.8,1.172l-.008.133a.9.9,0,0,0,.3.7A1.153,1.153,0,0,0,107.934,63.43ZM117,63.336a1.481,1.481,0,0,0,1.016-.344,1.2,1.2,0,0,0,.406-.914h2.117a2.9,2.9,0,0,1-.469,1.574,3.093,3.093,0,0,1-1.262,1.109,3.949,3.949,0,0,1-1.77.395A3.67,3.67,0,0,1,114.176,64a4.56,4.56,0,0,1-1.047-3.184v-.148a4.508,4.508,0,0,1,1.039-3.117,3.627,3.627,0,0,1,2.852-1.164,3.555,3.555,0,0,1,2.543.9,3.2,3.2,0,0,1,.973,2.4h-2.117a1.551,1.551,0,0,0-.406-1.072,1.51,1.51,0,0,0-2.223.163,3.333,3.333,0,0,0-.4,1.866v.235a3.375,3.375,0,0,0,.4,1.878A1.377,1.377,0,0,0,117,63.336ZM124.207,65h-2.266V56.547h2.266Zm-2.4-10.641a1.112,1.112,0,0,1,.34-.836,1.465,1.465,0,0,1,1.848,0,1.193,1.193,0,0,1,0,1.68,1.448,1.448,0,0,1-1.836,0A1.108,1.108,0,0,1,121.809,54.359Zm3.906,6.336a5.013,5.013,0,0,1,.484-2.242,3.546,3.546,0,0,1,1.395-1.523,4.069,4.069,0,0,1,2.113-.539,3.849,3.849,0,0,1,2.793,1.047,4.2,4.2,0,0,1,1.207,2.844l.016.578a4.418,4.418,0,0,1-1.086,3.121,4.209,4.209,0,0,1-5.832,0,4.5,4.5,0,0,1-1.09-3.187Zm2.258.16a3.16,3.16,0,0,0,.453,1.843,1.628,1.628,0,0,0,2.578.008,3.457,3.457,0,0,0,.461-2.015A3.128,3.128,0,0,0,131,58.86a1.5,1.5,0,0,0-1.3-.649,1.474,1.474,0,0,0-1.281.646A3.516,3.516,0,0,0,127.973,60.856ZM130.152,53h2.461l-2.164,2.422h-1.836Zm7.039,3.547.07.977a2.951,2.951,0,0,1,2.43-1.133,2.453,2.453,0,0,1,2,.789,3.682,3.682,0,0,1,.672,2.359V65h-2.258V59.594a1.465,1.465,0,0,0-.312-1.043,1.4,1.4,0,0,0-1.039-.324,1.553,1.553,0,0,0-1.43.813V65h-2.258V56.547Zm10.516,4.164a5.094,5.094,0,0,1,.887-3.148,2.877,2.877,0,0,1,2.426-1.172,2.589,2.589,0,0,1,2.039.922V53h2.266V65h-2.039l-.109-.9A2.657,2.657,0,0,1,151,65.156a2.869,2.869,0,0,1-2.395-1.176A5.258,5.258,0,0,1,147.707,60.711Zm2.258.168a3.337,3.337,0,0,0,.414,1.823,1.349,1.349,0,0,0,1.2.634,1.511,1.511,0,0,0,1.477-.884V59.111a1.489,1.489,0,0,0-1.461-.884Q149.965,58.227,149.965,60.879Zm11,4.277a4.15,4.15,0,0,1-3.027-1.141,4.054,4.054,0,0,1-1.168-3.039v-.219a5.106,5.106,0,0,1,.492-2.277,3.612,3.612,0,0,1,1.395-1.547,3.914,3.914,0,0,1,2.059-.543,3.508,3.508,0,0,1,2.73,1.094,4.444,4.444,0,0,1,1,3.1v.922h-5.383a2.1,2.1,0,0,0,.66,1.328,2,2,0,0,0,1.395.5,2.437,2.437,0,0,0,2.039-.945l1.109,1.242a3.389,3.389,0,0,1-1.375,1.121A4.511,4.511,0,0,1,160.965,65.156Zm-.258-6.945a1.411,1.411,0,0,0-1.09.455,2.357,2.357,0,0,0-.535,1.3h3.141v-.181a1.681,1.681,0,0,0-.406-1.165A1.456,1.456,0,0,0,160.707,58.211ZM19,89V82.2H17.742V80.547H19v-.719a2.918,2.918,0,0,1,.816-2.207,3.162,3.162,0,0,1,2.285-.785,5.278,5.278,0,0,1,1.148.156l-.023,1.75a2.878,2.878,0,0,0-.687-.07q-1.273,0-1.273,1.2v.68h1.68V82.2h-1.68V89Zm10.016,0a2.507,2.507,0,0,1-.227-.758,2.732,2.732,0,0,1-2.133.914,3,3,0,0,1-2.059-.719,2.312,2.312,0,0,1-.816-1.812,2.389,2.389,0,0,1,1-2.062,4.915,4.915,0,0,1,2.879-.727H28.7v-.484a1.393,1.393,0,0,0-.3-.937,1.183,1.183,0,0,0-.949-.352,1.345,1.345,0,0,0-.895.273.929.929,0,0,0-.324.75H23.969a2.268,2.268,0,0,1,.453-1.359,3,3,0,0,1,1.281-.98,4.669,4.669,0,0,1,1.859-.355,3.689,3.689,0,0,1,2.48.785,2.747,2.747,0,0,1,.918,2.207v3.664a4.041,4.041,0,0,0,.336,1.82V89Zm-1.867-1.57a1.945,1.945,0,0,0,.922-.223,1.462,1.462,0,0,0,.625-.6V85.156h-.844q-1.7,0-1.8,1.172l-.008.133a.9.9,0,0,0,.3.7A1.153,1.153,0,0,0,27.148,87.43Zm9.063-.094a1.481,1.481,0,0,0,1.016-.344,1.2,1.2,0,0,0,.406-.914H39.75a2.9,2.9,0,0,1-.469,1.574,3.093,3.093,0,0,1-1.262,1.109,3.949,3.949,0,0,1-1.77.395A3.67,3.67,0,0,1,33.391,88a4.56,4.56,0,0,1-1.047-3.184v-.148a4.508,4.508,0,0,1,1.039-3.117,3.627,3.627,0,0,1,2.852-1.164,3.555,3.555,0,0,1,2.543.9,3.2,3.2,0,0,1,.973,2.4H37.633a1.551,1.551,0,0,0-.406-1.072A1.51,1.51,0,0,0,35,82.786a3.333,3.333,0,0,0-.4,1.866v.235a3.375,3.375,0,0,0,.4,1.878A1.377,1.377,0,0,0,36.211,87.336ZM43.422,89H41.156V80.547h2.266Zm-2.4-10.641a1.112,1.112,0,0,1,.34-.836,1.465,1.465,0,0,1,1.848,0,1.193,1.193,0,0,1,0,1.68,1.448,1.448,0,0,1-1.836,0A1.108,1.108,0,0,1,41.023,78.359ZM47.664,89H45.4V77h2.266Zm4.242,0H49.641V80.547h2.266Zm-2.4-10.641a1.112,1.112,0,0,1,.34-.836,1.465,1.465,0,0,1,1.848,0,1.193,1.193,0,0,1,0,1.68,1.448,1.448,0,0,1-1.836,0A1.108,1.108,0,0,1,49.508,78.359Zm3.906,6.352a5.094,5.094,0,0,1,.887-3.148,2.877,2.877,0,0,1,2.426-1.172,2.589,2.589,0,0,1,2.039.922V77h2.266V89H58.992l-.109-.9a2.657,2.657,0,0,1-2.172,1.055,2.869,2.869,0,0,1-2.395-1.176A5.258,5.258,0,0,1,53.414,84.711Zm2.258.168a3.337,3.337,0,0,0,.414,1.823,1.349,1.349,0,0,0,1.2.634,1.511,1.511,0,0,0,1.477-.884V83.111a1.489,1.489,0,0,0-1.461-.884Q55.672,82.227,55.672,84.879ZM67.68,89a2.507,2.507,0,0,1-.227-.758,2.732,2.732,0,0,1-2.133.914,3,3,0,0,1-2.059-.719,2.312,2.312,0,0,1-.816-1.812,2.389,2.389,0,0,1,1-2.062,4.915,4.915,0,0,1,2.879-.727h1.039v-.484a1.393,1.393,0,0,0-.3-.937,1.183,1.183,0,0,0-.949-.352,1.345,1.345,0,0,0-.895.273.929.929,0,0,0-.324.75H62.633a2.268,2.268,0,0,1,.453-1.359,3,3,0,0,1,1.281-.98,4.669,4.669,0,0,1,1.859-.355,3.689,3.689,0,0,1,2.48.785,2.747,2.747,0,0,1,.918,2.207v3.664a4.041,4.041,0,0,0,.336,1.82V89Zm-1.867-1.57a1.945,1.945,0,0,0,.922-.223,1.462,1.462,0,0,0,.625-.6V85.156h-.844q-1.7,0-1.8,1.172l-.008.133a.9.9,0,0,0,.3.7A1.153,1.153,0,0,0,65.813,87.43Zm5.2-2.719a5.094,5.094,0,0,1,.887-3.148,2.877,2.877,0,0,1,2.426-1.172,2.589,2.589,0,0,1,2.039.922V77h2.266V89H76.586l-.109-.9A2.657,2.657,0,0,1,74.3,89.156,2.869,2.869,0,0,1,71.91,87.98,5.258,5.258,0,0,1,71.008,84.711Zm2.258.168A3.337,3.337,0,0,0,73.68,86.7a1.349,1.349,0,0,0,1.2.634,1.511,1.511,0,0,0,1.477-.884V83.111a1.489,1.489,0,0,0-1.461-.884Q73.266,82.227,73.266,84.879Zm11,4.277a4.15,4.15,0,0,1-3.027-1.141,4.054,4.054,0,0,1-1.168-3.039v-.219a5.106,5.106,0,0,1,.492-2.277,3.612,3.612,0,0,1,1.395-1.547,3.914,3.914,0,0,1,2.059-.543,3.508,3.508,0,0,1,2.73,1.094,4.444,4.444,0,0,1,1,3.1v.922H82.359a2.1,2.1,0,0,0,.66,1.328,2,2,0,0,0,1.395.5,2.437,2.437,0,0,0,2.039-.945l1.109,1.242a3.389,3.389,0,0,1-1.375,1.121A4.511,4.511,0,0,1,84.266,89.156Zm-.258-6.945a1.411,1.411,0,0,0-1.09.455,2.357,2.357,0,0,0-.535,1.3h3.141v-.181a1.681,1.681,0,0,0-.406-1.165A1.456,1.456,0,0,0,84.008,82.211ZM93.6,86.664a.727.727,0,0,0-.41-.652,4.659,4.659,0,0,0-1.316-.426q-3.016-.633-3.016-2.562a2.323,2.323,0,0,1,.934-1.879,3.766,3.766,0,0,1,2.441-.754,4.053,4.053,0,0,1,2.574.758,2.388,2.388,0,0,1,.965,1.969H93.516a1.092,1.092,0,0,0-.312-.8A1.322,1.322,0,0,0,92.227,82a1.351,1.351,0,0,0-.883.258.814.814,0,0,0-.312.656.7.7,0,0,0,.355.605,3.657,3.657,0,0,0,1.2.4,9.8,9.8,0,0,1,1.422.379A2.336,2.336,0,0,1,95.8,86.57a2.2,2.2,0,0,1-.992,1.871,4.28,4.28,0,0,1-2.562.715,4.47,4.47,0,0,1-1.887-.379,3.166,3.166,0,0,1-1.293-1.039,2.414,2.414,0,0,1-.469-1.426h2.141a1.179,1.179,0,0,0,.445.922,1.766,1.766,0,0,0,1.109.32,1.635,1.635,0,0,0,.98-.246A.766.766,0,0,0,93.6,86.664Zm10.336-8.2v2.078h1.445V82.2h-1.445v4.219a1.007,1.007,0,0,0,.18.672.9.9,0,0,0,.688.2,3.6,3.6,0,0,0,.664-.055v1.711a4.648,4.648,0,0,1-1.367.2,2.156,2.156,0,0,1-2.422-2.4V82.2h-1.234V80.547h1.234V78.469Zm7.766,9.672a2.831,2.831,0,0,1-2.312,1.016,2.67,2.67,0,0,1-2.074-.781,3.335,3.335,0,0,1-.73-2.289V80.547h2.258v5.467q0,1.322,1.2,1.322a1.63,1.63,0,0,0,1.578-.8V80.547h2.266V89h-2.125Zm8.641-5.477a6.134,6.134,0,0,0-.812-.062,1.654,1.654,0,0,0-1.68.867V89h-2.258V80.547h2.133l.063,1.008a2.092,2.092,0,0,1,1.883-1.164,2.366,2.366,0,0,1,.7.1ZM123.867,89h-2.258V80.547h2.258ZM123.2,77.117h2.461L123.5,79.539h-1.836Zm7.188,9.547a.727.727,0,0,0-.41-.652,4.659,4.659,0,0,0-1.316-.426q-3.016-.633-3.016-2.562a2.323,2.323,0,0,1,.934-1.879,3.766,3.766,0,0,1,2.441-.754,4.053,4.053,0,0,1,2.574.758,2.388,2.388,0,0,1,.965,1.969H130.3a1.092,1.092,0,0,0-.312-.8,1.322,1.322,0,0,0-.977-.316,1.351,1.351,0,0,0-.883.258.814.814,0,0,0-.312.656.7.7,0,0,0,.355.605,3.657,3.657,0,0,0,1.2.4,9.8,9.8,0,0,1,1.422.379,2.336,2.336,0,0,1,1.789,2.273,2.205,2.205,0,0,1-.992,1.871,4.28,4.28,0,0,1-2.562.715,4.47,4.47,0,0,1-1.887-.379,3.166,3.166,0,0,1-1.293-1.039,2.414,2.414,0,0,1-.469-1.426h2.141a1.179,1.179,0,0,0,.445.922,1.766,1.766,0,0,0,1.109.32,1.635,1.635,0,0,0,.98-.246A.766.766,0,0,0,130.391,86.664Zm6.352-8.2v2.078h1.445V82.2h-1.445v4.219a1.007,1.007,0,0,0,.18.672.9.9,0,0,0,.688.2,3.6,3.6,0,0,0,.664-.055v1.711a4.648,4.648,0,0,1-1.367.2,2.156,2.156,0,0,1-2.422-2.4V82.2H133.25V80.547h1.234V78.469ZM141.828,89h-2.266V80.547h2.266Zm-2.4-10.641a1.112,1.112,0,0,1,.34-.836,1.465,1.465,0,0,1,1.848,0,1.193,1.193,0,0,1,0,1.68,1.448,1.448,0,0,1-1.836,0A1.109,1.109,0,0,1,139.43,78.359Zm7.773,8.977a1.481,1.481,0,0,0,1.016-.344,1.2,1.2,0,0,0,.406-.914h2.117a2.9,2.9,0,0,1-.469,1.574,3.093,3.093,0,0,1-1.262,1.109,3.949,3.949,0,0,1-1.77.395A3.67,3.67,0,0,1,144.383,88a4.56,4.56,0,0,1-1.047-3.184v-.148a4.508,4.508,0,0,1,1.039-3.117,3.627,3.627,0,0,1,2.852-1.164,3.555,3.555,0,0,1,2.543.9,3.2,3.2,0,0,1,.973,2.4h-2.117a1.551,1.551,0,0,0-.406-1.072,1.51,1.51,0,0,0-2.223.163,3.333,3.333,0,0,0-.4,1.866v.235a3.375,3.375,0,0,0,.4,1.878A1.377,1.377,0,0,0,147.2,87.336ZM156.93,89a2.507,2.507,0,0,1-.227-.758,2.732,2.732,0,0,1-2.133.914,3,3,0,0,1-2.059-.719,2.312,2.312,0,0,1-.816-1.812,2.389,2.389,0,0,1,1-2.062,4.915,4.915,0,0,1,2.879-.727h1.039v-.484a1.393,1.393,0,0,0-.3-.937,1.183,1.183,0,0,0-.949-.352,1.345,1.345,0,0,0-.895.273.929.929,0,0,0-.324.75h-2.258a2.268,2.268,0,0,1,.453-1.359,3,3,0,0,1,1.281-.98,4.669,4.669,0,0,1,1.859-.355,3.689,3.689,0,0,1,2.48.785,2.747,2.747,0,0,1,.918,2.207v3.664a4.041,4.041,0,0,0,.336,1.82V89Zm-1.867-1.57a1.945,1.945,0,0,0,.922-.223,1.462,1.462,0,0,0,.625-.6V85.156h-.844q-1.7,0-1.8,1.172l-.008.133a.9.9,0,0,0,.3.7A1.153,1.153,0,0,0,155.063,87.43Zm10.125-.766a.727.727,0,0,0-.41-.652,4.659,4.659,0,0,0-1.316-.426q-3.016-.633-3.016-2.562a2.323,2.323,0,0,1,.934-1.879,3.766,3.766,0,0,1,2.441-.754,4.053,4.053,0,0,1,2.574.758,2.388,2.388,0,0,1,.965,1.969H165.1a1.092,1.092,0,0,0-.312-.8,1.322,1.322,0,0,0-.977-.316,1.351,1.351,0,0,0-.883.258.814.814,0,0,0-.312.656.7.7,0,0,0,.355.605,3.657,3.657,0,0,0,1.2.4,9.8,9.8,0,0,1,1.422.379,2.336,2.336,0,0,1,1.789,2.273,2.205,2.205,0,0,1-.992,1.871,4.28,4.28,0,0,1-2.562.715,4.47,4.47,0,0,1-1.887-.379,3.166,3.166,0,0,1-1.293-1.039,2.414,2.414,0,0,1-.469-1.426h2.141a1.179,1.179,0,0,0,.445.922,1.766,1.766,0,0,0,1.109.32,1.635,1.635,0,0,0,.98-.246A.766.766,0,0,0,165.188,86.664Zm3.758,1.227a1.137,1.137,0,0,1,.363-.875,1.412,1.412,0,0,1,1.828,0,1.137,1.137,0,0,1,.363.875,1.121,1.121,0,0,1-.359.863,1.435,1.435,0,0,1-1.836,0A1.121,1.121,0,0,1,168.945,87.891Zm0-6.4a1.137,1.137,0,0,1,.363-.875,1.412,1.412,0,0,1,1.828,0,1.137,1.137,0,0,1,.363.875,1.121,1.121,0,0,1-.359.863,1.435,1.435,0,0,1-1.836,0A1.121,1.121,0,0,1,168.945,81.492Z" transform="translate(339 3020)" fill="#12263f"/>
  </g>
</svg>
