<svg xmlns="http://www.w3.org/2000/svg" xmlns:xlink="http://www.w3.org/1999/xlink" width="72.546" height="72.426" viewBox="0 0 72.546 72.426">
  <defs>
    <clipPath id="clip-path">
      <rect id="Rectángulo_40212" data-name="Rectángulo 40212" width="72.546" height="72.426" fill="none"/>
    </clipPath>
  </defs>
  <g id="Grupo_211671" data-name="Grupo 211671" transform="translate(-303 -10701.529)">
    <circle id="Elipse_4803" data-name="Elipse 4803" cx="35" cy="35" r="35" transform="translate(304.273 10702.719)" fill="#fff"/>
    <g id="Grupo_211670" data-name="Grupo 211670" transform="translate(303 10701.529)">
      <g id="Grupo_211669" data-name="Grupo 211669" clip-path="url(#clip-path)">
        <path id="Trazado_146009" data-name="Trazado 146009" d="M36.063,0A36.213,36.213,0,1,0,72.546,36.12,36.274,36.274,0,0,0,36.063,0M36.04,71A34.788,34.788,0,1,1,71.113,36.266,34.8,34.8,0,0,1,36.04,71" transform="translate(0 -0.001)" fill="#eb6f2d"/>
        <path id="Trazado_146010" data-name="Trazado 146010" d="M97.632,107.8c-.01-3.207-.541-3.764-3.649-3.767-12.805-.012-25.611.033-38.416-.035A6.553,6.553,0,0,0,49.5,107.38c-3,4.946-3.589,10.412-3.246,16.036.1,1.647,1.338,2.141,2.776,2.11,1.339-.029,3.125.643,3.246-1.725.475-2.419,2.145-3.268,4.383-3.146,2.291.125,3.519,1.672,3.914,4.655,7.471.036,14.942.049,22.413.131,1.3.014,1.508-.678,1.817-1.713a4.122,4.122,0,0,1,4.862-3.052c2.221.4,3.364,1.989,3.293,4.579,3.946.472,4.655-.091,4.667-3.763q.021-6.848.009-13.7m-37.462,5.7a4.669,4.669,0,0,0-4.66,2.02c-1.25,1.793-3.264,1.024-4.991,1-.853-.01-.669-.769-.545-1.309a18.7,18.7,0,0,1,2.2-5.927,4.186,4.186,0,0,1,4.043-2.22c1.3.079,2.608,0,3.912.015,3.6.036,3.218-.4,3.253,3.7.753,2.516-.845,2.941-3.211,2.723m10.479-3.092c-.146,3.068-.06,2.839-3.243,3.14-2.978.281-3.253-1.165-2.908-3,0-3.474.024-3.239,3.179-3.537,2.949-.279,3.078,1.168,2.972,3.4m4.229,3.073c-3.092,0-3.092,0-3.092-3.2s0-3.195,3.1-3.2,3.1,0,3.1,3.191c0,3.21,0,3.21-3.108,3.211m7.361,0c-3.092,0-2.916-.012-3.15-3.408-.172-2.493.6-3.244,3.066-3.052,3.436.268,3.165-.519,3.208,3.332,0,3.129,0,3.129-3.124,3.129m7.215-.035c-.955-.014-2.456.655-2.777-.65a8.182,8.182,0,0,1,.108-5.269c.521-1.1,2.257-.221,3.2-.445.955,0,1.69.032,2.421-.007,1.173-.063,1.483.515,1.559,1.618.333,4.792.367,4.824-4.515,4.753" transform="translate(-35.611 -80.22)" fill="#eb6f2d"/>
        <path id="Trazado_146011" data-name="Trazado 146011" d="M76.48,183.681c-.268.138-.547.254-.824.373a9.1,9.1,0,0,0-.617,1.117c.035,1.864.757,3.322,2.663,3.792,2.047.505,3.349-.577,4.194-2.348a6.759,6.759,0,0,0-.184-1.762c-1.414-2.21-2.708-2.476-5.232-1.171" transform="translate(-57.883 -141.078)" fill="#4d793f"/>
        <path id="Trazado_146012" data-name="Trazado 146012" d="M81.392,180.785a3.118,3.118,0,0,0-3.653,1.548c.277-.12.556-.235.824-.373,2.524-1.3,3.818-1.038,5.232,1.171a3.047,3.047,0,0,0-2.4-2.346" transform="translate(-59.965 -139.357)" fill="#4d793f"/>
        <path id="Trazado_146013" data-name="Trazado 146013" d="M224.824,187.058a5.154,5.154,0,0,0-1.672-1.321c-1.59-.7-3.289-.684-4.231.663a4.655,4.655,0,0,1-.631.732,5.069,5.069,0,0,0-.034,1.337c1.969,3.182,4.076,3.337,6.531.482a7.473,7.473,0,0,0,.037-1.892" transform="translate(-168.334 -142.918)" fill="#4d793f"/>
        <path id="Trazado_146014" data-name="Trazado 146014" d="M223.651,181.327a3.348,3.348,0,0,0-5.151,2.335,4.645,4.645,0,0,0,.631-.732c.942-1.347,2.641-1.367,4.231-.663a5.16,5.16,0,0,1,1.672,1.321,3.129,3.129,0,0,0-1.383-2.262" transform="translate(-168.544 -139.448)" fill="#4d793f"/>
      </g>
    </g>
  </g>
</svg>
