<svg xmlns="http://www.w3.org/2000/svg" width="95" height="95" viewBox="0 0 95 95">
  <g id="Grupo_926825" data-name="Grupo 926825" transform="translate(8340 7255)">
    <rect id="Rectángulo_335052" data-name="Rectángulo 335052" width="95" height="95" transform="translate(-8340 -7255)" fill="none"/>
    <g id="pensamiento" transform="translate(-8348.103 -7242.384)">
      <g id="Grupo_926827" data-name="Grupo 926827" transform="translate(25.032 1)">
        <g id="Grupo_926826" data-name="Grupo 926826">
          <path id="Trazado_633482" data-name="Trazado 633482" d="M84.985,17.464a18.723,18.723,0,0,0-6.752-9.711c-6.372-5-12.329-7.07-19.3-6.714A75.693,75.693,0,0,0,48.01,2.6c-5.1,1.026-8.8,2.817-11.316,5.476a21.419,21.419,0,0,0-4.531,7.385,29.789,29.789,0,0,0-1.021,3.677l-.095.409a14.3,14.3,0,0,1-.957,2.549c-.235.524-.469,1.048-.669,1.582a3.849,3.849,0,0,0-.3,1.9A4.309,4.309,0,0,0,30.763,28.1c.554.507.918.864.921,1.188a1.935,1.935,0,0,1-.2.482,43.706,43.706,0,0,1-4.944,8.042c-.811.99-1.661,2.145-1.489,3.32a3.5,3.5,0,0,0,1.637,2.106,8.326,8.326,0,0,0,1.178.683c.487.248,1.3.665,1.36.962a1.92,1.92,0,0,1-.124,1.133c-.168.354-.342.659-.492.924-.415.734-1.11,1.961-.062,2.84.244.216.661.543,1.042.835a2.848,2.848,0,0,0-.364,1.636,1.62,1.62,0,0,0,.665,1.1c.253.179.523.335.791.489.664.378.923.555,1.013.907a3.186,3.186,0,0,1-.122,1.369c-.065.3-.129.592-.169.888a6.594,6.594,0,0,0,.378,3.035,4.183,4.183,0,0,0,4.92,2.986,92.211,92.211,0,0,0,9.529-2.85c2.539,1.5,4.143,6.038,4.561,7.74a1.132,1.132,0,0,0,1.1.86H80.449a1.13,1.13,0,0,0,1.08-1.46,7.815,7.815,0,0,0-1.272-2.195,8.739,8.739,0,0,1-.814-1.243,22.276,22.276,0,0,1-1.276-3.231,37.441,37.441,0,0,1-1.331-6.679,19.1,19.1,0,0,1,1.477-9.915,25.366,25.366,0,0,1,3.066-4.839c.683-.918,1.388-1.868,2.023-2.869a17.369,17.369,0,0,0,2.764-9.283A33.791,33.791,0,0,0,84.985,17.464Zm-1.078,9.559a15.153,15.153,0,0,1-2.414,8.106c-.59.93-1.269,1.845-1.927,2.731a27.539,27.539,0,0,0-3.323,5.282,21.353,21.353,0,0,0-1.649,11.09,39.623,39.623,0,0,0,1.415,7.075,24.606,24.606,0,0,0,1.4,3.548,10.573,10.573,0,0,0,1.025,1.592c.015.02.031.041.045.062H52.748a18.028,18.028,0,0,0-3.982-7.216L49.6,59c.846-.3,1.483-.52,1.8-.621,4.842-1.52,7.264-3.72,7.2-6.541a1.13,1.13,0,1,0-2.259.053c.028,1.164-.924,2.86-5.618,4.333-.333.105-1,.336-1.873.644-.81.284-1.807.633-2.9,1.005l-.007,0a93.893,93.893,0,0,1-9.7,2.929,2,2,0,0,1-2.329-1.515,4.374,4.374,0,0,1-.272-1.994c.031-.234.084-.468.136-.7a5,5,0,0,0,.1-2.413,3.728,3.728,0,0,0-2.081-2.312c-.08-.046-.162-.092-.242-.139a4.14,4.14,0,0,1,.432-.7,1.128,1.128,0,0,0-.217-1.6c-.271-.2-.917-.684-1.381-1.054.057-.105.122-.221.182-.325.173-.307.372-.66.565-1.065a4.176,4.176,0,0,0,.3-2.526C31.185,43.072,29.862,42.4,28.9,41.9a6.546,6.546,0,0,1-.939-.544,5.788,5.788,0,0,1-.665-.539c0-.17.18-.583,1.049-1.643a45.551,45.551,0,0,0,5.161-8.39,3.262,3.262,0,0,0,.442-1.532,3.938,3.938,0,0,0-1.654-2.827c-.457-.418-.888-.813-.936-1.159a1.968,1.968,0,0,1,.181-.794c.185-.493.4-.974.618-1.457a16.178,16.178,0,0,0,1.1-2.959l.1-.412a27.567,27.567,0,0,1,.94-3.4A19.191,19.191,0,0,1,38.334,9.63c2.188-2.31,5.5-3.885,10.122-4.815a73.728,73.728,0,0,1,10.6-1.52c6.393-.321,11.877,1.6,17.79,6.237a16.3,16.3,0,0,1,5.972,8.55A31.557,31.557,0,0,1,83.907,27.023Z" transform="translate(-25.032 -1)" fill="#263e1f"/>
          <path id="Trazado_633483" data-name="Trazado 633483" d="M227.654,56.3h-2.342a12.922,12.922,0,0,0-1.056-2.546l1.657-1.657a1.13,1.13,0,0,0,.128-1.445,16.081,16.081,0,0,0-4-4,1.127,1.127,0,0,0-1.445.127l-1.657,1.657a12.915,12.915,0,0,0-2.547-1.056V45.043a1.13,1.13,0,0,0-.931-1.112,16.277,16.277,0,0,0-5.654,0,1.13,1.13,0,0,0-.931,1.112v2.342a12.915,12.915,0,0,0-2.547,1.056l-1.657-1.657a1.127,1.127,0,0,0-1.445-.127,16.078,16.078,0,0,0-4,4,1.129,1.129,0,0,0,.128,1.445l1.657,1.657a12.922,12.922,0,0,0-1.056,2.546h-2.342a1.129,1.129,0,0,0-1.112.931,16.161,16.161,0,0,0,0,5.655,1.129,1.129,0,0,0,1.112.931h2.342a12.92,12.92,0,0,0,1.056,2.546l-1.657,1.657a1.13,1.13,0,0,0-.128,1.445,16.078,16.078,0,0,0,4,4,1.131,1.131,0,0,0,1.445-.127l1.657-1.657a12.917,12.917,0,0,0,2.547,1.056v2.342a1.13,1.13,0,0,0,.931,1.112,16.187,16.187,0,0,0,5.654,0,1.13,1.13,0,0,0,.931-1.112V72.734a12.917,12.917,0,0,0,2.547-1.056l1.657,1.657a1.131,1.131,0,0,0,1.445.127,16.079,16.079,0,0,0,4-4,1.129,1.129,0,0,0-.128-1.445l-1.657-1.657a12.925,12.925,0,0,0,1.056-2.546h2.342a1.129,1.129,0,0,0,1.112-.931,16.162,16.162,0,0,0,0-5.655A1.13,1.13,0,0,0,227.654,56.3Zm-.978,5.258h-2.239a1.129,1.129,0,0,0-1.1.887,10.676,10.676,0,0,1-1.445,3.486,1.128,1.128,0,0,0,.151,1.409l1.585,1.585a13.859,13.859,0,0,1-2.12,2.12l-1.585-1.584a1.129,1.129,0,0,0-1.409-.152,10.666,10.666,0,0,1-3.488,1.446,1.129,1.129,0,0,0-.887,1.1V74.1a14.046,14.046,0,0,1-3,0V71.858a1.129,1.129,0,0,0-.887-1.1,10.666,10.666,0,0,1-3.488-1.446,1.126,1.126,0,0,0-1.409.152l-1.585,1.584a13.857,13.857,0,0,1-2.12-2.12l1.585-1.585a1.128,1.128,0,0,0,.151-1.409,10.675,10.675,0,0,1-1.445-3.486,1.129,1.129,0,0,0-1.1-.887H198.6a14.006,14.006,0,0,1,0-3h2.239a1.129,1.129,0,0,0,1.1-.887,10.676,10.676,0,0,1,1.445-3.486,1.128,1.128,0,0,0-.151-1.409l-1.585-1.585a13.856,13.856,0,0,1,2.12-2.12l1.585,1.584a1.127,1.127,0,0,0,1.409.152,10.666,10.666,0,0,1,3.488-1.446,1.129,1.129,0,0,0,.887-1.1V46.022a14.047,14.047,0,0,1,3,0v2.239a1.129,1.129,0,0,0,.887,1.1,10.666,10.666,0,0,1,3.488,1.446,1.13,1.13,0,0,0,1.409-.152l1.585-1.584a13.857,13.857,0,0,1,2.12,2.12l-1.585,1.585a1.128,1.128,0,0,0-.151,1.409,10.675,10.675,0,0,1,1.445,3.486,1.129,1.129,0,0,0,1.1.887h2.239A14,14,0,0,1,226.676,61.559Z" transform="translate(-173.597 -38.035)" fill="#263e1f"/>
          <path id="Trazado_633484" data-name="Trazado 633484" d="M123.352,211.454h-1.29a4.459,4.459,0,0,0-.48-1.151l.914-.914a1.129,1.129,0,0,0-1.6-1.6l-.914.914a4.472,4.472,0,0,0-1.151-.48v-1.29a1.129,1.129,0,0,0-2.259,0v1.29a4.469,4.469,0,0,0-1.151.48l-.914-.914a1.129,1.129,0,0,0-1.6,1.6l.914.914a4.458,4.458,0,0,0-.48,1.151h-1.29a1.129,1.129,0,1,0,0,2.259h1.29a4.458,4.458,0,0,0,.48,1.151l-.914.914a1.129,1.129,0,0,0,1.6,1.6l.914-.914a4.472,4.472,0,0,0,1.151.48v1.29a1.129,1.129,0,0,0,2.259,0v-1.29a4.469,4.469,0,0,0,1.151-.48l.914.914a1.129,1.129,0,1,0,1.6-1.6l-.914-.914a4.459,4.459,0,0,0,.48-1.151h1.29a1.129,1.129,0,0,0,0-2.259Zm-5.647,3.388a2.259,2.259,0,1,1,2.259-2.259A2.259,2.259,0,0,1,117.7,214.843Z" transform="translate(-99.559 -178.699)" fill="#263e1f"/>
          <path id="Trazado_633485" data-name="Trazado 633485" d="M104.387,118.719a3.766,3.766,0,0,0,.271.656l-.611.611a1.129,1.129,0,0,0,1.6,1.6l.613-.613a3.8,3.8,0,0,0,.654.271v.867a1.129,1.129,0,0,0,2.259,0v-.867a3.782,3.782,0,0,0,.654-.271l.613.613a1.129,1.129,0,1,0,1.6-1.6l-.611-.611a3.754,3.754,0,0,0,.272-.656h.864a1.129,1.129,0,1,0,0-2.259h-.864a3.753,3.753,0,0,0-.272-.656l.611-.611a1.129,1.129,0,0,0-1.6-1.6l-.613.613a3.791,3.791,0,0,0-.654-.271v-.867a1.129,1.129,0,0,0-2.259,0v.867a3.791,3.791,0,0,0-.654.271l-.613-.613a1.129,1.129,0,0,0-1.6,1.6l.611.611a3.754,3.754,0,0,0-.272.656h-.864a1.129,1.129,0,0,0,0,2.259h.864Zm3.244-2.658a1.582,1.582,0,1,1-1.172,1.528A1.582,1.582,0,0,1,107.631,116.062Z" transform="translate(-92.154 -97.259)" fill="#263e1f"/>
          <path id="Trazado_633486" data-name="Trazado 633486" d="M271.868,111.941a7.341,7.341,0,1,0,7.341,7.341A7.341,7.341,0,0,0,271.868,111.941Zm0,12.424a5.083,5.083,0,1,1,5.083-5.083A5.082,5.082,0,0,1,271.868,124.365Z" transform="translate(-232.828 -97.257)" fill="#263e1f"/>
        </g>
      </g>
    </g>
  </g>
</svg>
