<svg xmlns="http://www.w3.org/2000/svg" width="129.022" height="111.699" viewBox="0 0 129.022 111.699">
  <g id="Grupo_927036" data-name="Grupo 927036" transform="translate(-838.813 -1531.854)">
    <path id="Trazado_633648" data-name="Trazado 633648" d="M308.252-224.482c0,28.432-14.28,51.481-45.709,51.481s-83.313-20.294-83.313-48.726S234.219-284.7,265.648-284.7,308.252-252.914,308.252-224.482Z" transform="translate(659.583 1816.554)" fill="#ffe6a1"/>
    <g id="_x30_6_Website" transform="translate(871.486 1544.768)">
      <g id="Grupo_927024" data-name="Grupo 927024" transform="translate(0 4.7)">
        <g id="Grupo_927008" data-name="Grupo 927008" transform="translate(0.658 0.658)">
          <g id="Grupo_927001" data-name="Grupo 927001">
            <g id="Grupo_926998" data-name="Grupo 926998">
              <g id="Grupo_926997" data-name="Grupo 926997">
                <g id="Grupo_926996" data-name="Grupo 926996">
                  <g id="Grupo_926952" data-name="Grupo 926952" transform="translate(0 12.962)">
                    <g id="Grupo_926951" data-name="Grupo 926951">
                      <path id="Trazado_633750" data-name="Trazado 633750" d="M1,25.4V84.026a5.027,5.027,0,0,0,5.066,5.066H78.84a5.111,5.111,0,0,0,5.066-5.066V25.4Z" transform="translate(-1 -25.4)" fill="#a6e1fb"/>
                    </g>
                  </g>
                  <g id="Grupo_926954" data-name="Grupo 926954" transform="translate(5.988 38.031)">
                    <g id="Grupo_926953" data-name="Grupo 926953">
                      <path id="Trazado_633751" data-name="Trazado 633751" d="M10.1,63.5H53.527V96.268H10.1Z" transform="translate(-10.1 -63.5)" fill="#fff"/>
                    </g>
                  </g>
                  <g id="Grupo_926956" data-name="Grupo 926956" transform="translate(44.414 38.097)">
                    <g id="Grupo_926955" data-name="Grupo 926955">
                      <path id="Trazado_633752" data-name="Trazado 633752" d="M68.5,63.6h5V96.368h-5Z" transform="translate(-68.5 -63.6)" fill="#ededed"/>
                    </g>
                  </g>
                  <g id="Grupo_926958" data-name="Grupo 926958" transform="translate(5.988 19.74)">
                    <g id="Grupo_926957" data-name="Grupo 926957">
                      <path id="Trazado_633753" data-name="Trazado 633753" d="M81.031,37.74V46.03a2.05,2.05,0,0,1-2.04,2.04H12.14a2.05,2.05,0,0,1-2.04-2.04V37.74a2.05,2.05,0,0,1,2.04-2.04H78.991a2.05,2.05,0,0,1,2.04,2.04Z" transform="translate(-10.1 -35.7)" fill="#fff"/>
                    </g>
                  </g>
                  <g id="Grupo_926960" data-name="Grupo 926960" transform="translate(5.988 19.74)">
                    <g id="Grupo_926959" data-name="Grupo 926959">
                      <path id="Trazado_633754" data-name="Trazado 633754" d="M23.26,35.7H12.14a2.05,2.05,0,0,0-2.04,2.04V46.03a2.05,2.05,0,0,0,2.04,2.04H23.26Z" transform="translate(-10.1 -35.7)" fill="#7bde9e"/>
                    </g>
                  </g>
                  <g id="Grupo_926962" data-name="Grupo 926962" transform="translate(5.988 19.74)">
                    <g id="Grupo_926961" data-name="Grupo 926961">
                      <path id="Trazado_633755" data-name="Trazado 633755" d="M16.68,48H12.14a2.05,2.05,0,0,1-2.04-2.04V37.74a2.05,2.05,0,0,1,2.04-2.04h4.54a2.05,2.05,0,0,0-2.04,2.04V46.03A2.038,2.038,0,0,0,16.68,48Z" transform="translate(-10.1 -35.7)" fill="#a7e9bf"/>
                    </g>
                  </g>
                  <g id="Grupo_926964" data-name="Grupo 926964" transform="translate(70.339 19.74)">
                    <g id="Grupo_926963" data-name="Grupo 926963">
                      <path id="Trazado_633756" data-name="Trazado 633756" d="M114.48,37.74V46.03a2.05,2.05,0,0,1-2.04,2.04H107.9a2.05,2.05,0,0,0,2.04-2.04V37.74a2.05,2.05,0,0,0-2.04-2.04h4.54a2.05,2.05,0,0,1,2.04,2.04Z" transform="translate(-107.9 -35.7)" fill="#ededed"/>
                    </g>
                  </g>
                  <g id="Grupo_926966" data-name="Grupo 926966" transform="translate(73.102 12.962)">
                    <g id="Grupo_926965" data-name="Grupo 926965">
                      <path id="Trazado_633757" data-name="Trazado 633757" d="M121.9,25.4V84.026a5.027,5.027,0,0,1-5.066,5.066H112.1a5.069,5.069,0,0,0,5.066-5.066V25.4Z" transform="translate(-112.1 -25.4)" fill="#7ad1f9"/>
                    </g>
                  </g>
                  <g id="Grupo_926968" data-name="Grupo 926968" transform="translate(0 12.962)">
                    <g id="Grupo_926967" data-name="Grupo 926967">
                      <path id="Trazado_633758" data-name="Trazado 633758" d="M1,25.4V84.026a5.027,5.027,0,0,0,5.066,5.066H10.8a5.069,5.069,0,0,1-5.066-5.066V25.4Z" transform="translate(-1 -25.4)" fill="#d3f0fd"/>
                    </g>
                  </g>
                  <g id="Grupo_926970" data-name="Grupo 926970" transform="translate(0)">
                    <g id="Grupo_926969" data-name="Grupo 926969">
                      <path id="Trazado_633759" data-name="Trazado 633759" d="M83.906,18.662v-7.9A5.069,5.069,0,0,0,78.84,5.7H6.066A5.111,5.111,0,0,0,1,10.766v7.9Z" transform="translate(-1 -5.7)" fill="#d3d9d9"/>
                    </g>
                  </g>
                  <g id="Grupo_926972" data-name="Grupo 926972">
                    <g id="Grupo_926971" data-name="Grupo 926971">
                      <path id="Trazado_633760" data-name="Trazado 633760" d="M10.8,5.7a5.027,5.027,0,0,0-5.066,5.066v7.9H1v-7.9A5.027,5.027,0,0,1,6.066,5.7Z" transform="translate(-1 -5.7)" fill="#ededed"/>
                    </g>
                  </g>
                  <g id="Grupo_926974" data-name="Grupo 926974" transform="translate(73.102)">
                    <g id="Grupo_926973" data-name="Grupo 926973">
                      <path id="Trazado_633761" data-name="Trazado 633761" d="M121.9,10.766v7.9h-4.737v-7.9A5.069,5.069,0,0,0,112.1,5.7h4.737A5.069,5.069,0,0,1,121.9,10.766Z" transform="translate(-112.1 -5.7)" fill="#a8b2b4"/>
                    </g>
                  </g>
                  <g id="Grupo_926995" data-name="Grupo 926995" transform="translate(5.395 4.211)">
                    <g id="Grupo_926981" data-name="Grupo 926981">
                      <g id="Grupo_926976" data-name="Grupo 926976">
                        <g id="Grupo_926975" data-name="Grupo 926975">
                          <circle id="Elipse_4829" data-name="Elipse 4829" cx="2.303" cy="2.303" r="2.303" fill="#fc8a8a"/>
                        </g>
                      </g>
                      <g id="Grupo_926978" data-name="Grupo 926978" transform="translate(8.159)">
                        <g id="Grupo_926977" data-name="Grupo 926977">
                          <circle id="Elipse_4830" data-name="Elipse 4830" cx="2.303" cy="2.303" r="2.303" fill="#fedd8e"/>
                        </g>
                      </g>
                      <g id="Grupo_926980" data-name="Grupo 926980" transform="translate(16.384)">
                        <g id="Grupo_926979" data-name="Grupo 926979">
                          <circle id="Elipse_4831" data-name="Elipse 4831" cx="2.303" cy="2.303" r="2.303" fill="#7bde9e"/>
                        </g>
                      </g>
                    </g>
                    <g id="Grupo_926988" data-name="Grupo 926988" transform="translate(0.066 0.132)">
                      <g id="Grupo_926983" data-name="Grupo 926983">
                        <g id="Grupo_926982" data-name="Grupo 926982">
                          <path id="Trazado_633762" data-name="Trazado 633762" d="M13.774,14.471a2.331,2.331,0,0,1-2.3,2.3A2.368,2.368,0,0,1,9.3,15.261a3.3,3.3,0,0,0,.79.132,2.331,2.331,0,0,0,2.3-2.3,3.3,3.3,0,0,0-.132-.79,2.275,2.275,0,0,1,1.513,2.171Z" transform="translate(-9.3 -12.3)" fill="#f96363"/>
                        </g>
                      </g>
                      <g id="Grupo_926985" data-name="Grupo 926985" transform="translate(8.225)">
                        <g id="Grupo_926984" data-name="Grupo 926984">
                          <path id="Trazado_633763" data-name="Trazado 633763" d="M26.274,14.471a2.331,2.331,0,0,1-2.3,2.3A2.368,2.368,0,0,1,21.8,15.261a3.3,3.3,0,0,0,.79.132,2.331,2.331,0,0,0,2.3-2.3,3.3,3.3,0,0,0-.132-.79,2.368,2.368,0,0,1,1.513,2.171Z" transform="translate(-21.8 -12.3)" fill="#fdd267"/>
                        </g>
                      </g>
                      <g id="Grupo_926987" data-name="Grupo 926987" transform="translate(16.45)">
                        <g id="Grupo_926986" data-name="Grupo 926986">
                          <path id="Trazado_633764" data-name="Trazado 633764" d="M38.774,14.471a2.331,2.331,0,0,1-2.3,2.3A2.368,2.368,0,0,1,34.3,15.261a3.3,3.3,0,0,0,.79.132,2.331,2.331,0,0,0,2.3-2.3,3.3,3.3,0,0,0-.132-.79,2.368,2.368,0,0,1,1.513,2.171Z" transform="translate(-34.3 -12.3)" fill="#50d27e"/>
                        </g>
                      </g>
                    </g>
                    <g id="Grupo_926991" data-name="Grupo 926991" transform="translate(29.412)">
                      <g id="Grupo_926990" data-name="Grupo 926990">
                        <g id="Grupo_926989" data-name="Grupo 926989">
                          <path id="Trazado_633765" data-name="Trazado 633765" d="M96.6,14.4a2.331,2.331,0,0,1-2.3,2.3H56.2a2.3,2.3,0,1,1,0-4.606H94.3A2.249,2.249,0,0,1,96.6,14.4Z" transform="translate(-53.9 -12.1)" fill="#fff"/>
                        </g>
                      </g>
                    </g>
                    <g id="Grupo_926994" data-name="Grupo 926994" transform="translate(29.412 0.329)">
                      <g id="Grupo_926993" data-name="Grupo 926993">
                        <g id="Grupo_926992" data-name="Grupo 926992">
                          <path id="Trazado_633766" data-name="Trazado 633766" d="M96.6,14.574a2.331,2.331,0,0,1-2.3,2.3H56.2a2.308,2.308,0,0,1-2.3-2.171,2.163,2.163,0,0,0,1.119.263h38.1a2.331,2.331,0,0,0,2.3-2.3V12.6A2.079,2.079,0,0,1,96.6,14.574Z" transform="translate(-53.9 -12.6)" fill="#ededed"/>
                        </g>
                      </g>
                    </g>
                  </g>
                </g>
              </g>
            </g>
            <g id="Grupo_927000" data-name="Grupo 927000" transform="translate(9.639 22.997)">
              <g id="Grupo_926999" data-name="Grupo 926999">
                <path id="Trazado_633767" data-name="Trazado 633767" d="M19.762,41.341a2.419,2.419,0,1,1-3.422,0A2.463,2.463,0,0,1,19.762,41.341Z" transform="translate(-15.65 -40.65)" fill="#fff"/>
              </g>
            </g>
          </g>
          <g id="Grupo_927003" data-name="Grupo 927003" transform="translate(29.149 51.06)">
            <g id="Grupo_927002" data-name="Grupo 927002">
              <path id="Trazado_633768" data-name="Trazado 633768" d="M60.565,95.407,58,98.1l-6.185-5.988-2.369,4.935L45.3,83.3l13.883,3.619-4.8,2.566Z" transform="translate(-45.3 -83.3)" fill="#fc898c"/>
            </g>
          </g>
          <g id="Grupo_927005" data-name="Grupo 927005" transform="translate(39.611 60.995)">
            <g id="Grupo_927004" data-name="Grupo 927004">
              <path id="Trazado_633769" data-name="Trazado 633769" d="M66,100.571l-2.566,2.7L61.2,101.1l2.566-2.7Z" transform="translate(-61.2 -98.4)" fill="#f96364"/>
            </g>
          </g>
          <g id="Grupo_927007" data-name="Grupo 927007" transform="translate(29.149 51.06)">
            <g id="Grupo_927006" data-name="Grupo 927006">
              <path id="Trazado_633770" data-name="Trazado 633770" d="M57.144,88.037l-9.672-2.566,2.9,9.672-.921,1.908L45.3,83.3l13.883,3.619Z" transform="translate(-45.3 -83.3)" fill="#fcb0b0"/>
            </g>
          </g>
        </g>
        <g id="Grupo_927015" data-name="Grupo 927015" transform="translate(56.06 38.689)">
          <g id="Grupo_927010" data-name="Grupo 927010">
            <g id="Grupo_927009" data-name="Grupo 927009">
              <path id="Trazado_633771" data-name="Trazado 633771" d="M85.2,63.5h21.45V76.923H85.2Z" transform="translate(-85.2 -63.5)" fill="#fedd8e"/>
            </g>
          </g>
          <g id="Grupo_927012" data-name="Grupo 927012" transform="translate(16.515)">
            <g id="Grupo_927011" data-name="Grupo 927011">
              <path id="Trazado_633772" data-name="Trazado 633772" d="M110.3,63.5h5V76.923h-5Z" transform="translate(-110.3 -63.5)" fill="#fdd367"/>
            </g>
          </g>
          <g id="Grupo_927014" data-name="Grupo 927014">
            <g id="Grupo_927013" data-name="Grupo 927013">
              <path id="Trazado_633773" data-name="Trazado 633773" d="M85.2,63.5h5V76.923h-5Z" transform="translate(-85.2 -63.5)" fill="#fee9b4"/>
            </g>
          </g>
        </g>
        <g id="Grupo_927023" data-name="Grupo 927023">
          <g id="Grupo_927017" data-name="Grupo 927017" transform="translate(56.06 58.1)">
            <g id="Grupo_927016" data-name="Grupo 927016">
              <path id="Trazado_633774" data-name="Trazado 633774" d="M85.2,93h21.45v13.423H85.2Z" transform="translate(-85.2 -93)" fill="#fedd8e"/>
            </g>
          </g>
          <g id="Grupo_927019" data-name="Grupo 927019" transform="translate(72.576 58.1)">
            <g id="Grupo_927018" data-name="Grupo 927018">
              <path id="Trazado_633775" data-name="Trazado 633775" d="M110.3,93h5v13.423h-5Z" transform="translate(-110.3 -93)" fill="#fdd367"/>
            </g>
          </g>
          <g id="Grupo_927021" data-name="Grupo 927021" transform="translate(56.06 58.1)">
            <g id="Grupo_927020" data-name="Grupo 927020">
              <path id="Trazado_633776" data-name="Trazado 633776" d="M85.2,93h5v13.423h-5Z" transform="translate(-85.2 -93)" fill="#fee9b4"/>
            </g>
          </g>
          <g id="Grupo_927022" data-name="Grupo 927022">
            <path id="Trazado_633777" data-name="Trazado 633777" d="M9.758,96.649H53.185a.622.622,0,0,0,.658-.658V63.158a.622.622,0,0,0-.658-.658H9.758a.622.622,0,0,0-.658.658V95.926a.721.721,0,0,0,.658.724Zm.658-32.833H52.527V95.268H10.416Z" transform="translate(-3.112 -24.469)" fill="#333"/>
            <path id="Trazado_633778" data-name="Trazado 633778" d="M93.958,11.1h-38.1a2.961,2.961,0,0,0,0,5.922h38.1a2.961,2.961,0,0,0,0-5.922Zm0,4.606h-38.1a1.645,1.645,0,0,1,0-3.29h38.1a1.645,1.645,0,0,1,0,3.29Z" transform="translate(-18.093 -6.889)" fill="#333"/>
            <path id="Trazado_633779" data-name="Trazado 633779" d="M11.161,11.1a2.961,2.961,0,1,0,2.961,2.961A2.991,2.991,0,0,0,11.161,11.1Zm0,4.606a1.645,1.645,0,1,1,1.645-1.645A1.671,1.671,0,0,1,11.161,15.706Z" transform="translate(-2.805 -6.889)" fill="#333"/>
            <path id="Trazado_633780" data-name="Trazado 633780" d="M23.561,11.1a2.961,2.961,0,1,0,2.961,2.961A2.949,2.949,0,0,0,23.561,11.1Zm0,4.606a1.645,1.645,0,1,1,1.645-1.645A1.629,1.629,0,0,1,23.561,15.706Z" transform="translate(-7.046 -6.889)" fill="#333"/>
            <path id="Trazado_633781" data-name="Trazado 633781" d="M36.061,11.1a2.961,2.961,0,1,0,2.961,2.961A2.949,2.949,0,0,0,36.061,11.1Zm0,4.606a1.645,1.645,0,1,1,1.645-1.645A1.629,1.629,0,0,1,36.061,15.706Z" transform="translate(-11.321 -6.889)" fill="#333"/>
            <path id="Trazado_633782" data-name="Trazado 633782" d="M84.222,10.424A5.729,5.729,0,0,0,78.5,4.7H5.724A5.729,5.729,0,0,0,0,10.424V77.012a5.729,5.729,0,0,0,5.724,5.724H78.5a5.729,5.729,0,0,0,5.724-5.724V10.424Zm-82.906,0A4.409,4.409,0,0,1,5.724,6.016H78.5a4.409,4.409,0,0,1,4.408,4.408v7.238H1.316Zm81.59,66.588A4.409,4.409,0,0,1,78.5,81.421H5.724a4.409,4.409,0,0,1-4.408-4.408V18.978h81.59Z" transform="translate(0 -4.7)" fill="#333"/>
            <path id="Trazado_633783" data-name="Trazado 633783" d="M11.8,48.32H78.649a2.71,2.71,0,0,0,2.7-2.7V37.4a2.71,2.71,0,0,0-2.7-2.7H11.8a2.71,2.71,0,0,0-2.7,2.7v8.291a2.7,2.7,0,0,0,2.7,2.632ZM80.031,37.4v8.291a1.39,1.39,0,0,1-1.382,1.382H23.576V36.016H78.583A1.405,1.405,0,0,1,80.031,37.4Zm-69.615,0A1.39,1.39,0,0,1,11.8,36.016H22.26V47H11.8a1.39,1.39,0,0,1-1.382-1.382Z" transform="translate(-3.112 -14.96)" fill="#333"/>
            <path id="Trazado_633784" data-name="Trazado 633784" d="M19.455,45.276l1.382,1.382a.651.651,0,0,0,.921-.921l-1.382-1.382a3.071,3.071,0,1,0-.921.921Zm-2.9-3.816a1.721,1.721,0,1,1,0,2.435A1.748,1.748,0,0,1,16.559,41.459Z" transform="translate(-5.045 -16.653)" fill="#333"/>
            <path id="Trazado_633785" data-name="Trazado 633785" d="M55.136,89.262l4.014-2.106a.68.68,0,0,0-.132-1.25L45.069,82.287a.668.668,0,0,0-.658.2.6.6,0,0,0-.132.658l4.211,13.752a.663.663,0,0,0,1.25.066l1.908-4.079,5.527,5.264a.636.636,0,0,0,.921,0l2.566-2.7a.636.636,0,0,0,0-.921Zm2.435,7.5L51.912,91.3a.658.658,0,0,0-1.053.2L49.28,94.92,45.925,83.866l11.12,2.9-3.356,1.711a.648.648,0,0,0-.132,1.053l5.724,5.461Z" transform="translate(-15.131 -31.228)" fill="#333"/>
            <path id="Trazado_633786" data-name="Trazado 633786" d="M106.374,62.5H84.858a.622.622,0,0,0-.658.658V76.581a.622.622,0,0,0,.658.658h21.45a.622.622,0,0,0,.658-.658V63.158A.6.6,0,0,0,106.374,62.5Zm-.658,13.423h-20.2V63.816H105.65V75.923Z" transform="translate(-28.798 -24.469)" fill="#333"/>
            <path id="Trazado_633787" data-name="Trazado 633787" d="M106.374,92H84.858a.622.622,0,0,0-.658.658v13.423a.622.622,0,0,0,.658.658h21.45a.622.622,0,0,0,.658-.658V92.658A.6.6,0,0,0,106.374,92Zm-.658,13.423h-20.2V93.316H105.65v12.107Z" transform="translate(-28.798 -34.558)" fill="#333"/>
          </g>
        </g>
      </g>
    </g>
  </g>
</svg>
