<svg xmlns="http://www.w3.org/2000/svg" width="129.022" height="111.699" viewBox="0 0 129.022 111.699">
  <g id="Grupo_927031" data-name="Grupo 927031" transform="translate(-218.768 -1110.728)">
    <path id="Trazado_633644" data-name="Trazado 633644" d="M308.252-224.482c0,28.432-14.28,51.481-45.709,51.481s-83.313-20.294-83.313-48.726S234.219-284.7,265.648-284.7,308.252-252.914,308.252-224.482Z" transform="translate(39.538 1395.428)" fill="#ffe6a1"/>
    <g id="turista_2_" data-name="turista(2)" transform="translate(246.39 1123.585)">
      <g id="Grupo_926893" data-name="Grupo 926893" transform="translate(1.394 1.394)">
        <g id="Grupo_926868" data-name="Grupo 926868" transform="translate(55.752 44.601)">
          <path id="Trazado_633665" data-name="Trazado 633665" d="M68.876,33V49.725H41V33H68.876Z" transform="translate(-41 -33)" fill="#e6e9ed"/>
        </g>
        <g id="Grupo_926869" data-name="Grupo 926869" transform="translate(71.864 19.513)">
          <path id="Trazado_633666" data-name="Trazado 633666" d="M64.324,15V31.725H57.438a10.036,10.036,0,0,0-4.878-2.4A85.789,85.789,0,0,0,59.919,15h4.4Z" transform="translate(-52.56 -15)" fill="#e6e9ed"/>
        </g>
        <g id="Grupo_926870" data-name="Grupo 926870" transform="translate(37.117 19.513)">
          <path id="Trazado_633667" data-name="Trazado 633667" d="M42.084,15V31.725H27.63a12.693,12.693,0,0,0,.516-3.568V26.15h1.394a4.179,4.179,0,0,0,2.955-7.136l-.028-.028A11.086,11.086,0,0,0,33.651,15Z" transform="translate(-27.63 -15)" fill="#e6e9ed"/>
        </g>
        <g id="Grupo_926871" data-name="Grupo 926871" transform="translate(29.27 44.601)">
          <path id="Trazado_633668" data-name="Trazado 633668" d="M40.119,33V49.725h-.279A13.912,13.912,0,0,0,29.317,38.868l-1.742-.4L22,37.181V33.864A1.362,1.362,0,0,1,22.307,33Z" transform="translate(-22 -33)" fill="#e6e9ed"/>
        </g>
        <g id="Grupo_926872" data-name="Grupo 926872" transform="translate(68.296 36.239)">
          <path id="Trazado_633669" data-name="Trazado 633669" d="M65.332,27v8.363H50c5.394,0,9.757-2.495,9.757-5.575A3.979,3.979,0,0,0,58.46,27Z" transform="translate(-50 -27)" fill="#b4dd7f"/>
        </g>
        <g id="Grupo_926873" data-name="Grupo 926873" transform="translate(29.576 19.513)">
          <path id="Trazado_633670" data-name="Trazado 633670" d="M29.76,31.725H44.214V15h5.8a85.789,85.789,0,0,0,7.359,14.328c-3.624.808-6.188,2.829-6.188,5.185,0,3.08,4.363,5.575,9.757,5.575H48.4V56.814H40.033V40.088H22.22a1.15,1.15,0,0,1,.46-.39l.655-.321a12.58,12.58,0,0,0,6.425-7.652Z" transform="translate(-22.22 -15)" fill="#b4dd7f"/>
        </g>
        <g id="Grupo_926874" data-name="Grupo 926874" transform="translate(58.539 33.841)">
          <path id="Trazado_633671" data-name="Trazado 633671" d="M61.217,27.677a3.979,3.979,0,0,1,1.3,2.788c0,3.08-4.363,5.575-9.757,5.575S43,33.545,43,30.465c0-2.356,2.565-4.377,6.188-5.185,1.115,1.77,2.314,3.5,3.568,5.185,1.254-1.686,2.453-3.415,3.568-5.185a10.037,10.037,0,0,1,4.878,2.4Z" transform="translate(-43 -25.28)" fill="#ccd1d9"/>
        </g>
        <g id="Grupo_926875" data-name="Grupo 926875" transform="translate(55.752)">
          <path id="Trazado_633672" data-name="Trazado 633672" d="M66.088,13.851a13.566,13.566,0,0,1-.864,4.781l-.056.112-.7,1.77a85.789,85.789,0,0,1-7.359,14.328c-1.115,1.77-2.314,3.5-3.568,5.185-1.254-1.686-2.453-3.415-3.568-5.185a85.79,85.79,0,0,1-7.359-14.328c-.237-.585-.474-1.171-.7-1.77l-.056-.112A13.566,13.566,0,0,1,41,13.851C41,6.756,46.45,1,53.182,1h.725A11.807,11.807,0,0,1,62.52,4.763a13.2,13.2,0,0,1,3.568,9.088Z" transform="translate(-41 -1)" fill="#ff826e"/>
        </g>
        <g id="Grupo_926876" data-name="Grupo 926876" transform="translate(61.327 5.575)">
          <ellipse id="Elipse_4820" data-name="Elipse 4820" cx="7" cy="6.5" rx="7" ry="6.5" transform="translate(0.279 0.446)" fill="#ffeaa7"/>
        </g>
        <g id="Grupo_926877" data-name="Grupo 926877" transform="translate(4.181 2.788)">
          <path id="Trazado_633673" data-name="Trazado 633673" d="M30.482,20.994a7.646,7.646,0,0,1-11.68-3.3l-.056-.112a3.224,3.224,0,0,0-5.882-.251l-.5,1a2.8,2.8,0,0,0-2.788,2.788v1.394H8.181A4.171,4.171,0,0,0,5.227,23.74l-.084.084A13,13,0,0,1,4,18.471a8.653,8.653,0,0,1,6.969-8.5l.571-.948A12.418,12.418,0,0,1,27.388,4.143l9.1,4.2a11.269,11.269,0,0,1,6.537,10.23,7.937,7.937,0,0,1-.07,1.157,11.086,11.086,0,0,1-1.185,3.986,4.165,4.165,0,0,0-2.927-1.2H37.451V21.287A2.957,2.957,0,0,0,32.405,19.2l-1.073,1.073a6,6,0,0,1-.85.725Z" transform="translate(-4 -3)" fill="#b27946"/>
        </g>
        <g id="Grupo_926878" data-name="Grupo 926878" transform="translate(34.845 50.065)">
          <path id="Trazado_633674" data-name="Trazado 633674" d="M38.544,50.914v7.025a4.176,4.176,0,0,0-4.181-4.181H32.969V48.182H26V36.92l1.742.4A13.912,13.912,0,0,1,38.265,48.182,13.553,13.553,0,0,1,38.544,50.914Z" transform="translate(-26 -36.92)" fill="#fcd770"/>
        </g>
        <g id="Grupo_926879" data-name="Grupo 926879" transform="translate(18.119 54.358)">
          <path id="Trazado_633675" data-name="Trazado 633675" d="M22.363,46.969H14L19.575,40l5.575,6.969Z" transform="translate(-14 -40)" fill="#fcd770"/>
        </g>
        <g id="Grupo_926880" data-name="Grupo 926880" transform="translate(0 50.065)">
          <path id="Trazado_633676" data-name="Trazado 633676" d="M5.181,53.757A4.176,4.176,0,0,0,1,57.938V50.914A13.941,13.941,0,0,1,11.8,37.324l1.742-.4V48.182H6.575v5.575Z" transform="translate(-1 -36.92)" fill="#fcd770"/>
        </g>
        <g id="Grupo_926881" data-name="Grupo 926881" transform="translate(23.694 48.783)">
          <path id="Trazado_633677" data-name="Trazado 633677" d="M23.575,36V48.544L18,41.575Z" transform="translate(-18 -36)" fill="#ffc729"/>
        </g>
        <g id="Grupo_926882" data-name="Grupo 926882" transform="translate(18.119 48.783)">
          <path id="Trazado_633678" data-name="Trazado 633678" d="M19.575,41.575,14,48.544V36Z" transform="translate(-14 -36)" fill="#ffc729"/>
        </g>
        <g id="Grupo_926883" data-name="Grupo 926883" transform="translate(29.27 48.783)">
          <path id="Trazado_633679" data-name="Trazado 633679" d="M27.575,37.282V48.544H22V36Z" transform="translate(-22 -36)" fill="#969faa"/>
        </g>
        <g id="Grupo_926884" data-name="Grupo 926884" transform="translate(12.544 48.783)">
          <path id="Trazado_633680" data-name="Trazado 633680" d="M15.575,36V48.544H10V37.282Z" transform="translate(-10 -36)" fill="#969faa"/>
        </g>
        <g id="Grupo_926885" data-name="Grupo 926885" transform="translate(26.482 61.327)">
          <path id="Trazado_633681" data-name="Trazado 633681" d="M35.332,61.725V67.3H20V45H35.332v5.575a2.8,2.8,0,0,0-2.788,2.788v5.575A2.8,2.8,0,0,0,35.332,61.725Z" transform="translate(-20 -45)" fill="#e6e9ed"/>
        </g>
        <g id="Grupo_926886" data-name="Grupo 926886" transform="translate(5.575 61.327)">
          <path id="Trazado_633682" data-name="Trazado 633682" d="M20.332,45V67.3H5V61.725a2.8,2.8,0,0,0,2.788-2.788V53.363A2.8,2.8,0,0,0,5,50.575V45H20.332Z" transform="translate(-5 -45)" fill="#e6e9ed"/>
        </g>
        <g id="Grupo_926887" data-name="Grupo 926887" transform="translate(20.907 61.327)">
          <path id="Trazado_633683" data-name="Trazado 633683" d="M16,45h5.575V67.3H16Z" transform="translate(-16 -45)" fill="#ccd1d9"/>
        </g>
        <g id="Grupo_926888" data-name="Grupo 926888" transform="translate(0 66.902)">
          <path id="Trazado_633684" data-name="Trazado 633684" d="M9.363,54.575v2.788A2.8,2.8,0,0,1,6.575,60.15H5.181A4.176,4.176,0,0,1,1,55.969V53.181A4.176,4.176,0,0,1,5.181,49H6.575a2.8,2.8,0,0,1,2.788,2.788Z" transform="translate(-1 -49)" fill="#f0d0b4"/>
        </g>
        <g id="Grupo_926889" data-name="Grupo 926889" transform="translate(39.026 66.902)">
          <path id="Trazado_633685" data-name="Trazado 633685" d="M37.363,54.575v1.394a4.176,4.176,0,0,1-4.181,4.181H31.788A2.8,2.8,0,0,1,29,57.363V51.788A2.8,2.8,0,0,1,31.788,49h1.394a4.176,4.176,0,0,1,4.181,4.181Z" transform="translate(-29 -49)" fill="#f0d0b4"/>
        </g>
        <g id="Grupo_926890" data-name="Grupo 926890" transform="translate(37.632 22.301)">
          <path id="Trazado_633686" data-name="Trazado 633686" d="M32.349,18.227a4.179,4.179,0,0,1-2.955,7.136H28V17h1.394a4.165,4.165,0,0,1,2.927,1.2l.028.028Z" transform="translate(-28 -17)" fill="#f0d0b4"/>
        </g>
        <g id="Grupo_926891" data-name="Grupo 926891" transform="translate(9.757 15.332)">
          <path id="Trazado_633687" data-name="Trazado 633687" d="M28.907,17.45a6,6,0,0,0,.85-.725l1.073-1.073a2.955,2.955,0,0,1,5.046,2.091v11.6a12.52,12.52,0,0,1-6.941,11.22l-.655.321a1.15,1.15,0,0,0-.46.39,1.362,1.362,0,0,0-.307.864v3.317l-5.575,5.575-5.575-5.575V42.134a1.4,1.4,0,0,0-.767-1.254l-.655-.321A12.555,12.555,0,0,1,8,29.339V17.575a2.8,2.8,0,0,1,2.788-2.788l.5-1a3.224,3.224,0,0,1,5.882.251l.056.112a7.646,7.646,0,0,0,11.68,3.3Z" transform="translate(-8 -12)" fill="#f0d0b4"/>
        </g>
        <g id="Grupo_926892" data-name="Grupo 926892" transform="translate(4.181 22.301)">
          <path id="Trazado_633688" data-name="Trazado 633688" d="M9.575,17v8.363H8.181A4.18,4.18,0,0,1,5.143,18.31l.084-.084A4.171,4.171,0,0,1,8.181,17Z" transform="translate(-4 -17)" fill="#f0d0b4"/>
        </g>
      </g>
      <g id="Grupo_926894" data-name="Grupo 926894" transform="translate(0)">
        <path id="Trazado_633689" data-name="Trazado 633689" d="M52.363,20.725A8.363,8.363,0,1,0,44,12.363,8.371,8.371,0,0,0,52.363,20.725Zm0-13.938a5.575,5.575,0,1,1-5.575,5.575A5.581,5.581,0,0,1,52.363,6.788Z" transform="translate(17.327 1.575)"/>
        <ellipse id="Elipse_4821" data-name="Elipse 4821" cx="1" cy="1.5" rx="1" ry="1.5" transform="translate(31 26.415)"/>
        <circle id="Elipse_4822" data-name="Elipse 4822" cx="1.5" cy="1.5" r="1.5" transform="translate(17 26.415)"/>
        <path id="Trazado_633690" data-name="Trazado 633690" d="M17.8,28.216l1.54-.771a2.788,2.788,0,0,0,1.247-3.74l-.623-1.247V20H17.176v2.788a1.4,1.4,0,0,0,.146.623l.771,1.54-1.54.771Z" transform="translate(6.518 7.876)"/>
        <path id="Trazado_633691" data-name="Trazado 633691" d="M19.705,31.379A7,7,0,0,0,25.74,27.9l-2.411-1.4a4.183,4.183,0,0,1-7.246,0L13.67,27.9A7,7,0,0,0,19.705,31.379Z" transform="translate(5.383 10.435)"/>
        <path id="Trazado_633692" data-name="Trazado 633692" d="M86.415,19.513H82.667a14.807,14.807,0,0,0,.96-5.263C83.627,6.392,77.538,0,70.055,0h-.729C61.841,0,55.752,6.392,55.752,14.25a14.941,14.941,0,0,0,.966,5.263H45.978A12.677,12.677,0,0,0,38.646,8.261l-9.1-4.2a13.708,13.708,0,0,0-5.788-1.271A13.88,13.88,0,0,0,11.913,9.493l-.261.435a10.091,10.091,0,0,0-7.471,9.723,14.416,14.416,0,0,0,.951,5.115,5.572,5.572,0,0,0,4.625,8.685h0v.612a13.859,13.859,0,0,0,7.7,12.465l.656.329v2.211l-6.236,1.438A15.266,15.266,0,0,0,0,65.445v9.819A5.581,5.581,0,0,0,5.575,80.84v5.575H44.6V80.84a5.581,5.581,0,0,0,5.575-5.575V65.445c0-.447-.02-.892-.057-1.331h36.3ZM83.627,36.239H78.646a10.764,10.764,0,0,0-3.25-1.818A89.686,89.686,0,0,0,81.558,22.3h2.07ZM55.752,61.327H50.176V44.6h-14.6a13.762,13.762,0,0,0,3.907-5.575H54.358V22.3H57.82a89.267,89.267,0,0,0,6.163,12.122c-3.353,1.221-5.444,3.454-5.444,6A5.5,5.5,0,0,0,60.727,44.6H55.752Zm-18.119,0V53.215l.032.007a12.49,12.49,0,0,1,9.724,12.224v2.231A5.518,5.518,0,0,0,44.6,66.9V61.327ZM23.221,55.855l-2.314,2.892V53.541Zm-5.1,5.472H15.332V52.572l2.788-.643Zm6.969-3.344,2.675,3.344H22.412Zm22.3-1.366a15.282,15.282,0,0,0-9.1-6.11l-6.234-1.44V47.389H47.389Zm-20.433-.762,2.314-2.314v5.206Zm5.1-3.926,2.788.643v8.756H32.057Zm8.363-26.84a2.788,2.788,0,1,1,0,5.575Zm0,8.975v-.612a5.56,5.56,0,0,0,4.552-8.774,12.666,12.666,0,0,0,.743-2.376H51.57V36.239H40.237a14.042,14.042,0,0,0,.181-2.176ZM61.327,40.42c0-1.411,1.682-2.811,4.181-3.575.98,1.5,1.995,2.973,3.064,4.407l1.118,1.5,1.118-1.5c1.068-1.434,2.084-2.907,3.062-4.407,2.5.765,4.181,2.166,4.181,3.575,0,1.978-3.434,4.181-8.363,4.181s-8.361-2.2-8.361-4.181Zm19.513,0a4.639,4.639,0,0,0-.241-1.394h3.029V44.6H78.652A5.5,5.5,0,0,0,80.84,40.42ZM69.324,2.788h.729C76,2.788,80.84,7.929,80.84,14.25a12.2,12.2,0,0,1-.825,4.4A86.37,86.37,0,0,1,69.69,38.05,86.678,86.678,0,0,1,59.32,18.53a12.02,12.02,0,0,1-.781-4.28c0-6.321,4.838-11.463,10.785-11.463ZM9.757,30.663a2.788,2.788,0,1,1,0-5.575Zm0-8.363a5.508,5.508,0,0,0-2.335.53,11.667,11.667,0,0,1-.453-3.179,7.3,7.3,0,0,1,5.848-7.133l.6-.121.881-1.469a11.079,11.079,0,0,1,9.451-5.352,10.921,10.921,0,0,1,4.619,1.016l9.1,4.2A9.793,9.793,0,0,1,42.7,22.8a5.523,5.523,0,0,0-2.284-.5H40.4a4.342,4.342,0,0,0-7.411-2.907l-1.07,1.072c-.07.07-.152.118-.224.184a6.91,6.91,0,0,1-4.632-4.121l-.684-1.713-2.588,1.034.684,1.713a9.708,9.708,0,0,0,3.88,4.654,6.17,6.17,0,0,1-.868.085,6.287,6.287,0,0,1-5.871-4.064,4.622,4.622,0,0,0-8.425-.35l-.166.333A4.187,4.187,0,0,0,9.757,22.3Zm2.789,11.762V22.3a1.4,1.4,0,0,1,1.394-1.394H14.8l.886-1.773a1.824,1.824,0,0,1,1.642-1.015,1.879,1.879,0,0,1,1.752,1.275,9.058,9.058,0,0,0,14.815,3.041l1.069-1.07a1.563,1.563,0,0,1,2.669,1.1V34.063a11.087,11.087,0,0,1-6.165,9.971l-.655.328a2.773,2.773,0,0,0-1.542,2.495V49.6l-4.181,4.181L20.907,49.6V46.856a2.773,2.773,0,0,0-1.542-2.493l-.656-.328a11.091,11.091,0,0,1-6.163-9.973Zm-.035,19.16.033-.008v8.112H5.575V66.9a5.518,5.518,0,0,0-2.788.775V65.445a12.487,12.487,0,0,1,9.723-12.222ZM2.788,75.265V72.477A2.79,2.79,0,0,1,5.575,69.69H6.969a1.4,1.4,0,0,1,1.394,1.394v1.394H5.575v2.788H8.363v1.394a1.4,1.4,0,0,1-1.394,1.394H5.575A2.79,2.79,0,0,1,2.788,75.265Zm5.575,8.363V80.583a4.176,4.176,0,0,0,2.788-3.925V71.083a4.176,4.176,0,0,0-2.788-3.925V64.114H20.907V83.627Zm15.332,0V64.114h2.788V83.627Zm5.575,0V64.114H41.814v3.044a4.176,4.176,0,0,0-2.788,3.925v5.575a4.176,4.176,0,0,0,2.788,3.925v3.044Zm18.119-8.363A2.79,2.79,0,0,1,44.6,78.052H43.208a1.4,1.4,0,0,1-1.394-1.394V75.265H44.6V72.477H41.814V71.083a1.4,1.4,0,0,1,1.394-1.394H44.6a2.79,2.79,0,0,1,2.788,2.788v2.788Zm11.15-13.938V47.389H83.627V61.327Z" transform="translate(0)"/>
      </g>
    </g>
  </g>
</svg>
