<svg id="Grupo_926644" data-name="Grupo 926644" xmlns="http://www.w3.org/2000/svg" xmlns:xlink="http://www.w3.org/1999/xlink" width="40.531" height="55.92" viewBox="0 0 40.531 55.92">
  <defs>
    <clipPath id="clip-path">
      <rect id="Rectángulo_334773" data-name="Rectángulo 334773" width="40.531" height="55.92" fill="#eb6f2d"/>
    </clipPath>
  </defs>
  <g id="Grupo_926644-2" data-name="Grupo 926644" clip-path="url(#clip-path)">
    <path id="Trazado_632700" data-name="Trazado 632700" d="M27.255,0c.237.08.476.157.712.241a4.079,4.079,0,0,1,2.7,3.963c.017,2.366,0,4.732,0,7.1v.644a3.236,3.236,0,0,1,2.852,1.28,3,3,0,0,1,.6,2c-.1,1.69-1.256,2.7-3.448,2.95,0,.568-.013,1.146,0,1.724a10.393,10.393,0,0,1-4.8,9.418c-.108.074-.245.21-.247.319a12.429,12.429,0,0,0,.037,1.906c.085.628.6.907,1.164,1.092Q31,34,35.169,35.376a7.341,7.341,0,0,1,5.355,7.378c.012,3.986,0,7.972,0,11.959a2.83,2.83,0,0,1-.035.543.816.816,0,0,1-1.58.065,3.111,3.111,0,0,1-.063-.7c0-3.932-.054-7.864.015-11.794a5.89,5.89,0,0,0-4.261-5.9c-2.136-.648-4.246-1.386-6.458-2.114a40.176,40.176,0,0,1-5.1,11.911c.685,0,1.259-.007,1.832,0a1.581,1.581,0,0,1,1.692,1.618q.05,2.975,0,5.952a1.563,1.563,0,0,1-1.682,1.618c-.491.006-.983.008-1.474,0-.571-.011-.913-.315-.91-.791a.84.84,0,0,1,.931-.847c.469-.01.937,0,1.435,0V48.416h-9.2v5.859h1.83c.637,0,1.275-.009,1.911,0a.841.841,0,0,1,.917.863c0,.469-.352.768-.93.772-1.22.007-2.439.005-3.659,0a1.6,1.6,0,0,1-1.779-1.747c-.021-.964-.005-1.929-.006-2.894,0-.91-.011-1.82,0-2.73a1.642,1.642,0,0,1,1.832-1.818c.576,0,1.152,0,1.829,0A47.53,47.53,0,0,1,12.429,34.81c-.441.138-.837.256-1.229.385-1.829.6-3.659,1.2-5.484,1.816a5.618,5.618,0,0,0-4.037,5.595c-.014,4,0,8.009,0,12.013,0,.891-.246,1.272-.827,1.292S0,55.522,0,54.651q0-5.9,0-11.795A7.36,7.36,0,0,1,5.47,35.343Q9.534,34,13.6,32.658c1.082-.358,1.265-.691,1.331-1.828a2.159,2.159,0,0,0-.983-2.1,10.019,10.019,0,0,1-4.074-7.921c-.035-.869-.005-1.741-.005-2.66A3.282,3.282,0,0,1,7.108,17,3.015,3.015,0,0,1,6.4,14.986c.026-1.714,1.117-2.708,3.452-3.088,0-.54.007-1.1,0-1.652a.9.9,0,0,1,.62-.975.47.47,0,0,0,.222-.35c.029-.4,0-.8.016-1.2.016-.365-.008-.636-.444-.8a.913.913,0,0,1-.39-.7A16.26,16.26,0,0,1,9.9,3.6,3.926,3.926,0,0,1,12.666.209c.2-.074.4-.14.607-.21ZM11.526,13.641c0,2.335-.007,4.571.006,6.806a10.711,10.711,0,0,0,.123,1.519,8.724,8.724,0,0,0,17.333-1.491c.01-2.111,0-4.221,0-6.332,0-.177-.019-.353-.03-.539a8.726,8.726,0,0,1-5.655-3,26.061,26.061,0,0,1-11.778,3.038m5.028,16.665c.188,1.87-.408,3.246-2.27,3.906a7.17,7.17,0,0,0,6.111,3.1,7.033,7.033,0,0,0,5.816-3.1c-1.823-.661-2.433-2.012-2.247-3.872a10.837,10.837,0,0,1-7.41-.035m9.114,6.945a9.184,9.184,0,0,1-10.6.155.677.677,0,0,0,.013.165,44.866,44.866,0,0,0,4.357,8.891,1.427,1.427,0,0,0,1.772-.023c.588-.94,1.185-1.877,1.722-2.845a33.979,33.979,0,0,0,2.734-6.343m5.1-23.566v2.759a1.465,1.465,0,0,0,1.691-1.455,1.4,1.4,0,0,0-1.691-1.3M9.731,16.409V13.7a1.383,1.383,0,1,0,0,2.712" transform="translate(0 0.001)" fill="#eb6f2d"/>
    <path id="Trazado_632701" data-name="Trazado 632701" d="M48.7,340.308c0,.763.007,1.526,0,2.288-.009.684-.306,1.036-.849,1.038S47,343.29,47,342.6q-.015-2.343,0-4.686c0-.669.328-1.054.844-1.055s.846.391.854,1.05c.01.8,0,1.6,0,2.4" transform="translate(-40.138 -287.722)" fill="#eb6f2d"/>
    <path id="Trazado_632702" data-name="Trazado 632702" d="M219.119,340.2c0-.763-.007-1.526,0-2.288.008-.659.337-1.05.854-1.048s.84.389.844,1.056q.014,2.343,0,4.686c0,.688-.307,1.035-.852,1.032s-.839-.354-.847-1.04c-.009-.8,0-1.6,0-2.4" transform="translate(-187.153 -287.72)" fill="#eb6f2d"/>
    <path id="Trazado_632703" data-name="Trazado 632703" d="M121.448,346.269c.673,0,1.346-.009,2.018,0,.572.01.907.305.923.783a.817.817,0,0,1-.919.851q-2.072.025-4.145,0c-.6-.008-.937-.346-.924-.846s.356-.78.973-.788c.691-.009,1.382,0,2.073,0" transform="translate(-101.13 -295.755)" fill="#eb6f2d"/>
    <path id="Trazado_632704" data-name="Trazado 632704" d="M123.1,170.875c-.733-.224-1.435-.395-2.1-.655a.833.833,0,0,1-.51-1.148.849.849,0,0,1,1.2-.38,3.152,3.152,0,0,0,2.831.006.853.853,0,0,1,1.2.362.829.829,0,0,1-.492,1.153c-.684.265-1.4.442-2.129.663" transform="translate(-102.845 -143.993)" fill="#eb6f2d"/>
    <path id="Trazado_632705" data-name="Trazado 632705" d="M102.987,113.973c0,.327.019.655,0,.979a.832.832,0,0,1-1.659.012c-.031-.67-.032-1.343,0-2.013a.811.811,0,0,1,.85-.751.838.838,0,0,1,.812.793c0,.036,0,.072,0,.109q0,.435,0,.871h-.005" transform="translate(-86.523 -95.832)" fill="#eb6f2d"/>
    <path id="Trazado_632706" data-name="Trazado 632706" d="M166.573,113.983c0,.309.017.618,0,.925a.83.83,0,0,1-.843.819.811.811,0,0,1-.826-.828c-.019-.635-.021-1.271,0-1.9a.811.811,0,0,1,.805-.795.825.825,0,0,1,.853.751c.033.341.007.689.007,1.033h.005" transform="translate(-140.833 -95.832)" fill="#eb6f2d"/>
  </g>
</svg>
