<svg xmlns="http://www.w3.org/2000/svg" width="95" height="95" viewBox="0 0 95 95">
  <g id="Grupo_926824" data-name="Grupo 926824" transform="translate(8340 7255)">
    <g id="confianza" transform="translate(-8341.375 -7245)">
      <g id="Grupo_926823" data-name="Grupo 926823" transform="translate(14.375 0)">
        <path id="Trazado_633479" data-name="Trazado 633479" d="M86.486,12.449a24.8,24.8,0,0,0-1.463-8.415A1.875,1.875,0,0,0,82.7,2.886c-1.34.437-3.026-.352-4.81-1.188A13.718,13.718,0,0,0,72.234,0a13.722,13.722,0,0,0-5.655,1.7c-1.784.835-3.47,1.625-4.81,1.188a1.875,1.875,0,0,0-2.324,1.149,24.8,24.8,0,0,0-1.463,8.414c0,.422.014.839.035,1.253A31.107,31.107,0,0,0,17.268,53.664l-2.252,2.252a2.2,2.2,0,0,0,0,3.1L31.754,75.759a2.2,2.2,0,0,0,3.1,0l3.226-3.226a31.135,31.135,0,0,0,16.465,0l3.226,3.226a2.2,2.2,0,0,0,3.1,0l6.41-6.41a1.119,1.119,0,0,0-1.583-1.583l-6.379,6.379L53.49,68.308,70.167,51.631,76,57.469l-6.6,6.6a1.119,1.119,0,0,0,1.583,1.583l6.635-6.635a2.2,2.2,0,0,0,0-3.1l-2.252-2.252a31.072,31.072,0,0,0,.147-21.882c7.1-4.525,10.974-11.3,10.974-19.333Zm-53.18,61.7L16.63,57.469l5.837-5.837L39.144,68.308Zm11.534-43.59H47.05l2.085,2.085a2.1,2.1,0,0,1-.07,3.042,2.179,2.179,0,0,1-2.977-.138l-7.4-7.4a2.107,2.107,0,0,1,0-2.975,2.085,2.085,0,0,1,1.09-.575c0,.053-.008.1-.008.158v.732A5.076,5.076,0,0,0,44.841,30.556Zm-2.831-5.07v-.732a.645.645,0,0,1,.644-.644h5.755a2.1,2.1,0,0,1,1.8,1.018l-3.19,3.19h-2.18A2.835,2.835,0,0,1,42.009,25.486Zm3.412,12.557a2.1,2.1,0,0,1-.024,3,2.113,2.113,0,0,1-2.952-.023L34.131,32.7h0a2.1,2.1,0,0,1,2.975-2.975Zm-6.046,3.07a2.1,2.1,0,0,1-.024,3,2.113,2.113,0,0,1-2.952-.023l-5.431-5.431-1.4-1.4a2.1,2.1,0,0,1,2.975-2.976h0Zm-9.991-.874,3.637,3.637a2.1,2.1,0,0,1-.024,3,2.113,2.113,0,0,1-2.952-.023L26.41,43.216a2.1,2.1,0,0,1,2.974-2.977Zm2.15,9.459a4.328,4.328,0,0,0,4.221-3.317,4.366,4.366,0,0,0,5.154-.662,4.307,4.307,0,0,0,1.231-2.237,4.378,4.378,0,0,0,1.794.384,4.339,4.339,0,0,0,4.2-5.435,4.257,4.257,0,0,0,2.442-1.1,4.342,4.342,0,0,0,.141-6.276l-1.636-1.636,3.573-3.573a2.1,2.1,0,0,1,2.978,2.973l0,0a1.119,1.119,0,0,0,1.583,1.583,2.1,2.1,0,0,1,2.978,2.973l0,0h0a1.119,1.119,0,1,0,1.583,1.583,2.1,2.1,0,1,1,2.975,2.975,1.119,1.119,0,1,0,1.583,1.583,2.1,2.1,0,0,1,3.026.053,2.165,2.165,0,0,1-.11,2.983l-8.03,8.03A1.119,1.119,0,1,0,62.8,52.172l1.959-1.958,1.832,1.832L54.71,63.923,48.287,57.5a7.8,7.8,0,0,1,2.868-.437l2.13.079a10.03,10.03,0,0,0,5.359-1.319,1.119,1.119,0,0,0-1.11-1.944A7.809,7.809,0,0,1,53.368,54.9l-2.13-.079a10.081,10.081,0,0,0-7.481,2.938l-6,6L26.253,52.251l3.122-3.122a4.36,4.36,0,0,0,2.158.569ZM46.317,71.4a28.822,28.822,0,0,1-6.385-.717l.825-.825a2.2,2.2,0,0,0,0-3.1l-1.414-1.414,6-6a7.746,7.746,0,0,1,.876-.753l6.912,6.912-1.251,1.251a2.2,2.2,0,0,0,0,3.1l.825.825a28.815,28.815,0,0,1-6.385.717ZM75.192,42.528a28.747,28.747,0,0,1-1.569,9.393l-1.9-1.9a2.2,2.2,0,0,0-3.1,0l-.445.445-1.832-1.832,4.489-4.489a4.421,4.421,0,0,0,.162-6.094,4.309,4.309,0,0,0-3.1-1.377q-.149,0-.3,0a4.339,4.339,0,0,0-4.335-4.564q-.112,0-.224.006a4.336,4.336,0,0,0-4.558-4.556,4.34,4.34,0,0,0-6.586-3.936,4.341,4.341,0,0,0-3.482-1.754H42.654a2.864,2.864,0,0,0-1.659.529,4.331,4.331,0,0,0-5.152,4.48c-.074,0-.149-.006-.224-.006a4.343,4.343,0,0,0-4.342,4.342c0,.075,0,.15.006.224a4.344,4.344,0,0,0-4.222,6.028,4.34,4.34,0,0,0-2.234,7.33l2.856,2.856L24.67,50.669l-.651-.651a2.195,2.195,0,0,0-3.1,0l-1.9,1.9A28.868,28.868,0,0,1,58.288,16.257c1.174,7.189,5.717,13.111,13.092,16.919a1.864,1.864,0,0,0,1.709,0c.156-.081.308-.164.461-.246a28.753,28.753,0,0,1,1.642,9.6ZM72.234,31.1a23.432,23.432,0,0,1-8.663-7.447,19.5,19.5,0,0,1-3.351-11.2,22.563,22.563,0,0,1,1.217-7.332c2.06.5,4.108-.462,6.092-1.391a11.918,11.918,0,0,1,4.706-1.487A11.916,11.916,0,0,1,76.94,3.725c1.984.929,4.032,1.888,6.092,1.391a22.567,22.567,0,0,1,1.216,7.332A19.5,19.5,0,0,1,80.9,23.65,23.433,23.433,0,0,1,72.234,31.1Z" transform="translate(-14.375 0)" fill="#263e1f"/>
        <path id="Trazado_633480" data-name="Trazado 633480" d="M359.319,49.75a1.119,1.119,0,0,0,.734-1.4,8.863,8.863,0,1,0-.245,5.978,1.119,1.119,0,0,0-2.074-.841,6.62,6.62,0,1,1,.183-4.468A1.12,1.12,0,0,0,359.319,49.75Z" transform="translate(-293.736 -35.849)" fill="#263e1f"/>
        <path id="Trazado_633481" data-name="Trazado 633481" d="M377.432,81.409l-3.456,3.456-2.409-2.409a1.119,1.119,0,1,0-1.583,1.583l3.2,3.2a1.119,1.119,0,0,0,1.583,0l4.247-4.247a1.119,1.119,0,1,0-1.583-1.583Z" transform="translate(-316.64 -68.982)" fill="#263e1f"/>
      </g>
    </g>
    <rect id="Rectángulo_335052" data-name="Rectángulo 335052" width="95" height="95" transform="translate(-8340 -7255)" fill="none"/>
  </g>
</svg>
