<svg id="mapa-de-viaje" xmlns="http://www.w3.org/2000/svg" width="76.897" height="76.895" viewBox="0 0 76.897 76.895">
  <path id="Trazado_632740" data-name="Trazado 632740" d="M39.207,32H20.6L2,69.207H76.414L57.811,32H44.168" transform="translate(-0.759 6.447)" fill="#3279ea"/>
  <path id="Trazado_632741" data-name="Trazado 632741" d="M64.989,49H18.48A2.48,2.48,0,0,0,16,51.48v6.2a2.48,2.48,0,0,0,2.48,2.48h52.09Z" transform="translate(2.605 10.532)" fill="#7aadf9"/>
  <path id="Trazado_632742" data-name="Trazado 632742" d="M11,46.4H50.688a2.48,2.48,0,0,0,2.48-2.48V36.48A2.48,2.48,0,0,0,50.688,34H17.2Z" transform="translate(1.403 6.928)" fill="#7aadf9"/>
  <path id="Trazado_632743" data-name="Trazado 632743" d="M46.207,51.844H66.051l-2.48-4.961H43.727L32.565,58.045,25.123,50.6l7.441-7.441V32H27.6v8.682l-6.2,6.2-6.614-6.614-2.48,4.961L22.643,55.565,9,69.207h7.441l9.922-9.922,9.922,9.922h7.441l-7.441-7.441Z" transform="translate(0.923 6.447)" fill="#61668c"/>
  <path id="Trazado_632744" data-name="Trazado 632744" d="M34.6,57.682,43.285,49H35.844l-4.961,4.961L25.922,49H18.48l2.48,2.48L16,56.441v1.24a2.48,2.48,0,0,0,2.48,2.48h1.24L24.682,55.2l4.961,4.961h7.441Z" transform="translate(2.605 10.532)" fill="#8389b2"/>
  <g id="Grupo_926683" data-name="Grupo 926683" transform="translate(13.231 40.928)">
    <path id="Trazado_632745" data-name="Trazado 632745" d="M14.147,38.667l-2.48,4.961,1.653,1.653h7.441Z" transform="translate(-11.667 -32.879)" fill="#8389b2"/>
    <path id="Trazado_632746" data-name="Trazado 632746" d="M30.162,42.682V34H25.2v6.2L19,46.4h7.441Z" transform="translate(-9.905 -34)" fill="#8389b2"/>
  </g>
  <path id="Trazado_632747" data-name="Trazado 632747" d="M54.682,59.441,49.721,52,46,55.721v3.721" transform="translate(9.812 11.252)" fill="#7bdf45"/>
  <path id="Trazado_632748" data-name="Trazado 632748" d="M10,2h4.961V39.207H10Z" transform="translate(1.163 -0.76)" fill="#8389b2"/>
  <path id="Trazado_632749" data-name="Trazado 632749" d="M10,2V35.486h1.24a1.241,1.241,0,0,0,1.24-1.24V2Z" transform="translate(1.163 -0.76)" fill="#a3a7c6"/>
  <path id="Trazado_632750" data-name="Trazado 632750" d="M24.324,13.441H2L4.48,9.721,2,6H24.324L26.8,9.721Z" transform="translate(-0.759 0.201)" fill="#ffe6a1"/>
  <path id="Trazado_632751" data-name="Trazado 632751" d="M2,6,4.48,9.721l-.827,1.24H20.6a1.241,1.241,0,0,0,1.24-1.24V6Z" transform="translate(-0.759 0.201)" fill="#fcc843"/>
  <path id="Trazado_632752" data-name="Trazado 632752" d="M40,59.682,44.961,51l4.961,8.682" transform="translate(8.37 11.012)" fill="#6bc13b"/>
  <g id="Grupo_926684" data-name="Grupo 926684" transform="translate(19.845 8.682)">
    <path id="Trazado_632753" data-name="Trazado 632753" d="M17,8h2.48v2.48H17Z" transform="translate(-17 -8)" fill="#fff"/>
  </g>
  <g id="Grupo_926685" data-name="Grupo 926685" transform="translate(14.884 8.682)">
    <path id="Trazado_632754" data-name="Trazado 632754" d="M13,8h2.48v2.48H13Z" transform="translate(-13 -8)" fill="#fff"/>
  </g>
  <path id="Trazado_632755" data-name="Trazado 632755" d="M4.48,23.441H26.8l-2.48-3.721L26.8,16H4.48L2,19.721Z" transform="translate(-0.759 2.604)" fill="#ffe6a1"/>
  <path id="Trazado_632756" data-name="Trazado 632756" d="M25.844,16l-2.48,3.721.827,1.24H7.24A1.241,1.241,0,0,1,6,19.721V16Z" transform="translate(0.202 2.604)" fill="#fcc843"/>
  <g id="Grupo_926686" data-name="Grupo 926686" transform="translate(4.962 21.084)">
    <path id="Trazado_632757" data-name="Trazado 632757" d="M5,18H7.48v2.48H5Z" transform="translate(-5 -18)" fill="#fff"/>
  </g>
  <g id="Grupo_926687" data-name="Grupo 926687" transform="translate(9.923 21.084)">
    <path id="Trazado_632758" data-name="Trazado 632758" d="M9,18h2.48v2.48H9Z" transform="translate(-9 -18)" fill="#fff"/>
  </g>
  <path id="Trazado_632759" data-name="Trazado 632759" d="M64.905,57H37v2.48H66.146Z" transform="translate(7.65 12.453)" fill="#61668c"/>
  <path id="Trazado_632760" data-name="Trazado 632760" d="M47.324,23.162A11.162,11.162,0,1,0,33.2,33.914l2.962,12.813,2.962-12.813A11.156,11.156,0,0,0,47.324,23.162Z" transform="translate(4.767 1.643)" fill="#ffb338"/>
  <path id="Trazado_632761" data-name="Trazado 632761" d="M36.162,12a11.153,11.153,0,0,0-7,19.844H39.883a1.241,1.241,0,0,0,1.24-1.24V13.175A11.086,11.086,0,0,0,36.162,12Z" transform="translate(4.767 1.643)" fill="#ffb338"/>
  <g id="Grupo_926688" data-name="Grupo 926688" transform="translate(40.929 17.363)">
    <path id="Trazado_632762" data-name="Trazado 632762" d="M41.441,22.441h-2.48A4.966,4.966,0,0,0,34,17.48V15A7.449,7.449,0,0,1,41.441,22.441Z" transform="translate(-34 -15)" fill="#559b2d"/>
  </g>
  <g id="Grupo_926689" data-name="Grupo 926689" transform="translate(43.905 26.789)">
    <path id="Trazado_632763" data-name="Trazado 632763" d="M37.89,26.569,36.4,24.584A4.977,4.977,0,0,0,37.974,22.6l2.272.992a7.478,7.478,0,0,1-2.356,2.977Z" transform="translate(-36.4 -22.6)" fill="#559b2d"/>
  </g>
  <path id="Trazado_632764" data-name="Trazado 632764" d="M19.734,36.491,1.13,73.7a1.24,1.24,0,0,0,1.11,1.795H76.655a1.24,1.24,0,0,0,1.11-1.795l-18.6-37.207a1.242,1.242,0,0,0-1.11-.686H45.782l.156-.676a12.4,12.4,0,1,0-8.019,0l.156.676H20.844A1.242,1.242,0,0,0,19.734,36.491Zm11.032,9.236V38.285h2.48v9.408l-7.078,7.078a1.239,1.239,0,0,0,0,1.754l7.441,7.441a1.24,1.24,0,0,0,1.754,0l10.8-10.8H64.726l1.24,2.48H48.129a1.235,1.235,0,0,0-.877.363l-9.922,9.922a1.239,1.239,0,0,0,0,1.754l5.324,5.324H38.721l-9.559-9.559a1.239,1.239,0,0,0-1.754,0L17.85,73.012H13.916L25.442,61.486a1.239,1.239,0,0,0,0-1.754l-9.7-9.7,1.311-2.623,5.4,5.4a1.24,1.24,0,0,0,1.755,0l6.2-6.2a1.237,1.237,0,0,0,.363-.877Zm4.448,27.285H21.357l6.928-6.928ZM14.57,52.368l8.241,8.241-12.4,12.4H4.247ZM46.162,73.012l-6.2-6.2,8.682-8.682H67.207l4.961,9.922H66.156l-4.593-6.89a1.24,1.24,0,0,0-1.909-.189L57.307,63.32l-1.9-3.326a1.29,1.29,0,0,0-2.153,0l-4.6,8.058h-3v2.48H73.408l1.24,2.48Zm10.992-4.961H51.506l2.824-4.941Zm2.856,0-1.428-2.5L60.339,63.8l2.836,4.254Zm-28-44.649a9.922,9.922,0,1,1,12.555,9.556,1.242,1.242,0,0,0-.879.917l-1.754,7.587-1.754-7.587a1.24,1.24,0,0,0-.879-.917A9.94,9.94,0,0,1,32.006,23.4Zm8.713,23.844a1.241,1.241,0,0,0,2.418,0l2.071-8.961H57.285l6.2,12.4H45.649a1.235,1.235,0,0,0-.877.363L34.487,61.336,28.8,55.649l6.565-6.565a1.237,1.237,0,0,0,.363-.877V38.285h2.921ZM28.285,38.285v6.928l-4.961,4.961-5.106-5.106,3.392-6.783Z" transform="translate(-0.999 1.402)"/>
  <path id="Trazado_632765" data-name="Trazado 632765" d="M38.961,22.441h2.48A7.449,7.449,0,0,0,34,15v2.48A4.966,4.966,0,0,1,38.961,22.441Z" transform="translate(6.929 2.363)"/>
  <path id="Trazado_632766" data-name="Trazado 632766" d="M36.4,24.584l1.49,1.984a7.464,7.464,0,0,0,2.355-2.977L37.972,22.6A4.953,4.953,0,0,1,36.4,24.584Z" transform="translate(7.505 4.189)"/>
  <path id="Trazado_632767" data-name="Trazado 632767" d="M17.123,1H12.162a1.24,1.24,0,0,0-1.24,1.24V5.961H2.24A1.239,1.239,0,0,0,1.208,7.888L3.23,10.922,1.208,13.954A1.241,1.241,0,0,0,2.24,15.883h8.682v2.48h-6.2a1.242,1.242,0,0,0-1.032.552l-2.48,3.721a1.239,1.239,0,0,0,0,1.375l2.48,3.721a1.24,1.24,0,0,0,1.032.553h6.2V39.447a1.24,1.24,0,0,0,1.24,1.24h4.961a1.24,1.24,0,0,0,1.24-1.24V28.285h8.682a1.239,1.239,0,0,0,1.032-1.927l-2.022-3.034,2.022-3.032a1.241,1.241,0,0,0-1.032-1.929H18.363v-2.48h6.2a1.242,1.242,0,0,0,1.032-.552l2.48-3.721a1.239,1.239,0,0,0,0-1.375L25.6,6.514a1.24,1.24,0,0,0-1.032-.553h-6.2V2.24A1.24,1.24,0,0,0,17.123,1ZM13.4,3.48h2.48v2.48H13.4Zm2.48,34.727H13.4V28.285h2.48Zm7.65-14.195,1.2,1.792H5.384l-1.653-2.48,1.653-2.48H24.728l-1.2,1.792A1.241,1.241,0,0,0,23.533,24.013Zm-7.65-5.649H13.4v-2.48h2.48Zm9.671-7.441L23.9,13.4H4.557l1.2-1.792a1.239,1.239,0,0,0,0-1.375l-1.2-1.793H23.9Z" transform="translate(-0.999 -1)"/>
  <path id="Trazado_632768" data-name="Trazado 632768" d="M5,18H7.48v2.48H5Z" transform="translate(-0.038 3.084)"/>
  <path id="Trazado_632769" data-name="Trazado 632769" d="M9,18h2.48v2.48H9Z" transform="translate(0.923 3.084)"/>
  <path id="Trazado_632770" data-name="Trazado 632770" d="M17,8h2.48v2.48H17Z" transform="translate(2.845 0.682)"/>
  <path id="Trazado_632771" data-name="Trazado 632771" d="M13,8h2.48v2.48H13Z" transform="translate(1.884 0.682)"/>
</svg>
