<svg xmlns="http://www.w3.org/2000/svg" width="76.273" height="76.273" viewBox="0 0 76.273 76.273">
  <g id="viaje" transform="translate(0.001 -0.5)">
    <path id="Trazado_633340" data-name="Trazado 633340" d="M198.837,8a12.1,12.1,0,0,0-12.1,12.1c0,6.684,12.1,23.045,12.1,23.045s12.1-16.361,12.1-23.045A12.1,12.1,0,0,0,198.837,8Zm0,0" transform="translate(-158.917 -6.383)" fill="#ff7956"/>
    <path id="Trazado_633341" data-name="Trazado 633341" d="M259,54.123a6.147,6.147,0,1,1-6.146-6.147A6.147,6.147,0,0,1,259,54.123Zm0,0" transform="translate(-209.958 -40.404)" fill="#ff3f62"/>
    <path id="Trazado_633342" data-name="Trazado 633342" d="M386.648,408.774V391.93h9.134a8.422,8.422,0,0,1,0,16.844Zm0,0" transform="translate(-329.049 -333.118)" fill="#ffe477"/>
    <path id="Trazado_633343" data-name="Trazado 633343" d="M22.035,29.277H15.922A8.422,8.422,0,0,0,7.5,37.7v37.18a8.422,8.422,0,0,1,8.422-8.422h6.113Zm0,0" transform="translate(-6.383 -24.491)" fill="#ffe477"/>
    <path id="Trazado_633344" data-name="Trazado 633344" d="M239,54.123a6.147,6.147,0,1,1-6.146-6.147A6.147,6.147,0,0,1,239,54.123Zm0,0" transform="translate(-192.938 -40.404)" fill="#fff"/>
    <path id="Trazado_633345" data-name="Trazado 633345" d="M231.18,54.123a6.148,6.148,0,0,1,3.912-5.728,6.147,6.147,0,1,0,0,11.456A6.148,6.148,0,0,1,231.18,54.123Zm0,0" transform="translate(-192.938 -40.404)" fill="#e0e0e2"/>
    <path id="Trazado_633346" data-name="Trazado 633346" d="M256.991,60.689V62.64L255.528,64.1h-1.734l-1.463-1.463V60.689a2.33,2.33,0,0,1,4.659,0Zm0,0" transform="translate(-214.742 -49.24)" fill="#ffdaaa"/>
    <path id="Trazado_633347" data-name="Trazado 633347" d="M246.324,99.854V97.837l-.923-.924h-7.34l-.923.924v2.017c.079.089.161.177.247.262a6.146,6.146,0,0,0,8.693,0c.086-.086.168-.173.247-.262Zm0,0" transform="translate(-201.811 -82.051)" fill="#57a4ff"/>
    <path id="Trazado_633348" data-name="Trazado 633348" d="M72.918,142.348H55.8A124.221,124.221,0,0,1,46.3,157.481a124.19,124.19,0,0,1-9.495-15.133H22.035v20.336H15.922a8.422,8.422,0,0,0,0,16.845H73.116a8.422,8.422,0,0,1,8.422,8.4V150.752a8.722,8.722,0,0,0-8.62-8.4Zm0,0" transform="translate(-6.383 -120.717)" fill="#fff5cc"/>
    <g id="Grupo_926793" data-name="Grupo 926793" transform="translate(1.117 21.631)">
      <path id="Trazado_633349" data-name="Trazado 633349" d="M452.434,391.93h-4.469a8.422,8.422,0,0,1,8.422,8.4v-7.418a8.38,8.38,0,0,0-3.952-.983Zm0,0" transform="translate(-382.348 -354.749)" fill="#ffc477"/>
      <path id="Trazado_633350" data-name="Trazado 633350" d="M285.208,157.481a124.22,124.22,0,0,0,9.494-15.133h-4.469a109.32,109.32,0,0,1-7.259,11.974C284.3,156.248,285.208,157.481,285.208,157.481Zm0,0" transform="translate(-241.935 -142.348)" fill="#ffc477"/>
      <path id="Trazado_633351" data-name="Trazado 633351" d="M105.07,142.348h4.469v20.336H105.07Zm0,0" transform="translate(-90.535 -142.348)" fill="#ffc477"/>
      <path id="Trazado_633352" data-name="Trazado 633352" d="M11.969,287.278a8.422,8.422,0,0,1,8.422-8.422H15.922a8.422,8.422,0,0,0,0,16.845h4.469a8.422,8.422,0,0,1-8.422-8.423Zm0,0" transform="translate(-7.5 -258.52)" fill="#ffc477"/>
    </g>
    <path id="Trazado_633353" data-name="Trazado 633353" d="M191.2,20.1a12.105,12.105,0,0,1,9.868-11.9,12.112,12.112,0,0,0-14.337,11.9c0,6.684,12.1,23.045,12.1,23.045s.911-1.232,2.235-3.159c-3.5-5.093-9.868-15.036-9.868-19.885Zm0,0" transform="translate(-158.917 -6.383)" fill="#ff3f62"/>
    <path id="Trazado_633354" data-name="Trazado 633354" d="M386.648,391.93h4.469v16.844h-4.469Zm0,0" transform="translate(-329.049 -333.118)" fill="#ffb655"/>
    <path id="Trazado_633355" data-name="Trazado 633355" d="M11.969,37.7a8.422,8.422,0,0,1,8.422-8.422H15.922A8.422,8.422,0,0,0,7.5,37.7v37.18a8.422,8.422,0,0,1,4.469-7.439Zm0,0" transform="translate(-6.383 -24.491)" fill="#ffb655"/>
    <path id="Trazado_633356" data-name="Trazado 633356" d="M72.57,54.277H74.8V73.343H72.57Zm0,0" transform="translate(-61.76 -45.766)"/>
    <path id="Trazado_633357" data-name="Trazado 633357" d="M231.821,52.877c.1-.1.574-.627.574-.627v-2.9l-1.578-1.578h-.686v-2.3a3.426,3.426,0,0,0-.53-1.834,5,5,0,0,1,2.086,3.592L233.911,47a7.265,7.265,0,0,0-14.454,0l2.224.225a5,5,0,0,1,2.086-3.592,3.43,3.43,0,0,0-.53,1.834v2.3h-.686l-1.578,1.578v2.9s.477.53.574.627a7.272,7.272,0,0,0,10.273,0Zm-6.349-5.919V45.47a1.212,1.212,0,0,1,2.425,0v1.489l-.808.808h-.808Zm-2.264,3.312.269-.269h6.415l.269.269v1.105a5.035,5.035,0,0,1-6.953,0Zm0,0" transform="translate(-186.765 -34.022)"/>
    <path id="Trazado_633358" data-name="Trazado 633358" d="M203.379,201h2.235v2.235h-2.235Zm0,0" transform="translate(-173.082 -170.628)"/>
    <path id="Trazado_633359" data-name="Trazado 633359" d="M186.556,30.368V32.6h1.632c2.108,3.159,3.514,5.022,4.267,6.04.67-.907,2.153-2.867,4.331-6.137v.1h2.235V30.368h-.838c3.455-5.4,7.492-12.575,7.492-16.649a13.219,13.219,0,0,0-26.439,0c0,4.075,4.036,11.251,7.491,16.649Zm5.9-27.634a11,11,0,0,1,10.985,10.985c0,4.76-7.247,15.9-10.985,21.142-3.738-5.24-10.984-16.38-10.984-21.142A11,11,0,0,1,192.454,2.734Zm0,0" transform="translate(-152.534 0)"/>
    <path id="Trazado_633360" data-name="Trazado 633360" d="M337.961,215.92a3.217,3.217,0,0,1,.679,1.492l2.2-.375a5.462,5.462,0,0,0-1.151-2.53Zm0,0" transform="translate(-287.615 -182.127)"/>
    <path id="Trazado_633361" data-name="Trazado 633361" d="M291,317.75h2.235v2.235H291Zm0,0" transform="translate(-247.647 -269.989)"/>
    <path id="Trazado_633362" data-name="Trazado 633362" d="M296.969,259.375H299.2v2.235h-2.235Zm0,0" transform="translate(-252.73 -220.31)"/>
    <path id="Trazado_633363" data-name="Trazado 633363" d="M324.552,201.8a5.463,5.463,0,0,0-2.665-.788l-.068,2.233a3.222,3.222,0,0,1,1.572.465Zm0,0" transform="translate(-273.879 -170.645)"/>
    <path id="Trazado_633364" data-name="Trazado 633364" d="M323.336,256.273a3.233,3.233,0,0,1-1.574.461l.062,2.233a5.461,5.461,0,0,0,2.666-.782Zm0,0" transform="translate(-273.829 -217.67)"/>
    <path id="Trazado_633365" data-name="Trazado 633365" d="M316,317.75h2.235v2.235H316Zm0,0" transform="translate(-268.922 -269.989)"/>
    <path id="Trazado_633366" data-name="Trazado 633366" d="M340.807,241.8l-2.2-.381a3.213,3.213,0,0,1-.683,1.491l1.728,1.416a5.455,5.455,0,0,0,1.157-2.527Zm0,0" transform="translate(-287.582 -205.029)"/>
    <path id="Trazado_633367" data-name="Trazado 633367" d="M199.139,300.347,201,299.116a3.224,3.224,0,0,1-.524-1.554l-2.229.152A5.458,5.458,0,0,0,199.139,300.347Zm0,0" transform="translate(-168.717 -252.809)"/>
    <path id="Trazado_633368" data-name="Trazado 633368" d="M215.632,314.013a3.213,3.213,0,0,1-1.517-.621l-1.346,1.784a5.464,5.464,0,0,0,2.572,1.054Zm0,0" transform="translate(-181.073 -266.28)"/>
    <path id="Trazado_633369" data-name="Trazado 633369" d="M201.671,273.072a3.242,3.242,0,0,1,.832-1.415l-1.577-1.583a5.464,5.464,0,0,0-1.406,2.4Zm0,0" transform="translate(-169.797 -229.415)"/>
    <path id="Trazado_633370" data-name="Trazado 633370" d="M271.969,259.375H274.2v2.235h-2.235Zm0,0" transform="translate(-231.454 -220.31)"/>
    <path id="Trazado_633371" data-name="Trazado 633371" d="M266,317.75h2.235v2.235H266Zm0,0" transform="translate(-226.371 -269.989)"/>
    <path id="Trazado_633372" data-name="Trazado 633372" d="M241,317.75h2.235v2.235H241Zm0,0" transform="translate(-205.095 -269.989)"/>
    <path id="Trazado_633373" data-name="Trazado 633373" d="M221.83,261.606v-2.235a5.652,5.652,0,0,0-2.65.523l.956,2.02A3.52,3.52,0,0,1,221.83,261.606Zm0,0" transform="translate(-186.529 -220.307)"/>
    <path id="Trazado_633374" data-name="Trazado 633374" d="M246.969,259.375H249.2v2.235h-2.235Zm0,0" transform="translate(-210.178 -220.31)"/>
    <path id="Trazado_633375" data-name="Trazado 633375" d="M147,172.711v2.235h4.243v-6.114h-2.235v3.879Zm0,0" transform="translate(-125.102 -143.256)"/>
    <path id="Trazado_633376" data-name="Trazado 633376" d="M121.607,225.9h5.323l1.574,1.573,1.58-1.58-2.228-2.228h-7.174l-2.229,2.228,1.58,1.58Zm0,0" transform="translate(-100.808 -189.923)"/>
    <path id="Trazado_633377" data-name="Trazado 633377" d="M382.259,276.961h-2.235v3.879h-2.009v2.235h4.243Zm0,0" transform="translate(-321.703 -235.277)"/>
    <path id="Trazado_633378" data-name="Trazado 633378" d="M351.052,327.609l-1.58,1.581,2.228,2.228h7.174l2.229-2.228-1.581-1.581-1.574,1.574h-5.323Zm0,0" transform="translate(-297.412 -278.379)"/>
    <path id="Trazado_633379" data-name="Trazado 633379" d="M76.272,48.1a9.839,9.839,0,0,0-9.737-9.473H52.723v2.235H66.535a7.568,7.568,0,0,1,7.5,7.311V79.216a9.525,9.525,0,0,0-7.3-3.414H9.539a7.305,7.305,0,0,1,0-14.61H16.77V21.778H9.539A9.55,9.55,0,0,0,0,31.317V68.5a9.55,9.55,0,0,0,9.539,9.54H66.733a7.316,7.316,0,0,1,7.3,7.286h.013l-.013.019a7.313,7.313,0,0,1-7.3,7.3H58.716V79.9H56.482V94.881H66.733a9.55,9.55,0,0,0,9.539-9.539l-.01-.019h.01c0-.073,0-37.155,0-37.228ZM2.234,31.317a7.313,7.313,0,0,1,7.3-7.3h5V58.958h-5a9.524,9.524,0,0,0-7.3,3.411Zm0,0" transform="translate(0 -18.108)"/>
    <path id="Trazado_633380" data-name="Trazado 633380" d="M125.07,134.848h8.484v2.235H125.07Zm0,0" transform="translate(-106.439 -114.334)"/>
    <path id="Trazado_633381" data-name="Trazado 633381" d="M425.726,191.7h-2.235V165.754a4.005,4.005,0,0,0-1.806-3.089l1.22-1.873a6.242,6.242,0,0,1,2.82,4.928Zm-5.079-29.5a6.464,6.464,0,0,0-1.923-.127v-2.235a8.309,8.309,0,0,1,2.516.207Zm-3.412-.127H415v-2.235h2.235Zm0,0" transform="translate(-353.177 -135.595)" fill="#fff"/>
    <path id="Trazado_633382" data-name="Trazado 633382" d="M263.6,140.821l-1.855-1.246c.808-1.2,1.579-2.389,2.294-3.529l1.894,1.187c-.728,1.161-1.513,2.368-2.333,3.589Zm3.124-4.868-1.909-1.163c.4-.651.776-1.29,1.128-1.9l1.934,1.118C267.518,134.634,267.13,135.288,266.725,135.953Zm1.9-3.257-1.955-1.083c.372-.671.719-1.323,1.031-1.937l1.992,1.013c-.325.638-.684,1.313-1.068,2.007Zm0,0" transform="translate(-222.754 -109.932)" fill="#fff"/>
  </g>
</svg>
