<svg xmlns="http://www.w3.org/2000/svg" width="95" height="95" viewBox="0 0 95 95">
  <g id="Grupo_926834" data-name="Grupo 926834" transform="translate(8340 7255)">
    <rect id="Rectángulo_335052" data-name="Rectángulo 335052" width="95" height="95" transform="translate(-8340 -7255)" fill="none"/>
    <g id="recognition" transform="translate(-8329.624 -7244.43)">
      <path id="Trazado_633529" data-name="Trazado 633529" d="M58.049,31.3l-3.434-1.145a1.16,1.16,0,0,0-.887.068l-.539-2.151a8.207,8.207,0,0,0,4.1-4.625c.043-.123.06-.253.1-.377h1.537a3.512,3.512,0,0,0,3.512-3.512V17.221a3.512,3.512,0,0,0-2.342-3.3V7.854A5.861,5.861,0,0,0,54.245,2H44.879a5.861,5.861,0,0,0-5.854,5.854v6.069a3.512,3.512,0,0,0-2.342,3.3v2.342A3.512,3.512,0,0,0,40.2,23.075h1.537c.037.124.054.254.1.377a8.207,8.207,0,0,0,4.1,4.625L45.4,30.227a1.16,1.16,0,0,0-.887-.068L41.075,31.3A10.537,10.537,0,0,0,32,41.807V68.736a3.512,3.512,0,0,0,3.512,3.512h28.1a3.512,3.512,0,0,0,3.512-3.512V41.807a10.537,10.537,0,0,0-9.075-10.5ZM60.1,19.562a1.171,1.171,0,0,1-1.171,1.171H57.758V16.05h1.171A1.171,1.171,0,0,1,60.1,17.221ZM41.367,7.854a3.512,3.512,0,0,1,3.512-3.512h9.366a3.512,3.512,0,0,1,3.512,3.512v5.854a1.171,1.171,0,0,0-.8-1.111l-3.512-1.171a1.178,1.178,0,0,0-1.02.137l-1.692,1.127V11.366a1.171,1.171,0,0,0-2-.828l-1.588,1.588a1.171,1.171,0,0,0-1.467-.7l-3.512,1.171a1.171,1.171,0,0,0-.8,1.113ZM40.2,20.733a1.171,1.171,0,0,1-1.171-1.171V17.221A1.171,1.171,0,0,1,40.2,16.05h1.171v4.683Zm3.843,1.939a5.8,5.8,0,0,1-.33-1.939V14.552l1.171-.391v.718a1.171,1.171,0,0,0,2,.828l1.514-1.514v.686a1.171,1.171,0,0,0,1.821.974l3.035-2.028,2.17.727v6.181a5.8,5.8,0,0,1-.33,1.939h0a5.854,5.854,0,0,1-11.047,0Zm5.524,6.257a8.109,8.109,0,0,0,1.4-.129l.82,3.278L49.562,34.3l-2.216-2.216.82-3.278a8.109,8.109,0,0,0,1.4.125Zm-5,3.681,4.173,4.172a1.171,1.171,0,0,0,1.656,0l4.173-4.172,1.321.441L51.3,39.466h-3.48L43.24,33.051Zm8.43,21.675-3.429,3.429-3.429-3.429,1.3-7.794h4.262ZM48.212,41.807h2.7l.391,2.342H47.821Zm-7.376-8.093,5.152,7.207L43.725,54.493a1.171,1.171,0,0,0,.327,1.021L48.734,60.2a1.171,1.171,0,0,0,1.656,0l4.683-4.683a1.171,1.171,0,0,0,.327-1.021L53.138,40.922l5.152-7.207a8.217,8.217,0,0,1,6.493,8.093V53.516H58.929a1.171,1.171,0,0,0-1.171,1.171V69.907H41.367V54.686A1.171,1.171,0,0,0,40.2,53.516H34.342V41.807a8.217,8.217,0,0,1,6.5-8.093ZM34.342,68.736V55.857h4.683v14.05H35.512A1.171,1.171,0,0,1,34.342,68.736Zm29.27,1.171H60.1V55.857h4.683V68.736A1.171,1.171,0,0,1,63.612,69.907Z" transform="translate(5.124 0.08)" fill="#263e1f"/>
      <path id="Trazado_633530" data-name="Trazado 633530" d="M51.025,18H48.683a1.171,1.171,0,0,1-2.342,0H44a3.512,3.512,0,0,0,7.025,0Z" transform="translate(7.174 2.813)" fill="#263e1f"/>
      <path id="Trazado_633531" data-name="Trazado 633531" d="M33.887,51.562c.021-.022.041-.046.06-.069a3.524,3.524,0,0,0,.789-2.858,3.611,3.611,0,0,0-3.591-2.927H18.391V39.854A5.861,5.861,0,0,0,12.537,34H10.2a1.171,1.171,0,0,0-1.171,1.171V46.155L5.236,48.05H3.171A1.171,1.171,0,0,0,2,49.221V63.27a1.171,1.171,0,0,0,1.171,1.171H5.236l4.436,2.225a1.171,1.171,0,0,0,.523.117H31.145a3.611,3.611,0,0,0,3.591-2.927A3.528,3.528,0,0,0,33.947,61c-.019-.022-.039-.046-.06-.068a3.505,3.505,0,0,0,0-4.683,3.505,3.505,0,0,0,0-4.683Zm-9.642,3.512v2.342H31.27a1.171,1.171,0,0,1,0,2.342H24.245V62.1H31.27a1.171,1.171,0,0,1,1.153,1.376,1.268,1.268,0,0,1-1.279.966H10.472L6.036,62.216a1.171,1.171,0,0,0-.523-.117H4.342V50.391H5.512a1.171,1.171,0,0,0,.523-.117l4.683-2.342a1.171,1.171,0,0,0,.647-1.054V36.342h1.171a3.512,3.512,0,0,1,3.512,3.512v7.025a1.171,1.171,0,0,0,1.171,1.171H31.145a1.268,1.268,0,0,1,1.279.966,1.171,1.171,0,0,1-1.153,1.376H24.245v2.342H31.27a1.171,1.171,0,0,1,0,2.342Z" transform="translate(0 5.546)" fill="#263e1f"/>
      <path id="Trazado_633532" data-name="Trazado 633532" d="M17.109,19.336,15.67,23.763H11.016a1.171,1.171,0,0,0-.688,2.118l3.765,2.736-1.439,4.427a1.171,1.171,0,0,0,1.8,1.309l3.766-2.736,3.766,2.736a1.171,1.171,0,0,0,1.8-1.309l-1.439-4.427,3.765-2.736a1.171,1.171,0,0,0-.688-2.118H20.775l-1.439-4.427a1.171,1.171,0,0,0-2.225,0ZM19.923,26.1h1.9l-1.538,1.118a1.171,1.171,0,0,0-.426,1.309l.585,1.809-1.538-1.118a1.171,1.171,0,0,0-1.377,0l-1.538,1.118.585-1.809a1.171,1.171,0,0,0-.426-1.309L14.618,26.1h1.9a1.171,1.171,0,0,0,1.113-.809l.585-1.809.585,1.809A1.171,1.171,0,0,0,19.923,26.1Z" transform="translate(1.34 2.904)" fill="#263e1f"/>
      <path id="Trazado_633533" data-name="Trazado 633533" d="M32.352,14.617l3.765-2.736a1.171,1.171,0,0,0-.688-2.118H30.775L29.336,5.336a1.171,1.171,0,0,0-2.225,0L25.67,9.763H21.016a1.171,1.171,0,0,0-.688,2.118l3.765,2.736-1.439,4.427a1.171,1.171,0,0,0,1.8,1.309l3.766-2.736,3.766,2.736a1.171,1.171,0,0,0,1.8-1.309Zm-2.49-.085.585,1.809-1.538-1.118a1.171,1.171,0,0,0-1.377,0l-1.538,1.118.585-1.809a1.171,1.171,0,0,0-.426-1.309L24.618,12.1h1.9a1.171,1.171,0,0,0,1.113-.809l.588-1.809.585,1.809a1.171,1.171,0,0,0,1.113.809h1.9l-1.538,1.118A1.171,1.171,0,0,0,29.861,14.532Z" transform="translate(3.048 0.512)" fill="#263e1f"/>
      <path id="Trazado_633534" data-name="Trazado 633534" d="M7.093,11.617,5.654,16.044a1.171,1.171,0,0,0,1.8,1.309l3.766-2.736,3.766,2.736a1.171,1.171,0,0,0,1.8-1.309l-1.439-4.427,3.765-2.736a1.171,1.171,0,0,0-.688-2.118H13.775L12.336,2.336a1.171,1.171,0,0,0-2.225,0L8.67,6.763H4.016a1.171,1.171,0,0,0-.688,2.118ZM9.521,9.1A1.171,1.171,0,0,0,10.637,8.3l.585-1.809L11.808,8.3a1.171,1.171,0,0,0,1.116.809h1.9l-1.538,1.118a1.171,1.171,0,0,0-.426,1.309l.585,1.809-1.538-1.118a1.171,1.171,0,0,0-1.377,0L9,13.341l.585-1.809a1.171,1.171,0,0,0-.426-1.309L7.618,9.1Z" transform="translate(0.144 0)" fill="#263e1f"/>
    </g>
  </g>
</svg>
