<svg xmlns="http://www.w3.org/2000/svg" width="92.02" height="83.132" viewBox="0 0 92.02 83.132">
  <g id="turismo" transform="translate(-2 -14.169)">
    <g id="Grupo_926755" data-name="Grupo 926755" transform="translate(64.617 14.899)">
      <path id="Trazado_633308" data-name="Trazado 633308" d="M183.834,23.359H173.479v-7.19h10.355l-4.009,3.595Z" transform="translate(-173.479 -16.169)" fill="#8852a8"/>
    </g>
    <g id="Grupo_926756" data-name="Grupo 926756" transform="translate(20.03 38.417)">
      <path id="Trazado_633309" data-name="Trazado 633309" d="M73.3,80.572,62.337,99.123,51.375,117.675H95.224L84.261,99.123Z" transform="translate(-51.375 -80.572)" fill="#7bac51"/>
    </g>
    <g id="Grupo_926757" data-name="Grupo 926757" transform="translate(20.03 38.417)">
      <path id="Trazado_633310" data-name="Trazado 633310" d="M62.337,99.123,73.3,80.572l1.919,3.248-9.043,15.3L55.214,117.675H51.375Z" transform="translate(-51.375 -80.572)" fill="#99ca6f"/>
    </g>
    <g id="Grupo_926758" data-name="Grupo 926758" transform="translate(32.777 38.417)">
      <path id="Trazado_633311" data-name="Trazado 633311" d="M95.461,80.572l9.177,15.53-6.381-3.049-2.8,4.637-2.8-4.637L86.284,96.1Z" transform="translate(-86.284 -80.572)" fill="#f4efed"/>
    </g>
    <g id="Grupo_926760" data-name="Grupo 926760" transform="translate(32.777 38.417)">
      <g id="Grupo_926759" data-name="Grupo 926759">
        <path id="Trazado_633312" data-name="Trazado 633312" d="M91.634,93.546,86.284,96.1l9.177-15.53L97.38,83.82Z" transform="translate(-86.284 -80.572)" fill="#fff"/>
      </g>
    </g>
    <g id="Grupo_926761" data-name="Grupo 926761" transform="translate(19.299 37.687)">
      <path id="Trazado_633313" data-name="Trazado 633313" d="M93.954,117.136H50.105a.73.73,0,0,1-.628-1.1L71.4,78.932a.731.731,0,0,1,1.258,0l21.924,37.1a.73.73,0,0,1-.629,1.1Zm-42.569-1.461H92.674L72.029,80.739Z" transform="translate(-49.375 -78.573)" fill="#0d0d0d"/>
    </g>
    <g id="Grupo_926762" data-name="Grupo 926762" transform="translate(32.047 37.686)">
      <path id="Trazado_633314" data-name="Trazado 633314" d="M94.192,97.151a.731.731,0,0,1-.626-.353l-2.454-4.07-5.783,2.764a.73.73,0,0,1-.944-1.03l9.177-15.53a.731.731,0,0,1,1.258,0L104,94.461a.73.73,0,0,1-.944,1.03l-5.783-2.764L94.817,96.8A.731.731,0,0,1,94.192,97.151Zm-2.8-6.1a.731.731,0,0,1,.626.353l2.171,3.6,2.171-3.6a.729.729,0,0,1,.94-.282l4.217,2.015-7.328-12.4-7.328,12.4,4.217-2.015a.725.725,0,0,1,.315-.072Z" transform="translate(-84.284 -78.572)" fill="#0d0d0d"/>
    </g>
    <g id="Grupo_926763" data-name="Grupo 926763" transform="translate(35.944 26.996)">
      <path id="Trazado_633315" data-name="Trazado 633315" d="M123.63,49.3l14.336,24.262L152.3,97.82H94.958l14.336-24.262Z" transform="translate(-94.958 -49.297)" fill="#7bac51"/>
    </g>
    <g id="Grupo_926764" data-name="Grupo 926764" transform="translate(62.106 26.996)">
      <path id="Trazado_633316" data-name="Trazado 633316" d="M183.451,73.559,169.114,49.3l-2.51,4.248L178.43,73.559,192.766,97.82h5.021Z" transform="translate(-166.604 -49.297)" fill="#5d8e33"/>
    </g>
    <g id="Grupo_926765" data-name="Grupo 926765" transform="translate(52.615 26.996)">
      <path id="Trazado_633317" data-name="Trazado 633317" d="M152.614,49.3l-12,20.311,8.345-3.988,3.657,6.065,3.657-6.065,8.345,3.988Z" transform="translate(-140.612 -49.297)" fill="#f4efed"/>
    </g>
    <g id="Grupo_926767" data-name="Grupo 926767" transform="translate(62.106 26.996)">
      <g id="Grupo_926766" data-name="Grupo 926766">
        <path id="Trazado_633318" data-name="Trazado 633318" d="M174.12,66.264l7,3.343-12-20.311-2.51,4.248Z" transform="translate(-166.604 -49.297)" fill="#d6d1cf"/>
      </g>
    </g>
    <g id="Grupo_926768" data-name="Grupo 926768" transform="translate(35.214 26.266)">
      <path id="Trazado_633319" data-name="Trazado 633319" d="M151.033,97.281H93.688a.73.73,0,0,1-.628-1.1l28.672-48.523a.731.731,0,0,1,1.258,0l28.672,48.523a.73.73,0,0,1-.629,1.1ZM94.968,95.82h54.785L122.361,49.463Z" transform="translate(-92.958 -47.297)" fill="#0d0d0d"/>
    </g>
    <g id="Grupo_926769" data-name="Grupo 926769" transform="translate(51.885 26.266)">
      <path id="Trazado_633320" data-name="Trazado 633320" d="M151.344,71.145a.731.731,0,0,1-.626-.353l-3.315-5.5L139.657,69a.73.73,0,0,1-.944-1.03l12-20.311a.731.731,0,0,1,1.258,0l12,20.311a.73.73,0,0,1-.944,1.03l-7.746-3.7-3.315,5.5A.731.731,0,0,1,151.344,71.145Zm-3.658-7.525a.731.731,0,0,1,.626.353L151.344,69l3.032-5.028a.729.729,0,0,1,.94-.282l6.181,2.954L151.344,49.463,141.191,66.646l6.181-2.954A.728.728,0,0,1,147.686,63.62Z" transform="translate(-138.612 -47.297)" fill="#0d0d0d"/>
    </g>
    <g id="Grupo_926770" data-name="Grupo 926770" transform="translate(2.73 45.575)">
      <path id="Trazado_633321" data-name="Trazado 633321" d="M8.436,120.389a4.436,4.436,0,0,0,4.436-4.436V104.611a4.436,4.436,0,0,0-8.871,0v11.342a4.436,4.436,0,0,0,4.436,4.436Z" transform="translate(-4 -100.175)" fill="#fcc24c"/>
    </g>
    <g id="Grupo_926771" data-name="Grupo 926771" transform="translate(11.602 32.715)">
      <path id="Trazado_633322" data-name="Trazado 633322" d="M33.608,79.441A5.313,5.313,0,0,1,28.3,74.128V70.27a5.314,5.314,0,0,1,10.627,0v3.858A5.313,5.313,0,0,1,33.608,79.441Z" transform="translate(-28.295 -64.957)" fill="#ff9f70"/>
    </g>
    <g id="Grupo_926772" data-name="Grupo 926772" transform="translate(11.602 32.715)">
      <path id="Trazado_633323" data-name="Trazado 633323" d="M38.922,70.27a5.314,5.314,0,0,0-10.627,0Z" transform="translate(-28.295 -64.957)" fill="#fcc24c"/>
    </g>
    <g id="Grupo_926773" data-name="Grupo 926773" transform="translate(2.73 45.575)">
      <path id="Trazado_633324" data-name="Trazado 633324" d="M6.5,115.953V104.611a4.436,4.436,0,0,1,3.184-4.254A4.43,4.43,0,0,0,4,104.611v11.342a4.43,4.43,0,0,0,5.687,4.253A4.434,4.434,0,0,1,6.5,115.953Z" transform="translate(-4 -100.175)" fill="#fce06a"/>
    </g>
    <g id="Grupo_926775" data-name="Grupo 926775" transform="translate(13.98 61.281)">
      <g id="Grupo_926774" data-name="Grupo 926774" transform="translate(0)">
        <path id="Trazado_633325" data-name="Trazado 633325" d="M40.761,178.477a2.935,2.935,0,0,1-2.935-2.935V159.475l-2.942-12.689A2.935,2.935,0,0,1,40.6,145.46l3.019,13.016a2.937,2.937,0,0,1,.076.663v16.4A2.935,2.935,0,0,1,40.761,178.477Z" transform="translate(-34.807 -143.187)" fill="#526faa"/>
      </g>
    </g>
    <g id="Grupo_926777" data-name="Grupo 926777" transform="translate(13.249 60.551)">
      <g id="Grupo_926776" data-name="Grupo 926776" transform="translate(0)">
        <path id="Trazado_633326" data-name="Trazado 633326" d="M39.49,177.939a3.67,3.67,0,0,1-3.665-3.665V158.29L32.9,145.683a3.665,3.665,0,1,1,7.141-1.656l3.019,13.016a3.681,3.681,0,0,1,.095.829v16.4A3.67,3.67,0,0,1,39.49,177.939Zm-3.02-35.29a2.213,2.213,0,0,0-.5.057,2.205,2.205,0,0,0-1.649,2.646l2.943,12.689a.738.738,0,0,1,.019.165v16.067a2.2,2.2,0,1,0,4.41,0v-16.4a2.222,2.222,0,0,0-.057-.5L38.62,144.357a2.21,2.21,0,0,0-2.149-1.707Z" transform="translate(-32.805 -141.189)" fill="#0d0d0d"/>
      </g>
    </g>
    <g id="Grupo_926778" data-name="Grupo 926778" transform="translate(4.07 47.199)">
      <path id="Trazado_633327" data-name="Trazado 633327" d="M20.514,104.623a5.314,5.314,0,0,0-5.314,5.314V126.1l-1.124,13.666L8.1,149.527a2.935,2.935,0,1,0,5.007,3.064l6.349-10.373a2.933,2.933,0,0,0,.424-1.323l1.07-14.956a7.481,7.481,0,0,0,4.877-7.013v-8.99A5.314,5.314,0,0,0,20.514,104.623Z" transform="translate(-7.669 -104.623)" fill="#526faa"/>
    </g>
    <g id="Grupo_926779" data-name="Grupo 926779" transform="translate(10.871 31.984)">
      <path id="Trazado_633328" data-name="Trazado 633328" d="M32.339,78.9A6.051,6.051,0,0,1,26.3,72.858V69a6.044,6.044,0,1,1,12.088,0v3.858A6.051,6.051,0,0,1,32.339,78.9Zm0-14.485A4.589,4.589,0,0,0,27.756,69v3.858a4.583,4.583,0,0,0,9.167,0V69A4.588,4.588,0,0,0,32.339,64.417Z" transform="translate(-26.295 -62.956)" fill="#0d0d0d"/>
    </g>
    <g id="Grupo_926780" data-name="Grupo 926780" transform="translate(3.339 46.468)">
      <path id="Trazado_633329" data-name="Trazado 633329" d="M9.33,153.455a3.666,3.666,0,0,1-3.123-5.579l5.885-9.615L13.2,124.8V108.666a6.044,6.044,0,1,1,12.088,0v8.99a8.249,8.249,0,0,1-4.911,7.519l-1.038,14.5a3.676,3.676,0,0,1-.53,1.652L12.46,151.7a3.643,3.643,0,0,1-3.129,1.753Zm9.913-49.372a4.589,4.589,0,0,0-4.583,4.583v16.162c0,.02,0,.04,0,.06l-1.124,13.666a.73.73,0,0,1-.1.321l-5.975,9.764a2.2,2.2,0,1,0,3.761,2.3l6.349-10.373a2.212,2.212,0,0,0,.318-.994l1.07-14.956a.73.73,0,0,1,.474-.632,6.779,6.779,0,0,0,4.4-6.329v-8.99a4.588,4.588,0,0,0-4.583-4.583ZM13.93,124.828h0Z" transform="translate(-5.667 -102.622)" fill="#0d0d0d"/>
    </g>
    <g id="Grupo_926781" data-name="Grupo 926781" transform="translate(2 44.844)">
      <path id="Trazado_633330" data-name="Trazado 633330" d="M7.166,119.85A5.172,5.172,0,0,1,2,114.684V103.341a5.166,5.166,0,1,1,10.332,0v11.342A5.171,5.171,0,0,1,7.166,119.85Zm0-20.214a3.709,3.709,0,0,0-3.705,3.705v11.342a3.705,3.705,0,1,0,7.41,0V103.341A3.709,3.709,0,0,0,7.166,99.636Z" transform="translate(-2 -98.175)" fill="#0d0d0d"/>
    </g>
    <g id="Grupo_926782" data-name="Grupo 926782" transform="translate(2 52.528)">
      <path id="Trazado_633331" data-name="Trazado 633331" d="M11.6,120.679H2.73a.73.73,0,0,1,0-1.461H11.6a.73.73,0,0,1,0,1.461Z" transform="translate(-2 -119.218)" fill="#0d0d0d"/>
    </g>
    <g id="Grupo_926783" data-name="Grupo 926783" transform="translate(6.275 52.528)">
      <path id="Trazado_633332" data-name="Trazado 633332" d="M14.437,133.209a.73.73,0,0,1-.73-.73v-12.53a.73.73,0,1,1,1.461,0v12.53A.73.73,0,0,1,14.437,133.209Z" transform="translate(-13.707 -119.218)" fill="#0d0d0d"/>
    </g>
    <g id="Grupo_926785" data-name="Grupo 926785" transform="translate(14.632 50.714)">
      <g id="Grupo_926784" data-name="Grupo 926784">
        <path id="Trazado_633333" data-name="Trazado 633333" d="M49.92,126.05a2.273,2.273,0,0,1-1.249-.374l-11.045-7.234a2.283,2.283,0,1,1,2.5-3.819l11.045,7.234a2.283,2.283,0,0,1-1.253,4.193Z" transform="translate(-36.594 -114.25)" fill="#ff9f70"/>
      </g>
    </g>
    <g id="Grupo_926787" data-name="Grupo 926787" transform="translate(13.901 49.983)">
      <g id="Grupo_926786" data-name="Grupo 926786">
        <path id="Trazado_633334" data-name="Trazado 633334" d="M48.649,125.509A3,3,0,0,1,47,125.016l-11.045-7.234a3.013,3.013,0,1,1,3.3-5.041L50.3,119.975a3.014,3.014,0,0,1-1.653,5.534Zm-11.04-11.8a1.563,1.563,0,0,0-.32.033,1.552,1.552,0,0,0-.534,2.818L47.8,123.794a1.552,1.552,0,1,0,1.7-2.6l-11.045-7.234a1.541,1.541,0,0,0-.848-.254Z" transform="translate(-34.592 -112.247)" fill="#010101"/>
      </g>
    </g>
    <g id="Grupo_926788" data-name="Grupo 926788" transform="translate(10.871 37.298)">
      <path id="Trazado_633335" data-name="Trazado 633335" d="M39.8,78.969H27.025a.73.73,0,1,1,0-1.461H39.8a.73.73,0,1,1,0,1.461Z" transform="translate(-26.295 -77.508)" fill="#0d0d0d"/>
    </g>
    <g id="Grupo_926789" data-name="Grupo 926789" transform="translate(27.228 61.784)">
      <path id="Trazado_633336" data-name="Trazado 633336" d="M71.818,180.083a.731.731,0,0,1-.73-.73V145.3a.73.73,0,0,1,1.461,0v34.056A.73.73,0,0,1,71.818,180.083Z" transform="translate(-71.088 -144.566)" fill="#010101"/>
    </g>
    <g id="Grupo_926790" data-name="Grupo 926790" transform="translate(63.886 16.453)">
      <path id="Trazado_633337" data-name="Trazado 633337" d="M172.209,31.7a.73.73,0,0,1-.73-.73V21.154a.73.73,0,1,1,1.461,0v9.813A.731.731,0,0,1,172.209,31.7Z" transform="translate(-171.479 -20.424)" fill="#0d0d0d"/>
    </g>
    <g id="Grupo_926791" data-name="Grupo 926791" transform="translate(63.886 14.169)">
      <path id="Trazado_633338" data-name="Trazado 633338" d="M182.564,22.82H172.209a.73.73,0,0,1-.73-.73V14.9a.73.73,0,0,1,.73-.73h10.355a.73.73,0,0,1,.487,1.274l-3.4,3.051,3.4,3.052a.73.73,0,0,1-.487,1.274Zm-9.624-1.461h7.716l-2.589-2.321a.73.73,0,0,1,0-1.087l2.589-2.321H172.94Z" transform="translate(-171.479 -14.169)" fill="#0d0d0d"/>
    </g>
    <g id="Grupo_926792" data-name="Grupo 926792" transform="translate(31.366 56.238)">
      <path id="Trazado_633339" data-name="Trazado 633339" d="M83.15,135.219a.73.73,0,0,1-.628-1.1l2.589-4.382a.73.73,0,0,1,1.257.743l-2.589,4.382A.73.73,0,0,1,83.15,135.219Z" transform="translate(-82.42 -129.377)" fill="#010101"/>
    </g>
  </g>
</svg>
