<svg id="Grupo_926801" data-name="Grupo 926801" xmlns="http://www.w3.org/2000/svg" xmlns:xlink="http://www.w3.org/1999/xlink" width="235.686" height="234.738" viewBox="0 0 235.686 234.738">
  <defs>
    <clipPath id="clip-path">
      <rect id="Rectángulo_41607" data-name="Rectángulo 41607" width="235.686" height="234.738" fill="none"/>
    </clipPath>
    <clipPath id="clip-path-2">
      <rect id="Rectángulo_41589" data-name="Rectángulo 41589" width="284.348" height="234.738" fill="none"/>
    </clipPath>
    <clipPath id="clip-path-3">
      <rect id="Rectángulo_41582" data-name="Rectángulo 41582" width="193.722" height="18.405" fill="none"/>
    </clipPath>
    <clipPath id="clip-path-4">
      <rect id="Rectángulo_41583" data-name="Rectángulo 41583" width="64.434" height="56.487" fill="none"/>
    </clipPath>
    <clipPath id="clip-path-5">
      <rect id="Rectángulo_41584" data-name="Rectángulo 41584" width="20.929" height="50.56" fill="none"/>
    </clipPath>
    <clipPath id="clip-path-6">
      <rect id="Rectángulo_41585" data-name="Rectángulo 41585" width="30.584" height="27.534" fill="none"/>
    </clipPath>
    <clipPath id="clip-path-7">
      <rect id="Rectángulo_41586" data-name="Rectángulo 41586" width="29.102" height="76.777" fill="none"/>
    </clipPath>
    <clipPath id="clip-path-8">
      <rect id="Rectángulo_41587" data-name="Rectángulo 41587" width="36.213" height="50.598" fill="none"/>
    </clipPath>
    <clipPath id="clip-path-11">
      <rect id="Rectángulo_41592" data-name="Rectángulo 41592" width="39.824" height="30.707" fill="none"/>
    </clipPath>
    <clipPath id="clip-path-12">
      <rect id="Rectángulo_41604" data-name="Rectángulo 41604" width="2.708" height="25.451" fill="none"/>
    </clipPath>
    <clipPath id="clip-path-13">
      <rect id="Rectángulo_41605" data-name="Rectángulo 41605" width="5.738" height="29.361" fill="none"/>
    </clipPath>
  </defs>
  <g id="Grupo_212475" data-name="Grupo 212475" transform="translate(0)" clip-path="url(#clip-path)">
    <g id="Grupo_212461" data-name="Grupo 212461" transform="translate(-14.599)">
      <g id="Grupo_212460" data-name="Grupo 212460" clip-path="url(#clip-path-2)">
        <path id="Trazado_149624" data-name="Trazado 149624" d="M263.371,142.375a99.6,99.6,0,1,1-99.6-99.6,99.6,99.6,0,0,1,99.6,99.6" transform="translate(-20.805 -13.867)" fill="#81d2ff"/>
        <g id="Grupo_212444" data-name="Grupo 212444" transform="translate(55.393 216.332)" style="mix-blend-mode: multiply;isolation: isolate">
          <g id="Grupo_212443" data-name="Grupo 212443">
            <g id="Grupo_212442" data-name="Grupo 212442" clip-path="url(#clip-path-3)">
              <path id="Trazado_149625" data-name="Trazado 149625" d="M109.2,321.376l-27.238,7.135,60.359,3.877-3.356,3.618,21.984.458L158.86,338.5h40.8c3.038,0,3.549-3.806,3.549-3.806h14.623l7.021-5.4,13.113,1.744,20.929-5.1,16.788,1.769L262.513,320.1Z" transform="translate(-81.963 -320.096)" fill="#d3d3d3"/>
            </g>
          </g>
        </g>
        <path id="Trazado_149626" data-name="Trazado 149626" d="M94.732,249.587v9.446c6.335,1.157,16.583,2.193,31.846,2.193h64.9V226.392c-52.556,2.118-83.337,14.888-96.748,23.195" transform="translate(-30.709 -73.388)" fill="#eec957"/>
        <path id="Trazado_149627" data-name="Trazado 149627" d="M197.486,226.391v17.422L132.13,245.8c-7.661,0-17.99-1.28-18.873-2.672,16.7-7.3,44.124-15.12,84.229-16.739" transform="translate(-36.714 -73.388)" fill="#6eb444"/>
        <path id="Trazado_149628" data-name="Trazado 149628" d="M162.837,210.115A8.834,8.834,0,0,1,178,203.358c.031-.087.057-.174.092-.26a5.32,5.32,0,0,1,9-1.4,9.7,9.7,0,1,1,13.371,12.552,13.4,13.4,0,0,1-16.942,15.5c-3.618,2.559-12.628,4.7-17.034,2.889-5.682-2.33-4.7-9.539-4.025-15.354a3.754,3.754,0,0,1-.478-.155,3.664,3.664,0,0,1,.858-7.017" transform="translate(-51.77 -63.527)" fill="#589b43"/>
        <path id="Trazado_149629" data-name="Trazado 149629" d="M186.706,219.879a7.873,7.873,0,0,1,10.215-10.7c-.005-.083-.014-.162-.014-.246a4.741,4.741,0,0,1,6.946-4.2,8.609,8.609,0,0,1,10.711-8.094v31.215a11.816,11.816,0,0,1-4.17,1.216,11.939,11.939,0,0,1-21.578-3.155,3.476,3.476,0,0,1-.446.035,3.266,3.266,0,0,1-1.665-6.076" transform="translate(-60.004 -63.66)" fill="#99ca3c"/>
        <path id="Trazado_149630" data-name="Trazado 149630" d="M123.793,242.5a6.6,6.6,0,0,1,8.569-8.974c0-.07-.011-.137-.011-.207a3.976,3.976,0,0,1,5.828-3.522,7.25,7.25,0,1,1,12.81,4.891,10.016,10.016,0,0,1-7.323,15.527,10.015,10.015,0,0,1-18.1-2.647,3.26,3.26,0,0,1-.375.029,2.739,2.739,0,0,1-1.4-5.1" transform="translate(-39.693 -72.221)" fill="#589b43"/>
        <path id="Trazado_149631" data-name="Trazado 149631" d="M129.948,207.348s-.312-.37-.829-1.051c-.266-.337-.587-.763-.956-1.288s-.814-1.1-1.269-1.786l-1.518-2.265c-.542-.832-1.1-1.755-1.708-2.726-.3-.491-.622-.991-.933-1.515s-.616-1.075-.935-1.637c-.632-1.124-1.338-2.284-2-3.541s-1.344-2.562-2.052-3.916c-.178-.339-.358-.679-.539-1.023s-.337-.7-.507-1.059q-.509-1.07-1.033-2.171t-1.063-2.23q-.269-.565-.541-1.137c-.168-.386-.334-.778-.5-1.17q-1.013-2.354-2.063-4.8c-.732-1.617-1.324-3.324-1.992-5.023-.648-1.71-1.332-3.427-1.967-5.18-.6-1.765-1.2-3.547-1.8-5.335s-1.244-3.57-1.742-5.4q-.8-2.731-1.592-5.451-.4-1.358-.795-2.711c-.252-.906-.458-1.819-.689-2.724q-.674-2.716-1.335-5.383c-.435-1.777-.9-3.522-1.228-5.272-.712-3.485-1.4-6.853-2.049-10.046-.551-3.213-1.014-6.26-1.473-9.069q-.34-2.109-.648-4.032c-.2-1.283-.307-2.507-.452-3.655-.272-2.3-.506-4.3-.7-5.949-.389-3.3-.611-5.184-.611-5.184l-.971.089s.2,1.894.562,5.2c.179,1.655.4,3.666.645,5.974.134,1.152.235,2.384.42,3.67s.4,2.64.61,4.053c.435,2.823.872,5.887,1.394,9.117.623,3.215,1.281,6.6,1.961,10.109.307,1.759.764,3.519,1.181,5.309s.858,3.6,1.291,5.424c.224.912.423,1.833.668,2.744s.513,1.823.771,2.736q.773,2.74,1.55,5.495c.487,1.846,1.12,3.645,1.7,5.455l1.763,5.387c.623,1.771,1.3,3.508,1.932,5.237.656,1.719,1.237,3.443,1.96,5.082l2.034,4.864c.167.4.331.793.5,1.183s.358.772.535,1.154q.532,1.147,1.052,2.263t1.023,2.2c.17.36.336.72.5,1.076s.355.7.533,1.039c.7,1.375,1.383,2.706,2.038,3.982s1.359,2.457,1.988,3.6q.479.857.935,1.667c.311.537.631,1.046.933,1.547.61.993,1.163,1.936,1.709,2.788s1.065,1.621,1.527,2.326.912,1.307,1.284,1.846.7.988.987,1.355c.556.743.853,1.1.853,1.1Z" transform="translate(-29.647 -30.348)" fill="#a4663c"/>
        <path id="Trazado_149632" data-name="Trazado 149632" d="M127.443,209.831l-.813-.978c-.013-.016-.324-.39-.891-1.149-.32-.415-.664-.889-1.015-1.4-.122-.176-.255-.36-.392-.553-.28-.391-.6-.835-.913-1.325l-1.523-2.317c-.362-.566-.716-1.154-1.087-1.767q-.312-.516-.643-1.056l-.31-.508c-.213-.346-.428-.7-.64-1.067l-.945-1.684c-.224-.41-.454-.816-.687-1.228-.437-.771-.887-1.571-1.323-2.417l-2.038-3.983c-.176-.341-.355-.69-.535-1.042l-3.132-6.735-2.55-6.093c-.506-1.147-.955-2.364-1.388-3.543-.193-.524-.387-1.05-.587-1.576-.229-.624-.458-1.234-.688-1.847-.416-1.114-.849-2.266-1.255-3.422l-1.772-5.413c-.149-.463-.3-.918-.449-1.375-.443-1.346-.9-2.738-1.274-4.153l-2.316-8.209c-.164-.611-.3-1.212-.446-1.811-.076-.326-.151-.65-.232-.975l-1.292-5.432c-.1-.412-.193-.816-.29-1.221-.326-1.36-.664-2.768-.908-4.165l-1.958-10.085c-.345-2.135-.646-4.145-.937-6.089q-.236-1.58-.465-3.077l-.611-4.058c-.124-.868-.21-1.692-.293-2.488-.043-.417-.086-.825-.133-1.223l-.645-5.985c-.359-3.312-.562-5.205-.562-5.205l-.139-1.3,3.512-.319,1.457,12.371c.05.4.1.818.147,1.248.087.766.177,1.558.3,2.363l.646,4.023c.161.987.323,2.006.491,3.051.307,1.932.625,3.93.98,6.005l2.042,10.005c.247,1.34.574,2.641.918,4.019.1.4.2.8.3,1.205l1.335,5.379c.078.311.157.629.235.948.141.581.284,1.164.444,1.742l2.383,8.146c.37,1.358.83,2.707,1.275,4.012q.228.671.453,1.342l1.8,5.33c.4,1.1.839,2.242,1.264,3.341q.347.9.688,1.8c.2.518.406,1.052.608,1.583.445,1.177.865,2.288,1.353,3.366l3.1,7.087,2.783,5.8,2.388,4.552c.42.8.866,1.572,1.3,2.318.232.4.462.8.681,1.189l.931,1.629c.187.315.389.638.586.954l.326.524c.224.355.447.717.664,1.067.355.572.692,1.119,1.026,1.631l1.51,2.252c.285.431.563.813.82,1.164.153.207.3.408.431.6.319.451.626.866.914,1.232.5.654.793,1,.8,1.02l.837.994Z" transform="translate(-28.969 -29.682)" fill="#a4663c"/>
        <path id="Trazado_149633" data-name="Trazado 149633" d="M83.691,82.488s2.514,9.2,1.279,15.482c-.772-1.438-3.319-3.97-4.692-4.285,2.3,2.445,4.671,5.075,4.45,10.44a13.527,13.527,0,0,0-5.36-3.935c2.47,2.469,4.887,7.318,3.857,11.507-.845-1.533-5.1-4.606-5.524-4.133,3.786,3.27,5.676,6.191,5.325,8.705s-1.154,3.819-.986,7.026c-2.134-1.8-4.406-4.332-5.007-6.449.251,2.51,4.231,7.58,4.631,9.137s-1.27,7.165-2,9.187c-4.817-4.126-6.1-8.2-5.709-12.919-.96,1.813-.286,8.362-.286,8.362s-2.86-7.836-.684-14.689c-2.572,1.939-3.351,6.254-3.351,6.254s-2.647-12.666,1.76-18.239c-1.264.175-3.23,3.484-3.23,3.484S70.1,96.769,74.916,93.995c-1.143-.691-4.8,2.067-5.428,4.015.229-2.267,3.266-6.9,6.716-9.422-.832-.38-4.156,1.6-4.742,2.268,1.079-3.916,6.841-8.415,12.229-8.368" transform="translate(-22.098 -26.74)" fill="#6eb444"/>
        <path id="Trazado_149634" data-name="Trazado 149634" d="M86.4,82.5c.073,0,.146-.01.219-.01,0,0,2.514,9.2,1.279,15.482-.772-1.437-3.319-3.97-4.692-4.285,2.3,2.444,4.671,5.075,4.45,10.44a13.509,13.509,0,0,0-5.361-3.935c2.47,2.47,4.888,7.318,3.858,11.507-.845-1.533-5.1-4.606-5.524-4.134,3.786,3.27,5.676,6.191,5.325,8.706s-1.154,3.819-.986,7.026c-2.134-1.8-4.406-4.332-5.007-6.449.251,2.51,4.231,7.579,4.631,9.137.385,1.5-1.135,6.709-1.9,8.914-2.294-5.548-6.549-17.974-5.258-29.461C78.581,95.213,83.6,86.611,86.4,82.5" transform="translate(-25.023 -26.74)" fill="#589b43"/>
        <path id="Trazado_149635" data-name="Trazado 149635" d="M68.249,79.509s-6.014-7.565-13.782-7.68c.88.654,3.526,3.235,3.526,3.235-6.475-3.65-12.685-4.786-17.674-3.892a11.735,11.735,0,0,1,2.251,2.88s-5.157-2.329-9.241-.33a9.784,9.784,0,0,1,2.653,1.264s-7.357.119-10.056,5.49a37.558,37.558,0,0,0,4.371-.891,12.958,12.958,0,0,0-8.472,9.337,28.907,28.907,0,0,1,6-3.051c-4,3.95-5.026,6.193-4.579,13.111,4.077-1.329,6.482-5.856,6.482-5.856l-1.557,6.06c2.371-3.028,6.751-9.047,6.588-14.82.378,2.974-.647,8.4-1.079,8.96A25.994,25.994,0,0,0,40.436,82.33c.487.954-1.488,6.5-1.488,6.5s5.708-3.165,7.577-7.681c-.018,2.031-1.915,6.1-1.915,6.1s7.944-3.368,9.489-6.661c-.656,2.329-3.324,5.581-3.324,5.581s14.363-2.764,17.473-6.661" transform="translate(-7.075 -22.977)" fill="#99ca3c"/>
        <path id="Trazado_149636" data-name="Trazado 149636" d="M23.972,101.955C25.264,94.59,32,82.456,44.3,80.664c10.809-1.576,19.585.488,24.373,1.506.177.206.272.324.272.324-3.11,3.9-17.473,6.661-17.473,6.661S54.141,85.9,54.8,83.573c-1.546,3.293-9.489,6.661-9.489,6.661s1.9-4.068,1.915-6.1c-1.869,4.516-7.577,7.681-7.577,7.681s1.973-5.546,1.488-6.5A26,26,0,0,1,34.374,96.31c.432-.56,1.456-5.987,1.079-8.96.163,5.772-4.218,11.791-6.588,14.82l1.557-6.06s-2.392,4.5-6.451,5.845" transform="translate(-7.771 -25.963)" fill="#69a543"/>
        <path id="Trazado_149637" data-name="Trazado 149637" d="M70.1,71.236s1.627-9.723-4.254-13.818a22.752,22.752,0,0,1,.877,4.456s-1.533-7.362-5.588-9.974a18.31,18.31,0,0,1,.059,3.361,5.78,5.78,0,0,0-2.565-5.046C54.2,47.736,50.021,46,47.916,45.884a18.8,18.8,0,0,1,.987,4.3s-2.618-5.363-7.454-5.227a9.929,9.929,0,0,1,2.194,2.359,12.633,12.633,0,0,0-10.111-1.681c.546.518,2.643,1.963,2.643,1.963-4.461-.978-7.851,1.119-9.789,8.006,7.283-.221,9.719-1.825,9.719-1.825s-2.23,3.933-3.779,4.245c2.194.131,8.036-1.171,10.394-3.494a17.192,17.192,0,0,1-3.1,3.456s6.026,2.172,9.321.423a5.1,5.1,0,0,1-2.563,2.826s8.5,2.427,11,1.01a9.247,9.247,0,0,1-5.294,1.823s9.072,4.451,11.736,3.545c-1.839.936-5.347.815-5.347.815s9.316,3.5,11.623,2.807" transform="translate(-8.554 -14.574)" fill="#99ca3c"/>
        <path id="Trazado_149638" data-name="Trazado 149638" d="M63.83,70.465c-2.665.906-11.737-3.545-11.737-3.545A9.249,9.249,0,0,0,57.388,65.1c-2.5,1.417-11-1.01-11-1.01a5.1,5.1,0,0,0,2.563-2.827c-3.3,1.75-9.322-.423-9.322-.423a17.15,17.15,0,0,0,3.1-3.456c-2.359,2.324-8.2,3.625-10.4,3.494,1.55-.312,3.779-4.244,3.779-4.244s-2.433,1.6-9.7,1.825c3.021-2.734,10.669-7.124,23.36-3.043A32.852,32.852,0,0,1,70.13,73.931c-.016.1-.024.156-.024.156C67.8,74.78,58.484,71.28,58.484,71.28s3.508.121,5.347-.816" transform="translate(-8.562 -17.425)" fill="#6eb444"/>
        <path id="Trazado_149639" data-name="Trazado 149639" d="M90.456,83.157s-.583,9.516,1.907,15.416c.462-1.563,2.44-4.562,3.72-5.153-1.75,2.865-3.535,5.924-2.226,11.132A13.489,13.489,0,0,1,98.3,99.606c-1.915,2.92-3.289,8.159-1.425,12.051.514-1.674,4.053-5.551,4.561-5.176C98.4,110.458,97.144,113.7,98,116.092s1.909,3.5,2.4,6.677c1.723-2.2,3.43-5.14,3.587-7.336.265,2.51-2.594,8.282-2.669,9.891s2.7,6.754,3.829,8.584c3.873-5.022,4.3-9.27,2.949-13.811,1.312,1.576,1.99,8.128,1.99,8.128s1.2-8.257-2.33-14.52c2.912,1.373,4.557,5.436,4.557,5.436s.005-12.94-5.447-17.494c1.273-.086,3.873,2.749,3.873,2.749s-4.069-10.032-9.344-11.766c.976-.909,5.121,1.045,6.133,2.822-.688-2.172-4.605-6.085-8.5-7.852.736-.543,4.394.715,5.1,1.254-1.856-3.614-8.414-6.842-13.679-5.7" transform="translate(-29.303 -26.881)" fill="#6eb444"/>
        <path id="Trazado_149640" data-name="Trazado 149640" d="M90.672,83.219c-.072.015-.146.02-.216.035,0,0-.583,9.515,1.907,15.416.462-1.563,2.44-4.561,3.72-5.153-1.75,2.865-3.535,5.923-2.225,11.132A13.49,13.49,0,0,1,98.3,99.7c-1.915,2.92-3.289,8.159-1.425,12.05.514-1.673,4.054-5.551,4.561-5.176C98.4,110.555,97.144,113.8,98,116.189s1.909,3.5,2.4,6.677c1.723-2.2,3.43-5.14,3.586-7.336.265,2.509-2.594,8.282-2.668,9.89-.072,1.544,2.482,6.334,3.681,8.338,1.112-5.9,2.741-18.933-.868-29.917-3.212-9.77-9.879-17.166-13.459-20.622" transform="translate(-29.303 -26.977)" fill="#589b43"/>
        <path id="Trazado_149641" data-name="Trazado 149641" d="M91.191,81.746s3.81-5.463,12.984-4.338a9.922,9.922,0,0,0-4.188,1.875c5.367-1.508,10.505-1.583,13.166.251-1.837-.317-4.542,1.35-4.542,1.35,2.851-.743,7.17-.9,9.537,1.556s4.865,4.859,6.594,4.75c-.476.358-4.338.448-5.463.985a9.124,9.124,0,0,1,9.558,6.6,16.284,16.284,0,0,0-2.832-1.077s3.5,1.394,4.444,8.874a37.337,37.337,0,0,0-2.276-3.23c1.725,3.637.531,10.419.43,11.5a118.824,118.824,0,0,1-6.977-13.407,23.438,23.438,0,0,0,1.222,6.122s-4.767-6.663-6.039-11.374c-.249,1.836,1.036,6.191,1.036,6.191s-5.088-5.035-6.422-10.3c-.368,1.5.606,4.992,1.565,6.883-.987-.414-7.7-4.914-8.946-8.584.155,1.41,2.736,6.067,2.736,6.067-2.857-1.347-7.415-5.782-8.477-7.913.229,1.662,3.024,5.755,3.024,5.755s-8.472-4.615-10.135-8.529" transform="translate(-29.561 -25.044)" fill="#6eb444"/>
        <path id="Trazado_149642" data-name="Trazado 149642" d="M117.929,89.819c-10.1-8.065-22.968-6.676-26.688-6.057,1.731,3.9,10.1,8.461,10.1,8.461s-2.8-4.093-3.024-5.755c1.062,2.13,5.62,6.566,8.477,7.912,0,0-2.58-4.657-2.736-6.066,1.247,3.67,7.959,8.171,8.946,8.584-.959-1.89-1.933-5.38-1.565-6.883,1.333,5.269,6.421,10.3,6.421,10.3s-1.285-4.355-1.036-6.19c1.273,4.71,6.039,11.374,6.039,11.374a23.438,23.438,0,0,1-1.222-6.123,119.046,119.046,0,0,0,6.96,13.378c-.177-5.576-1.322-15.473-10.674-22.939" transform="translate(-29.577 -26.992)" fill="#589b43"/>
        <path id="Trazado_149643" data-name="Trazado 149643" d="M91.327,77.628S95.672,69,103.252,67.3c-.729.821-2.794,3.89-2.794,3.89,5.6-4.9,11.442-7.275,16.509-7.419a11.686,11.686,0,0,0-1.615,3.277s4.573-3.333,8.978-2.21a9.791,9.791,0,0,0-2.34,1.78s7.227-1.385,10.966,3.32a37.278,37.278,0,0,1-4.461.02,12.967,12.967,0,0,1,10.2,7.411,29.1,29.1,0,0,0-6.5-1.763c4.725,3.052,6.185,5.04,7.16,11.9-4.263-.471-7.54-4.41-7.54-4.41l2.761,5.616c-2.939-2.482-8.455-7.479-9.474-13.166.235,2.988,2.349,8.09,2.884,8.549a25.968,25.968,0,0,1-8.86-9.381c-.28,1.033,2.782,6.06,2.782,6.06s-6.234-1.933-8.985-5.971c.433,1.984,3.12,5.579,3.12,5.579S107.584,78.706,105.4,75.8c1.117,2.143,4.392,4.784,4.392,4.784s-14.623.226-18.465-2.956" transform="translate(-29.605 -20.671)" fill="#99ca3c"/>
        <path id="Trazado_149644" data-name="Trazado 149644" d="M139.328,90.86c-2.772-6.948-11.843-17.45-24.248-16.693-10.9.662-19.074,4.476-23.553,6.447-.135.239-.2.372-.2.372,3.843,3.182,18.465,2.955,18.465,2.955s-3.274-2.64-4.392-4.783c2.184,2.905,10.648,4.581,10.648,4.581s-2.688-3.595-3.121-5.578c2.751,4.037,8.985,5.971,8.985,5.971s-3.062-5.027-2.782-6.06a25.972,25.972,0,0,0,8.86,9.38c-.535-.458-2.649-5.561-2.884-8.549,1.018,5.688,6.535,10.684,9.473,13.166l-2.76-5.616s3.26,3.92,7.508,4.406" transform="translate(-29.605 -24.03)" fill="#69a543"/>
        <path id="Trazado_149645" data-name="Trazado 149645" d="M90.229,68.974s-3.578-9.183,1.344-14.4a22.7,22.7,0,0,0,.049,4.544s0-7.519,3.436-10.905a18.194,18.194,0,0,0,.627,3.3,5.778,5.778,0,0,1,1.481-5.464c3.829-3.331,7.566-5.882,9.6-6.427a18.77,18.77,0,0,0-.089,4.413s1.468-5.784,6.229-6.639a9.974,9.974,0,0,0-1.667,2.759,12.641,12.641,0,0,1,9.556-3.712c-.428.619-2.188,2.461-2.188,2.461,4.169-1.868,7.914-.507,11.219,5.841-7.176,1.27-9.889.2-9.889.2s2.989,3.394,4.569,3.385c-2.121.575-8.106.491-10.891-1.3a17.106,17.106,0,0,0,3.739,2.751s-5.457,3.358-9.04,2.317a5.116,5.116,0,0,0,3.087,2.244s-7.825,4.108-10.562,3.233a9.248,9.248,0,0,0,5.556.7s-7.972,6.208-10.766,5.863c1.991.545,5.4-.291,5.4-.291s-8.4,5.329-10.805,5.12" transform="translate(-28.842 -11.813)" fill="#99ca3c"/>
        <path id="Trazado_149646" data-name="Trazado 149646" d="M96.209,67c2.795.345,10.766-5.863,10.766-5.863a9.243,9.243,0,0,1-5.555-.7c2.736.877,10.561-3.232,10.561-3.232a5.114,5.114,0,0,1-3.087-2.244c3.583,1.041,9.04-2.316,9.04-2.316A17.1,17.1,0,0,1,114.2,49.89c2.784,1.791,8.77,1.875,10.89,1.3-1.58.009-4.569-3.386-4.569-3.386s2.71,1.072,9.871-.193c-3.515-2.059-11.9-4.8-23.487,1.788A32.841,32.841,0,0,0,90.75,71.684c.034.093.055.147.055.147,2.4.209,10.805-5.121,10.805-5.121s-3.41.836-5.4.292" transform="translate(-29.418 -14.67)" fill="#6eb444"/>
        <path id="Trazado_149647" data-name="Trazado 149647" d="M79.547,61.244s4.262-18.108,2.691-25.357a29.174,29.174,0,0,1-2.455,5.359s2.538-10.921-2.6-16.019c.494,3.917-1.692,5.2-1.692,5.2s1.189-7.419-4.212-11.482a13.266,13.266,0,0,1,.662,4.749s-1.633-6.332-6.526-8.343a6.308,6.308,0,0,1,.4,2.829s-5.422-3.931-10.3-2.228c4.231,3.909,7.693,6.651,9.8,7.741a26.446,26.446,0,0,1-6.431-.5s7.469,7.282,11.266,9.537a14.254,14.254,0,0,1-4.7-1.054s5.082,6.814,7.5,8.48a23.914,23.914,0,0,1-5.008-2.492s3.491,6.922,6.2,9.291a11.536,11.536,0,0,1-3.931-2.369s6.788,14.045,9.341,16.658" transform="translate(-17.995 -4.977)" fill="#99ca3c"/>
        <path id="Trazado_149648" data-name="Trazado 149648" d="M79.565,61.55c-2.553-2.613-9.341-16.658-9.341-16.658a11.535,11.535,0,0,0,3.931,2.369c-2.7-2.369-6.2-9.291-6.2-9.291a23.914,23.914,0,0,0,5.008,2.492c-2.421-1.666-7.5-8.48-7.5-8.48a14.254,14.254,0,0,0,4.7,1.054C66.365,30.78,58.9,23.5,58.9,23.5a26.446,26.446,0,0,0,6.431.5c-2.1-1.088-5.545-3.814-9.759-7.706,19.993,4.222,23.515,35.2,24.125,44.7-.08.355-.127.559-.127.559" transform="translate(-18.013 -5.282)" fill="#6eb444"/>
        <path id="Trazado_149649" data-name="Trazado 149649" d="M74.14,82s-4.846-4.572-13.6-1.6a9.935,9.935,0,0,1,4.483.982c-5.561-.381-10.607.591-12.837,2.932,1.734-.687,4.722.4,4.722.4-2.943-.149-7.2.582-9.022,3.466s-3.768,5.752-5.484,6c.54.252,4.337-.448,5.549-.153a9.123,9.123,0,0,0-8.011,8.408A16.366,16.366,0,0,1,42.5,100.8s-3.145,2.079-2.54,9.593a36.945,36.945,0,0,1,1.57-3.628c-.946,3.914,1.606,10.307,1.925,11.346a118.747,118.747,0,0,0,4.1-14.548,23.546,23.546,0,0,1,.053,6.243s3.3-7.5,3.589-12.366c.619,1.742.25,6.268.25,6.268s3.954-5.969,4.185-11.4c.666,1.4.424,5.012-.127,7.056.88-.607,6.533-6.382,7.006-10.229.132,1.413-1.442,6.5-1.442,6.5,2.52-1.9,6.076-7.174,6.683-9.475.114,1.671-1.788,6.248-1.788,6.248S73.312,86.173,74.14,82" transform="translate(-12.927 -25.738)" fill="#6eb444"/>
        <path id="Trazado_149650" data-name="Trazado 149650" d="M50.647,94.735C58.89,84.776,71.77,83.51,75.538,83.357c-.9,4.173-8.163,10.344-8.163,10.344s1.9-4.577,1.788-6.248c-.607,2.3-4.163,7.575-6.683,9.475,0,0,1.574-5.085,1.442-6.5-.474,3.847-6.126,9.622-7.006,10.228.551-2.044.793-5.659.127-7.056-.23,5.427-4.185,11.4-4.185,11.4s.369-4.526-.25-6.268c-.285,4.866-3.589,12.365-3.589,12.365a23.54,23.54,0,0,0-.053-6.243,118.368,118.368,0,0,1-4.085,14.516c-.965-5.493-1.861-15.416,5.767-24.634" transform="translate(-14.345 -27.021)" fill="#589b43"/>
        <path id="Trazado_149651" data-name="Trazado 149651" d="M179.317,205.558s-.12-.262-.31-.735c-.1-.235-.215-.529-.345-.89s-.292-.76-.443-1.225-.325-.98-.512-1.539-.35-1.18-.547-1.834c-.094-.328-.2-.666-.294-1.017s-.183-.714-.277-1.086c-.185-.745-.4-1.522-.583-2.347s-.364-1.681-.557-2.571c-.049-.223-.1-.446-.146-.672s-.082-.457-.123-.687q-.123-.7-.249-1.409t-.255-1.448c-.043-.243-.087-.489-.13-.737s-.068-.5-.1-.752q-.206-1.509-.422-3.079c-.163-1.044-.232-2.115-.345-3.2s-.222-2.176-.308-3.282c-.062-1.107-.124-2.224-.187-3.345s-.147-2.244-.143-3.372q-.024-1.692-.05-3.377-.013-.843-.024-1.681c0-.558.024-1.115.036-1.671q.045-1.666.088-3.3c.032-1.087.039-2.163.132-3.217.143-2.111.285-4.151.416-6.086.195-1.929.412-3.75.593-5.434.093-.841.183-1.648.268-2.414s.222-1.487.32-2.168c.209-1.36.391-2.547.541-3.522l.471-3.07-.57-.1s-.184,1.119-.5,3.074c-.16.978-.355,2.165-.578,3.528-.105.682-.244,1.4-.341,2.171s-.191,1.577-.292,2.421c-.2,1.688-.434,3.514-.647,5.449-.152,1.942-.312,3.989-.478,6.108-.1,1.058-.12,2.139-.163,3.232s-.079,2.2-.121,3.314c-.016.558-.047,1.118-.052,1.679s.006,1.127.009,1.692q.008,1.694.018,3.4c-.015,1.135.064,2.268.111,3.4s.1,2.253.157,3.37c.076,1.112.187,2.217.278,3.309s.164,2.17.318,3.224q.2,1.585.4,3.112c.033.253.064.507.1.758s.082.5.124.746c.082.493.164.983.245,1.463s.16.957.237,1.425c.041.233.079.466.119.7s.093.456.141.681c.185.9.364,1.771.536,2.607s.391,1.624.57,2.381q.139.568.271,1.1c.093.357.2.7.29,1.035.193.666.36,1.294.537,1.871s.355,1.1.508,1.574.316.895.444,1.262.246.679.35.935c.2.513.316.765.316.765Z" transform="translate(-55.784 -43.532)" fill="#a4663c"/>
        <path id="Trazado_149652" data-name="Trazado 149652" d="M177.4,206.647l-.311-.69c0-.011-.124-.275-.33-.8-.118-.288-.239-.616-.36-.961q-.065-.181-.138-.38c-.1-.269-.21-.572-.314-.9l-.506-1.571c-.118-.381-.229-.775-.345-1.186-.065-.229-.13-.466-.2-.706l-.1-.34c-.066-.233-.134-.47-.2-.714l-.274-1.115c-.064-.272-.132-.539-.2-.814-.128-.512-.261-1.042-.375-1.595l-.537-2.607c-.047-.224-.1-.453-.141-.684l-.729-4.358-.5-3.9c-.108-.739-.172-1.507-.235-2.251q-.04-.5-.087-1c-.033-.394-.067-.781-.1-1.169-.062-.7-.127-1.433-.178-2.161l-.158-3.385c-.011-.289-.026-.574-.039-.859-.041-.842-.083-1.713-.073-2.584l-.026-5.074c0-.376.017-.743.032-1.109.007-.2.015-.4.02-.6l.12-3.32c.011-.251.018-.5.027-.746.029-.831.058-1.692.14-2.532l.476-6.094c.141-1.279.287-2.479.428-3.64q.115-.944.221-1.838l.293-2.424c.066-.518.147-1,.226-1.473q.064-.369.119-.723l.577-3.535c.319-1.955.5-3.074.5-3.074l.125-.765,2.066.374-1.126,7.325c-.035.237-.074.485-.115.739-.07.453-.145.921-.2,1.4l-.267,2.409c-.065.591-.132,1.2-.2,1.827-.13,1.157-.264,2.353-.389,3.6l-.415,6.062c-.071.807-.09,1.605-.111,2.449-.007.245-.013.492-.019.739l-.088,3.3c0,.19-.01.385-.016.58-.011.355-.022.712-.022,1.069l.076,5.05c0,.837.046,1.683.093,2.5q.026.421.048.841l.187,3.341c.055.7.127,1.417.2,2.116.038.381.076.76.111,1.138.034.33.066.668.1,1,.07.745.134,1.45.243,2.145l.652,4.554.677,3.767.647,2.989c.115.526.248,1.04.376,1.535.07.269.139.532.2.791l.275,1.081c.057.21.123.427.185.64l.1.352c.072.241.142.482.212.718.112.384.22.751.329,1.1l.509,1.53c.1.292.195.555.286.8.055.143.106.28.153.412.112.31.221.6.328.851.182.453.3.7.3.713l.324.7Z" transform="translate(-55.418 -43.106)" fill="#a4663c"/>
        <path id="Trazado_149653" data-name="Trazado 149653" d="M171.5,127.666s-.016,5.672-1.721,9.081a6.611,6.611,0,0,0-2.011-3.2c.931,1.766,1.874,3.651.9,6.692a8.042,8.042,0,0,0-2.451-3.107c1.026,1.809,1.643,4.971.388,7.21-.241-1.012-2.2-3.451-2.512-3.245,1.654,2.476,2.273,4.45,1.673,5.837s-1.267,2.007-1.678,3.873a9.527,9.527,0,0,1-1.849-4.492c-.253,1.479,1.225,5.017,1.208,5.974s-1.865,3.907-2.6,4.951c-2.109-3.13-2.2-5.668-1.225-8.313-.839.887-1.49,4.75-1.49,4.75s-.4-4.947,1.936-8.532a6.868,6.868,0,0,0-2.913,3.055s.489-7.683,3.9-10.18c-.753-.1-2.4,1.486-2.4,1.486s2.8-5.8,6-6.631c-.546-.578-3.08.424-3.749,1.442.491-1.265,2.967-3.438,5.345-4.339-.416-.35-2.636.256-3.08.549,1.242-2.075,5.258-3.741,8.34-2.859" transform="translate(-50.942 -41.307)" fill="#6eb444"/>
        <path id="Trazado_149654" data-name="Trazado 149654" d="M173.023,127.739c.043.01.086.017.128.029,0,0-.016,5.672-1.721,9.081a6.611,6.611,0,0,0-2.011-3.2c.93,1.766,1.874,3.651.9,6.692a8.042,8.042,0,0,0-2.451-3.107c1.026,1.809,1.643,4.971.388,7.21-.241-1.012-2.2-3.451-2.512-3.245,1.654,2.476,2.273,4.45,1.673,5.837s-1.267,2.007-1.678,3.873a9.527,9.527,0,0,1-1.849-4.492c-.253,1.479,1.224,5.017,1.208,5.974-.018.92-1.715,3.667-2.5,4.811-.435-3.545-.906-11.345,1.655-17.728a31.675,31.675,0,0,1,8.778-11.733" transform="translate(-52.595 -41.408)" fill="#589b43"/>
        <path id="Trazado_149655" data-name="Trazado 149655" d="M163.983,123.931s-2.249-5.291-6.685-6.589c.4.515,1.509,2.413,1.509,2.413-3.135-3.12-6.515-4.755-9.518-5.033a6.98,6.98,0,0,1,.834,2.009s-2.588-2.153-5.247-1.654a5.825,5.825,0,0,1,1.321,1.145s-4.239-1.1-6.637,1.554a22.191,22.191,0,0,0,2.647.182,7.709,7.709,0,0,0-6.338,4.011,17.193,17.193,0,0,1,3.924-.8c-2.923,1.631-3.864,2.755-4.7,6.792a7.928,7.928,0,0,0,4.645-2.33l-1.853,3.228c1.84-1.361,5.305-4.118,6.127-7.454a14.4,14.4,0,0,1-2.039,4.967,15.46,15.46,0,0,0,5.618-5.233c.128.624-1.883,3.492-1.883,3.492s3.774-.91,5.563-3.2a13.037,13.037,0,0,1-2.066,3.194s5.09-.672,6.5-2.315a12.457,12.457,0,0,1-2.791,2.674s8.674.691,11.076-1.05" transform="translate(-43.791 -37.189)" fill="#99ca3c"/>
        <path id="Trazado_149656" data-name="Trazado 149656" d="M135.118,129.956c1.908-4.019,7.7-9.909,15.031-8.987a39.022,39.022,0,0,1,13.738,4.727c.069.147.1.229.1.229-2.4,1.742-11.076,1.05-11.076,1.05a12.427,12.427,0,0,0,2.791-2.674c-1.408,1.643-6.5,2.315-6.5,2.315a13.051,13.051,0,0,0,2.066-3.194c-1.789,2.293-5.563,3.2-5.563,3.2s2.011-2.868,1.883-3.492a15.459,15.459,0,0,1-5.617,5.233,14.392,14.392,0,0,0,2.039-4.967c-.822,3.336-4.288,6.093-6.128,7.454l1.853-3.228a7.941,7.941,0,0,1-4.625,2.33" transform="translate(-43.801 -39.183)" fill="#69a543"/>
        <path id="Trazado_149657" data-name="Trazado 149657" d="M167.29,118.725s2.474-5.317-.249-8.6a13.562,13.562,0,0,1-.2,2.695s.288-4.465-1.623-6.606a10.844,10.844,0,0,1-.5,1.936,3.438,3.438,0,0,0-.671-3.3c-2.147-2.123-4.267-3.78-5.457-4.181a11.126,11.126,0,0,1-.116,2.624s-.651-3.491-3.445-4.179a5.906,5.906,0,0,1,.884,1.7,7.514,7.514,0,0,0-5.531-2.567c.23.384,1.205,1.544,1.205,1.544-2.4-1.268-4.68-.6-6.883,3.039,4.212,1.028,5.863.494,5.863.494s-1.9,1.9-2.841,1.836c1.238.422,4.8.6,6.515-.356a10.173,10.173,0,0,1-2.324,1.49s3.111,2.2,5.278,1.721a3.04,3.04,0,0,1-1.918,1.215s4.488,2.738,6.146,2.321a5.5,5.5,0,0,1-3.324.206s4.5,3.99,6.168,3.893a8.381,8.381,0,0,1-3.2-.38s4.786,3.484,6.22,3.452" transform="translate(-46.907 -31.849)" fill="#99ca3c"/>
        <path id="Trazado_149658" data-name="Trazado 149658" d="M164.27,117.34c-1.672.1-6.168-3.893-6.168-3.893a5.5,5.5,0,0,0,3.324-.205c-1.658.416-6.145-2.322-6.145-2.322A3.04,3.04,0,0,0,157.2,109.7c-2.167.481-5.278-1.72-5.278-1.72a10.2,10.2,0,0,0,2.324-1.491c-1.721.958-5.278.779-6.515.357.938.066,2.84-1.836,2.84-1.836s-1.649.532-5.853-.491c2.165-1.089,7.248-2.395,13.878,1.959a19.543,19.543,0,0,1,8.739,13.845l-.039.085c-1.433.032-6.22-3.451-6.22-3.451a8.374,8.374,0,0,0,3.2.38" transform="translate(-46.912 -33.536)" fill="#6eb444"/>
        <path id="Trazado_149659" data-name="Trazado 149659" d="M177.191,128.127s-1.842,5.364-1.351,9.142a6.643,6.643,0,0,1,2.951-2.365c-1.458,1.365-2.966,2.836-3.041,6.031a8.023,8.023,0,0,1,3.333-2.132c-1.561,1.371-3.179,4.157-2.728,6.684.562-.878,3.205-2.54,3.437-2.245-2.374,1.8-3.607,3.46-3.494,4.967s.54,2.311.318,4.208a9.53,9.53,0,0,0,3.219-3.637c-.246,1.481-2.8,4.338-3.1,5.249s.48,4.3.835,5.529c3.018-2.265,3.936-4.634,3.881-7.452.5,1.112-.148,4.977-.148,4.977s2-4.545.966-8.7a6.864,6.864,0,0,1,1.752,3.839s2.055-7.419-.351-10.9c.744.153,1.786,2.19,1.786,2.19s-.743-6.4-3.493-8.228c.7-.367,2.772,1.411,3.07,2.59-.051-1.354-1.677-4.219-3.629-5.849.508-.2,2.406,1.106,2.728,1.527-.491-2.367-3.741-5.257-6.941-5.434" transform="translate(-56.972 -41.534)" fill="#6eb444"/>
        <path id="Trazado_149660" data-name="Trazado 149660" d="M177.322,128.141c-.045,0-.088-.011-.13-.014,0,0-1.842,5.364-1.35,9.142a6.642,6.642,0,0,1,2.951-2.365c-1.458,1.365-2.966,2.836-3.041,6.031a8.023,8.023,0,0,1,3.333-2.132c-1.561,1.371-3.179,4.157-2.728,6.685.562-.879,3.205-2.541,3.437-2.246-2.374,1.8-3.607,3.46-3.494,4.967s.541,2.311.318,4.208a9.534,9.534,0,0,0,3.218-3.637c-.246,1.481-2.8,4.338-3.1,5.249-.285.873.419,4.025.789,5.364,1.572-3.206,4.573-10.422,4.246-17.293a31.673,31.673,0,0,0-4.449-13.959" transform="translate(-56.972 -41.534)" fill="#589b43"/>
        <path id="Trazado_149661" data-name="Trazado 149661" d="M178.189,127.994s3.05-2.529,8.134-.428a5.905,5.905,0,0,0-2.7.411c3.316-.013,6.274.757,7.509,2.232a5.112,5.112,0,0,0-2.818.053c1.752.026,4.254.622,5.223,2.4s2.02,3.558,3.028,3.769c-.329.129-2.559-.431-3.289-.3a5.427,5.427,0,0,1,4.436,5.3,9.7,9.7,0,0,0-1.453-1.067s1.788,1.356,1.141,5.793a22.262,22.262,0,0,0-.793-2.213c.413,2.359-1.348,6.058-1.577,6.663a70.6,70.6,0,0,1-1.876-8.794,13.949,13.949,0,0,0-.27,3.7s-1.677-4.577-1.661-7.479a13.713,13.713,0,0,0-.387,3.714s-2.12-3.693-2.05-6.926a8.281,8.281,0,0,0-.193,4.195c-.5-.393-3.636-4.039-3.77-6.341a19.643,19.643,0,0,0,.607,3.912,15.008,15.008,0,0,1-3.607-5.881,14.289,14.289,0,0,0,.822,3.78s-4.127-3.989-4.459-6.5" transform="translate(-57.763 -41.082)" fill="#6eb444"/>
        <path id="Trazado_149662" data-name="Trazado 149662" d="M192.545,136.369c-4.515-6.226-12.113-7.469-14.344-7.7.374,2.512,4.451,6.454,4.451,6.454a14.274,14.274,0,0,1-.822-3.78,15,15,0,0,0,3.606,5.881,19.643,19.643,0,0,1-.607-3.912c.134,2.3,3.269,5.947,3.77,6.341a8.289,8.289,0,0,1,.193-4.195c-.07,3.233,2.05,6.926,2.05,6.926a13.713,13.713,0,0,1,.387-3.714c-.016,2.9,1.661,7.479,1.661,7.479a13.945,13.945,0,0,1,.27-3.7,70.811,70.811,0,0,0,1.871,8.774c.783-3.226,1.694-9.082-2.485-14.846" transform="translate(-57.767 -41.709)" fill="#589b43"/>
        <path id="Trazado_149663" data-name="Trazado 149663" d="M178.207,126.817s3.859-4.262,8.475-4.034c-.547.355-2.218,1.788-2.218,1.788,3.985-1.921,7.715-2.358,10.644-1.637a6.967,6.967,0,0,0-1.446,1.623s3.151-1.187,5.5.155a5.836,5.836,0,0,0-1.623.649s4.363.351,5.762,3.642a22.008,22.008,0,0,1-2.561-.695,7.714,7.714,0,0,1,4.675,5.866,17.288,17.288,0,0,0-3.446-2.04c2.226,2.5,2.748,3.871,2.219,7.961a7.929,7.929,0,0,1-3.625-3.725l.693,3.658c-1.293-1.889-3.664-5.628-3.346-9.051a14.328,14.328,0,0,0,.3,5.359,15.448,15.448,0,0,1-3.594-6.783c-.324.547.635,3.916.635,3.916s-3.268-2.1-4.206-4.848a13.059,13.059,0,0,0,.9,3.693s-4.588-2.3-5.38-4.315a12.465,12.465,0,0,0,1.761,3.439s-8.423-2.188-10.121-4.622" transform="translate(-57.768 -39.745)" fill="#99ca3c"/>
        <path id="Trazado_149664" data-name="Trazado 149664" d="M204.167,141.694c-.487-4.423-4.025-11.884-11.259-13.416a39.018,39.018,0,0,0-14.527-.037c-.115.116-.174.182-.174.182,1.7,2.434,10.121,4.622,10.121,4.622a12.465,12.465,0,0,1-1.761-3.439c.791,2.012,5.379,4.315,5.379,4.315a13.065,13.065,0,0,1-.9-3.693c.938,2.752,4.206,4.848,4.206,4.848s-.958-3.368-.635-3.916a15.441,15.441,0,0,0,3.594,6.783,14.312,14.312,0,0,1-.3-5.359c-.318,3.422,2.053,7.162,3.346,9.051l-.693-3.658a7.941,7.941,0,0,0,3.608,3.716" transform="translate(-57.768 -41.351)" fill="#69a543"/>
        <path id="Trazado_149665" data-name="Trazado 149665" d="M177.856,121.965s-.6-5.833,3.054-8.042a13.521,13.521,0,0,0-.693,2.613s1.191-4.313,3.7-5.709a10.783,10.783,0,0,0-.164,1.994,3.437,3.437,0,0,1,1.716-2.9c2.724-1.3,5.272-2.174,6.525-2.163a11.2,11.2,0,0,0-.751,2.517s1.759-3.084,4.625-2.82a5.948,5.948,0,0,0-1.394,1.318,7.524,7.524,0,0,1,6.069-.614c-.344.287-1.644,1.064-1.644,1.064,2.686-.41,4.619.964,5.507,5.127-4.316-.41-5.7-1.454-5.7-1.454s1.175,2.42,2.083,2.665c-1.308-.006-4.726-1-6.039-2.472a10.176,10.176,0,0,0,1.709,2.171s-3.662,1.06-5.551-.1a3.041,3.041,0,0,0,1.415,1.776s-5.139,1.116-6.57.179a5.5,5.5,0,0,0,3.075,1.285s-5.555,2.3-7.1,1.656a8.334,8.334,0,0,0,3.143.689s-5.663,1.724-7.008,1.223" transform="translate(-57.643 -34.829)" fill="#99ca3c"/>
        <path id="Trazado_149666" data-name="Trazado 149666" d="M181.735,121.765c1.548.641,7.1-1.656,7.1-1.656a5.5,5.5,0,0,1-3.075-1.285c1.431.937,6.57-.179,6.57-.179a3.037,3.037,0,0,1-1.415-1.775c1.89,1.164,5.551.1,5.551.1a10.161,10.161,0,0,1-1.708-2.171c1.312,1.469,4.731,2.467,6.039,2.473-.908-.246-2.083-2.666-2.083-2.666s1.385,1.044,5.692,1.454c-1.691-1.738-6.063-4.638-13.753-2.7a19.543,19.543,0,0,0-12.794,10.217l.007.093c1.345.5,7.008-1.223,7.008-1.223a8.343,8.343,0,0,1-3.143-.689" transform="translate(-57.657 -36.541)" fill="#6eb444"/>
        <path id="Trazado_149667" data-name="Trazado 149667" d="M175.056,113.923s5.315-9.708,5.563-14.114a17.329,17.329,0,0,1-2.257,2.684s3.187-5.859,1.048-9.6c-.337,2.325-1.794,2.715-1.794,2.715s1.857-4.065-.6-7.252a7.9,7.9,0,0,1-.372,2.828s.066-3.89-2.42-5.819a3.758,3.758,0,0,1-.22,1.686s-2.487-3.113-5.556-2.91a33.264,33.264,0,0,0,4.391,5.991,15.731,15.731,0,0,1-3.607-1.307s3.128,5.359,4.948,7.254a8.484,8.484,0,0,1-2.526-1.349s1.835,4.713,2.958,6.053a14.247,14.247,0,0,1-2.477-2.223s.9,4.523,2.08,6.311a6.879,6.879,0,0,1-1.88-1.982s1.667,9.13,2.716,11.033" transform="translate(-54.606 -27.273)" fill="#99ca3c"/>
        <path id="Trazado_149668" data-name="Trazado 149668" d="M175.064,113.94c-1.049-1.9-2.716-11.033-2.716-11.033a6.879,6.879,0,0,0,1.88,1.982c-1.175-1.788-2.08-6.311-2.08-6.311a14.246,14.246,0,0,0,2.477,2.223c-1.123-1.34-2.958-6.053-2.958-6.053a8.485,8.485,0,0,0,2.526,1.349c-1.819-1.9-4.948-7.254-4.948-7.254a15.731,15.731,0,0,0,3.607,1.307,33.1,33.1,0,0,1-4.374-5.966c10.8,5.59,7.905,23.912,6.75,29.454-.1.191-.162.3-.162.3" transform="translate(-54.614 -27.29)" fill="#6eb444"/>
        <path id="Trazado_149669" data-name="Trazado 149669" d="M166.375,126.646s-2.054-3.39-7.543-3.071a5.924,5.924,0,0,1,2.415,1.274c-3.129-1.1-6.176-1.342-7.826-.353a5.1,5.1,0,0,1,2.645.977c-1.665-.551-4.221-.808-5.723.558s-3.073,2.7-4.1,2.571c.27.229,2.557.43,3.206.791a5.427,5.427,0,0,0-5.926,3.551,9.745,9.745,0,0,1,1.721-.53s-2.133.694-2.978,5.1a22.08,22.08,0,0,1,1.475-1.831c-1.162,2.094-.712,6.164-.694,6.811a70.5,70.5,0,0,0,4.655-7.694,13.981,13.981,0,0,1-.96,3.589s3.085-3.777,4.019-6.522a13.679,13.679,0,0,1-.852,3.634s3.214-2.8,4.207-5.872a8.291,8.291,0,0,1-1.191,4.026c.6-.208,4.757-2.624,5.639-4.754a19.819,19.819,0,0,1-1.856,3.5,15.016,15.016,0,0,0,5.334-4.374,14.292,14.292,0,0,1-2.015,3.3s5.206-2.415,6.343-4.677" transform="translate(-46.119 -40.052)" fill="#6eb444"/>
        <path id="Trazado_149670" data-name="Trazado 149670" d="M150.656,130.484c6.306-4.4,13.892-3.088,16.077-2.579-1.177,2.251-6.32,4.638-6.32,4.638a14.283,14.283,0,0,0,2.015-3.3,15.016,15.016,0,0,1-5.334,4.374,19.785,19.785,0,0,0,1.857-3.5c-.881,2.131-5.038,4.546-5.638,4.755a8.3,8.3,0,0,0,1.191-4.026c-.992,3.076-4.207,5.872-4.207,5.872a13.68,13.68,0,0,0,.852-3.634c-.935,2.745-4.019,6.522-4.019,6.522a14,14,0,0,0,.959-3.589,70.475,70.475,0,0,1-4.644,7.677c.318-3.3,1.377-9.136,7.213-13.212" transform="translate(-46.499 -41.273)" fill="#589b43"/>
        <path id="Trazado_149671" data-name="Trazado 149671" d="M94.732,268.508v8.259a73.214,73.214,0,0,0,11.668,2.264H191.48V237.714c-55.322,2.811-85.747,20.95-96.748,30.794" transform="translate(-30.709 -77.059)" fill="#f9e063"/>
        <path id="Trazado_149672" data-name="Trazado 149672" d="M127.069,254.566c16.457-7.746,40.915-15.14,74.606-16.851v26.1l-38.1-.712c-21.446-.874-41.954-5.976-36.511-8.539" transform="translate(-40.904 -77.059)" fill="#99ca3c"/>
        <path id="Trazado_149673" data-name="Trazado 149673" d="M249.9,318.271c0,3.112,2.1,5.635,4.7,5.635s4.7-2.524,4.7-5.635-2.1-5.635-4.7-5.635-4.7,2.523-4.7,5.635" transform="translate(-81.008 -101.346)" fill="#0f0c0a"/>
        <path id="Trazado_149674" data-name="Trazado 149674" d="M251.868,309.858V311.8c0,.563,1.1,1.877,2.2,3.381s1.283,3.162,0,4.038-2.015.156-3.045-1.1-2.657-3.005-3.579-3.037-1.491-.125-1.817-1.127a15.692,15.692,0,0,1,0-3.975Z" transform="translate(-79.579 -100.445)" fill="#934c16"/>
        <path id="Trazado_149675" data-name="Trazado 149675" d="M255.811,320.584a.712.712,0,1,0,.7-.814.764.764,0,0,0-.7.814" transform="translate(-82.925 -103.658)" fill="#b2b2b2"/>
        <path id="Trazado_149676" data-name="Trazado 149676" d="M222.367,312.171c0,2.821,1.907,5.108,4.26,5.108s4.26-2.287,4.26-5.108-1.908-5.109-4.26-5.109-4.26,2.286-4.26,5.109" transform="translate(-72.084 -99.539)" fill="#0f0c0a"/>
        <path id="Trazado_149677" data-name="Trazado 149677" d="M224.152,304.541V306.3c0,.51,1,1.7,2,3.065s1.163,2.867,0,3.661-1.827.141-2.761-.994-2.409-2.724-3.244-2.752-1.352-.114-1.646-1.022a14.161,14.161,0,0,1,0-3.6Z" transform="translate(-70.787 -98.722)" fill="#934c16"/>
        <path id="Trazado_149678" data-name="Trazado 149678" d="M227.725,314.266a.646.646,0,1,0,.638-.739.692.692,0,0,0-.638.739" transform="translate(-73.82 -101.634)" fill="#b2b2b2"/>
        <path id="Trazado_149679" data-name="Trazado 149679" d="M321.62,309.871c0,3.111-2.1,5.634-4.7,5.634s-4.7-2.523-4.7-5.634,2.1-5.635,4.7-5.635,4.7,2.523,4.7,5.635" transform="translate(-101.211 -98.623)" fill="#0f0c0a"/>
        <path id="Trazado_149680" data-name="Trazado 149680" d="M319.613,301.458v1.94c0,.564-1.1,1.878-2.2,3.381s-1.283,3.161,0,4.037,2.015.157,3.045-1.094,2.657-3.006,3.579-3.038,1.491-.124,1.817-1.127a15.724,15.724,0,0,0,0-3.975Z" transform="translate(-102.602 -97.722)" fill="#934c16"/>
        <path id="Trazado_149681" data-name="Trazado 149681" d="M319.542,312.184a.712.712,0,1,1-.7-.814.765.765,0,0,1,.7.814" transform="translate(-103.127 -100.935)" fill="#b2b2b2"/>
        <path id="Trazado_149682" data-name="Trazado 149682" d="M303.183,306.386c0,2.821-1.909,5.109-4.261,5.109s-4.26-2.288-4.26-5.109,1.908-5.109,4.26-5.109,4.261,2.287,4.261,5.109" transform="translate(-95.519 -97.663)" fill="#0f0c0a"/>
        <path id="Trazado_149683" data-name="Trazado 149683" d="M301.364,298.759v1.759c0,.511-1,1.7-2,3.065s-1.164,2.867,0,3.662,1.826.142,2.761-.993,2.407-2.724,3.243-2.752,1.352-.114,1.647-1.023a14.234,14.234,0,0,0,0-3.6Z" transform="translate(-96.78 -96.847)" fill="#934c16"/>
        <path id="Trazado_149684" data-name="Trazado 149684" d="M301.3,308.483a.646.646,0,1,1-.639-.737.693.693,0,0,1,.639.737" transform="translate(-97.256 -99.76)" fill="#b2b2b2"/>
        <path id="Trazado_149685" data-name="Trazado 149685" d="M256.133,187.064V81.081c0-4.175,2.7-7.444,6.145-7.444.189,0,.38.009.552.027l15.463,1.348c3.554.372,6.444,3.858,6.444,7.771V176.77c0,3.912-2.891,7.4-6.444,7.769-5.538.58-6.516,1.516-6.665,1.715a5.321,5.321,0,0,0,.235.91,4.831,4.831,0,0,1-.041,3.958c-1,1.821-3.6,2.793-8.972,3.354a5.3,5.3,0,0,1-.572.03c-3.447,0-6.146-3.269-6.146-7.444m12.876,1.3a4.821,4.821,0,0,1,.039-3.958c1-1.821,3.6-2.793,8.971-3.355a4.374,4.374,0,0,0,3.683-4.278V82.782a4.37,4.37,0,0,0-3.66-4.277l-15.463-1.348c-1.915-.2-3.409,1.551-3.409,3.923V187.064c0,2.37,1.494,4.112,3.409,3.921,5.536-.579,6.516-1.514,6.664-1.715a5.393,5.393,0,0,0-.233-.91" transform="translate(-83.029 -23.871)" fill="#0f0c0a"/>
        <path id="Trazado_149686" data-name="Trazado 149686" d="M280.417,82.3a3.382,3.382,0,0,0-2.857-3.278l-15.477-1.348c-1.4-.148-2.463,1.128-2.463,2.924v5.472l-4.771-.414V80.6c0-4.736,3.08-8.446,7.013-8.446a5.957,5.957,0,0,1,.616.031l15.477,1.348c4.056.424,7.234,4.277,7.234,8.769v5.984l-4.772-.413Z" transform="translate(-82.613 -23.389)" fill="#665446"/>
        <path id="Trazado_149687" data-name="Trazado 149687" d="M216.908,131.97l18-2.953-.593,123.116L216.908,249.3c-3.249-.65-5.32-2.749-5.32-6.141V138.112a5.954,5.954,0,0,1,5.32-6.142" transform="translate(-68.589 -41.823)" fill="#493a30"/>
        <path id="Trazado_149688" data-name="Trazado 149688" d="M224.682,136.122V246.854a4.555,4.555,0,0,0,2.846,4.471l-4.64-.756a8.45,8.45,0,0,1-.81-3.714V136.122a8.509,8.509,0,0,1,.822-3.726l4.575-.75a4.685,4.685,0,0,0-2.793,4.476" transform="translate(-71.99 -42.675)" fill="#0f0c0a"/>
        <path id="Trazado_149689" data-name="Trazado 149689" d="M211.588,173.622l18.994-.857V166.04l-18.994,1.383Z" transform="translate(-68.589 -53.824)" fill="#302620"/>
        <path id="Trazado_149690" data-name="Trazado 149690" d="M211.588,259.691l18.994.857v6.725l-18.994-1.384Z" transform="translate(-68.589 -84.183)" fill="#302620"/>
        <path id="Trazado_149691" data-name="Trazado 149691" d="M239.692,246.287c0,3.6,2.38,6.261,5.319,5.954q28.325-2.959,56.648-5.926a6.32,6.32,0,0,0,5.32-6.329V141.245a6.321,6.321,0,0,0-5.32-6.331l-56.648-5.926c-2.939-.308-5.319,2.359-5.319,5.955Z" transform="translate(-77.7 -41.806)" fill="#665446"/>
        <path id="Trazado_149692" data-name="Trazado 149692" d="M239.692,172.766q33.643,1.695,67.287,3.382v-5.963q-33.643-2.076-67.287-4.144Z" transform="translate(-77.7 -53.825)" fill="#493a30"/>
        <path id="Trazado_149693" data-name="Trazado 149693" d="M239.692,266.188l67.287-3.881v-5.964l-67.287,3.12Z" transform="translate(-77.7 -83.097)" fill="#493a30"/>
        <path id="Trazado_149694" data-name="Trazado 149694" d="M253.668,259.839c0,5.818,1.748,10.413,3.9,10.263s3.9-4.928,3.9-10.668-1.748-10.338-3.9-10.265-3.9,4.85-3.9,10.67" transform="translate(-82.23 -80.771)" fill="#934c16"/>
        <path id="Trazado_149695" data-name="Trazado 149695" d="M320.625,256.765c0,5.368,1.748,9.6,3.9,9.448s3.9-4.561,3.9-9.852-1.748-9.523-3.9-9.45-3.9,4.486-3.9,9.854" transform="translate(-103.935 -80.039)" fill="#934c16"/>
        <path id="Trazado_149696" data-name="Trazado 149696" d="M253.668,166.881c0,5.819,1.748,10.6,3.9,10.684s3.9-4.506,3.9-10.247-1.748-10.525-3.9-10.685-3.9,4.429-3.9,10.248" transform="translate(-82.23 -50.774)" fill="#934c16"/>
        <path id="Trazado_149697" data-name="Trazado 149697" d="M320.625,171.013c0,5.369,1.748,9.787,3.9,9.87s3.9-4.143,3.9-9.433-1.748-9.71-3.9-9.87-3.9,4.064-3.9,9.433" transform="translate(-103.935 -52.377)" fill="#934c16"/>
        <path id="Trazado_149698" data-name="Trazado 149698" d="M324.475,165.644a1.489,1.489,0,0,0,1.3,1.523,1.268,1.268,0,0,0,1.3-1.347,1.494,1.494,0,0,0-1.3-1.525,1.266,1.266,0,0,0-1.3,1.348" transform="translate(-105.183 -53.258)" fill="#d3d3d3"/>
        <path id="Trazado_149699" data-name="Trazado 149699" d="M324.475,183.819a1.448,1.448,0,0,0,1.3,1.494,1.3,1.3,0,0,0,1.3-1.377,1.454,1.454,0,0,0-1.3-1.495,1.3,1.3,0,0,0-1.3,1.378" transform="translate(-105.183 -59.141)" fill="#d3d3d3"/>
        <path id="Trazado_149700" data-name="Trazado 149700" d="M257.517,161.046a1.566,1.566,0,0,0,1.3,1.644,1.336,1.336,0,0,0,1.3-1.468,1.574,1.574,0,0,0-1.3-1.646,1.333,1.333,0,0,0-1.3,1.469" transform="translate(-83.478 -51.728)" fill="#d3d3d3"/>
        <path id="Trazado_149701" data-name="Trazado 149701" d="M257.517,180.753a1.525,1.525,0,0,0,1.3,1.616,1.374,1.374,0,0,0,1.3-1.5,1.532,1.532,0,0,0-1.3-1.617,1.369,1.369,0,0,0-1.3,1.5" transform="translate(-83.478 -58.108)" fill="#d3d3d3"/>
        <path id="Trazado_149702" data-name="Trazado 149702" d="M324.475,251.483a1.307,1.307,0,0,0,1.3,1.383,1.444,1.444,0,0,0,1.3-1.487,1.312,1.312,0,0,0-1.3-1.385,1.44,1.44,0,0,0-1.3,1.489" transform="translate(-105.183 -81.039)" fill="#d3d3d3"/>
        <path id="Trazado_149703" data-name="Trazado 149703" d="M324.475,269.658a1.272,1.272,0,0,0,1.3,1.354,1.484,1.484,0,0,0,1.3-1.517,1.275,1.275,0,0,0-1.3-1.354,1.48,1.48,0,0,0-1.3,1.517" transform="translate(-105.183 -86.921)" fill="#d3d3d3"/>
        <path id="Trazado_149704" data-name="Trazado 149704" d="M257.517,254.122a1.377,1.377,0,0,0,1.3,1.5,1.521,1.521,0,0,0,1.3-1.608,1.382,1.382,0,0,0-1.3-1.505,1.514,1.514,0,0,0-1.3,1.609" transform="translate(-83.478 -81.855)" fill="#d3d3d3"/>
        <path id="Trazado_149705" data-name="Trazado 149705" d="M257.517,273.829a1.34,1.34,0,0,0,1.3,1.475,1.565,1.565,0,0,0,1.3-1.639,1.344,1.344,0,0,0-1.3-1.475,1.559,1.559,0,0,0-1.3,1.638" transform="translate(-83.478 -88.234)" fill="#d3d3d3"/>
        <g id="Grupo_212447" data-name="Grupo 212447" transform="translate(181.863 158.896)" style="mix-blend-mode: multiply;isolation: isolate">
          <g id="Grupo_212446" data-name="Grupo 212446">
            <g id="Grupo_212445" data-name="Grupo 212445" clip-path="url(#clip-path-4)">
              <path id="Trazado_149706" data-name="Trazado 149706" d="M269.094,291.6h64.435V254.624l-17.337-2.457a11.269,11.269,0,0,0,.441-2.8c0-7.872-6.859-14.254-15.321-14.254s-15.321,6.382-15.321,14.254a19.735,19.735,0,0,0,1.831,6.762l-18.727-4.077Z" transform="translate(-269.094 -235.111)" fill="#d3d3d3"/>
            </g>
          </g>
        </g>
        <path id="Trazado_149707" data-name="Trazado 149707" d="M340.028,308.335,323.1,305.779l-20.774,5.113-21.875-5.113V260.332l21.861,5.113,20.929-5.113,16.788,2.557Z" transform="translate(-90.912 -84.391)" fill="#307ca0"/>
        <path id="Trazado_149708" data-name="Trazado 149708" d="M338.686,306.963l-14.1-2.452-20.78,4.889-18.7-4.427V266.19l18.753,4.477,20.912-4.746,13.91,2.26Z" transform="translate(-92.423 -86.202)" fill="#f4f4f4"/>
        <path id="Trazado_149709" data-name="Trazado 149709" d="M337.207,283.933a10.119,10.119,0,0,0-1.426,4.277c-2.138,0-2.138-2.851-3.564-2.851-.713,0-.713,1.425-.713,2.138-3.564-2.138-5.7.713-8.553,3.565s-2.851-4.991-5.7-6.415-7.128,1.424-8.554,4.988c4.278,0,2.138,4.989,3.564,7.128-1.427.713-3.564-.712-4.989.713-2.852.713-.713,2.851-1.425,3.563-2.851,0-6.416-1.425-9.266.713,4.989,2.85,10.692,2.138,15.681,2.85,1.425.715,2.138-2.85,2.851-2.85,4.99-1.425,7.84,2.85,12.116-3.563.713-2.138,3.565,7.84,7.128,4.988,3.443-2.295,5.5-5.975,8.032-9.183-2.7-2.78-2.192-7.671-5.18-10.062" transform="translate(-96.141 -92.041)" fill="#d0d63e"/>
        <path id="Trazado_149710" data-name="Trazado 149710" d="M304.53,281.73c-1.425-.714-3.564,2.851-3.564,2.138-.637-5.723-6.377-5.775-10.644-6.731a14.31,14.31,0,0,0,4.229,9.583c1.426.712,1.426-2.852,2.138-2.852,2.851.712,3.564,10.692,6.416,5.7.712-1.427,4.276-4.991,1.425-7.842" transform="translate(-94.112 -89.838)" fill="#d0d63e"/>
        <path id="Trazado_149711" data-name="Trazado 149711" d="M293.537,296.608c-.393.27-.785.7-1.178.7,1.426,2.852,4.277,2.852,7.129,2.852-1.521-2.027-3.76-2.615-5.951-3.552" transform="translate(-94.773 -96.15)" fill="#d0d63e"/>
        <path id="Trazado_149712" data-name="Trazado 149712" d="M324.068,318.767c0-.712,0-2.138-.713-2.138a24.209,24.209,0,0,1-5.742.7c1.911,1.908,4.183,3.711,6.455,1.439" transform="translate(-102.959 -102.64)" fill="#d0d63e"/>
        <path id="Trazado_149713" data-name="Trazado 149713" d="M356.236,315.281c-2.447,1.517-6.985,1.1-5.04,3.049,2.413,3.016,3.8.414,5.04-3.049" transform="translate(-113.692 -102.203)" fill="#d0d63e"/>
        <path id="Trazado_149714" data-name="Trazado 149714" d="M364.36,298.812a.17.17,0,0,1,.016.016v-.038a.26.26,0,0,1-.016.022" transform="translate(-118.113 -96.857)" fill="#d0d63e"/>
        <g id="Grupo_212450" data-name="Grupo 212450" transform="translate(211.399 175.941)" style="mix-blend-mode: multiply;isolation: isolate">
          <g id="Grupo_212449" data-name="Grupo 212449">
            <g id="Grupo_212448" data-name="Grupo 212448" clip-path="url(#clip-path-5)">
              <path id="Trazado_149715" data-name="Trazado 149715" d="M333.585,305.779l-20.774,5.113-.014-45.447,20.929-5.113Z" transform="translate(-312.797 -260.332)" fill="#e2e2e2"/>
            </g>
          </g>
        </g>
        <g id="Grupo_212453" data-name="Grupo 212453" transform="translate(206.854 175.941)" style="mix-blend-mode: multiply;isolation: isolate">
          <g id="Grupo_212452" data-name="Grupo 212452">
            <g id="Grupo_212451" data-name="Grupo 212451" clip-path="url(#clip-path-6)">
              <path id="Trazado_149716" data-name="Trazado 149716" d="M310.617,265.445l-4.546-1.063c3.758,9.714,12.475,23.484,12.475,23.484s14.557-17.251,18.109-26.756l-5.109-.778Z" transform="translate(-306.071 -260.332)" fill="#cecece"/>
            </g>
          </g>
        </g>
        <path id="Trazado_149717" data-name="Trazado 149717" d="M331.9,249.587c0,7.824-14.166,30.2-14.166,30.2s-14.167-22.38-14.167-30.2a14.167,14.167,0,1,1,28.333,0" transform="translate(-98.405 -76.315)" fill="#ef2946"/>
        <path id="Trazado_149718" data-name="Trazado 149718" d="M329.09,253.494a8.768,8.768,0,1,0-8.768,8.768,8.768,8.768,0,0,0,8.768-8.768" transform="translate(-100.995 -79.332)" fill="#fff"/>
        <g id="Grupo_212456" data-name="Grupo 212456" transform="translate(143.063 148.482)" style="mix-blend-mode: multiply;isolation: isolate">
          <g id="Grupo_212455" data-name="Grupo 212455">
            <g id="Grupo_212454" data-name="Grupo 212454" clip-path="url(#clip-path-7)">
              <path id="Trazado_149719" data-name="Trazado 149719" d="M240.785,228.555v-1.982a3.847,3.847,0,0,0-3.6-3.858c-.745-.106-1.539-.161-2.184-.191.068.018.132.041.2.06l-.889-.175c-1.037-.2-1.553-.3-2.809-.525-.9-.164-1.809-.327-2.7-.485a5.5,5.5,0,0,0-2.791-1.194c-1.645-.234-3.27-.5-3.8-.494v0a3.689,3.689,0,0,0-.512,0l-4.3.278v.435l-5.721.37v74.6q2.86.183,5.721.368v.435l4.3.278a3.8,3.8,0,0,0,.512,0v0c.526,0,2.152-.26,3.8-.495a5.224,5.224,0,0,0,3.33-1.737c.543-.169,1.068-.344,1.581-.518,1.849-.628,2.827-1,4.121-1.546h0c.492-.2.946-.393,1.351-.569a5.008,5.008,0,0,1-1.391.614c.645-.029,1.438-.084,2.184-.19a3.846,3.846,0,0,0,3.6-3.858v-1.681l-.273.03V228.562Z" transform="translate(-211.683 -219.702)" fill="#d3d3d3"/>
            </g>
          </g>
        </g>
        <path id="Trazado_149720" data-name="Trazado 149720" d="M111.912,325.033a3.162,3.162,0,1,1-6.323,0v-2.749a3.162,3.162,0,0,1,6.323,0Z" transform="translate(-34.228 -103.449)" fill="#665446"/>
        <path id="Trazado_149721" data-name="Trazado 149721" d="M136.44,322.651a3.162,3.162,0,1,1-6.323,0V319.9a3.162,3.162,0,1,1,6.323,0Z" transform="translate(-42.179 -102.676)" fill="#665446"/>
        <path id="Trazado_149722" data-name="Trazado 149722" d="M162.5,237.753q-.213,0-.428-.016l-13.146-.984a6.136,6.136,0,0,1-5.8-5.946V218.844a6.136,6.136,0,0,1,5.8-5.946l13.146-.985a5.75,5.75,0,0,1,6.106,5.951v13.923a5.764,5.764,0,0,1-5.678,5.966m0-21.754c-.041,0-.081,0-.122,0l-13.145.984a2.111,2.111,0,0,0-2.006,1.856v11.964a2.111,2.111,0,0,0,2.006,1.857l13.145.983a1.681,1.681,0,0,0,1.7-1.86V217.865A1.7,1.7,0,0,0,162.5,216" transform="translate(-46.395 -68.69)" fill="#665446"/>
        <path id="Trazado_149723" data-name="Trazado 149723" d="M203.648,224.733h0c-3.227-.845-15.187-2.9-15.187-2.9s-.086,1.383-.22,3.766q-30.85,2.07-61.7,4.137a3.925,3.925,0,0,0-3.643,3.833v49.333a3.927,3.927,0,0,0,3.643,3.835q30.335,2.027,60.669,4.064a18.436,18.436,0,0,0,1.252,5.911,58.644,58.644,0,0,0,15.395-5.049,3.976,3.976,0,0,0,2.422-3.883V228.685a3.929,3.929,0,0,0-2.628-3.952" transform="translate(-39.838 -71.909)" fill="#934c16"/>
        <path id="Trazado_149724" data-name="Trazado 149724" d="M233.63,294.814l-.106.045c-.224.11-.52.251-.865.411,1.809-.638,2.745-1,4-1.552a2.864,2.864,0,0,0,.932-2.1V228.3A3.951,3.951,0,0,0,236,224.823c-1.02-.21-1.5-.3-2.718-.529,1.013.35,2.252,2.251,2.252,4v63.323a3.263,3.263,0,0,1-1.905,3.195" transform="translate(-75.42 -72.708)" fill="#5b2c0c"/>
        <path id="Trazado_149725" data-name="Trazado 149725" d="M180.438,292.167c0,2.647-1.818,4.668-4.061,4.519q-42.4-2.834-84.8-5.682a4.376,4.376,0,0,1-4.062-4.273V231.754a4.373,4.373,0,0,1,4.062-4.27q42.4-2.846,84.8-5.684c2.243-.151,4.061,1.872,4.061,4.519Z" transform="translate(-28.369 -71.897)" fill="#ba651e"/>
        <path id="Trazado_149726" data-name="Trazado 149726" d="M218.223,320.852v.158a3.79,3.79,0,0,1-3.825,4.069c-.224-.015-.448-.03-.672-.043v3.952l4.091.273c2.271.153,4.112-1.892,4.112-4.573v-3.626Z" transform="translate(-69.282 -104.009)" fill="#665446"/>
        <path id="Trazado_149727" data-name="Trazado 149727" d="M93.313,317.526a4.022,4.022,0,0,1-3.826-3.849v-.18l-2.825-.159v3.411a4.429,4.429,0,0,0,4.111,4.325l2.695.181v-3.718l-.155-.011" transform="translate(-28.093 -101.573)" fill="#665446"/>
        <path id="Trazado_149728" data-name="Trazado 149728" d="M90.773,229.543a4.428,4.428,0,0,0-4.111,4.323v3.229l2.825-.141v-.018a4.02,4.02,0,0,1,3.826-3.846c.052,0,.1-.007.155-.011v-3.718l-2.695.181" transform="translate(-28.093 -74.351)" fill="#665446"/>
        <path id="Trazado_149729" data-name="Trazado 149729" d="M228,226.181a4.5,4.5,0,0,0-4.111-4.576c-1.567-.232-3.114-.489-3.615-.488l-.477,4.713.673-.042c2.1-.134,3.4,1.623,3.429,3.979l4.1-.093Z" transform="translate(-71.249 -71.678)" fill="#4f4137"/>
        <path id="Trazado_149730" data-name="Trazado 149730" d="M244.018,229.227a3.744,3.744,0,0,0-3.424-3.81c-.71-.1-1.465-.159-2.079-.188a4.1,4.1,0,0,1,3.132,4.045v1.973l2.37-.064Z" transform="translate(-77.318 -73.011)" fill="#4f4137"/>
        <path id="Trazado_149731" data-name="Trazado 149731" d="M241.648,318.972v1.348a4.1,4.1,0,0,1-3.132,4.046c.614-.028,1.369-.083,2.079-.189a3.745,3.745,0,0,0,3.424-3.81V318.7Z" transform="translate(-77.318 -103.313)" fill="#4f4137"/>
        <path id="Trazado_149732" data-name="Trazado 149732" d="M217.816,221.11l-4.092.274v3.952l.673-.043a3.793,3.793,0,0,1,3.825,4.071v.581l3.7-.182v-4.077c0-2.679-1.841-4.729-4.112-4.576" transform="translate(-69.282 -71.674)" fill="#665446"/>
        <path id="Trazado_149733" data-name="Trazado 149733" d="M228,323.991a4.5,4.5,0,0,1-4.111,4.576c-1.567.232-3.114.489-3.615.489l-.477-4.713c.224.012.449.027.673.042,2.1.134,3.4-1.623,3.429-3.979l4.1-.182Z" transform="translate(-71.249 -103.805)" fill="#4f4137"/>
        <path id="Trazado_149734" data-name="Trazado 149734" d="M217.816,329.058l-4.092-.274v-3.95q.337.019.673.042a3.793,3.793,0,0,0,3.825-4.071v-.581l3.7.182v4.076c0,2.68-1.841,4.728-4.112,4.576" transform="translate(-69.282 -103.805)" fill="#665446"/>
        <path id="Trazado_149735" data-name="Trazado 149735" d="M194.788,296.116l-.843.155V222.994l.843.11Z" transform="translate(-62.87 -72.287)" fill="#6d2e03"/>
        <path id="Trazado_149736" data-name="Trazado 149736" d="M178.882,295.587l10.179.683V222.994l-10.179.683Z" transform="translate(-57.987 -72.287)" fill="#8e4209"/>
        <path id="Trazado_149737" data-name="Trazado 149737" d="M122.266,294.59l.659-.17V227.876l-.659-.1Z" transform="translate(-39.634 -73.837)" fill="#6d2e03"/>
        <path id="Trazado_149738" data-name="Trazado 149738" d="M110.268,294.046q4.053.274,8.108.544V227.774l-8.108.545Z" transform="translate(-35.745 -73.836)" fill="#8e4209"/>
        <path id="Trazado_149739" data-name="Trazado 149739" d="M187.494,285.056h-8.709a2.506,2.506,0,0,1-2.5-2.5v-8.708a2.506,2.506,0,0,1,2.5-2.5h8.709a2.506,2.506,0,0,1,2.5,2.5v8.708a2.506,2.506,0,0,1-2.5,2.5m-8.709-12.176a.967.967,0,0,0-.965.965v8.708a.967.967,0,0,0,.965.965h8.709a.966.966,0,0,0,.964-.965v-8.708a.966.966,0,0,0-.964-.965Z" transform="translate(-57.145 -87.96)" fill="#9e9e9e"/>
        <path id="Trazado_149740" data-name="Trazado 149740" d="M117.1,284.553h-7.325a2.231,2.231,0,0,1-2.228-2.228V275a2.231,2.231,0,0,1,2.228-2.228H117.1A2.23,2.23,0,0,1,119.331,275v7.325a2.231,2.231,0,0,1-2.228,2.228m-7.325-10.242a.69.69,0,0,0-.689.689v7.325a.691.691,0,0,0,.689.691H117.1a.691.691,0,0,0,.69-.691V275a.69.69,0,0,0-.69-.689Z" transform="translate(-34.864 -88.423)" fill="#9e9e9e"/>
        <g id="Grupo_212459" data-name="Grupo 212459" transform="translate(113.777 180.334)" style="mix-blend-mode: multiply;isolation: isolate">
          <g id="Grupo_212458" data-name="Grupo 212458">
            <g id="Grupo_212457" data-name="Grupo 212457" clip-path="url(#clip-path-8)">
              <path id="Trazado_149741" data-name="Trazado 149741" d="M203.073,270.088v-1.3l-1.848.146v-.918l-2.061.22v-1.406l-30.812,4.709V317.43l36.213-4.2v-43.2Z" transform="translate(-168.351 -266.832)" fill="#d3d3d3"/>
            </g>
          </g>
        </g>
        <path id="Trazado_149742" data-name="Trazado 149742" d="M196.136,311.458l-27.785,4.914V268.481l27.785-4.914Z" transform="translate(-54.574 -85.439)" fill="#2b6b28"/>
        <path id="Trazado_149743" data-name="Trazado 149743" d="M197.995,310.484l-29.643,6.481V269.074l29.643-3.677Z" transform="translate(-54.574 -86.033)" fill="#d3d3d3"/>
        <path id="Trazado_149744" data-name="Trazado 149744" d="M199.661,311.676l-31.309,5.676V269.46l31.309-2.872Z" transform="translate(-54.574 -86.419)" fill="#e5e5e5"/>
        <path id="Trazado_149745" data-name="Trazado 149745" d="M201.007,313.585l-32.656,4.385v-47.89l32.656-1.582Z" transform="translate(-54.573 -87.037)" fill="#f2f2f2"/>
        <rect id="Rectángulo_41588" data-name="Rectángulo 41588" width="33.324" height="47.89" transform="translate(113.777 183.042)" fill="#398937"/>
      </g>
    </g>
    <text id="PASSPORT" transform="translate(95.783 189.754)" fill="#ffdc48" font-size="4" font-family="BebasNeueRegular, Bebas Neue"><tspan x="0" y="0" letter-spacing="-0.083em">P</tspan><tspan y="0">ASSPO</tspan><tspan y="0" letter-spacing="0.009em">R</tspan><tspan y="0">T</tspan></text>
    <g id="Grupo_212463" data-name="Grupo 212463" transform="translate(-14.599)">
      <g id="Grupo_212462" data-name="Grupo 212462" clip-path="url(#clip-path-2)">
        <path id="Trazado_149746" data-name="Trazado 149746" d="M196.335,301.6a10.178,10.178,0,0,0-8.2-4.164,10.144,10.144,0,0,0-8.184,16.124,10.182,10.182,0,0,0,8.2,4.164,10.144,10.144,0,0,0,8.185-16.124m-6.426-1.161c.011-.083.08-.223-.035-.259.059-.1.149-.118.1-.252.122-.008.173-.122.289-.144,0-.024.008-.058.005-.081a2.262,2.262,0,0,1,.254,0c.015.028-.013.018-.014.03l.017.1c.109.2-.293.268-.264.438.041.24.395.247.589.257a.165.165,0,0,0,.082.188c-.226.121.146.248.246.243,0,.024.009.057.005.082.091,0,.167-.06.253-.012-.048.219.218.132.075.358a.254.254,0,0,1,.207.106c-.25.243-.758.084-1.019-.038-.19-.091-.141-.158-.176-.341s-.239-.208-.228-.379c-.107-.009-.221-.041-.19-.174-.129.03-.151-.053-.2-.126m-1.917.52a.394.394,0,0,0-.005-.08c-.1-.012-.307.109-.328-.018a3.4,3.4,0,0,1-.342-.005c.05-.209.251-.214.431-.239.159-.022.351-.073.5-.1.047-.008.182-.054.205-.053.081.007.13.064.2.087.093.03.117.014.2-.034.036-.022.081-.183.151-.055l.087.034c.02.023.043.022.037.066.02,0,.043,0,.063,0a.783.783,0,0,0,.019.082c-.028.017-.028.034-.049.053.043,0,.064.026.1.035-.02.109-.383.1-.153.209.143.07.348-.021.5,0-.007.02-.008.045-.014.063.074-.007.1.007.122.069l.029.006c.032.352-.538-.034-.585.237-.177-.2-.128.118-.228.171s-.16-.05-.239-.066-.155.02-.224,0c-.137-.043-.2-.164-.31-.244-.094-.065-.116-.008-.162-.1-.018-.038.137-.089-.009-.119m5.643,14.146q-.3.221-.618.415a.111.111,0,0,0-.111-.041c-.024.051-.089.051-.139.077-.049-.082-.115-.045-.184-.03a.534.534,0,0,1-.326.282c-.114.026-.095-.016-.2-.032a.306.306,0,0,0-.128.026c-.047.032-.032.064-.069.09-.062.045-.13.047-.2.09a1.011,1.011,0,0,1-.2.136c-.1.039-.2.032-.3.076a1.6,1.6,0,0,0-.264.089.19.19,0,0,0-.124-.043c0,.019-.007.046,0,.066-.06,0-.088.05-.136.083-.028.019-.055.008-.082.031a.152.152,0,0,0-.054.07c.073.015.042.042.03.092l0,0c-.111.029-.224.057-.337.083a.088.088,0,0,1-.027-.038.618.618,0,0,1-.115.069l-.1.021a.577.577,0,0,0-.128-.046c-.111-.017-.135.039-.218.068-.13.044-.266-.042-.391-.012-.01-.105-.112-.091-.1.012a.275.275,0,0,0-.151.023.171.171,0,0,0-.17,0c-.082-.082-.273.024-.414.123-.079,0-.158,0-.238,0a9.359,9.359,0,0,1-6.638-2.779.247.247,0,0,0-.155-.181c.02-.13-.1-.189-.075-.322a.46.46,0,0,1-.2-.141.557.557,0,0,1-.09-.239c-.01-.032-.067-.053-.078-.1,0,0,.028-.1.03-.106.028-.1.008-.122.121-.174s.141.046.19-.085c.018-.045-.032-.168-.055-.222-.074-.167-.074-.273-.273-.287-.082-.056-.044-.106-.072-.184a3.038,3.038,0,0,1-.118-.345c-.015-.061,0-.174-.033-.226s-.1-.038-.144-.08c-.138-.151-.044-.157.039-.247a.284.284,0,0,0,.082-.136s-.037-.045-.028-.072.069-.034.08-.055a.906.906,0,0,0,.146-.356c.009-.137-.077-.219-.091-.349-.016-.152.057-.2-.108-.324-.08-.059-.29-.086-.309-.174-.12-.026-.291.141-.294-.069-.192-.058-.174.189-.341.15-.039-.106-.158-.368-.276-.4-.021-.112.128-.409-.1-.363,0-.061,0-.124-.005-.185-.048-.03-.037-.013-.049-.072-.041-.211.1-.55-.135-.7-.1-.061-.214.03-.321-.047a9.35,9.35,0,0,1,1.646-5.755,2.374,2.374,0,0,0,.4-.509c.082-.107.326-.443.483-.344-.006.05-.082.187-.036.235s.16-.039.209-.048a1.08,1.08,0,0,0,.016.332c.154.02.155-.158.17-.264a.842.842,0,0,1,.107-.334.974.974,0,0,0,.132-.253,1.3,1.3,0,0,1,.081-.312,3.555,3.555,0,0,1,.394-.495c.072-.089.17-.149.245-.23.015-.016.026-.033.04-.05.131-.094.263-.182.4-.269-.026.067,0,.084-.082.146s-.189.083-.172.193c.052,0,.1-.01.127.035.1-.007.179-.149.251-.068.091.1-.087.184-.069.266.024.11.182-.091.2-.139a1.57,1.57,0,0,1,.105-.287,2.708,2.708,0,0,1,.292-.263.773.773,0,0,1,.249-.175,3.334,3.334,0,0,0,.344-.164c.069-.042.145-.133.23-.123,0,0,.012.022.013.024.051-.043.122-.081.174-.118s.109-.1.152-.126a4.8,4.8,0,0,1,.516-.23.507.507,0,0,0,.118-.084,9.265,9.265,0,0,1,2.555-.356l.082,0c.12.178-.21.114-.159.254-.061.027-.3-.034-.143.13-.012.007-.034.008-.043.016.022.172.157.116.291.136.165.024.251.132.084.241.061.083.087.224-.047.24-.054-.157-.1.02-.153.007s-.116-.06-.046-.144a.476.476,0,0,1-.238-.034c.018-.009.053-.039.07-.048-.055-.006-.173.036-.21,0-.069-.065.015-.111.072-.123a.657.657,0,0,1-.208-.055c.052-.051.132-.074.178-.139-.059-.071-.226-.05-.309-.055a1.7,1.7,0,0,0-.333-.049.83.83,0,0,0-.6.295c-.153.209-.374.2-.589.35-.141.1-.383.316-.36.495.012.017.029-.01.033-.009-.05.205.265.085.174-.089.037.018.062,0,.1.033.039-.051.2-.351.243-.108.093-.007.1-.1.2-.081a3.02,3.02,0,0,0-.012.426c.152.04.376-.153.31-.3.182-.043.03-.22.081-.337a.859.859,0,0,1,.124-.151c.055-.044.064-.1.17-.084.018.116-.1.171-.081.289.193.018.172.133.378.04.122-.055.251-.121.243.1.116.043.251-.016.362.02.046.016.057.069.091.084s.14.033.147.041c.254.3-.345.147-.373.168-.062-.125-.3-.028-.351.066-.068.137.11.2-.107.2-.063,0-.084-.041-.172-.009-.058.022-.088.082-.151.109s-.149.018-.207.035a2.173,2.173,0,0,1-.207.082c-.112,0-.2-.124-.345-.083-.106.03-.095.077-.174.135s-.143.022-.2.06c-.139.089-.072.253-.154.364-.036.048-.107.047-.148.095s-.037.124-.085.175a.574.574,0,0,1-.2-.03c-.087.124-.324-.039-.4.151.02,0,.045,0,.066.007-.026.026-.032.074-.048.1.3-.01.143.331-.02.42-.059-.061-.2.046-.276.066-.033.008-.042.052-.069.055s-.043-.041-.07-.038c-.084.011-.143.038-.2-.02a.609.609,0,0,0-.143.228.934.934,0,0,0-.073.307c-.025.173-.311.55.068.485a1.566,1.566,0,0,0,.263-.138c.034-.016.04-.068.069-.08s.074.011.1,0a.574.574,0,0,0,.174-.087c.07-.066.117-.141.185-.212a.711.711,0,0,0,.163-.252c.366.018.082-.257.313-.344.119-.046.183.068.3-.007.055-.035.04-.106.087-.14s.09-.013.139-.032c.118-.051.122-.089.262-.049.036.01.064.052.1.068s.093,0,.143.013c.1.033.447.306.476.024-.143-.007-.433-.056-.375-.259.333-.141.523.109.757.257a.7.7,0,0,1,.281.254c.061.134-.007.31.218.262a1.076,1.076,0,0,0,.03-.116c0-.009-.022-.024-.026-.034.143-.066.007-.1,0-.159-.006-.035-.059-.016-.041-.091.007-.03.11-.026.123-.068.031-.1-.142-.105.021-.174.091-.036.207-.007.158.1a.116.116,0,0,1,.069.14c.021,0,.043,0,.064.006.026.111-.043.31.086.363a.552.552,0,0,0,.005.08c.152.022.241-.057.378-.1a.987.987,0,0,1,.363-.086c.075.016.057.089.138.083.053,0,.107-.1.151-.122.216-.1.112.047.188.179a.414.414,0,0,1-.07-.017c.051.043.117.078.162.116a1.786,1.786,0,0,1-.26-.014c.064.017.238.064.23.187a.638.638,0,0,0,.1,0c0,.017,0,.035,0,.05a.545.545,0,0,0-.034.052c-.026,0-.056.006-.082.005,0,.076-.051.1-.12.1-.009-.014-.016-.031-.024-.047-.081.057-.462.223-.483.087-.055,0-.079-.029-.131,0a.162.162,0,0,0-.162-.1c-.049.064-.011.142-.046.193s-.122.068-.158.147a.112.112,0,0,1-.005.156c-.131-.007-.091-.134-.173-.184-.035-.022-.079.011-.118,0a1.194,1.194,0,0,0-.169-.074c-.34-.047-.012.354-.258.383-.034-.028-.639.274-.576.041-.182-.022-.017-.107-.062-.178-.057-.088-.168-.038-.247-.033-.1,0-.535.022-.382-.222-.022-.006-.042-.018-.066-.024.031-.139-.033-.184-.091-.287-.095-.045-.138.038-.222.065a1.042,1.042,0,0,1-.28.023c-.118,0-.412-.021-.483.13a.84.84,0,0,0-.463.245c-.118.087-.1.095-.228.056-.079-.025-.191-.144-.242-.007-.1-.02-.127.036-.187.089a1.583,1.583,0,0,0-.168.16c-.072.117-.082.367-.226.429.011.1-.11.191-.159.257a.569.569,0,0,1-.273.211c.007.091-.14.226-.209.286.022.006.042.02.065.024-.024.135-.224.254-.272.392.029-.006.07.009.1.006-.011.1.068.178.017.27-.128-.009-.162.122-.271.144.021.057-.013.052.046.087a.62.62,0,0,0-.085.308c.026.143.1.137.041.293-.074.206-.237.339-.243.55.02,0,.043.006.064.006a.209.209,0,0,1,.057.167c.024,0,.057.008.081.006a.194.194,0,0,1-.011.2.232.232,0,0,0,.084.123c.007-.018.028-.045.038-.064.172-.026.228.249.312.36a1.681,1.681,0,0,1,.134.209c.04.068.053.168.086.224.049.082.126.088.188.155.083.091.041.166.193.191s.4-.048.4-.223c.1-.026.13.066.205.067s.107-.033.19-.034c.119,0,.273.134.312-.1.107,0,.152-.094.223-.153s.2-.073.274-.13c.117-.1.138-.476.311-.253.006.016,0,.03.006.047.178-.022.249.221.3.335.021.043.043.231.055.239.092.058.208-.045.21-.136.076-.021.1.046.167.028s.084-.08.16-.1a.381.381,0,0,1,.194.012c.112.051.04.041.1.126a.681.681,0,0,1,.157.328c.014.154-.1.283-.1.432a.328.328,0,0,0,.16.289c.092.08.133.151.237.233s.7.151.469.355c.239.009.053.157.114.267a.119.119,0,0,0,.014.024c-.061.112-.07.259.108.286a1.553,1.553,0,0,0,0,.187c0,.028-.059.047-.054.067.009.041.082.069.084.093a.416.416,0,0,1-.122.3c-.092.12-.17.153-.216.3-.026.082-.036.071-.036.152,0-.008.031.212.031.211.043.1.243.155.342.195.143.057.178.155.276.207.057.03.13,0,.194.013s.109.056.173.069c.169.034.293-.011.138.156-.047.052-.137.035-.134.136.179.085-.2.273-.041.422.061.058.183.02.242.081s0,.2.122.264a.538.538,0,0,1,0,.081c.057.034.031.017.07.069a.421.421,0,0,1,.249.2c.036.014.018.035.043.083.008.015-.024.056-.014.082s.059.013.066.034a.69.69,0,0,1,.037.28c.137.016.28.041.276.206.137.018.11-.136.149-.222a.914.914,0,0,1,.155-.213c.1-.119.034-.089.195-.134.1-.028.2-.032.21-.17a1.431,1.431,0,0,0,.575-.205.5.5,0,0,0,.251-.181c.086-.134.013-.146.032-.269-.165-.061.027-.264-.168-.3.058-.2.407-.07.433-.252a.586.586,0,0,0,.287-.165.241.241,0,0,0,.055-.291c-.027-.055-.076-.1-.1-.154s.021-.051-.047-.124c-.085-.089-.222-.055-.249-.186-.036-.17.163-.153.281-.188.19-.061.151-.145.272-.278.043-.049.13-.049.16-.091.043-.057.015-.157.05-.218s.093-.061.122-.141a.539.539,0,0,0,.03-.152c-.029-.03.016-.2,0-.279-.019-.126-.1-.22-.055-.343-.024-.006-.04-.018-.063-.024.07-.189-.122-.2-.245-.239h-.007a.184.184,0,0,0-.015-.028.973.973,0,0,0-.152-.191c-.064-.066-.152-.078-.176-.173-.093-.03-.518.051-.339-.19.06-.079.182-.037.256-.073.114-.056.085-.051.124-.187.036.016.095,0,.132.011.048-.1-.007-.249.04-.343.023-.045.115-.079.152-.12a.374.374,0,0,0,.088-.155.7.7,0,0,1,.185-.276.311.311,0,0,0,.141-.291c-.025,0-.057-.007-.081,0-.011-.094.078-.13.086-.219.227-.045.1-.223.17-.349.035-.063.144-.069.17-.124.034-.072-.052-.162-.028-.253a.415.415,0,0,0,.358-.384c-.014-.007-.032-.012-.048-.019-.005-.173.141-.322.176-.5.03-.153.138-.414.061-.55-.171-.027-.1.181-.173.253-.085.087-.272-.025-.276.139-.154.017-.189.226-.33.276s-.359-.056-.361.19c-.165-.02-.606.243-.669-.011.08-.034.433-.226.137-.247a.19.19,0,0,0-.022-.184c-.2-.029-.249.24-.362-.037-.067,0-.119.011-.185.013.009-.165-.03-.169-.124-.271-.06-.066-.046-.006-.086-.109a1.9,1.9,0,0,1-.037-.253.467.467,0,0,1-.26-.1c-.035-.041-.007-.116-.033-.143-.042-.045-.106-.029-.153-.051-.164-.079-.328-.109-.5-.194.069-.177-.215-.124-.293-.172-.172-.107-.093-.2.032-.256.1-.041.307.018.254-.081-.08-.15-.22-.031-.339-.06-.069-.125.1-.2.261-.278.089.043.157.175.2.23s.19.13.175.239a.193.193,0,0,1,.208.121,1.382,1.382,0,0,1,.637.228c.107.047.608.223.607.29.226.025.173.207.139.364.174.009-.052.272.17.348a.711.711,0,0,0,.5-.07,2.112,2.112,0,0,1,.294-.085c.049-.013.112-.006.155-.039.08-.063.018-.071.051-.116.093-.127.264-.2.383-.33-.1-.105.085-.234.116-.347-.192,0-.155-.215-.12-.341-.029.01-.089,0-.116.012,0-.062.165-.544-.086-.312.008-.155-.082-.082-.16-.1-.13-.032-.086.028-.135-.12-.039-.11-.087-.356-.258-.308-.05.124-.023.353-.245.326-.074-.009-.071-.091-.138-.105-.089-.02-.108.042-.195,0s-.17-.226-.237-.3c-.089-.089-.289-.112-.209-.29-.177-.024-.078-.324.107-.264.124.042.1.258.307.176.008.131,0,.154.072.224.057.051.13.005.176.117.129.039.194-.105.322-.1a.817.817,0,0,0,.231.189,1.056,1.056,0,0,0,.357,0c.062-.026.038-.1.093-.132s.1.009.151,0c.107-.022.291-.108.246.116a1.1,1.1,0,0,1,.261.043c.159.009.123-.034.235.083-.02.176.494.21.62.19.077.085.224.057.2.2.118.05.014.113.045.193s.084.066.174.143c.022.019.03.077.037.082a.569.569,0,0,0,.1.05.319.319,0,0,1,.072.239.362.362,0,0,1,.273.367c0,.078-.053.145-.021.212.051.1.12.049.19.1.163.128.068.273.264.359a.586.586,0,0,1,.328.243.111.111,0,0,0,.021-.213.327.327,0,0,0-.05-.222c-.047-.057-.136-.006-.161-.1-.014-.049.063-.143.066-.2s-.036-.1-.019-.18c.041-.172.172-.188,0-.338-.044-.039-.132-.057-.168-.112s-.019-.165-.041-.217c-.2-.039.006-.215-.087-.328-.061-.074-.278-.081-.355-.146a.516.516,0,0,1-.089-.151c-.033-.055-.13-.064-.084-.169.025-.059.118-.031.151-.089s-.005-.151.02-.223c.025,0,.056-.008.082,0,.005-.1-.037-.266.12-.22-.018.128.02.338.174.33.068.138-.094.211.032.329.051.049.138,0,.182.06.03.038.014.145.016.192.153.065.179.253.335.262a9.33,9.33,0,0,1-2.814,11.742" transform="translate(-57.702 -96.419)" fill="#ffdc48"/>
        <path id="Trazado_149747" data-name="Trazado 149747" d="M186.977,302.071c.062.036.272-.144.316-.2s.043-.132.117-.178c.022-.014.13,0,.17-.014-.032.135-.264.237-.279.36-.02.148.087.069.143.034.03-.017.045-.209.124-.054.1-.035.26-.112.29-.222a.15.15,0,0,0,.153.066c.024-.1.144-.11.126-.237.014.01.047.016.067.035a.125.125,0,0,0-.015-.171c.112-.024.137-.134.15-.226-.117-.036-.148.068-.236.1,0-.021,0-.043-.005-.065a1.536,1.536,0,0,0-.169.012.463.463,0,0,1,0-.113c.007-.008.034-.016.046-.024s-.018-.028-.013-.045c.054-.041.041-.06.047-.12a.44.44,0,0,0-.034-.036c-.045.016-.149.058-.166.068-.037.021-.113-.02-.11.077a.929.929,0,0,0-.24.078c-.084.143.13.085.066.2a.267.267,0,0,0-.238-.024.5.5,0,0,1-.17.047c.038.133.008.117-.05.209-.016.024-.064.019-.087.05s.017.1-.007.132c-.082.113-.4.13-.288.331.1-.089.206.043.291-.07" transform="translate(-60.51 -97.564)" fill="#ffdc48"/>
        <path id="Trazado_149748" data-name="Trazado 149748" d="M194.6,320.681a.243.243,0,0,0-.026-.048l-.009,0Z" transform="translate(-63.072 -103.936)" fill="#ffdc48"/>
        <path id="Trazado_149749" data-name="Trazado 149749" d="M200.436,316.393c.02-.157.061-.176-.138-.208a.165.165,0,0,1,.168-.191c-.022-.044,0-.088-.014-.132.174,0,.137-.231.152-.331.011-.065.046-.114.053-.191s-.028-.139-.022-.185c.013-.124.114-.649-.131-.716a.7.7,0,0,0-.089-.1l-.1.018c.147.189.067.2-.016.364-.057.107.009.283-.065.384-.043.057-.145.068-.2.116a.84.84,0,0,0-.124.189c-.026.053-.04.152-.068.191-.056.08-.141.087-.2.146-.142.132-.091.228-.057.377a.929.929,0,0,1,.005.393c-.014.066-.051.141-.07.207,0,.006-.045.112-.049.09.006.037.067.08.068.1a1.3,1.3,0,0,1-.07.4c-.03.116-.007.3-.079.4a.238.238,0,0,0,.282-.07c.033-.034.04-.1.068-.126s.112-.031.141-.068,0-.116.032-.153.116-.022.162-.064c.1-.089.043-.169.065-.293.035-.206.25-.221.43-.321.08-.042.2-.085.143-.185s-.174-.012-.274-.037" transform="translate(-64.634 -101.898)" fill="#ffdc48"/>
        <path id="Trazado_149750" data-name="Trazado 149750" d="M187.231,300.736s.226-.105.241-.117c.076-.059.022-.182.17-.159.082-.149.17-.232.247-.374.043-.008.056-.037.085-.055l.085-.086a1.92,1.92,0,0,1-.431.2c-.076.018-.133,0-.206.021-.172.045-.086.054-.157.173-.045.074-.273.366-.034.394" transform="translate(-60.659 -97.231)" fill="#ffdc48"/>
        <path id="Trazado_149751" data-name="Trazado 149751" d="M204.012,309.429c0-.024.088-.026.1-.059a.425.425,0,0,0,.009-.122,1.69,1.69,0,0,0-.095-.423c-.034-.1-.182-.277-.3-.266-.005-.017,0-.033-.005-.048a.646.646,0,0,0-.115-.024c-.033-.026.006,0,.014-.013l-.07-.018c.036.068.034.139.069.208.026.053.107.1.135.154a1.98,1.98,0,0,1,.072.383c.04.149.059.28.107.413a.861.861,0,0,1,.035.429.157.157,0,0,0,.116.018.646.646,0,0,0,.019-.429c-.022-.059-.092-.139-.084-.2" transform="translate(-65.981 -99.991)" fill="#ffdc48"/>
        <path id="Trazado_149752" data-name="Trazado 149752" d="M214.718,317.751,209.8,289.966h47.89l4.914,27.785Z" transform="translate(-68.011 -93.997)" fill="#511818"/>
        <path id="Trazado_149753" data-name="Trazado 149753" d="M216.284,319.61l-6.48-29.643h47.89l3.677,29.643Z" transform="translate(-68.011 -93.997)" fill="#d3d3d3"/>
        <path id="Trazado_149754" data-name="Trazado 149754" d="M215.48,321.275,209.8,289.966h47.89l2.872,31.309Z" transform="translate(-68.011 -93.997)" fill="#e5e5e5"/>
        <path id="Trazado_149755" data-name="Trazado 149755" d="M214.189,322.621,209.8,289.966h47.89l1.582,32.655Z" transform="translate(-68.011 -93.997)" fill="#f2f2f2"/>
        <rect id="Rectángulo_41590" data-name="Rectángulo 41590" width="47.89" height="33.324" transform="translate(141.793 195.969)" fill="#892c2c"/>
      </g>
    </g>
    <text id="PASSPORT-2" data-name="PASSPORT" transform="translate(168.371 192.573) rotate(90)" fill="#ffdc48" font-size="4" font-family="BebasNeueRegular, Bebas Neue"><tspan x="0" y="0" letter-spacing="-0.083em">P</tspan><tspan y="0">ASSPO</tspan><tspan y="0" letter-spacing="0.009em">R</tspan><tspan y="0">T</tspan></text>
    <g id="Grupo_212474" data-name="Grupo 212474" transform="translate(-14.599)">
      <g id="Grupo_212473" data-name="Grupo 212473" clip-path="url(#clip-path-2)">
        <path id="Trazado_149756" data-name="Trazado 149756" d="M240.17,317.948a10.181,10.181,0,0,0,4.164-8.2,10.144,10.144,0,0,0-16.125-8.185,10.182,10.182,0,0,0-4.163,8.2,10.143,10.143,0,0,0,16.124,8.184m1.16-6.425c.084.012.224.08.26-.035.1.059.118.149.253.1.008.122.122.174.144.289.024,0,.057.008.08.005a1.984,1.984,0,0,1,0,.253c-.029.016-.019-.012-.031-.014l-.1.016c-.2.109-.268-.293-.437-.264-.24.042-.247.4-.257.59a.162.162,0,0,0-.188.082c-.121-.226-.248.146-.244.246-.024,0-.057.009-.081.006,0,.09.06.167.011.253-.219-.047-.133.218-.357.075a.25.25,0,0,1-.107.207c-.243-.249-.084-.757.039-1.019.09-.189.158-.141.341-.176s.207-.239.378-.227c.009-.107.041-.221.173-.191-.028-.128.055-.151.126-.2m-.519-1.917a.417.417,0,0,0,.082-.005c.012-.1-.11-.307.017-.328a3.189,3.189,0,0,1,.006-.342c.209.049.214.251.239.431.022.159.072.351.1.5.009.047.055.182.052.205-.006.082-.064.13-.087.205-.03.092-.014.116.035.2.021.036.183.08.055.15l-.035.086c-.023.02-.022.044-.066.038,0,.02,0,.043-.005.063-.026,0-.058.013-.08.018-.018-.028-.034-.028-.053-.047,0,.041-.028.062-.036.1-.109-.021-.1-.383-.209-.154-.07.145.022.349,0,.5-.02-.007-.046-.008-.063-.014.007.074-.008.1-.069.122a.214.214,0,0,0-.006.028c-.353.032.034-.538-.238-.583.2-.178-.118-.129-.17-.228s.049-.162.066-.24-.02-.155,0-.225c.043-.136.164-.2.243-.309.066-.093.009-.117.1-.162.037-.018.088.137.118-.009m-14.145,5.643q-.222-.3-.415-.617a.115.115,0,0,0,.041-.113c-.051-.023-.052-.089-.078-.138.082-.049.045-.114.032-.184a.533.533,0,0,1-.285-.325c-.025-.114.017-.095.032-.2a.292.292,0,0,0-.026-.126c-.032-.048-.063-.033-.09-.069-.045-.063-.047-.131-.089-.2a1.129,1.129,0,0,1-.137-.2c-.039-.1-.031-.2-.075-.3-.034-.074-.042-.2-.088-.264a.2.2,0,0,0,.043-.126c-.019,0-.047-.006-.066,0,0-.06-.05-.089-.082-.136-.018-.028-.009-.055-.031-.083a.152.152,0,0,0-.07-.053c-.015.072-.042.041-.092.03l0,0c-.03-.112-.057-.225-.083-.339a.092.092,0,0,1,.037-.026.582.582,0,0,1-.068-.116c-.007-.034-.015-.067-.022-.1a.491.491,0,0,0,.046-.128c.017-.112-.039-.134-.068-.218-.045-.13.042-.265.012-.39.1-.011.09-.112-.012-.1a.258.258,0,0,0-.023-.151.17.17,0,0,0,0-.17c.082-.082-.024-.273-.123-.414,0-.079,0-.158,0-.237a9.361,9.361,0,0,1,2.779-6.638.247.247,0,0,0,.182-.155c.13.02.189-.1.322-.075a.474.474,0,0,1,.141-.205.6.6,0,0,1,.239-.09c.031-.009.053-.066.1-.079,0,0,.1.03.107.03.1.03.122.009.174.122s-.046.141.085.189a.466.466,0,0,0,.22-.056c.167-.074.274-.074.289-.272.055-.082.106-.044.183-.072a3.241,3.241,0,0,1,.345-.118c.061-.015.175,0,.226-.033s.037-.105.08-.145c.151-.137.157-.044.247.039a.275.275,0,0,0,.135.083s.045-.038.073-.028.034.07.054.08a.906.906,0,0,0,.355.146c.139.01.221-.076.349-.091.153-.016.2.057.325-.108.058-.08.086-.291.174-.31.026-.121-.141-.291.069-.293.058-.192-.188-.174-.15-.339.105-.04.369-.16.4-.277.112-.022.409.126.362-.1l.185,0c.03-.048.014-.037.072-.049.211-.041.55.1.7-.134.063-.1-.03-.216.047-.322A9.362,9.362,0,0,1,239.5,302.1a2.417,2.417,0,0,0,.509.4c.106.082.443.326.343.483-.049-.007-.186-.084-.234-.037s.039.161.047.208a1.1,1.1,0,0,0-.33.017c-.02.153.158.155.264.171a.829.829,0,0,1,.333.105.967.967,0,0,0,.253.132,1.253,1.253,0,0,1,.312.082,3.609,3.609,0,0,1,.5.393c.087.072.149.171.23.246l.049.039c.093.131.183.264.268.4-.066-.026-.084,0-.145-.083s-.083-.189-.194-.172c0,.051.011.1-.034.128.007.1.149.178.067.251-.1.09-.185-.087-.265-.07-.111.024.091.184.139.205a1.46,1.46,0,0,1,.287.106,2.569,2.569,0,0,1,.263.292.736.736,0,0,1,.175.249,3.71,3.71,0,0,0,.164.344c.043.068.133.145.122.231l-.023.011c.042.052.08.123.117.175s.1.108.127.151a5.017,5.017,0,0,1,.23.516.469.469,0,0,0,.084.119,9.268,9.268,0,0,1,.356,2.555c0,.027,0,.054,0,.082-.177.119-.114-.211-.254-.159-.026-.061.034-.3-.13-.143-.007-.012-.008-.034-.016-.043-.172.022-.116.157-.134.291-.025.166-.132.251-.242.084-.082.06-.224.086-.241-.047.159-.056-.018-.1-.006-.154s.059-.116.143-.045a.48.48,0,0,1,.034-.239c.009.018.04.054.048.07.006-.055-.037-.173,0-.21.064-.069.111.016.122.072a.64.64,0,0,1,.055-.209c.051.052.073.132.139.178.071-.06.049-.226.055-.31a1.589,1.589,0,0,0,.047-.332.826.826,0,0,0-.294-.6c-.209-.154-.2-.374-.349-.589-.1-.141-.316-.383-.5-.359-.016.012.011.029.009.034-.206-.051-.086.264.089.173-.018.036,0,.062-.032.1.049.04.35.2.107.243.007.093.1.1.081.2a3.029,3.029,0,0,0-.427-.011c-.039.151.153.376.3.31.042.182.22.03.336.081a.844.844,0,0,1,.152.124c.045.055.1.064.084.17-.115.018-.17-.1-.289-.081-.018.193-.133.174-.041.378.055.122.122.252-.1.243-.043.117.016.25-.02.362-.016.047-.07.057-.085.09s-.032.141-.041.148c-.3.253-.147-.347-.168-.373.124-.063.028-.3-.066-.351-.137-.068-.2.111-.2-.107,0-.063.042-.082.009-.172-.022-.057-.082-.087-.108-.15s-.02-.149-.035-.207a2.021,2.021,0,0,1-.082-.208c0-.112.123-.2.083-.345-.03-.107-.077-.095-.134-.174s-.022-.144-.061-.2c-.087-.139-.252-.07-.363-.153-.047-.036-.047-.108-.094-.148s-.124-.036-.175-.086a.565.565,0,0,1,.03-.2c-.124-.087.038-.323-.151-.4a.541.541,0,0,1-.007.066c-.026-.026-.073-.032-.1-.048.01.3-.33.143-.42-.021.062-.058-.046-.194-.066-.275-.008-.033-.051-.042-.054-.069s.041-.043.038-.07c-.011-.084-.038-.143.018-.2a.613.613,0,0,0-.228-.143.981.981,0,0,0-.307-.074c-.174-.024-.549-.31-.484.07a1.6,1.6,0,0,0,.137.262c.016.036.068.041.08.07s-.01.076,0,.1a.541.541,0,0,0,.087.173c.066.07.141.118.212.185a.7.7,0,0,0,.252.164c-.016.366.257.081.345.312.046.12-.068.184.007.3.034.055.1.04.14.086s.012.091.032.14c.051.118.09.122.049.262-.01.037-.053.064-.069.1s0,.093-.012.143c-.034.1-.307.447-.025.477.007-.143.057-.433.259-.375.142.333-.109.524-.256.758a.707.707,0,0,1-.255.28c-.134.061-.308-.007-.262.218a.965.965,0,0,0,.116.029c.009,0,.024-.02.033-.024.066.143.1.007.16,0,.037-.006.017-.06.092-.041.031.007.026.11.068.122.1.03.105-.142.173.021.037.091.008.208-.1.159a.117.117,0,0,1-.141.068c0,.021,0,.043-.005.064-.111.026-.31-.043-.363.087a.407.407,0,0,0-.081,0c-.022.151.058.241.1.376a.994.994,0,0,1,.085.365c-.015.074-.089.056-.082.137,0,.053.1.107.122.151.1.216-.045.111-.178.188a.275.275,0,0,1,.018-.07c-.045.051-.078.117-.116.161a1.945,1.945,0,0,1,.013-.258c-.016.064-.064.237-.187.229a.731.731,0,0,0,0,.1.3.3,0,0,0-.049,0c-.02-.016-.027-.017-.053-.034,0-.026-.006-.056-.005-.081-.076,0-.1-.051-.1-.121.013-.009.03-.015.046-.024-.057-.08-.222-.46-.087-.482,0-.056.03-.079.006-.132a.165.165,0,0,0,.1-.161c-.065-.05-.143-.011-.193-.046s-.067-.122-.147-.158a.112.112,0,0,1-.157-.006c.007-.13.134-.091.184-.172.022-.034-.01-.079,0-.118a1.234,1.234,0,0,0,.074-.169c.047-.34-.354-.012-.382-.258.027-.035-.275-.639-.042-.577.022-.182.107-.017.178-.061.089-.058.038-.168.034-.247-.006-.1-.022-.535.221-.383.006-.022.019-.041.024-.064.139.031.184-.034.289-.092.045-.095-.038-.138-.066-.222a1.1,1.1,0,0,1-.022-.28c0-.118.02-.413-.13-.483a.839.839,0,0,0-.244-.464c-.087-.117-.095-.1-.056-.228.024-.08.143-.19.007-.242.02-.1-.036-.127-.089-.187a1.834,1.834,0,0,0-.16-.168c-.118-.072-.368-.08-.431-.226-.1.012-.19-.11-.257-.158a.564.564,0,0,1-.21-.274c-.092.008-.228-.14-.287-.208-.006.021-.021.041-.026.064-.134-.024-.253-.224-.391-.272.006.03-.01.07-.006.1-.1-.011-.178.068-.27.016.008-.128-.123-.161-.144-.27-.057.022-.053-.014-.088.046a.607.607,0,0,0-.307-.085c-.144.026-.137.1-.295.04-.2-.073-.339-.236-.549-.243,0,.021,0,.044,0,.064a.218.218,0,0,1-.168.057c0,.024-.009.058-.006.081a.194.194,0,0,1-.2-.013.247.247,0,0,0-.123.084c.019.009.045.029.065.039.025.172-.25.227-.36.312a1.551,1.551,0,0,1-.209.134c-.068.039-.168.053-.224.086-.082.05-.087.126-.154.187-.091.084-.166.043-.191.193s.048.405.222.4c.028.1-.064.13-.066.206s.034.107.034.19c0,.119-.134.274.1.312,0,.107.094.151.153.223s.074.2.13.272c.1.119.476.139.253.313-.016.005-.03,0-.047,0,.022.178-.22.251-.335.305-.043.02-.232.042-.239.055-.057.091.046.208.138.21.02.076-.047.1-.029.167s.082.084.1.159a.384.384,0,0,1-.012.195c-.051.112-.042.04-.126.1a.69.69,0,0,1-.328.159c-.155.013-.283-.1-.432-.106s-.207.066-.289.161-.151.133-.233.237c-.1.12-.151.7-.355.47-.009.239-.157.053-.268.114a.1.1,0,0,0-.024.014c-.112-.061-.259-.071-.286.108a1.567,1.567,0,0,0-.188,0c-.027,0-.046-.058-.067-.053-.04.009-.07.083-.092.084a.41.41,0,0,1-.3-.122c-.121-.092-.154-.17-.3-.216-.082-.026-.071-.036-.15-.036.007,0-.214.031-.212.031-.1.043-.155.245-.195.342-.056.143-.154.179-.207.276-.03.057,0,.13-.013.194s-.056.108-.07.173c-.034.169.011.293-.156.138-.051-.047-.034-.137-.135-.134-.084.18-.273-.2-.422-.042-.057.062-.02.184-.08.243s-.2,0-.264.121a.469.469,0,0,1-.081,0c-.035.056-.018.032-.07.069a.42.42,0,0,1-.2.249c-.014.036-.035.019-.083.044-.015.008-.057-.025-.082-.016s-.014.06-.033.067a.693.693,0,0,1-.28.036c-.018.138-.042.28-.207.276-.018.138.136.109.222.149a.894.894,0,0,1,.212.155c.119.1.089.034.134.194.027.1.032.2.17.21a1.432,1.432,0,0,0,.205.575.491.491,0,0,0,.181.251c.135.087.146.014.269.032.061-.164.265.027.3-.168.2.057.07.406.252.432a.577.577,0,0,0,.164.287.241.241,0,0,0,.291.055c.056-.026.1-.075.153-.1s.051.021.124-.047c.091-.085.055-.221.187-.249.171-.037.152.162.189.281.059.191.145.151.278.272.049.043.049.129.091.16s.157.016.219.051.06.093.14.122a.59.59,0,0,0,.153.03c.03-.028.2.016.279,0,.126-.018.22-.095.342-.055.006-.024.018-.04.024-.064.189.071.2-.122.239-.244l0-.007a.15.15,0,0,0,.028-.014,1,1,0,0,0,.191-.152c.066-.066.078-.153.174-.176.03-.093-.051-.518.189-.339.079.06.038.182.073.255.057.114.051.084.188.123-.015.037,0,.095-.011.133.1.047.249-.007.344.04.045.022.078.115.12.151a.362.362,0,0,0,.155.088.686.686,0,0,1,.277.186.314.314,0,0,0,.29.14c0-.024.009-.056.006-.082.093-.009.131.077.219.087.045.228.222.1.349.169.063.036.068.145.123.17.072.035.161-.051.253-.026a.412.412,0,0,0,.384.356c.007-.014.013-.031.02-.046.172-.007.321.139.5.175.153.029.414.138.549.062.027-.173-.18-.106-.253-.175-.088-.084.025-.272-.138-.275-.018-.155-.227-.189-.276-.329s.055-.36-.191-.362c.021-.165-.241-.607.012-.669.034.079.225.433.248.137a.183.183,0,0,0,.183-.022c.028-.2-.24-.248.036-.362,0-.068-.01-.119-.012-.185.164.01.169-.03.27-.124.066-.059.006-.045.11-.086a1.968,1.968,0,0,1,.253-.037.472.472,0,0,1,.1-.261c.041-.034.116-.006.145-.032.045-.043.027-.106.05-.153.08-.164.109-.328.193-.5.178.069.124-.214.174-.293.105-.172.2-.091.255.032.041.1-.018.307.082.254.149-.079.03-.219.058-.338.126-.069.2.1.28.262-.043.088-.176.156-.23.2s-.13.189-.239.175a.194.194,0,0,1-.121.208,1.4,1.4,0,0,1-.228.637c-.048.106-.222.608-.289.608-.025.225-.207.172-.364.139-.009.173-.272-.053-.348.17a.707.707,0,0,0,.069.5,2.132,2.132,0,0,1,.086.294c.012.049.005.112.039.155.062.08.071.018.117.052.126.093.2.264.328.382.107-.1.235.085.347.118,0-.193.214-.157.341-.122-.01-.03,0-.089-.012-.117.062,0,.545.165.311-.085.156.008.083-.083.1-.16.032-.131-.028-.087.12-.137.11-.039.355-.086.308-.257-.124-.05-.353-.024-.326-.246.01-.075.091-.07.105-.138.02-.089-.043-.109,0-.195s.226-.17.295-.237c.089-.089.112-.29.29-.211.024-.177.324-.078.264.107-.041.124-.258.1-.176.307-.131.008-.154,0-.223.073-.052.058-.005.13-.117.176-.039.129.1.194.1.322a.827.827,0,0,0-.188.231,1.04,1.04,0,0,0,0,.357c.026.062.1.038.132.093s-.009.1,0,.152c.022.1.108.289-.116.245a1.142,1.142,0,0,1-.043.26c-.009.16.033.124-.084.235-.176-.02-.209.5-.19.62-.084.076-.056.224-.2.2-.05.119-.112.014-.193.045s-.066.082-.143.174c-.02.022-.077.03-.082.036a.63.63,0,0,0-.051.105.32.32,0,0,1-.239.072.361.361,0,0,1-.366.273c-.078,0-.146-.054-.212-.022-.1.051-.049.121-.1.191-.128.163-.272.07-.358.264a.6.6,0,0,1-.244.328.11.11,0,0,0,.213.02.323.323,0,0,0,.222-.049c.057-.047.005-.137.1-.162.049-.013.141.063.2.066s.105-.036.181-.019c.172.041.188.172.337,0,.039-.043.057-.131.112-.168s.164-.02.218-.042c.038-.2.214.007.327-.087.074-.062.081-.278.147-.355a.51.51,0,0,1,.151-.089c.055-.035.063-.13.169-.084.057.025.03.118.089.151s.151-.006.223.019c0,.026.007.057,0,.082.1.005.267-.037.22.12-.128-.017-.337.02-.328.172-.139.069-.212-.092-.331.034-.048.049,0,.137-.06.182-.037.03-.143.014-.191.016-.066.153-.253.18-.264.335a9.329,9.329,0,0,1-11.741-2.814" transform="translate(-72.628 -97.125)" fill="#ffdc48"/>
        <path id="Trazado_149757" data-name="Trazado 149757" d="M248.87,308.591c-.036.062.144.272.2.316s.132.043.176.116c.014.023,0,.131.014.17-.135-.031-.236-.263-.359-.278-.149-.02-.07.087-.035.144.017.029.21.045.053.122.037.1.114.261.222.291a.152.152,0,0,0-.064.152c.1.024.11.143.237.128-.01.012-.017.047-.034.066a.124.124,0,0,0,.171-.015c.024.113.133.137.226.151.036-.117-.068-.149-.1-.237.02,0,.043,0,.064,0a1.385,1.385,0,0,0-.011-.17.083.083,0,0,1,.138.049c.018,0,.028-.018.045-.013.043.054.061.041.122.046l.035-.033c-.015-.045-.057-.151-.066-.168-.022-.036.019-.112-.076-.11a.957.957,0,0,0-.078-.239c-.144-.084-.085.13-.206.066a.262.262,0,0,0,.024-.239.528.528,0,0,1-.047-.17c-.133.038-.116.008-.21-.051-.024-.015-.019-.064-.051-.087s-.1.018-.132-.006c-.112-.082-.128-.4-.329-.288.088.1-.044.205.07.291" transform="translate(-80.652 -99.933)" fill="#ffdc48"/>
        <path id="Trazado_149758" data-name="Trazado 149758" d="M230.8,316.217a.221.221,0,0,0,.049-.025.022.022,0,0,0,0-.01Z" transform="translate(-74.816 -102.495)" fill="#ffdc48"/>
        <path id="Trazado_149759" data-name="Trazado 149759" d="M233.484,322.05c.157.02.176.062.208-.138a.165.165,0,0,1,.19.168c.045-.022.089,0,.134-.013,0,.174.23.136.331.152a1.876,1.876,0,0,0,.189.053c.068,0,.14-.028.186-.022.124.013.647.114.716-.131a.654.654,0,0,0,.1-.089l-.016-.1c-.189.147-.2.068-.364-.016-.108-.057-.284.009-.385-.066-.057-.042-.069-.145-.116-.2a.8.8,0,0,0-.191-.124c-.052-.027-.149-.04-.19-.069-.082-.055-.087-.139-.146-.2-.132-.143-.229-.09-.377-.057a.919.919,0,0,1-.393,0c-.068-.014-.14-.051-.207-.069-.005,0-.112-.047-.091-.049-.037.006-.079.067-.095.068a1.3,1.3,0,0,1-.4-.07c-.116-.03-.3-.007-.4-.08a.24.24,0,0,0,.068.283c.035.034.1.041.126.068s.032.112.068.141.116,0,.153.033.022.114.064.159c.088.1.168.043.293.066.206.034.222.251.32.43.043.078.085.2.185.143s.012-.174.038-.274" transform="translate(-75.255 -104.057)" fill="#ffdc48"/>
        <path id="Trazado_149760" data-name="Trazado 149760" d="M250.388,308.845s.1.226.118.241c.058.076.181.022.158.169.149.083.232.17.374.249.007.042.037.055.055.083l.087.086a1.952,1.952,0,0,1-.2-.432c-.017-.076,0-.133-.022-.207-.045-.172-.053-.087-.171-.155-.076-.045-.368-.274-.395-.034" transform="translate(-81.167 -100.082)" fill="#ffdc48"/>
        <path id="Trazado_149761" data-name="Trazado 149761" d="M241.3,325.626c.024,0,.028.088.059.1a.481.481,0,0,0,.122.009,1.709,1.709,0,0,0,.424-.094c.1-.034.277-.182.266-.305.016,0,.032,0,.047,0a.71.71,0,0,0,.024-.116c.026-.033,0,.006.014.014l.016-.068c-.067.034-.139.033-.208.068-.053.026-.1.107-.155.135a2,2,0,0,1-.381.072c-.15.04-.279.059-.414.107a.86.86,0,0,1-.429.034.166.166,0,0,0-.018.117.659.659,0,0,0,.429.02c.06-.022.139-.093.2-.084" transform="translate(-78.015 -105.405)" fill="#ffdc48"/>
        <g id="Grupo_212466" data-name="Grupo 212466" transform="translate(134.382 200.225)" style="mix-blend-mode: multiply;isolation: isolate">
          <g id="Grupo_212465" data-name="Grupo 212465">
            <g id="Grupo_212464" data-name="Grupo 212464" clip-path="url(#clip-path-11)">
              <path id="Trazado_149762" data-name="Trazado 149762" d="M229.836,325.232h8.826V299.365a1.309,1.309,0,0,0-1.338-1.279H235.71v-.734a.208.208,0,0,0-.213-.2h-.16v-.718a.173.173,0,0,0-.176-.167h-3.075a.171.171,0,0,0-.175.167v.718h-.161a.208.208,0,0,0-.213.2v.734h-4.227v-.622a.1.1,0,0,0-.105-.1h-.079v-.354a.084.084,0,0,0-.085-.082h-1.514a.084.084,0,0,0-.086.082v.354h-.079a.1.1,0,0,0-.1.1v.622h-5.295a1.309,1.309,0,0,0-1.337,1.279v1.567a1.191,1.191,0,0,1-.2.77c-.2.252-.864.23-.864.23h-11.32v-.391a.208.208,0,0,0-.212-.2h-.161v-.718a.17.17,0,0,0-.176-.166h-3.075a.169.169,0,0,0-.174.166v.718h-.161a.208.208,0,0,0-.213.2v.391h-1.9a1.31,1.31,0,0,0-1.338,1.279v22.649h.018a1.315,1.315,0,0,0,1.32,1.11h29.66Z" transform="translate(-198.838 -296.264)" fill="#cecece"/>
            </g>
          </g>
        </g>
        <path id="Rectángulo_41593" data-name="Rectángulo 41593" d="M.25,0H3.077a.251.251,0,0,1,.251.251v1.8a.251.251,0,0,1-.251.251H.252A.252.252,0,0,1,0,2.048V.25A.25.25,0,0,1,.25,0Z" transform="translate(137.89 206.876)" fill="#307ca0"/>
        <path id="Trazado_149763" data-name="Trazado 149763" d="M208.448,306.1h-.53v2.3h.53a.17.17,0,0,0,.17-.169v-1.961a.169.169,0,0,0-.17-.17" transform="translate(-67.4 -99.228)" fill="#1f3b51"/>
        <path id="Rectángulo_41594" data-name="Rectángulo 41594" d="M.305,0H3.749a.307.307,0,0,1,.307.307V2.5a.3.3,0,0,1-.3.3H.305A.305.305,0,0,1,0,2.5V.305A.305.305,0,0,1,.305,0Z" transform="translate(137.525 207.776)" fill="#1f3b51"/>
        <path id="Rectángulo_41595" data-name="Rectángulo 41595" d="M.251,0H3.078a.251.251,0,0,1,.251.251v1.8a.25.25,0,0,1-.25.25H.251A.251.251,0,0,1,0,2.049V.251A.251.251,0,0,1,.251,0Z" transform="translate(166.53 202.617)" fill="#307ca0"/>
        <path id="Trazado_149764" data-name="Trazado 149764" d="M250.827,299.8H250.3v2.3h.531a.169.169,0,0,0,.17-.17v-1.961a.17.17,0,0,0-.17-.169" transform="translate(-81.137 -97.186)" fill="#1f3b51"/>
        <path id="Rectángulo_41596" data-name="Rectángulo 41596" d="M.306,0H3.749a.307.307,0,0,1,.307.307V2.5a.308.308,0,0,1-.308.308H.307A.307.307,0,0,1,0,2.5V.306A.306.306,0,0,1,.306,0Z" transform="translate(166.168 203.515)" fill="#1f3b51"/>
        <path id="Rectángulo_41597" data-name="Rectángulo 41597" d="M.123,0H1.515a.122.122,0,0,1,.122.122v.886a.124.124,0,0,1-.124.124H.123A.123.123,0,0,1,0,1.009V.123A.123.123,0,0,1,.123,0Z" transform="translate(160.243 203.293)" fill="#307ca0"/>
        <path id="Trazado_149765" data-name="Trazado 149765" d="M239.277,300.8h-.262v1.132h.262a.084.084,0,0,0,.083-.083v-.965a.084.084,0,0,0-.083-.084" transform="translate(-77.48 -97.51)" fill="#1f3b51"/>
        <path id="Rectángulo_41598" data-name="Rectángulo 41598" d="M.15,0h1.7A.15.15,0,0,1,2,.15V1.227a.151.151,0,0,1-.151.151H.151A.151.151,0,0,1,0,1.227V.15A.15.15,0,0,1,.15,0Z" transform="translate(160.063 203.736)" fill="#1f3b51"/>
        <path id="Trazado_149766" data-name="Trazado 149766" d="M236.247,302.542H219.374a1.3,1.3,0,0,0-1.3,1.3v1.593a1.256,1.256,0,0,1-.193.784c-.2.256-.841.233-.841.233h-16.9a1.3,1.3,0,0,0-1.3,1.3V330.6a1.3,1.3,0,0,0,1.3,1.3h36.109a1.3,1.3,0,0,0,1.3-1.3V303.842a1.3,1.3,0,0,0-1.3-1.3" transform="translate(-64.456 -98.074)" fill="#307ca0"/>
        <path id="Trazado_149767" data-name="Trazado 149767" d="M198.838,316.74V335.2a1.3,1.3,0,0,0,1.3,1.3h36.109a1.3,1.3,0,0,0,1.3-1.3V316.74Z" transform="translate(-64.456 -102.676)" fill="#ea7628"/>
        <rect id="Rectángulo_41599" data-name="Rectángulo 41599" width="38.71" height="0.916" transform="translate(134.382 231.785)" fill="#307ca0"/>
        <path id="Trazado_149768" data-name="Trazado 149768" d="M222.635,326.412a7.874,7.874,0,1,1-7.873-7.874,7.874,7.874,0,0,1,7.873,7.874" transform="translate(-67.066 -103.259)" fill="#1f3b51"/>
        <path id="Trazado_149769" data-name="Trazado 149769" d="M222.087,326.917a6.821,6.821,0,1,1-6.821-6.821,6.82,6.82,0,0,1,6.821,6.821" transform="translate(-67.571 -103.764)" fill="#bcbcbc"/>
        <path id="Trazado_149770" data-name="Trazado 149770" d="M221.349,327.6a5.4,5.4,0,1,1-5.4-5.4,5.4,5.4,0,0,1,5.4,5.4" transform="translate(-68.251 -104.444)" fill="#fff"/>
        <path id="Trazado_149771" data-name="Trazado 149771" d="M221.349,327.6a5.4,5.4,0,1,1-5.4-5.4,5.4,5.4,0,0,1,5.4,5.4" transform="translate(-68.251 -104.444)" fill="#e2e2e2"/>
        <rect id="Rectángulo_41600" data-name="Rectángulo 41600" width="8.296" height="3.752" transform="translate(159.463 205.926)" fill="#1f3b51"/>
        <rect id="Rectángulo_41601" data-name="Rectángulo 41601" width="6.076" height="2.747" transform="translate(160.572 206.429)" fill="#fff"/>
        <rect id="Rectángulo_41602" data-name="Rectángulo 41602" width="1.586" height="2.747" transform="translate(161.232 206.429)" fill="#efefef"/>
        <path id="Trazado_149772" data-name="Trazado 149772" d="M223.117,325.371a1.11,1.11,0,1,1-1.11-1.11,1.112,1.112,0,0,1,1.11,1.11" transform="translate(-71.607 -105.114)" fill="#fff"/>
        <path id="Trazado_149773" data-name="Trazado 149773" d="M215.062,333.191a1.11,1.11,0,1,1-1.11-1.11,1.109,1.109,0,0,1,1.11,1.11" transform="translate(-68.996 -107.649)" fill="#fff"/>
        <g id="Grupo_212469" data-name="Grupo 212469" transform="translate(136.212 208.378)" opacity="0.4">
          <g id="Grupo_212468" data-name="Grupo 212468">
            <g id="Grupo_212467" data-name="Grupo 212467" clip-path="url(#clip-path-12)">
              <rect id="Rectángulo_41603" data-name="Rectángulo 41603" width="2.708" height="25.451" transform="translate(0 0)" fill="#fff"/>
            </g>
          </g>
        </g>
        <g id="Grupo_212472" data-name="Grupo 212472" transform="translate(167.354 204.468)" style="mix-blend-mode: multiply;isolation: isolate">
          <g id="Grupo_212471" data-name="Grupo 212471">
            <g id="Grupo_212470" data-name="Grupo 212470" clip-path="url(#clip-path-13)">
              <path id="Trazado_149774" data-name="Trazado 149774" d="M252.063,302.542h-4.437V331.9h4.438a1.3,1.3,0,0,0,1.3-1.3V303.842a1.3,1.3,0,0,0-1.3-1.3" transform="translate(-247.626 -302.542)" fill="#cecece"/>
            </g>
          </g>
        </g>
        <path id="Trazado_149777" data-name="Trazado 149777" d="M215.931,45.67a3.949,3.949,0,0,0-.777.042c0-.027,0-.052.005-.078a5.467,5.467,0,0,0-8.444-4.849,13.986,13.986,0,0,0-26.32-1.714,9.62,9.62,0,0,0-3.193.816,5.467,5.467,0,0,0-10.715.024,3.516,3.516,0,1,0-1.786,6.794,5.471,5.471,0,0,0,8.229,7,9.624,9.624,0,0,0,13.444,3.071,13.945,13.945,0,0,0,17.787-3.437,4.458,4.458,0,0,0,8.659-1.266c0-.041,0-.081,0-.12a3.827,3.827,0,1,0,3.109-6.283" transform="translate(-52.488 -9.916)" fill="#fff"/>
        <path id="Trazado_149779" data-name="Trazado 149779" d="M67.523,244.043a2.028,2.028,0,0,0-.4.02c0-.013,0-.026,0-.039a2.779,2.779,0,0,0-4.294-2.466,7.113,7.113,0,0,0-13.386-.872,4.9,4.9,0,0,0-1.624.415,2.78,2.78,0,0,0-5.449.012,1.856,1.856,0,0,0-.445-.084,1.791,1.791,0,0,0-.463,3.54,2.782,2.782,0,0,0,4.185,3.559,4.894,4.894,0,0,0,6.837,1.562,7.091,7.091,0,0,0,9.045-1.748,2.267,2.267,0,0,0,4.4-.643c0-.021,0-.041,0-.061a1.947,1.947,0,1,0,1.581-3.2" transform="translate(-12.984 -76.624)" fill="#fff"/>
        <path id="Trazado_149780" data-name="Trazado 149780" d="M309.339,23.021a2.024,2.024,0,0,0-.4.021c0-.014,0-.026,0-.039a2.78,2.78,0,0,0-4.294-2.466,7.113,7.113,0,0,0-13.385-.872,4.9,4.9,0,0,0-1.624.416,2.78,2.78,0,0,0-5.449.012,1.823,1.823,0,0,0-.445-.084,1.791,1.791,0,0,0-.463,3.54,2.782,2.782,0,0,0,4.185,3.558,4.893,4.893,0,0,0,6.837,1.562,7.091,7.091,0,0,0,9.045-1.748,2.267,2.267,0,0,0,4.4-.643c0-.02,0-.041,0-.061a1.946,1.946,0,1,0,1.581-3.2" transform="translate(-91.372 -4.977)" fill="#fff"/>
        <path id="Trazado_149781" data-name="Trazado 149781" d="M131.954,7.669a2.017,2.017,0,0,0-.4.021c0-.014,0-.026,0-.039a2.78,2.78,0,0,0-4.294-2.466,7.113,7.113,0,0,0-13.385-.872,4.9,4.9,0,0,0-1.624.416,2.78,2.78,0,0,0-5.449.012,1.823,1.823,0,0,0-.446-.084A1.791,1.791,0,0,0,105.9,8.2a2.782,2.782,0,0,0,4.185,3.558,4.893,4.893,0,0,0,6.837,1.562,7.091,7.091,0,0,0,9.046-1.748,2.267,2.267,0,0,0,4.4-.643c0-.02,0-.041,0-.061a1.947,1.947,0,1,0,1.581-3.2" transform="translate(-33.871 0)" fill="#fff"/>
      </g>
    </g>
  </g>
</svg>
