<svg xmlns="http://www.w3.org/2000/svg" width="74" height="74" viewBox="0 0 74 74">
  <g id="Grupo_926807" data-name="Grupo 926807" transform="translate(-427.92 -10809.501)">
    <circle id="Elipse_4803" data-name="Elipse 4803" cx="37" cy="37" r="37" transform="translate(427.92 10809.501)" fill="#406834"/>
    <g id="_022-judge" data-name="022-judge" transform="translate(440.245 10762.558)">
      <g id="Grupo_212478" data-name="Grupo 212478" transform="translate(0 63.203)">
        <path id="Trazado_149783" data-name="Trazado 149783" d="M251.521,190.417l2.1-2.1,3.071,3.071-2.1,2.1Z" transform="translate(-227.149 -176.194)" fill="#fff" fill-rule="evenodd"/>
        <path id="Trazado_149784" data-name="Trazado 149784" d="M156.318,93.087a15.308,15.308,0,0,1,6.037-3.84l2.835,2.109,2.261,2.988a16.5,16.5,0,0,1-9.875,9.877L154.513,102l-2.035-2.879A15.277,15.277,0,0,1,156.318,93.087Z" transform="translate(-137.703 -86.723)" fill="#fff" fill-rule="evenodd"/>
        <path id="Trazado_149785" data-name="Trazado 149785" d="M201.638,89.945a11.784,11.784,0,0,1,1.728-.7l5.1,5.1a16.5,16.5,0,0,1-9.875,9.877l-.7-.7a16.523,16.523,0,0,0,4.31-3.145,16.12,16.12,0,0,0,3.318-4.678,1.6,1.6,0,0,0-.352-2.23Z" transform="translate(-178.714 -86.723)" fill="#fff" fill-rule="evenodd"/>
        <path id="Trazado_149786" data-name="Trazado 149786" d="M138.835,63.634a1.484,1.484,0,0,1,2.09,0l5.1,5.1a1.48,1.48,0,1,1-2.093,2.093l-5.1-5.1A1.482,1.482,0,0,1,138.835,63.634ZM126.865,75.6a1.482,1.482,0,0,1,2.093,0l5.1,5.1a1.479,1.479,0,1,1-2.093,2.09l-5.1-5.1A1.484,1.484,0,0,1,126.865,75.6Z" transform="translate(-114.183 -63.203)" fill="#fff" fill-rule="evenodd"/>
        <path id="Trazado_149787" data-name="Trazado 149787" d="M141.439,63.634a1.484,1.484,0,0,1,2.09,0l5.1,5.1a1.48,1.48,0,0,1-2.093,2.093l-.176-.178a1.487,1.487,0,0,0-.154-1.915l-4.919-4.919A1.53,1.53,0,0,1,141.439,63.634ZM129.468,75.6a1.482,1.482,0,0,1,2.093,0l5.1,5.1a1.479,1.479,0,0,1-2.093,2.09l-.179-.179a1.482,1.482,0,0,0-.151-1.912l-4.919-4.92A1.338,1.338,0,0,1,129.468,75.6Z" transform="translate(-116.786 -63.203)" fill="#fff" fill-rule="evenodd"/>
        <path id="Trazado_149788" data-name="Trazado 149788" d="M274.8,213.873l2.3-2.3a.712.712,0,0,1,1.1,0c6.425,6.378,12.253,12.253,18.653,18.656a2.4,2.4,0,1,1-3.4,3.4L274.8,214.969A.712.712,0,0,1,274.8,213.873Z" transform="translate(-247.942 -196.962)" fill="#fff" fill-rule="evenodd"/>
        <path id="Trazado_149789" data-name="Trazado 149789" d="M294.126,212.233l.662-.662a.712.712,0,0,1,1.1,0c6.425,6.378,12.253,12.253,18.653,18.656A2.4,2.4,0,0,1,311.628,234a2.335,2.335,0,0,0,.486-.376,2.407,2.407,0,0,0,0-3.4C305.937,224.047,300.29,218.356,294.126,212.233Z" transform="translate(-265.626 -196.962)" fill="#fff" fill-rule="evenodd"/>
        <path id="Trazado_149790" data-name="Trazado 149790" d="M102.657,344.967v-4.631a2.637,2.637,0,0,0-2.626-2.629H88.152a2.638,2.638,0,0,0-2.629,2.629v4.631Z" transform="translate(-77.236 -311.108)" fill="#fff" fill-rule="evenodd"/>
        <path id="Trazado_149791" data-name="Trazado 149791" d="M33.708,410.848v-1.23a1.985,1.985,0,0,0-1.98-1.98H1.98A1.986,1.986,0,0,0,0,409.617v1.23a.778.778,0,0,0,.775.777H32.934a.778.778,0,0,0,.775-.777Z" transform="translate(0 -374.262)" fill="#fff" fill-rule="evenodd"/>
        <path id="Trazado_149792" data-name="Trazado 149792" d="M306.835,410.848v-1.23a1.985,1.985,0,0,0-1.98-1.98h-2.423a1.985,1.985,0,0,1,1.98,1.98v1.23a.778.778,0,0,1-.775.777h2.423A.778.778,0,0,0,306.835,410.848Z" transform="translate(-273.127 -374.262)" fill="#fff" fill-rule="evenodd"/>
        <path id="Trazado_149793" data-name="Trazado 149793" d="M215.3,344.483v-4.148a2.635,2.635,0,0,0-2.626-2.629h-2.423a2.635,2.635,0,0,1,2.626,2.629v4.148Z" transform="translate(-189.875 -311.108)" fill="#fff" fill-rule="evenodd"/>
      </g>
      <path id="Trazado_149794" data-name="Trazado 149794" d="M9.884,267.547a.728.728,0,0,1,0-1.456H11.37a.728.728,0,0,1,0,1.456Zm2.664-4.406a.724.724,0,0,1-.725,1.253l-1.285-.742a.725.725,0,1,1,.725-1.255Zm8.089-3.255a.725.725,0,1,1,1.255.725l-.744,1.285a.724.724,0,1,1-1.253-.725Zm2.48,4.507a.723.723,0,1,1-.722-1.253l1.285-.744a.724.724,0,0,1,.722,1.255Zm-10.067-3.785a.722.722,0,1,1,1.253-.72l.744,1.286a.723.723,0,0,1-1.255.72Zm5.147.107a.727.727,0,1,1-1.453,0v-1.483a.727.727,0,1,1,1.453,0Z" transform="translate(-8.269 -176.377)" fill="#fff"/>
    </g>
  </g>
</svg>
