<svg xmlns="http://www.w3.org/2000/svg" width="74" height="74" viewBox="0 0 74 74">
  <g id="Grupo_735312" data-name="Grupo 735312" transform="translate(-427.92 -10809.501)">
    <circle id="Elipse_4803" data-name="Elipse 4803" cx="37" cy="37" r="37" transform="translate(427.92 10809.501)" fill="#406834"/>
    <g id="vista-lateral-del-bus" transform="translate(437.844 10754.542)">
      <g id="Grupo_735311" data-name="Grupo 735311" transform="translate(0 76.741)">
        <path id="Trazado_622310" data-name="Trazado 622310" d="M50.165,208.593a5.031,5.031,0,1,0,5.032,5.031A5.031,5.031,0,0,0,50.165,208.593Zm0,7.218a2.187,2.187,0,1,1,2.188-2.187A2.187,2.187,0,0,1,50.165,215.811Z" transform="translate(-38.159 -188.219)" fill="#fff"/>
        <path id="Trazado_622311" data-name="Trazado 622311" d="M241.324,208.593a5.031,5.031,0,1,0,5.032,5.031A5.03,5.03,0,0,0,241.324,208.593Zm0,7.218a2.187,2.187,0,1,1,2.188-2.187A2.187,2.187,0,0,1,241.324,215.811Z" transform="translate(-199.781 -188.219)" fill="#fff"/>
        <path id="Trazado_622312" data-name="Trazado 622312" d="M51.146,76.741H6.013a3.85,3.85,0,0,0-3.608,2.946L.6,86.272A35.941,35.941,0,0,0,0,92.225V99.14a3.015,3.015,0,0,0,3.007,3.006H6.072a5.934,5.934,0,0,1,11.867,0H35.61a5.934,5.934,0,0,1,11.867,0h3.668a3.015,3.015,0,0,0,3.007-3.006V79.747A3.014,3.014,0,0,0,51.146,76.741ZM12.494,89.426H5.487L6.6,86.8a.9.9,0,1,0-1.662-.7L3.559,89.356a1.793,1.793,0,0,1-1.3-2.146l1.616-6.45a2.825,2.825,0,0,1,2.666-2.217h5.956V89.426Zm13.379,0H14.3V78.543H25.873Zm13.379,0H27.677V78.543H39.252Zm13.057-2.255a2.262,2.262,0,0,1-2.255,2.255h-9V78.543h9A2.262,2.262,0,0,1,52.309,80.8Z" transform="translate(0 -76.741)" fill="#fff"/>
      </g>
    </g>
  </g>
</svg>
