<svg xmlns="http://www.w3.org/2000/svg" xmlns:xlink="http://www.w3.org/1999/xlink" width="85" height="85" viewBox="0 0 85 85">
  <defs>
    <clipPath id="clip-path">
      <rect id="Rectángulo_37699" data-name="Rectángulo 37699" width="57.254" height="60.449" fill="#fff"/>
    </clipPath>
  </defs>
  <g id="Grupo_212504" data-name="Grupo 212504" transform="translate(-285 -9007)">
    <circle id="Elipse_4798" data-name="Elipse 4798" cx="42.5" cy="42.5" r="42.5" transform="translate(285 9007)" fill="#4d793f"/>
    <g id="Grupo_85795" data-name="Grupo 85795" transform="translate(299 9019)">
      <g id="Grupo_85794" data-name="Grupo 85794" clip-path="url(#clip-path)">
        <path id="Trazado_141625" data-name="Trazado 141625" d="M56.309,7.506c-1.5-.307-3-.634-4.5-.929a.572.572,0,0,1-.527-.551c-.31-1.695-.658-3.382-.972-5.076a1.012,1.012,0,0,0-.645-.908.994.994,0,0,0-1.045.385Q46.149,2.9,43.667,5.352a1.287,1.287,0,0,0-.4,1.115c.159,1.969.286,3.94.44,5.909a.924.924,0,0,1-.3.825c-1.126,1.077-2.243,2.164-3.339,3.272-.271.274-.4.253-.681,0a23.193,23.193,0,0,0-21.915-5.452,21.5,21.5,0,0,0-5.616,2.3.88.88,0,0,0-.535.957.839.839,0,0,0,.7.705,1.247,1.247,0,0,0,.873-.261,21.254,21.254,0,0,1,10.465-2.744,21.6,21.6,0,0,1,14.752,5.644c.324.287.348.443.02.754q-1.789,1.691-3.517,3.447c-.352.359-.538.418-.969.053a15.183,15.183,0,0,0-12.623-3.6,15.7,15.7,0,1,0,14.615,5.634c-.232-.293-.272-.449.025-.731,1.22-1.16,2.425-2.335,3.6-3.539.359-.367.536-.321.842.049A21.8,21.8,0,1,1,1.721,35.189C1.672,34.573,1.3,34.2.8,34.235a.9.9,0,0,0-.8,1.068c.065.724.119,1.452.24,2.168A23.349,23.349,0,0,0,6.922,50.483c.273.272.309.445.088.773C6,52.754,5.021,54.27,4.037,55.784c-.463.713-.376,1.1.338,1.544q2.274,1.405,4.553,2.8c.809.5,1.134.428,1.7-.372.973-1.371,1.951-2.74,2.908-4.122a.477.477,0,0,1,.7-.214,23.191,23.191,0,0,0,18.438.012.508.508,0,0,1,.745.227c.981,1.417,1.981,2.82,2.982,4.222.458.642.81.719,1.47.318q2.337-1.421,4.663-2.86c.754-.467.834-.843.351-1.585C41.936,54.3,41,52.826,40.011,51.391c-.3-.434-.238-.648.115-1.006a22.948,22.948,0,0,0,6.766-14.732A23.148,23.148,0,0,0,41.23,18.365c-.207-.244-.277-.371-.005-.63,1.172-1.119,2.323-2.26,3.47-3.406a.787.787,0,0,1,.669-.232c.953.058,1.907.1,2.86.152v0c.912.048,1.825.084,2.736.148a1.251,1.251,0,0,0,1.058-.391c1.594-1.61,3.2-3.2,4.806-4.8a.977.977,0,0,0,.388-1.042,1.023,1.023,0,0,0-.9-.657M34.321,42.547a13.541,13.541,0,0,1-10.333,5.213c-7.855-.153-13.575-5.341-14.407-12.565A14,14,0,0,1,21.419,19.972,13.807,13.807,0,0,1,32.5,23.133c.335.276.367.427.035.742q-1.855,1.758-3.649,3.578c-.294.3-.459.236-.756.02A7.845,7.845,0,1,0,23.81,41.618a7.5,7.5,0,0,0,6.651-4.327,7.55,7.55,0,0,0-.485-7.871c-.187-.294-.224-.442.053-.705q1.874-1.783,3.694-3.622c.293-.295.43-.3.7.037a14.013,14.013,0,0,1-.1,17.417M23.914,33.523c.385.384.872.34,1.364-.139.953-.927,1.912-1.848,2.844-2.8.289-.294.4-.27.615.077a6.157,6.157,0,0,1-4.2,9.162c-3.822.605-7.185-2.232-7.173-6.514A5.773,5.773,0,0,1,20.588,28.4a5.957,5.957,0,0,1,6.211.246c.427.256.456.429.075.783-.96.889-1.88,1.821-2.809,2.743-.5.491-.541.967-.151,1.356M12.02,54.813c-.768,1.083-1.543,2.161-2.3,3.252-.184.267-.315.349-.627.147Q7.688,57.3,6.236,56.458c-.321-.186-.4-.309-.169-.647.772-1.13,1.507-2.284,2.257-3.429.134-.205.211-.444.544-.164a20.8,20.8,0,0,0,3.081,2.093,2.79,2.79,0,0,1,.271.2c-.086.132-.14.22-.2.3m28.9,1.078c.177.264.107.374-.137.519q-1.517.907-3.014,1.848c-.219.137-.333.123-.486-.1-.851-1.224-1.719-2.436-2.6-3.675A23.007,23.007,0,0,0,38.107,52.2c.241-.2.332-.1.466.1.777,1.2,1.556,2.4,2.352,3.583M51.139,12.455a.475.475,0,0,1-.368.2c-1.32-.072-2.639-.142-4.059-.217l1.572-1.614c.474-.487.534-.981.167-1.361s-.886-.363-1.362.121c-.536.546-1.039,1.125-1.557,1.69l-.179-.105c-.1-1.248-.156-2.5-.31-3.741a1.786,1.786,0,0,1,.645-1.671c1.051-1,2.032-2.07,3.159-3.232.3,1.535.569,2.878.823,4.225.215,1.144.245,1.191,1.369,1.432,1.168.251,2.337.492,3.612.76l-3.513,3.518" transform="translate(0 0)" fill="#fff"/>
        <path id="Trazado_141626" data-name="Trazado 141626" d="M5.509,150.133a.769.769,0,0,0,.953-.5c.332-.888.637-1.788.909-2.7a.838.838,0,0,0-.763-1.084.775.775,0,0,0-.752.392,11.466,11.466,0,0,0-1.005,2.981.765.765,0,0,0,.659.908" transform="translate(-4.031 -121.57)" fill="#fff"/>
        <path id="Trazado_141627" data-name="Trazado 141627" d="M30.35,105.712c.489-.56.973-1.124,1.466-1.682a1.165,1.165,0,0,0,.3-.662.857.857,0,0,0-.521-.782.843.843,0,0,0-.969.191A17.137,17.137,0,0,0,29,104.646a.864.864,0,1,0,1.345,1.067" transform="translate(-23.97 -85.444)" fill="#fff"/>
      </g>
    </g>
  </g>
</svg>
