<svg xmlns="http://www.w3.org/2000/svg" xmlns:xlink="http://www.w3.org/1999/xlink" width="85" height="85" viewBox="0 0 85 85">
  <defs>
    <clipPath id="clip-path">
      <rect id="Rectángulo_37697" data-name="Rectángulo 37697" width="50.086" height="50.092" fill="#fff"/>
    </clipPath>
  </defs>
  <g id="Grupo_212505" data-name="Grupo 212505" transform="translate(-285 -9171)">
    <circle id="Elipse_4799" data-name="Elipse 4799" cx="42.5" cy="42.5" r="42.5" transform="translate(285 9171)" fill="#4d793f"/>
    <g id="Grupo_85791" data-name="Grupo 85791" transform="translate(302.262 9188.261)">
      <g id="Grupo_85790" data-name="Grupo 85790" clip-path="url(#clip-path)">
        <path id="Trazado_141615" data-name="Trazado 141615" d="M50.084,18.961q0-7.276,0-14.553A4.181,4.181,0,0,0,45.666,0Q25.034,0,4.4,0A4.181,4.181,0,0,0,0,4.425q0,7.25,0,14.5a4.187,4.187,0,0,0,4.433,4.445q5.556,0,11.111,0c1.151,0,1.128,0,1.161-1.146.013-.435-.1-.536-.534-.534Q10.2,21.72,4.227,21.7a2.48,2.48,0,0,1-2.554-2.526q-.012-7.485,0-14.97A2.478,2.478,0,0,1,4.222,1.673q20.814-.006,41.628,0a2.482,2.482,0,0,1,2.563,2.571q.009,7.433,0,14.866a2.493,2.493,0,0,1-2.6,2.592c-1.391.006-2.784.049-4.172-.017a2.126,2.126,0,0,0-1.848.767c-.947,1.048-1.975,2.024-3.069,3.131,0-1.287-.008-2.411.006-3.535,0-.266-.061-.357-.342-.351-.869.019-1.739.022-2.608,0-.318-.009-.434.067-.4.4.04.41-.115.938.09,1.2.19.247.749.088,1.141.065.368-.021.459.087.455.454-.021,1.874-.009,3.748-.009,5.623l.126.072q2.878-2.907,5.753-5.82a.957.957,0,0,1,.765-.327c1.321.02,2.643.01,3.965.008a4.184,4.184,0,0,0,4.417-4.41" transform="translate(0 -0.001)" fill="#fff"/>
        <path id="Trazado_141616" data-name="Trazado 141616" d="M79.473,395.711c-1.113.017-2.226-.013-3.339.018-.4.011-.48-.1-.478-.484.018-2.834.011-5.669.009-8.5a7.507,7.507,0,0,0-7.695-7.717q-6.5-.005-12.99,0a7.506,7.506,0,0,0-7.7,7.716c0,2.852-.006,5.7.007,8.555,0,.334-.076.433-.423.43-1.982-.018-3.965-.009-5.947-.009-1.152,0-1.129,0-1.162,1.146-.012.434.1.535.533.534q9.73-.024,19.46-.011H78.587c1.286,0,1.276,0,1.261-1.3,0-.3-.082-.376-.375-.371m-5.952.016q-2.059-.036-4.119,0c-.35.006-.422-.1-.42-.432.013-3.042,0-6.083.018-9.125,0-.394-.1-.486-.483-.478-1.2.023-1.2.005-1.2,1.213,0,2.781-.009,5.562.01,8.343,0,.389-.09.482-.48.48q-5.371-.026-10.743,0c-.381,0-.487-.078-.485-.475.019-3.024,0-6.049.02-9.073,0-.375-.067-.5-.472-.489-1.206.026-1.206.005-1.206,1.205,0,2.781-.007,5.562.009,8.343,0,.371-.06.5-.47.491-1.39-.031-2.781-.019-4.172-.006-.28,0-.385-.052-.383-.362.014-3.007-.025-6.014.022-9.021a5.818,5.818,0,0,1,5.646-5.643c.052,0,.1,0,.156,0H61.5q3.233,0,6.466,0A5.845,5.845,0,0,1,74,386.7c.006,2.851-.008,5.7.012,8.552,0,.4-.108.481-.487.474" transform="translate(-36.433 -347.307)" fill="#fff"/>
        <path id="Trazado_141617" data-name="Trazado 141617" d="M219.476,206.155A6.678,6.678,0,1,0,226.2,199.5a6.69,6.69,0,0,0-6.725,6.653m6.685-4.984a5.008,5.008,0,1,1-5.015,5.038,5.024,5.024,0,0,1,5.015-5.038" transform="translate(-201.111 -182.807)" fill="#fff"/>
        <path id="Trazado_141618" data-name="Trazado 141618" d="M202.206,119.64c-.591.015-1.182,0-1.773,0-1.366,0-1.359,0-1.284,1.383.012.228.068.3.3.291.451-.016.9,0,1.356,0h.417c1.366,0,1.359,0,1.284-1.383-.012-.227-.068-.3-.3-.291" transform="translate(-182.46 -109.628)" fill="#fff"/>
        <path id="Trazado_141619" data-name="Trazado 141619" d="M279.354,121.374q1.408-.014,2.816,0c.2,0,.253-.061.27-.263.118-1.411.124-1.41-1.257-1.41H280.4c-1.371,0-1.371,0-1.306,1.354a.281.281,0,0,1,0,.052c-.028.2.055.269.26.267" transform="translate(-255.72 -109.685)" fill="#fff"/>
        <path id="Trazado_141620" data-name="Trazado 141620" d="M359.056,121.319c.451-.016.9,0,1.356,0h.417c1.366,0,1.359,0,1.284-1.383-.012-.227-.069-.3-.3-.291-.591.015-1.182,0-1.773,0-1.366,0-1.359,0-1.284,1.383.012.227.068.3.3.291" transform="translate(-328.715 -109.628)" fill="#fff"/>
        <path id="Trazado_141621" data-name="Trazado 141621" d="M.825,578.541c-.817,0-.817,0-.817.8,0,.869,0,.869.852.869.817,0,.817,0,.817-.8,0-.869,0-.869-.852-.869" transform="translate(-0.007 -530.13)" fill="#fff"/>
        <path id="Trazado_141622" data-name="Trazado 141622" d="M539.545,578.541c-.852,0-.852,0-.852.869,0,.8,0,.8.817.8.852,0,.852,0,.852-.869,0-.8,0-.8-.817-.8" transform="translate(-493.616 -530.13)" fill="#fff"/>
        <path id="Trazado_141623" data-name="Trazado 141623" d="M579.457,578.541c-.862,0-.862,0-.862.859,0,.81,0,.81.807.81.862,0,.862,0,.862-.859,0-.81,0-.81-.807-.81" transform="translate(-530.179 -530.13)" fill="#fff"/>
      </g>
    </g>
  </g>
</svg>
