<svg xmlns="http://www.w3.org/2000/svg" width="74" height="74" viewBox="0 0 74 74">
  <g id="Grupo_927037" data-name="Grupo 927037" transform="translate(-427.92 -9930.955)">
    <g id="Grupo_926815" data-name="Grupo 926815" transform="translate(0 -878.546)">
      <circle id="Elipse_4803" data-name="Elipse 4803" cx="37" cy="37" r="37" transform="translate(427.92 10809.501)" fill="#406834"/>
    </g>
    <g id="turista" transform="translate(438.987 9943.017)">
      <path id="Trazado_622354" data-name="Trazado 622354" d="M40.064,30.83V27.46a3.373,3.373,0,0,0-3.37-3.37.654.654,0,0,0,0,1.309,2.061,2.061,0,0,1,2.061,2.061v2.284c-2.191-1.485-5.466-2.115-8.029-2.454v-.968a8.738,8.738,0,0,0,1.158-.923h2.558a.654.654,0,1,0,0-1.309H33A8.166,8.166,0,0,0,34.391,19.8,2.9,2.9,0,0,0,36.5,17.01a2.872,2.872,0,0,0-.635-1.786,3.4,3.4,0,0,0,2.3-3.213.656.656,0,0,0-.654-.654H35.445v-.164a9.165,9.165,0,0,0-1.381-4.842.654.654,0,0,0-1.112.687,7.894,7.894,0,0,1,1.184,4.155v.164H18.366v-.164a7.884,7.884,0,0,1,13.5-5.536.652.652,0,1,0,.929-.916,9.189,9.189,0,0,0-15.737,6.452v.164H14.99a.656.656,0,0,0-.654.654,3.413,3.413,0,0,0,2.3,3.213A2.872,2.872,0,0,0,16,17.01,2.907,2.907,0,0,0,18.111,19.8,8.166,8.166,0,0,0,19.5,24.09H15.173a3.373,3.373,0,0,0-3.37,3.37v3.383a3.983,3.983,0,0,0-1.139,2.722v1.871a.654.654,0,1,0,1.309,0V33.565a3.1,3.1,0,0,1,1.453-2.441v4.345a1.15,1.15,0,0,0-.857,1.106v1.943a1.152,1.152,0,0,0,.857,1.112v2.925a1.592,1.592,0,0,1-1.453-1.577V38.885a.654.654,0,1,0-1.309,0v2.094a2.906,2.906,0,0,0,2.905,2.9H38.3a2.9,2.9,0,0,0,2.9-2.9V33.565a4.021,4.021,0,0,0-1.138-2.735Zm-6.223-1.662a15.493,15.493,0,0,1,3.285,1.145v5.11H33.842ZM34.4,18.385V15.636a1.588,1.588,0,0,1,0,2.748Zm-16.306,0a1.588,1.588,0,0,1,0-2.748Zm-.347-4.266a2.111,2.111,0,0,1-2-1.453h21a2.1,2.1,0,0,1-2,1.453Zm1.655,5.4v-4.09H33.1v4.09a6.844,6.844,0,1,1-13.689,0ZM13.112,29.75V27.46A2.065,2.065,0,0,1,15.173,25.4h5.451a7.657,7.657,0,0,0,1.106.89v.929c-2.88.339-6.185.963-8.618,2.532ZM18.02,42.569H14.735v-2.9H18.02Zm.491-4.207H13.878V36.732H18.51Zm14.022-2.827a1.152,1.152,0,0,0-.674,1.04v1.943a1.161,1.161,0,0,0,.674,1.047v3h-13.2V39.454a1.15,1.15,0,0,0,.491-.936V36.575a1.15,1.15,0,0,0-.491-.936V33.421a.654.654,0,1,0-1.309,0v2H14.735v-5.1a16.317,16.317,0,0,1,3.285-1.158v2.068a.654.654,0,1,0,1.309,0V28.959l6.053,9.318a.657.657,0,0,0,.543.3h.007a.664.664,0,0,0,.543-.281l2.912-4.24a.654.654,0,1,0-1.08-.739L25.95,36.745l-5.241-8.075c.6-.092,1.171-.157,1.727-.2a.661.661,0,0,0,.6-.654V27a8.1,8.1,0,0,0,6.38.026v.844a.654.654,0,0,0,.589.654c.288.025,1.156.148,1.459.2l-1.649,2.395a.654.654,0,1,0,1.08.739l1.636-2.375v6.053Zm4.593,7.034H33.842v-2.9h3.285Zm.674-4.207H33.168V36.732H37.8Zm2.094,2.617a1.588,1.588,0,0,1-1.459,1.577v-2.99a1.15,1.15,0,0,0,.674-1.047V36.575a1.141,1.141,0,0,0-.674-1.04v-4.41a3.1,3.1,0,0,1,1.459,2.441Z" fill="#fff"/>
      <path id="Trazado_622355" data-name="Trazado 622355" d="M28.781,26.555A1.047,1.047,0,1,0,29.828,27.6,1.048,1.048,0,0,0,28.781,26.555Z" transform="translate(-5.9 -8.488)" fill="#fff"/>
      <path id="Trazado_622356" data-name="Trazado 622356" d="M39.086,26.555A1.047,1.047,0,1,0,40.133,27.6,1.048,1.048,0,0,0,39.086,26.555Z" transform="translate(-9.462 -8.488)" fill="#fff"/>
      <path id="Trazado_622357" data-name="Trazado 622357" d="M34.141,30.618a.654.654,0,0,0,.654-.654V28.937a.654.654,0,1,0-1.309,0v1.027A.654.654,0,0,0,34.141,30.618Z" transform="translate(-7.889 -9.085)" fill="#fff"/>
      <path id="Trazado_622358" data-name="Trazado 622358" d="M30.9,33.849a.653.653,0,0,0,.125.916,3.327,3.327,0,0,0,4.355,0,.654.654,0,0,0-.791-1.042,2.035,2.035,0,0,1-2.773,0A.652.652,0,0,0,30.9,33.849Z" transform="translate(-6.947 -10.919)" fill="#fff"/>
      <path id="Trazado_622359" data-name="Trazado 622359" d="M29.559,24.87a.654.654,0,0,0,0-1.309H27.14a.654.654,0,1,0,0,1.309Z" transform="translate(-5.469 -7.453)" fill="#fff"/>
      <path id="Trazado_622360" data-name="Trazado 622360" d="M37.445,24.87h2.419a.654.654,0,0,0,0-1.309H37.445a.654.654,0,1,0,0,1.309Z" transform="translate(-9.031 -7.453)" fill="#fff"/>
    </g>
  </g>
</svg>
