<svg id="Grupo_926849" data-name="Grupo 926849" xmlns="http://www.w3.org/2000/svg" width="1240" height="1015.008" viewBox="0 0 1240 1015.008">
  <rect id="Rectángulo_335080" data-name="Rectángulo 335080" width="1240" height="1015.008" fill="#fff"/>
  <path id="Trazado_633535" data-name="Trazado 633535" d="M1375.049,582.584V892.359h-1240V129.295c8.953,5.607,15.55,13.689,17.112,23.21,13.416-17.92,52.923-10.452,56.171,10.664,14.211-57.8,95.7-95.8,160.382-74.772s95.852,95.676,61.355,146.857c20.461-17.815,53.792-23.845,80.972-14.62,27.181,9.183,46.624,33.028,47.244,57.973,5.034-23.02,40.276-35.207,64.878-24.8,24.576,10.367,35.538,37.471,28.421,60.089,16.517-49.447,87.94-79.491,143.988-60.554s83.973,82.558,56.346,128.238c7.763-3.385,16.691-2.454,24.23,1.037,10.961,5.015,18.971,15.509,15.97,26.046,3.647-12.716,35.439-3.492,41.738,1.29,14.311,10.9,12.8,29.664,16.492,44.982,16.17-29.452,53.643-49.446,91.785-49,46.153.571,77.872,28.035,94.661,62.564,21.2-14.853,53.841-16.333,76.756-3.469,22.891,12.842,34.25,39.015,26.635,61.485,2.7-7.956,46.028-4.4,52.874-3.259,14.954,2.518,16.368,7.533,20.981,18.725,3.223,7.786,20.088,42.295,8.184,48.41C1338.2,582.182,1356.946,580.046,1375.049,582.584Z" transform="translate(-135.049 -78.784)" fill="#d4fdff"/>
  <path id="Trazado_633536" data-name="Trazado 633536" d="M135.05,643.923V937.29h1240V214.643c-8.953,5.31-15.549,12.964-17.112,21.981-13.416-16.971-52.923-9.9-56.171,10.1-14.211-54.742-95.7-90.73-160.382-70.813s-95.852,90.609-61.355,139.079c-20.461-16.871-53.792-22.582-80.972-13.846-27.181,8.7-46.624,31.279-47.244,54.9-5.034-21.8-40.276-33.342-64.878-23.484-24.576,9.818-35.538,35.486-28.421,56.906-16.517-46.827-87.94-75.281-143.988-57.347s-83.973,78.185-56.346,121.446c-7.763-3.206-16.691-2.324-24.23.982-10.961,4.749-18.971,14.688-15.97,24.666-3.646-12.042-35.439-3.306-41.738,1.222-14.311,10.319-12.8,28.093-16.492,42.6-16.17-27.892-53.643-46.827-91.785-46.407-46.153.541-77.872,26.55-94.661,59.25-21.205-14.066-53.841-15.469-76.756-3.285-22.891,12.162-34.25,36.948-26.636,58.228-2.7-7.535-46.028-4.168-52.874-3.086-14.954,2.385-16.368,7.134-20.981,17.733-3.223,7.374-20.088,40.055-8.184,45.846C171.9,643.542,153.154,641.519,135.05,643.923Z" transform="translate(-135.049 -78.784)" fill="#d4fdff"/>
  <path id="Trazado_633537" data-name="Trazado 633537" d="M135.05,864.837H617.136a.445.445,0,0,1-.1.127H846.611a.476.476,0,0,1,.1-.127h528.339V357.108c-5.877,4.676-9.869,11.108-10.614,17.942a103.489,103.489,0,0,0-52.4-45.172c-23.089-8.908-51.089-9.2-73.309,1.206-23.808,11.15-38.614,33.027-44.839,55.582-6.25,22.533-4.985,46.04-3.67,69.187-7.143-13.52-25.247-22.132-42.483-20.227-17.212,1.9-32.141,14.175-35.017,28.8-24.18-31.208-68.919-47.669-106.219-19.043-19.27,14.811-27.081,39.629-19.071,60.682-18.8-10.368-48.261,1.756-50.469,20.777-9.722-8.21-26.585-6.855-37.72-.085a48.443,48.443,0,0,0-9.548,7.723c-5.779,5.945-9.648,12.991-14.285,19.486,2.331-3.3-21.228-20.036-24.726-21.75-30.355-14.959-75.565-2.687-101.605,14.2-13.938,9.056-25.073,21.264-31.744,35.08-2.555,5.311-13.244,33.683-6.721,37.407-17.063-9.775-40.821-10.24-58.379-1.121-17.559,9.1-28.025,27.315-25.693,44.728-24.329-35.292-77.178-52.662-124.372-45.236-47.219,7.427-87.446,36.942-108.972,73.545-21.5,36.6-25.594,79.47-17.881,119.882-23.931-12.462-49.054-25.284-77.028-27.04-27.975-1.777-59.4,11.4-65.571,34.741-23.015-22.872-63.662-27.632-97.662-18.978Z" transform="translate(-135.049 -99.098)" fill="#abf9ff"/>
  <path id="Trazado_633538" data-name="Trazado 633538" d="M1375.049,924.467H892.963a.461.461,0,0,0,.1.127H663.488a.458.458,0,0,0-.1-.127H135.05V416.738c5.877,4.675,9.869,11.108,10.614,17.942a103.484,103.484,0,0,1,52.4-45.173c23.089-8.907,51.089-9.2,73.309,1.206,23.808,11.151,38.614,33.028,44.839,55.583,6.25,22.533,4.985,46.039,3.67,69.186,7.143-13.52,25.247-22.131,42.483-20.227,17.212,1.9,32.141,14.176,35.017,28.8,24.18-31.208,68.919-47.669,106.219-19.042,19.27,14.811,27.081,39.629,19.071,60.681,18.8-10.367,48.261,1.756,50.469,20.777,9.722-8.209,26.585-6.855,37.72-.084a48.442,48.442,0,0,1,9.548,7.722c5.779,5.946,9.648,12.991,14.285,19.487-2.331-3.3,21.229-20.037,24.726-21.751,30.355-14.958,75.565-2.687,101.605,14.2,13.938,9.055,25.073,21.263,31.744,35.079,2.555,5.311,13.244,33.684,6.721,37.408,17.063-9.775,40.821-10.241,58.379-1.122,17.559,9.1,28.024,27.316,25.693,44.728,24.329-35.291,77.178-52.662,124.371-45.235,47.219,7.426,87.446,36.942,108.972,73.545,21.5,36.6,25.594,79.47,17.881,119.881,23.932-12.462,49.054-25.284,77.028-27.04,27.975-1.777,59.4,11.4,65.571,34.742,23.015-22.872,63.662-27.633,97.662-18.979Z" transform="translate(-135.049 -104.053)" fill="#abf9ff"/>
  <g id="Grupo_926847" data-name="Grupo 926847" transform="translate(540.664 343.113)">
    <path id="Trazado_633539" data-name="Trazado 633539" d="M1192.95,844.662v292.023H493.614l33.324-65.568,16.017-31.5s56.7-113.766,130.016-240.1q3.237-5.586,6.517-11.193c47.8-81.712,101.96-167.4,151.83-230.051,44.474-55.92,85.541-93.476,115.565-93.476C1004.369,464.791,1101.908,644.19,1192.95,844.662Z" transform="translate(-493.614 -464.791)" fill="#d4fdff"/>
    <path id="Trazado_633540" data-name="Trazado 633540" d="M1192.95,844.662v292.023h-75.872c-6.009-18.45-10.431-31.716-12.378-37.047-11.615-31.907-115.628-45.829-147.577-67.516-31.948-21.708,130.376-70.35,124.219-85.944-6.136-15.593-177.241-16.757-237.52-42.845C783.564,877.2,972.1,856.68,1047.616,822.489c75.492-34.192-30.171-202.292-50.568-228.528s-14.641,94.957-55.116,98.469c-27.865,2.434-66.542-78.729-110.614-134.163,44.474-55.92,85.541-93.476,115.565-93.476C1004.369,464.791,1101.908,644.19,1192.95,844.662Z" transform="translate(-493.614 -464.791)" fill="#fff"/>
  </g>
  <g id="Grupo_926848" data-name="Grupo 926848" transform="translate(0.001 218.367)">
    <path id="Trazado_633541" data-name="Trazado 633541" d="M802.606,1136.685H135.05v-438.1c40.581-73.058,91.846-160.208,141.4-230.262,52.006-73.546,102.15-128.281,136.194-128.281.444,0,.91.021,1.354.042s.91.063,1.375.127c58.756,6.982,165.6,234.3,257.6,459.3C724.575,925.74,771.483,1051.228,802.606,1136.685Z" transform="translate(-135.05 -340.044)" fill="#d4fdff"/>
    <path id="Trazado_633542" data-name="Trazado 633542" d="M818.073,1136.685H547.652c-6.3-19.994-13.372-42.4-20.714-65.568-30.129-95.106-64.722-203.414-69.525-214.2-8.717-19.529-93.138-24.163-101.326-43.734-8.209-19.571,102.384-27.886,92.355-54.059C438.434,732.927,282.8,752.836,254.8,735.995c-28.013-16.842,189.682-89.308,193.49-107.208,3.83-17.9-61.1-150.709-77.671-146.964-16.525,3.745-15.276,63.686-42,58.693-16.334-3.026-37.894-40.116-52.175-72.191,52.006-73.546,102.15-128.281,136.194-128.281.444,0,.91.021,1.354.042s.91.063,1.375.127c62.014,6.6,173.3,235.065,264.116,448.1,41.977,98.449,79.575,193.618,105.917,262.064C800.3,1089.1,811.62,1119.293,818.073,1136.685Z" transform="translate(-135.05 -340.044)" fill="#fff"/>
  </g>
  <path id="Trazado_633543" data-name="Trazado 633543" d="M1375.049,929.76v206.925h-1240c191.505-86.769,406.868-149.608,631.928-183.736C965.949,922.8,1172.285,915.119,1375.049,929.76Z" transform="translate(-135.049 -121.677)" fill="#b0ce58"/>
  <path id="Trazado_633544" data-name="Trazado 633544" d="M1192.95,959.91v176.775h-620.1a1889.905,1889.905,0,0,1,212.554-86.3q24.4-8.22,49.086-15.826A1992.961,1992.961,0,0,1,1192.95,959.91Z" transform="translate(47.05 -121.677)" fill="#c3e277"/>
  <path id="Trazado_633545" data-name="Trazado 633545" d="M403.944,1069.417a18.537,18.537,0,0,1-11.977-5.646c-1.6-1.675-2.925-4.052-2.125-6.221.785-2.126,3.425-3.11,5.647-2.663a11.1,11.1,0,0,1,5.615,3.634,38.116,38.116,0,0,0,4.758,4.839,6.664,6.664,0,0,1,1.126-8.137,5.722,5.722,0,0,1,7.945.526c1.852,2.319.966,6.35-1.785,7.465,2.837-1.481,5.97-2.829,9.135-2.362s6.144,3.475,5.428,6.593c-.579,2.528-3.36,4.089-5.952,4.01a12.562,12.562,0,0,1-7.028-3.02c1.053,1.94,2.135,3.987,2.125,6.194s-1.529,4.575-3.732,4.71a4.486,4.486,0,0,1-3.772-2.114,13.257,13.257,0,0,1-1.65-4.186c.176,3.845-4.312,7.081-7.9,5.7s-4.757-6.79-2.051-9.527" transform="translate(-89.59 -121.677)" fill="#fff"/>
  <path id="Trazado_633546" data-name="Trazado 633546" d="M556.808,1026.585a18.543,18.543,0,0,1-11.977-5.647c-1.595-1.674-2.925-4.052-2.124-6.221.785-2.126,3.424-3.109,5.646-2.662a11.09,11.09,0,0,1,5.615,3.634,37.983,37.983,0,0,0,4.759,4.838,6.663,6.663,0,0,1,1.126-8.137,5.722,5.722,0,0,1,7.944.526c1.853,2.32.966,6.351-1.784,7.465,2.836-1.48,5.969-2.829,9.134-2.362s6.144,3.475,5.428,6.594c-.579,2.527-3.36,4.088-5.951,4.01a12.557,12.557,0,0,1-7.028-3.02c1.053,1.94,2.134,3.986,2.124,6.193s-1.528,4.576-3.731,4.711a4.49,4.49,0,0,1-3.773-2.115,13.252,13.252,0,0,1-1.65-4.185c.176,3.845-4.312,7.081-7.9,5.7s-4.757-6.789-2.051-9.526" transform="translate(-62.291 -121.677)" fill="#fff"/>
  <path id="Trazado_633547" data-name="Trazado 633547" d="M1146.949,1078.579a18.54,18.54,0,0,1-11.976-5.646c-1.595-1.675-2.926-4.052-2.125-6.222.785-2.125,3.425-3.109,5.646-2.662a11.093,11.093,0,0,1,5.615,3.634,38.122,38.122,0,0,0,4.759,4.839,6.662,6.662,0,0,1,1.126-8.137,5.721,5.721,0,0,1,7.945.526c1.852,2.319.966,6.35-1.785,7.465,2.836-1.481,5.969-2.829,9.135-2.362s6.143,3.475,5.428,6.593c-.58,2.527-3.361,4.089-5.952,4.01a12.561,12.561,0,0,1-7.028-3.02c1.053,1.94,2.134,3.986,2.125,6.193s-1.529,4.576-3.732,4.711a4.487,4.487,0,0,1-3.772-2.114,13.21,13.21,0,0,1-1.65-4.186c.175,3.845-4.312,7.081-7.905,5.7s-4.756-6.79-2.05-9.527" transform="translate(47.05 -121.677)" fill="#fff"/>
  <path id="Trazado_633548" data-name="Trazado 633548" d="M651.272,986.157a18.543,18.543,0,0,1-11.977-5.647c-1.595-1.674-2.925-4.052-2.124-6.221.784-2.126,3.424-3.109,5.646-2.663a11.1,11.1,0,0,1,5.614,3.634,38.064,38.064,0,0,0,4.76,4.839,6.663,6.663,0,0,1,1.125-8.137,5.723,5.723,0,0,1,7.945.526c1.852,2.319.966,6.35-1.785,7.465,2.837-1.48,5.97-2.829,9.135-2.362s6.144,3.475,5.428,6.594c-.579,2.527-3.36,4.088-5.952,4.009a12.547,12.547,0,0,1-7.027-3.019c1.053,1.94,2.134,3.986,2.124,6.193s-1.529,4.575-3.732,4.711a4.49,4.49,0,0,1-3.772-2.115,13.25,13.25,0,0,1-1.65-4.185c.176,3.845-4.312,7.081-7.9,5.7s-4.757-6.79-2.051-9.526" transform="translate(-45.422 -121.677)" fill="#fff"/>
  <path id="Trazado_633549" data-name="Trazado 633549" d="M674.606,1125.481a14.81,14.81,0,0,1-9.567-4.51c-1.273-1.338-2.336-3.237-1.7-4.97.626-1.7,2.735-2.483,4.51-2.126a8.863,8.863,0,0,1,4.485,2.9,30.321,30.321,0,0,0,3.8,3.865,5.321,5.321,0,0,1,.9-6.5,4.57,4.57,0,0,1,6.346.42,4.009,4.009,0,0,1-1.426,5.963c2.266-1.183,4.769-2.26,7.3-1.887s4.907,2.776,4.336,5.267c-.463,2.018-2.684,3.265-4.754,3.2a10.032,10.032,0,0,1-5.614-2.412,10.608,10.608,0,0,1,1.7,4.946c-.008,1.763-1.221,3.655-2.981,3.763a3.585,3.585,0,0,1-3.013-1.689,10.574,10.574,0,0,1-1.318-3.343,4.65,4.65,0,1,1-7.951-3.057" transform="translate(-41.445 -121.677)" fill="#fff"/>
</svg>
